<?xml version="1.0" encoding="utf-8"?>
<!-- Generator: Adobe Illustrator 25.3.0, SVG Export Plug-In . SVG Version: 6.00 Build 0)  -->
<svg version="1.1" id="Layer_1" xmlns="http://www.w3.org/2000/svg" xmlns:xlink="http://www.w3.org/1999/xlink" x="0px" y="0px"
	 viewBox="0 0 1920 700" style="enable-background:new 0 0 1920 700;" xml:space="preserve">
<style type="text/css">
	.st0{fill:#1B1D50;}
	.st1{opacity:0.42;fill:#8AD2D0;enable-background:new    ;}
	.st2{fill:#FFFFFF;}
</style>
<rect class="st0" width="1920" height="700"/>
<g>
	<g>
		<g>
			<g>
				<path class="st1" d="M741.85,260.35c0.15-9.87,3.01-21.63,12.57-26.49c10.46-5.31,22.63,1.46,30.38,8.54
					c8.56,7.84,15.01,17.92,19.17,28.71c4.44,11.52,6.77,24.57,3.73,36.74c-1.26,5.05-3.68,9.98-7.62,13.48
					c-2.03,1.79-4.46,3.12-7.08,3.83c-1.33,0.35-2.75,0.61-4.14,0.61c-1.63,0-3.2-0.57-4.79-0.85c-0.78-0.13-1.11,1.05-0.33,1.18
					c1.37,0.24,2.72,0.68,4.1,0.83c1.28,0.15,2.57-0.02,3.81-0.24c2.35-0.41,4.6-1.28,6.64-2.51c4.12-2.57,7.08-6.64,8.95-11.07
					c4.97-11.76,3.35-25.74-0.43-37.61c-3.77-11.85-10.15-23.06-18.95-31.89c-7.65-7.69-19.19-15.31-30.56-12.2
					c-12.44,3.38-16.53,17.47-16.7,28.92C740.61,261.14,741.85,261.14,741.85,260.35L741.85,260.35z"/>
			</g>
			<g>
				<path class="st1" d="M735.91,262.71c-0.83-13.89,2.46-30.08,14.7-38.42c12.18-8.28,27.9-4.46,39.12,3.59
					c12.57,9.02,21.48,22.56,27.38,36.7c6.34,15.2,8.87,32.78,3.35,48.61c-2.75,7.86-7.8,15.23-15.57,18.8
					c-8.6,3.96-18.67,2.66-27.09-1.11c-0.72-0.31-1.35,0.74-0.63,1.07c7.41,3.33,15.88,4.81,23.85,2.72
					c7.58-1.98,13.53-7.27,17.36-13.98c8.56-14.98,7.56-33.93,2.35-49.83c-5.01-15.29-13.81-30.23-26.14-40.71
					c-10.82-9.19-26.14-15.4-40.03-9.43c-16.07,6.91-20.86,26.07-19.89,42.01C734.73,263.51,735.95,263.51,735.91,262.71
					L735.91,262.71z"/>
			</g>
			<g>
				<path class="st1" d="M798.55,316.44c2.7-0.33,5.29-0.91,7.89-1.7c0.76-0.24,0.44-1.42-0.33-1.18c-2.48,0.76-4.97,1.33-7.56,1.65
					C797.76,315.32,797.76,316.55,798.55,316.44L798.55,316.44z"/>
			</g>
			<g>
				<path class="st1" d="M767.75,231.5c-10.34,4.31-17.19,13.94-17.31,25.22c0,0.8,1.22,0.8,1.24,0
					c0.11-10.67,6.58-19.93,16.4-24.04C768.8,232.39,768.49,231.21,767.75,231.5L767.75,231.5z"/>
			</g>
			<g>
				<path class="st1" d="M760.65,219.89c12.98-6.18,25.96-12.37,38.94-18.54c0.52-0.24,1.04-0.57,1.59-0.76
					c-0.35,0.11,0.41-0.04,0.52-0.06c1.57-0.24,3.42-0.33,5.1-0.31c7.14,0.02,14.24,1.81,20.6,5.05
					c10.5,5.34,18.49,14.4,24.15,24.59c4.14,7.45,7.21,15.55,9.74,23.68c1.94,6.27,3.51,12.74,4.05,19.3
					c0.67,8.1-0.04,18.43-7.53,23.02c-13.2,8.08-26.4,16.18-39.6,24.26c-0.39,0.24-0.8,0.48-1.18,0.72
					c-0.68,0.41-0.06,1.48,0.63,1.07c12.83-7.86,25.66-15.72,38.51-23.59c1.87-1.15,3.94-2.16,5.44-3.81
					c3.72-4.05,4.9-9.95,5.14-15.25c0.59-13.55-4.1-27.31-9.17-39.66c-4.99-12.18-12.33-23.74-23.17-31.52
					c-6.75-4.84-14.64-7.93-22.91-8.82c-2.53-0.28-5.1-0.35-7.65-0.17c-1,0.07-2.16,0.07-3.14,0.39c-1.65,0.52-3.25,1.53-4.81,2.27
					c-3.99,1.9-8.01,3.81-12,5.71c-7.51,3.57-15.01,7.16-22.5,10.72c-0.46,0.22-0.91,0.43-1.37,0.65
					C759.3,219.17,759.93,220.23,760.65,219.89L760.65,219.89z"/>
			</g>
			<g>
				<path class="st1" d="M835.12,311.45c6.27,8.82,14.22,16.31,23.33,22.15c9.56,6.12,20.41,10.76,31.67,12.39
					c12.74,1.85,26.35,0.52,38.35-4.22c11.28-4.46,21.48-11.07,31.36-18.03c19.82-13.96,38.59-29.75,55.93-46.65
					c8.62-8.39,16.86-17.14,24.76-26.22c4.07-4.68,7.73-9.61,11.7-14.37c0.91-1.09,1.33-2.27,2.14-3.38
					c0.81-1.13,1.92-1.98,2.72-3.12c0.72-1.05,1.05-2.33,1.77-3.35c0.48-0.67,1.22-1.13,1.7-1.77c0.41-0.55,0.7-1.26,1.02-1.87
					c11.11-22.15,5.03-47.11-4.09-68.78c-4.44-10.58-9.28-21.15-15.23-30.97c-5.86-9.69-12.89-18.67-21.02-26.55
					c-4.18-4.05-8.49-8.08-13.87-10.43c-5.53-2.4-11.81-2.79-17.77-3.05c-6.84-0.3-13.63,0.13-20.43,0.63
					c-6.67,0.5-13.35,0.96-20.02,1.48c-13.42,1.05-26.85,2.31-40.16,4.33c-12.79,1.94-25.57,4.55-38.22,7.3
					c-12.18,2.64-24.28,5.81-35.92,10.3c-5.71,2.2-11.57,4.57-16.83,7.77c-2.64,1.61-5.16,3.46-7.62,5.34
					c-2.37,1.81-4.79,3.55-7.03,5.51c-4.2,3.68-7.53,8.15-10.46,12.87c-1.63,2.59-3.29,5.16-4.83,7.8c-1.42,2.44-2.48,5.1-3.53,7.73
					c-2.31,5.69-3.53,12.11-4.34,18.17c-0.87,6.38-1.07,12.83-0.55,19.25c0.48,6.08,1.59,12.11,3.29,17.95
					c0.22,0.76,1.42,0.44,1.18-0.33c-3.57-12.26-4.44-25.22-2.55-37.85c0.91-6.08,2.29-12.28,4.66-17.99
					c2.27-5.47,5.32-10.41,8.52-15.38c3.14-4.9,6.84-9.43,11.46-13c4.7-3.62,9.36-7.53,14.64-10.3
					c10.83-5.69,22.61-9.67,34.41-12.85c11.81-3.18,23.83-5.53,35.83-7.84c12.91-2.48,25.81-4.53,38.88-5.86
					c12.92-1.33,25.9-2.2,38.86-3.16c6.6-0.5,13.2-0.92,19.82-0.68c6.27,0.22,12.96,0.55,18.73,3.22
					c5.36,2.48,9.71,6.73,13.87,10.83c4.07,4.01,7.86,8.3,11.33,12.83c6.64,8.63,12.17,18.1,16.77,27.96
					c9.74,20.91,20.34,44.1,16.18,67.76c-0.5,2.87-1.22,5.69-2.16,8.45c-0.5,1.5-1.07,2.96-1.72,4.4c-0.65,1.48-1.29,3.25-2.37,4.49
					c-0.83,0.98-1.55,1.55-2.09,2.74c-0.61,1.37-1.31,2.51-2.37,3.59c-0.81,0.83-1.61,1.74-2.16,2.77c-0.74,1.39-1.61,2.5-2.63,3.7
					c-1.94,2.27-3.57,4.79-5.47,7.06c-1.92,2.29-3.86,4.57-5.82,6.82c-3.86,4.42-7.82,8.76-11.85,13.03
					c-15.96,16.83-33.32,32.26-51.58,46.54c-9.65,7.56-19.52,14.92-30.01,21.3c-5.03,3.05-10.22,5.82-15.66,8.08
					c-6.05,2.5-12.41,4.1-18.9,4.94c-12.52,1.61-25.05,0.04-36.74-4.7c-10.08-4.07-19.47-9.95-27.38-17.42
					c-3.86-3.64-7.36-7.65-10.43-11.98C835.73,310.19,834.66,310.8,835.12,311.45L835.12,311.45z"/>
			</g>
			<g>
				<path class="st1" d="M814.29,117.83c-1.05-7.08-0.92-15.88,1.77-22.87c1.96-5.05,5.79-8.99,11.35-9.61
					c1.87-0.22,3.72-0.04,5.58,0.17c3.05,0.33,6.06,0.8,9.08,1.35c5.29,0.98,10.5,2.26,15.66,3.75c6.27,1.81,12.68,3.92,18.6,6.49
					c0.72,0.31,1.35-0.76,0.63-1.07c-5.18-2.24-10.58-4.07-15.96-5.73c-5.31-1.63-10.71-3.05-16.14-4.16
					c-2.98-0.61-5.95-1.13-8.95-1.52c-2.37-0.31-4.77-0.68-7.17-0.61c-12.5,0.43-15.88,13.59-16.18,23.92
					c-0.09,3.4,0.02,6.86,0.52,10.22C813.22,118.94,814.4,118.61,814.29,117.83L814.29,117.83z"/>
			</g>
			<g>
				<path class="st1" d="M884.19,93.69c-6.14-2.81-12.55-5.08-18.97-7.16c-6.4-2.05-12.89-3.83-19.47-5.2
					c-3.62-0.76-7.27-1.39-10.95-1.89c-2.75-0.37-5.57-0.8-8.34-0.68c-15.31,0.59-18.78,17.38-18.88,29.8
					c-0.04,4.18,0.18,8.45,0.87,12.59c0.13,0.78,1.31,0.44,1.18-0.33c-0.52-3.22-0.72-6.51-0.79-9.74
					c-0.15-6.27,0.3-12.74,2.39-18.69c2.16-6.19,6.56-11.24,13.33-12.2c2.14-0.31,4.31-0.17,6.45,0.07
					c3.75,0.39,7.49,0.96,11.19,1.66c6.47,1.22,12.87,2.83,19.15,4.73c7.53,2.27,15.05,4.86,22.21,8.14
					C884.29,95.09,884.92,94.02,884.19,93.69L884.19,93.69z"/>
			</g>
			<g>
				<path class="st1" d="M793.32,139.82c0.02,0.09,0,0.02-0.02-0.2c-0.04-0.31-0.07-0.65-0.11-0.96c-0.13-1.13-0.24-2.27-0.33-3.42
					c-0.35-3.98-0.54-7.95-0.59-11.94c-0.15-10.93,0.65-22.13,3.98-32.61c3.2-10.1,9.43-19.76,20.19-22.69
					c2.96-0.8,6.05-1.07,9.1-0.94c5.66,0.22,11.37,1.13,16.95,2.02c11.2,1.77,22.28,4.27,33.19,7.34
					c12.59,3.53,25.11,7.71,37.09,12.94c0.18,0.07,0.35,0.15,0.54,0.24c0.72,0.33,1.35-0.74,0.63-1.07
					c-10.15-4.6-20.86-8.21-31.51-11.43c-10.76-3.25-21.71-5.99-32.76-8.02c-6.05-1.13-12.13-2.03-18.25-2.7
					c-3.86-0.43-7.67-0.78-11.56-0.28c-5.36,0.7-10.39,2.94-14.4,6.6c-3.94,3.59-6.75,8.26-8.76,13.16
					c-4.33,10.46-5.51,22.13-5.66,33.35c-0.06,4.53,0.07,9.08,0.41,13.61c0.17,2.27,0.24,4.66,0.67,6.91
					c0.02,0.15,0.04,0.3,0.06,0.44C792.25,140.93,793.43,140.59,793.32,139.82L793.32,139.82z"/>
			</g>
			<g>
				<path class="st1" d="M932.88,339.85c2.37,2.29,5.01,4.34,7.69,6.21c4.81,3.37,10.32,6.42,16.23,7.16
					c6.34,0.8,11.72-2.09,14.99-7.53c5.2-8.62,9.08-18.12,12.3-27.64c1.83-5.38,3.51-10.87,4.73-16.44
					c0.17-0.78-1.02-1.11-1.18-0.33c-2.88,13.18-7.67,26.31-13.85,38.27c-1.87,3.62-3.73,7.67-7.12,10.17
					c-2.29,1.68-5.07,2.44-7.88,2.39c-5.84-0.11-11.44-3.05-16.21-6.21c-3.11-2.05-6.14-4.36-8.82-6.95
					C933.17,338.43,932.3,339.3,932.88,339.85L932.88,339.85z"/>
			</g>
			<g>
				<path class="st1" d="M927.35,342.72c2.87,2.75,6.06,5.21,9.32,7.49c5.9,4.12,12.63,7.89,19.86,8.91
					c7.54,1.07,14.2-2.02,18.25-8.49c6.49-10.35,11.04-22.17,14.75-33.76c2.13-6.6,4.05-13.33,5.36-20.15
					c0.15-0.78-1.04-1.11-1.18-0.33c-0.98,5.08-2.35,10.1-3.79,15.05c-3.29,11.2-7.43,22.21-12.85,32.58
					c-2.22,4.23-4.46,8.8-8.52,11.54c-2.88,1.94-6.29,2.7-9.73,2.55c-7.14-0.31-13.96-3.94-19.8-7.8c-3.79-2.5-7.49-5.31-10.78-8.45
					C927.64,341.29,926.77,342.16,927.35,342.72L927.35,342.72z"/>
			</g>
			<g>
				<path class="st1" d="M904.77,346.6c4.49,4.22,9.45,8.01,14.48,11.54c9.47,6.64,20.02,12.7,31.45,15.14
					c5.42,1.16,11.11,1.42,16.51-0.04c5.69-1.55,10.58-5.05,14.24-9.65c2.79-3.51,4.88-7.56,7.01-11.48
					c2.64-4.92,5.14-9.91,7.45-14.98c4.18-9.12,7.88-18.45,11.15-27.94c3.68-10.69,7.1-21.65,9.36-32.74
					c0.04-0.17,0.07-0.33,0.11-0.5c0.15-0.78-1.04-1.11-1.18-0.33c-1.76,8.75-4.31,17.38-7.01,25.87
					c-6.12,19.23-13.92,38.01-24,55.52c-3.31,5.73-7.45,10.83-13.57,13.66c-4.99,2.31-10.63,2.74-16.05,2.07
					c-11.5-1.44-22.28-7.27-31.8-13.59c-6.03-3.99-11.43-8.6-16.99-13.18c-0.09-0.07-0.17-0.15-0.24-0.22
					C905.07,345.18,904.2,346.04,904.77,346.6L904.77,346.6z"/>
			</g>
			<g>
				<path class="st1" d="M818.67,116.45c7.25,2.37,14.27,5.66,21.1,9.06c15.86,7.95,30.88,17.79,44.17,29.58
					c16.86,14.96,30.82,33.24,39.23,54.27c10.89,27.18,15.73,56.58,15.27,85.81c-0.22,14.59-1.61,29.34-4.96,43.56
					c-0.06,0.2-0.09,0.41-0.15,0.59c-0.2,0.78,0.98,1.09,1.18,0.33c3.11-11.72,4.27-24.2,4.86-36.26
					c1.41-28.08-2.03-56.56-10.96-83.27c-4.12-12.35-9.43-24.17-16.6-35.06c-6.08-9.24-13.28-17.73-21.19-25.44
					c-13.46-13.09-29.01-23.96-45.58-32.76c-5.58-2.98-11.3-5.69-17.12-8.15c-2.77-1.16-5.62-2.48-8.54-3.31
					c-0.13-0.04-0.26-0.09-0.41-0.13C818.24,115,817.91,116.21,818.67,116.45L818.67,116.45z"/>
			</g>
			<g>
				<path class="st1" d="M882.4,96.46c6.82,3.09,13.29,7.23,19.47,11.43c15.2,10.34,29.03,22.74,40.9,36.77
					c7.71,9.1,14.59,18.9,20.49,29.25c7.04,12.39,12.37,25.57,16.99,39.03c6.97,20.32,12.67,41.82,12.92,63.44
					c0.09,7.4-0.37,15.03-2.87,22.04c-0.06,0.17,0.06-0.11-0.06,0.11c-0.33,0.72,0.74,1.35,1.07,0.63c0.63-1.35,1.02-2.85,1.37-4.31
					c1.05-4.36,1.5-8.86,1.66-13.33c0.74-19.62-3.72-39.4-9.39-58.04c-4.25-13.96-9.23-27.86-15.72-40.95
					c-5.55-11.17-12.22-21.76-19.84-31.63c-11.98-15.53-26.27-29.27-42.16-40.75c-5.14-3.72-10.46-7.21-15.96-10.37
					c-2.57-1.48-5.2-3-7.91-4.22c-0.13-0.06-0.24-0.11-0.37-0.17C882.31,95.07,881.68,96.13,882.4,96.46L882.4,96.46z"/>
			</g>
			<g>
				<path class="st1" d="M946.67,86.75c2.9,1.79,5.64,3.85,8.36,5.9c7.27,5.53,14.11,11.61,20.6,18.03
					c9.43,9.36,18.05,19.51,25.74,30.34c9.52,13.44,17.62,27.9,23.94,43.12c7.41,17.84,12.41,36.66,14.87,55.82
					c0.33,2.57,0.61,5.14,0.85,7.73c0.07,0.78,1.31,0.8,1.24,0c-1.87-19.73-6.29-39.2-13.33-57.72
					c-5.97-15.72-13.77-30.73-23.15-44.69c-7.67-11.44-16.4-22.21-25.98-32.12c-6.84-7.08-14.14-13.74-21.89-19.82
					c-2.33-1.83-4.7-3.61-7.12-5.31c-1.04-0.74-2.18-1.74-3.35-2.26c-0.06-0.02-0.09-0.06-0.15-0.09
					C946.61,85.27,945.99,86.35,946.67,86.75L946.67,86.75z"/>
			</g>
			<g>
				<path class="st1" d="M965.58,85.26c2.72,1.24,5.32,2.79,7.86,4.36c6.82,4.2,13.24,9.04,19.27,14.31
					c8.89,7.77,16.97,16.51,24.04,25.96c9.06,12.11,16.51,25.42,22.24,39.42c7.17,17.53,11.67,36.09,13.85,54.88
					c0.31,2.64,0.57,5.27,0.79,7.91c0.07,0.8,1.29,0.8,1.24,0c-1.65-19.43-5.55-38.72-12.31-57.02
					c-5.44-14.7-12.67-28.73-21.65-41.56c-7.06-10.08-15.2-19.43-24.28-27.75c-6.38-5.84-13.2-11.22-20.47-15.9
					c-2.18-1.41-4.42-2.75-6.69-3.99c-1-0.54-2.05-1.24-3.12-1.61c-0.06-0.02-0.09-0.04-0.13-0.06
					C965.49,83.87,964.86,84.92,965.58,85.26L965.58,85.26z"/>
			</g>
			<g>
				<path class="st1" d="M789.49,245.87c-33.19,6.93-64.99,19.23-94.26,36.33c-26.05,15.22-56.13,35.33-60.39,67.85
					c-1.81,13.87,2.37,26.33,11.07,37.07c8.08,9.97,18.99,18.38,24.42,30.27c6.69,14.68-0.61,29.95-13.44,38.38
					c-14.94,9.82-34.15,9.32-51.31,9.71c-37.02,0.83-74.07,0.7-111.08-0.63c-18.67-0.67-37.33-1.65-55.97-2.9
					c-8.67-0.57-17.03-0.85-25.61,0.8c-3.99,0.78-7.91,1.85-11.76,3.2c-3.33,1.16-7.32,2.42-10.19,4.55
					c-4.75,3.51-2.44,9.28,1.9,11.98c2.68,1.66,5.93,2.02,8.93,2.81c2.11,0.55,4.55,1.24,6.12,2.87c3.4,3.57-0.5,6.95-3.57,8.56
					c-7.53,3.96-16.51,5.62-24.79,7.04c-8.32,1.42-16.73,2.4-25,4.1c-8.19,1.7-33.48,7.12-26.35,20.86
					c3.29,6.34,10.8,7.65,17.14,8.67c3.83,0.61,7.84,1.26,11.09,3.53c4.97,3.49,6.71,9.58,1.92,14.05
					c-3.12,2.92-7.56,4.66-11.44,6.23c-4.09,1.65-8.28,2.96-12.54,4.12c-8.19,2.22-16.55,3.81-24.79,5.86
					c-9.89,2.46-30.69,7.32-25.46,22.08c5.03,14.22,24.55,16.03,37.2,16.1c18.77,0.11,37.46-0.59,56.21,0.65
					c1.2,0.07,2.44,0.09,3.61,0.41c3.18,0.89,2.31,4.9-0.06,6.34c-1.85,1.13-4.03,1.55-6.16,1.81c-3.31,0.41-6.79,0.15-10.02,1.05
					c-4.27,1.2-9.95,5.27-8.47,10.45c1.66,5.75,9.28,5.45,13.98,5.44c9.23-0.02,18.47-0.09,27.7-0.26
					c9.08-0.17,18.16-0.39,27.22-0.78c9.58-0.41,19.14,0.18,28.71,0.54c18.77,0.72,37.53,1.44,56.32,2.16
					c37.48,1.44,74.95,2.88,112.43,4.33c38.18,1.46,76.38,3.09,114.6,2.63c64.84-0.79,136.65-8.02,184.8-56.6
					c20.78-20.97,34.11-48.44,35.04-78.17c0.44-14.13-1.94-28.42-7.58-41.42c-5.84-13.5-15.23-25-26.72-34.13
					c-24.55-19.52-55.36-27.73-84.79-36.74c-16.7-5.1-33.39-10.63-48.77-18.97c-7.21-3.9-15.6-8.38-19.41-16.03
					c-3.79-7.64-1.59-16.6,2.64-23.57c8.19-13.5,23.96-19.32,35.74-28.99c0.61-0.5-0.26-1.37-0.87-0.87
					c-11.63,9.56-26.99,15.29-35.41,28.38c-3.48,5.42-5.82,11.94-5.21,18.45c0.63,6.64,4.46,11.91,9.56,15.96
					c12.48,9.87,28.64,15.92,43.54,21.08c15.83,5.47,32,9.76,47.89,15.03c28.73,9.56,58.76,23.65,75.21,50.38
					c15.92,25.87,16.4,59.05,5.79,86.97c-10.8,28.4-33.41,50.94-59.22,66.21c-29.23,17.29-62.75,25.37-96.25,28.92
					c-36.68,3.9-73.85,3.33-110.68,2.35c-37.57-1-75.12-2.68-112.65-4.12c-36.94-1.42-73.88-2.85-110.82-4.27
					c-9.24-0.35-18.64-1.2-27.88-1.02c-8.78,0.18-17.56,0.72-26.35,0.92c-9.1,0.2-18.21,0.31-27.33,0.37
					c-3.79,0.02-7.62,0.2-11.41,0c-2.03-0.11-4.27-0.35-6.08-1.42c-3.35-1.98-3.37-5.71-0.94-8.41c5.4-6.05,13.83-3.05,20.6-5.68
					c3.83-1.5,8.23-6.84,2.55-9.17c-2.68-1.11-5.99-0.83-8.8-0.98c-5.25-0.26-10.5-0.44-15.75-0.57c-9.13-0.2-18.27-0.18-27.4,0.02
					c-8.62,0.18-17.38,0.46-25.83-1.46c-7.99-1.83-18.12-6.42-19.82-15.44c-1.77-9.37,8.45-13.83,15.64-16.1
					c7.93-2.5,16.07-4.16,24.17-6.01c8.23-1.87,16.46-3.94,24.24-7.25c5.2-2.22,12.96-5.34,13.72-11.87
					c0.61-5.2-3.77-9.56-8.17-11.52c-7.62-3.37-17.6-1.31-23.61-8.14c-8.3-9.39,5.9-16.01,13.05-18.32
					c7.84-2.53,15.99-3.86,24.11-5.1c8.14-1.24,16.31-2.37,24.28-4.47c3.72-0.98,7.4-2.18,10.93-3.72c2.5-1.09,5.4-2.53,6.73-5.08
					c3.05-5.77-4.51-8.67-8.76-9.69c-3.99-0.96-8.34-1.65-10.69-5.45c-3.79-6.14,4.62-8.8,8.89-10.45
					c8.23-3.18,17.01-5.07,25.83-5.32c9.15-0.28,18.43,0.94,27.57,1.48c36.22,2.16,72.5,3.2,108.77,3.16
					c18.43-0.02,36.9-0.18,55.34-0.81c14.88-0.52,30.91-2.02,43.19-11.35c10.1-7.69,16.6-20.01,13.35-32.8
					c-2.94-11.54-12.26-20.21-20.08-28.64c-4.57-4.92-9.08-10-12.39-15.88c-3.99-7.12-5.62-15.22-5.23-23.33
					c0.81-16.66,9.54-31.47,21.15-42.99c11.65-11.59,25.88-20.54,40.03-28.75c14.85-8.6,30.36-16.07,46.41-22.13
					c15.14-5.73,30.73-10.19,46.57-13.5C790.6,246.89,790.27,245.7,789.49,245.87L789.49,245.87z"/>
			</g>
			<g>
				<path class="st1" d="M844.91,119.44c9.71,4.09,18.73,9.69,26.7,16.58c0.59,0.52,1.48-0.35,0.87-0.87
					c-8.15-7.04-17.32-12.72-27.25-16.9C844.5,117.94,844.18,119.15,844.91,119.44L844.91,119.44z"/>
			</g>
			<g>
				<path class="st1" d="M866.98,126.47c10.08,4.75,19.95,9.71,27.86,17.71c3.99,4.05,7.67,8.41,11.44,12.67
					c4.01,4.53,8.02,9.06,12.04,13.59c0.54,0.59,1.41-0.28,0.87-0.87c-4.01-4.53-8.02-9.06-12.04-13.59
					c-3.9-4.38-7.69-8.91-11.85-13.05c-7.89-7.89-17.73-12.81-27.72-17.51C866.89,125.06,866.26,126.12,866.98,126.47L866.98,126.47
					z"/>
			</g>
			<g>
				<path class="st1" d="M896.18,155.51c11.2,9.32,21.37,19.86,30.27,31.43c0.48,0.63,1.55,0,1.07-0.63
					c-8.95-11.65-19.15-22.28-30.45-31.67C896.43,154.15,895.55,155.02,896.18,155.51L896.18,155.51z"/>
			</g>
			<g>
				<path class="st1" d="M867.83,319.64c10.11-4.01,15.27-14.59,18.05-24.48c3.31-11.81,3.72-24.39,1.37-36.4
					c-1.33-6.8-3.59-13.39-6.67-19.58c-0.35-0.72-1.42-0.09-1.07,0.63c5.23,10.58,7.95,22.3,8.01,34.08
					c0.04,11.07-2.05,22.96-7.53,32.73c-2.87,5.1-6.93,9.63-12.48,11.83C866.78,318.75,867.09,319.94,867.83,319.64L867.83,319.64z"
					/>
			</g>
			<g>
				<path class="st1" d="M876.93,227.66c-12.2-23.56-33.1-43.62-60.09-47.92c-7.53-1.2-15.22-1.07-22.69,0.52
					c-0.78,0.17-0.44,1.35,0.33,1.18c13.4-2.87,27.51-0.76,39.94,4.92c11.63,5.31,21.6,13.7,29.6,23.61
					c4.59,5.68,8.49,11.85,11.85,18.3C876.23,228.99,877.3,228.36,876.93,227.66L876.93,227.66z"/>
			</g>
			<g>
				<path class="st1" d="M803.66,171.19c10.87-0.67,21.78,1.31,31.71,5.84c0.72,0.33,1.35-0.74,0.63-1.07
					c-10.13-4.6-21.23-6.67-32.32-6.01C802.86,169.99,802.86,171.23,803.66,171.19L803.66,171.19z"/>
			</g>
			<g>
				<path class="st1" d="M802.79,164.76c1.63,0.11,3.25,0.24,4.9,0.35c0.8,0.06,0.8-1.18,0-1.24c-1.63-0.11-3.25-0.24-4.9-0.35
					C802.01,163.46,802.01,164.7,802.79,164.76L802.79,164.76z"/>
			</g>
			<g>
				<path class="st1" d="M896.32,260.33c4.23,8.91,3.33,19.06,2.39,28.58c-0.07,0.8,1.16,0.8,1.24,0
					c0.94-9.78,1.77-20.06-2.57-29.19C897.04,258.98,895.97,259.61,896.32,260.33L896.32,260.33z"/>
			</g>
			<g>
				<path class="st1" d="M897.77,245.52c4.07,6.99,6.25,14.87,6.36,22.94c0.02,0.8,1.24,0.8,1.24,0c-0.11-8.3-2.37-16.4-6.53-23.57
					C898.43,244.21,897.36,244.84,897.77,245.52L897.77,245.52z"/>
			</g>
			<g>
				<path class="st1" d="M903.98,250.03c0.94,1.35,1.89,2.72,2.83,4.07c0.44,0.65,1.52,0.04,1.07-0.63
					c-0.94-1.35-1.89-2.72-2.83-4.07C904.59,248.75,903.52,249.36,903.98,250.03L903.98,250.03z"/>
			</g>
			<g>
				<path class="st1" d="M833.77,302.78c4.9-3.62,10.22-6.6,15.9-8.8c0.74-0.28,0.41-1.48-0.33-1.18
					c-5.79,2.26-11.22,5.23-16.2,8.93C832.52,302.19,833.13,303.26,833.77,302.78L833.77,302.78z"/>
			</g>
			<g>
				<path class="st1" d="M835.88,293.66c6.6-4.38,13.55-8.19,20.8-11.43c0.72-0.31,0.09-1.39-0.63-1.07
					c-7.25,3.22-14.2,7.04-20.8,11.43C834.59,293.04,835.22,294.11,835.88,293.66L835.88,293.66z"/>
			</g>
			<g>
				<path class="st1" d="M817.08,287.66c0.83,6.06,0.33,12.2-1.42,18.06c-0.22,0.76,0.96,1.09,1.18,0.33
					c1.83-6.08,2.31-12.42,1.42-18.73C818.17,286.55,816.99,286.88,817.08,287.66L817.08,287.66z"/>
			</g>
			<g>
				<path class="st1" d="M985.03,205.29c6.69,17.36,11.28,35.5,13.61,53.95c0.09,0.78,1.33,0.8,1.24,0
					c-2.35-18.58-6.91-36.81-13.64-54.28C985.94,204.21,984.74,204.55,985.03,205.29L985.03,205.29z"/>
			</g>
			<g>
				<path class="st1" d="M1005.87,258.66c0.65-19.8-4.31-39.66-14.11-56.87c-2.75-4.84-5.92-9.45-9.39-13.81
					c-0.5-0.63-1.37,0.26-0.87,0.87c12.24,15.33,20.08,34.08,22.45,53.54c0.67,5.4,0.89,10.83,0.7,16.27
					C1004.6,259.46,1005.83,259.46,1005.87,258.66L1005.87,258.66z"/>
			</g>
			<g>
				<path class="st1" d="M993.87,191.25c1.52,2.22,3.05,4.44,4.57,6.66c0.44,0.65,1.52,0.04,1.07-0.63
					c-1.53-2.22-3.05-4.44-4.57-6.66C994.48,189.98,993.41,190.59,993.87,191.25L993.87,191.25z"/>
			</g>
			<g>
				<path class="st1" d="M1035.42,244.41c-1.11-7.93-2.92-15.72-5.4-23.33c-0.24-0.76-1.44-0.43-1.18,0.33
					c2.48,7.6,4.29,15.4,5.4,23.33C1034.34,245.52,1035.53,245.19,1035.42,244.41L1035.42,244.41z"/>
			</g>
			<g>
				<path class="st1" d="M997.72,91.54c21.02,9.71,31.6,31.56,40.92,51.42c0.33,0.72,1.41,0.09,1.07-0.63
					c-9.41-20.06-20.15-42.06-41.36-51.86C997.63,90.14,997,91.21,997.72,91.54L997.72,91.54z"/>
			</g>
			<g>
				<path class="st1" d="M1038.49,129.63c8.19,12.54,14.53,26.18,18.86,40.51c0.22,0.76,1.42,0.44,1.18-0.33
					c-4.34-14.42-10.74-28.18-18.99-40.81C1039.11,128.35,1038.04,128.96,1038.49,129.63L1038.49,129.63z"/>
			</g>
			<g>
				<path class="st1" d="M839.77,72.13c6.79,2.14,13.61,4.12,20.49,5.93c0.78,0.2,1.09-1,0.33-1.18c-6.88-1.81-13.7-3.77-20.49-5.93
					C839.32,70.71,839.01,71.89,839.77,72.13L839.77,72.13z"/>
			</g>
			<g>
				<path class="st1" d="M854.17,78.73c5.81,1.77,11.57,3.68,17.29,5.71c0.76,0.28,1.07-0.92,0.33-1.18
					c-5.71-2.05-11.48-3.96-17.29-5.71C853.74,77.31,853.41,78.49,854.17,78.73L854.17,78.73z"/>
			</g>
			<g>
				<path class="st1" d="M936.39,356.6c1.72,0.96,3.46,1.92,5.18,2.88c0.7,0.39,1.31-0.68,0.63-1.07c-1.72-0.96-3.46-1.92-5.18-2.88
					C936.32,355.16,935.69,356.21,936.39,356.6L936.39,356.6z"/>
			</g>
			<g>
				<path class="st1" d="M936.13,359.45c6.21,4.33,13.77,6.38,21.34,5.79c0.8-0.06,0.8-1.29,0-1.24
					c-7.36,0.57-14.66-1.39-20.71-5.62C936.09,357.93,935.46,359.01,936.13,359.45L936.13,359.45z"/>
			</g>
			<g>
				<path class="st1" d="M782.97,258.68c-18.08,6.21-35.65,13.81-52.8,22.21c-8.56,4.2-17.03,8.58-25.44,13.09
					c-8.1,4.34-16.2,8.76-23.59,14.27c-6.71,5.01-12.79,10.93-17.29,18.05c-4.18,6.64-7.58,15.07-6.56,23.06
					c1.07,8.36,8.52,13.76,14.44,18.9c6.56,5.69,13.33,11.37,18.45,18.45c10.8,14.92,13.18,35.2,6.4,52.27
					c-0.3,0.74,0.91,1.05,1.18,0.33c5.71-14.37,5.01-30.93-1.59-44.87c-3.53-7.49-8.86-13.72-14.87-19.34
					c-6.1-5.69-13.13-10.67-18.6-16.99c-3.09-3.57-4.53-7.75-4.33-12.46c0.18-4.47,1.59-8.97,3.44-13.02
					c3.4-7.41,8.71-13.83,14.83-19.17c7.01-6.14,15.07-10.95,23.2-15.42c8.14-4.47,16.36-8.78,24.65-12.94
					c19.06-9.58,38.61-18.27,58.8-25.2C784.04,259.63,783.73,258.42,782.97,258.68L782.97,258.68z"/>
			</g>
			<g>
				<path class="st1" d="M687.67,318.29c-8.21,8.12-5.99,21.52-0.17,30.34c7.45,11.26,20.21,17.55,29.36,27.2
					c18.3,19.3,24.52,48.26,15.36,73.25c-4.38,11.98-12,22.8-21.84,30.93c-10.95,9.04-24.46,14.11-38.18,17.14
					c-14.92,3.27-30.3,4.6-45.5,5.82c-16.23,1.29-32.49,2.05-48.77,2.44c-32.6,0.76-65.19,0-97.79-0.94
					c-4.07-0.11-8.14-0.24-12.22-0.35c-0.8-0.02-0.8,1.22,0,1.24c32.98,0.96,66.01,1.92,99.01,1.5c16.47-0.22,32.97-0.78,49.4-1.89
					c15.44-1.02,30.95-2.29,46.24-4.75c13.85-2.24,27.72-5.86,39.86-13.11c10.85-6.47,19.82-15.86,26-26.88
					c6.18-11,9.52-23.56,9.32-36.18c-0.22-12.91-3.98-25.7-10.61-36.76c-3.35-5.55-7.43-10.67-12.15-15.12
					c-4.97-4.68-10.56-8.62-15.77-13c-5.08-4.29-9.98-9.08-12.85-15.18c-2.5-5.32-3.7-11.65-2.13-17.42
					c0.78-2.85,2.24-5.36,4.33-7.43C689.12,318.61,688.25,317.74,687.67,318.29L687.67,318.29z"/>
			</g>
			<g>
				<path class="st1" d="M458.87,489.3c20.5-1.2,41.05-1.72,61.59-1.52c5.82,0.06,11.65,0.17,17.47,0.33c0.8,0.02,0.8-1.22,0-1.24
					c-20.54-0.57-41.08-0.48-61.61,0.33c-5.82,0.22-11.63,0.52-17.45,0.85C458.1,488.11,458.08,489.35,458.87,489.3L458.87,489.3z"
					/>
			</g>
			<g>
				<path class="st1" d="M454.95,614.78c38.33-4.7,77.01-4.16,115.54-3.62c38.16,0.54,76.51,1.11,114.45-3.59
					c9.36-1.16,18.69-2.64,27.94-4.51c8.75-1.77,17.71-3.62,26.14-6.56c5.77-2.02,12.46-5.32,14.55-11.54
					c2.4-7.14-2.85-13.59-8.47-17.31c-14.31-9.45-32.95-8.86-49.33-7.62c-19.78,1.5-39.53,3.03-59.35,3.81
					c-20.41,0.79-40.86,1.02-61.27,0.7c-10-0.15-20.02-0.44-30.03-0.87c-8.49-0.35-17.58-0.11-25.74-2.77
					c-3.61-1.18-6.88-3.07-9.43-5.9c-0.04,0.31-0.09,0.65-0.13,0.98c12.55-6.27,26.94-8.49,40.79-6.29
					c0.78,0.13,1.11-1.07,0.33-1.18c-14.22-2.27-28.86-0.04-41.75,6.4c-0.37,0.18-0.37,0.7-0.13,0.98
					c4.9,5.44,12.15,7.27,19.17,8.04c9.23,1.02,18.62,1.09,27.9,1.39c19.8,0.65,39.64,0.76,59.44,0.37
					c20.02-0.41,40.03-1.33,60-2.79c9.02-0.67,18.05-1.61,27.09-2.05c8.65-0.43,17.44-0.37,25.94,1.52
					c7.88,1.76,17.01,5.14,21.87,11.98c2.22,3.11,3.16,6.99,1.76,10.65c-1.2,3.18-3.92,5.53-6.77,7.23
					c-3.09,1.85-6.51,3.09-9.95,4.09c-4.44,1.28-8.93,2.42-13.42,3.48c-9.13,2.14-18.38,3.88-27.66,5.25
					c-37.14,5.53-74.84,5.51-112.3,5.05c-37.79-0.48-75.68-1.48-113.36,1.98c-4.62,0.43-9.23,0.92-13.83,1.48
					C454.18,613.64,454.16,614.88,454.95,614.78L454.95,614.78z"/>
			</g>
			<g>
				<path class="st1" d="M698.73,578.43c-30.03,1.98-60.11,3.24-90.21,3.77c-29.99,0.54-60,0.35-89.99-0.55
					c-16.88-0.5-33.76-1.24-50.62-2.2c-0.8-0.04-0.8,1.18,0,1.24c30.04,1.72,60.14,2.72,90.25,2.98c29.99,0.28,60-0.18,89.97-1.35
					c16.88-0.67,33.74-1.55,50.6-2.66C699.53,579.62,699.53,578.38,698.73,578.43L698.73,578.43z"/>
			</g>
			<g>
				<path class="st1" d="M574.39,545.58c38.51-0.28,77.56-0.55,115.11-10.17c16.66-4.27,32.93-10.34,47.92-18.77
					c14.42-8.12,28.27-18.43,38.35-31.69c11.41-14.99,17.42-35.3,10.28-53.49c-0.3-0.74-1.48-0.41-1.18,0.33
					c6.42,16.34,2.02,34.65-7.49,48.81c-9.28,13.83-22.94,24.53-37.14,32.97c-30.47,18.12-65.88,25.7-100.84,28.64
					c-21.61,1.81-43.32,1.98-64.99,2.13C573.6,544.36,573.58,545.6,574.39,545.58L574.39,545.58z"/>
			</g>
			<g>
				<path class="st1" d="M742.73,478.35c9.97-9.98,15.44-23.57,16.84-37.48c1.53-15.22-2.02-30.47-8.17-44.34
					c-3.29-7.41-7.32-14.5-11.81-21.26c-4.33-6.51-9.19-12.89-11.94-20.26c-5.42-14.46,0.04-30.14,9.74-41.42
					c11.57-13.46,28.58-20.65,44.52-27.47c0.72-0.31,0.09-1.37-0.63-1.07c-14.38,6.16-29.21,12.52-40.73,23.43
					c-10.04,9.5-17.44,23.35-16.23,37.48c0.65,7.56,3.99,14.37,8.02,20.69c4.23,6.64,8.84,12.98,12.68,19.88
					c7.8,14.01,13.42,29.69,13.68,45.87c0.26,16.44-5.05,33.3-16.84,45.09C741.31,478.04,742.18,478.93,742.73,478.35L742.73,478.35
					z"/>
			</g>
			<g>
				<path class="st1" d="M710.8,316.74c6.18-6.4,13.07-12.04,20.56-16.84c0.67-0.43,0.06-1.5-0.63-1.07
					c-7.58,4.84-14.55,10.56-20.8,17.03C709.36,316.44,710.25,317.31,710.8,316.74L710.8,316.74z"/>
			</g>
			<g>
				<path class="st1" d="M746.86,292c5.23-2.48,10.48-4.96,15.72-7.43c0.72-0.33,0.09-1.41-0.63-1.07
					c-5.23,2.48-10.48,4.96-15.72,7.43C745.51,291.28,746.14,292.33,746.86,292L746.86,292z"/>
			</g>
			<g>
				<path class="st1" d="M787.96,299.4c-12.81,9.19-26.25,18.86-33.72,33.19c-3.48,6.67-5.6,14.18-5.2,21.76
					c0.37,6.8,2.83,13.29,6.69,18.88c8.36,12.05,21.63,19.01,35.28,23.37c8.04,2.57,16.31,4.4,24.5,6.45
					c7.6,1.9,15.12,4.09,22.5,6.69c28.73,10.11,56.23,27.18,71.26,54.51c7.12,12.94,11.28,27.7,10.63,42.51
					c-0.63,14.66-6.3,28.49-15.03,40.18c-19.34,25.87-50.05,38.61-79.72,48.59c-3.88,1.31-7.78,2.59-11.67,3.86
					c-0.76,0.24-0.43,1.44,0.33,1.18c29.95-9.82,61.4-20.28,83.94-43.45c9.78-10.06,17.58-22.26,21.21-35.91
					c3.68-13.9,2.63-28.66-1.89-42.23c-4.57-13.76-12.5-26.4-22.63-36.74c-10.61-10.83-23.46-19.32-37.11-25.87
					c-13.94-6.69-28.71-11.37-43.71-15.07c-15.66-3.86-32.19-7.28-45.41-17.1c-5.71-4.23-10.72-9.58-14.05-15.9
					c-3.55-6.79-4.75-14.46-3.44-22c2.9-16.58,15.29-28.94,28.14-38.73c3.18-2.42,6.43-4.75,9.69-7.08
					C789.22,300.01,788.61,298.93,787.96,299.4L787.96,299.4z"/>
			</g>
			<g>
				<path class="st1" d="M854.32,604.48c16.31-6.49,31.67-15.16,45.61-25.79c0.63-0.48,0-1.55-0.63-1.07
					c-13.87,10.58-29.12,19.23-45.32,25.66C853.26,603.6,853.58,604.78,854.32,604.48L854.32,604.48z"/>
			</g>
			<g>
				<path class="st1" d="M920.29,564.71c11.02-14.57,16.2-33.19,14.33-51.36c-0.07-0.78-1.31-0.79-1.24,0
					c1.85,17.99-3.27,36.31-14.16,50.73C918.73,564.73,919.8,565.34,920.29,564.71L920.29,564.71z"/>
			</g>
			<g>
				<path class="st1" d="M944.25,492.55c1-11.26-2.37-22.58-9.3-31.49c-0.48-0.63-1.35,0.26-0.87,0.87
					c6.73,8.65,9.93,19.71,8.95,30.62C942.93,493.35,944.17,493.35,944.25,492.55L944.25,492.55z"/>
			</g>
			<g>
				<path class="st1" d="M810,427.03c15.16,4.42,28.08,14.11,38.99,25.27c10.61,10.87,19.78,23.98,23.87,38.77
					c3.9,14.16,1.98,29.03-6.58,41.12c-8.04,11.35-20.45,19.32-33.5,23.7c-18.47,6.19-38.22,6.21-57.48,6.21
					c-0.79,0-0.79,1.24,0,1.24c17.79,0,35.91-0.02,53.16-4.83c13.85-3.86,27.09-11.19,36.35-22.37c9.24-11.17,13-25.33,10.56-39.62
					c-2.64-15.46-11.37-29.47-21.67-41.01c-11.7-13.11-26.27-24.7-43.36-29.67C809.55,425.62,809.22,426.8,810,427.03L810,427.03z"
					/>
			</g>
			<g>
				<path class="st1" d="M755.71,550.29c13.31-1.61,26.42-4.64,39.07-9.1c0.74-0.26,0.43-1.46-0.33-1.18
					c-12.54,4.42-25.53,7.47-38.73,9.06C754.94,549.15,754.92,550.39,755.71,550.29L755.71,550.29z"/>
			</g>
			<g>
				<path class="st1" d="M816.36,532.8c16.77-6.03,27.72-22.46,27.57-40.18c-0.06-5.53-1.13-11-3.14-16.12
					c-0.3-0.74-1.48-0.41-1.18,0.33c6.56,16.68,2.35,36.16-11.48,47.83c-3.57,3.01-7.67,5.38-12.07,6.95
					C815.29,531.88,815.6,533.06,816.36,532.8L816.36,532.8z"/>
			</g>
			<g>
				<path class="st1" d="M797.55,520.41c4.77-3.44,9.52-6.88,14.29-10.34c0.65-0.46,0.02-1.53-0.63-1.07
					c-4.77,3.44-9.52,6.88-14.29,10.34C796.3,519.8,796.93,520.88,797.55,520.41L797.55,520.41z"/>
			</g>
			<g>
				<path class="st1" d="M821.09,496.6c2.75-10.52,1.85-21.69-2.5-31.63c-0.31-0.72-1.39-0.09-1.07,0.63
					c4.22,9.63,5.05,20.5,2.39,30.69C819.69,497.04,820.89,497.38,821.09,496.6L821.09,496.6z"/>
			</g>
			<g>
				<path class="st1" d="M818.97,617.26c-34.65,6.16-69.67,10.3-104.8,12.37c-9.91,0.59-19.82,1-29.75,1.28
					c-0.8,0.02-0.8,1.26,0,1.24c35.3-0.92,70.54-3.92,105.48-8.95c9.82-1.42,19.64-3,29.4-4.73
					C820.07,618.31,819.74,617.13,818.97,617.26L818.97,617.26z"/>
			</g>
			<g>
				<path class="st1" d="M760.84,605.41c7.78-0.7,15.59-1.39,23.37-2.07c0.8-0.07,0.8-1.31,0-1.24c-7.78,0.7-15.59,1.39-23.37,2.09
					C760.06,604.24,760.04,605.48,760.84,605.41L760.84,605.41z"/>
			</g>
			<g>
				<path class="st1" d="M882.16,547.67c11.67-14.26,16.6-33.35,13.31-51.49c-0.15-0.78-1.33-0.44-1.18,0.33
					c3.22,17.64-1.63,36.4-13,50.27C880.77,547.41,881.64,548.3,882.16,547.67L882.16,547.67z"/>
			</g>
			<g>
				<path class="st1" d="M890.8,475.65c-2.72-6.84-6.55-13.11-11.41-18.64c-0.52-0.59-1.41,0.28-0.87,0.87
					c4.7,5.36,8.45,11.46,11.07,18.1C889.89,476.72,891.09,476.39,890.8,475.65L890.8,475.65z"/>
			</g>
			<g>
				<path class="st1" d="M867.7,442.74c-4.75-3.88-9.52-7.77-14.27-11.65c-0.61-0.5-1.5,0.37-0.87,0.87
					c4.75,3.88,9.52,7.77,14.27,11.65C867.44,444.11,868.31,443.24,867.7,442.74L867.7,442.74z"/>
			</g>
			<g>
				<path class="st1" d="M594.97,524.3c7.78-0.78,15.57-1.55,23.35-2.33c0.78-0.07,0.8-1.31,0-1.24
					c-7.78,0.78-15.57,1.55-23.35,2.33C594.19,523.13,594.19,524.37,594.97,524.3L594.97,524.3z"/>
			</g>
			<g>
				<path class="st1" d="M649.64,520.71c7.77-1.31,15.55-2.63,23.31-3.94c0.78-0.13,0.44-1.33-0.33-1.18
					c-7.77,1.31-15.55,2.63-23.31,3.94C648.51,519.64,648.85,520.84,649.64,520.71L649.64,520.71z"/>
			</g>
			<g>
				<path class="st1" d="M700.14,510.02c6.86-1.74,13.42-4.4,19.54-7.95c0.68-0.39,0.07-1.46-0.63-1.07
					c-6.03,3.48-12.48,6.1-19.25,7.82C699.03,509.03,699.36,510.23,700.14,510.02L700.14,510.02z"/>
			</g>
			<g>
				<path class="st1" d="M576.83,489.28c7.78,0,15.55,0,23.33,0c0.79,0,0.79-1.24,0-1.24c-7.78,0-15.55,0-23.33,0
					C576.04,488.04,576.04,489.28,576.83,489.28L576.83,489.28z"/>
			</g>
			<g>
				<path class="st1" d="M626.09,486.73c9.32-0.57,18.51-2.31,27.4-5.21c0.76-0.24,0.43-1.44-0.33-1.18
					c-8.78,2.87-17.86,4.6-27.07,5.16C625.29,485.54,625.29,486.78,626.09,486.73L626.09,486.73z"/>
			</g>
			<g>
				<path class="st1" d="M669.02,476.32c5.34-1.66,9.93-4.94,13.29-9.39c0.48-0.63-0.59-1.26-1.07-0.63
					c-3.16,4.2-7.54,7.25-12.55,8.82C667.95,475.36,668.26,476.54,669.02,476.32L669.02,476.32z"/>
			</g>
			<g>
				<path class="st1" d="M471.83,535.95c5.62,0,11.24,0,16.84,0c0.8,0,0.8-1.24,0-1.24c-5.62,0-11.24,0-16.84,0
					C471.04,534.71,471.04,535.95,471.83,535.95L471.83,535.95z"/>
			</g>
			<g>
				<path class="st1" d="M513.32,534.65c6.49,0,12.96,0,19.45,0c0.79,0,0.79-1.24,0-1.24c-6.49,0-12.96,0-19.45,0
					C512.53,533.41,512.53,534.65,513.32,534.65L513.32,534.65z"/>
			</g>
			<g>
				<path class="st1" d="M784.8,418.32c-2.13-3.05-4.25-6.1-6.38-9.15c-0.44-0.65-1.52-0.04-1.07,0.63c2.13,3.05,4.25,6.1,6.38,9.15
					C784.19,419.59,785.26,418.98,784.8,418.32L784.8,418.32z"/>
			</g>
			<g>
				<path class="st1" d="M771.8,401.29c-3.05-3.86-6.12-7.73-9.17-11.59c-0.5-0.63-1.37,0.26-0.87,0.87
					c3.05,3.86,6.12,7.73,9.17,11.59C771.43,402.79,772.3,401.92,771.8,401.29L771.8,401.29z"/>
			</g>
			<g>
				<path class="st1" d="M468.3,598.94c-21.21-3.09-42.56-5.16-63.97-6.16c-21.56-1-43.15-0.92-64.71,0.22
					c-5.6,0.3-11.2,0.85-16.81,1c-5.36,0.15-10.82-0.3-15.53-3.09c0.07,0.28,0.15,0.55,0.22,0.85c3.62-5.57,9.73-8.52,15.94-10.26
					c7.12-2,14.62-2.88,21.95-3.75c8.45-1,16.94-1.65,25.42-1.9c3.7-0.11,7.73-0.57,11.41-0.04c1.29,0.18,2.64,0.55,3.75,1.28
					c0.54,0.33,1.05,0.76,1.35,1.35c0.59,1.16,0.02,1.46-0.98,1.85c-8.45,3.29-17.68,4.34-26.64,3.07
					c-0.78-0.11-1.11,1.07-0.33,1.18c8.63,1.22,17.49,0.43,25.74-2.48c1.11-0.39,3.33-0.67,3.64-2c0.28-1.13-0.22-2.31-0.98-3.12
					c-1.77-1.87-4.75-2.44-7.21-2.48c-9.69-0.18-19.47,0.46-29.1,1.41c-8.56,0.83-17.27,1.79-25.66,3.75
					c-7.45,1.74-15.01,4.86-19.34,11.52c-0.18,0.28-0.06,0.68,0.22,0.85c7.99,4.73,17.79,3.18,26.59,2.63
					c10.82-0.68,21.65-1.09,32.49-1.24c21.78-0.28,43.58,0.54,65.27,2.44c12.35,1.09,24.68,2.53,36.96,4.33
					C468.76,600.23,469.1,599.05,468.3,598.94L468.3,598.94z"/>
			</g>
			<g>
				<path class="st1" d="M365.23,566.03c15.53-8.34,33.13,0.98,48.27,5.45c8.04,2.39,16.64,3.85,24.89,1.59
					c7.67-2.09,14.2-6.91,21.72-9.41c9.6-3.2,19.91-2.59,29.84-2c0.8,0.06,0.8-1.18,0-1.24c-8.76-0.52-17.71-1.04-26.35,0.96
					c-8.08,1.87-14.87,6.67-22.56,9.52c-17.49,6.45-34.22-4.4-50.99-8.06c-8.5-1.85-17.58-2.11-25.46,2.11
					C363.91,565.34,364.54,566.42,365.23,566.03L365.23,566.03z"/>
			</g>
			<g>
				<path class="st1" d="M453.7,553.27c-5.51,0.06-10.85,1.26-15.88,3.51c-0.72,0.33-0.09,1.39,0.63,1.07
					c4.83-2.16,9.98-3.27,15.27-3.35C454.49,554.49,454.49,553.27,453.7,553.27L453.7,553.27z"/>
			</g>
			<g>
				<path class="st1" d="M444.93,535.45c-13.13,3.64-26.9,6.23-40.57,4.86c-7.04-0.7-13.92-2.55-20.26-5.69
					c-6.27-3.12-12.17-6.77-18.84-9.02c-7.41-2.51-15.23-3.73-23.07-3.66c-0.8,0-0.8,1.24,0,1.24c7.27-0.07,14.48,0.98,21.41,3.18
					c7.1,2.26,13.28,6.06,19.88,9.34c12.15,6.05,25.87,7.12,39.2,5.58c7.65-0.89,15.18-2.57,22.59-4.62
					C446.04,536.43,445.71,535.22,444.93,535.45L444.93,535.45z"/>
			</g>
			<g>
				<path class="st1" d="M366.32,540.97c12.3,9.24,26.42,19.38,42.64,17.99c0.8-0.07,0.8-1.31,0-1.24
					c-15.99,1.37-29.88-8.71-42.01-17.82C366.3,539.44,365.67,540.51,366.32,540.97L366.32,540.97z"/>
			</g>
			<g>
				<path class="st1" d="M381.99,518.07c17.19,1.98,34.52,2.57,51.82,1.77c0.8-0.04,0.8-1.28,0-1.24
					c-17.29,0.79-34.63,0.18-51.82-1.77C381.2,516.74,381.22,517.97,381.99,518.07L381.99,518.07z"/>
			</g>
			<g>
				<path class="st1" d="M420.86,503.29c6.18,0.72,13.4-0.52,18.38-4.46c2.03-1.61,3.38-3.9,2.9-6.56c-0.48-2.72-2.5-4.88-4.66-6.45
					c-4.97-3.57-11.26-4.36-17.05-5.77c-1.41-0.33-2.83-0.7-4.2-1.18c-1.22-0.43-2.5-1.28-1.42-2.64c0.8-1.04,2.35-1.05,3.53-1.13
					c3.86-0.2,7.75-0.3,11.63-0.39c8.76-0.2,17.55-0.18,26.31,0.02c0.8,0.02,0.8-1.22,0-1.24c-7.86-0.18-15.72-0.22-23.56-0.07
					c-3.88,0.07-7.75,0.18-11.63,0.33c-2.44,0.09-6.32-0.35-7.65,2.29c-1.26,2.51,1.16,3.62,3.14,4.25
					c3.01,0.94,6.14,1.53,9.21,2.24c3.03,0.7,6.08,1.52,8.86,3c2.83,1.52,6.18,4.09,6.36,7.6c0.2,4.16-4.77,6.43-8.02,7.6
					c-3.9,1.39-8.02,1.81-12.13,1.33C420.08,501.96,420.08,503.2,420.86,503.29L420.86,503.29z"/>
			</g>
			<g>
				<path class="st1" d="M392.27,625.93c5.79,1.7,12.05,1.02,17.31-1.96c5.21-2.96,9.13-7.78,14.46-10.58
					c2.53-1.33,5.44-2.16,8.32-2.03c3.22,0.15,5.55,1.7,7.49,4.18c1.76,2.26,3.57,4.12,6.16,5.44c2.48,1.24,5.18,1.96,7.89,2.53
					c7.62,1.57,15.38,2.46,23.13,2.83c0.8,0.04,0.8-1.2,0-1.24c-7.16-0.35-14.29-1.16-21.34-2.5c-2.87-0.54-5.75-1.16-8.41-2.39
					c-2.98-1.35-4.83-3.4-6.82-5.92c-3.31-4.16-8.36-4.94-13.29-3.49c-5.42,1.59-9.45,5.62-13.77,9.04
					c-2.88,2.27-5.99,4.23-9.58,5.14c-3.7,0.94-7.54,0.81-11.19-0.26C391.83,624.53,391.52,625.71,392.27,625.93L392.27,625.93z"/>
			</g>
			<g>
				<path class="st1" d="M500.36,625.38c9.8,0,19.58,0,29.38,0c0.8,0,0.8-1.24,0-1.24c-9.8,0-19.58,0-29.38,0
					C499.57,624.14,499.57,625.38,500.36,625.38L500.36,625.38z"/>
			</g>
			<g>
				<path class="st1" d="M561.71,627.97c10.95,0,21.89,0,32.84,0c0.8,0,0.8-1.24,0-1.24c-10.95,0-21.89,0-32.84,0
					C560.91,626.73,560.91,627.97,561.71,627.97L561.71,627.97z"/>
			</g>
		</g>
	</g>
	<g>
		<path class="st2" d="M585.71,274.94c-1.16-1.55-0.83-3.75,0.72-4.92c1.55-1.16,3.75-0.83,4.92,0.72c1.16,1.55,0.83,3.75-0.72,4.92
			C589.07,276.82,586.87,276.51,585.71,274.94z"/>
		<path class="st2" d="M786.15,365.37c0.09-1.89,1.7-3.35,3.59-3.25c1.89,0.09,3.35,1.7,3.25,3.59c-0.09,1.89-1.7,3.35-3.59,3.25
			S786.05,367.25,786.15,365.37z"/>
		<path class="st2" d="M770.54,358.93c0.09-1.89,1.7-3.35,3.59-3.25c1.89,0.09,3.35,1.7,3.25,3.59s-1.7,3.35-3.59,3.25
			C771.91,362.43,770.45,360.82,770.54,358.93z"/>
		<path class="st2" d="M754.66,352.39c0.09-1.89,1.7-3.35,3.59-3.25c1.89,0.09,3.35,1.7,3.25,3.59c-0.09,1.89-1.7,3.35-3.59,3.25
			C756.03,355.88,754.57,354.27,754.66,352.39z"/>
		<path class="st2" d="M739.48,346.14c0.09-1.89,1.7-3.35,3.59-3.25c1.89,0.09,3.35,1.7,3.25,3.59c-0.09,1.89-1.7,3.35-3.59,3.25
			C740.85,349.63,739.39,348.02,739.48,346.14z"/>
		<path class="st2" d="M724.39,339.91c0.09-1.89,1.7-3.35,3.59-3.25c1.89,0.09,3.35,1.7,3.25,3.59c-0.09,1.89-1.7,3.35-3.59,3.25
			C725.74,343.4,724.3,341.81,724.39,339.91z"/>
		<polygon class="st2" points="813.71,367.23 829.25,373.72 816.25,377.07 811.16,396.52 805.91,376.2 791.38,372.54 807.08,368.49 
			809.48,356.23 		"/>
		<polygon class="st2" points="570.25,276.41 576.94,284.01 568.57,282.74 567.62,292.15 565.2,285.7 550.04,280.98 560.56,276.93 
			559.6,265.54 564.44,271.87 573.73,270.18 		"/>
		<path class="st2" d="M572.17,478.98c-2.48-0.11-18.9-2.96-18.9-2.96l15.12-4.66l-4.71-13.89l9.13,8.3l3.98-13.89l3.99,11.78
			l12.52-11l-6.01,13.37l12.79,0.61l-12.28,5.62l8.87,13.66l-12.41-8.86l-0.5,19.43l-5.57-13.52l-10.74,8.19L572.17,478.98z"/>
		<polygon class="st2" points="542.66,309.81 528.1,308.22 538.69,301 532.42,291.78 544.38,296.14 555.18,286.31 553.92,299.16 
			567.53,307.42 552.61,307.55 547.01,321.34 		"/>
		<path class="st2" d="M567.98,428.36c-1.68,0.87-3.75,0.22-4.62-1.46c-0.87-1.68-0.22-3.75,1.46-4.62s3.75-0.22,4.62,1.46
			C570.31,425.42,569.66,427.49,567.98,428.36z"/>
		<path class="st2" d="M570.31,445.39c-1.68,0.87-3.75,0.22-4.62-1.46c-0.87-1.68-0.22-3.75,1.46-4.62s3.75-0.22,4.62,1.46
			C572.65,442.45,571.99,444.52,570.31,445.39z"/>
		<path class="st2" d="M556.92,341.31c-1.68,0.87-3.75,0.22-4.62-1.46c-0.87-1.68-0.22-3.75,1.46-4.62s3.75-0.22,4.62,1.46
			C559.25,338.37,558.6,340.44,556.92,341.31z"/>
		<path class="st2" d="M559.19,358.04c-1.68,0.87-3.75,0.22-4.62-1.46c-0.87-1.68-0.22-3.75,1.46-4.62s3.75-0.22,4.62,1.46
			C561.54,355.1,560.88,357.17,559.19,358.04z"/>
		<path class="st2" d="M561.52,375.05c-1.68,0.87-3.75,0.22-4.62-1.46c-0.87-1.68-0.22-3.75,1.46-4.62s3.75-0.22,4.62,1.46
			C563.85,372.11,563.21,374.18,561.52,375.05z"/>
		<path class="st2" d="M563.74,391.32c-1.68,0.87-3.75,0.22-4.62-1.46c-0.87-1.68-0.22-3.75,1.46-4.62
			c1.68-0.87,3.75-0.22,4.62,1.46C566.07,388.38,565.42,390.45,563.74,391.32z"/>
		<path class="st2" d="M565.94,407.5c-1.68,0.87-3.75,0.22-4.62-1.46c-0.87-1.68-0.22-3.75,1.46-4.62s3.75-0.22,4.62,1.46
			C568.29,404.56,567.62,406.63,565.94,407.5z"/>
		<polygon class="st2" points="642.52,217.69 639.01,231.93 633.28,220.47 623.3,225.46 629.23,214.18 620.91,202.16 633.48,205.12 
			643.47,192.75 641.62,207.52 654.54,214.94 		"/>
		<path class="st2" d="M625.31,243.26c-1.89,0.07-3.48-1.41-3.55-3.29c-0.07-1.89,1.41-3.48,3.29-3.55
			c1.89-0.07,3.48,1.41,3.55,3.29C628.68,241.6,627.2,243.19,625.31,243.26z"/>
		<path class="st2" d="M620.15,259.64c-1.89,0.07-3.48-1.41-3.55-3.29c-0.07-1.89,1.41-3.48,3.29-3.55
			c1.89-0.07,3.48,1.41,3.55,3.29C623.52,257.98,622.04,259.57,620.15,259.64z"/>
		<path class="st2" d="M861.56,142.05c1.41,1.35,1.44,3.57,0.09,4.97c-1.35,1.41-3.57,1.44-4.97,0.09
			c-1.41-1.35-1.44-3.57-0.09-4.97C857.94,140.76,860.18,140.72,861.56,142.05z"/>
		<path class="st2" d="M877.06,134.33c1.41,1.35,1.44,3.57,0.09,4.97c-1.35,1.41-3.57,1.44-4.97,0.09
			c-1.41-1.35-1.44-3.57-0.09-4.97C873.43,133.03,875.67,132.98,877.06,134.33z"/>
		<path class="st2" d="M892.81,126.45c1.41,1.35,1.44,3.57,0.09,4.97s-3.57,1.44-4.97,0.09c-1.41-1.35-1.44-3.57-0.09-4.97
			C889.19,125.16,891.42,125.12,892.81,126.45z"/>
		<path class="st2" d="M907.88,118.92c1.41,1.35,1.44,3.57,0.09,4.97c-1.35,1.41-3.57,1.44-4.97,0.09
			c-1.41-1.35-1.44-3.57-0.09-4.97C904.26,117.63,906.49,117.59,907.88,118.92z"/>
		<path class="st2" d="M922.86,111.45c1.41,1.35,1.44,3.57,0.09,4.97c-1.35,1.41-3.57,1.44-4.97,0.09
			c-1.41-1.35-1.44-3.57-0.09-4.97S921.47,110.11,922.86,111.45z"/>
		<path class="st2" d="M938.37,103.71c1.41,1.35,1.44,3.57,0.09,4.97c-1.35,1.41-3.57,1.44-4.97,0.09
			c-1.41-1.35-1.44-3.57-0.09-4.97C934.74,102.41,936.96,102.36,938.37,103.71z"/>
		<path class="st2" d="M955.17,95.31c1.41,1.35,1.44,3.57,0.09,4.97s-3.57,1.44-4.97,0.09c-1.41-1.35-1.44-3.57-0.09-4.97
			C951.55,94.02,953.77,93.96,955.17,95.31z"/>
		<path class="st2" d="M971.39,88.75c1.41,1.35,1.44,3.57,0.09,4.97c-1.35,1.41-3.57,1.44-4.97,0.09c-1.41-1.35-1.44-3.57-0.09-4.97
			C967.77,87.44,970,87.4,971.39,88.75z"/>
		<path class="st2" d="M986.9,81c1.41,1.35,1.44,3.57,0.09,4.97s-3.57,1.44-4.97,0.09c-1.41-1.35-1.44-3.57-0.09-4.97
			C983.28,79.71,985.5,79.65,986.9,81z"/>
		<path class="st2" d="M1003.71,72.61c1.41,1.35,1.44,3.57,0.09,4.97c-1.35,1.41-3.57,1.44-4.97,0.09
			c-1.41-1.35-1.44-3.57-0.09-4.97C1000.08,71.32,1002.3,71.26,1003.71,72.61z"/>
		<polygon class="st2" points="1019.55,62.2 1018.67,45.39 1027.32,55.64 1047.05,51.79 1031.02,65.32 1034.03,80.02 1023.57,67.64 
			1011.47,70.78 		"/>
		<polygon class="st2" points="602.5,278.65 597.73,268.85 605.47,272.79 616.27,265.52 610.11,277.63 615.6,285.64 606.25,280.89 
			599.83,285.81 		"/>
		<polygon class="st2" points="828.39,149.1 838.75,134.12 836.84,151.41 850.86,156.59 835.64,158.62 836.99,176.65 830.47,166.11 
			820.3,174.65 821.17,163.19 807.54,161.82 820.24,156.53 813.55,145.86 		"/>
		<path class="st2" d="M762.57,176.72c-1.13-1.52-0.83-3.66,0.68-4.79s3.66-0.83,4.79,0.68c1.13,1.52,0.83,3.66-0.68,4.79
			C765.86,178.53,763.72,178.24,762.57,176.72z"/>
		<path class="st2" d="M746.45,181.73c-1.13-1.52-0.83-3.66,0.68-4.79c1.52-1.13,3.66-0.83,4.79,0.68c1.13,1.52,0.83,3.66-0.68,4.79
			S747.6,183.25,746.45,181.73z"/>
		<path class="st2" d="M730.07,186.83c-1.13-1.52-0.83-3.66,0.68-4.79s3.66-0.83,4.79,0.68c1.13,1.52,0.83,3.66-0.68,4.79
			C733.34,188.67,731.2,188.35,730.07,186.83z"/>
		<path class="st2" d="M714.37,191.72c-1.13-1.52-0.83-3.66,0.68-4.79c1.52-1.13,3.66-0.83,4.79,0.68c1.13,1.52,0.83,3.66-0.68,4.79
			C717.65,193.53,715.52,193.23,714.37,191.72z"/>
		<path class="st2" d="M698.79,196.58c-1.13-1.52-0.83-3.66,0.68-4.79c1.52-1.13,3.66-0.83,4.79,0.68c1.13,1.52,0.83,3.66-0.68,4.79
			C702.08,198.39,699.93,198.08,698.79,196.58z"/>
		<path class="st2" d="M682.66,201.59c-1.13-1.52-0.83-3.66,0.68-4.79c1.52-1.13,3.66-0.83,4.79,0.68c1.13,1.52,0.83,3.66-0.68,4.79
			C685.95,203.4,683.81,203.11,682.66,201.59z"/>
		<path class="st2" d="M664.51,207.02c-1.13-1.52-0.83-3.66,0.68-4.79c1.52-1.13,3.66-0.83,4.79,0.68c1.13,1.52,0.83,3.66-0.68,4.79
			C667.78,208.84,665.64,208.54,664.51,207.02z"/>
		<path class="st2" d="M795.61,168.55c-1.13-1.52-0.83-3.66,0.68-4.79c1.52-1.13,3.66-0.83,4.79,0.68c1.13,1.52,0.83,3.66-0.68,4.79
			C798.9,170.38,796.74,170.07,795.61,168.55z"/>
		<path class="st2" d="M777.81,171.8c-1.13-1.52-0.83-3.66,0.68-4.79c1.52-1.13,3.66-0.83,4.79,0.68c1.13,1.52,0.83,3.66-0.68,4.79
			C781.08,173.63,778.94,173.32,777.81,171.8z"/>
		<path class="st2" d="M686.77,296.46c1.13-1.57,3.33-1.92,4.9-0.8c1.57,1.13,1.92,3.33,0.79,4.9c-1.13,1.57-3.33,1.92-4.9,0.8
			C685.99,300.23,685.62,298.03,686.77,296.46z"/>
		<path class="st2" d="M676.1,280.98c1.13-1.57,3.33-1.92,4.9-0.8c1.57,1.13,1.92,3.33,0.8,4.9c-1.13,1.57-3.33,1.92-4.9,0.8
			C675.32,284.75,674.97,282.55,676.1,280.98z"/>
		<path class="st2" d="M665.34,265.36c1.13-1.57,3.33-1.92,4.9-0.8c1.57,1.13,1.92,3.33,0.79,4.9c-1.13,1.57-3.33,1.92-4.9,0.8
			C664.56,269.13,664.21,266.93,665.34,265.36z"/>
		<path class="st2" d="M655.23,250.66c1.13-1.57,3.33-1.92,4.9-0.8c1.57,1.13,1.92,3.33,0.79,4.9c-1.13,1.57-3.33,1.92-4.9,0.8
			C654.43,254.43,654.08,252.23,655.23,250.66z"/>
		<path class="st2" d="M645.19,236.09c1.13-1.57,3.33-1.92,4.9-0.8c1.57,1.13,1.92,3.33,0.79,4.9c-1.13,1.57-3.33,1.92-4.9,0.8
			C644.41,239.86,644.04,237.66,645.19,236.09z"/>
		<polygon class="st2" points="708.66,322.6 723.84,320.58 711.6,331.2 714.28,340.72 706.46,331.7 690.97,337.95 700.51,329.66 
			691.21,317.33 699.45,320.1 706.09,311.49 		"/>
		<path class="st2" d="M701.12,639.65c1.59-1.11,3.77-0.74,4.9,0.85c1.11,1.59,0.74,3.77-0.85,4.9c-1.59,1.11-3.77,0.74-4.9-0.85
			C699.16,642.96,699.53,640.78,701.12,639.65z"/>
		<path class="st2" d="M696.09,621.55c1.59-1.11,3.77-0.74,4.9,0.85c1.11,1.59,0.74,3.77-0.85,4.9c-1.59,1.11-3.77,0.74-4.9-0.85
			C694.11,624.86,694.5,622.66,696.09,621.55z"/>
		<path class="st2" d="M691,603.28c1.59-1.11,3.77-0.74,4.9,0.85c1.11,1.59,0.74,3.77-0.85,4.9c-1.59,1.11-3.77,0.74-4.9-0.85
			C689.02,606.59,689.41,604.39,691,603.28z"/>
		<polygon class="st2" points="713.28,671.51 728.29,674.54 713.28,680.6 712.71,690.48 708.25,679.38 691.56,680.25 703.28,675.52 
			698.51,660.84 705.41,666.16 714.48,660.17 		"/>
		<polygon class="st2" points="671.42,537.15 665.28,551.18 662.55,535.22 653.01,532.58 664.78,530.57 667.47,514.07 
			669.61,526.53 684.97,524.96 678.32,530.58 682.26,540.72 		"/>
		<path class="st2" d="M640.16,517.05c0.55-1.81,2.46-2.83,4.27-2.27c1.81,0.55,2.83,2.46,2.27,4.27c-0.55,1.81-2.46,2.83-4.27,2.27
			C640.64,520.77,639.6,518.86,640.16,517.05z"/>
		<path class="st2" d="M626.97,507.27c0.55-1.81,2.46-2.83,4.27-2.27c1.81,0.55,2.83,2.46,2.27,4.27s-2.46,2.83-4.27,2.27
			C627.44,510.99,626.42,509.06,626.97,507.27z"/>
		<path class="st2" d="M613.87,497.54c0.55-1.81,2.46-2.83,4.27-2.27c1.81,0.55,2.83,2.46,2.27,4.27c-0.55,1.81-2.46,2.83-4.27,2.27
			C614.33,501.26,613.31,499.34,613.87,497.54z"/>
		<path class="st2" d="M600.29,487.47c0.55-1.81,2.46-2.83,4.27-2.27c1.81,0.55,2.83,2.46,2.27,4.27c-0.55,1.81-2.46,2.83-4.27,2.27
			C600.78,491.2,599.74,489.28,600.29,487.47z"/>
		<polygon class="st2" points="678.6,568.34 679.65,550.18 687.03,565.93 701.69,563.05 689.73,572.7 700.27,587.4 689.19,581.8 
			684.94,594.37 679.74,584.13 667.39,590.04 675.49,578.91 664.23,573.29 		"/>
	</g>
</g>
<g id="XMLID_16_">
	<g id="XMLID_20_">
		<g id="XMLID_21_">
			<path id="XMLID_22_" class="st2" d="M89.62,148.59c-3.16,0-6.32-1.31-8.57-3.87c-4.17-4.73-3.72-11.95,1.01-16.12l35-30.86
				c17.41-15.35,43.48-15.15,60.66,0.46l21.01,19.09c8.74,7.94,22.28,7.79,30.83-0.36l17.54-16.7c17.58-16.75,45.14-16.75,62.72,0
				l14.94,14.23c4.48,4.27,10.39,6.47,16.56,6.22c6.19-0.26,11.86-2.95,15.97-7.59l30.65-34.53c4.18-4.72,11.41-5.15,16.13-0.96
				c4.72,4.19,5.15,11.41,0.96,16.13l-30.65,34.53c-8.27,9.31-19.66,14.72-32.1,15.25c-12.4,0.55-24.25-3.92-33.27-12.51
				l-14.94-14.23c-8.75-8.33-22.46-8.33-31.22,0l-17.54,16.7c-17.18,16.36-44.39,16.68-61.95,0.72l-21.01-19.09
				c-8.54-7.77-21.52-7.87-30.19-0.23l-35.01,30.86C94.99,147.64,92.3,148.58,89.62,148.59z"/>
		</g>
	</g>
	<g id="XMLID_17_">
		<g id="XMLID_18_">
			<path id="XMLID_19_" class="st2" d="M89.62,224.58c-3.16,0-6.32-1.3-8.58-3.86c-4.17-4.74-3.72-11.95,1.01-16.13l35.01-30.86
				c17.41-15.34,43.48-15.15,60.65,0.46l21.01,19.09c8.74,7.94,22.28,7.79,30.83-0.36l17.54-16.7c17.58-16.75,45.13-16.75,62.72,0
				l14.94,14.23c4.48,4.27,10.39,6.46,16.56,6.22c6.19-0.26,11.86-2.96,15.98-7.59l30.65-34.53c4.18-4.72,11.41-5.15,16.13-0.96
				c4.72,4.19,5.15,11.41,0.96,16.13l-30.65,34.53c-8.27,9.31-19.66,14.72-32.1,15.25c-12.46,0.49-24.25-3.92-33.27-12.51
				l-14.94-14.23c-8.75-8.33-22.46-8.33-31.22,0l-17.54,16.7c-17.18,16.36-44.39,16.68-61.95,0.72l-21.01-19.09
				c-8.54-7.77-21.52-7.87-30.19-0.23l-35.01,30.86C94.99,223.63,92.3,224.57,89.62,224.58z"/>
		</g>
	</g>
</g>
</svg>
