<?xml version="1.0" encoding="utf-8"?>
<!-- Generator: Adobe Illustrator 25.3.0, SVG Export Plug-In . SVG Version: 6.00 Build 0)  -->
<svg version="1.1" id="Layer_1" xmlns="http://www.w3.org/2000/svg" xmlns:xlink="http://www.w3.org/1999/xlink" x="0px" y="0px"
	 viewBox="0 0 1920 700" style="enable-background:new 0 0 1920 700;" xml:space="preserve">
<style type="text/css">
	.st0{fill:#1B1D50;}
	.st1{opacity:0.42;fill:#8AD2D0;enable-background:new    ;}
	.st2{fill:#FFFFFF;}
</style>
<rect class="st0" width="1920" height="700"/>
<g>
	<g>
		<g>
			<path class="st1" d="M826.61,176.81c2.33-3.7,3.48-7.91,3.31-12.27c-0.03-0.86-1.38-0.93-1.34-0.06c0.16,4.14-0.88,8.09-3.1,11.6
				C825.02,176.81,826.14,177.54,826.61,176.81L826.61,176.81z"/>
		</g>
		<g>
			<path class="st1" d="M824.23,164.18c0.81-3.6,1.44-7.21,1.9-10.86c0.11-0.86-1.24-0.91-1.34-0.06c-0.44,3.54-1.06,7.04-1.84,10.5
				C822.76,164.61,824.05,165.03,824.23,164.18L824.23,164.18z"/>
		</g>
		<g>
			<path class="st1" d="M834.06,157.66c0.54-4.81,1.01-9.73-0.67-14.38c-0.29-0.8-1.61-0.51-1.31,0.3
				c1.64,4.54,1.17,9.32,0.64,14.03C832.61,158.46,833.96,158.51,834.06,157.66L834.06,157.66z"/>
		</g>
		<g>
			<path class="st1" d="M767.69,204.13c3.54-1.83,6.71-4.17,9.49-7.02c0.6-0.61-0.3-1.61-0.91-1c-2.7,2.77-5.77,5.05-9.2,6.82
				C766.29,203.34,766.92,204.52,767.69,204.13L767.69,204.13z"/>
		</g>
		<g>
			<path class="st1" d="M776.73,205.95c3.18-2.31,6.04-5.02,8.85-7.76c2.4-2.33,4.71-4.77,5.78-8.01c0.27-0.83-1.01-1.24-1.28-0.41
				c-1.13,3.4-3.75,5.84-6.26,8.25c-2.54,2.45-5.14,4.87-7.99,6.94C775.13,205.46,776.04,206.45,776.73,205.95L776.73,205.95z"/>
		</g>
		<g>
			<path class="st1" d="M773.4,78.4c3.77,0.34,6.58,2.91,9.2,5.39c0.63,0.6,1.63-0.31,1-0.91c-2.91-2.75-5.96-5.45-10.13-5.84
				C772.6,76.97,772.55,78.32,773.4,78.4L773.4,78.4z"/>
		</g>
		<g>
			<path class="st1" d="M766.62,70.92c3.45,0.13,6.78,0.84,9.99,2.11c0.81,0.31,1.21-0.97,0.41-1.28
				c-3.32-1.31-6.78-2.04-10.35-2.17C765.81,69.54,765.75,70.88,766.62,70.92L766.62,70.92z"/>
		</g>
		<path class="st1" d="M745.8,302.28c-0.24-0.57-0.43-1.2-0.29-1.8c0.67-0.14,1.34,0.23,1.91,0.61c0.54,0.36,1.07,0.74,1.57,1.16
			c0.8,0.64,4,4.64,1.18,4.44C748.23,306.56,746.46,303.82,745.8,302.28z"/>
		<g>
			<path class="st1" d="M590.55,304.67c-0.59,1.11-0.9,2.63,0,3.51c0.41,0.4,0.98,0.57,1.56,0.68c2.75,0.54,5.61-0.1,8.25-1.03
				c1.54-0.54,3.07-1.21,4.28-2.28c1.21-1.08,2.1-2.65,2.01-4.28c-0.07-1.27-0.74-2.51-1.78-3.24c-2.31-1.64-5.62-0.04-7.92,0.97
				C594.3,300.19,591.9,302.07,590.55,304.67z"/>
			<path class="st1" d="M582.01,325.43c-0.24,0.56-0.43,1.18-0.2,1.74c0.23,0.56,0.83,0.87,1.4,1.08c2.14,0.81,4.55,0.83,6.71,0.07
				c1.91-0.68,3.65-2.03,4.47-3.9c0.31-0.71,0.49-1.51,0.3-2.27c-0.24-0.91-1.01-1.63-1.9-2
				C588.63,318.45,583.7,321.61,582.01,325.43z"/>
			<path class="st1" d="M575.05,312.24c-0.1,0.31-0.13,0.7,0.1,0.94c0.19,0.19,0.47,0.23,0.73,0.24c2.27,0.1,4.57-0.97,5.94-2.78
				c1.53-2.01-2.15-1.97-3.28-1.64C577.09,309.42,575.46,310.82,575.05,312.24z"/>
			<path class="st1" d="M559.45,324.89c-2.9,1.81-5.44,4.14-7.92,6.49c-0.63,0.59-1.3,1.31-1.23,2.17c0.06,0.73,0.67,1.33,1.36,1.57
				c0.68,0.24,1.44,0.2,2.17,0.13c5.52-0.57,10.69-3.05,15.3-6.16c0.93-0.63,1.84-1.3,2.5-2.2c1.73-2.4,0.1-5.58-2.85-5.37
				C565.52,321.75,562.18,323.18,559.45,324.89z"/>
			<path class="st1" d="M558.64,314.16c0.16,0.11,0.37,0.11,0.56,0.11c1.4,0,7.69-1.41,4.58-3.51c-0.8-0.54-2.13-0.61-2.98-0.2
				C560.14,310.89,557.54,313.43,558.64,314.16z"/>
			<path class="st1" d="M600.85,315.73c1.24,0.34,2.64,0.1,3.71-0.63c1.01-0.7,3.24-4.2,0.7-3.77
				C604.27,311.49,599.91,315.47,600.85,315.73z"/>
			<path class="st1" d="M614.62,308.03c-0.17,0.3-0.31,0.68-0.13,0.97c0.1,0.16,0.29,0.23,0.47,0.29c1.28,0.4,2.7-0.01,3.91-0.61
				c1.56-0.78,7.78-5.54,4.18-7.06C619.77,300.23,615.89,305.74,614.62,308.03z"/>
			<path class="st1" d="M613.14,294.25c1.84,0.1,3.71-0.39,5.28-1.37c3.23-2.04-0.68-4.08-2.98-3.38
				C613.92,289.94,609.74,294.05,613.14,294.25z"/>
			<path class="st1" d="M571.15,337.09c-0.31,0.3-0.63,0.61-0.78,1.03c-0.31,0.81,0.17,1.77,0.91,2.21
				c0.74,0.44,1.67,0.47,2.53,0.34c1.67-0.26,3.25-1.11,4.38-2.38c0.31-0.34,0.6-0.74,0.7-1.2c0.33-1.61-2.37-1.81-3.5-1.97
				C573.65,334.85,572.37,335.92,571.15,337.09z"/>
			<path class="st1" d="M543.58,319.46c-2.3,0.87-4.37,2.63-5.07,4.98c-0.23,0.77-0.3,1.64,0.01,2.38c0.61,1.46,2.4,1.98,3.98,2.07
				c3.52,0.2,7.35-1.06,9.63-3.85c2.23-2.75,2.03-6.44-1.97-6.56C547.99,318.41,545.61,318.69,543.58,319.46z"/>
			<path class="st1" d="M510.45,325.59c-1.88,0.96-3.51,2.37-4.99,3.88c-0.94,0.96-1.9,2.11-1.83,3.45
				c0.09,1.57,1.56,2.71,3.03,3.31c2.94,1.2,6.22,1.16,9.39,0.88c2.2-0.19,4.4-0.49,6.56-0.87c1.86-0.33,3.75-0.76,5.32-1.81
				c1.06-0.71,1.91-1.68,2.67-2.71c0.76-1.03,1.44-2.15,1.56-3.42c0.16-1.81-0.91-3.57-2.38-4.64c-1.2-0.87-3.44-1.98-4.98-1.77
				c-1.23,0.17-2.24,1.08-3.55,1.3C517.57,323.76,513.79,323.89,510.45,325.59z"/>
			<path class="st1" d="M539.02,334.68c-1.27-0.13-2.58,0.24-3.6,1c-0.27,0.2-0.54,0.49-0.53,0.83c0.04,0.56,0.76,0.73,1.3,0.76
				c1.31,0.07,2.74,0.11,3.84-0.61c0.3-0.2,0.57-0.46,0.64-0.8c0.13-0.6-0.57-1.21-1.14-1L539.02,334.68z"/>
			<path class="st1" d="M538.59,346.63c-0.7,0.96-1.24,2.4-0.4,3.24c0.37,0.37,0.93,0.5,1.46,0.59c4.3,0.7,8.8,0.03,12.7-1.9
				c1.3-0.64,2.63-1.56,2.94-2.97c0.77-3.6-4.62-5.39-7.38-4.95C544.3,341.2,540.71,343.72,538.59,346.63z"/>
			<path class="st1" d="M520.14,348.49c-0.44,0.34-0.87,0.71-1.08,1.23c-0.21,0.51-0.14,1.18,0.3,1.51c0.2,0.16,0.46,0.21,0.7,0.27
				c2.2,0.46,4.48-0.11,6.59-0.84c2.43-0.83,5.47-3.32,1.53-4.67C525.69,345.17,522.05,347.02,520.14,348.49z"/>
			<path class="st1" d="M507.49,344.05c-0.5,0.23-1.04,0.74-0.8,1.23c0.16,0.31,0.57,0.4,0.93,0.44c2.31,0.3,4.82,0.56,6.85-0.6
				c0.4-0.23,0.83-0.63,0.7-1.07c-0.11-0.44-0.67-0.57-1.13-0.63C511.86,343.17,509.55,343.1,507.49,344.05z"/>
			<path class="st1" d="M489.91,339.51c-0.98,0.6-1.97,1.44-2.1,2.58c-0.03,0.2-0.01,0.43,0.13,0.59c0.11,0.13,0.3,0.16,0.47,0.19
				c2.61,0.47,5.28,0.54,7.92,0.21c2.21-0.27,4.58-0.96,5.88-2.77c0.27-0.39,0.5-0.84,0.46-1.31
				C502.31,334.95,491.58,338.52,489.91,339.51z"/>
			<path class="st1" d="M488.23,327.46c-0.71,0.27-1.43,0.88-1.37,1.64c0.04,0.53,0.49,0.97,0.97,1.17c0.5,0.21,1.04,0.23,1.57,0.24
				c1.04,0.04,2.08,0.07,3.13,0.11c0.66,0.03,1.36,0.04,1.94-0.27c0.59-0.3,0.98-1.06,0.7-1.64
				C494.39,327.21,489.59,326.93,488.23,327.46z"/>
			<path class="st1" d="M481.25,335.32c-0.57,0.36-1.18,0.94-1,1.58c0.16,0.53,0.77,0.76,1.31,0.84c1.17,0.2,2.38,0.11,3.51-0.24
				c0.44-0.14,0.9-0.34,1.18-0.7c0.87-1.07-0.17-2.5-1.33-2.67C483.85,333.98,482.15,334.78,481.25,335.32z"/>
			<path class="st1" d="M483.61,348.46c-0.41,0.14-0.83,0.29-1.17,0.57c-0.33,0.29-0.56,0.74-0.44,1.16
				c0.19,0.67,1.03,0.87,1.73,0.96c1.37,0.16,2.75,0.31,4.14,0.33c1.81,0.01,3.62-0.2,5.37-0.66c2.78-0.71,3.25-3.15,0.2-3.65
				C490.11,346.62,486.75,347.41,483.61,348.46z"/>
			<path class="st1" d="M458.9,343.44c-1.08,0.31-2.17,0.76-2.98,1.54c-0.81,0.78-1.3,2-0.97,3.08c0.33,1.08,1.36,1.78,2.38,2.28
				c4.44,2.14,9.76,1.83,14.41,0.19c3.64-1.28,4.51-4.99,0.56-6.26C467.82,342.81,463.5,342.08,458.9,343.44z"/>
			<path class="st1" d="M468.89,334.56c-1.01,0.3-1.95,1.08-2.08,2.14c-0.01,0.14-0.01,0.3,0.06,0.43c0.09,0.14,0.24,0.21,0.39,0.29
				c2.23,0.96,4.97,0.57,6.85-0.96c0.34-0.29,0.7-0.7,0.57-1.13c-0.09-0.29-0.37-0.47-0.66-0.6
				C472.68,334.11,470.26,334.16,468.89,334.56z"/>
			<path class="st1" d="M457.56,328.63c-1.76,0.61-3.61,1.41-4.48,3.05c-0.11,0.21-0.21,0.49-0.1,0.71
				c0.09,0.17,0.29,0.27,0.47,0.33c2.17,0.76,4.52-0.14,6.71-0.81c2.04-0.61,4.12-1.04,6.25-1.27c1.8-0.19,3.64-0.24,5.35-0.84
				c1.1-0.39,2.21-1.1,2.5-2.24c0.5-2.04-5.42-1.66-6.72-1.44C464.16,326.67,460.8,327.5,457.56,328.63z"/>
			<path class="st1" d="M443.41,340.68c-0.21,0.3-0.39,0.66-0.34,1.03c0.1,0.66,0.86,0.98,1.51,1.11c2.04,0.4,4.38,0.09,5.82-1.41
				c1.38-1.43-1.27-2.6-2.45-2.7C446.38,338.57,444.34,339.39,443.41,340.68z"/>
			<path class="st1" d="M432.61,331.97c-0.86,0.67-1.67,1.4-2.28,2.3s-1,1.98-0.9,3.05c0.01,0.14,0.03,0.29,0.11,0.39
				c0.11,0.16,0.33,0.21,0.51,0.26c2.38,0.5,4.85-0.37,7.04-1.47c1.01-0.5,2.03-1.08,2.63-2.04c0.6-0.96,0.61-2.37-0.26-3.07
				C437.73,329.95,434.16,330.74,432.61,331.97z"/>
		</g>
		<g>
			<path class="st1" d="M700.75,363.94c2.2,5.96,3.82,12.1,4.89,18.37c0.14,0.86,1.46,0.56,1.31-0.3
				c-1.07-6.26-2.71-12.4-4.89-18.37C701.77,362.85,700.45,363.13,700.75,363.94L700.75,363.94z"/>
		</g>
		<g>
			<path class="st1" d="M692.11,358.24c1.37,5.11,2.73,10.2,4.1,15.31c0.23,0.83,1.54,0.54,1.31-0.3c-1.37-5.11-2.73-10.2-4.1-15.31
				C693.19,357.11,691.88,357.39,692.11,358.24L692.11,358.24z"/>
		</g>
		<g>
			<path class="st1" d="M688.04,374.58c0.31,2.94-0.19,5.78-1.4,8.45c-0.36,0.78,0.93,1.2,1.28,0.41c1.33-2.91,1.78-5.99,1.44-9.16
				C689.27,373.42,687.95,373.73,688.04,374.58L688.04,374.58z"/>
		</g>
		<g>
			<path class="st1" d="M627.73,273.2c1.78-3.84,3.58-7.66,5.37-11.5c0.37-0.78-0.91-1.2-1.28-0.41c-1.78,3.84-3.58,7.66-5.37,11.5
				C626.08,273.57,627.38,273.97,627.73,273.2L627.73,273.2z"/>
		</g>
		<g>
			<path class="st1" d="M632.68,272.55c4.54-5.85,8.21-12.3,10.92-19.19c0.31-0.81-0.97-1.21-1.28-0.41
				c-2.68,6.78-6.31,13.11-10.77,18.88C631.02,272.5,632.16,273.23,632.68,272.55L632.68,272.55z"/>
		</g>
		<g>
			<path class="st1" d="M355.65,335.98c4.1,6.02,9.19,11.23,15.14,15.44c0.71,0.5,1.44-0.63,0.73-1.13
				c-5.75-4.07-10.72-9.1-14.68-14.93C356.35,334.63,355.15,335.26,355.65,335.98L355.65,335.98z"/>
		</g>
		<g>
			<path class="st1" d="M367.78,340.87c5.15,5.57,11.09,10.3,17.65,14.08c0.76,0.43,1.48-0.7,0.73-1.13
				c-6.48-3.72-12.32-8.38-17.4-13.86C368.18,339.33,367.19,340.23,367.78,340.87L367.78,340.87z"/>
		</g>
		<g>
			<path class="st1" d="M377.31,357.45c2.41,0.98,4.64,2.27,6.74,3.81c0.7,0.51,1.43-0.61,0.73-1.13c-2.18-1.61-4.54-2.93-7.05-3.95
				C376.91,355.84,376.51,357.12,377.31,357.45L377.31,357.45z"/>
		</g>
		<path class="st1" d="M720.47,244.88c0.19,0.8,0.46,1.58,0.9,2.27c0.47,0.71,1.1,1.31,1.76,1.87c1.53,1.33,3.17,2.54,4.88,3.62
			c1.11,0.71,2.35,1.38,3.67,1.3c1.51-0.1,2.81-1.2,3.55-2.53c0.74-1.33,1.01-2.85,1.28-4.34c0.24-1.37,0.49-2.75,0.57-4.15
			c0.2-3.37-0.68-6.94-3.07-9.32c-1.24-1.24-2.8-2.08-4.41-2.75c-1.16-0.49-2.4-0.88-3.65-0.77c-1.77,0.16-3.27,1.51-3.9,3.1
			c-0.94,2.38-1.68,4.91-1.87,7.48C720.07,242.06,720.16,243.49,720.47,244.88z"/>
		<path class="st1" d="M674.13,427.26C674.17,427.29,674.15,427.29,674.13,427.26L674.13,427.26z"/>
		<g>
			<path class="st1" d="M465.51,449.91c3.77-14.14,1.46-29.4-5.12-42.35c-0.51-1.01-1.04-2.03-1.66-2.98
				c-0.46-0.73-1.66-0.1-1.2,0.63c2.53,3.98,4.32,8.56,5.71,13.04c3.13,10.15,3.74,20.96,0.98,31.27
				C464.01,450.32,465.28,450.73,465.51,449.91L465.51,449.91z"/>
		</g>
		<g>
			<path class="st1" d="M397.79,425.08c1.83,6.54,4.31,12.84,7.43,18.86c0.4,0.77,1.6,0.14,1.2-0.63
				c-3.07-5.92-5.52-12.12-7.31-18.55C398.86,423.94,397.54,424.24,397.79,425.08L397.79,425.08z"/>
		</g>
		<g>
			<path class="st1" d="M398.44,395.92c0.14,11.36,2.18,22.59,6.06,33.26c0.29,0.8,1.61,0.51,1.31-0.3
				c-3.84-10.56-5.89-21.66-6.04-32.91C399.77,395.12,398.43,395.05,398.44,395.92L398.44,395.92z"/>
		</g>
		<g>
			<path class="st1" d="M395.99,407.72c-1.57-7.29-1.9-14.73-1-22.13c0.1-0.86-1.24-0.91-1.34-0.06c-0.93,7.51-0.57,15.1,1.03,22.49
				C394.86,408.88,396.17,408.58,395.99,407.72L395.99,407.72z"/>
		</g>
		<g>
			<path class="st1" d="M407.15,434.14c0.4,2.78,1.68,5.29,3.67,7.28c0.61,0.61,1.61-0.3,1-0.91c-1.84-1.83-2.98-4.1-3.35-6.66
				C408.33,432.98,407.02,433.28,407.15,434.14L407.15,434.14z"/>
		</g>
		<g>
			<path class="st1" d="M695.17,258.28c-1.18-3.52-2.37-7.06-3.57-10.59c-0.27-0.81-1.58-0.53-1.31,0.3
				c1.18,3.52,2.37,7.06,3.57,10.59C694.13,259.39,695.44,259.1,695.17,258.28L695.17,258.28z"/>
		</g>
		<g>
			<path class="st1" d="M639.09,251.64c1.13-3.1,2.45-6.09,3.98-9.02c0.4-0.76-0.73-1.5-1.13-0.73c-1.58,3.03-2.97,6.12-4.14,9.33
				C637.52,252.04,638.81,252.45,639.09,251.64L639.09,251.64z"/>
		</g>
		<g>
			<path class="st1" d="M708.54,174.11c-3.38-1.76-4.55-6.64-4.78-10.15c-0.23-3.47,0.8-11.77,6.06-8.48
				c6.52,4.08,8.5,12.71,5.02,19.42c-0.4,0.77,0.73,1.5,1.13,0.73c2.15-4.17,2.63-9.05,0.93-13.46c-0.8-2.11-2.05-4.05-3.65-5.65
				c-1.34-1.34-3.23-2.97-5.17-3.2c-4.82-0.56-5.75,6.32-5.71,9.7c0.04,4.18,1.37,10.1,5.44,12.22
				C708.57,175.64,709.31,174.51,708.54,174.11L708.54,174.11z"/>
		</g>
		<g>
			<path class="st1" d="M712.81,152.39c2.58,1.38,4.51,3.55,5.58,6.29c0.31,0.8,1.51,0.17,1.2-0.63c-1.16-2.91-3.28-5.31-6.05-6.79
				C712.78,150.86,712.04,151.99,712.81,152.39L712.81,152.39z"/>
		</g>
		<g>
			<path class="st1" d="M686.64,245.43c-0.04-1.68-0.09-3.37-0.13-5.04c-0.03-0.86-1.37-0.93-1.34-0.06
				c0.04,1.68,0.09,3.37,0.13,5.04C685.33,246.23,686.67,246.3,686.64,245.43L686.64,245.43z"/>
		</g>
		<g>
			<path class="st1" d="M477.47,495.19c-0.21,6.26,1.78,12.33,5.67,17.24c0.54,0.68,1.53-0.23,1-0.91
				c-3.67-4.64-5.52-10.37-5.32-16.27C478.84,494.37,477.5,494.32,477.47,495.19L477.47,495.19z"/>
		</g>
		<g>
			<path class="st1" d="M484.13,502.39c-1.04-2.34-1.71-4.77-2.03-7.31c-0.11-0.86-1.43-0.56-1.31,0.3
				c0.34,2.65,1.07,5.19,2.15,7.63C483.29,503.8,484.49,503.18,484.13,502.39L484.13,502.39z"/>
		</g>
		<g>
			<path class="st1" d="M474.47,494.8c-0.04-7.13,1.31-14.58,6.71-19.69c0.63-0.6-0.29-1.6-0.91-1c-5.65,5.35-7.18,13.13-7.15,20.63
				C473.13,495.6,474.47,495.66,474.47,494.8L474.47,494.8z"/>
		</g>
		<g>
			<path class="st1" d="M778.8,175.14c1.43-4.42,2.51-8.92,3.28-13.5c0.14-0.86-1.2-0.9-1.34-0.06c-0.76,4.47-1.83,8.85-3.23,13.14
				C777.25,175.54,778.54,175.95,778.8,175.14L778.8,175.14z"/>
		</g>
		<g>
			<path class="st1" d="M777.25,166.59c1.5-4.58,2.11-9.35,1.8-14.16c-0.06-0.86-1.4-0.93-1.34-0.06c0.3,4.69-0.27,9.32-1.74,13.8
				C775.7,167,776.98,167.42,777.25,166.59L777.25,166.59z"/>
		</g>
		<g>
			<path class="st1" d="M669.9,70.97c3.9-0.84,7.83-1.26,11.83-1.23c0.87,0.01,0.93-1.34,0.06-1.34c-4.11-0.03-8.18,0.39-12.19,1.26
				C668.75,69.83,669.04,71.14,669.9,70.97L669.9,70.97z"/>
		</g>
		<g>
			<path class="st1" d="M658.77,66.04c4.07-2.08,8.52-5.15,13.27-4.89c0.87,0.04,0.93-1.3,0.06-1.34
				c-5.04-0.27-9.65,2.84-13.96,5.05C657.37,65.24,657.99,66.44,658.77,66.04L658.77,66.04z"/>
		</g>
		<g>
			<path class="st1" d="M739.4,228.69c3.14,3.45,3.4,8.18,3.24,12.61c-0.17,4.69-0.34,9.43-1.67,13.97
				c-0.24,0.83,1.04,1.26,1.28,0.41c1.46-5.04,1.68-10.42,1.77-15.63c0.07-4.4-0.56-8.92-3.62-12.29
				C739.81,227.14,738.81,228.05,739.4,228.69L739.4,228.69z"/>
		</g>
		<g>
			<path class="st1" d="M746.17,227.61c2.58,2.13,3.54,5.47,3.7,8.7c0.04,0.86,1.38,0.93,1.34,0.06c-0.19-3.77-1.31-7.42-4.31-9.89
				C746.23,225.92,745.5,227.07,746.17,227.61L746.17,227.61z"/>
		</g>
		<g>
			<path class="st1" d="M738.84,222.93c0.73,0.61,1.37,1.33,1.91,2.11c0.21,0.3,0.71,0.27,0.96,0.04c0.3-0.27,0.26-0.66,0.04-0.96
				c-0.61-0.88-1.36-1.64-2.17-2.33c-0.29-0.23-0.76-0.09-0.93,0.2C738.43,222.34,738.55,222.7,738.84,222.93L738.84,222.93z"/>
		</g>
		<g>
			<path class="st1" d="M745.08,220.73c1.81,1.33,3.3,2.98,4.42,4.92c0.43,0.74,1.63,0.13,1.2-0.63c-1.24-2.14-2.9-3.97-4.89-5.44
				C745.1,219.09,744.38,220.22,745.08,220.73L745.08,220.73z"/>
		</g>
		<g>
			<path class="st1" d="M839.64,139.72c-0.36-9.28-2.87-18.29-6.64-26.74c-3.9-8.73-9.06-16.84-14.66-24.57
				c-2.91-4.04-5.85-8.15-9.19-11.84c-3.35-3.72-7.31-6.48-11.84-8.55c-9.6-4.38-19.99-7.15-30.54-7.83
				c-5.27-0.34-10.55-0.2-15.8,0.24c-2.61,0.21-5.72,0.27-8.52,0.96c-6.85-5.05-14.43-9.13-22.36-12.2
				c-10.05-3.9-20.55-6.42-31.28-4.14c-9.26,1.97-18.64,5.27-27.2,9.3c-7.22,3.4-13.94,7.78-19.86,13.14
				c-3.13,2.84-6.02,5.94-8.73,9.18c-1.48,1.78-2.93,3.6-4.31,5.45c-1.46,1.95-2.98,4.05-3.5,6.48c-0.78,3.74,1.63,6.75,5.25,7.42
				c4.17,0.77,7.69-1.56,10.56-4.34c1.84-1.78,3.61-3.58,5.47-5.27c1.23-1,2.43-1.98,3.52-2.88c0.57-0.43,1.11-0.86,1.73-1.26
				c3.84-2.5,8.02-4.42,12.4-5.78c18.37-5.71,38.02-1.13,53.01,10.57c15.85,12.37,26.61,31.78,28.51,51.8
				c0.51,5.45,0.3,10.95-0.66,16.32c-1.04,5.47-2.87,10.75-5.55,15.63c-1.17,2.11-2.44,4.12-4.08,5.91
				c-0.04,0.04-0.09,0.09-0.13,0.13c-1.58-0.39-3.18-0.76-4.75-1.24c-1.93-0.6-4.4-1.44-5.41-3.34c-1.37-2.54,0.2-6.09-0.1-8.88
				c-0.61-5.51-4.18-11.16-7.53-15.44c-3.04-3.88-7.41-6.04-12.32-4.55c-12.16,3.67-11.96,17.65-10.76,27.97
				c-1.38,0.4-3.41,1.87-3.95,2.17c-2.54,1.41-5.18,2.78-7.55,4.47c-4.58,3.24-8.8,7.53-12.69,11.57c-4.22,4.4-7.93,9.25-11.36,14.3
				c-7.31,10.8-13.68,22.26-20.29,33.48c-3.4,5.77-6.82,11.52-10.13,17.32c-2.71,4.75-5.14,9.65-8.06,14.27
				c-3.1,4.89-6.78,9.29-11.54,12.61c-4.65,3.24-9.89,5.52-15.25,7.32c-10.16,3.41-20.82,5.25-30.75,9.33
				c-11.79,4.85-23,10.83-35.09,15.01c-12.04,4.17-24.33,6.46-37.09,6.81c-25.76,0.67-53.23-3.57-75.37,12.56
				c-15.64-18.19-41.67-7.06-62.09-8.82c-6.96-0.6-13.53-2.73-19.16-6.94c-0.54-0.4-1.3,0.31-0.96,0.88
				c6.79,11.54,14.47,22.76,24.27,31.98c4.51,4.25,9.43,8.23,15.03,10.97c5.92,2.91,12.32,4.78,18.79,5.96
				c-7.25,21.68-4.67,45.21,2.73,66.5c3.68,10.59,11.44,22.43,8.48,34.03c-1.46,5.69-5.21,10.55-8.42,15.34
				c-3.2,4.78-6.35,9.6-9.15,14.63c-5.08,9.12-9.19,19.35-8.38,29.98c0.73,9.69,5.71,17.99,11.63,25.44
				c6.71,8.45,14.04,16.21,19.75,25.41c5.91,9.53,10.5,19.88,13.57,30.68c3.27,11.52,3.94,24.43,10.53,34.73
				c5.15,8.05,14.66,14.37,24.47,11.89c0.36-0.09,0.57-0.44,0.5-0.81c-5.98-31.44-17.14-61.85-33.01-89.64
				c-4.04-7.06-8.38-13.94-12.97-20.65c-2.33-3.4-5.09-7.25-4.65-11.59c0.41-4.02,3.42-7.06,6.44-9.46
				c5.61-4.5,11.54-8.38,16.85-13.29c5.28-4.88,10.12-10.22,14.48-15.94c9.72-12.73,16.91-27.31,21.11-42.77
				c3.77,3.78,8.02,6.94,12.67,9.56c-7.83,11.19-11.22,25.3-8.01,38.71c2.93,12.22,10.5,22.58,18.67,31.85
				c9.02,10.25,19.02,19.62,27.1,30.68c4.61,6.31,8.66,13.04,12.1,20.05c3.28,6.69,5.65,13.76,8.8,20.49
				c3.04,6.51,7.09,12.73,13.41,16.47c5.65,3.35,12.49,4.51,18.54,1.56c0.34-0.17,0.41-0.59,0.29-0.91
				c-9.3-21.96-20.35-43.18-33.05-63.37c-6.22-9.87-12.81-19.52-19.79-28.88c-1.76-2.35-3.54-4.71-5.35-7.02
				c-1.58-2.04-3.14-4.05-3.87-6.58c-1.07-3.72-0.11-7.51,1.77-10.79c4.04-7.04,10.97-12.17,17.1-17.3
				c2.84-2.38,5.54-4.82,8.09-7.51c2.73-2.87,5.88-5.42,9.8-6.34c3.47-0.81,7.11-0.47,10.62-0.26c5.45,0.34,10.89,0.51,16.35,0.53
				c12.53,0.03,24.92-0.93,37.22-3.31c11.22-2.17,23.29-3.42,33.26-9.48c10.26-6.22,19.64-16.01,31.58-18.95
				c-0.06,0.24-0.11,0.49-0.17,0.73c-2.11,8.98-10.17,26.37-9.89,26.56c-2.83,6.35-5.79,12.87-10.43,18.02
				c-8.32,9.25-30.34,12.77-28.03,28.97c0.03,0.21,0.24,0.44,0.46,0.49c19.96,4.18,36.43-10.35,47.96-24.79
				c7.66-9.6,15.37-19.52,22.19-29.95c0.29,0.2,11.6-18.79,14.04-25.23c0.3-0.78,0.57-1.57,0.86-2.35c0.49-0.78,1.1-1.47,1.93-1.93
				c2.67-1.48,5.75-2.58,8.69-3.37c5.27-1.43,11.02-1.47,15.54,1.98c6.85,5.22,9.19,15.15,10.72,23.19
				c3.13,16.41,2.64,34.62-3.27,50.39c-1.57,4.21-3.6,8.26-6.25,11.9c-3.18,4.37-7.28,7.99-10.93,11.96
				c-6.91,7.48-13.27,17.37-10.07,27.95c0.13,0.43,0.56,0.64,0.97,0.44c21.02-10.13,37.23-27.67,46.45-49.05
				c9.23-21.4,11.46-45.59,7.69-68.5c-2.15-13.09-6.32-25.81-12.41-37.6c-1.8-3.34-4.11-6.48-7.28-8.65
				c-3.2-2.18-6.91-2.68-10.69-3.04c-4.34-0.4-8.7-0.39-13.03-0.93c-4.61-0.57-9.08-1.94-13.67-2.64c-0.2-7.48-1.3-14.91-3.45-22.09
				c-2.17-7.23-5.62-13.88-8.76-20.72c-3.15-6.86-6.22-14.38-5.44-22.09c0.84-8.26,6.48-14.24,11.66-20.22
				c0.13,0.14,0.26,0.29,0.37,0.43c0.14,0.24,13.37,15.91,23.39,19.05c8.75,2.75,19.98,1.67,25.97-5.89
				c6.06-7.65,6.28-18.19,6.85-27.48c0.59-9.3,1.47-18.59,2.01-27.9c0.31-5.42,0.59-10.96,0.64-16.54
				c14.74-2.15,28.7-10.47,39.21-20.59c14.4-13.84,23.53-32.15,28.8-51.24C837.66,160,840.03,149.79,839.64,139.72z M626.45,89.56
				c0.26-2.7,2.17-5.05,3.74-7.14c5.05-6.71,10.76-12.94,17.44-18.07c6.28-4.82,13.33-8.5,20.68-11.43
				c4.37-1.74,8.83-3.2,13.33-4.57c5.28-1.61,10.69-3.03,16.24-2.97c10.19,0.1,20.68,4.07,29.71,8.53
				c8.65,4.28,16.75,9.82,23.59,16.65c7.06,7.06,12.76,15.64,17.78,24.24c5.12,8.79,9.38,18.11,12.22,27.9
				c5.71,19.66,5.52,41.68-3.74,60.26c-3.3,6.61-7.83,12.9-13.78,17.35c-1.1,0.44-2.21,0.84-3.34,1.2c0.07,0.29,0.16,0.59,0.24,0.87
				c-0.01,0.01-0.01,0.01-0.03,0.01c-0.36,0.21-0.73,0.43-1.1,0.63c-3.41,1.84-7.33,3.21-11.24,3.2c-3.21-0.01-6.42-0.73-9.4-1.86
				c-4.18-1.57-8.83-4.48-10.85-8.6c1.26-0.96,4.64-4.21,11-14.8l3.11-6.41c-0.1,0.27-0.11,0.53-0.09,0.78
				c0.74-1.14,1.5-2.25,2.05-3.3c1.16-2.13,2.58-7.21,5.22-7.43c1.48-0.13,3.87,1.11,5.38,1.41c2.01,0.4,4.05,0.67,6.11,0.8
				c6.22,0.37,12.83-0.7,17.72-4.57c-1.4,0.97-3.17,1.2-4.88,1.33c-5.88,0.44-11.83-0.03-17.57-1.38c-1.36-0.33-3.21-0.68-4.31-1.61
				c-1.57-1.31-0.94-1.83-0.31-3.65c0.97-2.77,0.91-9.15,4.51-9.65c2.3-0.33,4.62,0.51,7.05,0c2.17-0.47,4.25-1.36,6.18-2.45
				c3.21-1.86,6.01-4.32,8.78-6.76c-5.91,3.42-12.87,4.98-19.68,4.41c-3-0.26-4.18-0.54-4.41-3.44c-0.2-2.6-0.74-5.17-0.96-7.75
				c-0.17-2.14,0.04-2.41,1.97-3.37c3.82-1.9,7.53-3.52,10.17-7.08c0.76-1.03,1.41-2.21,1.38-3.48
				c-2.41,2.75-12.83,11.17-15.48,6.12c-1-1.88-3.71-6.69-3.4-8.82c0.31-2.15,5.01-3.91,6.69-5.15c2.4-1.77,4.57-4.22,4.89-7.19
				c-1.97,2.17-4.04,4.27-6.48,5.89c-1.83,1.21-5.14,3.44-7.21,1.84c-2.27-1.74-3.07-5.08-4.5-7.45c-0.68-1.14-2.45-2.78-2.35-4.22
				c0.11-1.63,2.38-2.95,3.48-3.91c1.71-1.5,3.4-3.31,3.61-5.58c-1.68,1.94-3.52,3.74-5.49,5.39c-2.13,1.78-2.93,2.73-4.62,0.49
				c-0.57-0.74-1.11-1.5-1.71-2.23c-1.41-1.7-2.98-3.25-4.61-4.75c1.46-1.11,2.38-2.88,3.14-4.59c0.83-1.88,1.63-3.94,1.18-5.94
				c0.04,1.6-0.88,3.05-1.9,4.28c-1.34,1.63-2.95,3.01-4.68,4.22c-9.23-7.85-20.13-13.73-31.14-18.68
				c-34.03-15.33-66.36,26.57-66.36,26.57c0.31,0.39,0.64,0.68,0.97,0.93c-0.07-0.01-0.13-0.01-0.2-0.03
				C627.86,93.96,626.21,92.09,626.45,89.56z M786.24,144.29c-1.11-21.03-9.6-40.9-21.18-58.24c-2-3-4.08-5.91-6.28-8.7
				c5.96,1.04,11.66,3.08,17.04,6.32c16.88,10.2,26.54,28.55,27.48,48.03c0.96,19.69-6.12,40.26-19.64,54.71
				c-3.25,3.48-6.89,6.58-10.89,9.19c-1.53,0.98-3.1,1.88-4.71,2.71C782.23,184.8,787.24,163.24,786.24,144.29z M669.43,73.76
				c5.52-1.24,10.77-1.38,15.48-0.94C679.75,72.45,674.51,72.75,669.43,73.76z M668.8,73.91c0.14-0.03,0.27-0.06,0.41-0.1
				C669.07,73.85,668.93,73.88,668.8,73.91z M371.93,358.99c-5.54-2.9-10.45-7.05-14.9-11.39c-8.43-8.22-15.24-17.91-21.31-27.95
				c8.69,5.35,18.94,6.14,29.07,5.48c11.12-0.71,22.66-3.23,33.73-0.91c6.39,1.33,11.84,4.65,16.03,9.66
				c-0.57,0.53-1.14,1.06-1.7,1.6c-2.17,2.11-4.22,4.32-6.18,6.64c-5.96,7.04-10.95,14.9-14.54,23.39
				c-0.04-0.01-0.09-0.03-0.11-0.03C385.1,364.27,378.18,362.26,371.93,358.99z M765.37,250.41c-0.33,8.79-1.04,17.55-1.73,26.31
				c-0.67,8.63-0.47,17.65-2.65,26.07c-1.38,5.37-4.02,10.56-8.79,13.68c-4.61,3.03-10.3,3.52-15.61,2.47
				c-11.74-2.33-19.91-10.77-27.37-19.48c-4.22-7.05-7.93-14.4-11.27-21.89c-3.51-7.88-6.72-16.03-8.63-24.44
				c-0.19-0.84-1.51-0.54-1.31,0.3c1.9,8.36,5.07,16.45,8.53,24.27c3.14,7.12,6.64,14.1,10.56,20.82
				c-4.69,5.41-9.95,10.79-11.74,17.94c-1.76,6.92-0.04,14.01,2.5,20.51c3.05,7.83,7.38,15.11,10.13,23.07
				c2.84,8.19,4.27,16.78,4.45,25.43c0.01,0.39,0.26,0.66,0.64,0.7c4.21,0.59,8.26,1.81,12.44,2.48c3.72,0.6,7.51,0.7,11.27,0.91
				c4.02,0.23,8.6,0.29,12.23,2.24c3.68,1.97,6.26,5.39,8.21,8.99c10.59,20.49,15.28,43.89,13.71,66.88
				c-1.54,22.48-9.25,44.79-23.73,62.23c-8.32,10.02-18.71,18.08-30.38,23.83c-3.78-14.6,10.02-25.3,18.55-34.98
				c6.64-7.52,10.22-17.24,12.14-26.97c2.07-10.46,2.35-21.28,1.17-31.86c-1.07-9.59-3.03-20.98-9.36-28.63
				c-3.55-4.3-8.62-6.42-14.17-6.08c-3.1,0.2-6.12,1.03-9.02,2.1c-1.57,0.59-3.85,1.21-5.62,2.15c0.9-2.73,1.73-5.47,2.47-8.23
				c1.27-4.77,2.51-9.65,3-14.57c0.57-5.77,0.01-12.04-3.57-16.81c-4.05-5.38-11-7.18-17.45-6.92c-2.83,0.11-5.72-0.3-8.56-0.41
				c-4.94-0.2-9.89-0.23-14.84-0.04c-7.09,0.26-14.2,0.94-21.15,2.45c-4.05,0.88-8.09,2.04-11.89,3.75c-1.43,0.64-3.38,1.4-4.5,2.55
				c-0.04,0.04-0.11,0.09-0.16,0.13c-0.66,0.57,0.26,1.56,0.91,1c3.03-2.61,8.13-4.11,12.09-5.19c14.93-4.07,30.97-3.98,46.26-2.95
				c1.94,0.13,3.92-0.07,6.12,0.17c3.5,0.4,6.99,1.58,9.73,3.82c4.17,3.41,5.72,8.78,5.82,14c0.09,4.44-0.77,8.79-1.76,13.1
				c-1.11,4.87-2.47,9.69-4.05,14.43c-0.13,0.37-0.27,0.74-0.4,1.11c-0.81,0.97-1.24,3.13-1.76,4.3c-0.71,1.66-1.47,3.28-2.27,4.89
				c-1.64,3.37-3.44,6.66-5.34,9.89c-3.68,6.26-7.73,12.29-11.97,18.19c-8.02,11.19-16.11,23.07-26.14,32.58
				c-4.87,4.61-10.37,8.55-16.62,11.04c-3.15,1.27-6.49,2.15-9.87,2.54c-1.64,0.19-3.31,0.24-4.97,0.17
				c-2.35-0.1-4.94-0.14-4.58-3.18c0.97-8.29,9.29-12.71,15.85-16.21c6.01-3.2,11.13-6.79,15.01-12.49
				c3.97-5.84,6.74-12.56,9.6-18.96c1.37-3.07,2.7-6.16,3.9-9.3c1.5-3.75,2.78-7.59,3.77-11.5c0.03-0.1,0.06-0.2,0.09-0.31
				c0.13-0.51,0.24-1.01,0.37-1.53c0.11-0.46,0.23-0.9,0.33-1.36c0.01-0.07,0.01-0.14,0.01-0.21c0.71-3.47,1.18-6.96,1.36-10.47
				c0.03-0.59,0.24-1.58,0.03-2.15c-0.63-1.68-4.15-2.01-5.62-2.15c-6.06-0.57-13.41,0.74-18.49,4.24
				c-5.22,3.6-10.96,6.36-16.91,8.59c-0.81,0.3-0.17,1.5,0.63,1.2c4.68-1.74,9.32-3.82,13.6-6.39c2.7-1.61,5.02-3.47,8.02-4.51
				c3.05-1.07,6.32-1.68,9.56-1.83c1.41-0.06,2.84-0.04,4.24,0.14c1.23,0.17,2.24,0.76,3.38,1.03c0.13,0.03,0.21,0.07,0.27,0.1
				c0,0.01,0,0.03,0,0.03c-0.09,0.37-0.01,0.81-0.03,1.2c-0.13,3.52-0.64,7.04-1.37,10.49c-10.8,2.44-19.79,10.63-28.7,16.71
				c-9.6,6.56-20.35,8.88-31.62,10.9c-12.81,2.31-25.41,4.07-38.47,4.21c-6.06,0.07-12.13-0.03-18.18-0.4
				c-3.57-0.21-7.19-0.6-10.76-0.14c-7.65,0.96-11.83,7.05-17.24,11.8c-6.21,5.44-13.07,10.32-18.18,16.87
				c-4.42,5.67-6.54,12.66-2.48,19.16c2.9,4.64,6.72,8.85,9.95,13.27c3.81,5.21,7.51,10.49,11.07,15.85
				c15.24,22.87,28.31,47.16,39.09,72.46c-6.22,2.74-13.2,0.84-18.55-3.01c-5.55-4-8.99-10.13-11.7-16.25
				c-2.73-6.14-4.95-12.49-7.89-18.54c-3.05-6.26-6.58-12.29-10.56-18.01c-7.26-10.45-16.21-19.41-24.82-28.73
				c-8.08-8.75-16.05-18.08-20.48-29.28c-5.96-15.13-3.31-31.81,6.14-44.91c0.2-0.29,0.11-0.76-0.2-0.93
				c-5.15-2.83-9.82-6.26-13.86-10.53c-0.33-0.34-1.01-0.26-1.14,0.24c-3.84,14.7-10.4,28.58-19.29,40.9
				c-4.47,6.18-9.49,11.94-15.03,17.2c-5.45,5.18-11.52,9.33-17.44,13.93c-4.94,3.82-9.02,8.98-6.92,15.54
				c1.13,3.5,3.48,6.48,5.51,9.49c2.28,3.37,4.5,6.78,6.62,10.25c8.62,13.97,16.04,28.68,22.18,43.91
				c6.92,17.21,12.14,35.08,15.65,53.28c-10.23,2.17-19.59-5.55-23.99-14.26c-4.89-9.66-5.75-20.76-8.65-31.07
				c-2.78-9.92-6.81-19.48-11.97-28.38c-5.05-8.7-11.33-16.34-17.84-23.99c-6.46-7.61-12.94-15.83-14.78-25.9
				c-2.05-11.3,2.11-22.48,7.51-32.24c2.7-4.91,5.77-9.6,8.86-14.27c2.74-4.12,5.75-8.18,7.78-12.73
				c4.34-9.82,0.37-19.71-3.47-28.95c-9.87-23.77-14.78-50.59-6.34-75.55c8.92-20.05,24.27-33.43,24.23-33.62
				c20.38-14.44,45.62-11.62,69.32-11.74c11.82-0.07,23.37-1.31,34.76-4.61c11.62-3.37,22.73-8.25,33.68-13.33
				c5.25-2.44,10.42-4.87,15.95-6.61c5.04-1.58,10.17-2.85,15.27-4.25c9.59-2.64,19.51-5.88,27.16-12.51
				c8.06-6.98,12.3-17.17,17.54-26.2c6.74-11.6,13.57-23.17,20.45-34.69c7.23-12.13,14.74-23.75,25.14-33.43
				c3.41-3.18,6.76-6.24,10.77-8.6c1.63-0.96,3.28-1.91,4.94-2.81c0.7-0.39,1.4-0.77,2.1-1.13c0.51-0.26,1.31-0.39,0.94-0.7
				c0.5,0.43,1.08-0.21,1.03-0.71c-0.71-5.82-1.46-11.99,0.43-17.67c1.6-4.81,5.72-9.12,10.9-9.83c6.11-0.83,9.56,4.5,12.3,9.05
				c1.47,2.43,2.91,4.92,3.72,7.66c0.87,2.93,0.3,5.28,0.13,8.19c-0.37,6.12,5.75,7.59,10.93,8.75c-1.16,1.18-2.35,2.34-3.5,3.54
				c-2.58,2.74-5.02,5.79-5.12,9.72c-0.07,3.01,1.16,5.82,3.08,8.08c4.2,4.89,11.13,7.58,17.42,8.16c5.09,0.49,10.1-1.04,14.53-3.57
				C765.81,218.6,765.94,235.1,765.37,250.41z M838.07,147.65c-0.96,10.09-3.64,20.32-6.91,29.9c-3.28,9.65-7.65,18.94-13.34,27.4
				c-9.96,14.83-24.37,27.21-41.5,32.85c-3.01,1-6.15,1.78-9.33,2.3c0.04-12.53-1.07-25.17-5.21-36.86c0.86-0.53,1.68-1.11,2.5-1.71
				c3.18-1.28,6.24-2.87,9.13-4.72c15.07-9.89,25.06-26.3,29.2-43.65c4.24-17.82,2.38-37.67-7.91-53.16
				c-8.43-12.7-22.1-22.26-37.3-24.37c-3.48-4.24-7.29-8.21-11.63-11.72c-0.57-0.46-1.16-0.9-1.74-1.34
				c4.88-0.86,9.99-1.11,14.93-1.2c5.08-0.09,10.16,0.2,15.18,0.98c5.32,0.83,10.53,2.23,15.58,4.08c4.78,1.74,9.62,3.6,13.74,6.65
				c4.07,3.03,7.12,7.16,10.16,11.16c2.85,3.77,5.62,7.59,8.23,11.53C832.01,111.14,839.86,128.8,838.07,147.65z"/>
			<path class="st1" d="M757.08,188.28c5.08,0.63,10.56-0.21,14.56-3.42c-4.44,0.34-8.98,0.67-13.27-0.47
				c-2.6-0.68-5.01-1.9-7.42-3.1c-2.13-1.06-4.24-2.13-6.36-3.18c-1.17-0.59-2.48-1.57-2.61-2.73c-1.01,1.56-1.98,3.15-2.41,4.69
				C738.25,184.76,753.54,187.84,757.08,188.28z"/>
		</g>
	</g>
	<g>
		<polygon class="st2" points="810.76,234.32 794.85,230.59 806.61,242.11 793.34,255.65 809.5,249.14 816.13,258.77 817.58,245.87 
			831.67,242.91 815.74,238.5 816.7,228.25 		"/>
		<polygon class="st2" points="692.26,272.57 676.58,257.22 682.79,277.25 667.36,286.59 685.87,285.52 688.4,307.19 693.72,293.19 
			707.73,300.99 704.06,287.63 719.89,282.88 703.62,279.51 709.13,265.34 		"/>
		<path class="st2" d="M485.18,203.09c-2.14-2.1-18.14-14.27-18.14-14.27l8.29,17.2l-16.15,7.22l14.83,1.26l-9.02,14.91l13.7-6.14
			l0.56,20.11l6.89-16.3l11.04,10.82l-5.09-15.47l19.36-3.38l-18.02-3.7l16.77-16.4l-16.51,6.16l-1.58-16.21L485.18,203.09z"/>
		<polygon class="st2" points="365.02,488.65 347.37,487.42 358.43,498.24 349,507.87 364.14,505.25 374.87,519.24 376.12,503.7 
			394.03,496.81 376.37,493.47 372.66,475.88 		"/>
		<polygon class="st2" points="372.34,568.78 361.75,568.89 370.66,577.61 369.69,585.74 374.58,580.75 382.77,588.78 
			379.46,575.75 392.44,567.51 376.21,568.38 373.27,557.12 		"/>
		<path class="st2" d="M392.48,612.09c-1.97,0.6-10.33,3.05-10.33,3.05l10.46-0.56l0.77,14.44l4.42-10.73l11.8,5.86l-6.66-12.63
			l7.33-12.39l-14.1,7.25l-7.32-6.11L392.48,612.09z"/>
		<path class="st2" d="M781.91,259.33c1.67,1.64,4.35,1.61,5.99-0.06s1.61-4.35-0.06-5.99c-1.67-1.64-4.35-1.61-5.99,0.06
			C780.21,255.01,780.24,257.69,781.91,259.33z"/>
		<path class="st2" d="M761.43,264.71c1.67,1.64,4.35,1.61,5.99-0.06s1.61-4.35-0.06-5.99s-4.35-1.61-5.99,0.06
			S759.76,263.07,761.43,264.71z"/>
		<path class="st2" d="M742.16,271.9c1.67,1.64,4.35,1.61,5.99-0.06c1.64-1.67,1.61-4.35-0.06-5.99c-1.67-1.64-4.35-1.61-5.99,0.06
			C740.45,267.58,740.48,270.26,742.16,271.9z"/>
		<path class="st2" d="M722.12,278.08c1.67,1.64,4.35,1.61,5.99-0.06s1.61-4.35-0.06-5.99c-1.67-1.64-4.35-1.61-5.99,0.06
			S720.45,276.44,722.12,278.08z"/>
		<path class="st2" d="M657.07,278.58c1.67,1.64,4.35,1.61,5.99-0.06s1.61-4.35-0.06-5.99c-1.67-1.64-4.35-1.61-5.99,0.06
			C655.37,274.26,655.4,276.95,657.07,278.58z"/>
		<path class="st2" d="M633.86,270.15c1.67,1.64,4.35,1.61,5.99-0.06s1.61-4.35-0.06-5.99c-1.67-1.64-4.35-1.61-5.99,0.06
			S632.17,268.51,633.86,270.15z"/>
		<path class="st2" d="M613.06,263.46c1.67,1.64,4.35,1.61,5.99-0.06c1.64-1.67,1.61-4.35-0.06-5.99c-1.67-1.64-4.35-1.61-5.99,0.06
			C611.37,259.13,611.39,261.81,613.06,263.46z"/>
		<path class="st2" d="M590.12,255.64c1.67,1.64,4.35,1.61,5.99-0.06c1.64-1.67,1.61-4.35-0.06-5.99c-1.67-1.64-4.35-1.61-5.99,0.06
			S588.45,253.99,590.12,255.64z"/>
		<path class="st2" d="M567.56,247.84c1.67,1.64,4.35,1.61,5.99-0.06c1.64-1.67,1.61-4.35-0.06-5.99c-1.67-1.64-4.35-1.61-5.99,0.06
			C565.84,243.52,565.87,246.2,567.56,247.84z"/>
		<path class="st2" d="M543.54,240.54c1.67,1.64,4.35,1.61,5.99-0.06s1.61-4.35-0.06-5.99c-1.67-1.64-4.35-1.61-5.99,0.06
			S541.87,238.9,543.54,240.54z"/>
		<path class="st2" d="M521.45,232.89c1.67,1.64,4.35,1.61,5.99-0.06c1.64-1.67,1.61-4.35-0.06-5.99c-1.67-1.64-4.35-1.61-5.99,0.06
			C519.75,228.56,519.78,231.26,521.45,232.89z"/>
		<path class="st2" d="M467.4,255.31c1.67,1.64,4.35,1.61,5.99-0.06c1.64-1.67,1.61-4.35-0.06-5.99c-1.67-1.64-4.35-1.61-5.99,0.06
			C465.7,250.98,465.73,253.67,467.4,255.31z"/>
		<path class="st2" d="M458.43,274.19c1.67,1.64,4.35,1.61,5.99-0.06c1.64-1.67,1.61-4.35-0.06-5.99s-4.35-1.61-5.99,0.06
			S456.76,272.55,458.43,274.19z"/>
		<path class="st2" d="M450.81,294.08c1.67,1.64,4.35,1.61,5.99-0.06c1.64-1.67,1.61-4.35-0.06-5.99c-1.67-1.64-4.35-1.61-5.99,0.06
			S449.14,292.44,450.81,294.08z"/>
		<path class="st2" d="M443.09,312.9c1.67,1.64,4.35,1.61,5.99-0.06c1.64-1.67,1.61-4.35-0.06-5.99c-1.67-1.64-4.35-1.61-5.99,0.06
			C441.4,308.58,441.41,311.26,443.09,312.9z"/>
		<path class="st2" d="M435.09,331.45c1.67,1.64,4.35,1.61,5.99-0.06s1.61-4.35-0.06-5.99c-1.67-1.64-4.35-1.61-5.99,0.06
			S433.42,329.81,435.09,331.45z"/>
		<path class="st2" d="M426.13,350.35c1.67,1.64,4.35,1.61,5.99-0.06c1.64-1.67,1.61-4.35-0.06-5.99c-1.67-1.64-4.35-1.61-5.99,0.06
			S424.46,348.7,426.13,350.35z"/>
		<path class="st2" d="M416.65,370.95c1.67,1.64,4.35,1.61,5.99-0.06c1.64-1.67,1.61-4.35-0.06-5.99c-1.67-1.64-4.35-1.61-5.99,0.06
			C414.95,366.63,414.98,369.31,416.65,370.95z"/>
		<path class="st2" d="M407.82,392.08c1.67,1.64,4.35,1.61,5.99-0.06c1.64-1.67,1.61-4.35-0.06-5.99c-1.67-1.64-4.35-1.61-5.99,0.06
			C406.12,387.76,406.15,390.44,407.82,392.08z"/>
		<path class="st2" d="M400,412.19c1.67,1.64,4.35,1.61,5.99-0.06s1.61-4.35-0.06-5.99c-1.67-1.64-4.35-1.61-5.99,0.06
			C398.3,407.87,398.31,410.55,400,412.19z"/>
		<path class="st2" d="M391.49,431.8c1.67,1.64,4.35,1.61,5.99-0.06c1.64-1.67,1.61-4.35-0.06-5.99c-1.67-1.64-4.35-1.61-5.99,0.06
			C389.8,427.47,389.82,430.16,391.49,431.8z"/>
		<path class="st2" d="M382.8,451.21c1.67,1.64,4.35,1.61,5.99-0.06c1.64-1.67,1.61-4.35-0.06-5.99c-1.67-1.64-4.35-1.61-5.99,0.06
			S381.13,449.56,382.8,451.21z"/>
		<path class="st2" d="M367.61,533.19c1.67,1.64,4.35,1.61,5.99-0.06c1.64-1.67,1.61-4.35-0.06-5.99c-1.67-1.64-4.35-1.61-5.99,0.06
			S365.94,531.56,367.61,533.19z"/>
		<path class="st2" d="M368.95,547.67c1.67,1.64,4.35,1.61,5.99-0.06s1.61-4.35-0.06-5.99s-4.35-1.61-5.99,0.06
			C367.23,543.35,367.26,546.03,368.95,547.67z"/>
		<path class="st2" d="M378.29,601.83c2.34-0.13,4.14-2.13,4.01-4.47c-0.13-2.34-2.13-4.14-4.47-4.01
			c-2.34,0.13-4.14,2.13-4.01,4.47C373.96,600.16,375.95,601.94,378.29,601.83z"/>
		<path class="st2" d="M376.31,469.96c1.67,1.64,4.35,1.61,5.99-0.06s1.61-4.35-0.06-5.99c-1.67-1.64-4.35-1.61-5.99,0.06
			C374.61,465.63,374.64,468.33,376.31,469.96z"/>
	</g>
</g>
<g id="XMLID_151_">
	<g id="XMLID_155_">
		<g id="XMLID_156_">
			<path id="XMLID_157_" class="st2" d="M212.98,303.09c-5.44-0.01-9.85-4.42-9.84-9.86l0.15-156.98
				c0.02-13.42,0.05-49.06,40.53-66.56c36.01-15.56,78.93,6.69,93.23,36.98c10.58,22.4,7.03,48.53,0.79,64.1
				c-4.9,12.21-12.27,20.72-20.75,23.97c-5.08,1.94-10.77-0.59-12.72-5.67c-1.95-5.07,0.59-10.78,5.67-12.72
				c2.36-0.91,6.28-4.83,9.52-12.92c5.15-12.83,7.05-32.75-0.32-48.36c-10.25-21.71-42.01-38.37-67.6-27.3
				c-25.15,10.87-28.63,29.73-28.65,48.49l-0.15,156.98C222.84,298.69,218.42,303.09,212.98,303.09z"/>
		</g>
	</g>
	<g id="XMLID_152_">
		<g id="XMLID_153_">
			<path id="XMLID_154_" class="st2" d="M212.98,303.09c-5.44-0.01-9.85-4.42-9.84-9.86l0.15-156.98
				c0.02-18.76-3.43-37.63-28.56-48.55c-25.56-11.11-57.36,5.48-67.65,27.17c-7.4,15.59-5.54,35.52-0.42,48.35
				c3.23,8.09,7.13,12.03,9.5,12.94c5.07,1.96,7.6,7.66,5.64,12.74c-1.96,5.07-7.65,7.61-12.74,5.65
				c-8.47-3.27-15.82-11.8-20.7-24.01c-6.22-15.58-9.71-41.72,0.91-64.1c14.36-30.26,57.32-52.42,93.3-36.79
				c40.45,17.58,40.42,53.22,40.4,66.64l-0.15,156.98C222.84,298.69,218.42,303.09,212.98,303.09z"/>
		</g>
	</g>
</g>
</svg>
