<?xml version="1.0" encoding="utf-8"?>
<!-- Generator: Adobe Illustrator 25.3.0, SVG Export Plug-In . SVG Version: 6.00 Build 0)  -->
<svg version="1.1" id="Layer_1" xmlns="http://www.w3.org/2000/svg" xmlns:xlink="http://www.w3.org/1999/xlink" x="0px" y="0px"
	 viewBox="0 0 1920 700" style="enable-background:new 0 0 1920 700;" xml:space="preserve">
<style type="text/css">
	.st0{fill:#1B1D50;}
	.st1{opacity:0.42;fill:#8AD2D0;enable-background:new    ;}
	.st2{fill:#FFFFFF;}
</style>
<rect class="st0" width="1920" height="700"/>
<g>
	<g>
		<g>
			<path class="st1" d="M540.03,424.29c4.36,1.17,8.73,2.35,13.09,3.52c0.73,0.2,1.03-0.92,0.32-1.12
				c-4.36-1.17-8.73-2.35-13.09-3.52C539.62,422.97,539.31,424.09,540.03,424.29L540.03,424.29z"/>
		</g>
		<g>
			<path class="st1" d="M517.85,497.98c1.62-5.25,4.03-10.18,7.17-14.7c0.42-0.62-0.58-1.2-1-0.59c-3.19,4.6-5.63,9.63-7.28,14.98
				C516.51,498.39,517.63,498.7,517.85,497.98L517.85,497.98z"/>
		</g>
		<g>
			<path class="st1" d="M518.26,487.84c1.52-3.6,3.11-7.23,6.01-9.94c0.55-0.51-0.28-1.33-0.83-0.83c-3.05,2.86-4.72,6.67-6.3,10.46
				C516.85,488.23,517.99,488.53,518.26,487.84L518.26,487.84z"/>
		</g>
		<g>
			<path class="st1" d="M571.93,550.21c0.88,0.79,1.77,1.62,2.54,2.52c0.86,0.99,3.28,5.02,0.2,4.87c-0.75-0.04-0.75,1.13,0,1.16
				c1.91,0.09,2.93-1.7,2.57-3.44c-0.49-2.43-2.74-4.36-4.5-5.93C572.19,548.88,571.37,549.71,571.93,550.21L571.93,550.21z"/>
		</g>
		<g>
			<path class="st1" d="M597.69,580.79c4.22,3.2,7.73,7.2,10.39,11.77c0.38,0.65,1.38,0.07,1-0.59c-2.77-4.76-6.42-8.86-10.8-12.2
				C597.68,579.34,597.1,580.34,597.69,580.79L597.69,580.79z"/>
		</g>
		<g>
			<path class="st1" d="M878.29,385.45c-3.74,0-7.49,0-11.23,0c0.18,0.25,0.37,0.49,0.57,0.74c2.43-8.24,2.6-17.43,1.98-25.95
				c-0.03-0.32-0.25-0.58-0.58-0.58c-7.08,0-14.16,0-21.24,0c0.09,0.36,0.2,0.73,0.29,1.08c2.81-1.9,3.51-6.1,3.97-9.19
				c0.38-2.53,0.61-5.1,0.61-7.66c0-0.33-0.26-0.55-0.58-0.58c-6.39-0.46-12.8-0.92-19.2-1.38c0.09,0.36,0.2,0.73,0.29,1.08
				c1.49-0.74,1.74-4.17,2-5.54c0.37-1.89,0.67-3.77,0.92-5.67c0.04-0.3-0.3-0.59-0.58-0.58c-3.56,0.13-7.16-0.18-10.71-0.46
				c-6.68-0.51-13.51-0.96-18.21-6.36c-0.98-1.13-1.89-2.45-2.44-3.85c-0.33-0.84-0.46-1.74-0.83-2.58
				c-1.25-2.78-3.8-4.77-6.38-6.22c-7.73-4.35-17.22-5.67-25.92-6.37c-9.66-0.78-19.61-0.59-29.14,1.23
				c-3.44,0.66-6.97,1.53-10.1,3.16c-1.12,0.58-2.14,1.28-3.06,2.16c-2.87,2.74-5.96,5.06-9.81,6.21
				c-7.74,2.31-14.74-0.98-20.31-6.26c-2.11-2-4.92-3.1-7.66-3.94c-8.65-2.64-18.09-3.1-27.07-2.93
				c-9.51,0.18-19.45,1.16-28.43,4.47c-3.27,1.21-6.59,2.78-9.1,5.26c-0.99,0.98-1.83,2.12-2.37,3.4c-0.34,0.8-0.46,1.67-0.79,2.49
				c-1.63,4-5.38,7.05-9.36,8.48c-3.73,1.33-7.85,1.4-11.75,1.69c-2.6,0.2-5.19,0.36-7.81,0.41c-0.8,0.01-1.61,0.04-2.41,0.01
				c-0.29-0.01-0.62,0.28-0.58,0.58c0.25,1.9,0.55,3.8,0.92,5.67c0.26,1.37,0.53,4.8,2,5.54c0.09-0.36,0.2-0.73,0.29-1.08
				c-6.39,0.46-12.8,0.92-19.2,1.38c-0.32,0.03-0.58,0.25-0.58,0.58c0,2.56,0.22,5.13,0.61,7.66c0.46,3.09,1.16,7.29,3.97,9.19
				c0.09-0.36,0.2-0.73,0.29-1.08c-7.08,0-14.16,0-21.24,0c-0.33,0-0.55,0.26-0.58,0.58c-0.62,8.53-0.45,17.71,1.98,25.95
				c0.18-0.25,0.37-0.49,0.57-0.74c-3.74,0-7.49,0-11.23,0c-0.32,0-0.58,0.26-0.58,0.58c-0.08,3.78,0.66,7.71,1.63,11.34
				c2.14,7.92,6.3,15.19,12.38,20.74c0.13-0.33,0.28-0.66,0.41-0.99c-3.34,0.32-6.67,0.63-10.01,0.95
				c-0.38,0.04-0.66,0.34-0.57,0.74c0.78,3.23,2.58,6.36,4.39,9.1c4.79,7.25,11.55,13.05,18.97,17.47
				c5.43,3.23,11.35,5.52,16.81,8.7c4.79,2.8,9.34,6,13.55,9.6c5.12,4.38,9.88,9.32,13.7,14.87c0.95,1.38,1.73,2.83,2.62,4.26
				c2.53,4.01,5.52,7.74,8.79,11.15c11.6,12.14,27.13,19.92,43.95,21.19c5.63,0.42,11.38,0.3,17.02,0.45
				c6.21,0.16,12.41,0.32,18.62,0.47c0.42,0.01,0.84,0.03,1.25,0.03c-0.2-0.2-0.38-0.38-0.58-0.58c0,0.03,0,0.05,0,0.08
				c0,0.3,0.26,0.59,0.58,0.58c1.11-0.03,2.19-0.03,3.3,0c0.32,0.01,0.58-0.28,0.58-0.58c0-0.03,0-0.05,0-0.08
				c-0.2,0.2-0.38,0.38-0.58,0.58c10.01-0.25,20.03-0.67,30.05-0.76c9.53-0.09,18.72-1.42,27.56-5.16
				c7.23-3.05,13.84-7.41,19.63-12.7c5.56-5.08,10.07-10.9,13.96-17.33c2.72-4.48,6.34-8.5,10.05-12.17
				c7.71-7.61,16.81-13.74,26.65-18.27c9.31-4.3,18.06-9.97,24.58-18c2.93-3.61,5.59-7.74,7-12.22c0.07-0.22,0.15-0.45,0.2-0.69
				c0.09-0.4-0.18-0.7-0.57-0.74c-3.34-0.32-6.67-0.63-10.01-0.95c0.13,0.33,0.28,0.66,0.41,0.99c6.08-5.55,10.24-12.82,12.38-20.74
				c0.98-3.64,1.71-7.56,1.63-11.34c-0.01-0.75-1.19-0.75-1.16,0c0.08,3.57-0.61,7.24-1.5,10.68c-2.06,7.87-6.14,15.07-12.18,20.57
				c-0.41,0.37-0.05,0.95,0.41,0.99c3.34,0.32,6.67,0.63,10.01,0.95c-0.18-0.25-0.37-0.49-0.57-0.74c-0.78,3.23-2.61,6.33-4.43,9.04
				c-5.06,7.57-12.33,13.48-20.23,17.88c-5.45,3.03-11.22,5.34-16.56,8.6c-4.42,2.69-8.61,5.74-12.53,9.11
				c-5,4.3-9.6,9.15-13.38,14.57c-0.95,1.36-1.73,2.8-2.61,4.19c-2.44,3.93-5.34,7.58-8.52,10.93
				c-11.71,12.39-27.49,20.23-44.61,21.23c-5.35,0.32-10.79,0.24-16.15,0.37c-6.12,0.16-12.25,0.32-18.37,0.47
				c-0.4,0.01-0.79,0.03-1.19,0.03c-0.32,0.01-0.58,0.26-0.58,0.58c0,0.03,0,0.05,0,0.08c0.2-0.2,0.38-0.38,0.58-0.58
				c-1.11-0.03-2.19-0.03-3.3,0c0.2,0.2,0.38,0.38,0.58,0.58c0-0.03,0-0.05,0-0.08c0-0.32-0.26-0.58-0.58-0.58
				c-9.99-0.25-19.99-0.65-29.97-0.76c-9.49-0.11-18.62-1.4-27.41-5.16c-7.19-3.07-13.77-7.46-19.49-12.78
				c-5.37-4.98-9.59-10.65-13.42-16.84c-2.72-4.39-6.22-8.36-9.88-11.99c-7.36-7.32-15.99-13.33-25.33-17.87
				c-5.41-2.62-10.71-5.18-15.58-8.73c-3.65-2.66-7.03-5.72-9.94-9.18c-3.09-3.65-5.92-7.91-7.36-12.53
				c-0.07-0.21-0.13-0.44-0.18-0.65c-0.18,0.25-0.37,0.49-0.57,0.74c3.34-0.32,6.67-0.63,10.01-0.95c0.46-0.04,0.82-0.62,0.41-0.99
				c-6.04-5.51-10.11-12.7-12.18-20.57c-0.9-3.44-1.58-7.11-1.5-10.68c-0.2,0.2-0.38,0.38-0.58,0.58c3.74,0,7.49,0,11.23,0
				c0.37,0,0.67-0.37,0.57-0.74c-2.4-8.14-2.54-17.22-1.94-25.65c-0.2,0.2-0.38,0.38-0.58,0.58c7.08,0,14.16,0,21.24,0
				c0.61,0,0.75-0.78,0.29-1.08c-2.66-1.81-3.18-6.45-3.56-9.36c-0.28-2.15-0.44-4.32-0.45-6.49c-0.2,0.2-0.38,0.38-0.58,0.58
				c6.39-0.46,12.8-0.92,19.2-1.38c0.53-0.04,0.86-0.8,0.29-1.08c-0.5-0.25-0.71-1.56-0.84-2.04c-0.32-1.13-0.54-2.29-0.76-3.45
				c-0.2-1.08-0.38-2.16-0.55-3.26c-0.05-0.37-0.21-1.42-0.21-1.45c-0.2,0.2-0.38,0.38-0.58,0.58c3.56,0.13,7.16-0.18,10.71-0.46
				c6.38-0.49,12.86-0.86,17.79-5.42c1.89-1.74,3.57-4.02,4.26-6.53c0.82-3.02,2.98-5.13,5.59-6.74c7.61-4.69,17.43-6,26.16-6.7
				c9.73-0.78,19.79-0.62,29.39,1.31c3.39,0.67,6.92,1.56,9.94,3.3c1.74,1,2.98,2.53,4.52,3.8c2.58,2.11,5.58,3.76,8.83,4.56
				c6.57,1.62,13.21-0.47,18.33-4.73c1.53-1.27,2.74-2.74,4.48-3.72c1.4-0.79,2.9-1.36,4.43-1.85c8.66-2.77,18.2-3.2,27.23-3.03
				c9.59,0.18,19.62,1.16,28.64,4.63c3.23,1.24,6.63,2.93,8.87,5.66c1.45,1.78,1.66,3.96,2.76,5.92c2.2,3.97,6,6.82,10.31,8.14
				c3.6,1.09,7.52,1.17,11.23,1.46c2.6,0.2,5.19,0.36,7.81,0.41c0.8,0.01,1.61,0.04,2.41,0.01c-0.2-0.2-0.38-0.38-0.58-0.58
				c-0.15,1.08-0.49,3.27-0.76,4.71c-0.21,1.16-0.45,2.32-0.76,3.45c-0.13,0.49-0.33,1.79-0.84,2.04c-0.55,0.28-0.24,1.04,0.29,1.08
				c6.39,0.46,12.8,0.92,19.2,1.38c-0.2-0.2-0.38-0.38-0.58-0.58c0,2.16-0.17,4.34-0.45,6.49c-0.38,2.93-0.88,7.56-3.56,9.36
				c-0.46,0.32-0.32,1.08,0.29,1.08c7.08,0,14.16,0,21.24,0c-0.2-0.2-0.38-0.38-0.58-0.58c0.61,8.43,0.46,17.51-1.94,25.65
				c-0.11,0.37,0.18,0.74,0.57,0.74c3.74,0,7.49,0,11.23,0C879.05,386.61,879.05,385.45,878.29,385.45z"/>
		</g>
		<g>
			<path class="st1" d="M836.95,272.66c0.26-7.32-0.24-15.55-3.22-22.31c-1.11-2.52-2.91-4.43-4.51-6.63
				c-2-2.78-3.81-5.72-5.31-8.81c-0.86-1.75-1.52-3.48-2.02-5.35c-0.42-1.56-1.31-3.03-2.07-4.44c-1.08-1.99-2.24-3.96-3.45-5.88
				c-0.59-0.95-1.16-1.94-1.94-2.74c0.12,0.13-0.37-0.36-0.49-0.49c-0.44-0.47-0.83-0.99-1.21-1.52
				c-3.92-5.55-5.83-12.51-7.19-19.08c-1.36-6.55-2.04-13.25-2.37-19.92c-0.11-2.04-0.16-4.07-0.03-6.12
				c0.51-8.35,3.07-17.21,9.24-23.15c0.94-0.9,1.94-1.71,3.01-2.44c0.53-0.36,1.07-0.7,1.62-1c0.25-0.15,1.54-0.74,1.27-0.86
				c1.31,0.58-0.73,5.37-1.08,6.24c-0.91,2.24-2.41,4.73-1.57,7.23c1.04,3.06,3.53,5.21,1.29,8.49c-1.31,1.91-2.64,4.29-0.61,6.28
				c2.1,2.06,5.26,0.57,7.36,2.62c2.69,2.64,1.58,6.62,2,9.99c0.47,3.8,1.83,7.62,4.56,10.39c2.49,2.53,6.04,3.28,8.73,5.56
				c1.98,1.67,3.63,3.92,3.88,6.57c0.26,2.85-0.16,6.03-0.9,8.78c-0.7,2.61-1.49,5.1-1.71,7.85c-0.13,1.54-0.22,3.56,0.94,4.76
				c0.51,0.54,1.34-0.28,0.83-0.83c-1.34-1.4-0.55-4.72-0.26-6.38c0.16-0.88,0.34-1.77,0.57-2.64c0.09-0.38,0.17-0.66,0.18-0.69
				c0.54-1.62,0.98-3.2,1.21-4.9c0.4-2.8,0.78-5.92-0.3-8.61c-1.29-3.22-4.35-5.92-7.49-7.32c-2.12-0.95-3.97-1.91-5.49-3.73
				c-1.45-1.73-2.4-3.82-2.98-5.99c-0.42-1.56-0.67-3.16-0.74-4.79c-0.05-1.23,0.16-2.44,0.07-3.67c-0.2-2.43-1.33-4.98-3.55-6.21
				c-2.11-1.17-7.34,0.05-6.75-3.85c0.25-1.66,1.81-2.77,2.35-4.32c0.42-1.21,0.34-2.45-0.07-3.65c-0.46-1.36-1.31-2.51-1.87-3.81
				c-0.58-1.36-0.25-2.66,0.25-4c1.02-2.69,2.85-5.62,2.62-8.6c-0.05-0.71-0.37-1.91-1.28-1.95c-0.9-0.04-2.48,1.21-3.19,1.67
				c-1.03,0.66-2,1.4-2.91,2.2c-1.79,1.57-3.34,3.41-4.63,5.42c-2.4,3.71-3.93,7.95-4.83,12.26c-1.44,6.91-1.03,13.78-0.36,20.75
				c0.92,9.45,2.56,19.26,6.78,27.87c0.91,1.85,1.95,3.67,3.26,5.26c0.75,0.91,1.25,1.29,1.83,2.16c2.24,3.38,4.67,7.05,6.12,10.85
				c0.53,1.4,0.82,2.85,1.42,4.23c1.23,2.85,2.74,5.56,4.42,8.16c1.74,2.69,4.09,5.04,5.62,7.83c1.21,2.2,1.91,4.67,2.45,7.11
				c0.96,4.47,1.31,9.08,1.34,13.66c0.01,0.8,0.01,1.62-0.03,2.43C835.75,273.42,836.92,273.42,836.95,272.66L836.95,272.66z"/>
		</g>
		<g>
			<path class="st1" d="M842.98,203.01c0.87-0.65,1.36-1.81,1.77-2.77c1.56-3.71,2.04-7.87,2.36-11.84c0.32-3.84,0.37-7.7,0.3-11.55
				c-0.04-2.14-0.51-3.93-1.29-5.95c-0.58-1.5-1.25-2.98-2.1-4.36c-0.94-1.53-2.29-2.78-2.86-4.51c-0.86-2.58-0.41-5.54,0.42-8.08
				c0.24-0.73,0.61-1.57,0.74-2.68c0.3-2.62-0.57-5.25-2.06-7.38c-1.37-1.96-3.3-3.43-4.65-5.42c-1.17-1.73-2.19-3.57-3.14-5.43
				c-4.56-8.93-8.06-18.43-11.37-27.89c-0.34-0.98-0.55-2.27-1.08-3.15c-0.45-0.74,0.12,0.65-0.37,0.32
				c0.01,0.01,0.37-0.22,0.42-0.24c1.11-0.26,2.1-0.59,3.26-0.7c2.65-0.21,5.35,0.04,7.98,0.42c3.73,0.55,7.61,1.27,11.13,2.68
				c3.03,1.21,5.84,2.95,8.43,4.93c4.58,3.51,8.54,7.83,12,12.43c7.32,9.73,12.84,20.77,16.88,32.22c4.93,14,7.79,28.7,8.85,43.5
				c0.26,3.68,0.18,7.26,0.05,10.94c-0.17,4.93-0.36,9.9-0.96,14.81c-0.16,1.31-0.22,2.94-0.88,4.1c-0.37,0.66,0.63,1.24,1,0.59
				c0.83-1.46,0.9-3.45,1.09-5.09c0.34-2.91,0.51-5.84,0.67-8.75c0.22-4.19,0.49-8.44,0.44-12.64c-0.05-4.79-0.66-9.65-1.28-14.4
				c-0.59-4.54-1.34-9.06-2.29-13.54c-1.62-7.66-3.78-15.23-6.54-22.56c-2.99-7.96-6.59-15.93-11.38-22.99
				c-4.36-6.45-8.79-12.67-14.77-17.79c-2.8-2.4-5.85-4.55-9.19-6.12c-3.9-1.83-8.21-2.72-12.45-3.38c-2.98-0.46-6.04-0.8-9.06-0.51
				c-1.19,0.12-2.57,0.26-3.63,0.88c-0.16,0.09-0.3,0.17-0.44,0.29c-0.15,0.12-0.21,0.4-0.15,0.57c1.74,5.22,3.65,10.4,5.66,15.55
				c1.62,4.17,3.32,8.29,5.21,12.35c1.57,3.38,3.2,6.82,5.41,9.84c1.09,1.5,2.54,2.65,3.69,4.1c1.62,2.04,2.7,4.6,2.43,7.24
				c-0.08,0.83-0.34,1.53-0.58,2.19c-0.59,1.65-0.94,3.43-1.02,5.17c-0.11,2.31,0.37,4.6,1.82,6.45c1.83,2.33,3.16,4.88,4.09,7.7
				c0.69,2.08,0.76,3.76,0.79,5.97c0.03,3.15-0.05,6.32-0.29,9.47c-0.3,3.85-0.75,7.9-2.19,11.51c-0.28,0.71-0.61,1.44-1.07,2.06
				c-0.05,0.07-0.55,0.58-0.33,0.41C841.81,202.44,842.39,203.45,842.98,203.01L842.98,203.01z"/>
		</g>
		<g>
			<path class="st1" d="M814.54,303.79c2.93-0.28,6.74-1.38,8.03-4.31c1.2-2.73,1.05-5.58,0.87-8.44
				c-0.53-8.03,7.56-13.29,13.11-17.48c2.76-2.08,5.52-4.17,8.28-6.25c1.65-1.25,3.14-2.65,4.97-3.65c1.24-0.69,3.41-1.74,4.4-0.16
				c0.73,1.17,0.62,2.95,0.57,4.29c-0.07,1.63-0.37,3.26-0.84,4.81c-0.67,2.23-1.95,4.14-2.72,6.33c-0.78,2.22-1.11,4.6-1.17,6.95
				c-0.09,3.63,0.95,7.05,1.12,10.64c0.16,3.22-0.69,7.78-3.31,9.66c-0.61,0.44-0.03,1.45,0.59,1c2.02-1.45,3.15-4.14,3.61-6.49
				c0.55-2.83,0.21-5.62-0.3-8.44c-0.59-3.2-0.75-6.51-0.22-9.74c0.42-2.56,1.45-4.5,2.48-6.79c1.05-2.35,1.74-4.88,1.91-7.45
				c0.12-1.87,0.28-4.9-1.42-6.21c-2.49-1.93-6.38,1.13-8.29,2.62c-1.71,1.34-3.19,2.54-5.14,4.02c-2.53,1.91-5.02,3.92-7.65,5.71
				c-4.3,2.95-8.45,6.78-10.31,11.77c-0.51,1.4-0.84,2.9-0.83,4.4c0,0.42,0.05,0.83,0.11,1.25c0.05,0.42,0.04,0.09,0.07,0.4
				c0.28,2.94-0.01,7.04-2.74,8.75c-1.49,0.94-3.39,1.46-5.14,1.63C813.81,302.7,813.81,303.86,814.54,303.79L814.54,303.79z"/>
		</g>
		<g>
			<path class="st1" d="M849.63,306.02c2.68,0.5,6.14,1.03,8.7-0.13c1.96-0.88,4.11-2.98,3.96-5.26c-0.15-2.23-1.48-4.39-2.6-6.25
				c-1.32-2.22-2.65-4.42-3.97-6.62c-0.79-1.32-2.39-3.3-2.45-4.9c-0.05-1.36,0.87-1.94,1.75-2.76c0.63-0.58,1.15-1.28,1.61-2
				c1.15-1.85,1.95-3.92,2.57-6c0.65-2.18,1.09-4.46,1.19-6.74c0.09-2.27-0.42-4.43-0.92-6.63c-0.4-1.73-0.92-3.39-1.62-5.01
				c-1.2-2.77-3.05-5.41-3.68-8.39c-0.55-2.64-0.03-5.75,2.12-7.48c1.07-0.86,2.2-1.04,3.52-0.76c0.87,0.18,1.66,0.34,2.52,0
				c0.91-0.37,1.61-1.24,1.81-2.2c0.12-0.54,0.09-1.04,0.33-1.57c0.69-1.52,2.29-2.25,3.84-2.58c1.28-0.28,2.61-0.24,3.92-0.4
				c1.52-0.17,3.02-0.34,4.54-0.53c2.51-0.29,5.06-0.45,7.56-0.87s6-1.63,8.31-0.04c2.28,1.58,1.37,5.16,0.41,7.17
				c-0.78,1.65-1.79,3.16-2.76,4.71c-3.97,6.34-6.94,13.17-9.07,20.34c-3.01,10.1-4.01,20.69-7.52,30.64
				c-3.15,8.94-8.48,16.61-15.84,22.61c-2.19,1.78-4.51,3.4-6.9,4.92c-0.63,0.4-0.05,1.41,0.59,1c8.41-5.34,15.7-12.18,20.27-21.15
				c4.43-8.7,6.09-18.31,8.04-27.78c1.94-9.4,4.87-18.68,9.65-27.03c1.63-2.86,3.72-5.58,4.97-8.64c1.42-3.48,0.74-7.96-3.55-8.56
				c-1.65-0.22-3.35-0.04-4.98,0.26c-0.82,0.15-1.53,0.36-1.99,0.41c-3.02,0.42-6.07,0.7-9.1,1.05c-2.7,0.32-5.99,0.18-8.48,1.25
				c-2.18,0.94-2.95,2.43-3.39,4.58c0.04-0.21-0.2,0.49-0.32,0.66c-0.86,1.25-2.2,0.58-3.41,0.44c-1.7-0.2-3.32,0.59-4.44,1.85
				c-0.42,0.46-0.71,0.84-1.11,1.61c-0.8,1.6-1.05,3.4-0.87,5.16c0.3,2.89,1.82,5.33,3.06,7.88c0.9,1.86,1.69,3.76,2.19,5.76
				c0.57,2.24,1.16,4.58,1.12,6.9c-0.04,2.58-0.61,5.18-1.41,7.63c-0.7,2.12-1.6,4.43-3.1,6.13c-1.27,1.44-2.85,2.22-2.6,4.43
				c0.18,1.67,1.46,3.3,2.31,4.71c1.21,2.03,2.44,4.06,3.65,6.09c1.2,2,3.3,4.75,3.05,7.26c-0.13,1.31-1.17,1.99-2.1,2.76
				c-1.52,1.27-3.2,1.4-5.14,1.34c-1.32-0.04-2.65-0.17-3.96-0.42C849.21,304.76,848.89,305.89,849.63,306.02L849.63,306.02z"/>
		</g>
		<g>
			<path class="st1" d="M785.25,307.71c0.91-0.99,2.28-1.66,3.49-2.22c4.06-1.85,8.68-2.43,13.09-2.53
				c7.27-0.17,14.38,1.45,21.64,1.58c3.55,0.07,7.49,0,10.81-1.45c0.96-0.42,2.24-1.09,2.61-2.16c-0.29,0.12-0.57,0.24-0.86,0.34
				c3.24,2.32-1.44,7.61-2.94,9.64c-1.27,1.7-3.14,4.09-2.16,6.26c-0.34-0.78-0.16-0.09,0.01,0.15c0.26,0.37,0.62,0.59,1.03,0.76
				c2.47,1.03,5.8,0.5,8.35,0.22c4.19-0.45,8.27-1.31,12.38-2.2c-0.24-0.24-0.47-0.47-0.71-0.71c-0.75,2.12-1.37,4.34-1.74,6.57
				c-0.28,1.63-0.9,5.41,1.56,5.76c-0.09-0.33-0.17-0.65-0.26-0.98c-1.62,1.95-3.05,4.11-4.25,6.36c-1.63,3.05-3.32,7.05-1.9,10.48
				c0.29,0.69,1.41,0.38,1.12-0.32c-1.4-3.35,0.47-7.28,2.11-10.19c1.08-1.93,2.32-3.81,3.73-5.51c0.25-0.29,0.22-0.9-0.26-0.98
				c-2.66-0.4,0.44-9.27,1-10.89c0.16-0.45-0.32-0.8-0.71-0.71c-3.28,0.71-6.54,1.44-9.89,1.9c-2.18,0.29-4.39,0.54-6.59,0.54
				c-1.07,0-2.23,0.01-3.26-0.33c-0.4-0.13-0.66-0.32-0.74-0.42c0.21,0.25-0.09-0.15-0.13-0.29c-0.08-0.36,0.2-1.4,0.49-2
				c1.2-2.52,3.35-4.4,4.73-6.8c1.25-2.16,2.02-5.59-0.38-7.32c-0.33-0.24-0.75,0.03-0.86,0.34c0.07-0.17-0.18,0.25-0.28,0.36
				c-0.46,0.49-1.11,0.83-1.73,1.09c-3.52,1.52-7.79,1.42-11.54,1.29c-11.14-0.42-22.76-3.67-33.52,0.91
				c-1.48,0.63-3.16,1.42-4.27,2.64C783.92,307.43,784.73,308.26,785.25,307.71L785.25,307.71z"/>
		</g>
		<g>
			<path class="st1" d="M952.86,287.55c0.59-3.77,0.7-7.67,0.55-11.48c-0.26-7-1.57-14.36-5.42-20.33c-2.32-3.6-5.56-6.42-9.49-8.12
				c-0.44-0.18-1.02,0.12-0.86,0.66c1.34,4.65,2.23,9.48,2.93,14.27c1.4,9.65,1.82,19.74-0.38,29.3c-0.17,0.73,0.95,1.04,1.12,0.32
				c2.19-9.52,1.82-19.49,0.5-29.09c-0.7-5.06-1.62-10.18-3.05-15.1c-0.29,0.22-0.57,0.44-0.86,0.66
				c13.15,5.66,15.11,22.27,14.23,34.85c-0.09,1.25-0.2,2.6-0.38,3.77C951.62,287.97,952.74,288.29,952.86,287.55L952.86,287.55z"/>
		</g>
		<g>
			<path class="st1" d="M922.97,313.63c-0.24-2.87,0.83-5.99,2.23-8.43c3.55-6.14,10.36-8.81,16.16-12.31
				c1.94-1.17,3.98-2.33,5.7-3.82c0.65-0.57,1.25-1.13,2.04-1.49c2.37-1.07,3.51,1.11,4,3.15c2,8.48-0.62,17-4.84,24.31
				c-0.37,0.65,0.63,1.24,1,0.59c4-6.95,6.33-14.44,5.39-22.52c-0.26-2.24-0.66-5.84-3.14-6.82c-1.46-0.58-3.02,0.13-4.19,1
				c-1.38,1.03-2.64,2.12-4.11,3.07c-2.86,1.85-5.83,3.53-8.79,5.19c-3.34,1.87-6.45,3.88-8.81,6.95
				c-2.32,3.02-4.14,7.23-3.81,11.13C921.86,314.37,923.02,314.38,922.97,313.63L922.97,313.63z"/>
		</g>
		<g>
			<path class="st1" d="M899.39,345.7c3.9-7.53,7.82-15.04,11.72-22.57c1.29-2.48,2.73-4.94,3.76-7.54c0.08-0.2-0.05-0.15,0.16-0.44
				c0.34-0.49,0.87-0.7,1.44-0.83c1.21-0.28,2.54-0.04,3.78,0c2.6,0.11,5.21,0.15,7.81,0.17c4.98,0.07,9.97,0.11,14.95,0.11
				c2.62,0,5.89,0.79,5.62,4.1c-0.26,3.09-2.57,6.22-4.35,8.69c-1.7,2.37-3.71,4.5-5.93,6.38c-5.85,4.97-12.93,8.64-19.76,12.02
				c-4.56,2.25-9.64,4.47-13.4,7.96c-1.41,1.31-3.51,2.7-5.51,1.98c-1.77-0.63-2.58-2.27-2.47-4.09
				C897.31,349.53,898.35,347.52,899.39,345.7c0.37-0.66-0.63-1.24-1-0.59c-1.48,2.58-3.28,6.2-1.93,9.2
				c0.59,1.33,1.86,2.32,3.27,2.68c2.1,0.51,4.36-0.63,5.87-2c2.45-2.23,5.29-3.85,8.2-5.43c12.01-6.49,25.51-11.81,33.03-23.9
				c1.52-2.44,3.64-5.67,2.81-8.7c-0.51-1.87-2.25-2.9-4.03-3.3c-2.94-0.65-6.25-0.24-9.22-0.25c-5.8-0.04-11.64,0.04-17.44-0.33
				c-2.24-0.15-4.34,0.01-5.18,2.25c0.22-0.58-0.16,0.26-0.2,0.33c-0.15,0.3-0.28,0.62-0.41,0.94c-0.08,0.18-0.16,0.37-0.25,0.54
				c-0.18,0.38-0.38,0.75-0.58,1.12c-4.52,8.7-9.03,17.39-13.55,26.09c-0.13,0.25-0.26,0.5-0.38,0.75
				C898.03,345.77,899.03,346.37,899.39,345.7L899.39,345.7z"/>
		</g>
		<g>
			<path class="st1" d="M899.47,345.41c-0.32-2.45-6.26,0.54-7.04,0.88c-0.69,0.3-0.09,1.31,0.59,1c1.48-0.65,3.16-1.45,4.8-1.6
				c0.12-0.01,0.61,0.04,0.62,0.03c-0.03,0.03-0.11-0.13-0.13-0.32C898.39,346.14,899.56,346.14,899.47,345.41L899.47,345.41z"/>
		</g>
		<g>
			<path class="st1" d="M905.56,353.75c0.05,1.07-0.17,2.22-0.59,3.19c-1.13,2.64-3.69,3.56-6.39,3.56c-0.75,0-0.75,1.16,0,1.16
				c2.93,0,5.78-0.99,7.2-3.71c0.66-1.25,1.04-2.8,0.96-4.22C906.7,353.01,905.52,353,905.56,353.75L905.56,353.75z"/>
		</g>
		<g>
			<path class="st1" d="M851.86,351.97c0.57-0.49,2.11-1,3.09-1.23c3.85-0.87,8-0.37,11.83,0.41c4.79,0.96,9.23,2.25,14.16,1.58
				c3.09-0.42,6.12-1.46,8.73-3.18c1.34-0.88,2.51-1.69,3.09-3.19c-0.36,0.05-0.71,0.09-1.07,0.15c1.27,1.69,1.29,3.59,0.83,5.56
				c-0.44,1.85-0.13,3.84,0.7,5.54c0.79,1.63,2.04,2.9,3.8,3.43c1.23,0.37,2.9,0.79,4.19,0.4c-0.24-0.24-0.47-0.47-0.71-0.71
				c-0.65,2.12-1.93,4.38-3.76,5.68c-1.6,1.13-3.67,1.07-5.47,1.67c-1.96,0.66-3.8,1.65-5.46,2.87c-3.03,2.23-5.16,5.19-7.73,7.88
				c-2.86,2.98-6.2,4.63-10.4,4.38c-0.75-0.04-0.75,1.12,0,1.16c4.05,0.24,7.54-1.16,10.46-3.96c2.99-2.86,5.21-6.33,8.64-8.74
				c1.98-1.4,4.18-2.44,6.55-2.97c1.75-0.38,3.23-0.59,4.64-1.81c1.73-1.48,2.98-3.71,3.65-5.88c0.13-0.42-0.3-0.84-0.71-0.71
				c-1.24,0.38-3.24-0.12-4.34-0.67c-1.75-0.88-2.72-2.98-2.98-4.84c-0.26-1.9,0.66-3.6,0.44-5.48c-0.13-1.19-0.58-2.43-1.29-3.39
				c-0.32-0.42-0.87-0.36-1.07,0.15c-0.09,0.24-0.16,0.51-0.28,0.73c0.01-0.01,0.17-0.25,0.08-0.13c-0.11,0.15-0.26,0.28-0.4,0.4
				c-0.65,0.57-1.32,1.09-2.03,1.56c-2.74,1.78-5.93,2.8-9.19,3.09c-5.34,0.47-10.23-1.38-15.45-2.14
				c-3.23-0.46-6.62-0.66-9.82,0.09c-1.19,0.28-2.56,0.69-3.49,1.5C850.46,351.64,851.29,352.47,851.86,351.97L851.86,351.97z"/>
		</g>
		<g>
			<path class="st1" d="M871.95,409.22c4.34,0.61,8.68,1.21,13.01,1.83c1.66,0.24,3.34,0.57,5,0.7c0.87,0.07,1.95-0.17,2.76,0.22
				c0.98,0.47,0.83,1.67,0.5,2.57c-0.42,1.12-1.5,1.58-2.02,2.58c-0.95,1.83,0.82,3.93,2.15,5.05c0.78,0.66,2.06,1.48,2.2,2.52
				c0.2,1.41-1.38,2.08-2.48,2.47c-2.15,0.76-4.42,1.25-6.62,1.86c-3.02,0.83-6.05,1.67-9.07,2.52c-4.67,1.29-9.34,2.6-14,3.89
				c-0.73,0.2-0.41,1.33,0.32,1.12c4.34-1.21,8.68-2.41,13.03-3.61c3.22-0.9,6.42-1.78,9.64-2.68c2.4-0.66,4.92-1.19,7.25-2.06
				c1.79-0.67,3.81-2.14,2.99-4.32c-0.83-2.2-4.11-2.82-4.44-5.41c-0.15-1.11,0.98-1.57,1.54-2.37c0.55-0.78,0.88-1.71,0.92-2.68
				c0.05-1.41-0.47-2.32-1.87-2.66c-0.61-0.15-1.27-0.18-1.9-0.18c-0.37,0-0.58,0.03-0.63,0.03c-0.7-0.04-1.42-0.2-2.11-0.3
				c-5.27-0.74-10.56-1.48-15.84-2.23C871.53,408,871.21,409.12,871.95,409.22L871.95,409.22z"/>
		</g>
		<g>
			<path class="st1" d="M975.24,378.49c2.16-3.9,3.48-8.44,4.34-12.78c1.95-9.81,1.08-19.94-2.7-29.21
				c-0.24-0.58-1.13-0.55-1.15,0.16c-0.13,9.24-3.2,19.04-7.98,26.87c-2.37,3.9-5.33,7.4-8.81,10.36c-0.57,0.49,0.25,1.31,0.83,0.83
				c10.13-8.65,15.49-21.76,16.89-34.81c0.12-1.08,0.22-2.18,0.24-3.26c-0.38,0.05-0.76,0.11-1.15,0.16
				c3.76,9.2,4.64,19.25,2.62,28.97c-0.86,4.11-2.1,8.41-4.15,12.12C973.87,378.55,974.89,379.13,975.24,378.49L975.24,378.49z"/>
		</g>
		<g>
			<path class="st1" d="M944.55,388.61c2.54-3.69,5.96-6.92,9.35-9.81c3.74-3.2,7.83-6.01,12.13-8.43c1.66-0.92,3.31-1.74,5.23-1.89
				c4.1-0.32,3.56,3.64,3.06,6.55c-0.5,2.95-1,5.91-1.56,8.85c-0.32,1.74-0.9,3.74-1.96,5.55c-4.01,6.82-11.93,9.82-19.37,11.01
				c-0.74,0.12-0.42,1.24,0.32,1.12c7.27-1.16,14.75-4.01,19.18-10.18c1.11-1.54,1.99-3.27,2.52-5.09c0.13-0.44,0.22-0.88,0.3-1.33
				c0.09-0.53-0.01,0,0.08-0.44c0.55-2.98,1.07-5.95,1.57-8.94c0.44-2.6,1.42-6.76-1.82-8.02c-1.83-0.71-4.06-0.12-5.81,0.57
				c-3.84,1.52-7.48,4.21-10.77,6.66c-4.96,3.69-9.94,8.06-13.48,13.19C943.13,388.64,944.13,389.23,944.55,388.61L944.55,388.61z"
				/>
		</g>
		<g>
			<path class="st1" d="M893.47,415.66c1.17,0.22,2.47,0.05,3.63-0.14c3.67-0.59,7.17-2.1,10.44-3.8
				c6.45-3.36,12.29-7.86,17.73-12.64c4.18-3.67,7.98-8.24,12.86-11.04c2.29-1.32,5.8-2.19,6.1,1.5c0.15,1.66-0.4,3.12-0.75,4.71
				c-0.83,3.6,1.29,6.84,5,7.29c1.32,0.16,3.22-0.34,4.32,0.61c0.8,0.69,0.69,1.87,0.49,2.8c-0.41,1.93-1.42,3.72-2.45,5.38
				c-1.31,2.1-2.33,4.4-4.07,6.37c-1.92,2.18-4.23,3.98-6.82,5.29c-3.88,1.96-8.04,2.37-12.3,2.83c-8.7,0.94-17.84,2.12-26.57,0.78
				c-1.62-0.25-3.22-0.62-4.76-1.16c-0.71-0.25-1.02,0.88-0.32,1.12c7.71,2.66,16.53,1.82,24.48,1.13
				c8.12-0.71,16.86-0.79,23.61-5.95c3.15-2.4,5.63-5.52,7.3-9.1c0.24-0.5,0.03-0.11,0.26-0.49c0.42-0.67,0.83-1.36,1.2-2.06
				c0.92-1.77,2-4.01,1.65-6.07c-0.46-2.6-2.99-2.54-5.09-2.6c-2.73-0.07-4.81-1.5-4.94-4.34c-0.15-3.07,2.37-6.67-0.16-9.39
				c-1.74-1.86-4.46-0.95-6.38,0.08c-2.51,1.34-4.75,3.24-6.8,5.18c-5.35,5.01-10.68,9.99-16.73,14.17
				c-4.44,3.07-9.23,5.89-14.44,7.48c-1.99,0.61-4.01,1-6.09,0.91c-0.24-0.01,0.04,0.01-0.12-0.01
				C893.05,414.39,892.73,415.51,893.47,415.66L893.47,415.66z"/>
		</g>
		<g>
			<path class="st1" d="M840.06,451.27c6.76,1.46,13.51,3.02,20.25,4.61c11.1,2.64,22.27,5.27,33.12,8.82
				c2.02,0.66,4.03,1.33,5.96,2.22c0.69,0.32,2.28,1,2.44,1.54c0.13-0.24,0.28-0.47,0.41-0.71c-3.05,0.96-5.13,4.13-6.14,6.97
				c-0.71,2,0.04,3.82-2.24,4.76c-1.7,0.7-3.57-0.11-5.22-0.59c-1.74-0.51-3.49-0.98-5.27-1.36c-4.68-1.02-9.48-1.57-14.27-1.56
				c-5.63,0.01-11.27,0.79-16.88,1.34c-3.4,0.33-6.79,0.69-10.18,1.03c-3.52,0.37-7.11,0.4-10.64,0.38
				c-4.01-0.03-8.04-0.2-12.02-0.76c-3.38-0.49-7.04-1.19-9.92-3.14c-0.62-0.42-1.2,0.58-0.59,1c2.44,1.66,5.45,2.41,8.31,2.94
				c3.49,0.65,7.05,0.92,10.61,1.04c4.54,0.16,9.15,0.14,13.67-0.25c7.67-0.67,15.31-1.66,22.98-2.25
				c5.45-0.42,10.93-0.12,16.3,0.86c1.96,0.36,3.9,0.8,5.83,1.32c1.63,0.45,3.3,1.15,5,1.33c1.99,0.22,4.75-0.65,5.14-2.94
				c0.08-0.46,0.01-0.95,0.11-1.42c0.26-1.38,0.87-2.72,1.6-3.92c0.92-1.52,2.39-3.14,4.14-3.69c0.3-0.09,0.5-0.41,0.41-0.71
				c-0.24-0.83-1.19-1.33-1.89-1.7c-1.41-0.76-2.95-1.33-4.46-1.87c-4.84-1.74-9.81-3.12-14.77-4.46
				c-11.14-3.02-22.38-5.67-33.64-8.21c-2.6-0.59-5.21-1.17-7.82-1.74C839.64,449.99,839.33,451.11,840.06,451.27L840.06,451.27z"/>
		</g>
		<g>
			<path class="st1" d="M917.24,512.74c1.83,1.05,3.77,2.86,4.23,4.98c0.58,2.7-1.62,5.66-3.1,7.73c-1.5,2.1-3.11,3.89-4.38,6.14
				c-2.78,4.94-4.76,10.39-5.79,15.95c-0.73,3.9-0.67,7.75-0.92,11.7c-0.18,3.01-0.69,6.14-2.02,8.87c-0.9,1.85-2.6,4.26-4.85,4.56
				c-0.67,0.09-0.47,1.12,0.16,1.15c4.23,0.16,8.65-2.51,11.75-5.09c8.89-7.4,12.84-19.05,15.81-29.82
				c2.19-7.94,3.3-16.48,1.96-24.66c-0.12-0.74-1.24-0.42-1.12,0.32c1.24,7.57,0.25,15.45-1.63,22.84
				c-1.38,5.38-3.02,10.77-5.33,15.82c-3.49,7.66-9.01,15.8-17.36,18.63c-1.27,0.44-2.7,0.83-4.06,0.78
				c0.05,0.38,0.11,0.76,0.16,1.15c1.87-0.26,3.53-1.95,4.55-3.4c3.84-5.49,2.86-12.5,3.49-18.76c0.69-6.72,2.82-13.34,6.1-19.25
				c0.57-1.02,1.15-2.07,1.85-2.99c0.7-0.94,2.36-2.9,3.27-4.25c1.61-2.4,3.48-5.45,2.39-8.43c-0.76-2.11-2.64-3.88-4.55-4.98
				C917.18,511.35,916.58,512.36,917.24,512.74L917.24,512.74z"/>
		</g>
		<g>
			<path class="st1" d="M898.94,471.55c0.37-0.01,0.79,0.11,1.36,0.28c1.52,0.47,2.93,1.31,4.25,2.2
				c6.61,4.5,11.64,11.39,16.02,17.96c4.8,7.2,8.94,14.81,12.78,22.55c0.22-0.29,0.44-0.57,0.66-0.86
				c-6.61-0.94-13.21-1.87-19.83-2.81c-2.66-0.37-4.76-1.62-6.2-4c-1.89-3.11-2.33-7.07-3.44-10.5c-0.63-1.94-1.28-3.94-2.18-5.79
				c-0.55-1.13-1.53-2.07-2.23-3.11c-1.87-2.77-3.71-6.1-3.43-9.56c0.07-0.75-1.11-0.74-1.16,0c-0.24,2.95,1,5.83,2.45,8.33
				c0.95,1.65,2.23,3.03,3.24,4.61c-0.12-0.17,0.22,0.54,0.29,0.73c0.47,1.11,0.88,2.23,1.28,3.36c1.24,3.51,1.83,7.29,3.26,10.72
				c1.33,3.2,4.06,5.84,7.3,6.28c2.73,0.37,6.22,0.88,9.2,1.31c3.71,0.53,7.41,1.05,11.12,1.57c0.5,0.07,0.9-0.37,0.66-0.86
				c-5.91-11.91-12.5-23.97-21.45-33.9c-3.27-3.63-7.2-7.54-11.92-9.22c-0.63-0.22-1.36-0.46-2.04-0.45
				C898.19,470.4,898.19,471.56,898.94,471.55L898.94,471.55z"/>
		</g>
		<g>
			<path class="st1" d="M796.82,493.18c5.37,0.71,11.97,1.85,17.68,2.91c11.22,2.11,22.45,4.6,33.25,8.35
				c5.08,1.77,10.26,3.81,14.65,6.96c0.09-0.36,0.2-0.73,0.29-1.08c-2.9-0.21-5.37,2.02-6.39,4.55c-1.19,2.94-0.42,6.43-2.27,9.14
				c-1.5,2.23-4.29,2.85-6.8,3.15c-8.37,0.99-17.05,0-25.04-2.6c-4.1-1.33-8.99-2.98-12-6.22c-2.43-2.61-3.64-6.17-6.38-8.53
				c-6.24-5.35-15.41-1.89-22.51-4.96c-0.69-0.29-1.28,0.71-0.59,1c3.2,1.38,6.65,1.6,10.09,1.74c3.67,0.15,7.63,0.16,10.88,2.1
				c3.36,2.02,4.69,5.84,7.08,8.77c2.52,3.09,6.34,4.69,9.95,6.09c8.06,3.12,16.78,4.48,25.41,4.01c4.94-0.28,10.52-0.95,12.02-6.5
				c0.87-3.2,0.18-7.04,3.09-9.4c0.94-0.76,2.24-1.28,3.47-1.19c0.63,0.04,0.71-0.78,0.29-1.08c-3.84-2.76-8.28-4.64-12.68-6.28
				c-5.5-2.04-11.15-3.67-16.82-5.09c-9.98-2.52-20.12-4.47-30.29-6.08c-2.12-0.33-4.25-0.66-6.37-0.95
				C796.07,491.92,796.09,493.09,796.82,493.18L796.82,493.18z"/>
		</g>
		<g>
			<path class="st1" d="M856.22,562.78c-2.64,5.08-5.93,9.89-9.4,14.44c-6.86,8.99-15.2,17.48-25.45,22.53
				c-6.17,3.05-12.97,4.55-19.84,3.88c0.09,0.36,0.2,0.73,0.29,1.08c2.95-1.31,6.01-3.6,7.48-6.53c1.02-2.03,1.49-4.32,2.45-6.39
				c1.23-2.61,2.83-5.02,4.85-7.08c2.97-3.02,6.72-5.43,10.13-7.94c3.67-2.7,7.37-5.38,11.14-7.94c1.75-1.19,3.52-2.35,5.34-3.41
				c0.94-0.54,2.19-1.45,3.31-1.52c0.75-0.04,0.75-1.21,0-1.16c-0.94,0.05-1.85,0.57-2.66,0.99c-1.49,0.78-2.91,1.69-4.32,2.61
				c-3.85,2.51-7.59,5.19-11.3,7.9c-3.12,2.28-6.25,4.59-9.34,6.94c-4.46,3.39-7.5,7.85-9.41,13.08c-0.45,1.23-0.75,2.54-1.38,3.69
				c-0.67,1.23-1.66,2.27-2.73,3.16c-1.24,1.04-2.66,1.95-4.14,2.61c-0.58,0.26-0.21,1.04,0.29,1.08
				c12.24,1.2,23.55-4.48,32.63-12.25c7.81-6.68,14.33-14.89,19.79-23.58c1.15-1.83,2.28-3.68,3.28-5.6
				C857.58,562.7,856.58,562.1,856.22,562.78L856.22,562.78z"/>
		</g>
		<g>
			<path class="st1" d="M865.31,521.82c2.04,3.4,2.86,7.78,3.07,11.68c0.22,4.29-0.4,8.56-1.73,12.63
				c-0.87,2.65-2.02,5.19-3.38,7.63c-1.53,2.7-3.3,5.6-5.43,7.88c-0.88,0.94-3.15,1.41-4.68,1.52c-1,0.07-2.02,0.05-3.02,0
				c-1.56-0.09-3.49-0.11-4.96-0.65c0.01,0-0.61-0.38-0.82-0.59c-2.24-2.36,0.44-6.37,1.89-8.36c3.1-4.26,7.08-7.81,10.28-11.99
				c0.99-1.28,1.86-2.65,2.37-4.19c0.61-1.79,0.41-3.61,0.75-5.43c0.75-3.88,3.6-7.49,6.55-10.01c0.57-0.49-0.25-1.31-0.83-0.83
				c-2.65,2.25-5.02,5.29-6.28,8.54c-0.79,2.07-0.58,4.13-1.02,6.25c-0.33,1.54-1.03,2.93-1.94,4.22
				c-3.12,4.46-7.34,8.07-10.61,12.42c-1.79,2.39-4.39,6.37-2.57,9.44c1.29,2.19,4.01,2.07,6.26,2.27c2.78,0.25,6.62,0.44,8.99-1.41
				c0.86-0.66,1.46-1.66,2.11-2.51c1.99-2.64,3.77-5.46,5.22-8.43c2.2-4.52,3.63-9.4,3.96-14.42c0.36-5.33-0.4-11.56-3.2-16.24
				C865.93,520.58,864.92,521.18,865.31,521.82z"/>
		</g>
		<g>
			<path class="st1" d="M867.63,524.01l-1.13-0.25c0.69-3.12-0.37-5.91-3.12-8.28c-2.12-1.82-4.51-2.7-4.54-2.7l0.4-1.09
				C859.33,511.72,869.5,515.51,867.63,524.01z"/>
		</g>
		<g>
			<path class="st1" d="M851.66,526.16c-0.18,4.26,4.47,5.3,7.79,4.83c0.74-0.11,0.42-1.23-0.32-1.12
				c-2.61,0.38-6.47-0.26-6.33-3.71C852.86,525.41,851.69,525.41,851.66,526.16L851.66,526.16z"/>
		</g>
		<g>
			<path class="st1" d="M591.43,271.77c-0.09-2.8,0.01-5.6,0.24-8.39c0.4-4.96,1.09-10.38,3.53-14.81c1.53-2.8,3.89-5.16,5.62-7.83
				c1.67-2.6,3.2-5.31,4.42-8.16c0.59-1.38,0.88-2.85,1.42-4.23c0.74-1.94,1.86-3.77,2.89-5.56c1.03-1.79,2.08-3.57,3.23-5.29
				c0.42-0.63,0.53-0.76,0.91-1.15c0.92-0.91,1.7-1.96,2.4-3.06c4.1-6.42,6.03-14.25,7.3-21.66c2.68-15.45,4.64-36.25-8.54-47.86
				c-0.91-0.8-1.9-1.54-2.91-2.2c-0.71-0.46-2.31-1.71-3.19-1.67c-0.91,0.04-1.23,1.25-1.28,1.95c-0.22,2.98,1.61,5.91,2.62,8.6
				c0.5,1.32,0.83,2.62,0.25,4c-0.55,1.31-1.41,2.45-1.87,3.81c-0.41,1.2-0.47,2.44-0.07,3.65c0.54,1.56,2.1,2.68,2.35,4.32
				c0.59,3.89-4.63,2.68-6.75,3.85c-2.22,1.23-3.34,3.77-3.55,6.21c-0.11,1.21,0.12,2.44,0.07,3.67c-0.17,3.8-1.24,7.82-3.72,10.77
				c-2.4,2.86-6.08,3.64-8.93,5.92c-1.71,1.37-3.22,3.09-4.05,5.14c-1.08,2.69-0.7,5.81-0.3,8.61c0.44,3.15,1.42,5.26,1.95,8.23
				c0.3,1.66,1.08,4.98-0.26,6.38c-0.51,0.54,0.3,1.37,0.83,0.83c1.23-1.28,1.05-3.47,0.9-5.09c-0.17-1.79-0.49-3.63-0.99-5.37
				c-1.05-3.65-2.19-7.67-1.52-11.54c0.66-3.76,4.1-6.86,7.46-8.36c3.98-1.78,6.78-4.35,8.37-8.49c0.99-2.57,1.53-5.5,1.42-8.25
				c-0.11-2.56-0.04-5.26,2.1-7.07c2.15-1.82,5.34-0.33,7.3-2.61c1.74-2.02,0.42-4.21-0.83-6.04c-1.11-1.62-1.23-3.23-0.45-5.02
				c0.55-1.28,1.49-2.44,1.85-3.8c0.65-2.47-0.88-4.93-1.77-7.12c-0.58-1.44-1.24-3.06-1.29-4.63c-0.01-0.4,0.16-1.34,0.26-1.36
				c-0.13,0.01,1.16,0.76,1.31,0.84c0.55,0.32,1.09,0.65,1.62,1c1.17,0.79,2.25,1.7,3.26,2.69c1.69,1.67,3.1,3.59,4.27,5.66
				c2.15,3.8,3.45,8.04,4.17,12.34c1.21,7.29,0.49,14.82-0.41,22.1c-1.05,8.61-2.81,17.68-7.03,25.37
				c-1.63,2.98-3.68,4.84-5.38,7.57c-1.17,1.9-2.31,3.82-3.38,5.79c-0.76,1.41-1.62,2.87-2.03,4.43c-1.34,5.08-4.25,9.8-7.3,14.03
				c-1.67,2.31-3.52,4.3-4.64,6.95c-0.92,2.2-1.53,4.52-1.96,6.87c-0.79,4.25-1.11,8.6-1.13,12.91c0,0.74,0,1.48,0.03,2.22
				C590.29,272.52,591.45,272.52,591.43,271.77L591.43,271.77z"/>
		</g>
		<g>
			<path class="st1" d="M584.81,201.09c0.28,0.21-0.24-0.29-0.21-0.26c-0.36-0.5-0.66-1.03-0.91-1.58
				c-1.24-2.69-1.74-5.76-2.11-8.68c-0.33-2.6-0.5-5.21-0.58-7.82c-0.09-2.81-0.44-6,0.05-8.77c0.37-2.12,1.29-4.3,2.25-6.2
				c1.21-2.39,3.35-4.27,4.01-6.91c0.76-3.01,0.03-6.34-0.91-9.03c-0.53-1.53-0.54-3.18-0.13-4.73c0.75-2.9,2.77-4.73,4.71-6.86
				c2.2-2.4,3.73-5.47,5.18-8.36c1.99-4,3.74-8.11,5.41-12.25c2.47-6.12,4.76-12.31,6.86-18.56c0.07-0.17,0-0.45-0.15-0.57
				c-1.98-1.58-5.64-1.33-7.95-1.21c-7.91,0.4-16.02,2.31-22.63,6.82c-7.75,5.3-13.32,12.64-18.49,20.32
				c-4.06,6.03-7.33,12.54-10.11,19.25c-6.34,15.32-9.99,31.72-11.42,48.23c-0.44,5.04-0.41,9.86-0.22,14.89
				c0.21,5.43,0.24,11.1,1.36,16.44c0.13,0.63,0.29,1.29,0.61,1.87c0.37,0.66,1.37,0.07,1-0.59c-0.7-1.24-0.75-2.99-0.91-4.36
				c-0.29-2.41-0.45-4.84-0.59-7.25c-0.25-4.34-0.41-8.69-0.5-13.04c-0.13-6.07,0.75-12.29,1.62-18.29
				c1.08-7.34,2.62-14.62,4.67-21.76c2.8-9.72,6.49-19.22,11.37-28.08c1.61-2.91,3.43-5.67,5.23-8.46
				c5.75-8.87,13.73-17.98,23.83-21.85c3.55-1.36,7.45-2.07,11.19-2.6c2.56-0.36,5.18-0.58,7.77-0.34c1.09,0.11,2.04,0.46,3.1,0.7
				c0.04,0.01,0.34,0.22,0.36,0.21c-0.13,0.09-0.09-0.63-0.28-0.57c-0.04,0.01-0.09,0.28-0.11,0.32c-0.53,0.95-0.76,2.24-1.13,3.27
				c-0.67,1.93-1.37,3.84-2.07,5.75c-1.87,5.08-3.84,10.14-6.01,15.1c-1.87,4.26-3.81,8.64-6.47,12.47
				c-1.41,2.04-3.43,3.52-4.79,5.62c-1.36,2.11-2.11,4.64-1.78,7.15c0.16,1.19,0.5,1.85,0.76,2.7c0.82,2.6,1.24,5.67,0.24,8.27
				c-0.61,1.56-1.87,2.73-2.74,4.14c-0.87,1.44-1.57,2.97-2.16,4.54c-0.83,2.22-1.2,4-1.23,6.34c-0.09,6.2,0.05,12.57,1.41,18.64
				c0.47,2.12,1.08,4.54,2.44,6.3c0.18,0.24,0.36,0.45,0.59,0.63C584.82,202.55,585.4,201.54,584.81,201.09L584.81,201.09z"/>
		</g>
		<g>
			<path class="st1" d="M612.65,301.72c-1.5-0.15-3.09-0.57-4.43-1.24c-2.98-1.49-3.49-4.77-3.49-7.86c0-1.57,0.36-3.19,0.01-5.06
				c-1.53-8.45-9.84-13.16-16.15-17.92c-1.52-1.15-3.03-2.29-4.56-3.44c-0.45-0.34-0.91-0.67-1.36-1.03c-0.37-0.29,0,0-0.36-0.3
				c-2.08-1.79-4.94-4.32-7.86-4.27c-4.81,0.08-3.14,8.5-2.35,11.21c0.71,2.45,2.15,4.55,2.91,6.96c0.84,2.66,1.09,5.5,0.96,8.28
				c-0.17,3.74-1.41,7.36-1.05,11.13c0.28,2.87,1.36,6.34,3.84,8.11c0.61,0.44,1.19-0.57,0.59-1c-2-1.44-3.11-4.92-3.3-7.5
				c-0.22-3.23,0.73-6.3,1-9.49c0.22-2.54,0.13-5.13-0.37-7.63c-0.44-2.18-1.31-3.94-2.24-5.89c-1.16-2.44-1.91-5.16-2.02-7.87
				c-0.07-1.82-0.21-5.45,2.51-5.08c2.65,0.37,4.88,2.57,6.88,4.18c2.16,1.74,4.44,3.35,6.66,5.02c6.05,4.56,14.42,9.32,15.24,17.65
				c0.08,0.76,0.03,1.49-0.07,2.24c-0.21,1.81-0.09,3.68,0.29,5.46c0.58,2.7,1.86,4.4,4.42,5.46c1.36,0.57,2.82,0.92,4.29,1.07
				C613.41,302.96,613.41,301.8,612.65,301.72L612.65,301.72z"/>
		</g>
		<g>
			<path class="st1" d="M577.27,303.99c-2.98,0.57-6.7,1.07-9.16-0.99c-0.94-0.78-1.95-1.48-2.03-2.81
				c-0.16-2.58,1.95-5.31,3.19-7.38c1.61-2.68,3.2-5.35,4.81-8.03c0.5-0.83,0.94-1.67,1-2.68c0.15-2.2-1.48-2.93-2.7-4.39
				c-2.95-3.49-4.34-9.18-4.4-13.66c-0.08-4.36,1.53-8.99,3.41-12.87c1.99-4.07,4.36-8.46,2.04-12.95c-0.44-0.83-0.66-1.11-1.2-1.66
				c-1.24-1.29-2.94-1.96-4.72-1.63c-1.05,0.2-2.16,0.59-2.94-0.42c-0.16-0.2-0.26-0.44-0.33-0.66c-0.08-0.24-0.04-0.11-0.03-0.09
				c-0.15-0.71-0.17-1.34-0.51-2.03c-1.49-2.91-4.89-3.12-7.75-3.38c-2.99-0.25-5.99-0.69-8.97-1.04c-1.25-0.15-2.53-0.25-3.78-0.44
				c-0.42-0.07-0.08,0-0.33-0.07c-0.58-0.12-1.15-0.26-1.73-0.37c-3.06-0.54-7.23-0.92-8.65,2.51c-1.65,4.01,1.23,7.99,3.27,11.25
				c4.15,6.62,7.21,13.71,9.37,21.21c2.97,10.3,3.96,21.08,7.77,31.16c3.3,8.7,8.7,16.15,15.97,21.98c2.16,1.74,4.44,3.32,6.78,4.81
				c0.63,0.41,1.23-0.61,0.59-1c-8.48-5.38-15.72-12.3-20.17-21.4c-4.36-8.89-5.8-18.66-7.88-28.23c-1.94-8.93-4.83-17.73-9.35-25.7
				c-1.58-2.77-3.56-5.39-4.87-8.31c-0.87-1.95-1.52-5.29,0.61-6.75c1.49-1.03,3.81-0.75,5.5-0.51c1.82,0.25,3.59,0.65,5.42,0.86
				c3.19,0.37,6.38,0.74,9.57,1.11c2.68,0.3,6.43,0.08,7.7,3.06c0.62,1.44,0.26,2.94,2.11,3.68c0.86,0.34,1.65,0.17,2.52,0
				c1.41-0.26,2.58-0.07,3.68,0.9c0.54,0.47,0.94,0.99,1.27,1.6c2.68,4.84-1.09,9.78-2.98,14.15c-1.52,3.52-2.69,7.78-2.54,11.64
				c0.17,4.38,1.46,9.18,3.85,12.88c1,1.56,3.45,2.87,3.24,4.85c-0.09,0.82-0.5,1.48-0.92,2.16c-1.9,3.11-3.77,6.25-5.63,9.39
				c-1.52,2.57-3.85,6.46-1.25,9.1c0.76,0.78,1.78,1.7,2.78,2.15c1.65,0.74,3.68,0.67,5.43,0.54c1.09-0.08,2.19-0.21,3.27-0.41
				C578.31,304.98,578,303.86,577.27,303.99L577.27,303.99z"/>
		</g>
		<g>
			<path class="st1" d="M642.8,305.98c-0.88-0.95-2.15-1.63-3.3-2.19c-3.49-1.7-7.4-2.44-11.25-2.74
				c-7.08-0.58-13.95,0.79-20.98,1.28c-4.23,0.29-8.89,0.5-12.99-0.87c-0.86-0.29-1.74-0.66-2.41-1.28
				c-0.2-0.17-0.45-0.59-0.41-0.46c-0.11-0.33-0.53-0.58-0.86-0.34c-1.86,1.33-1.85,3.93-1.09,5.85c1,2.6,3.14,4.51,4.61,6.83
				c0.61,0.95,1.45,2.19,1.33,3.39c-0.04,0.37-0.09,0.44-0.54,0.63c-2.29,1.03-5.63,0.44-8,0.18c-4.09-0.44-8.06-1.28-12.06-2.16
				c-0.41-0.09-0.87,0.28-0.71,0.71c0.57,1.61,3.67,10.5,1,10.89c-0.47,0.07-0.5,0.67-0.26,0.98c1.41,1.7,2.65,3.59,3.73,5.51
				c1.64,2.93,3.51,6.84,2.11,10.19c-0.29,0.69,0.84,0.99,1.12,0.32c1.44-3.43-0.26-7.44-1.9-10.48c-1.2-2.24-2.62-4.4-4.25-6.36
				c-0.09,0.33-0.17,0.65-0.26,0.98c2.44-0.37,1.82-4.13,1.56-5.76c-0.37-2.23-0.99-4.43-1.74-6.57c-0.24,0.24-0.47,0.47-0.71,0.71
				c3.36,0.74,6.7,1.46,10.13,1.93c3.15,0.42,6.96,1.12,10.11,0.21c0.96-0.28,1.31-0.63,1.67-1.45c-0.38,0.86,0.17-0.21,0.2-0.59
				c0.08-1.23-0.7-2.53-1.31-3.52c-1.66-2.73-4.77-5.14-5.13-8.48c-0.12-1.05,0.34-2.45,0.99-2.93c-0.29-0.12-0.57-0.24-0.86-0.34
				c0.29,0.83,1.17,1.42,1.9,1.82c2.74,1.5,6.2,1.71,9.24,1.79c11.95,0.29,24.14-3.93,35.8,0.46c1.61,0.61,3.51,1.41,4.71,2.72
				C642.48,307.35,643.3,306.54,642.8,305.98L642.8,305.98z"/>
		</g>
		<g>
			<path class="st1" d="M475.48,286.34c-0.54-3.4-0.63-7.12-0.53-10.63c0.2-6.82,1.38-14,5.04-19.9c2.24-3.61,5.42-6.41,9.34-8.1
				c-0.29-0.22-0.57-0.44-0.86-0.66c-1.42,4.92-2.35,10.03-3.05,15.1c-1.32,9.61-1.7,19.58,0.5,29.09c0.17,0.73,1.29,0.42,1.12-0.32
				c-2.2-9.57-1.77-19.65-0.38-29.3c0.69-4.79,1.58-9.61,2.93-14.27c0.16-0.54-0.42-0.84-0.86-0.66
				c-13.49,5.8-15.7,22.81-14.81,35.76c0.09,1.4,0.22,2.8,0.44,4.18C474.47,287.38,475.6,287.07,475.48,286.34L475.48,286.34z"/>
		</g>
		<g>
			<path class="st1" d="M505.42,312.73c0.26-3.18-0.96-6.63-2.57-9.31c-3.88-6.43-11.15-9.2-17.29-12.97
				c-1.73-1.07-3.45-2.14-4.98-3.48c-1.03-0.91-2.35-1.79-3.77-1.79c-2.24,0-3.3,2.27-3.77,4.13c-2.23,8.79,0.51,17.81,4.9,25.42
				c0.37,0.65,1.38,0.07,1-0.59c-3.8-6.61-6.07-13.69-5.29-21.39c0.18-1.87,0.51-6.59,3.34-6.42c1.2,0.08,2.2,0.96,3.06,1.71
				c6.43,5.68,15.91,7.59,21.02,14.78c1.95,2.74,3.47,6.45,3.18,9.89C504.18,313.47,505.35,313.47,505.42,312.73L505.42,312.73z"/>
		</g>
		<g>
			<path class="st1" d="M529.14,345.47c-4.22-8.31-8.43-16.6-12.64-24.91c-0.7-1.37-1.42-2.74-2.1-4.13
				c-0.26-0.54-0.49-1.11-0.75-1.66c-0.04-0.09-0.32-0.71-0.22-0.45c0.09,0.26,0.01-0.05-0.01-0.12c-0.12-0.3-0.22-0.58-0.44-0.84
				c-1.53-1.89-4.68-1.16-6.79-1.08c-3.07,0.11-6.16,0.15-9.24,0.17c-4.42,0.05-8.85,0-13.28,0.08c-3.9,0.08-7.12,2.36-6.03,6.63
				c0.82,3.2,3.01,6.3,5,8.9c1.9,2.48,4.11,4.67,6.57,6.61c6.07,4.8,13.08,8.37,19.98,11.8c2.89,1.44,5.78,2.94,8.52,4.65
				c1.24,0.76,2.43,1.57,3.49,2.56c1.37,1.29,2.93,2.32,4.85,2.48c3.47,0.3,5.51-2.99,5.04-6.18c-0.3-2.07-1.27-4-2.28-5.79
				c-0.37-0.65-1.38-0.07-1,0.59c1.33,2.36,3.55,6.49,1.32,9.01c-0.59,0.67-1.49,1.13-2.37,1.23c-1.91,0.2-3.57-1.09-4.88-2.31
				c-0.92-0.86-1.96-1.57-3.02-2.24c-2.6-1.66-5.34-3.11-8.1-4.51c-6.28-3.18-12.6-6.33-18.38-10.38
				c-5.08-3.56-9.12-7.95-12.16-13.36c-1.23-2.18-2.93-5.85-0.17-7.62c1.07-0.69,2.4-0.87,3.64-0.9c4.01-0.07,8.03-0.03,12.05-0.07
				c2.98-0.03,5.95-0.07,8.93-0.15c1.04-0.03,2.08-0.05,3.12-0.12c1.27-0.07,2.97-0.38,4.02,0.49c0.58,0.47,0.47,0.74,0.75,1.37
				c0.25,0.57,0.49,1.13,0.75,1.69c0.54,1.13,1.13,2.24,1.7,3.35c4.26,8.39,8.5,16.76,12.76,25.14c0.11,0.21,0.21,0.42,0.32,0.63
				C528.48,346.72,529.48,346.13,529.14,345.47L529.14,345.47z"/>
		</g>
		<g>
			<path class="st1" d="M528.65,344.92c-0.01,0.07-0.04,0.12-0.07,0.11c0.12,0.03,0.49-0.12,0.65-0.12
				c1.66-0.05,3.49,0.84,4.97,1.49c0.69,0.29,1.28-0.71,0.59-1c-0.95-0.41-6.62-3.18-7.27-0.78
				C527.33,345.34,528.45,345.64,528.65,344.92L528.65,344.92z"/>
		</g>
		<g>
			<path class="st1" d="M520.48,352.86c-0.08,1.42,0.3,2.97,0.96,4.22c1.42,2.72,4.27,3.71,7.2,3.71c0.75,0,0.75-1.16,0-1.16
				c-2.7,0-5.27-0.94-6.41-3.56c-0.42-0.98-0.65-2.12-0.59-3.19C521.69,352.1,520.52,352.1,520.48,352.86L520.48,352.86z"/>
		</g>
		<g>
			<path class="st1" d="M576.17,350.26c-0.75-0.65-1.78-1.02-2.72-1.29c-2.91-0.87-6.1-0.82-9.1-0.49
				c-5.17,0.57-10.07,2.53-15.32,2.43c-3.51-0.08-7-0.94-10.03-2.7c-0.92-0.54-1.82-1.15-2.62-1.86c-0.18-0.17-0.41-0.34-0.57-0.54
				c-0.03-0.03-0.05-0.05-0.08-0.08c0.28,0.38-0.11-0.41-0.17-0.55c-0.18-0.49-0.75-0.55-1.07-0.15c-0.73,0.96-1.16,2.2-1.29,3.39
				c-0.21,1.89,0.71,3.59,0.44,5.49c-0.26,1.86-1.23,3.96-2.98,4.84c-1.12,0.57-3.09,1.05-4.34,0.67c-0.42-0.13-0.84,0.3-0.71,0.71
				c0.66,2.18,1.91,4.39,3.65,5.88c1.41,1.2,2.89,1.42,4.64,1.81c2.37,0.51,4.58,1.57,6.55,2.97c3.43,2.43,5.66,5.89,8.64,8.74
				c2.91,2.78,6.41,4.19,10.46,3.96c0.75-0.04,0.75-1.21,0-1.16c-4.19,0.25-7.54-1.38-10.4-4.38c-2.57-2.69-4.71-5.66-7.73-7.88
				c-1.66-1.23-3.49-2.23-5.46-2.87c-1.81-0.61-3.88-0.54-5.47-1.67c-1.82-1.31-3.1-3.56-3.74-5.68c-0.24,0.24-0.47,0.47-0.71,0.71
				c1.21,0.37,2.74,0,3.9-0.32c1.9-0.51,3.23-1.74,4.07-3.51c0.79-1.65,1.12-3.56,0.74-5.37c-0.44-2.06-0.54-3.97,0.79-5.74
				c-0.36-0.05-0.71-0.09-1.07-0.15c0.5,1.29,1.28,1.91,2.41,2.73c2.35,1.7,5.1,2.83,7.94,3.4c4.58,0.92,8.98,0.24,13.45-0.84
				c4.21-1.03,8.75-1.78,13.08-1.07c1.27,0.21,3.23,0.73,4.01,1.41C575.92,351.58,576.74,350.75,576.17,350.26L576.17,350.26z"/>
		</g>
		<g>
			<path class="st1" d="M554.96,407.2c-4.69,0.66-9.39,1.32-14.08,1.98c-1.03,0.15-2.06,0.29-3.09,0.44
				c-0.71,0.11-0.79,0.11-1.32,0.09c-1.09-0.03-2.81,0.01-3.51,1.02c-0.84,1.21-0.3,3.19,0.42,4.31c0.55,0.86,1.81,1.44,1.66,2.56
				c-0.09,0.73-0.67,1.54-1.16,2.07c-0.63,0.7-1.42,1.24-2.1,1.89c-1.41,1.36-1.96,3.23-0.25,4.67c1.86,1.57,4.98,1.95,7.3,2.6
				c3.06,0.84,6.12,1.69,9.18,2.54c5.17,1.44,10.32,2.86,15.48,4.3c0.73,0.2,1.03-0.92,0.32-1.12c-9.3-2.58-18.58-5.18-27.89-7.73
				c-1.79-0.49-5.91-1.75-3.64-4.1c1.45-1.5,3.4-2.57,3.89-4.8c0.42-1.9-1.32-2.45-2.04-3.94c-0.38-0.79-0.74-2.27,0.17-2.81
				c0.62-0.37,1.58-0.28,2.28-0.29c1.29-0.01,2.57-0.28,3.85-0.46c4.94-0.7,9.89-1.38,14.83-2.08
				C556,408.22,555.68,407.1,554.96,407.2L554.96,407.2z"/>
		</g>
		<g>
			<path class="st1" d="M452.97,377c-2.06-3.71-3.3-7.99-4.15-12.12c-2.02-9.72-1.13-19.78,2.62-28.97
				c-0.38-0.05-0.76-0.11-1.15-0.16c0.13,9.4,3.38,19.34,8.32,27.25c2.4,3.84,5.35,7.29,8.79,10.23c0.57,0.49,1.4-0.33,0.83-0.83
				c-9.82-8.4-15.24-21.03-16.57-33.73c-0.11-0.98-0.2-1.95-0.21-2.93c-0.01-0.7-0.91-0.74-1.15-0.16c-3.78,9.27-4.65,19.4-2.7,29.2
				c0.87,4.34,2.18,8.87,4.34,12.78C452.32,378.24,453.34,377.66,452.97,377L452.97,377z"/>
		</g>
		<g>
			<path class="st1" d="M483.08,386.54c-2.8-4.18-6.74-7.77-10.63-10.89c-3.81-3.06-8-6.07-12.45-8.14
				c-1.52-0.71-3.31-1.21-4.98-1.11c-2.76,0.18-3.88,2.4-3.72,4.96c0.24,3.8,1.21,7.66,1.91,11.41c0.05,0.29,0.11,0.58,0.16,0.87
				c0.01,0.08,0.09,0.45,0.03,0.11c0.05,0.29,0.08,0.58,0.15,0.86c0.34,1.56,0.99,3.06,1.78,4.43c4.14,7.13,12.34,10.39,20.12,11.63
				c0.74,0.12,1.05-1,0.32-1.12c-6.94-1.11-14.23-3.73-18.49-9.65c-1.03-1.42-1.86-3.01-2.36-4.69c-0.18-0.63-0.32-1.32-0.38-1.67
				c-0.33-1.89-0.69-3.76-1.02-5.63c-0.41-2.33-1.12-4.84-1.08-7.23c0.03-1.28,0.44-2.52,1.75-2.94c1.58-0.51,3.61,0.09,5.08,0.74
				c3.86,1.7,7.54,4.34,10.89,6.87c4.35,3.31,8.83,7.21,11.92,11.79C482.49,387.76,483.51,387.16,483.08,386.54L483.08,386.54z"/>
		</g>
		<g>
			<path class="st1" d="M533.44,413.63c-0.17,0.03,0.12,0-0.12,0.01c-0.25,0.01-0.5,0.03-0.76,0.03c-1.03,0-2.04-0.15-3.05-0.36
				c-4.4-0.91-8.56-2.98-12.39-5.27c-7.03-4.21-13.55-9.55-19.36-15.32c-1.56-1.54-3.14-3.03-4.87-4.39
				c-1.99-1.56-4.5-3.47-7.12-3.6c-2.45-0.12-3.82,1.78-3.96,4.05c-0.09,1.71,0.44,3.23,0.8,4.85c0.32,1.4,0.11,3.12-0.79,4.27
				c-2.02,2.57-5.38,0.71-7.79,2.19c-3.47,2.12,0.05,7.83,1.5,10.17c0.25,0.4,0.03-0.03,0.26,0.49c0.22,0.49,0.45,0.98,0.71,1.45
				c0.98,1.79,2.2,3.47,3.6,4.96c2.06,2.19,4.54,4.01,7.27,5.27c3.71,1.73,7.59,2.16,11.62,2.6c8.95,0.96,18.29,2.18,27.27,0.83
				c1.69-0.25,3.35-0.63,4.96-1.19c0.7-0.24,0.4-1.37-0.32-1.12c-7.52,2.6-16.13,1.78-23.9,1.11c-8.15-0.7-17.04-0.74-23.71-6.12
				c-2.85-2.31-4.92-5.27-6.5-8.4c-0.51-1-1.16-1.93-1.67-2.93c-0.71-1.44-2.29-4.58-0.7-5.95c1.11-0.95,2.99-0.45,4.32-0.61
				c1.16-0.13,2.31-0.5,3.23-1.24c1.38-1.12,1.94-2.87,1.91-4.61c-0.04-2.57-2.89-8.66,1.52-8.89c2.66-0.13,5.52,2.32,7.45,3.9
				c1.46,1.2,2.81,2.51,4.15,3.82c5.7,5.63,12.08,10.86,18.92,15.06c3.8,2.33,7.9,4.42,12.25,5.51c1.58,0.4,3.59,0.91,5.25,0.61
				c0.12-0.03,0.24-0.03,0.34-0.05C534.48,414.61,534.16,413.49,533.44,413.63L533.44,413.63z"/>
		</g>
		<g>
			<path class="st1" d="M586.84,449.25c-7.05,1.53-14.09,3.15-21.11,4.83c-11.23,2.68-22.59,5.33-33.53,9.03
				c-1.89,0.65-3.8,1.31-5.59,2.2c-0.82,0.41-2.06,0.96-2.33,1.94c-0.09,0.32,0.11,0.62,0.41,0.71c3.41,1.08,5.6,5.38,5.85,8.7
				c0.12,1.5,1.34,2.69,2.78,3.12c1.63,0.49,3.28,0.01,4.85-0.46c1.71-0.53,3.45-1,5.21-1.4c4.93-1.13,9.98-1.73,15.03-1.69
				c5.71,0.04,11.42,0.84,17.09,1.4c3.3,0.33,6.58,0.69,9.88,1c3.8,0.37,7.65,0.4,11.46,0.36c3.96-0.05,7.92-0.28,11.84-0.88
				c3.31-0.51,6.86-1.27,9.66-3.18c0.62-0.42,0.04-1.42-0.59-1c-2.51,1.7-5.59,2.41-8.53,2.91c-3.57,0.62-7.23,0.86-10.84,0.95
				c-4.19,0.11-8.45,0.08-12.63-0.28c-7.77-0.67-15.51-1.71-23.27-2.28c-5.16-0.38-10.34-0.09-15.43,0.76
				c-3.65,0.62-7.11,1.81-10.69,2.64c-1.69,0.4-3.59,0.21-4.52-1.42c-0.2-0.36-0.12-0.24-0.15-0.37c-0.08-0.53-0.05-1.07-0.16-1.6
				c-0.67-3.36-3.1-7.33-6.55-8.43c0.13,0.24,0.28,0.47,0.41,0.71c0.12-0.42,1.4-1.04,1.99-1.33c1.56-0.75,3.19-1.33,4.83-1.89
				c4.92-1.69,9.93-3.07,14.95-4.4c10.8-2.89,21.69-5.46,32.59-7.91c2.47-0.55,4.93-1.11,7.4-1.65
				C587.88,450.21,587.58,449.09,586.84,449.25L586.84,449.25z"/>
		</g>
		<g>
			<path class="st1" d="M509.38,510.83c-1.69,0.98-3.3,2.45-4.21,4.19c-1.31,2.52-0.44,5.01,0.86,7.33c1.2,2.15,2.73,4.1,4.3,5.99
				c0.3,0.36,0.04,0.01,0.32,0.41c0.36,0.51,0.69,1.04,1,1.57c3.12,5.23,5.26,11.12,6.32,17.11c1.21,6.88-0.22,14.46,3.2,20.85
				c1.03,1.93,2.95,4.31,5.3,4.63c0.05-0.38,0.11-0.76,0.16-1.15c-4,0.15-8.21-2.44-11.12-4.9c-8.53-7.23-12.29-18.39-15.23-28.81
				c-2.2-7.82-3.38-16.31-2.06-24.38c0.12-0.74-1-1.05-1.12-0.32c-1.24,7.58-0.34,15.44,1.49,22.86c1.37,5.55,3.09,11.1,5.42,16.31
				c3.63,8.08,9.41,16.52,18.17,19.54c1.38,0.47,2.95,0.9,4.44,0.84c0.62-0.03,0.83-1.05,0.16-1.15c-1.82-0.25-3.34-2-4.23-3.45
				c-3.52-5.71-2.31-12.78-3.14-19.11c-1.12-8.44-4.27-16.53-9.51-23.23c-1.73-2.2-4.25-5.29-4.27-8.23
				c-0.04-2.53,2.27-4.75,4.32-5.93C510.61,511.46,510.03,510.46,509.38,510.83L509.38,510.83z"/>
		</g>
		<g>
			<path class="st1" d="M528.27,469.48c-2.11-0.04-4.42,1.45-6.07,2.56c-6.63,4.46-11.7,11.25-16.1,17.79
				c-4.98,7.4-9.27,15.24-13.24,23.22c-0.24,0.49,0.16,0.92,0.66,0.86c6.72-0.95,13.45-1.96,20.19-2.86
				c0.41-0.05-0.12,0.03,0.3-0.04c0.55-0.09,1.08-0.21,1.61-0.42c1.91-0.74,3.44-2.16,4.52-3.88c1.96-3.11,2.41-7.05,3.52-10.51
				c0.66-2.04,1.31-4.21,2.28-6.13c0.16-0.32-0.03-0.01,0.08-0.17c0.16-0.22,0.37-0.44,0.54-0.66c0.75-0.95,1.45-1.94,2.1-2.97
				c1.73-2.73,3.28-5.97,3.02-9.28c-0.05-0.74-1.23-0.75-1.16,0c0.25,3.12-1.24,6.12-2.86,8.69c-0.79,1.25-1.86,2.35-2.62,3.6
				c-0.74,1.2-1.16,2.77-1.62,4.07c-1.23,3.44-1.87,7.11-3.15,10.51c-1.16,3.09-3.45,5.55-6.78,6.03c-3.24,0.46-6.5,0.92-9.74,1.38
				c-3.51,0.5-7,0.99-10.51,1.49c0.22,0.29,0.44,0.57,0.66,0.86c5.83-11.73,12.3-23.64,21.08-33.46c3.16-3.53,6.99-7.49,11.59-9.12
				c0.63-0.22,1.31-0.41,1.73-0.41C529.02,470.66,529.02,469.49,528.27,469.48L528.27,469.48z"/>
		</g>
		<g>
			<path class="st1" d="M629.23,491.11c-6.03,0.8-12.02,1.83-18,2.95c-11.33,2.14-22.69,4.64-33.58,8.46
				c-5.06,1.78-10.23,3.82-14.61,6.97c-0.42,0.3-0.34,1.13,0.29,1.08c0.98-0.07,2.02,0.25,2.85,0.75c2.73,1.65,3.01,4.89,3.32,7.74
				c0.26,2.4,1.07,4.79,3.05,6.3c1.98,1.5,4.56,1.9,6.97,2.12c8.27,0.79,16.72-0.14,24.6-2.72c3.77-1.23,7.87-2.69,11.02-5.16
				c3.06-2.4,4.31-6.12,6.88-8.93c3.05-3.34,7.54-3.76,11.79-3.94c3.9-0.17,7.83-0.22,11.47-1.79c0.69-0.29,0.09-1.31-0.59-1
				c-6.53,2.82-14.28,0.17-20.6,3.63c-3.18,1.74-4.75,4.88-6.68,7.78c-2.51,3.74-6.36,5.59-10.44,7.19
				c-8.23,3.2-17.1,4.51-25.91,3.92c-2.68-0.17-5.89-0.36-8.04-2.18c-2.45-2.07-2.16-5.23-2.69-8.1c-0.62-3.39-3.15-7.05-7.03-6.78
				c0.09,0.36,0.2,0.73,0.29,1.08c3.85-2.77,8.31-4.65,12.72-6.28c5.39-1.99,10.94-3.57,16.52-4.97c9.92-2.51,19.98-4.44,30.08-6.05
				c1.54-0.25,3.1-0.49,4.64-0.71c0.42-0.07,0.83-0.12,1.25-0.17c0.12-0.01,0.61-0.08,0.37-0.05
				C629.95,492.18,629.97,491.02,629.23,491.11L629.23,491.11z"/>
		</g>
		<g>
			<path class="st1" d="M568.81,562.46c2.76,5.31,6.24,10.34,9.89,15.07c7.03,9.11,15.61,17.73,26.15,22.69
				c6.14,2.89,12.87,4.32,19.66,3.67c0.5-0.05,0.88-0.83,0.29-1.08c-3.53-1.56-6.49-4.19-7.71-7.9c-1.67-5.02-4.14-9.63-8.15-13.17
				c-3.01-2.65-6.42-4.93-9.64-7.3c-3.8-2.8-7.63-5.56-11.56-8.17c-1.66-1.11-3.34-2.2-5.08-3.16c-0.95-0.53-2.04-1.2-3.15-1.25
				c-0.75-0.04-0.75,1.12,0,1.16c0.95,0.05,1.98,0.76,2.77,1.21c1.57,0.88,3.09,1.86,4.59,2.86c3.77,2.51,7.45,5.14,11.09,7.82
				c3.26,2.39,6.66,4.71,9.74,7.32c4.35,3.69,6.63,8.41,8.46,13.69c1.27,3.64,4.56,6.38,8.03,7.91c0.09-0.36,0.2-0.73,0.29-1.08
				c-12.29,1.2-23.58-4.67-32.58-12.58c-7.46-6.57-13.74-14.5-19-22.92c-1.09-1.75-2.18-3.52-3.12-5.35
				C569.47,561.21,568.46,561.8,568.81,562.46L568.81,562.46z"/>
		</g>
		<g>
			<path class="st1" d="M559.73,520.33c-2.28,3.81-3.14,8.7-3.26,13.05c-0.13,4.71,0.74,9.41,2.39,13.82
				c1.05,2.81,2.4,5.5,3.98,8.06c1.32,2.14,2.77,4.43,4.5,6.25c1.37,1.45,3.67,1.78,5.54,1.91c1.23,0.08,2.47,0.04,3.69-0.05
				c1.42-0.12,3.26-0.15,4.6-0.63c0.44-0.16,0.83-0.42,1.16-0.74c1.95-1.81,1.37-4.67,0.36-6.82c-1.31-2.8-3.44-5.12-5.46-7.41
				c-1.81-2.06-3.67-4.05-5.45-6.13c-1.31-1.53-2.64-3.14-3.39-5.02c-0.76-1.92-0.53-3.9-0.92-5.88c-0.79-4.06-3.74-7.87-6.86-10.52
				c-0.57-0.49-1.4,0.34-0.83,0.83c2.54,2.18,4.89,5.08,6.05,8.23c0.69,1.87,0.54,3.77,0.88,5.68c0.25,1.37,0.75,2.66,1.48,3.86
				c2.12,3.53,5.31,6.5,8.02,9.57c1.98,2.24,4.06,4.5,5.38,7.23c0.63,1.31,1.21,2.97,0.69,4.4c-0.22,0.62-0.66,1.16-1.23,1.49
				c-0.09,0.05-0.37,0.17-0.2,0.11c-1.45,0.57-3.43,0.55-4.96,0.65c-2.36,0.15-5.62,0.26-7.57-1.37c-0.11-0.08-0.21-0.21-0.13-0.13
				c-1.07-1.13-1.96-2.49-2.85-3.77c-1.67-2.41-3.16-4.97-4.38-7.65c-1.98-4.39-3.2-9.14-3.35-13.95
				c-0.15-4.76,0.61-10.27,3.1-14.45C561.13,520.28,560.11,519.69,559.73,520.33z"/>
		</g>
		<g>
			<path class="st1" d="M558.41,523.11c-1.87-8.5,8.29-12.3,8.4-12.33l0.4,1.09c-0.03,0.01-2.4,0.88-4.54,2.7
				c-2.77,2.37-3.82,5.16-3.14,8.28L558.41,523.11z"/>
		</g>
		<g>
			<path class="st1" d="M573.11,525.45c0.03,1.44-1.2,2.43-2.39,3.03c-1.29,0.65-2.56,0.53-3.94,0.32c-0.74-0.12-1.05,1-0.32,1.12
				c1.87,0.3,3.52,0.37,5.21-0.63c1.41-0.84,2.64-2.1,2.6-3.84C574.27,524.71,573.1,524.7,573.11,525.45L573.11,525.45z"/>
		</g>
		<g>
			<path class="st1" d="M743.44,306.38c-4.35-3.43-8.7-6.86-13.05-10.28c-1.08-0.86-2.35-1.96-3.81-1.27
				c-2.69,1.28-1.32,8.2-5.35,7.05c-0.17-0.05,0.18,0.07-0.11-0.04c-0.22-0.09-0.45-0.21-0.66-0.32c-0.84-0.41-1.69-0.84-2.52-1.29
				c-1.54-0.86-4.36-2.15-4.92-4c-0.15-0.5-0.79-0.55-1.07-0.15c-1.28,1.91-2.94,4.03-4.96,5.17c-1.12,0.63-2.94,0.82-4.21,0.54
				c-1.85-0.4-1.86-2.64-2.33-4.09c-0.46-1.44-1.77-3.19-3.49-2.4c-0.42,0.2-0.79,0.58-1.13,0.87c-1.42,1.17-2.81,2.39-4.18,3.61
				c-2.56,2.27-5.14,4.51-7.74,6.75c-0.57,0.49,0.26,1.31,0.83,0.83c2.24-1.93,4.48-3.86,6.7-5.83c1.52-1.33,3.01-2.68,4.55-3.97
				c0.38-0.32,0.76-0.63,1.15-0.95c0.15-0.12,0.57-0.33,0.29-0.24c1.07-0.33,1.69,0.92,1.98,1.87c0.42,1.41,0.55,3.03,1.75,4.05
				c1.56,1.31,4.8,0.9,6.43-0.03c2.22-1.25,3.98-3.49,5.38-5.58c-0.36-0.05-0.71-0.09-1.07-0.15c0.45,1.49,1.96,2.51,3.18,3.32
				c1.54,1.03,3.19,1.91,4.88,2.72s3.45,0.83,4.68-0.86c0.66-0.91,0.92-1.99,1.15-3.07c0.2-0.95,0.45-2.77,1.7-2.87
				c0.59-0.04,1.09,0.38,1.54,0.71c2.31,1.74,4.55,3.59,6.82,5.37c2.25,1.78,4.51,3.56,6.76,5.33
				C743.19,307.67,744.02,306.85,743.44,306.38L743.44,306.38z"/>
		</g>
		<g>
			<path class="st1" d="M726.81,313.75c-4.09,2.93-7.63,7.34-7,12.67c0.29,2.43,1.37,4.13,3.65,5.06c2.6,1.07,5.48,1.04,8.24,0.9
				c0.75-0.04,0.75-1.2,0-1.16c-2.18,0.11-4.4,0.17-6.53-0.38c-1.07-0.28-2.35-0.7-3.11-1.56c-0.88-0.99-1.12-2.56-1.16-3.84
				c-0.12-4.52,3.03-8.19,6.5-10.67C728.01,314.33,727.43,313.31,726.81,313.75L726.81,313.75z"/>
		</g>
		<g>
			<path class="st1" d="M704.44,317.95c3.49,2.49,6.58,6.13,6.5,10.67c-0.03,1.16-0.24,2.51-0.92,3.48
				c-0.73,1.04-1.9,1.52-3.09,1.86c-2.2,0.63-4.52,0.57-6.78,0.46c-0.75-0.04-0.75,1.13,0,1.16c2.74,0.15,5.58,0.17,8.16-0.87
				c2.31-0.92,3.43-2.64,3.72-5.09c0.63-5.33-2.91-9.74-7-12.67C704.41,316.5,703.83,317.52,704.44,317.95L704.44,317.95z"/>
		</g>
		<g>
			<path class="st1" d="M732.15,297.45c-3.73-2.73-3.26-8.33-0.26-11.44c1.33-1.38,3.23-2.18,5.12-1.52c0.92,0.33,1.77,1.04,2.06,2
				c0.21,0.7,0.15,1.63-0.42,2.18c-0.92,0.87-2.9,0.12-2.06-1.29c0.38-0.65-0.62-1.24-1-0.59c-1.63,2.74,2.37,4.76,4.17,2.39
				c1.92-2.56-0.69-5.58-3.28-6.01c-3.48-0.58-6.29,2.32-7.46,5.31c-1.4,3.59-0.62,7.66,2.57,9.98
				C732.16,298.9,732.76,297.9,732.15,297.45L732.15,297.45z"/>
		</g>
		<g>
			<path class="st1" d="M693.97,299.17c3.19-2.32,3.97-6.39,2.57-9.98c-1.16-2.99-3.98-5.89-7.46-5.31
				c-2.58,0.44-5.22,3.47-3.28,6.01c1.79,2.37,5.8,0.36,4.17-2.39c-0.38-0.65-1.4-0.05-1,0.59c0.76,1.28-1.13,2.18-2.06,1.29
				c-0.47-0.46-0.58-1.23-0.47-1.83c0.18-1.13,1.07-1.96,2.12-2.35c1.86-0.67,3.81,0.13,5.12,1.52c2.97,3.12,3.49,8.7-0.26,11.44
				C692.78,298.6,693.36,299.61,693.97,299.17L693.97,299.17z"/>
		</g>
		<path class="st1" d="M739.76,308.42c0.2,0.88,0.45,1.75,0.94,2.52c1.46,2.32,4.55,2.94,7.28,3.18c1.66,0.15,3.34,0.22,5.01,0.24
			c1.12,0.01,2.27-0.01,3.32-0.41c2.48-0.94,3.77-3.71,4.15-6.33c0.36-2.43,0.05-5.16-1.67-6.91c-0.74-0.75-1.69-1.25-2.64-1.69
			c-3.11-1.4-8.11-2.94-11.52-1.73C739.9,298.99,738.77,303.99,739.76,308.42z"/>
		<path class="st1" d="M665.79,308.24c0.2,0.88,0.45,1.75,0.94,2.52c1.46,2.32,4.55,2.94,7.28,3.18c1.66,0.15,3.34,0.22,5.01,0.24
			c1.12,0.01,2.27-0.01,3.32-0.41c2.48-0.94,3.77-3.71,4.15-6.33c0.36-2.43,0.05-5.16-1.67-6.91c-0.74-0.75-1.69-1.25-2.64-1.69
			c-3.11-1.4-8.11-2.94-11.52-1.73C665.94,298.81,664.8,303.81,665.79,308.24z"/>
		<g>
			<path class="st1" d="M719.31,347.01c0.33,22.18,2.78,44.25,3.4,66.41c0.17,6.26,0.2,12.54-0.01,18.82
				c-0.03,0.75,1.13,0.75,1.16,0c0.75-22.18-1.48-44.29-2.69-66.4c-0.34-6.26-0.61-12.54-0.7-18.82
				C720.47,346.28,719.3,346.26,719.31,347.01L719.31,347.01z"/>
		</g>
		<g>
			<path class="st1" d="M789.33,500.2c4.23-6.04,4.52-14.31,1.09-20.79c-4.1-7.75-12.8-10.19-20.41-13.13
				c-2.53-0.98-5.3-2.08-7.11-4.21c-1.75-2.04-2.41-5.3-0.45-7.44c0.5-0.55-0.32-1.37-0.83-0.83c-2.4,2.61-1.77,6.55,0.45,9.08
				c2.83,3.23,7.5,4.47,11.39,5.92c4.46,1.65,9.06,3.43,12.57,6.74c3.06,2.89,4.92,6.88,5.43,11.04c0.57,4.59-0.49,9.24-3.14,13.04
				C787.9,500.24,788.91,500.82,789.33,500.2L789.33,500.2z"/>
		</g>
		<g>
			<path class="st1" d="M658.02,510.42c-4.76-6.79-4.34-16.73,1.23-22.98c3.16-3.56,7.62-5.55,11.99-7.21
				c3.94-1.5,8.49-2.62,11.81-5.35c2.99-2.45,4.59-7.09,1.67-10.26c-0.51-0.55-1.33,0.28-0.83,0.83c1.63,1.78,1.48,4.47,0.28,6.45
				c-1.27,2.08-3.51,3.35-5.67,4.31c-4.13,1.83-8.49,3.03-12.55,5.01c-3.61,1.75-6.94,4.15-9.16,7.54c-2,3.05-3.07,6.7-3.2,10.32
				c-0.16,4.23,1,8.45,3.44,11.93C657.44,511.62,658.46,511.04,658.02,510.42L658.02,510.42z"/>
		</g>
		<g>
			<path class="st1" d="M784.51,503.36c2.02-3.63,2.95-7.65,2.72-11.79c-0.04-0.75-1.21-0.75-1.16,0c0.24,3.94-0.62,7.75-2.54,11.21
				C783.14,503.43,784.15,504.02,784.51,503.36L784.51,503.36z"/>
		</g>
		<g>
			<path class="st1" d="M784.8,485.67c-2.86-4.32-6.78-7.79-11.44-10.07c-0.67-0.33-1.27,0.67-0.59,1c4.48,2.2,8.27,5.49,11.02,9.66
				C784.21,486.88,785.21,486.3,784.8,485.67L784.8,485.67z"/>
		</g>
		<g>
			<path class="st1" d="M778.71,492.45c0.34,2.73,0.59,5.58-1.25,7.85c-1.4,1.71-3.44,2.81-5.34,3.86
				c-4.58,2.53-9.74,6.24-15.24,5.41c-0.74-0.11-1.05,1.02-0.32,1.12c6.04,0.9,11.56-2.98,16.59-5.78c2.08-1.16,4.25-2.44,5.63-4.44
				c1.65-2.4,1.44-5.26,1.09-8.02C779.79,491.71,778.62,491.69,778.71,492.45L778.71,492.45z"/>
		</g>
		<g>
			<path class="st1" d="M767.67,500.2c-7.07,1.93-14.32,2.87-21.64,2.86c-0.75,0-0.75,1.16,0,1.16c7.42,0.01,14.79-0.96,21.95-2.9
				C768.71,501.12,768.4,500,767.67,500.2L767.67,500.2z"/>
		</g>
		<g>
			<path class="st1" d="M747.67,507.78c-4.31,0.29-8.61,0.29-12.92-0.03c-0.75-0.05-0.75,1.11,0,1.16c4.31,0.3,8.61,0.32,12.92,0.03
				C748.42,508.9,748.42,507.73,747.67,507.78L747.67,507.78z"/>
		</g>
		<g>
			<path class="st1" d="M684.97,481.38c6.9-3.3,10.5-10.84,8.87-18.29c-0.16-0.74-1.28-0.42-1.12,0.32
				c1.52,6.97-1.93,13.9-8.33,16.97C683.72,480.7,684.3,481.71,684.97,481.38L684.97,481.38z"/>
		</g>
		<g>
			<path class="st1" d="M690.22,463.32c-1.5-3.06-3.27-5.97-5.27-8.74c-0.44-0.61-1.45-0.01-1,0.59c2,2.77,3.77,5.67,5.27,8.74
				C689.55,464.59,690.55,463.99,690.22,463.32L690.22,463.32z"/>
		</g>
		<g>
			<path class="st1" d="M690.08,454.79c-1.37-1.29-2.04-2.99-1.95-4.88c0.04-0.75-1.13-0.75-1.16,0c-0.11,2.16,0.73,4.21,2.29,5.7
				C689.79,456.13,690.62,455.3,690.08,454.79L690.08,454.79z"/>
		</g>
		<g>
			<path class="st1" d="M699.65,469.62c0.13,2.81-0.15,5.55-0.84,8.28c-0.18,0.73,0.94,1.04,1.12,0.32c0.73-2.82,1.02-5.68,0.88-8.6
				C700.78,468.87,699.61,468.87,699.65,469.62L699.65,469.62z"/>
		</g>
		<g>
			<path class="st1" d="M760.87,440.11c4.67-13.04,12-25.03,21.5-35.1c0.51-0.54-0.3-1.37-0.83-0.83
				c-9.64,10.23-17.06,22.38-21.79,35.61C759.5,440.52,760.62,440.83,760.87,440.11L760.87,440.11z"/>
		</g>
		<g>
			<path class="st1" d="M770.62,410.87c5.8-9.36,13.69-17.29,23.03-23.14c0.63-0.4,0.05-1.41-0.59-1
				c-9.51,5.96-17.54,14.02-23.44,23.56C769.21,410.92,770.23,411.5,770.62,410.87L770.62,410.87z"/>
		</g>
		<g>
			<path class="st1" d="M779.93,390.68c8.21-7.78,17.72-14.04,28.1-18.55c0.69-0.3,0.09-1.31-0.59-1
				c-10.46,4.55-20.04,10.89-28.33,18.72C778.56,390.37,779.39,391.2,779.93,390.68L779.93,390.68z"/>
		</g>
		<g>
			<path class="st1" d="M803.55,380.85c2.54-1.79,5.22-3.35,8.03-4.67c0.67-0.32,0.09-1.32-0.59-1c-2.81,1.32-5.49,2.87-8.03,4.67
				C802.36,380.27,802.94,381.28,803.55,380.85L803.55,380.85z"/>
		</g>
		<g>
			<path class="st1" d="M817.13,373.09c2.76-1.63,5.64-3.02,8.65-4.11c0.7-0.25,0.4-1.38-0.32-1.12c-3.11,1.13-6.09,2.53-8.93,4.22
				C815.89,372.47,816.48,373.49,817.13,373.09L817.13,373.09z"/>
		</g>
		<g>
			<path class="st1" d="M696.01,441.93c-4.73-13.24-12.16-25.38-21.79-35.61c-0.51-0.55-1.34,0.28-0.83,0.83
				c9.49,10.09,16.84,22.06,21.5,35.1C695.14,442.95,696.27,442.65,696.01,441.93L696.01,441.93z"/>
		</g>
		<g>
			<path class="st1" d="M686.15,412.4c-5.91-9.53-13.94-17.6-23.44-23.56c-0.63-0.4-1.23,0.61-0.59,1
				c9.34,5.85,17.22,13.77,23.03,23.14C685.54,413.63,686.54,413.05,686.15,412.4L686.15,412.4z"/>
		</g>
		<g>
			<path class="st1" d="M676.64,391.98c-8.28-7.83-17.87-14.19-28.33-18.72c-0.69-0.29-1.28,0.71-0.59,1
				c10.38,4.51,19.88,10.77,28.1,18.55C676.36,393.32,677.2,392.5,676.64,391.98L676.64,391.98z"/>
		</g>
		<g>
			<path class="st1" d="M652.8,381.97c-2.54-1.79-5.22-3.35-8.03-4.67c-0.67-0.32-1.27,0.69-0.59,1c2.81,1.32,5.48,2.87,8.03,4.67
				C652.83,383.41,653.41,382.39,652.8,381.97L652.8,381.97z"/>
		</g>
		<g>
			<path class="st1" d="M639.22,374.22c-2.85-1.69-5.83-3.1-8.93-4.22c-0.71-0.25-1.02,0.87-0.32,1.12
				c3.02,1.09,5.89,2.47,8.65,4.11C639.27,375.61,639.87,374.6,639.22,374.22L639.22,374.22z"/>
		</g>
		<g>
			<path class="st1" d="M635.98,468.23c0.32-0.22,0.71-0.37,1.09-0.29c0.42,0.09,0.73,0.42,1.03,0.73c1.57,1.62,9.8,7.79,3.49,8.28
				C638.01,477.23,631.89,471.11,635.98,468.23z"/>
			<path class="st1" d="M634.99,462.19c-1.48-0.78-3.09-1.69-3.63-3.28c-0.12-0.37-0.17-0.79,0-1.13c0.37-0.74,1.44-0.69,2.23-0.46
				c1.93,0.57,9.34,4.01,9.52,6.38C643.4,467.47,636.1,462.77,634.99,462.19z"/>
			<path class="st1" d="M627.45,467.09c0.05,0.16,0.11,0.32,0.09,0.47c-0.04,0.42-0.5,0.67-0.91,0.75
				c-0.95,0.18-1.95-0.08-2.78-0.57c-0.83-0.49-1.53-1.19-2.18-1.9c-0.61-0.66-1.17-1.36-1.7-2.07c-0.51-0.69-1.02-1.58-0.65-2.35
				c0.86-1.79,3.36-0.58,4.38,0.29C625.36,463.18,626.68,464.98,627.45,467.09z"/>
			<path class="st1" d="M621.48,446.42c-0.96-0.49-2.06-0.76-3.12-0.57c-0.18,0.04-0.38,0.09-0.51,0.22
				c-0.33,0.34-0.09,0.91,0.18,1.31c0.47,0.69,1,1.34,1.58,1.95c0.62,0.66,1.31,1.28,2.14,1.63c1.08,0.47,4.05,1.17,3.59-0.88
				C624.96,448.46,622.85,447.13,621.48,446.42z"/>
			<path class="st1" d="M615.79,454.87c0.09,0.24,0.29,0.42,0.47,0.59c0.42,0.4,0.86,0.79,1.28,1.17c0.21,0.2,0.44,0.4,0.71,0.47
				c1.52,0.45,1.56-1.83,0.74-2.54C618.43,454.08,615.29,453.56,615.79,454.87z"/>
			<path class="st1" d="M636.48,485.38c-0.04,1.21,0.65,2.41,1.7,3.01c1.98,1.11,2.95-2.16,2.18-3.55
				C639.46,483.2,636.55,483.2,636.48,485.38z"/>
			<path class="st1" d="M651.55,472.89c0.44,0.41,0.94,0.76,1.52,0.9c0.28,0.07,0.59,0.08,0.84-0.08c0.26-0.16,0.4-0.49,0.4-0.79
				c0-0.3-0.09-0.61-0.22-0.9c-0.51-1.21-1.87-2.97-3.43-2.41C649.03,470.19,650.85,472.25,651.55,472.89z"/>
			<path class="st1" d="M602.55,446.13c-1.94-1.24-3.98-2.41-6.25-2.83c-0.38-0.07-0.82-0.12-1.16,0.08
				c-0.5,0.29-0.61,1.02-0.4,1.54c0.22,0.54,0.69,0.94,1.13,1.31c2.76,2.28,5.63,4.42,8.61,6.39c0.74,0.49,1.5,0.98,2.35,1.27
				c1,0.34,2.54,0.41,3.18-0.66c0.58-0.98-0.37-1.91-1.05-2.51C606.98,449.03,604.76,447.54,602.55,446.13z"/>
			<path class="st1" d="M608.55,442.17c0.91,1.02,2.07,1.95,3.44,2.04c0.45,0.04,0.99-0.08,1.16-0.49c0.44-1.03-1.56-2.58-2.43-2.86
				C609.66,440.54,607.05,440.48,608.55,442.17z"/>
			<path class="st1" d="M601,424.62c-1.46-0.46-3.06-0.62-4.54-0.18c-0.29,0.09-0.61,0.22-0.75,0.49c-0.11,0.18-0.11,0.41-0.09,0.63
				c0.09,1.12,0.74,2.11,1.44,2.97c1.4,1.71,3.14,3.11,4.97,4.35c1.03,0.7,2.11,1.36,3.32,1.66c1.17,0.29,2.4,0.22,3.6,0.16
				c0.37-0.03,0.75-0.04,1.09-0.2c0.82-0.38,1.09-1.45,0.96-2.35c-0.17-1.29-0.96-2.45-1.95-3.31c-1.09-0.95-2.44-1.58-3.72-2.24
				C603.94,425.86,602.51,425.1,601,424.62z"/>
			<path class="st1" d="M591.11,432.26c-1.28-0.66-2.7-1.09-4.15-1.02c-0.16,0.01-0.32,0.03-0.45,0.11
				c-0.25,0.15-0.36,0.47-0.3,0.76c0.05,0.29,0.22,0.54,0.4,0.76c0.67,0.84,1.54,1.5,2.4,2.15c1.19,0.88,4.19,2.93,5.5,1.09
				C595.62,434.55,592.13,432.78,591.11,432.26z"/>
			<path class="st1" d="M573.13,427.83c-0.24-0.46-0.47-0.98-0.38-1.5c0.09-0.51,0.66-0.98,1.13-0.75c0.2,0.09,0.34,0.28,0.47,0.46
				c1.65,2.29,3.16,4.81,5.52,6.36c0.51,0.34,1.07,0.62,1.52,1.04s0.79,1.02,0.71,1.63c-0.32,2.65-4.21-0.91-4.94-1.62
				C575.5,431.85,574.18,429.88,573.13,427.83z"/>
			<path class="st1" d="M580.07,420.71c0.03-0.16,0.09-0.33,0.24-0.4c0.07-0.03,0.13-0.03,0.2-0.03c0.58,0.04,1.07,0.46,1.46,0.88
				c0.55,0.59,2.19,2.16,0.5,2.29C581.26,423.59,579.92,421.83,580.07,420.71z"/>
			<path class="st1" d="M582.95,414.28c-0.17-0.29-0.32-0.59-0.4-0.92c-0.05-0.24-0.07-0.51,0.11-0.67
				c0.09-0.09,0.24-0.13,0.37-0.15c0.87-0.11,1.63,0.55,2.27,1.17c0.42,0.41,0.84,0.83,1.28,1.24c0.59,0.58,1.5,1.45,1.34,2.37
				c-0.12,0.7-0.61,0.73-1.2,0.54C585.1,417.36,583.74,415.67,582.95,414.28z"/>
			<path class="st1" d="M570.16,412.98c0.13-0.29,0.42-0.53,0.74-0.51c0.32,0.01,0.58,0.28,0.74,0.55c0.16,0.29,0.26,0.62,0.34,0.94
				c0.32,1.11,1.04,2.58,0.86,3.74c-0.12,0.76-0.54,1.11-1.19,0.63C570.42,417.44,569.51,414.32,570.16,412.98z"/>
			<path class="st1" d="M577.79,407.09c0.55,0.84,0.54,3.92-0.87,2.33c-0.42-0.47-0.66-1.17-0.58-1.81
				C576.45,406.84,577.23,406.23,577.79,407.09z"/>
			<path class="st1" d="M566.88,408.27c0.45,0.63,1.15,2.06,0.73,2.85c-0.32,0.61-0.76,0.33-1.17-0.08
				c-0.54-0.54-0.87-1.36-0.91-2.11C565.46,407.96,566.16,407.26,566.88,408.27z"/>
		</g>
		<g>
			<path class="st1" d="M801.27,456.95c-0.33-0.2-0.74-0.32-1.12-0.21c-0.41,0.12-0.7,0.47-0.96,0.8c-1.44,1.74-9.14,8.54-2.82,8.53
				C799.96,466.09,805.58,459.5,801.27,456.95z"/>
			<path class="st1" d="M801.76,450.85c1.41-0.9,2.94-1.94,3.35-3.56c0.09-0.38,0.11-0.79-0.09-1.13c-0.42-0.7-1.49-0.57-2.25-0.28
				c-1.89,0.73-8.99,4.75-8.98,7.13C793.8,456.81,800.7,451.52,801.76,450.85z"/>
			<path class="st1" d="M809.68,455.13c-0.04,0.16-0.08,0.32-0.05,0.49c0.07,0.42,0.55,0.62,0.98,0.67
				c0.96,0.12,1.94-0.24,2.73-0.79c0.79-0.55,1.44-1.31,2.02-2.07c0.54-0.71,1.05-1.45,1.53-2.2c0.46-0.73,0.88-1.66,0.46-2.4
				c-1-1.73-3.39-0.32-4.34,0.65C811.43,451.06,810.26,452.97,809.68,455.13z"/>
			<path class="st1" d="M813.96,434.05c0.91-0.57,1.99-0.94,3.06-0.82c0.18,0.03,0.38,0.07,0.53,0.18c0.36,0.32,0.16,0.9-0.08,1.32
				c-0.42,0.73-0.9,1.41-1.41,2.07c-0.57,0.71-1.2,1.38-1.99,1.81c-1.04,0.55-3.94,1.5-3.64-0.59
				C810.67,436.36,812.65,434.87,813.96,434.05z"/>
			<path class="st1" d="M820.31,442.01c-0.08,0.25-0.25,0.45-0.44,0.63c-0.4,0.42-0.79,0.86-1.19,1.28
				c-0.2,0.21-0.41,0.44-0.67,0.54c-1.48,0.57-1.69-1.7-0.94-2.48C817.62,441.43,820.7,440.67,820.31,442.01z"/>
			<path class="st1" d="M802.15,474.09c0.13,1.2-0.45,2.45-1.45,3.12c-1.89,1.27-3.11-1.91-2.47-3.36
				C799.01,472.17,801.91,471.92,802.15,474.09z"/>
			<path class="st1" d="M786.12,462.86c-0.4,0.44-0.87,0.83-1.44,1.02c-0.28,0.09-0.59,0.12-0.84-0.01
				c-0.28-0.15-0.44-0.45-0.46-0.75s0.05-0.62,0.15-0.91c0.42-1.25,1.62-3.11,3.23-2.69C788.41,459.96,786.76,462.16,786.12,462.86z
				"/>
			<path class="st1" d="M832.79,432.23c1.83-1.4,3.77-2.73,6-3.34c0.38-0.11,0.8-0.18,1.16-0.01c0.53,0.25,0.7,0.96,0.51,1.52
				c-0.17,0.55-0.61,0.99-1.02,1.4c-2.56,2.49-5.26,4.85-8.07,7.07c-0.7,0.55-1.42,1.09-2.24,1.45c-0.98,0.42-2.51,0.61-3.22-0.4
				c-0.65-0.92,0.21-1.94,0.86-2.58C828.63,435.47,830.72,433.81,832.79,432.23z"/>
			<path class="st1" d="M826.5,428.76c-0.83,1.09-1.91,2.11-3.27,2.32c-0.45,0.07-0.99,0-1.2-0.4c-0.51-0.99,1.34-2.7,2.19-3.05
				C825.26,427.23,827.86,426.97,826.5,428.76z"/>
			<path class="st1" d="M832.62,410.67c1.42-0.57,3.01-0.86,4.51-0.54c0.3,0.07,0.62,0.17,0.79,0.42c0.12,0.18,0.15,0.41,0.15,0.62
				c0,1.12-0.57,2.16-1.2,3.07c-1.25,1.82-2.87,3.35-4.6,4.73c-0.98,0.78-1.99,1.52-3.18,1.91c-1.15,0.38-2.37,0.42-3.59,0.45
				c-0.37,0.01-0.75,0.01-1.11-0.12c-0.84-0.32-1.2-1.36-1.15-2.27c0.08-1.31,0.76-2.52,1.67-3.45c1.02-1.03,2.29-1.78,3.52-2.53
				C829.79,412.15,831.14,411.27,832.62,410.67z"/>
			<path class="st1" d="M843.09,417.48c1.23-0.76,2.61-1.31,4.05-1.34c0.16,0,0.32,0,0.46,0.07c0.26,0.12,0.4,0.45,0.37,0.74
				s-0.17,0.55-0.34,0.79c-0.59,0.9-1.41,1.62-2.22,2.35c-1.11,0.98-3.94,3.24-5.39,1.53C838.78,420.13,842.11,418.08,843.09,417.48
				z"/>
			<path class="st1" d="M860.65,411.62c0.2-0.49,0.4-1.02,0.26-1.53c-0.13-0.5-0.74-0.92-1.19-0.66c-0.2,0.11-0.32,0.3-0.44,0.5
				c-1.45,2.43-2.76,5.05-5,6.79c-0.49,0.38-1.02,0.71-1.42,1.16c-0.41,0.46-0.7,1.08-0.58,1.69c0.53,2.61,4.11-1.24,4.8-2.02
				C858.62,415.81,859.77,413.76,860.65,411.62z"/>
			<path class="st1" d="M853.16,405.08c-0.04-0.16-0.12-0.33-0.28-0.37c-0.07-0.01-0.13-0.01-0.2,0c-0.58,0.08-1.03,0.54-1.38,1
				c-0.5,0.63-2.02,2.33-0.32,2.33C852.2,408.05,853.4,406.19,853.16,405.08z"/>
			<path class="st1" d="M849.78,398.91c0.15-0.3,0.26-0.62,0.33-0.95c0.04-0.24,0.03-0.51-0.17-0.66c-0.11-0.08-0.24-0.11-0.37-0.12
				c-0.88-0.03-1.58,0.69-2.16,1.34c-0.4,0.45-0.78,0.88-1.17,1.33c-0.54,0.62-1.37,1.56-1.15,2.48c0.17,0.69,0.66,0.69,1.24,0.45
				C847.88,402.15,849.1,400.36,849.78,398.91z"/>
			<path class="st1" d="M862.42,396.58c-0.16-0.28-0.46-0.49-0.78-0.45s-0.55,0.32-0.69,0.62c-0.15,0.3-0.21,0.63-0.28,0.96
				c-0.22,1.12-0.83,2.66-0.55,3.8c0.18,0.75,0.63,1.07,1.23,0.54C862.51,401.05,863.17,397.87,862.42,396.58z"/>
			<path class="st1" d="M854.34,391.32c-0.49,0.9-0.22,3.94,1.05,2.25c0.38-0.5,0.55-1.23,0.42-1.85
				C855.66,390.96,854.83,390.42,854.34,391.32z"/>
			<path class="st1" d="M865.31,391.62c-0.4,0.66-0.98,2.15-0.5,2.9c0.37,0.58,0.79,0.26,1.16-0.17c0.49-0.58,0.76-1.42,0.74-2.18
				C866.69,391.2,865.94,390.55,865.31,391.62z"/>
		</g>
		<g>
			<path class="st1" d="M606.93,339.53c9.2,0.69,18.3-3.92,23.26-11.68c0.41-0.63-0.61-1.23-1-0.59
				c-4.75,7.45-13.46,11.77-22.24,11.1C606.18,338.3,606.18,339.47,606.93,339.53L606.93,339.53z"/>
		</g>
		<g>
			<path class="st1" d="M631.72,338.56c3.59-3.23,6.57-7,8.94-11.19c1.23-2.15,2.4-4.39,4.34-5.99c2.1-1.71,4.71-2.57,7.4-2.56
				c0.75,0,0.75-1.16,0-1.16c-5.02-0.01-8.94,2.72-11.48,6.91c-1.36,2.23-2.54,4.52-4.09,6.65c-1.74,2.39-3.74,4.56-5.93,6.54
				C630.34,338.25,631.17,339.06,631.72,338.56L631.72,338.56z"/>
		</g>
		<g>
			<path class="st1" d="M637.43,319.5c1.81-1.94,3.69-3.92,6.34-4.61c0.73-0.18,0.42-1.32-0.32-1.12c-2.85,0.74-4.92,2.82-6.86,4.9
				C636.1,319.23,636.91,320.05,637.43,319.5L637.43,319.5z"/>
		</g>
		<g>
			<path class="st1" d="M649.98,313.22c3.24-0.33,6.49-0.44,9.74-0.29c0.75,0.03,0.75-1.13,0-1.16c-3.26-0.13-6.5-0.04-9.74,0.29
				C649.24,312.14,649.24,313.3,649.98,313.22L649.98,313.22z"/>
		</g>
		<g>
			<path class="st1" d="M583.21,349.53c7.82-0.03,15.78-0.17,23.05-3.38c0.69-0.3,0.09-1.31-0.59-1
				c-7.05,3.11-14.89,3.19-22.47,3.22C582.46,348.37,582.46,349.55,583.21,349.53L583.21,349.53z"/>
		</g>
		<g>
			<path class="st1" d="M602.11,351.93c6.92-0.08,13.66-2.02,19.54-5.67c0.63-0.4,0.05-1.4-0.59-1c-5.72,3.53-12.22,5.43-18.95,5.51
				C601.35,350.77,601.35,351.95,602.11,351.93L602.11,351.93z"/>
		</g>
		<g>
			<path class="st1" d="M735.82,313.45c-1.93,1.52-3.8,3.41-4.43,5.85c-0.57,2.16,0.51,3.38,2.44,4.15c0.7,0.28,1-0.84,0.32-1.12
				c-4.25-1.73,0.47-6.46,2.51-8.06C737.23,313.8,736.4,312.98,735.82,313.45L735.82,313.45z"/>
		</g>
		<g>
			<path class="st1" d="M736.13,325.06c2.32,1.37,4.96,1.52,7.59,1.56c0.75,0.01,0.75-1.15,0-1.16c-2.43-0.04-4.87-0.13-7-1.4
				C736.07,323.68,735.49,324.68,736.13,325.06L736.13,325.06z"/>
		</g>
		<g>
			<path class="st1" d="M748.88,326.63c1.61,0,3.2,0,4.81,0c0.75,0,0.75-1.16,0-1.16c-1.61,0-3.2,0-4.81,0
				C748.13,325.46,748.13,326.63,748.88,326.63L748.88,326.63z"/>
		</g>
		<g>
			<path class="st1" d="M706.78,339.99c-5.37,0.08-10.69-0.38-15.97-1.42c-0.74-0.15-1.04,0.98-0.32,1.12
				c5.37,1.05,10.8,1.54,16.27,1.46C707.53,341.13,707.53,339.97,706.78,339.99L706.78,339.99z"/>
		</g>
		<g>
			<path class="st1" d="M683.56,337.61c-2.97-0.03-6.66-0.13-9.22,1.61c-0.62,0.42-0.04,1.44,0.59,1c2.37-1.62,5.88-1.48,8.64-1.45
				C684.32,338.79,684.32,337.61,683.56,337.61L683.56,337.61z"/>
		</g>
		<g>
			<path class="st1" d="M671.09,342.35c-0.63,0.42-1.25,0.84-1.89,1.27c-0.62,0.42-0.04,1.42,0.59,1s1.25-0.84,1.89-1.27
				C672.29,342.94,671.71,341.92,671.09,342.35L671.09,342.35z"/>
		</g>
		<g>
			<path class="st1" d="M788.45,316.81c2.93,1.2,5.78,2.56,7.61,5.26c1.58,2.33,2.72,4.9,4.42,7.19c3.05,4.07,6.97,7.4,11.79,9.14
				c0.71,0.25,1.02-0.87,0.32-1.12c-5.43-1.96-9.68-6.13-12.71-10.96c-1.41-2.24-2.41-4.83-4.34-6.7c-1.89-1.85-4.35-2.91-6.76-3.9
				C788.07,315.4,787.77,316.52,788.45,316.81L788.45,316.81z"/>
		</g>
		<g>
			<path class="st1" d="M833.77,121.96c0.2,0.28,0.41,0.57,0.71,0.71c0.32,0.15,0.74,0.08,0.9-0.22c0.08-0.15,0.08-0.32,0.08-0.47
				c-0.03-1.12-0.38-5.18-2.23-4.76C831.16,117.69,833.15,121.05,833.77,121.96z"/>
			<path class="st1" d="M833.53,113.48c0.17,0.7,0.74,1.29,1.42,1.5c0.3,0.09,0.69,0.08,0.87-0.18c0.11-0.15,0.11-0.33,0.12-0.51
				c0.01-0.55-0.04-1.12-0.3-1.61C834.92,111.33,833.18,111.96,833.53,113.48z"/>
			<path class="st1" d="M842.67,127.23c0.65,0.58,1.41,1.12,2.27,1.24c0.28,0.04,0.59,0.01,0.79-0.17c0.12-0.11,0.17-0.26,0.21-0.41
				c0.16-0.69-0.17-1.37-0.5-1.99c-0.66-1.24-3.56-6.46-5.56-5C837.95,122.29,841.69,126.34,842.67,127.23z"/>
			<path class="st1" d="M841.77,135.66c0.09,0.01,0.2,0.03,0.3,0c0.2-0.07,0.29-0.29,0.33-0.49c0.18-0.98-0.32-1.94-0.83-2.78
				c-0.62-0.99-3.96-4.9-4.51-1.86C836.66,132.69,839.89,135.31,841.77,135.66z"/>
			<path class="st1" d="M827.77,107.69c-0.01-0.26,0.01-0.55,0.16-0.76c0.15-0.21,0.46-0.36,0.69-0.22
				c0.18,0.11,0.26,0.32,0.33,0.51c0.21,0.67,1.33,2.83,0.25,3.2C828.16,110.76,827.8,108.36,827.77,107.69z"/>
			<path class="st1" d="M848.87,135.66c0,0.09-0.01,0.2-0.08,0.28c-0.11,0.16-0.33,0.2-0.51,0.17c-0.79-0.09-2.36-1.58-1.36-2.27
				C848.05,133.07,848.92,134.76,848.87,135.66z"/>
			<path class="st1" d="M839.1,115.96c-0.16,0.55,0.38,1.19,0.96,1.12c0.58-0.08,0.94-0.82,0.65-1.32c-0.29-0.5-1.12-0.54-1.46-0.08
				L839.1,115.96z"/>
			<path class="st1" d="M836.5,107.64c-0.25,0.25-0.17,0.71,0.09,0.95c0.26,0.25,0.62,0.33,0.98,0.4c0.26,0.05,0.57,0.08,0.76-0.11
				c0.15-0.13,0.18-0.33,0.2-0.51c0.03-0.75-0.58-1.49-1.32-1.54c-0.34-0.03-0.74,0.15-0.82,0.47L836.5,107.64z"/>
			<path class="st1" d="M840.36,111.98c-0.15,0.24,0,0.55,0.22,0.7c0.22,0.15,0.51,0.17,0.78,0.18c0.33,0.03,0.69,0.04,0.94-0.17
				c0.28-0.22,0.29-0.67,0.12-0.98c-0.18-0.3-0.51-0.49-0.87-0.58c-0.25-0.05-0.51-0.07-0.75,0.03c-0.24,0.11-0.42,0.34-0.41,0.59
				L840.36,111.98z"/>
			<path class="st1" d="M845.35,142.97c0.18,0.26,0.47,0.53,0.78,0.45c0.21-0.05,0.36-0.24,0.44-0.44c0.24-0.53,0.22-1.13,0.09-1.69
				s-0.38-1.08-0.59-1.62c-0.38-0.96-1.53-1.67-1.85-0.21C843.99,140.61,844.7,142.08,845.35,142.97z"/>
			<path class="st1" d="M852.06,144.99c0.11-0.01,0.21-0.05,0.29-0.13c0.13-0.12,0.17-0.3,0.18-0.47c0.05-0.67-1.02-3.69-1.89-2.35
				C850.07,142.95,850.78,145.2,852.06,144.99z"/>
			<path class="st1" d="M849.13,148.7c-0.01,0.25,0,0.51,0.11,0.75c0.15,0.33,0.47,0.57,0.8,0.71c0.09,0.04,0.2,0.08,0.3,0.07
				c0.16-0.01,0.29-0.15,0.38-0.26c0.28-0.34,0.47-0.76,0.5-1.21c0.03-0.45-0.15-0.91-0.49-1.19
				C849.7,146.68,849.16,147.79,849.13,148.7z"/>
			<path class="st1" d="M849.05,157.12c0.03,0.54,0.24,1.15,0.73,1.38c0.51,0.25,1.15,0.01,1.6-0.36c0.82-0.66,1.31-1.7,1.28-2.74
				c-0.01-0.46-0.15-0.98-0.53-1.24c-0.59-0.41-1.63-0.12-2.15,0.33C849.29,155.11,849,156.27,849.05,157.12z"/>
			<path class="st1" d="M855.08,151.27c0.38-0.13,0.86,0.09,1,0.47s-0.08,0.86-0.46,1s-0.86-0.07-1.02-0.44
				c-0.16-0.38,0.05-0.86,0.42-1.02L855.08,151.27z"/>
			<path class="st1" d="M848.47,165.3c0.18,0.55,0.9,0.9,1.42,0.65c0.17-0.08,0.32-0.22,0.44-0.37c0.26-0.34,0.41-0.82,0.24-1.23
				C850.01,162.98,848.02,163.98,848.47,165.3z"/>
			<path class="st1" d="M854.4,162.81c-0.01,0.86,0.07,1.78,0.63,2.43c0.21,0.25,0.51,0.45,0.83,0.46c0.44,0.01,0.82-0.29,1.02-0.67
				c0.2-0.38,0.24-0.82,0.25-1.25c0.03-0.58,0-1.17-0.21-1.71c-0.28-0.69-1.2-1.63-2.03-1.49
				C854.18,160.68,854.42,162.23,854.4,162.81z"/>
			<path class="st1" d="M855.35,173.95c0.33,0.13,0.71,0.22,1.03,0.08c0.47-0.2,0.66-0.79,0.65-1.31c-0.03-1.04-0.58-1.99-1.21-2.82
				c-0.32-0.41-0.66-0.8-1.11-1.05c-0.45-0.25-1.03-0.32-1.48-0.05C851.21,169.95,854.06,173.42,855.35,173.95z"/>
			<path class="st1" d="M847.07,160.15c-0.18,0.34-0.26,0.75-0.2,1.13c0.05,0.32,0.24,0.67,0.57,0.7c0.37,0.04,0.63-0.36,0.71-0.73
				c0.08-0.33,0.08-0.7-0.12-0.96s-0.66-0.34-0.86-0.08L847.07,160.15z"/>
			<path class="st1" d="M811.74,150.75c-0.32,0.66-0.47,1.38-0.61,2.11c-0.03,0.16-0.04,0.34,0.09,0.44
				c0.05,0.04,0.13,0.04,0.2,0.05c0.2,0.01,0.4,0.03,0.58-0.04c0.18-0.07,0.33-0.2,0.47-0.34c0.65-0.65,1.16-1.42,1.49-2.28
				c0.22-0.58,0.24-1.66-0.65-1.53C812.62,149.26,812.01,150.2,811.74,150.75z"/>
			<path class="st1" d="M810.87,156.57c0.01,0.26,0.11,0.55,0.34,0.69c0.3,0.16,0.67-0.03,0.92-0.26c0.3-0.29,0.5-0.7,0.51-1.11
				c0.01-0.49-0.46-1.34-1.07-1.08C811.12,154.99,810.85,156.16,810.87,156.57z"/>
			<path class="st1" d="M808.2,156.79c-0.29,0.16-0.5,0.44-0.58,0.76c-0.05,0.2-0.03,0.45,0.16,0.54c0.08,0.04,0.16,0.04,0.24,0.03
				c0.29-0.03,0.59-0.12,0.82-0.32c0.21-0.21,0.32-0.55,0.17-0.82c-0.13-0.26-0.53-0.38-0.75-0.17L808.2,156.79z"/>
			<path class="st1" d="M808.52,152.69c-0.11,0.05-0.21,0.09-0.28,0.18c-0.07,0.09-0.08,0.24,0,0.3c0.04,0.04,0.09,0.05,0.13,0.07
				c0.21,0.05,0.45,0.07,0.62-0.05c0.17-0.12,0.25-0.4,0.12-0.57s-0.45-0.16-0.53,0.04L808.52,152.69z"/>
			<path class="st1" d="M815.01,146.84c-0.29,0.18-0.55,0.41-0.75,0.69c-0.08,0.09-0.15,0.21-0.16,0.33
				c-0.01,0.25,0.25,0.44,0.5,0.44c0.25-0.01,0.46-0.16,0.65-0.33c0.18-0.16,0.36-0.36,0.38-0.59c0.03-0.24-0.18-0.51-0.42-0.46
				L815.01,146.84z"/>
			<path class="st1" d="M811.59,160.95c0,0.28,0.11,0.59,0.37,0.7c0.22,0.08,0.46-0.01,0.67-0.13c0.25-0.13,0.49-0.29,0.67-0.51
				c0.18-0.22,0.29-0.51,0.24-0.79c-0.07-0.33-0.33-0.57-0.61-0.76C812.09,158.86,811.58,160.25,811.59,160.95z"/>
			<path class="st1" d="M813.73,163.29c-0.2,0.09-0.28,0.37-0.21,0.58c0.08,0.21,0.29,0.36,0.5,0.4c0.16,0.04,0.36,0.01,0.46-0.12
				c0.08-0.11,0.08-0.24,0.08-0.36c0-0.12,0-0.24-0.04-0.34s-0.15-0.2-0.26-0.18c-0.12,0.01-0.24,0.12-0.34,0.07L813.73,163.29z"/>
			<path class="st1" d="M808.99,163.57c-0.13,0.22-0.16,0.53-0.01,0.75c0.09,0.13,0.24,0.22,0.4,0.28c0.3,0.09,0.66,0.03,0.88-0.18
				c0.22-0.22,0.3-0.59,0.15-0.87c-0.16-0.28-0.54-0.41-0.82-0.25C809.59,163.29,809.13,163.35,808.99,163.57z"/>
		</g>
		<g>
			<path class="st1" d="M593.63,122.05c-0.2,0.28-0.41,0.57-0.71,0.71c-0.32,0.15-0.74,0.08-0.9-0.22
				c-0.08-0.15-0.08-0.32-0.08-0.47c0.03-1.12,0.38-5.18,2.23-4.76C596.25,117.78,594.26,121.14,593.63,122.05z"/>
			<path class="st1" d="M593.87,113.57c-0.17,0.7-0.74,1.29-1.42,1.5c-0.3,0.09-0.69,0.08-0.87-0.18c-0.11-0.15-0.11-0.33-0.12-0.51
				c-0.01-0.55,0.04-1.12,0.3-1.61C592.49,111.42,594.23,112.06,593.87,113.57z"/>
			<path class="st1" d="M584.73,127.31c-0.65,0.58-1.41,1.12-2.27,1.24c-0.28,0.04-0.59,0.01-0.79-0.17
				c-0.12-0.11-0.17-0.26-0.21-0.41c-0.16-0.69,0.17-1.37,0.5-1.99c0.66-1.24,3.56-6.46,5.56-5
				C589.46,122.38,585.72,126.43,584.73,127.31z"/>
			<path class="st1" d="M585.64,135.75c-0.09,0.01-0.2,0.03-0.3,0c-0.2-0.07-0.29-0.29-0.33-0.49c-0.18-0.98,0.32-1.94,0.83-2.78
				c0.62-0.99,3.96-4.9,4.51-1.86C590.75,132.78,587.51,135.41,585.64,135.75z"/>
			<path class="st1" d="M599.64,107.78c0.01-0.26-0.01-0.55-0.16-0.76c-0.15-0.22-0.46-0.36-0.69-0.22
				c-0.18,0.11-0.26,0.32-0.33,0.51c-0.21,0.67-1.33,2.83-0.25,3.2C599.23,110.86,599.61,108.46,599.64,107.78z"/>
			<path class="st1" d="M578.53,135.75c0,0.09,0.01,0.2,0.07,0.28c0.11,0.16,0.33,0.2,0.51,0.17c0.79-0.09,2.36-1.58,1.36-2.27
				C579.36,133.17,578.48,134.85,578.53,135.75z"/>
			<path class="st1" d="M588.3,116.05c0.16,0.55-0.38,1.19-0.96,1.12c-0.58-0.08-0.94-0.82-0.65-1.32c0.29-0.5,1.12-0.54,1.46-0.08
				L588.3,116.05z"/>
			<path class="st1" d="M590.9,107.73c0.25,0.25,0.17,0.71-0.09,0.95c-0.26,0.25-0.62,0.33-0.98,0.4c-0.26,0.05-0.57,0.08-0.76-0.11
				c-0.15-0.13-0.18-0.33-0.2-0.51c-0.03-0.75,0.58-1.49,1.32-1.54c0.34-0.03,0.74,0.15,0.82,0.47L590.9,107.73z"/>
			<path class="st1" d="M587.04,112.07c0.15,0.24,0,0.55-0.22,0.7s-0.51,0.17-0.78,0.18c-0.33,0.03-0.69,0.04-0.94-0.17
				c-0.28-0.22-0.29-0.67-0.12-0.98c0.18-0.3,0.51-0.49,0.87-0.58c0.25-0.05,0.51-0.07,0.75,0.03c0.24,0.11,0.42,0.34,0.41,0.59
				L587.04,112.07z"/>
			<path class="st1" d="M582.05,143.07c-0.18,0.26-0.47,0.53-0.78,0.45c-0.21-0.05-0.36-0.24-0.44-0.44
				c-0.24-0.53-0.22-1.13-0.09-1.69s0.38-1.08,0.59-1.62c0.38-0.96,1.53-1.67,1.85-0.21C583.41,140.71,582.71,142.17,582.05,143.07z
				"/>
			<path class="st1" d="M575.35,145.07c-0.11-0.01-0.21-0.05-0.29-0.13c-0.13-0.12-0.17-0.3-0.18-0.47
				c-0.05-0.67,1.02-3.69,1.89-2.35C577.34,143.04,576.62,145.3,575.35,145.07z"/>
			<path class="st1" d="M578.28,148.79c0.01,0.25,0,0.51-0.11,0.75c-0.15,0.34-0.47,0.57-0.8,0.71c-0.09,0.04-0.2,0.08-0.3,0.07
				c-0.16-0.01-0.29-0.15-0.38-0.26c-0.28-0.34-0.47-0.76-0.5-1.21s0.15-0.91,0.49-1.19C577.7,146.77,578.24,147.87,578.28,148.79z"
				/>
			<path class="st1" d="M578.36,157.21c-0.03,0.54-0.24,1.15-0.73,1.38c-0.51,0.25-1.15,0.01-1.6-0.36
				c-0.82-0.66-1.31-1.7-1.28-2.74c0.01-0.46,0.15-0.98,0.53-1.24c0.59-0.41,1.63-0.12,2.15,0.33
				C578.12,155.2,578.4,156.36,578.36,157.21z"/>
			<path class="st1" d="M572.33,151.36c-0.38-0.13-0.86,0.09-1,0.47c-0.15,0.38,0.08,0.86,0.46,1c0.38,0.15,0.86-0.07,1.02-0.44
				c0.16-0.38-0.05-0.86-0.42-1.02L572.33,151.36z"/>
			<path class="st1" d="M578.93,165.39c-0.18,0.55-0.9,0.9-1.42,0.65c-0.17-0.08-0.32-0.22-0.44-0.37
				c-0.26-0.34-0.41-0.82-0.24-1.23C577.38,163.07,579.38,164.06,578.93,165.39z"/>
			<path class="st1" d="M572.99,162.88c0.01,0.86-0.07,1.78-0.63,2.43c-0.21,0.25-0.51,0.45-0.83,0.46
				c-0.44,0.01-0.82-0.29-1.02-0.67c-0.2-0.38-0.24-0.82-0.25-1.25c-0.03-0.58-0.01-1.17,0.21-1.71c0.28-0.69,1.2-1.63,2.03-1.49
				C573.22,160.76,572.98,162.32,572.99,162.88z"/>
			<path class="st1" d="M572.04,174.03c-0.33,0.13-0.71,0.22-1.03,0.08c-0.47-0.2-0.66-0.79-0.65-1.31
				c0.03-1.04,0.58-1.99,1.21-2.82c0.32-0.41,0.66-0.8,1.11-1.05c0.45-0.25,1.03-0.32,1.48-0.05
				C576.18,170.04,573.34,173.51,572.04,174.03z"/>
			<path class="st1" d="M580.32,160.25c0.18,0.34,0.26,0.75,0.2,1.13c-0.05,0.32-0.24,0.67-0.57,0.7c-0.37,0.04-0.63-0.36-0.71-0.73
				c-0.08-0.33-0.08-0.7,0.12-0.96c0.2-0.26,0.66-0.34,0.86-0.08L580.32,160.25z"/>
			<path class="st1" d="M615.67,150.27c0.32,0.66,0.47,1.38,0.61,2.11c0.03,0.16,0.04,0.34-0.09,0.44c-0.05,0.04-0.13,0.04-0.2,0.05
				c-0.2,0.01-0.4,0.03-0.58-0.04s-0.33-0.2-0.47-0.34c-0.65-0.65-1.16-1.42-1.49-2.28c-0.22-0.58-0.24-1.66,0.65-1.53
				C614.78,148.76,615.4,149.7,615.67,150.27z"/>
			<path class="st1" d="M616.53,156.08c-0.01,0.26-0.11,0.55-0.34,0.69c-0.3,0.16-0.67-0.03-0.91-0.26c-0.3-0.29-0.5-0.7-0.51-1.11
				c-0.01-0.49,0.46-1.34,1.07-1.08C616.28,154.5,616.56,155.66,616.53,156.08z"/>
			<path class="st1" d="M619.21,156.3c0.29,0.16,0.5,0.44,0.58,0.76c0.05,0.2,0.03,0.45-0.16,0.54c-0.08,0.04-0.16,0.04-0.24,0.03
				c-0.29-0.03-0.59-0.12-0.82-0.32c-0.21-0.21-0.32-0.55-0.17-0.82c0.13-0.26,0.53-0.38,0.75-0.17L619.21,156.3z"/>
			<path class="st1" d="M618.88,152.2c0.11,0.05,0.21,0.09,0.28,0.18s0.08,0.24,0,0.3c-0.04,0.04-0.09,0.05-0.13,0.07
				c-0.21,0.05-0.45,0.07-0.62-0.05c-0.17-0.12-0.25-0.4-0.12-0.57c0.13-0.17,0.45-0.16,0.53,0.04L618.88,152.2z"/>
			<path class="st1" d="M612.4,146.35c0.29,0.18,0.55,0.41,0.75,0.69c0.08,0.09,0.15,0.21,0.16,0.33c0.01,0.25-0.25,0.44-0.5,0.44
				c-0.25-0.01-0.46-0.16-0.65-0.33c-0.18-0.16-0.36-0.36-0.38-0.59c-0.03-0.24,0.18-0.51,0.42-0.46L612.4,146.35z"/>
			<path class="st1" d="M615.81,160.46c0,0.28-0.11,0.59-0.37,0.7c-0.22,0.08-0.46-0.01-0.67-0.13c-0.25-0.13-0.49-0.29-0.67-0.51
				c-0.18-0.22-0.29-0.51-0.24-0.79c0.07-0.33,0.33-0.57,0.61-0.76C615.3,158.38,615.82,159.76,615.81,160.46z"/>
			<path class="st1" d="M613.68,162.81c0.2,0.09,0.28,0.37,0.21,0.58c-0.08,0.21-0.29,0.36-0.5,0.4c-0.16,0.04-0.36,0.01-0.46-0.12
				c-0.08-0.11-0.08-0.24-0.08-0.36c0-0.12,0-0.24,0.04-0.34s0.15-0.2,0.26-0.18c0.12,0.01,0.24,0.12,0.34,0.07L613.68,162.81z"/>
			<path class="st1" d="M618.4,163.08c0.13,0.22,0.16,0.53,0.01,0.75c-0.09,0.13-0.24,0.22-0.4,0.28c-0.3,0.09-0.66,0.03-0.88-0.18
				c-0.22-0.22-0.3-0.59-0.15-0.87c0.16-0.28,0.54-0.41,0.82-0.25C617.81,162.81,618.27,162.86,618.4,163.08z"/>
		</g>
		<g>
			<path class="st1" d="M883.57,200.87c0.29,9.2,0.54,18.53-2.02,27.46c-0.21,0.73,0.92,1.03,1.12,0.32
				c2.57-9.03,2.35-18.47,2.06-27.77C884.72,200.13,883.54,200.12,883.57,200.87L883.57,200.87z"/>
		</g>
		<g>
			<path class="st1" d="M878.19,189.76c1.07,4.65,1.46,9.4,1.2,14.17c-0.04,0.75,1.12,0.75,1.16,0c0.26-4.88-0.15-9.73-1.24-14.48
				C879.15,188.71,878.02,189.02,878.19,189.76L878.19,189.76z"/>
		</g>
		<g>
			<path class="st1" d="M879.28,209.49c-0.36,6.32-1.11,12.59-2.25,18.82c-0.13,0.74,0.99,1.04,1.12,0.32
				c1.17-6.33,1.94-12.71,2.31-19.13C880.48,208.74,879.32,208.74,879.28,209.49L879.28,209.49z"/>
		</g>
		<g>
			<path class="st1" d="M873.55,222.86c-0.33,2.03-0.66,4.06-0.99,6.09c-0.12,0.74,1,1.05,1.12,0.32c0.33-2.03,0.66-4.06,0.99-6.09
				C874.8,222.44,873.67,222.12,873.55,222.86L873.55,222.86z"/>
		</g>
		<g>
			<path class="st1" d="M827.89,297.94c0.22-3.59,0.9-6.97,2.89-10.03c1.74-2.69,4.1-4.9,6.41-7.11c0.54-0.51-0.28-1.34-0.83-0.83
				c-2.51,2.37-5.05,4.8-6.87,7.77c-1.91,3.11-2.56,6.61-2.77,10.19C826.67,298.69,827.84,298.69,827.89,297.94L827.89,297.94z"/>
		</g>
		<g>
			<path class="st1" d="M836.45,286.82c4.19-4.3,8.02-8.93,11.43-13.87c0.42-0.62-0.58-1.2-1-0.59c-3.36,4.85-7.12,9.4-11.25,13.63
				C835.1,286.53,835.93,287.36,836.45,286.82L836.45,286.82z"/>
		</g>
		<g>
			<path class="st1" d="M929.11,313.33c0.74-3.49,2.37-6.62,4.87-9.18c0.53-0.54-0.3-1.37-0.83-0.83c-2.61,2.7-4.39,6.01-5.17,9.69
				C927.83,313.75,928.95,314.05,929.11,313.33L929.11,313.33z"/>
		</g>
		<g>
			<path class="st1" d="M934.9,308.99c4.01-5.34,8.75-10.1,14.08-14.12c0.59-0.45,0.01-1.46-0.59-1c-5.5,4.15-10.36,9.03-14.5,14.54
				C933.43,309,934.45,309.58,934.9,308.99L934.9,308.99z"/>
		</g>
		<g>
			<path class="st1" d="M879.01,372.86c1.49-1.9,3.3-3.56,5.1-5.16c1.99-1.75,4.29-3.16,7.03-2.8c0.74,0.11,0.74-1.07,0-1.16
				c-2.56-0.34-4.87,0.74-6.83,2.28c-2.22,1.74-4.38,3.8-6.13,6.01C877.73,372.62,878.55,373.45,879.01,372.86L879.01,372.86z"/>
		</g>
		<g>
			<path class="st1" d="M875.68,373.38c0.34-0.99,0.8-1.91,1.4-2.78c0.42-0.62-0.59-1.21-1-0.59c-0.65,0.95-1.15,1.98-1.52,3.06
				C874.33,373.78,875.45,374.08,875.68,373.38L875.68,373.38z"/>
		</g>
		<g>
			<path class="st1" d="M946.95,399.58c8.02-1.05,14-6.59,19.59-12c0.54-0.53-0.29-1.34-0.83-0.83
				c-5.31,5.14-11.1,10.64-18.76,11.66C946.22,398.52,946.21,399.69,946.95,399.58L946.95,399.58z"/>
		</g>
		<g>
			<path class="st1" d="M956.81,389.64c4.93-2.87,9.64-6.26,12.76-11.13c0.41-0.63-0.61-1.21-1-0.59
				c-3.02,4.69-7.59,7.94-12.34,10.71C955.57,389.01,956.17,390.02,956.81,389.64L956.81,389.64z"/>
		</g>
		<g>
			<path class="st1" d="M886.94,416.3c-0.91,3.56,0.62,7.11,3.9,8.77c0.67,0.34,1.25-0.67,0.59-1c-2.83-1.44-4.17-4.35-3.38-7.45
				C888.26,415.89,887.13,415.58,886.94,416.3L886.94,416.3z"/>
		</g>
		<g>
			<path class="st1" d="M882.69,423.36c1.57,2.72,3.49,5.56,6.92,5.76c0.75,0.04,0.75-1.12,0-1.16c-2.95-0.17-4.59-2.87-5.92-5.18
				C883.3,422.12,882.3,422.71,882.69,423.36L882.69,423.36z"/>
		</g>
		<g>
			<path class="st1" d="M895.7,475.34c-5.81-2.83-12.25-3.39-18.6-3.85c-0.75-0.05-0.75,1.11,0,1.16
				c6.13,0.45,12.41,0.95,18.01,3.69C895.78,476.69,896.37,475.67,895.7,475.34L895.7,475.34z"/>
		</g>
		<g>
			<path class="st1" d="M871.68,472.22c-7.41-0.53-14.85-0.67-22.27-0.44c-0.75,0.03-0.75,1.19,0,1.16
				c7.42-0.24,14.86-0.09,22.27,0.44C872.43,473.43,872.41,472.27,871.68,472.22L871.68,472.22z"/>
		</g>
		<g>
			<path class="st1" d="M917.18,536.79c-2.2,5.19-3.38,10.69-3.43,16.34c-0.01,0.75,1.16,0.75,1.16,0
				c0.07-5.42,1.16-10.75,3.27-15.74C918.47,536.7,917.47,536.1,917.18,536.79L917.18,536.79z"/>
		</g>
		<g>
			<path class="st1" d="M920.58,542.93c1.73-5.56,4.26-10.81,7.53-15.64c0.42-0.62-0.59-1.21-1-0.59
				c-3.32,4.9-5.88,10.26-7.65,15.91C919.23,543.33,920.36,543.64,920.58,542.93L920.58,542.93z"/>
		</g>
		<g>
			<path class="st1" d="M851.75,563.55c6.01-5.8,10.81-12.71,14.15-20.37c0.29-0.69-0.71-1.28-1-0.59
				c-3.3,7.57-8.03,14.4-13.96,20.13C850.38,563.25,851.21,564.08,851.75,563.55L851.75,563.55z"/>
		</g>
		<g>
			<path class="st1" d="M830.45,505.2c4.58,1.07,9.07,2.4,13.49,3.98c0.71,0.25,1.02-0.87,0.32-1.12
				c-4.42-1.58-8.91-2.91-13.49-3.98C830.02,503.9,829.72,505.02,830.45,505.2L830.45,505.2z"/>
		</g>
		<g>
			<path class="st1" d="M820.61,499.88c1.81,0.4,3.61,0.62,5.46,0.67c0.75,0.01,0.75-1.15,0-1.16c-1.74-0.04-3.45-0.25-5.16-0.62
				C820.19,498.6,819.87,499.72,820.61,499.88L820.61,499.88z"/>
		</g>
		<g>
			<path class="st1" d="M589.21,213.46c0.59,3.43,2.15,6.58,2.77,9.99c0.71,3.93-0.26,7.81-2.08,11.3c-0.34,0.66,0.66,1.25,1,0.59
				c1.75-3.38,2.83-7.16,2.39-11c-0.46-3.86-2.29-7.37-2.95-11.19C590.2,212.41,589.08,212.72,589.21,213.46L589.21,213.46z"/>
		</g>
		<g>
			<path class="st1" d="M592.32,207.15c-0.08,3.26,0.58,6.39,1.9,9.37c0.3,0.69,1.31,0.09,1-0.59c-1.24-2.8-1.81-5.74-1.74-8.78
				C593.5,206.4,592.34,206.4,592.32,207.15L592.32,207.15z"/>
		</g>
		<g>
			<path class="st1" d="M589.25,207.33c0.04-1.08-0.07-2.23,0.18-3.3c0.3-1.27,1.08-1.95,2.16-2.6c0.65-0.38,0.05-1.4-0.59-1
				c-1.08,0.65-2.02,1.34-2.48,2.56c-0.53,1.38-0.4,2.9-0.46,4.34C588.06,208.08,589.22,208.08,589.25,207.33L589.25,207.33z"/>
		</g>
		<g>
			<path class="st1" d="M565.32,249.09c-0.3,3.47-1.82,6.66-2.31,10.1c-0.45,3.16-0.28,6.36,0.01,9.52c0.07,0.74,1.24,0.75,1.16,0
				c-0.32-3.43-0.53-6.92,0.13-10.34c0.61-3.14,1.87-6.08,2.16-9.28C566.56,248.35,565.39,248.35,565.32,249.09L565.32,249.09z"/>
		</g>
		<g>
			<path class="st1" d="M557.21,264.78c-0.22,6.12,0.13,13.29,5.87,16.94c0.63,0.41,1.23-0.61,0.59-1c-5.35-3.4-5.5-10.27-5.3-15.93
				C558.41,264.03,557.24,264.04,557.21,264.78L557.21,264.78z"/>
		</g>
		<g>
			<path class="st1" d="M565.4,278.12c1.56,3.32,4.9,5.39,6.29,8.81c0.28,0.69,1.41,0.38,1.12-0.32c-1.44-3.53-4.81-5.67-6.39-9.08
				C566.1,276.86,565.1,277.44,565.4,278.12L565.4,278.12z"/>
		</g>
		<g>
			<path class="st1" d="M618.82,314.33c-2.28,5.85-8.02,9.39-14.25,8.98c-0.75-0.05-0.75,1.12,0,1.16
				c6.8,0.45,12.91-3.52,15.39-9.84C620.22,313.93,619.1,313.63,618.82,314.33L618.82,314.33z"/>
		</g>
		<g>
			<path class="st1" d="M603.31,318.61c-3.34,2.29-7.52,2.11-11.21,3.51c-3.16,1.2-5.68,3.57-7.09,6.65c-0.32,0.67,0.7,1.27,1,0.59
				c1.61-3.52,4.55-5.75,8.27-6.7c3.28-0.84,6.74-1.07,9.61-3.05C604.51,319.21,603.93,318.19,603.31,318.61L603.31,318.61z"/>
		</g>
		<g>
			<path class="st1" d="M506.07,319.64c4.58,7.71,9.15,15.43,13.71,23.14c0.38,0.65,1.38,0.05,1-0.59
				c-4.58-7.71-9.15-15.43-13.71-23.14C506.69,318.4,505.68,318.98,506.07,319.64L506.07,319.64z"/>
		</g>
		<g>
			<path class="st1" d="M495.61,314.96c3.06,5.31,5.85,11.09,10.27,15.44c0.54,0.53,1.36-0.29,0.83-0.83
				c-4.34-4.27-7.07-9.99-10.09-15.22C496.24,313.72,495.24,314.32,495.61,314.96L495.61,314.96z"/>
		</g>
		<g>
			<path class="st1" d="M479.08,269.17c-0.13-2.2,0.08-4.35,0.66-6.49c0.2-0.73-0.92-1.03-1.12-0.32c-0.61,2.23-0.84,4.48-0.7,6.79
				C477.96,269.92,479.12,269.92,479.08,269.17L479.08,269.17z"/>
		</g>
		<g>
			<path class="st1" d="M471.49,381.78c4.68,3.4,8.83,7.81,11.1,13.2c0.29,0.69,1.41,0.38,1.12-0.32c-2.4-5.7-6.68-10.3-11.64-13.9
				C471.48,380.33,470.89,381.35,471.49,381.78L471.49,381.78z"/>
		</g>
		<g>
			<path class="st1" d="M473.33,387.07c-2.61-3.24-5.64-7.21-9.6-8.82c-0.7-0.28-1,0.84-0.32,1.12c2.04,0.83,3.61,2.47,5.13,4.02
				c1.4,1.44,2.7,2.94,3.96,4.5C472.97,388.48,473.79,387.65,473.33,387.07L473.33,387.07z"/>
		</g>
	</g>
	<g>
		<polygon class="st2" points="1001.75,144.87 1012.98,159.39 995.17,152.13 986.47,170.81 986.23,152.01 972.79,149.16 
			986.11,142.59 982.97,127.28 994.96,141.52 1005.64,136.51 		"/>
		<path class="st2" d="M906.73,207.58c-1.99-1.24-2.56-3.71-1.25-5.51c1.31-1.81,3.98-2.27,5.97-1.04c1.99,1.24,2.56,3.71,1.25,5.51
			C911.42,208.35,908.74,208.82,906.73,207.58z"/>
		<path class="st2" d="M889.79,219.09c-1.99-1.24-2.56-3.71-1.25-5.51c1.31-1.81,3.98-2.27,5.97-1.04c1.99,1.24,2.56,3.71,1.25,5.51
			C894.46,219.86,891.78,220.32,889.79,219.09z"/>
		<path class="st2" d="M872.56,230.79c-1.99-1.24-2.56-3.71-1.25-5.51s3.98-2.27,5.97-1.04c1.99,1.23,2.56,3.71,1.25,5.51
			C877.23,231.55,874.55,232.01,872.56,230.79z"/>
		<path class="st2" d="M856.06,241.97c-1.99-1.24-2.56-3.71-1.25-5.51c1.31-1.81,3.98-2.27,5.97-1.04c1.99,1.23,2.56,3.71,1.25,5.51
			C860.75,242.75,858.07,243.21,856.06,241.97z"/>
		<path class="st2" d="M839.69,253.1c-1.99-1.24-2.56-3.71-1.25-5.51s3.98-2.27,5.97-1.04c1.99,1.24,2.56,3.71,1.25,5.51
			C844.36,253.86,841.68,254.32,839.69,253.1z"/>
		<path class="st2" d="M822.73,264.59c-1.99-1.24-2.56-3.71-1.25-5.51c1.31-1.81,3.98-2.27,5.97-1.04c1.99,1.24,2.56,3.7,1.25,5.51
			C827.4,265.37,824.72,265.83,822.73,264.59z"/>
		<path class="st2" d="M804.34,277.08c-1.99-1.24-2.56-3.71-1.25-5.51c1.31-1.81,3.98-2.27,5.97-1.04c1.99,1.24,2.56,3.7,1.25,5.51
			C809.01,277.86,806.33,278.32,804.34,277.08z"/>
		<path class="st2" d="M785.77,289.69c-1.99-1.24-2.56-3.71-1.25-5.51c1.31-1.81,3.98-2.27,5.97-1.04c1.99,1.24,2.56,3.71,1.25,5.51
			C790.46,290.45,787.78,290.92,785.77,289.69z"/>
		<path class="st2" d="M600.81,333.58c-0.36-2.23,1.32-4.26,3.73-4.55c2.41-0.29,4.67,1.29,5.02,3.52c0.36,2.23-1.32,4.26-3.73,4.55
			C603.42,337.38,601.17,335.81,600.81,333.58z"/>
		<path class="st2" d="M579.4,329.31c-0.36-2.23,1.32-4.26,3.73-4.55c2.41-0.29,4.67,1.29,5.02,3.52c0.36,2.23-1.32,4.26-3.73,4.55
			C582.01,333.1,579.76,331.54,579.4,329.31z"/>
		<path class="st2" d="M557.63,324.96c-0.36-2.23,1.32-4.26,3.73-4.55c2.41-0.29,4.67,1.29,5.02,3.52c0.36,2.23-1.32,4.26-3.73,4.55
			C560.24,328.75,557.99,327.18,557.63,324.96z"/>
		<path class="st2" d="M536.81,320.8c-0.36-2.23,1.32-4.26,3.73-4.55c2.41-0.29,4.67,1.29,5.02,3.52c0.36,2.23-1.32,4.26-3.73,4.55
			C539.42,324.6,537.17,323.03,536.81,320.8z"/>
		<path class="st2" d="M516.13,316.66c-0.36-2.23,1.32-4.26,3.73-4.55c2.41-0.29,4.67,1.29,5.02,3.52c0.36,2.23-1.32,4.26-3.73,4.55
			C518.74,320.47,516.48,318.89,516.13,316.66z"/>
		<path class="st2" d="M494.71,312.39c-0.36-2.23,1.32-4.26,3.73-4.55c2.41-0.29,4.67,1.29,5.02,3.52c0.36,2.23-1.32,4.26-3.73,4.55
			C497.32,316.19,495.07,314.62,494.71,312.39z"/>
		<path class="st2" d="M471.48,307.75c-0.36-2.23,1.32-4.26,3.73-4.55s4.67,1.29,5.02,3.52c0.36,2.23-1.32,4.26-3.73,4.55
			C474.09,311.55,471.84,309.98,471.48,307.75z"/>
		<path class="st2" d="M955.93,173.96c-1.99-1.24-2.56-3.71-1.25-5.51c1.31-1.81,3.98-2.27,5.97-1.04c1.99,1.24,2.56,3.71,1.25,5.51
			C960.6,174.72,957.93,175.19,955.93,173.96z"/>
		<path class="st2" d="M938.68,185.67c-1.99-1.24-2.56-3.71-1.25-5.51c1.31-1.81,3.98-2.27,5.97-1.04c1.99,1.23,2.56,3.71,1.25,5.51
			S940.67,186.89,938.68,185.67z"/>
		<path class="st2" d="M922.66,196.53c-1.99-1.24-2.56-3.71-1.25-5.51c1.31-1.81,3.98-2.27,5.97-1.04c1.99,1.24,2.56,3.71,1.25,5.51
			C927.33,197.31,924.65,197.77,922.66,196.53z"/>
		<path class="st2" d="M734.63,321.22c-1.29-1.93-0.66-4.43,1.41-5.58c2.07-1.15,4.81-0.51,6.1,1.41c1.29,1.93,0.66,4.43-1.41,5.58
			C738.65,323.78,735.92,323.16,734.63,321.22z"/>
		<path class="st2" d="M712.83,325.19c-1.29-1.93-0.66-4.43,1.41-5.58s4.81-0.51,6.1,1.41c1.29,1.93,0.66,4.43-1.41,5.58
			C716.86,327.76,714.13,327.13,712.83,325.19z"/>
		<path class="st2" d="M691.13,329.15c-1.29-1.93-0.66-4.43,1.41-5.58s4.81-0.51,6.1,1.41c1.29,1.93,0.66,4.43-1.41,5.58
			C695.17,331.72,692.44,331.09,691.13,329.15z"/>
		<path class="st2" d="M670.99,332.83c-1.29-1.93-0.66-4.43,1.41-5.58s4.81-0.51,6.1,1.41c1.29,1.93,0.66,4.43-1.41,5.58
			C675.02,335.39,672.29,334.75,670.99,332.83z"/>
		<path class="st2" d="M772.66,299.31l10.96,16.88l-15.7-6.04l-19.66,14.32l9.81-22.38l-12.05-13.58l18.96,7.29
			c0,0,11.59-9.57,11.59-9.59C776.55,286.2,772.66,299.31,772.66,299.31z"/>
		<path class="st2" d="M597.68,439.49c-2.36-0.37-3.98-2.43-3.63-4.58c0.36-2.16,2.56-3.61,4.92-3.23c2.36,0.37,3.98,2.43,3.63,4.58
			C602.24,438.41,600.04,439.86,597.68,439.49z"/>
		<path class="st2" d="M587.62,456.53c-2.36-0.37-3.98-2.43-3.63-4.58c0.36-2.16,2.56-3.61,4.92-3.23c2.36,0.37,3.98,2.43,3.63,4.58
			C592.16,455.45,589.98,456.9,587.62,456.53z"/>
		<path class="st2" d="M577.38,473.84c-2.36-0.37-3.98-2.43-3.63-4.58c0.36-2.16,2.56-3.61,4.92-3.23c2.36,0.37,3.98,2.43,3.63,4.58
			C581.93,472.76,579.74,474.21,577.38,473.84z"/>
		<path class="st2" d="M567.59,490.4c-2.36-0.37-3.98-2.43-3.63-4.58c0.36-2.16,2.56-3.61,4.92-3.23c2.36,0.37,3.98,2.43,3.63,4.58
			C572.15,489.33,569.95,490.78,567.59,490.4z"/>
		<path class="st2" d="M557.87,506.87c-2.36-0.37-3.98-2.43-3.63-4.58c0.36-2.16,2.56-3.61,4.92-3.23c2.36,0.37,3.98,2.43,3.63,4.58
			C562.42,505.79,560.22,507.24,557.87,506.87z"/>
		<path class="st2" d="M547.8,523.91c-2.36-0.37-3.98-2.43-3.63-4.58c0.36-2.16,2.56-3.61,4.92-3.23c2.36,0.38,3.98,2.43,3.63,4.58
			C552.36,522.82,550.16,524.27,547.8,523.91z"/>
		<path class="st2" d="M536.88,542.38c-2.36-0.37-3.98-2.43-3.63-4.58c0.36-2.16,2.56-3.61,4.92-3.23c2.36,0.37,3.98,2.43,3.63,4.58
			C541.44,541.3,539.24,542.76,536.88,542.38z"/>
		<path class="st2" d="M525.86,561.03c-2.36-0.37-3.98-2.43-3.63-4.58c0.36-2.16,2.56-3.61,4.92-3.23c2.36,0.37,3.98,2.43,3.63,4.58
			C530.42,559.95,528.22,561.4,525.86,561.03z"/>
		<path class="st2" d="M626.78,389.85c-2.36-0.37-3.98-2.43-3.63-4.58c0.36-2.16,2.56-3.61,4.92-3.23c2.36,0.37,3.98,2.43,3.63,4.58
			C631.34,388.77,629.14,390.22,626.78,389.85z"/>
		<path class="st2" d="M616.53,407.18c-2.36-0.37-3.98-2.43-3.63-4.58c0.36-2.16,2.56-3.61,4.92-3.23c2.36,0.37,3.98,2.43,3.63,4.58
			C621.09,406.11,618.89,407.56,616.53,407.18z"/>
		<path class="st2" d="M607.02,423.28c-2.36-0.37-3.98-2.43-3.63-4.58c0.36-2.16,2.56-3.61,4.92-3.23c2.36,0.37,3.98,2.43,3.63,4.58
			C611.59,422.2,609.38,423.65,607.02,423.28z"/>
		<path class="st2" d="M518.38,574.88l17.52,11.3l-16.89,0.45l-11.23,20.65L506.49,583l-17.02-7.86l20.38-0.55l6.1-13.21
			L518.38,574.88z"/>
		<polygon class="st2" points="446.85,305.28 447.18,323.02 435.66,307.33 423.34,308.94 435.79,301.35 430.2,282.62 439.19,294.85 
			455.98,286.1 451.29,295.13 461.12,304.08 		"/>
		<path class="st2" d="M641.73,337.88c2.66-1.45,21.79-9.04,21.79-9.04l-12.46,14.07l14.75,10.48l-15.39-2.29l5.68,15.97l-12.5-8.9
			l-5.27,18.56l-3.19-16.76l-13.78,7.49l8.81-13.2l-18.92-7.66l19.21,0.76l-13.22-19.16l15.36,9.59l5.39-14.71L641.73,337.88z"/>
	</g>
</g>
<g id="XMLID_101_">
	<g id="XMLID_111_">
		<g id="XMLID_115_">
			<g id="XMLID_116_">
				<path id="XMLID_117_" class="st2" d="M294.98,223.84c-34.67,0-62.89-28.21-62.89-62.89c0-34.68,28.21-62.89,62.89-62.89
					c34.68,0,62.89,28.21,62.89,62.89C357.87,195.63,329.66,223.84,294.98,223.84z M294.98,120.35c-22.39,0-40.61,18.22-40.61,40.61
					s18.22,40.61,40.61,40.61s40.61-18.22,40.61-40.61C335.6,138.56,317.38,120.35,294.98,120.35z"/>
			</g>
		</g>
		<g id="XMLID_112_">
			<g id="XMLID_113_">
				<path id="XMLID_114_" class="st2" d="M339.87,146.35c-4.21,0-8.23-2.4-10.11-6.47c-13.45-29.07-55.65-56.21-119.48-51.3
					c-68.05,5.23-105.01,52.89-105.37,53.37c-3.72,4.89-10.71,5.85-15.61,2.12c-4.89-3.72-5.85-10.71-2.12-15.61
					c1.74-2.29,43.49-56.11,121.4-62.1c79.59-6.14,125.95,30.74,141.4,64.16c2.58,5.58,0.15,12.2-5.43,14.78
					C343.03,146.02,341.44,146.35,339.87,146.35z"/>
			</g>
		</g>
	</g>
	<g id="XMLID_102_">
		<g id="XMLID_106_">
			<g id="XMLID_107_">
				<path id="XMLID_108_" class="st2" d="M147.79,280.52c-34.67,0-62.89-28.21-62.89-62.89c0-34.68,28.21-62.89,62.89-62.89
					c34.68,0,62.89,28.21,62.89,62.89C210.68,252.32,182.47,280.52,147.79,280.52z M147.79,177.02c-22.39,0-40.61,18.22-40.61,40.61
					s18.22,40.61,40.61,40.61s40.61-18.22,40.61-40.61C188.4,195.24,170.19,177.02,147.79,177.02z"/>
			</g>
		</g>
		<g id="XMLID_103_">
			<g id="XMLID_104_">
				<path id="XMLID_105_" class="st2" d="M217.03,312.89c-69.17,0-109.92-33.89-124.23-64.83c-2.58-5.58-0.15-12.2,5.43-14.78
					c5.58-2.58,12.21-0.15,14.78,5.43c13.45,29.07,55.61,56.23,119.48,51.3c68.05-5.23,105.01-52.89,105.37-53.37
					c3.72-4.89,10.71-5.85,15.61-2.13c4.9,3.72,5.85,10.71,2.13,15.61c-1.74,2.29-43.49,56.11-121.4,62.1
					C228.3,312.68,222.57,312.89,217.03,312.89z"/>
			</g>
		</g>
	</g>
</g>
</svg>
