<?xml version="1.0" encoding="utf-8"?>
<!-- Generator: Adobe Illustrator 25.3.0, SVG Export Plug-In . SVG Version: 6.00 Build 0)  -->
<svg version="1.1" id="Layer_1" xmlns="http://www.w3.org/2000/svg" xmlns:xlink="http://www.w3.org/1999/xlink" x="0px" y="0px"
	 viewBox="0 0 1920 700" style="enable-background:new 0 0 1920 700;" xml:space="preserve">
<style type="text/css">
	.st0{fill:#1B1D50;}
	.st1{opacity:0.42;fill:#8AD2D0;enable-background:new    ;}
	.st2{opacity:0.42;}
	.st3{fill:#8AD2D0;}
	.st4{fill:#FFFFFF;}
</style>
<rect class="st0" width="1920" height="700"/>
<g>
	<g>
		<g>
			<path class="st1" d="M939.57,186.98c5.04,6.98,9.71,14.27,14.2,21.61c8.62,14.07,16.71,28.73,22.3,44.28
				c2.44,6.77,4.47,13.86,4.84,21.07c0.35,6.86-1.11,14.09-6.86,18.51c-3.75,2.88-8.63,4.04-13.3,3.61
				c-2.33-0.22-4.61-0.8-6.75-1.74c-2.91-1.28-4.84-3.47-6.92-5.81c-3.9-4.36-7.68-9.08-12.76-12.13c-2.57-1.54-5.27-2.88-7.92-4.27
				c-8.01-4.22-16.15-8.48-23.51-13.79c-5.36-3.88-9.91-9.08-12.67-15.17c-1.09-2.42-1.83-4.95-1.96-7.61
				c-0.05-0.79,1.19-0.79,1.23,0c0.25,5.02,2.82,9.79,5.89,13.67c1.56,1.97,2.99,3.88,4.93,5.55c6.54,5.56,14.38,9.69,21.9,13.75
				c6.43,3.45,13.3,6.35,18.63,11.45c2.2,2.11,4.21,4.42,6.23,6.72c2.1,2.37,4.12,4.99,7.06,6.37c4.59,2.16,10.05,2.53,14.84,0.8
				c15.71-5.67,10.73-26.34,6.78-38.12c-5.12-15.26-12.92-29.64-21.18-43.42c-3.28-5.47-6.7-10.88-10.23-16.18
				c-1.82-2.74-3.82-5.38-5.58-8.15c-0.08-0.12-0.17-0.25-0.26-0.35C938.03,186.96,939.11,186.34,939.57,186.98L939.57,186.98z"/>
		</g>
		<g>
			<path class="st1" d="M938.51,186.98c0.72-1.14,0.79-3.3,0.66-4.82c-0.48-6.04-3.81-11.79-7.12-16.69
				c-3.21-4.78-6.94-9.19-10.85-13.39c-1.71-1.85-3.42-3.79-5.3-5.46c-0.29-0.26-0.55-0.46-0.91-0.65
				c-5.33-2.79-2.17,16.79-1.9,18.13c0.89,4.35,2.27,8.99,5.15,12.45c0.79,0.94,2.13,2.22,3.07,2.53c0.76,0.23,0.43,1.43-0.32,1.19
				c-1.16-0.37-2.17-1.28-2.99-2.13c-2.56-2.67-4.07-6.27-5.12-9.77c-1.73-5.78-2.71-12.36-2.22-18.39c0.15-1.9,0.55-5.23,2.97-5.52
				c1.17-0.14,2.28,0.55,3.13,1.31c4.56,4.07,8.68,8.97,12.44,13.76c4.69,5.98,9.48,12.9,10.91,20.53c0.42,2.27,0.79,5.49-0.54,7.58
				C939.14,188.27,938.07,187.65,938.51,186.98L938.51,186.98z"/>
		</g>
		<g>
			<path class="st1" d="M497.61,451.92c-0.63,9.74-0.18,19.5,0.82,29.21c0.92,9.02,1.96,18.1,3.7,26.99
				c3.1,15.74,9.31,31.63,21.92,42.19c12.61,10.54,29.56,14,45.64,12.89c17.65-1.22,34.66-7.8,49.8-16.75
				c13.52-8,22.3-22.64,26.43-37.47c2.53-9.08,3.59-18.7,2.27-28.07c-1.08-7.68-3.45-15.57-8.08-21.87
				c-2.67-3.65-6.32-6.58-9.48-9.8c-3.08-3.14-6.2-6.29-9.22-9.49c-2.77-2.94-5.09-6.26-7.04-9.8c-1.96-3.55-3.11-7.29-2.84-11.38
				c0.29-4.19,1.9-7.92,3.68-11.67c2.07-4.3,3.99-8.69,5.7-13.15c3.19-8.29,5.69-16.86,7.09-25.65c2.9-18.23,0.09-36.58-7.78-53.25
				c-7.15-15.14-18.03-28.5-31.34-38.64c-3.56-2.71-7.28-5.18-11.14-7.41c0.25-0.32,0.49-0.65,0.74-0.97
				c0.51,0.55,1.06,0.94,1.74,1.26c-0.25,0.32-0.49,0.65-0.74,0.97c-0.55-0.48-1.13-0.86-1.74-1.26c0.28-0.28,0.55-0.55,0.85-0.85
				c0.35,0.57,0.72,1.14,1.13,1.68c0.29,0.42,0.62,0.82,0.97,1.19c0.15,0.15,0.96,0.96,0.52,0.69c-0.66-0.42-1.26-1.19-1.93-1.66
				c-0.49-0.35-1.02-0.71-1.53-1.05c0.28-0.28,0.55-0.55,0.85-0.85c4.53,7.75,3.78,17.25,2.1,25.72
				c-1.99,10.05-7.07,18.87-11.87,27.77c-5.01,9.29-7.51,19.48-7.66,30.03c-0.15,10.45,1.77,20.82,4.58,30.86
				c3.25,11.58,7.72,22.81,13.73,33.23c0.37,0.63-0.45,1.19-0.97,0.74c-0.49-0.42-0.97-0.83-1.45-1.25
				c-0.6-0.52,0.26-1.37,0.88-0.88c0.49,0.42,0.97,0.83,1.45,1.25c0.54,0.48-0.15,1.29-0.74,0.97c-6.24-3.42-12.15-7.6-18.11-11.48
				c-7.6-4.93-15.15-9.93-22.86-14.69c-1.82-1.13-3.71-2.44-5.69-3.21c-3.68-1.42-7.46-2.64-11.22-3.82
				c-5.12-1.62-10.27-3.16-15.51-4.28c-6.95-1.51-14.23-1.74-21.32-1.79c-4.61-0.03-9.23,0.11-13.83,0.37
				c-4.7,0.26-9.29,1.09-13.93,1.86c-4.12,0.68-8.28,1.26-12.45,1.14c-2.02-0.06-4.04-0.29-6.03-0.72
				c-2.14-0.48-4.12-1.51-6.29-1.76c0.2-0.2,0.42-0.42,0.62-0.62c0.11,0.59-0.2,0.77-0.92,0.54c0.31-0.18,0.62-0.35,0.92-0.54
				c0.82,6.58,1.36,13.22,2.91,19.68c1.42,5.9,3.84,11.53,6.81,16.8c4.21,7.46,9.65,14.21,16.05,19.9
				c14.81,13.18,34.9,18.37,54.39,18.23c12.87-0.09,25.62-2.22,38.18-4.86c6.24-1.31,12.44-2.94,18.7-4.16
				c5.12-1,10.6-1.42,15.52,0.63c4.86,2.02,8.55,6.46,11.39,10.74c2.94,4.45,4.98,9.45,6.49,14.55c1.56,5.29,2.67,10.91-0.4,15.94
				c-2.47,4.02-7.17,6.4-11.56,7.6c-2.3,0.63-4.65,1-7.01,1.28c-2.48,0.28-4.52,0.4-6.81-0.79c-4.56-2.37-5.78-8.96-5.02-13.63
				c0.77-4.84,3.64-9.39,7.63-12.21c3.71-2.64,8.23-3.79,12.69-4.38c2.28-0.31,4.56-0.46,6.86-0.57c0.79-0.03,0.79,1.19,0,1.23
				c-9.17,0.45-19.39,1.9-24.14,10.85c-1.4,2.64-2.19,5.58-1.99,8.59c0.18,2.99,1.29,7.01,3.96,8.68c2.44,1.53,4.79,1.25,7.51,0.91
				c2.4-0.29,4.79-0.74,7.11-1.46c5.19-1.63,9.96-4.98,11.24-10.56c1.25-5.46-1.09-11.54-3.07-16.6c-1.94-4.96-4.64-9.65-8.23-13.61
				c-1.88-2.07-3.91-3.98-6.47-5.16c-2.51-1.17-5.29-1.62-8.05-1.62c-5.89-0.02-11.68,1.77-17.37,3.07
				c-6.01,1.36-12.02,2.65-18.1,3.75c-11.61,2.1-23.43,3.48-35.25,2.91c-17.56-0.85-35.27-6.44-48.55-18.05
				c-5.72-5.01-10.71-10.88-14.77-17.31c-2.73-4.32-5.01-8.91-6.83-13.67c-2.16-5.66-3.18-11.62-3.93-17.6
				c-0.39-3.04-0.71-6.07-1.08-9.09c-0.06-0.46,0.57-0.77,0.92-0.54c0.65,0.45,1.34,1.54,0.42,2.16c-1.13,0.76-1.39-0.92-1.34-1.63
				c0.02-0.31,0.26-0.66,0.62-0.62c1.56,0.18,2.79,0.69,4.28,1.17c2.13,0.69,4.35,1.08,6.57,1.23c4.16,0.29,8.32-0.18,12.42-0.83
				c3.76-0.6,7.51-1.33,11.28-1.76c4.08-0.46,8.22-0.57,12.32-0.66c7.95-0.17,16.11-0.08,23.98,1.17c5.07,0.8,10.05,2.25,14.95,3.73
				c4.49,1.34,8.94,2.79,13.33,4.38c1.96,0.71,3.68,1.53,5.49,2.6c7.43,4.42,14.63,9.25,21.87,13.95
				c7.04,4.58,13.98,9.56,21.35,13.59c-0.25,0.32-0.49,0.65-0.74,0.97c-0.48-0.43-0.96-0.85-1.45-1.25
				c0.29-0.29,0.59-0.59,0.88-0.88c0.48,0.42,0.97,0.83,1.45,1.25c-0.32,0.25-0.65,0.49-0.97,0.74
				c-5.19-8.99-9.25-18.59-12.36-28.48c-3.07-9.76-5.38-19.85-5.98-30.09c-0.59-9.93,0.57-19.99,4.19-29.3
				c3.76-9.66,10.03-18.11,13.39-27.98c1.73-5.09,2.76-10.53,3.05-15.89c0.31-5.47-0.35-11.07-3.16-15.88
				c-0.29-0.51,0.32-1.19,0.85-0.85c1,0.68,5.18,2.94,4.05,4.59c-1.42,2.07-4.36-2.88-4.89-3.75c-0.32-0.51,0.32-1.19,0.85-0.85
				c0.69,0.45,1.36,0.92,1.99,1.46c0.57,0.48-0.15,1.25-0.74,0.97c-0.79-0.37-1.4-0.82-1.99-1.46c-0.46-0.51,0.12-1.33,0.74-0.97
				c30.12,17.4,52.33,50.71,52.1,86.1c-0.12,18.34-5.89,36.19-13.67,52.64c-2.1,4.44-4.15,8.75-4.07,13.79
				c0.08,4.79,2.47,8.85,4.98,12.76c2.45,3.82,5.64,6.91,8.8,10.13c3.42,3.5,6.77,7.06,10.31,10.43
				c12.1,11.53,14.74,30.27,12.35,46.13c-2.37,15.68-9.48,31.5-21.46,42.2c-6.26,5.58-14.06,9.43-21.64,12.85
				c-8.11,3.65-16.57,6.52-25.31,8.18c-16.05,3.07-33.46,2.2-48.15-5.49c-14.63-7.66-23.78-21.62-28.64-37.05
				c-2.51-7.97-3.85-16.17-4.96-24.43c-1.31-9.76-2.5-19.54-2.84-29.38c-0.17-4.9-0.11-9.8,0.22-14.69
				C496.42,451.13,497.65,451.11,497.61,451.92L497.61,451.92z"/>
		</g>
		<g>
			<path class="st1" d="M561.36,366.06c-6.21,2.48-12.38,5.1-18.13,8.54c-5.19,3.08-9.8,6.89-14.43,10.74
				c-0.6,0.51-1.48-0.37-0.88-0.88c4.72-3.92,9.4-7.8,14.69-10.94c5.86-3.48,12.11-6.13,18.43-8.66
				C561.77,364.58,562.08,365.77,561.36,366.06L561.36,366.06z"/>
		</g>
		<g>
			<path class="st1" d="M913.46,172.27c-2.47,1.34-5.06,2.34-7.69,3.28c-2.6,0.94-5.55,1.7-7.88,3.21c-1.14,0.74-2.17,1.65-3.36,2.3
				c-1.25,0.68-2.54,1.28-3.81,1.93c-2.36,1.22-4.7,2.45-7.01,3.75c-9.31,5.13-18.31,10.8-26.96,16.97
				c-17.4,12.39-33.31,26.77-47.78,42.46c-7.46,8.09-14.89,16.45-21.33,25.37c-6.81,9.45-12.96,19.13-21.96,26.73
				c-8.85,7.48-18.9,13.52-28.9,19.3c-10.22,5.9-20.76,11.11-31.74,15.41c-21.41,8.4-43.97,13.49-66.76,16.34
				c-2.84,0.35-5.69,0.68-8.54,0.97c-0.79,0.08-0.79-1.16,0-1.23c23.04-2.36,45.92-6.81,67.77-14.57
				c11.05-3.93,21.81-8.68,32.12-14.29c10.42-5.67,20.73-11.84,30.26-18.93c4.61-3.44,8.91-7.21,12.75-11.51
				c4.04-4.53,7.44-9.54,10.88-14.5c6.21-8.96,13.24-17.32,20.5-25.45c13.96-15.64,29.29-30.1,46.06-42.73
				c8.38-6.32,17.12-12.16,26.17-17.49c4.62-2.73,9.34-5.32,14.12-7.77c1.19-0.6,2.39-1.17,3.58-1.8c1.28-0.68,2.34-1.66,3.58-2.44
				c2.16-1.34,4.78-2.07,7.15-2.91c2.81-1,5.58-2.02,8.2-3.45C913.54,170.82,914.17,171.89,913.46,172.27L913.46,172.27z"/>
		</g>
		<g>
			<path class="st1" d="M867.07,378.22c11.58,7,23.61,13.35,35.82,19.16c10.02,4.78,20.27,9.22,30.86,12.58
				c4.61,1.46,9.29,2.73,14.07,3.51c2.13,0.35,4.28,0.6,6.44,0.68c1.8,0.06,3.62-0.09,5.43,0.09c16.34,1.76,28.39,19.9,25.17,35.62
				c-2.36,11.5-11.76,20.13-21.55,25.74c-5.55,3.19-11.9,5.06-18.02,6.75c-19.31,5.39-39.32,8.55-59.17,11.21
				c-19.47,2.59-39.18,4.7-58.85,4.76c-5.7,0.02-11.73,0.08-17.31-1.29c-2.6-0.65-6.2-1.91-7.32-4.59
				c-1.08-2.54,0.92-5.02,2.68-6.66c4.61-4.27,10.76-7.07,16.51-9.46c2.3-0.96,4.78-1.56,7.2-2.1c2.57-0.57,5.26-1.05,7.91-1
				c2.7,0.05,5.3,1.02,7.94,1.53c2.84,0.54,5.7,0.94,8.55,1.29c0.76,0.09,1.56,0.25,2.33,0.25c1.34,0,2.73-0.23,4.05-0.37
				c7.12-0.66,14.23-1.45,21.32-2.36c9.77-1.25,19.53-2.7,29.21-4.59c8.35-1.65,16.94-3.44,24.8-6.83c2.4-1.03,4.9-2.25,6.77-4.13
				c0.09,0.34,0.18,0.69,0.28,1.03c-16.17-2.64-32.51-4.53-48.84-5.86c-12.48-1.02-25.06-1.7-37.59-1.17
				c-7.51,0.32-14.78,1.43-22.09,3.1c-11.24,2.54-22.43,5.23-33.83,6.97c-18.02,2.74-36.27,3.67-54.49,3.61
				c-30.64-0.08-61.25-2.71-91.68-6.24c-4.79-0.55-9.57-1.14-14.37-1.74c-0.77-0.09-0.79-1.33,0-1.23
				c32.24,4.07,64.71,7.26,97.21,7.88c19.51,0.37,39.1-0.2,58.45-2.82c11.91-1.62,23.61-4.21,35.33-6.92
				c6.03-1.39,12.04-2.74,18.2-3.34c12.04-1.16,24.26-0.69,36.31,0.06c18.99,1.2,37.95,3.41,56.74,6.37
				c0.32,0.05,0.65,0.11,0.97,0.15c0.48,0.08,0.57,0.72,0.28,1.03c-1.85,1.88-4.3,3.13-6.69,4.18c-3.39,1.5-6.95,2.64-10.53,3.62
				c-9,2.51-18.23,4.21-27.45,5.69c-13.86,2.22-27.82,3.92-41.8,5.09c-1.85,0.15-3.78-0.31-5.61-0.55c-2.97-0.4-5.96-0.86-8.89-1.56
				c-2.6-0.6-4.84-1.05-7.54-0.77c-5.92,0.59-11.44,2.45-16.75,5.02c-3.25,1.57-6.49,3.3-9.4,5.47c-1.8,1.34-5.18,3.87-4.49,6.54
				c0.69,2.68,4.7,3.81,7.06,4.35c2.42,0.55,4.92,0.77,7.4,0.92c7.58,0.48,15.23,0.22,22.81-0.18c9.77-0.51,19.53-1.37,29.27-2.42
				c20.7-2.25,41.4-5.29,61.73-9.83c16.68-3.73,34.37-8.06,45.59-22.12c6-7.52,8.35-17.17,5.35-26.43
				c-2.53-7.77-8.38-14.58-15.74-18.17c-3.39-1.65-6.92-2.39-10.68-2.31c-4.05,0.09-8.11-0.49-12.07-1.33
				c-9.97-2.08-19.61-5.73-28.96-9.7c-15.94-6.77-31.38-14.81-46.32-23.54c-0.88-0.51-1.74-1.02-2.62-1.54
				C865.77,378.87,866.39,377.81,867.07,378.22L867.07,378.22z"/>
		</g>
		<g>
			<path class="st1" d="M904.1,258.56c-3.81,4.42-6.7,10.05-9.16,15.35c-6.49,14.06-9.65,29.53-10.06,44.96
				c-0.34,12.55,1.16,25.08,3.99,37.3c-0.25-0.14-0.51-0.29-0.76-0.43c10.91-4.52,21.84-9,32.81-13.38
				c5.09-2.03,10.19-4.28,15.43-5.89c2.36-0.72,4.53-1.9,6.94-2.5c12.99-3.25,26.17,6.24,35.56,13.96
				c10.3,8.48,19.47,18.37,28.7,27.96c8.85,9.17,17.56,18.47,26.19,27.82c10.34,11.22,20.59,22.55,30.67,34.02
				c0.15,0.18,0.32,0.37,0.48,0.54c0.23,0.26,0.26,0.8-0.12,0.97c-1.91,0.85-4.15,1.09-6.2,1.16c-5.5,0.17-10.94-1.54-15.77-4.12
				c-8.91-4.76-15.34-12.33-21.93-19.78c-6.81-7.69-13.86-15.23-21.3-22.3c-5.32-5.06-10.85-10-16.97-14.09
				c-3.14-2.1-6.47-3.68-9.93-5.15c-7.03-2.99-14.38-4.08-21.96-2.87c-15.27,2.44-29.21,11.36-41.43,20.36
				c-2.42,1.77-4.79,3.61-7.14,5.47c-0.62,0.49-1.5-0.39-0.88-0.88c13.1-10.4,27.73-20.81,44.14-25.09
				c8.15-2.13,16.58-2.22,24.55,0.63c2.7,0.97,5.39,2.13,7.97,3.38c5.33,2.6,10.08,6.41,14.58,10.22
				c6.87,5.84,13.27,12.22,19.47,18.77c3.88,4.1,7.66,8.29,11.39,12.53c3.67,4.18,7.28,8.35,11.54,11.93
				c5.52,4.61,12.08,8.45,19.3,9.49c2.08,0.31,4.21,0.37,6.29,0.11c1.13-0.14,2.17-0.51,3.28-0.72c0.12-0.02,0.57-0.23,0.34-0.12
				c-0.05,0.32-0.08,0.65-0.12,0.97c-8.22-9.4-16.6-18.67-25.02-27.88c-8.15-8.92-16.4-17.8-24.72-26.57
				c-9.11-9.6-18.25-19.25-27.84-28.39c-7.57-7.2-15.86-14.26-25.43-18.63c-4.75-2.17-10.08-3.67-15.34-2.93
				c-2.82,0.4-5.24,1.6-7.88,2.56c-3.99,1.45-7.98,2.85-11.95,4.41c-12.25,4.84-24.45,9.85-36.61,14.87
				c-0.26,0.11-0.52,0.22-0.79,0.32c-0.29,0.12-0.69-0.14-0.76-0.43c-4.61-19.93-5.64-40.78-1.25-60.85
				c2.53-11.53,6.77-22.89,13.15-32.86c1.13-1.76,2.3-3.53,3.65-5.12C903.75,257.08,904.61,257.95,904.1,258.56L904.1,258.56z"/>
		</g>
		<g>
			<path class="st1" d="M948.88,202.1c3.02-2.91,5.47-6.61,7.44-10.28c4.32-8.03,6.15-17.29,4.3-26.3
				c-1.25-6.09-4.02-11.74-7.61-16.79c-2.45-3.44-5.23-6.84-8.55-9.48c-7.21-5.73-17.43-9.62-25.96-4.28
				c-2.17,1.36-4.33,2.64-3.36,5.41c1.56,4.45,8.97,5.06,12.75,5.41c0.79,0.08,0.79,1.31,0,1.23c-4.27-0.4-10.43-1.02-13.19-4.87
				c-0.99-1.39-1.34-3.38-0.62-4.96c0.66-1.45,2.68-2.59,3.99-3.39c2.39-1.45,5.06-2.33,7.85-2.57c5.04-0.45,10.06,1.28,14.4,3.75
				c2.4,1.37,4.79,3.01,6.8,4.93c5.16,4.96,9.57,11.14,12.35,17.74c4.15,9.85,4.04,20.73-0.06,30.58
				c-2.22,5.33-5.46,10.73-9.65,14.78C949.19,203.51,948.31,202.64,948.88,202.1L948.88,202.1z"/>
		</g>
		<g>
			<path class="st1" d="M914.58,141.23c-0.8,0.03-0.88-0.91-0.25-1.23c0.26-0.14,0.68-0.11,0.96-0.14c1.54-0.12,3.13,0.06,4.64,0.4
				c5.84,1.34,10.19,5.72,12.56,11.08c2.44,5.52,3.08,11.67,3.11,17.65c0,0.79-1.23,0.8-1.23,0c-0.05-7.88-1.13-17.05-6.84-23.03
				c-2.77-2.9-6.6-4.7-10.62-4.89c-0.59-0.03-1.19,0.06-1.76,0.03c-0.22-0.02-0.18,0.09-0.34,0.05c-0.34-0.12-0.85-1.14-0.25-1.16
				C915.37,139.98,915.37,141.21,914.58,141.23L914.58,141.23z"/>
		</g>
		<g>
			<path class="st1" d="M937.67,134.06c-3.24-7.68-8.03-15.49-14.32-21.01c-2.16-1.9-4.62-3.53-7.37-4.41
				c-3.38-1.06-6.55-0.48-9.93,0.35c-3.55,0.88-10.51,2.5-8.92,7.51c0.2,0.66,0.43,1.45,0.79,2.03c0.76,1.23,2.59,1.34,3.88,1.37
				c2.27,0.05,4.59-0.29,6.8-0.83c0.77-0.18,1.09,1,0.32,1.19c-3.45,0.85-10.6,2.48-12.36-1.77c-0.54-1.33-1.13-2.74-0.92-4.21
				c0.29-2.02,1.99-3.34,3.68-4.24c3.47-1.82,7.86-2.97,11.73-3.24c2.91-0.2,5.78,0.6,8.34,1.97c5.6,2.97,9.83,8.26,13.26,13.47
				c2.31,3.53,4.44,7.29,6.09,11.19C939.05,134.17,937.98,134.8,937.67,134.06L937.67,134.06z"/>
		</g>
		<g>
			<path class="st1" d="M905.41,117.72c-1.62,0.4-4.73,1.37-6.21,0.28c-1.2-0.89-0.12-3.14,0.94-3.75c2.4-1.37,5.67,1.8,7.23,3.21
				c3.19,2.9,5.5,6.61,7.28,10.51c1.06,2.34,2.02,4.79,2.67,7.31c0.2,0.77-0.99,1.09-1.19,0.32c-1.53-6.01-4.5-12.36-9-16.69
				c-1.03-0.99-5.75-5.75-7.01-2.73c-0.15,0.35-0.28,0.66-0.05,0.88c0.32,0.31,1.48,0.08,1.91,0.03c1.05-0.09,2.1-0.31,3.11-0.55
				C905.86,116.34,906.18,117.54,905.41,117.72L905.41,117.72z"/>
		</g>
		<g>
			<path class="st1" d="M959.48,219.64c3.71-2.25,7.15-5.06,10.4-7.94c7-6.2,13.18-13.47,17.46-21.83
				c5.33-10.39,7.04-22.18,4.19-33.57c-0.45-1.8-1.11-3.55-1.54-5.33c-0.31-1.31-0.82-2.59-1.43-3.78
				c-2.51-4.82-7.11-7.78-12.5-8.35c-3.95-0.4-10.97-0.06-10.48,5.5c0.31,3.53,2.39,6.84,5.92,7.85c0.76,0.22,0.43,1.4-0.32,1.19
				c-3.76-1.08-5.93-4.21-6.66-7.91c-0.52-2.67,0.25-5.29,2.74-6.7c2.57-1.46,5.93-1.45,8.8-1.17c2.94,0.29,5.83,1.19,8.28,2.88
				c3.3,2.28,5.66,5.83,6.72,9.68c1.37,4.95,2.77,9.77,3.07,14.95c0.34,6.03-0.55,12.1-2.5,17.82c-3.41,10.06-9.8,18.93-17.32,26.34
				c-4.28,4.22-9.03,8.31-14.2,11.45C959.42,221.12,958.81,220.05,959.48,219.64L959.48,219.64z"/>
		</g>
		<g>
			<path class="st1" d="M972.08,150.05c-1.63-0.08-3.53-0.69-4.5-2.1c-0.94-1.37-0.99-5.26,1.54-4.62c2.59,0.65,3.39,3.81,3.55,6.06
				c0.45,6.27-2.13,12.76-4.08,18.63c-2.23,6.74-4.73,13.41-7.71,19.85c-2.54,5.52-5.55,12.22-10.64,15.91
				c-0.65,0.46-1.26-0.6-0.62-1.06c3.75-2.71,6.13-7.37,8.2-11.39c2.81-5.46,5.12-11.16,7.21-16.91c1.76-4.82,3.39-9.71,4.81-14.64
				c0.88-3.07,1.65-6.24,1.6-9.45c-0.02-1.43-0.15-3.11-0.94-4.36c-0.31-0.49-1.39-1.74-2.02-1.45c-0.72,0.34-0.23,2.3,0.05,2.71
				c0.37,0.57,0.99,0.94,1.6,1.19c0.6,0.23,1.26,0.39,1.91,0.42C972.86,148.84,972.86,150.08,972.08,150.05L972.08,150.05z"/>
		</g>
		<g>
			<path class="st1" d="M987.94,145.71c-0.03,0.22,0.02-0.08,0.02-0.2c0.03-0.29,0.06-0.59,0.08-0.89c0.08-1.03,0.11-2.07,0.11-3.1
				c-0.02-3.25-0.43-6.5-1.34-9.62c-1.13-3.84-3.08-7.43-6.03-10.17c-2.56-2.39-6-4.64-9.65-4.32c-1.14,0.11-2.31,0.45-3.13,1.29
				c-0.86,0.89-1.48,2.57-0.72,3.7c0.69,1.03,2.3,1.37,3.47,1.39c0.79,0.02,0.8,1.25,0,1.23c-3.34-0.08-6.23-2.45-4.49-5.95
				c1.7-3.41,6.38-3.47,9.45-2.11c8.8,3.88,12.92,12.82,13.56,21.99c0.17,2.34,0.18,4.75-0.15,7.07
				C989.02,146.82,987.83,146.5,987.94,145.71L987.94,145.71z"/>
		</g>
		<g>
			<path class="st1" d="M970.66,122.81c-0.88,0.32-2.13,0.42-2.57-0.59c-0.46-1.05,0.48-2.17,1.57-2.08c0.71,0.06-0.45,0,0.05,0.06
				c0.17,0.02,0.32-0.12,0.54-0.06c0.46,0.11,0.66,0.65,0.8,1.03c0.51,1.31,0.66,2.79,0.86,4.16c0.37,2.53,0.63,5.09,0.96,7.63
				c0.2,1.65,0.35,3.33,0.68,4.98c0.15,0.77-1.05,1.11-1.19,0.32c-0.66-3.5-0.92-7.09-1.36-10.62c-0.18-1.53-0.39-3.07-0.71-4.58
				c-0.08-0.35-0.59-1.43-0.51-1.76c0.02-0.09-0.02-0.09,0.42,0.02c-0.06-0.02,0.51-0.09,0.11-0.03c-0.08,0.02-0.59,0.05-0.65,0.08
				c-0.59,0.39,0.25,0.4,0.66,0.25C971.07,121.35,971.4,122.53,970.66,122.81L970.66,122.81z"/>
		</g>
		<g>
			<path class="st1" d="M913.35,107.46c-10-16.86-34.13-15.09-46.05-29.93c0.35-0.14,0.69-0.29,1.05-0.43
				c0.96,7.92,7.17,13.9,13.5,18.11c6.7,4.44,14.16,7.77,20.02,13.39c0.57,0.55-0.29,1.42-0.88,0.88
				c-10.91-10.51-31.75-14.81-33.88-32.38c-0.06-0.51,0.72-0.83,1.05-0.43c11.99,14.95,36.11,13.1,46.24,30.19
				C914.82,107.52,913.75,108.15,913.35,107.46L913.35,107.46z"/>
		</g>
		<g>
			<path class="st1" d="M980.86,121.28c-3.53-15.38-20.95-22.87-24.04-38.49c0.4,0,0.79,0,1.19,0c-2.25,12.62,1.09,25.76,9.77,35.31
				c0.54,0.59-0.34,1.46-0.88,0.88c-8.99-9.91-12.41-23.43-10.08-36.51c0.11-0.6,1.08-0.59,1.19,0
				c3.1,15.55,20.52,23.07,24.04,38.49C982.22,121.73,981.03,122.06,980.86,121.28L980.86,121.28z"/>
		</g>
		<path class="st1" d="M927.72,231.71c0.29,0.63,0.65,1.25,1.09,1.74c0.48,0.52,1.06,0.89,1.63,1.25c1.37,0.83,2.79,1.56,4.25,2.16
			c0.96,0.39,1.99,0.74,2.93,0.43c1.08-0.35,1.8-1.51,2.1-2.76c0.28-1.25,0.18-2.57,0.08-3.87c-0.09-1.2-0.18-2.39-0.4-3.58
			c-0.52-2.85-1.86-5.69-4.05-7.24c-1.14-0.82-2.45-1.25-3.75-1.51c-0.94-0.2-1.91-0.31-2.81,0.02c-1.25,0.45-2.08,1.85-2.22,3.3
			c-0.22,2.16-0.26,4.41,0.11,6.6C926.87,229.42,927.21,230.6,927.72,231.71z"/>
		<g class="st2">
			<path class="st3" d="M968.75,283.76c0.02-0.74,0.08-1.48,0.03-2.22c-0.06-0.74-0.26-1.5-0.74-2.07
				c-0.48-0.57-1.26-0.92-1.97-0.72s-1.25,1.02-0.99,1.71c0.14,0.37,0.45,0.63,0.74,0.89c0.83,0.71,1.68,1.42,2.51,2.13
				L968.75,283.76z"/>
		</g>
		<g>
			<path class="st1" d="M940.91,217.4c3.53,4.18,7.17,8.75,6.91,14.53c-0.03,0.79-1.26,0.8-1.23,0c0.25-5.44-3.22-9.74-6.54-13.67
				C939.54,217.66,940.4,216.79,940.91,217.4L940.91,217.4z"/>
		</g>
		<g>
			<path class="st1" d="M950.25,223c1.68,2.96,1.31,6.3,0.85,9.54c-0.11,0.79-1.29,0.45-1.19-0.32c0.42-2.9,0.79-5.95-0.72-8.6
				C948.79,222.92,949.85,222.3,950.25,223L950.25,223z"/>
		</g>
		<g>
			<path class="st1" d="M900.6,251.84c-2.53-2.91-4.56-6.15-6.06-9.69c-0.31-0.72,0.76-1.36,1.06-0.62
				c1.46,3.45,3.41,6.61,5.87,9.45C901.99,251.56,901.13,252.44,900.6,251.84L900.6,251.84z"/>
		</g>
		<g>
			<path class="st1" d="M900.16,245.16c-2.7-3.95-3.99-8.62-3.7-13.38c0.05-0.79,1.28-0.79,1.23,0c-0.28,4.58,0.96,8.99,3.55,12.76
				C901.67,245.19,900.6,245.81,900.16,245.16L900.16,245.16z"/>
		</g>
		<g>
			<path class="st1" d="M893.95,235.54c-0.42-2.45-1.13-5.92-3.31-7.41c-0.65-0.45-0.03-1.51,0.62-1.06
				c2.51,1.71,3.41,5.33,3.88,8.15C895.27,235.99,894.08,236.33,893.95,235.54L893.95,235.54z"/>
		</g>
		<g>
			<path class="st1" d="M910.07,178.84c-4.01,1.25-7.92,2.7-11.78,4.38c-0.72,0.31-1.34-0.74-0.62-1.06
				c3.95-1.73,7.95-3.22,12.07-4.5C910.5,177.42,910.82,178.61,910.07,178.84L910.07,178.84z"/>
		</g>
		<g>
			<path class="st1" d="M898.82,187.13c-7,4.07-13.98,8.14-20.98,12.21c-0.69,0.4-1.31-0.66-0.62-1.06
				c7-4.07,13.98-8.14,20.98-12.21C898.88,185.67,899.49,186.73,898.82,187.13L898.82,187.13z"/>
		</g>
		<g>
			<path class="st1" d="M879.63,194.91c-3.02,1.25-5.86,2.85-8.49,4.76c-0.65,0.46-1.26-0.6-0.62-1.06
				c2.73-1.99,5.67-3.61,8.79-4.89C880.03,193.42,880.35,194.62,879.63,194.91L879.63,194.91z"/>
		</g>
		<g>
			<path class="st1" d="M925.34,180.66c0.57-8.57-5.1-15.38-10.85-21.02c-0.57-0.55,0.31-1.43,0.88-0.88
				c5.96,5.86,11.81,13.01,11.21,21.89C926.51,181.44,925.28,181.44,925.34,180.66L925.34,180.66z"/>
		</g>
		<g>
			<path class="st1" d="M932,181.8c-0.12-2.33-0.83-4.49-2.08-6.46c-0.43-0.68,0.63-1.29,1.06-0.62c1.37,2.14,2.11,4.53,2.25,7.07
				C933.28,182.58,932.05,182.58,932,181.8L932,181.8z"/>
		</g>
		<g>
			<path class="st1" d="M927.7,171.02c-1.23-1.4-2.53-2.74-3.9-4.01c-0.59-0.54,0.29-1.4,0.88-0.88c1.37,1.26,2.67,2.6,3.9,4.01
				C929.1,170.75,928.23,171.62,927.7,171.02L927.7,171.02z"/>
		</g>
		<g>
			<path class="st1" d="M876.98,329.86c0.12,6.4,0.68,12.76,1.68,19.07c0.12,0.77-1.06,1.11-1.19,0.32
				c-1.03-6.43-1.62-12.9-1.73-19.41C875.73,329.07,876.96,329.07,876.98,329.86L876.98,329.86z"/>
		</g>
		<g>
			<path class="st1" d="M867.13,338.2c-0.4-6.13-0.35-12.27,0.14-18.39c0.06-0.79,1.29-0.79,1.23,0
				c-0.48,6.12-0.52,12.25-0.14,18.39C868.41,338.98,867.17,338.98,867.13,338.2L867.13,338.2z"/>
		</g>
		<g>
			<path class="st1" d="M872.94,320.67c-0.08-5.02,0.32-10,1.16-14.97c0.14-0.79,1.33-0.45,1.19,0.32
				c-0.82,4.84-1.17,9.73-1.11,14.63C874.19,321.46,872.95,321.46,872.94,320.67L872.94,320.67z"/>
		</g>
		<g>
			<path class="st1" d="M798.81,274.14c-6.23,8.66-9.66,19.78-19.1,25.72c-0.68,0.43-1.29-0.65-0.62-1.06
				c9.2-5.8,12.58-16.83,18.65-25.28C798.21,272.89,799.28,273.49,798.81,274.14L798.81,274.14z"/>
		</g>
		<g>
			<path class="st1" d="M795.41,294.48c-4.65,7-9.48,13.66-16.57,18.39c-7.37,4.92-15.74,8.59-24.01,11.71
				c-0.74,0.28-1.06-0.91-0.32-1.19c8-3.04,16.06-6.6,23.24-11.28c7.15-4.65,11.95-11.27,16.6-18.26
				C794.78,293.2,795.86,293.82,795.41,294.48L795.41,294.48z"/>
		</g>
		<g>
			<path class="st1" d="M755.72,315.12c-4.08,1.76-8.31,3.04-12.69,3.82c-0.77,0.14-1.11-1.05-0.32-1.19
				c4.27-0.77,8.42-1.99,12.39-3.7C755.81,313.75,756.44,314.81,755.72,315.12L755.72,315.12z"/>
		</g>
		<g>
			<path class="st1" d="M941.23,366.39c-6.98,1.62-13.5,4.65-19.25,8.96c-0.63,0.48-1.25-0.6-0.62-1.06
				c5.81-4.36,12.45-7.44,19.54-9.08C941.67,365.02,942,366.22,941.23,366.39L941.23,366.39z"/>
		</g>
		<g>
			<path class="st1" d="M958.71,366.29c-1.86,0.15-3.73,0.31-5.6,0.46c-0.79,0.06-0.79-1.17,0-1.23c1.86-0.15,3.73-0.31,5.6-0.46
				C959.5,364.98,959.5,366.22,958.71,366.29L958.71,366.29z"/>
		</g>
		<g>
			<path class="st1" d="M958.14,361.53c-5.81-0.86-11.68-0.57-17.39,0.82c-0.77,0.18-1.09-1-0.32-1.19
				c5.93-1.45,12.01-1.71,18.03-0.82C959.25,360.45,958.91,361.66,958.14,361.53L958.14,361.53z"/>
		</g>
		<g>
			<path class="st1" d="M939.66,450.61c-5.87-1.66-11.79-3.1-17.77-4.28c-0.77-0.15-0.45-1.34,0.32-1.19
				c5.98,1.19,11.91,2.6,17.77,4.28C940.74,449.63,940.42,450.84,939.66,450.61L939.66,450.61z"/>
		</g>
		<g>
			<path class="st1" d="M936.16,442.93c-9.02-1.28-17.96-3.05-26.77-5.32c-0.77-0.2-0.45-1.39,0.32-1.19
				c8.82,2.25,17.76,4.02,26.77,5.32C937.27,441.85,936.95,443.04,936.16,442.93L936.16,442.93z"/>
		</g>
		<g>
			<path class="st1" d="M908.6,443.85c-4.59-1.29-9.29-1.99-14.07-2.08c-0.79-0.02-0.8-1.25,0-1.23c4.89,0.09,9.7,0.8,14.4,2.13
				C909.68,442.88,909.36,444.07,908.6,443.85L908.6,443.85z"/>
		</g>
		<g>
			<path class="st1" d="M955.91,170.59c0.32-3.71,0.08-7.4-0.74-11.05c-0.17-0.77,1.02-1.11,1.19-0.32
				c0.85,3.75,1.13,7.55,0.79,11.38C957.06,171.38,955.83,171.38,955.91,170.59L955.91,170.59z"/>
		</g>
		<g>
			<path class="st1" d="M951.24,162.56c-1.34-4.16-3.67-7.81-6.84-10.82c-0.59-0.54,0.29-1.42,0.88-0.88
				c3.33,3.14,5.76,7,7.15,11.36C952.67,162.99,951.47,163.32,951.24,162.56L951.24,162.56z"/>
		</g>
		<g>
			<path class="st1" d="M949.14,151.08c-0.66-1.2-1.6-2.14-2.81-2.79c-0.69-0.39-0.08-1.45,0.62-1.06c1.37,0.76,2.48,1.87,3.24,3.24
				C950.59,151.16,949.53,151.77,949.14,151.08L949.14,151.08z"/>
		</g>
		<g>
			<path class="st1" d="M899.25,104.25c-1.8-1.87-3.9-3.31-6.27-4.35c-0.72-0.32-0.09-1.37,0.62-1.06c2.47,1.08,4.65,2.6,6.52,4.55
				C900.67,103.96,899.8,104.82,899.25,104.25L899.25,104.25z"/>
		</g>
		<g>
			<path class="st1" d="M897.69,98.69c-2-1.23-4.12-2.19-6.37-2.85c-0.76-0.23-0.43-1.42,0.32-1.19c2.34,0.69,4.58,1.68,6.66,2.97
				C898.99,98.04,898.37,99.1,897.69,98.69L897.69,98.69z"/>
		</g>
		<g>
			<path class="st1" d="M976.72,135.68c-0.15-1.57-0.29-3.16-0.45-4.73c-0.08-0.79,1.16-0.79,1.23,0c0.15,1.57,0.29,3.16,0.45,4.73
				C978.01,136.48,976.78,136.47,976.72,135.68L976.72,135.68z"/>
		</g>
		<g>
			<path class="st1" d="M980.38,133.52c0.18-3.08-1.11-5.89-3.53-7.77c-0.63-0.49,0.25-1.36,0.88-0.88c2.67,2.07,4.1,5.29,3.9,8.65
				C981.56,134.31,980.32,134.32,980.38,133.52L980.38,133.52z"/>
		</g>
		<g>
			<path class="st1" d="M980.89,188.42c-0.72,4.05-2.44,7.75-4.98,10.99c-0.49,0.62-1.36-0.26-0.88-0.88
				c2.42-3.07,3.98-6.61,4.67-10.45C979.84,187.32,981.03,187.65,980.89,188.42L980.89,188.42z"/>
		</g>
		<g>
			<path class="st1" d="M974.36,192.89c-2.6,5.06-5.72,9.8-9.31,14.23c-0.49,0.62-1.37-0.26-0.88-0.88c3.51-4.33,6.57-9,9.11-13.96
				C973.66,191.57,974.73,192.19,974.36,192.89L974.36,192.89z"/>
		</g>
		<g>
			<path class="st1" d="M586.5,392.48c-0.26-8.91-5.44-16.54-7.91-24.89c-2.51-8.49-2.47-17.62-0.05-26.11
				c0.22-0.76,1.4-0.43,1.19,0.32c-2.53,8.86-2.37,18.34,0.55,27.08c2.62,7.85,7.18,15.12,7.44,23.6
				C587.74,393.28,586.51,393.28,586.5,392.48L586.5,392.48z"/>
		</g>
		<g>
			<path class="st1" d="M574.81,376.16c-7.61-16.51-4.47-37.01,7.8-50.45c0.54-0.59,1.4,0.29,0.88,0.88
				c-11.87,12.99-14.98,32.97-7.6,48.95C576.2,376.25,575.14,376.87,574.81,376.16L574.81,376.16z"/>
		</g>
		<g>
			<path class="st1" d="M598.35,403.55c9.31-17.79,13.39-38.12,11.79-58.12c-0.46-5.72-1.4-11.39-2.79-16.97
				c-0.18-0.77,1-1.09,1.19-0.32c4.92,19.78,4.07,40.85-2.37,60.17c-1.82,5.46-4.08,10.77-6.75,15.86
				C599.06,404.87,597.98,404.26,598.35,403.55L598.35,403.55z"/>
		</g>
		<g>
			<path class="st1" d="M603.51,354.58c-1.26-18.31,2.5-39.6-9.9-55.06c-0.49-0.62,0.37-1.5,0.88-0.88
				c12.67,15.81,8.96,37.19,10.25,55.93C604.81,355.37,603.57,355.37,603.51,354.58L603.51,354.58z"/>
		</g>
		<g>
			<path class="st1" d="M614.69,319.84c-1.42-5.75-3.67-11.21-6.72-16.28c-0.42-0.68,0.66-1.29,1.06-0.62
				c3.1,5.16,5.41,10.73,6.84,16.57C616.07,320.29,614.89,320.61,614.69,319.84L614.69,319.84z"/>
		</g>
		<g>
			<path class="st1" d="M601.15,297.04c-1.65-2.39-3.3-4.78-4.96-7.17c-0.45-0.65,0.62-1.26,1.06-0.62c1.65,2.39,3.3,4.78,4.96,7.17
				C602.66,297.07,601.6,297.69,601.15,297.04L601.15,297.04z"/>
		</g>
		<g>
			<path class="st1" d="M567.51,421.58c-5.33,0.05-10.6-1.03-15.46-3.27c-5.04-2.31-9.22-5.96-13.5-9.42
				c-8.59-6.94-18.94-13.75-30.49-12.35c-0.79,0.09-0.79-1.14,0-1.23c10.87-1.33,20.79,4.52,29.08,10.9
				c4.44,3.42,8.57,7.35,13.53,10.03c5.16,2.79,10.97,4.16,16.83,4.1C568.31,420.35,568.31,421.58,567.51,421.58L567.51,421.58z"/>
		</g>
		<g>
			<path class="st1" d="M534.82,417.05c-15.06-16.8-40.11-14.07-60.34-16.82c-6.32-0.85-12.53-2.3-18.39-4.86
				c-0.72-0.32-0.09-1.37,0.62-1.06c20.78,9.06,44.73,3.18,65.54,12.32c5.09,2.23,9.73,5.38,13.44,9.53
				C536.2,416.76,535.34,417.64,534.82,417.05L534.82,417.05z"/>
		</g>
		<g>
			<path class="st1" d="M484.8,393.48c-6.49,0.26-12.93-0.6-19.13-2.54c-0.76-0.23-0.43-1.43,0.32-1.19
				c6.1,1.91,12.41,2.74,18.8,2.5C485.59,392.22,485.59,393.45,484.8,393.48L484.8,393.48z"/>
		</g>
		<g>
			<path class="st1" d="M449.76,388.24c-2.45-0.85-4.9-1.68-7.34-2.53c-0.74-0.26-0.43-1.45,0.32-1.19c2.45,0.85,4.9,1.68,7.34,2.53
				C450.83,387.32,450.52,388.51,449.76,388.24L449.76,388.24z"/>
		</g>
		<g>
			<path class="st1" d="M572.49,432.88c-11.38,5.23-23.52,8.52-35.97,9.8c-0.79,0.08-0.79-1.16,0-1.23
				c12.22-1.25,24.18-4.52,35.36-9.63C572.58,431.49,573.19,432.56,572.49,432.88L572.49,432.88z"/>
		</g>
		<g>
			<path class="st1" d="M523.55,444.63c-10.28,1.31-20.78-0.92-29.64-6.27c-0.68-0.42-0.06-1.48,0.62-1.06
				c8.71,5.26,18.94,7.4,29.02,6.1C524.33,443.28,524.32,444.52,523.55,444.63L523.55,444.63z"/>
		</g>
		<g>
			<path class="st1" d="M477.74,437.46c-8.4-2.85-16-7.64-22.16-14.03c-0.55-0.57,0.32-1.45,0.88-0.88
				c6.03,6.23,13.41,10.93,21.62,13.72C478.8,436.52,478.5,437.7,477.74,437.46L477.74,437.46z"/>
		</g>
		<g>
			<path class="st1" d="M469.36,424.13c-10.08-5.26-18.6-13.13-24.66-22.77c-0.42-0.68,0.65-1.29,1.06-0.62
				c5.95,9.45,14.32,17.16,24.21,22.32C470.68,423.42,470.06,424.5,469.36,424.13L469.36,424.13z"/>
		</g>
		<g>
			<path class="st1" d="M504.74,425.31c-1.86-1.14-3.73-2.3-5.61-3.44c-0.68-0.42-0.06-1.48,0.62-1.06c1.86,1.14,3.73,2.3,5.61,3.44
				C506.04,424.66,505.42,425.73,504.74,425.31L504.74,425.31z"/>
		</g>
		<g>
			<path class="st1" d="M800.42,447.6c-9.48,3.36-19.48,4.99-29.55,4.82c-0.79-0.02-0.8-1.25,0-1.23
				c9.96,0.17,19.84-1.45,29.22-4.78C800.85,446.15,801.17,447.34,800.42,447.6L800.42,447.6z"/>
		</g>
		<g>
			<path class="st1" d="M827.27,441.85c-5.83,2.59-12.11,3.73-18.47,3.31c-0.79-0.05-0.79-1.28,0-1.23
				c6.13,0.42,12.22-0.63,17.85-3.14C827.36,440.46,827.99,441.53,827.27,441.85L827.27,441.85z"/>
		</g>
		<g>
			<path class="st1" d="M813.46,434.88c-6.41,3.5-13.61,4.86-20.81,5.66c-8.37,0.92-16.8,1.31-25.22,1.26c-0.79,0-0.8-1.23,0-1.23
				c8.05,0.05,16.09-0.31,24.11-1.14c7.35-0.76,14.77-2.03,21.32-5.61C813.53,433.45,814.15,434.51,813.46,434.88L813.46,434.88z"/>
		</g>
		<g>
			<path class="st1" d="M751.48,455.48c-3.59,0.17-7.18,0.34-10.77,0.51c-0.79,0.03-0.79-1.2,0-1.23c3.59-0.17,7.18-0.34,10.77-0.51
				C752.28,454.21,752.27,455.45,751.48,455.48L751.48,455.48z"/>
		</g>
		<g>
			<path class="st1" d="M688.66,426.98c-3.07-0.35-7.68-0.68-10.23,1.42c-1.57,1.28-1.66,3.27-0.18,4.69
				c1.29,1.25,3.22,1.54,4.93,1.83c0.69,0.12,0.52,1.22-0.17,1.22c-2.22-0.02-4.58,0.25-5.41,2.65c-0.71,2-0.18,4.22,0.88,6
				c2.16,3.59,6.4,5.02,10.23,6c0.77,0.2,0.45,1.39-0.32,1.19c-4.84-1.23-10.1-3.36-11.87-8.48c-0.71-2.03-0.69-4.5,0.52-6.35
				c1.33-2.02,3.76-2.25,5.98-2.23c-0.06,0.4-0.11,0.8-0.17,1.22c-2.16-0.37-4.5-0.85-5.93-2.65c-0.99-1.23-1.33-2.84-0.65-4.3
				c1.93-4.13,8.69-3.84,12.39-3.41C689.44,425.84,689.44,427.07,688.66,426.98L688.66,426.98z"/>
		</g>
		<g>
			<path class="st1" d="M676.43,430.51c-3.42-0.28-6.18,2.42-6.09,5.83c0.09,3.59,3.21,6.1,6.61,6.4c0.79,0.06,0.79,1.29,0,1.23
				c-4.12-0.35-7.69-3.31-7.83-7.63c-0.14-4.04,3.27-7.38,7.32-7.06C677.22,429.35,677.23,430.58,676.43,430.51L676.43,430.51z"/>
		</g>
		<g>
			<path class="st1" d="M647.43,410.93c-3.76,0.03-8.96-1.05-11.19-4.44c-2.14-3.27,0.91-5.6,3.71-6.69c0,0.4,0,0.79,0,1.19
				c-3.3-1.14-8.42-3.67-6.75-8.11c0.62-1.66,2.23-2.45,3.84-2.91c2.65-0.77,5.41-1.2,8.15-1.48c-0.06,0.4-0.11,0.8-0.17,1.22
				c-3.98-1.48-9.6-4.21-8.42-9.45c1.2-5.32,7.28-6.32,11.85-6.09c0.79,0.05,0.8,1.28,0,1.23c-3.87-0.18-9.16,0.32-10.54,4.73
				c-1.46,4.67,4.01,7.12,7.43,8.38c0.66,0.25,0.54,1.14-0.17,1.22c-1.91,0.2-3.79,0.49-5.67,0.91c-1.51,0.34-3.59,0.63-4.65,1.9
				c-1.22,1.45-0.62,3.53,0.62,4.78c1.29,1.31,3.11,1.91,4.81,2.5c0.6,0.2,0.57,0.97,0,1.19c-1.17,0.46-2.7,1.06-3.3,2.27
				c-0.79,1.59,0.52,3.11,1.74,3.99c2.47,1.77,5.72,2.45,8.69,2.44C648.21,409.7,648.21,410.93,647.43,410.93L647.43,410.93z"/>
		</g>
		<g>
			<path class="st1" d="M637.13,381.74c-1.39,0.86-2.84,1.97-3.18,3.67c-0.42,2.16,1.2,3.82,3.19,4.28
				c0.77,0.18,0.45,1.37-0.32,1.19c-2.31-0.54-4.16-2.37-4.16-4.86c0-2.45,1.94-4.16,3.85-5.36
				C637.19,380.26,637.81,381.32,637.13,381.74L637.13,381.74z"/>
		</g>
		<g>
			<path class="st1" d="M634.6,398.32c-3.16,1.03-2.19,5.78,1.17,5.3c0.77-0.11,1.11,1.08,0.32,1.19c-2.02,0.29-4.16-0.85-4.65-2.94
				c-0.49-2.08,0.88-4.1,2.84-4.73C635.03,396.89,635.36,398.08,634.6,398.32L634.6,398.32z"/>
		</g>
		<g>
			<path class="st1" d="M632.24,426.64c-1.73-0.29-4.28-0.71-5.3,1.19c-0.99,1.8,0.37,3.76,1.53,5.07c0.43,0.49,0,1.11-0.6,1.03
				c-0.96-0.12-2.27-0.28-2.73,0.74c-0.42,0.92,0.31,2.03,0.85,2.81c0.97,1.42,2.33,2.47,4.04,2.76c0.79,0.12,0.45,1.31-0.32,1.19
				c-2.65-0.43-5.15-2.84-5.83-5.44c-0.74-2.91,2.08-3.53,4.32-3.24c-0.2,0.34-0.4,0.69-0.6,1.03c-1.54-1.74-2.99-4.24-1.71-6.57
				c1.34-2.42,4.39-2.14,6.7-1.74C633.35,425.59,633.01,426.78,632.24,426.64L632.24,426.64z"/>
		</g>
		<g>
			<path class="st1" d="M681.78,345.24c-1.83,0.18-4.52,0.46-5.26,2.51c-0.96,2.67,2.23,3.73,4.21,4.25c0.57,0.15,0.6,1.05,0,1.19
				c-1.85,0.42-3.1,2.17-2.48,4.07c0.49,1.53,1.9,2.71,3.18,3.58c2.4,1.63,5.23,2.37,8.12,2.28c0.79-0.03,0.79,1.2,0,1.23
				c-4.08,0.12-8.46-1.39-11.17-4.55c-2.33-2.7-1.8-6.94,2.03-7.8c0,0.4,0,0.79,0,1.19c-2.44-0.63-5.86-2.05-5.24-5.21
				c0.59-3.07,4.02-3.71,6.63-3.98C682.57,343.91,682.57,345.15,681.78,345.24L681.78,345.24z"/>
		</g>
		<g>
			<path class="st1" d="M644.99,353.13c-1.77,0.22-3.68,0.83-2.96,3.1c0.46,1.42,1.68,2.36,3.08,2.74c0.72,0.2,0.48,1.13-0.17,1.22
				c-1.11,0.15-1.82,1.42-0.89,2.48c0.42,0.48,1.06,0.8,1.65,1.02c0.74,0.28,0.42,1.46-0.32,1.19c-1.51-0.55-3.24-1.77-3.31-3.55
				c-0.08-1.71,1.48-2.19,2.88-2.39c-0.06,0.4-0.11,0.8-0.17,1.22c-2.16-0.6-4.15-2.48-4.16-4.86c-0.02-2.48,2.34-3.16,4.38-3.42
				C645.78,351.79,645.78,353.04,644.99,353.13L644.99,353.13z"/>
		</g>
		<g>
			<path class="st1" d="M640.57,356.17c-2.02,0.48-3.75,2.4-3.19,4.59c0.57,2.3,3.78,2.48,5.72,2.28c0.79-0.08,0.79,1.16,0,1.23
				c-2.54,0.26-6.35-0.29-6.94-3.3c-0.55-2.82,1.4-5.36,4.1-6.01C641.01,354.8,641.34,356,640.57,356.17L640.57,356.17z"/>
		</g>
		<g>
			<path class="st1" d="M558.43,386.32c-2.45,1.83-5.89,3.19-9,2.73c-3.24-0.48-2.65-3.82-1.48-5.95c0.23,0.31,0.46,0.6,0.69,0.91
				c-1.88,0.65-4.86,1.13-5.66-1.36c-0.72-2.27,2.27-4.36,3.96-5.18c0.71-0.34,1.34,0.71,0.62,1.06c-1.09,0.52-2.37,1.28-2.97,2.37
				c-1.71,3.11,2.37,2.37,3.71,1.91c0.52-0.18,0.94,0.46,0.69,0.91c-0.69,1.25-1.51,3.1,0.17,4.04c0.77,0.43,2.68,0.02,3.47-0.14
				c1.9-0.39,3.62-1.22,5.16-2.37C558.44,384.79,559.06,385.85,558.43,386.32L558.43,386.32z"/>
		</g>
		<g>
			<path class="st1" d="M569.36,456.15c-0.65,4.02-3.05,8.01-6.97,9.57c-1.62,0.65-3.55,0.94-5.01-0.22
				c-1.46-1.16-1.94-3.19-2.25-4.93c0.37,0.05,0.76,0.09,1.13,0.15c-1.94,2.54-4.93,5.43-8.45,4.13c-2.99-1.11-3.42-4.56-3.56-7.34
				c-0.05-0.79,1.19-0.79,1.23,0c0.11,2.14,0.28,5.02,2.51,6.06c2.93,1.36,5.6-1.37,7.2-3.47c0.28-0.37,1.02-0.43,1.13,0.15
				c0.25,1.4,0.55,3.14,1.65,4.15c1.46,1.33,3.79,0.43,5.26-0.48c2.82-1.74,4.42-4.9,4.93-8.11
				C568.29,455.04,569.48,455.37,569.36,456.15L569.36,456.15z"/>
		</g>
		<g>
			<path class="st1" d="M561.16,466.23c-2.14,2.88-5.58,4.7-9.23,4.44c-3.68-0.26-5.72-3.13-5.81-6.67c-0.02-0.79,1.22-0.79,1.23,0
				c0.09,3.33,2.1,5.56,5.53,5.46c2.85-0.09,5.52-1.57,7.21-3.85C560.56,464.99,561.63,465.6,561.16,466.23L561.16,466.23z"/>
		</g>
		<g>
			<path class="st1" d="M506.58,482.59c-0.14,7.81,0.57,15.58,2.14,23.24c0.15,0.77-1.03,1.11-1.19,0.32
				c-1.6-7.75-2.34-15.64-2.19-23.57C505.36,481.8,506.59,481.8,506.58,482.59L506.58,482.59z"/>
		</g>
		<g>
			<path class="st1" d="M513.07,493.29c0.83,10.93,2.9,21.72,6.15,32.2c0.23,0.76-0.96,1.08-1.19,0.32
				c-3.28-10.57-5.35-21.49-6.2-32.52C511.77,492.5,513.01,492.5,513.07,493.29L513.07,493.29z"/>
		</g>
		<g>
			<path class="st1" d="M544.57,498.9c0.14,1.65,1.23,3.45-1.09,3.98c-1.97,0.45-4.07-0.59-5.27-2.11c0.34-0.09,0.69-0.18,1.03-0.28
				c-0.32,1.86,0.69,4.87-1.63,5.87c-2.19,0.96-3.84-2.02-4.9-3.38c0.34-0.2,0.69-0.4,1.03-0.6c0.82,3.65-1.86,7.06-5.64,7.01
				c-3.87-0.05-7.11-3.11-7.8-6.83c-0.14-0.77,1.05-1.11,1.19-0.32c0.51,2.74,2.48,5.1,5.24,5.75c3.36,0.8,6.61-1.73,5.81-5.29
				c-0.12-0.54,0.62-1.13,1.03-0.6c0.62,0.79,3.45,4.92,4.32,2.05c0.39-1.26-0.06-2.7,0.15-4.01c0.08-0.43,0.76-0.63,1.03-0.28
				c0.76,0.96,2.1,1.97,3.42,1.83c1.7-0.18,0.92-1.71,0.83-2.82C543.26,498.09,544.5,498.11,544.57,498.9L544.57,498.9z"/>
		</g>
		<g>
			<path class="st1" d="M572.24,529.75c2.73,0.42,5.93,1.11,6.98,4.02c0.96,2.67-0.79,4.53-3.27,5.19c-0.06-0.4-0.11-0.8-0.17-1.22
				c2.57-0.05,5.93,0.15,7.11,2.93c0.92,2.19-0.34,4.65-2.28,5.76c-0.69,0.39-1.31-0.68-0.62-1.06c1.54-0.88,2.59-2.91,1.59-4.58
				c-1.14-1.93-3.87-1.85-5.8-1.82c-0.69,0.02-0.83-1.03-0.17-1.22c1-0.28,2.14-0.69,2.53-1.77c0.37-1-0.12-2.22-0.8-2.97
				c-1.36-1.51-3.56-1.8-5.46-2.1C571.13,530.83,571.47,529.63,572.24,529.75L572.24,529.75z"/>
		</g>
		<g>
			<path class="st1" d="M581.63,539.25c1.14-2.42-0.72-4.92-3.31-4.73c-0.79,0.05-0.79-1.19,0-1.23c3.61-0.25,5.89,3.39,4.38,6.58
				C582.35,540.59,581.29,539.97,581.63,539.25L581.63,539.25z"/>
		</g>
		<g>
			<path class="st1" d="M583.11,505.99c1.56-1.74,4.05-3.25,6.49-2.81c1.94,0.35,3.25,2.34,2.2,4.16c-0.28-0.28-0.55-0.55-0.85-0.85
				c2.19-1.34,5.16-1.77,7.07,0.29c1.53,1.63,1.23,4.13-0.59,5.39c-0.2-0.35-0.42-0.71-0.62-1.06c4.1-2.27,8.43,2.02,6.26,6.15
				c-0.37,0.71-1.43,0.08-1.06-0.62c1.6-3.04-1.57-6.12-4.58-4.47c-0.71,0.39-1.26-0.62-0.62-1.06c1.73-1.2,0.91-3.45-0.74-4.21
				c-1.54-0.71-3.16-0.17-4.52,0.66c-0.54,0.32-1.16-0.32-0.85-0.85c1.4-2.4-2.33-2.48-3.5-2.08c-1.29,0.43-2.34,1.22-3.24,2.22
				C583.44,507.45,582.58,506.57,583.11,505.99L583.11,505.99z"/>
		</g>
		<g>
			<path class="st1" d="M601.91,512.35c0.25-0.89,0.48-2.31-0.06-3.16c-0.65-1.02-2.14-0.72-3.11-0.54
				c-0.77,0.14-1.11-1.05-0.32-1.19c1.45-0.28,3.18-0.46,4.27,0.77c1,1.14,0.8,3.1,0.43,4.45
				C602.9,513.45,601.71,513.12,601.91,512.35L601.91,512.35z"/>
		</g>
		<g>
			<path class="st1" d="M638.21,502.53c1.23-1.28,1.94-2.93,1.9-4.72c-0.03-0.96-0.25-2.22-1.19-2.73c-1.05-0.55-2.44,0.45-3.05,1.2
				c-0.42,0.52-1.14-0.06-1.03-0.6c0.49-2.48-2.23-3.62-4.25-3.7c-1.73-0.06-3.48,0.54-4.49,2c-0.45,0.65-1.51,0.03-1.06-0.62
				c1.48-2.16,4.1-2.93,6.61-2.51c2.6,0.42,4.93,2.31,4.38,5.15c-0.34-0.2-0.69-0.4-1.03-0.6c1.43-1.79,4.73-2.53,5.86-0.03
				c1.22,2.7,0.18,6-1.77,8.01C638.52,503.97,637.65,503.1,638.21,502.53L638.21,502.53z"/>
		</g>
		<g>
			<path class="st1" d="M616.98,460.12c-0.42-1.29-1.91-3.95-3.27-1.99c-0.66,0.97-0.32,2.07-0.49,3.21c-0.09,0.65-1.02,0.52-1.19,0
				c-0.57-1.79-2.67-3.38-4.3-1.63c-1.31,1.39-0.86,3.41-0.31,5.02c0.26,0.76-0.94,1.08-1.19,0.32c-0.82-2.39-1-5.81,1.77-7.04
				c2.37-1.05,4.53,0.83,5.23,2.99c-0.4,0-0.79,0-1.19,0c0.26-1.86-0.46-4.56,2.27-4.79c2.14-0.17,3.28,1.8,3.85,3.56
				C618.42,460.55,617.23,460.87,616.98,460.12L616.98,460.12z"/>
		</g>
		<g>
			<path class="st1" d="M613.28,457.06c-0.94-2.2-4.1-1.63-4.04,0.83c0.02,0.79-1.22,0.79-1.23,0c-0.03-1.6,1.05-3.16,2.68-3.45
				c1.53-0.28,3.05,0.6,3.65,2C614.66,457.17,613.59,457.79,613.28,457.06L613.28,457.06z"/>
		</g>
		<g>
			<path class="st1" d="M615.1,437.9c-1-1.02-1.94-2.48-3.36-2.96c-0.88-0.29-1.93-0.17-2.03,0.88c-0.09,0.82,0.49,1.66,0.96,2.28
				c0.48,0.63-0.59,1.25-1.06,0.62c-1.11-1.43-1.99-4.24,0.34-5.02c2.6-0.86,4.47,1.74,6.03,3.33
				C616.52,437.6,615.66,438.48,615.1,437.9L615.1,437.9z"/>
		</g>
		<g>
			<path class="st1" d="M594.31,435.69c-0.42-1.2-1.37-2.11-2.62-2.42c-0.96-0.23-1.46-0.32-1.66,0.69
				c-0.17,0.89,0.11,1.05,0.48,1.82c0.29,0.62-0.43,1.25-0.97,0.74c-0.54-0.51-1.22-0.96-1.99-0.94c-1.94,0.02-1.6,1.93-1.09,3.05
				c0.32,0.71-0.74,1.34-1.06,0.62c-0.65-1.4-1.17-3.65,0.49-4.59c1.5-0.85,3.39-0.08,4.53,0.99c-0.32,0.25-0.65,0.49-0.97,0.74
				c-0.45-0.96-1.28-1.83-1.05-2.97c0.2-0.99,1.08-1.37,2.02-1.48c2.3-0.26,4.36,1.29,5.09,3.41
				C595.76,436.1,594.57,436.43,594.31,435.69L594.31,435.69z"/>
		</g>
		<g>
			<path class="st1" d="M537.2,505.69c0.51,3.62-4.08,7.2-6.87,3.88c-0.51-0.6,0.35-1.48,0.88-0.88c1.88,2.25,5.16-0.12,4.81-2.68
				C535.91,505.25,537.1,504.91,537.2,505.69L537.2,505.69z"/>
		</g>
		<g>
			<path class="st1" d="M543.85,502.41c1.05,3.04-3.34,4.33-5.38,2.9c-0.65-0.45-0.03-1.53,0.62-1.06c1.11,0.79,4.27,0.49,3.58-1.51
				C542.4,501.99,543.59,501.67,543.85,502.41L543.85,502.41z"/>
		</g>
		<g>
			<path class="st1" d="M544.76,528.67c1.37,1.46,3.24,4.9,1.57,6.78c-1.6,1.82-4.5,0.2-5.6-1.33c-0.4-0.55,0.52-1.29,0.97-0.74
				c1.23,1.51,2.81,4.64,1.62,6.58c-1.17,1.91-4.42,0.06-5.64-0.91c-0.62-0.49,0.26-1.36,0.88-0.88c1,0.8,3.67,2.34,3.84,0.09
				c0.11-1.42-0.71-2.96-1.56-4.02c0.32-0.25,0.65-0.49,0.97-0.74c0.45,0.63,1.05,1.11,1.8,1.33c1.19,0.34,2.14-1,1.96-2.08
				c-0.22-1.23-0.83-2.3-1.68-3.21C543.35,528.97,544.22,528.09,544.76,528.67L544.76,528.67z"/>
		</g>
		<g>
			<path class="st1" d="M731.18,379.35c-3.87,0.51-10.19,1.83-9.23,7.12c0.4,2.2,1.99,2.42,3.84,2.87c1.19,0.28,2.1,0.77,2.23,2.07
				c0.03,0.35-0.31,0.59-0.62,0.62c-2.62,0.32-3.55,3.76-2.42,5.84c1.34,2.5,4.53,3.19,7.12,3.07c0.79-0.03,0.79,1.2,0,1.23
				c-3.38,0.15-7.69-1.17-8.66-4.84c-0.77-2.87,0.89-6.17,3.96-6.54c-0.2,0.2-0.42,0.42-0.62,0.62c-0.09-1.03-2.45-1.03-3.14-1.25
				c-0.76-0.23-1.42-0.63-1.93-1.25c-1.03-1.25-1.26-3.04-0.96-4.59c0.94-4.72,6.41-5.69,10.4-6.2
				C731.95,378.02,731.95,379.26,731.18,379.35L731.18,379.35z"/>
		</g>
	</g>
	<g>
		<path class="st4" d="M646.55,279.06c-0.63-1.94,0.42-4.04,2.37-4.67c1.94-0.63,4.04,0.42,4.67,2.37c0.63,1.94-0.42,4.04-2.37,4.67
			C649.27,282.06,647.18,281,646.55,279.06z"/>
		<path class="st4" d="M574.3,277.22c-0.63-1.94,0.42-4.04,2.37-4.67c1.94-0.63,4.04,0.42,4.67,2.37c0.63,1.94-0.42,4.04-2.37,4.67
			C577.03,280.23,574.94,279.18,574.3,277.22z"/>
		<path class="st4" d="M556.04,276.76c-0.63-1.94,0.42-4.04,2.37-4.67c1.94-0.63,4.04,0.42,4.67,2.37c0.63,1.94-0.42,4.04-2.37,4.67
			C558.77,279.76,556.69,278.7,556.04,276.76z"/>
		<path class="st4" d="M536.22,276.27c-0.63-1.94,0.42-4.04,2.37-4.67c1.94-0.63,4.04,0.42,4.67,2.37c0.63,1.94-0.42,4.04-2.37,4.67
			C538.96,279.27,536.87,278.21,536.22,276.27z"/>
		<path class="st4" d="M516.23,275.76c-0.63-1.94,0.42-4.04,2.37-4.67c1.94-0.63,4.04,0.42,4.67,2.37c0.63,1.94-0.42,4.04-2.37,4.67
			C518.96,278.76,516.86,277.7,516.23,275.76z"/>
		<path class="st4" d="M459.6,276c-0.63-1.94,0.42-4.04,2.37-4.67c1.94-0.63,4.04,0.42,4.67,2.37c0.63,1.94-0.42,4.04-2.37,4.67
			C462.33,279.01,460.23,277.95,459.6,276z"/>
		<path class="st4" d="M681.09,279.75c-0.63-1.94,0.42-4.04,2.37-4.67c1.94-0.63,4.04,0.42,4.67,2.37c0.63,1.94-0.42,4.04-2.37,4.67
			C683.83,282.75,681.74,281.71,681.09,279.75z"/>
		<path class="st4" d="M663.84,279.32c-0.63-1.94,0.42-4.04,2.37-4.67c1.94-0.63,4.04,0.42,4.67,2.37c0.63,1.94-0.42,4.04-2.37,4.67
			C666.57,282.32,664.47,281.26,663.84,279.32z"/>
		<polygon class="st4" points="805.04,605.52 803.45,623.67 795.73,611.38 774.01,612.52 793.24,600.44 792.23,584.25 801.56,599.1 
			814.98,597.56 		"/>
		<path class="st4" d="M764.8,593.09c0.29-2.02,2.17-3.42,4.21-3.13c2.02,0.29,3.42,2.17,3.13,4.21c-0.29,2.02-2.17,3.42-4.21,3.13
			C765.89,596.99,764.5,595.11,764.8,593.09z"/>
		<path class="st4" d="M748.66,584.52c0.29-2.02,2.17-3.42,4.21-3.13c2.03,0.29,3.42,2.17,3.13,4.21c-0.29,2.02-2.17,3.42-4.21,3.13
			C749.75,588.43,748.37,586.54,748.66,584.52z"/>
		<path class="st4" d="M732.26,575.81c0.29-2.02,2.17-3.42,4.21-3.13c2.02,0.29,3.42,2.17,3.13,4.21c-0.29,2.02-2.17,3.42-4.21,3.13
			C733.35,579.71,731.97,577.83,732.26,575.81z"/>
		<path class="st4" d="M716.57,567.47c0.29-2.02,2.17-3.42,4.21-3.13s3.42,2.17,3.13,4.21c-0.29,2.03-2.17,3.42-4.21,3.13
			C717.66,571.38,716.26,569.5,716.57,567.47z"/>
		<path class="st4" d="M700.97,559.19c0.29-2.02,2.17-3.42,4.21-3.13c2.02,0.29,3.42,2.17,3.13,4.21c-0.29,2.02-2.17,3.42-4.21,3.13
			C702.08,563.11,700.68,561.21,700.97,559.19z"/>
		<polygon class="st4" points="856.89,544.64 864.04,559.32 850.22,550.42 839.97,566.34 842.73,549.16 831.89,544.84 
			844.11,540.57 843.88,526.19 851.71,540.73 861.49,537.52 		"/>
		<path class="st4" d="M827.45,573.53c-1.82-0.92-2.56-3.16-1.63-4.98s3.16-2.56,4.98-1.63s2.56,3.16,1.63,4.98
			C831.51,573.73,829.27,574.45,827.45,573.53z"/>
		<path class="st4" d="M812.93,587.29c-1.82-0.92-2.56-3.16-1.63-4.98c0.92-1.82,3.16-2.56,4.98-1.63c1.82,0.92,2.56,3.16,1.63,4.98
			C816.99,587.49,814.75,588.22,812.93,587.29z"/>
		<path class="st4" d="M587.7,486.83c-0.37,2.02-2.3,3.36-4.3,2.99c-2.02-0.37-3.36-2.3-2.99-4.3c0.37-2.02,2.3-3.36,4.3-2.99
			C586.73,482.88,588.07,484.81,587.7,486.83z"/>
		<path class="st4" d="M603.56,495.91c-0.37,2.02-2.3,3.36-4.3,2.99c-2.02-0.37-3.36-2.3-2.99-4.3c0.37-2.02,2.3-3.36,4.3-2.99
			C602.57,491.97,603.91,493.9,603.56,495.91z"/>
		<path class="st4" d="M619.67,505.15c-0.37,2.02-2.3,3.36-4.3,2.99c-2.02-0.37-3.36-2.3-2.99-4.3c0.37-2.02,2.3-3.36,4.3-2.99
			C618.69,501.21,620.02,503.13,619.67,505.15z"/>
		<path class="st4" d="M635.08,513.99c-0.37,2.02-2.3,3.36-4.3,2.99c-2.02-0.37-3.36-2.3-2.99-4.3c0.37-2.02,2.3-3.36,4.3-2.99
			C634.11,510.04,635.43,511.97,635.08,513.99z"/>
		<path class="st4" d="M650.4,522.76c-0.37,2.02-2.3,3.36-4.3,2.99c-2.02-0.37-3.36-2.3-2.99-4.3c0.37-2.02,2.3-3.36,4.3-2.99
			C649.41,518.82,650.75,520.75,650.4,522.76z"/>
		<polygon class="st4" points="674.43,531.99 687.19,521.41 682.07,538.17 690.01,545.37 677.64,541.58 667.03,556.22 
			671.02,543.13 655.41,537.18 664.58,534.98 665.71,523.28 		"/>
		<path class="st4" d="M557.38,458.7c2.48,1.02,18.17,9.88,18.17,9.88l-17.09-0.74l-0.23,15.86l-6.29-11.76l-9.08,12.7l0.2-13.46
			l-16.75,6.66l10.99-11.44l-12.82-5.27l14.55-1.28l-4.08-17.14l9.42,13.53l7.57-19.61l0.77,15.78l13.9-4.44L557.38,458.7z"/>
		<polygon class="st4" points="508.01,424.08 499.53,410.69 512.77,414.79 516.35,403.26 520.73,416.31 536.33,418.82 
			524.61,426.42 526.8,443.48 516.64,430.97 501.18,435.53 		"/>
		<circle class="st4" cx="893.21" cy="452.72" r="3.7"/>
		<path class="st4" d="M884.78,472.8c-2.03-0.23-3.5-2.07-3.27-4.1s2.07-3.5,4.1-3.27c2.03,0.23,3.5,2.07,3.27,4.1
			C888.64,471.57,886.81,473.03,884.78,472.8z"/>
		<path class="st4" d="M876.61,489.49c-2.03-0.23-3.5-2.07-3.27-4.1c0.23-2.03,2.07-3.5,4.1-3.27c2.03,0.23,3.5,2.07,3.27,4.1
			C880.47,488.26,878.64,489.72,876.61,489.49z"/>
		<path class="st4" d="M868.81,505.45c-2.03-0.23-3.5-2.07-3.27-4.1c0.23-2.03,2.07-3.5,4.1-3.27c2.03,0.23,3.5,2.07,3.27,4.1
			C872.68,504.21,870.84,505.68,868.81,505.45z"/>
		<circle class="st4" cx="861.47" cy="517.62" r="3.7"/>
		<path class="st4" d="M1022.18,179.42c-2.05-0.09-3.64-1.82-3.55-3.87s1.82-3.64,3.87-3.55c2.05,0.09,3.64,1.82,3.55,3.87
			C1025.96,177.91,1024.22,179.5,1022.18,179.42z"/>
		<path class="st4" d="M1014.72,197.78c-2.05-0.09-3.64-1.82-3.55-3.87s1.82-3.64,3.87-3.55c2.05,0.09,3.64,1.82,3.55,3.87
			C1018.5,196.29,1016.77,197.87,1014.72,197.78z"/>
		<path class="st4" d="M915.99,408.57c-2.03-0.23-3.5-2.07-3.27-4.1c0.23-2.03,2.07-3.5,4.1-3.27c2.03,0.23,3.5,2.07,3.27,4.1
			S918.02,408.8,915.99,408.57z"/>
		<path class="st4" d="M907.82,425.27c-2.03-0.23-3.5-2.07-3.27-4.1c0.23-2.03,2.07-3.5,4.1-3.27c2.03,0.23,3.5,2.07,3.27,4.1
			C911.69,424.03,909.85,425.5,907.82,425.27z"/>
		<path class="st4" d="M900.23,440.77c-2.03-0.23-3.5-2.07-3.27-4.1c0.23-2.03,2.07-3.5,4.1-3.27c2.03,0.23,3.5,2.07,3.27,4.1
			C904.1,439.54,902.27,441,900.23,440.77z"/>
		<path class="st4" d="M958.53,323.71c-2.03-0.23-3.5-2.07-3.27-4.1s2.07-3.5,4.1-3.27c2.03,0.23,3.5,2.07,3.27,4.1
			C962.4,322.47,960.56,323.94,958.53,323.71z"/>
		<path class="st4" d="M950.48,340.12c-2.03-0.23-3.5-2.07-3.27-4.1s2.07-3.5,4.1-3.27c2.03,0.23,3.5,2.07,3.27,4.1
			C954.35,338.89,952.52,340.35,950.48,340.12z"/>
		<path class="st4" d="M942.31,356.8c-2.03-0.23-3.5-2.07-3.27-4.1c0.23-2.03,2.07-3.5,4.1-3.27s3.5,2.07,3.27,4.1
			C946.18,355.57,944.35,357.03,942.31,356.8z"/>
		<path class="st4" d="M934.5,372.75c-2.03-0.23-3.5-2.07-3.27-4.1c0.23-2.03,2.07-3.5,4.1-3.27c2.03,0.23,3.5,2.07,3.27,4.1
			C938.37,371.52,936.53,372.98,934.5,372.75z"/>
		<path class="st4" d="M926.73,388.6c-2.03-0.23-3.5-2.07-3.27-4.1c0.23-2.03,2.07-3.5,4.1-3.27c2.03,0.23,3.5,2.07,3.27,4.1
			C930.61,387.38,928.76,388.83,926.73,388.6z"/>
		<polygon class="st4" points="623.92,283.8 618.05,298.54 613.59,285.41 602.16,289.29 610.17,278.08 603.02,263.97 616.06,268.99 
			628.59,257.2 624.43,272.77 637.21,282.6 		"/>
		<path class="st4" d="M962.92,292.14c-1.96-1.83-13.44-15.74-13.44-15.74l15.71,6.8l5.89-14.74l1.66,13.24l13.02-8.62l-5.01,12.48
			l18.02-0.23l-14.35,6.75l10.1,9.51l-14.04-4.01l-2.33,17.46l-3.96-16.01l-14.09,15.61l4.93-15.01l-14.58-0.83L962.92,292.14z"/>
		<polygon class="st4" points="997.32,216.11 985.27,205.8 999.13,205.81 999.14,193.74 1007.17,204.93 1022.83,202.71 
			1013.88,213.44 1021.01,229.1 1007.6,220.15 994.18,229.07 		"/>
		<path class="st4" d="M990.88,252.93c-2.03-0.25-3.48-2.1-3.24-4.13c0.25-2.03,2.1-3.48,4.13-3.24c2.03,0.25,3.48,2.1,3.24,4.13
			C994.76,251.73,992.91,253.18,990.88,252.93z"/>
		<path class="st4" d="M982.74,269.28c-2.03-0.25-3.48-2.1-3.24-4.13c0.25-2.03,2.1-3.48,4.13-3.24c2.03,0.25,3.48,2.1,3.24,4.13
			C986.61,268.08,984.76,269.53,982.74,269.28z"/>
		<path class="st4" d="M464.81,323.88c1.36-1.53,3.7-1.66,5.23-0.31c1.53,1.36,1.66,3.7,0.31,5.23c-1.36,1.53-3.7,1.66-5.23,0.31
			S463.45,325.4,464.81,323.88z"/>
		<path class="st4" d="M455.85,307.59c1.36-1.53,3.7-1.66,5.23-0.31s1.66,3.7,0.31,5.23c-1.36,1.53-3.7,1.66-5.23,0.31
			C454.64,311.45,454.5,309.11,455.85,307.59z"/>
		<path class="st4" d="M447.55,292.46c1.36-1.53,3.7-1.66,5.23-0.31c1.53,1.36,1.66,3.7,0.31,5.23s-3.7,1.66-5.23,0.31
			S446.19,293.99,447.55,292.46z"/>
		<path class="st4" d="M500.92,391.5c1.36-1.53,3.7-1.66,5.23-0.31c1.53,1.36,1.66,3.7,0.31,5.23c-1.36,1.53-3.7,1.66-5.23,0.31
			C499.7,395.36,499.57,393.02,500.92,391.5z"/>
		<path class="st4" d="M492,375.22c1.36-1.53,3.7-1.66,5.23-0.31c1.53,1.36,1.66,3.7,0.31,5.23c-1.36,1.53-3.7,1.66-5.23,0.31
			C490.76,379.09,490.63,376.74,492,375.22z"/>
		<path class="st4" d="M483.44,359.64c1.36-1.53,3.7-1.66,5.23-0.31c1.53,1.36,1.66,3.7,0.31,5.23c-1.36,1.53-3.7,1.66-5.23,0.31
			C482.23,363.52,482.09,361.18,483.44,359.64z"/>
		<path class="st4" d="M474.95,344.16c1.36-1.53,3.7-1.66,5.23-0.31c1.53,1.36,1.66,3.7,0.31,5.23c-1.36,1.53-3.7,1.66-5.23,0.31
			C473.73,348.03,473.59,345.69,474.95,344.16z"/>
		<path class="st4" d="M910.75,241.32c-1.06-1.8-0.48-4.13,1.33-5.21c1.8-1.06,4.13-0.48,5.21,1.33c1.06,1.8,0.48,4.13-1.33,5.21
			C914.15,243.73,911.83,243.14,910.75,241.32z"/>
		<path class="st4" d="M892.36,244.91c-1.06-1.8-0.48-4.13,1.33-5.21c1.8-1.06,4.13-0.48,5.21,1.33c1.06,1.8,0.48,4.13-1.33,5.21
			C895.76,247.32,893.44,246.73,892.36,244.91z"/>
		<path class="st4" d="M873.68,248.57c-1.06-1.8-0.48-4.13,1.33-5.21c1.8-1.06,4.13-0.48,5.21,1.33c1.08,1.8,0.48,4.13-1.33,5.21
			C877.07,250.97,874.74,250.37,873.68,248.57z"/>
		<path class="st4" d="M855.78,252.07c-1.06-1.8-0.48-4.13,1.33-5.21c1.8-1.08,4.13-0.48,5.21,1.33c1.06,1.8,0.48,4.13-1.33,5.21
			C859.19,254.47,856.86,253.87,855.78,252.07z"/>
		<path class="st4" d="M953.41,233.26c-1.06-1.8-0.48-4.13,1.33-5.21c1.8-1.06,4.13-0.48,5.21,1.33s0.48,4.13-1.33,5.21
			C956.8,235.65,954.47,235.07,953.41,233.26z"/>
		<path class="st4" d="M935.02,236.85c-1.06-1.8-0.48-4.13,1.33-5.21c1.8-1.06,4.13-0.48,5.21,1.33c1.06,1.8,0.48,4.13-1.33,5.21
			C938.43,239.26,936.09,238.66,935.02,236.85z"/>
		<path class="st4" d="M838.03,255.53c-1.06-1.8-0.48-4.13,1.33-5.21c1.8-1.06,4.13-0.48,5.21,1.33c1.06,1.8,0.48,4.13-1.33,5.21
			C841.42,257.94,839.09,257.34,838.03,255.53z"/>
		<path class="st4" d="M819.62,259.13c-1.06-1.8-0.48-4.13,1.33-5.21c1.8-1.06,4.13-0.48,5.21,1.33c1.06,1.8,0.48,4.13-1.33,5.21
			C823.03,261.53,820.7,260.93,819.62,259.13z"/>
		<path class="st4" d="M799.68,263.03c-1.06-1.8-0.48-4.13,1.33-5.21c1.8-1.06,4.13-0.48,5.21,1.33c1.08,1.8,0.48,4.13-1.33,5.21
			C803.08,265.43,800.74,264.83,799.68,263.03z"/>
		<path class="st4" d="M780.87,265.18c-1.06-1.8-0.48-4.13,1.33-5.21s4.13-0.48,5.21,1.33c1.06,1.8,0.48,4.13-1.33,5.21
			C784.26,267.59,781.94,266.99,780.87,265.18z"/>
		<path class="st4" d="M762.49,268.77c-1.06-1.8-0.48-4.13,1.33-5.21c1.8-1.06,4.13-0.48,5.21,1.33c1.06,1.8,0.48,4.13-1.33,5.21
			C765.89,271.18,763.55,270.58,762.49,268.77z"/>
		<path class="st4" d="M742.53,272.67c-1.06-1.8-0.48-4.13,1.33-5.21c1.8-1.06,4.13-0.48,5.21,1.33c1.06,1.8,0.48,4.13-1.33,5.21
			C745.93,275.08,743.59,274.48,742.53,272.67z"/>
		<path class="st4" d="M723.01,278.95l-3.93,17.79l-6.06-13.19l-21.69-1.68l20.62-9.48l1.11-16.18l7.32,15.92l13.52,0.22
			C733.91,272.32,723.01,278.95,723.01,278.95z"/>
		<path class="st4" d="M1037.2,158.37l-3.93,17.79l-6.06-13.19l-21.69-1.68l20.64-9.48l1.11-16.18l7.32,15.92l13.52,0.22
			C1048.09,151.74,1037.2,158.37,1037.2,158.37z"/>
		<polygon class="st4" points="436.12,274.52 431.58,290.48 426.32,273.75 415.72,272.32 428.05,268.44 428.51,250.37 
			432.63,263.41 448.87,259.5 442.55,266.48 448.24,276.77 		"/>
		<polygon class="st4" points="488.75,277.33 487.74,288.78 482.87,281.01 469.15,281.74 481.29,274.12 480.65,263.9 486.54,273.26 
			495.02,272.29 		"/>
	</g>
</g>
<g id="XMLID_23_">
	<g id="XMLID_35_">
		<g id="XMLID_36_">
			<path id="XMLID_37_" class="st4" d="M160.57,263.02c-4.96,0-8.98-4.02-8.98-8.98V122.89c0-4.29-3.26-11.84-9.5-17.97
				c-3.1-3.05-9.46-8.12-17.31-8.02c-15.66,0.26-28.69,17.26-28.69,23.59c0,4.96-4.02,8.98-8.98,8.98s-8.98-4.02-8.98-8.98
				c0-16.11,20.77-41.13,46.35-41.55c10.66-0.15,21.38,4.5,30.2,13.17c9.17,9.02,14.86,20.81,14.86,30.78v131.14
				C169.55,259,165.52,263.02,160.57,263.02z"/>
		</g>
	</g>
	<g id="XMLID_32_">
		<g id="XMLID_33_">
			<path id="XMLID_34_" class="st4" d="M276.35,240.8c-2.09,0-4.19-0.72-5.88-2.2c-11.81-10.26-20.83-43.63-32.28-89.64
				c-3.65-14.69-7.11-28.58-9.34-34.22c-9.08-22.91-34.47-16.54-34.72-16.47c-19.62,5.15-24.74,20.86-24.95,21.53
				c-1.47,4.7-6.47,7.38-11.18,5.96c-4.72-1.42-7.42-6.34-6.04-11.06c0.31-1.06,7.89-26,37.62-33.81
				c16.45-4.32,44.93-0.62,55.98,27.23c2.69,6.76,5.95,19.89,10.08,36.51c6.35,25.54,18.18,73.08,26.63,80.42
				c3.75,3.25,4.15,8.93,0.9,12.67C281.37,239.75,278.86,240.8,276.35,240.8z"/>
		</g>
	</g>
	<g id="XMLID_27_">
		<g id="XMLID_28_">
			<path id="XMLID_29_" class="st4" d="M315.51,263.02c-30.49,0-55.29-24.8-55.29-55.29s24.8-55.29,55.29-55.29
				s55.29,24.8,55.29,55.29S346,263.02,315.51,263.02z M315.51,170.4c-20.58,0-37.33,16.75-37.33,37.33s16.75,37.33,37.33,37.33
				c20.58,0,37.33-16.75,37.33-37.33C352.84,187.15,336.09,170.4,315.51,170.4z"/>
		</g>
	</g>
	<g id="XMLID_24_">
		<g id="XMLID_25_">
			<path id="XMLID_26_" class="st4" d="M205.43,327.38c-4.12,0-7.83-2.85-8.76-7.04c-1.07-4.84,1.98-9.64,6.83-10.71
				c10.97-2.43,24.49-8.83,39.12-18.51c22.34-14.79,38.84-48.5,39.01-48.84c2.16-4.47,7.53-6.33,12-4.17
				c4.46,2.16,6.33,7.53,4.17,12c-0.76,1.57-18.86,38.52-45.26,56c-16.68,11.04-31.87,18.12-45.15,21.07
				C206.74,327.31,206.08,327.38,205.43,327.38z"/>
		</g>
	</g>
</g>
</svg>
