<?xml version="1.0" encoding="utf-8"?>
<!-- Generator: Adobe Illustrator 25.3.0, SVG Export Plug-In . SVG Version: 6.00 Build 0)  -->
<svg version="1.1" id="Layer_1" xmlns="http://www.w3.org/2000/svg" xmlns:xlink="http://www.w3.org/1999/xlink" x="0px" y="0px"
	 viewBox="0 0 500 500" style="enable-background:new 0 0 500 500;" xml:space="preserve">
<style type="text/css">
	.st0{fill:none;}
	.st1{fill:#FFFFFF;}
</style>
<g>
	<path class="st0" d="M210.14,280.9c-1.1-1.74-2.27-3.41-3.51-5.03c-0.09-0.11-0.17-0.22-0.25-0.33
		c-6.56-8.5-14.96-15.28-24.48-19.61c-7.64-3.48-16-5.4-24.77-5.4c-5.62,0-11.07,0.79-16.27,2.27c-0.19,0.07-0.38,0.13-0.57,0.17
		c-2.72,0.8-5.36,1.79-7.93,2.96c-7.64,3.48-14.55,8.52-20.38,14.76c-9.22,9.88-15.69,22.76-17.99,37.13
		c1.91,5.11,4.07,10.11,6.46,14.97c0.72-1.49,1.51-2.94,2.39-4.33c4.18-6.62,10.12-11.92,17.14-15.12
		c4.68-2.13,9.85-3.32,15.25-3.32c5.4,0,10.57,1.19,15.25,3.32c4.68,2.13,8.88,5.2,12.4,8.97c7.03,7.54,11.36,17.89,11.36,29.23
		v56.25c6.44,3.3,13.14,6.18,20.03,8.62v-77.2c0-7.08-2.02-13.64-5.46-19.08c-3.44-5.44-8.29-9.75-13.9-12.3
		c-3.74-1.7-7.83-2.64-12.12-2.64c-3.59,0-7.04,0.66-10.26,1.87c-2.03,0.77-4.3-0.25-5.07-2.28c-0.77-2.03,0.25-4.3,2.28-5.07
		c4.09-1.55,8.49-2.38,13.04-2.38c5.44,0,10.65,1.2,15.37,3.35c4.72,2.15,8.96,5.25,12.5,9.05c7.09,7.6,11.46,18.04,11.46,29.49
		v79.77c6.21,1.86,12.58,3.37,19.07,4.5v-94.01C221.18,305.19,217.1,291.92,210.14,280.9z"/>
	<path class="st0" d="M331.61,322.66c-3.4-5.39-8.19-9.64-13.75-12.17c-3.7-1.69-7.74-2.61-11.99-2.61c-4.25,0-8.29,0.93-11.99,2.61
		c-3.7,1.69-7.07,4.14-9.91,7.18c-5.69,6.09-9.25,14.54-9.25,23.86v72.57c22.57-3.38,43.64-11.28,62.29-22.77v-49.8
		C337.01,334.54,335.01,328.05,331.61,322.66z"/>
	<path class="st0" d="M129.08,248.77c2.11-0.96,4.27-1.81,6.47-2.56v-4.27c0-8.5,2.44-16.46,6.62-23.08
		c4.18-6.62,10.12-11.92,17.14-15.12c2.1-0.96,4.31-1.72,6.59-2.27c5.4-17.75,15.79-33.17,29.45-44.3
		c14.25-11.62,32.08-18.59,51.35-18.59c7.75,0,15.28,1.13,22.43,3.24c2.12-4.2,4.86-8.01,8.09-11.28c1.53-1.54,4.02-1.55,5.56-0.03
		c1.54,1.53,1.55,4.02,0.03,5.56c-2.41,2.43-4.5,5.25-6.18,8.36c8.47,3.43,16.29,8.27,23.21,14.23c1.64,1.42,1.83,3.9,0.41,5.54
		c-1.42,1.64-3.9,1.83-5.54,0.41c-6.61-5.7-14.09-10.24-22.18-13.36c-8.09-3.12-16.77-4.82-25.83-4.82
		c-17.36,0-33.42,6.25-46.38,16.82c-11.56,9.42-20.61,22.3-25.81,37.16c0.02,0,0.03,0,0.05,0c4.72,0,9.27,0.91,13.47,2.56
		c4.2,1.66,8.05,4.06,11.41,7.03c6.73,5.96,11.53,14.23,13.34,23.62c0.41,2.13-0.98,4.19-3.12,4.6c-2.13,0.41-4.19-0.98-4.6-3.12
		c-1.11-5.77-3.6-11-7.06-15.28c-3.46-4.28-7.88-7.59-12.85-9.55c-3.31-1.31-6.87-2.02-10.58-2.02c-1.52,0-3.01,0.12-4.47,0.35
		c-0.27,0.08-0.55,0.13-0.84,0.15c-2.32,0.44-4.56,1.14-6.69,2.11c-3.7,1.69-7.07,4.14-9.91,7.18c-5.69,6.09-9.25,14.54-9.25,23.86
		v2.13c4.44-0.92,9.02-1.41,13.7-1.41c9.92,0,19.41,2.18,28.03,6.1c7.62,3.47,14.56,8.3,20.56,14.19v-8.4
		c0-2.17,1.76-3.93,3.93-3.93c2.17,0,3.93,1.76,3.93,3.93V272c9.69,13.1,15.48,29.61,15.48,47.47v95.18
		c6.83,0.85,13.78,1.3,20.84,1.3c0.2,0,0.39-0.01,0.58-0.01V306.87c0-17.26,4.74-33.42,12.9-47.04
		c8.16-13.62,19.76-24.72,33.51-31.87c1.93-1,4.3-0.25,5.3,1.68c1,1.93,0.25,4.3-1.68,5.3c-12.39,6.44-22.95,16.51-30.39,28.93
		c-7.44,12.42-11.78,27.18-11.78,43v108.87c2.86-0.14,5.71-0.36,8.53-0.64v-73.56c0-8.5,2.44-16.46,6.62-23.08
		c4.18-6.62,10.12-11.92,17.14-15.12c4.68-2.13,9.85-3.32,15.25-3.32c5.4,0,10.57,1.19,15.25,3.32c4.68,2.13,8.88,5.2,12.4,8.97
		c7.03,7.54,11.35,17.89,11.36,29.23v44.64c8.11-5.65,15.71-12,22.68-18.97c3.92-3.92,7.64-8.05,11.16-12.34v-25.05
		c0-8.47-2.42-16.33-6.54-22.85c-4.12-6.52-9.93-11.68-16.67-14.75c-4.5-2.05-9.41-3.17-14.57-3.17c-8.34,0-16.06,2.96-22.39,8.01
		c-1.7,1.36-4.17,1.08-5.53-0.61c-1.36-1.7-1.08-4.17,0.61-5.53c7.59-6.08,17.07-9.74,27.3-9.74c6.31,0,12.35,1.39,17.82,3.88
		c5.48,2.49,10.39,6.09,14.51,10.5c8.23,8.82,13.31,20.95,13.31,34.26v14.63c8.34-11.98,15.13-25.11,20.12-39.1
		c-0.28-15.93-4.95-30.74-12.76-43.1c-8.06-12.75-19.44-22.87-32.71-28.91c-8.85-4.03-18.54-6.25-28.71-6.25
		c-5.16,0-10.21,0.57-15.08,1.67c-2.12,0.48-4.22-0.85-4.7-2.97c-0.48-2.12,0.85-4.22,2.97-4.7c5.43-1.22,11.06-1.86,16.81-1.86
		c0.98,0,1.96,0.03,2.93,0.06c-4.32-6.72-9.89-12.44-16.33-16.73c-8.36-5.57-18.13-8.77-28.59-8.77c-7.47,0-14.58,1.63-21.09,4.6
		c-6.51,2.96-12.4,7.26-17.36,12.58c-9.93,10.65-16.14,25.37-16.14,41.61v46.8c0,2.17-1.76,3.93-3.93,3.93
		c-2.17,0-3.93-1.76-3.93-3.93v-46.8c0-13.69,3.92-26.47,10.64-37.1c6.72-10.63,16.24-19.13,27.47-24.24
		c7.48-3.41,15.73-5.3,24.35-5.3c12.08,0,23.4,3.72,32.96,10.1c6.23,4.16,11.71,9.45,16.22,15.59v-48.87
		c0-7.59-2.17-14.63-5.86-20.48c-3.69-5.84-8.9-10.46-14.93-13.2c-4.03-1.83-8.42-2.84-13.03-2.84c-2.48,0-4.88,0.28-7.18,0.82
		c-2.11,0.5-4.23-0.81-4.73-2.92c-0.5-2.11,0.81-4.23,2.92-4.73c2.9-0.69,5.92-1.03,8.99-1.03c5.77,0,11.29,1.27,16.29,3.54
		c5,2.28,9.49,5.56,13.25,9.58c7.52,8.05,12.15,19.12,12.15,31.25v57.98c5.88,1.18,11.55,3.02,16.92,5.47
		c9.83,4.47,18.67,10.93,26.09,18.88c10.43,11.18,18.06,25.32,21.67,41.09c2.64-11.78,4.05-24.03,4.05-36.62
		c0-45.96-18.62-87.54-48.74-117.67c-30.13-30.12-71.7-48.74-117.67-48.74c-45.97,0-87.54,18.62-117.67,48.74
		c-30.12,30.13-48.74,71.71-48.74,117.67c0,15.28,2.07,30.07,5.92,44.12c2.03-6.03,4.74-11.72,8.05-16.96
		C105.19,264.44,116.15,254.65,129.08,248.77z M304.39,168.41c1.66-1.4,4.14-1.19,5.54,0.48c2.61,3.1,5.03,6.41,7.21,9.87
		c1.16,1.84,0.61,4.26-1.23,5.42c-1.84,1.16-4.26,0.61-5.42-1.23c-1.99-3.16-4.19-6.18-6.57-9h0
		C302.52,172.29,302.73,169.81,304.39,168.41z"/>
	<path class="st0" d="M160.95,322.66c-3.4-5.39-8.2-9.64-13.75-12.17c-3.7-1.69-7.74-2.61-11.99-2.61c-4.25,0-8.29,0.93-11.99,2.61
		c-3.7,1.69-7.07,4.14-9.91,7.18c-3.68,3.94-6.46,8.86-7.97,14.37c7.38,12.9,16.43,24.72,26.88,35.16
		c10.17,10.16,21.64,19.01,34.14,26.28v-51.95C166.35,334.54,164.35,328.05,160.95,322.66z"/>
	<path class="st1" d="M347.56,220.71v-57.98c0-12.13-4.63-23.2-12.15-31.25c-3.76-4.03-8.25-7.31-13.25-9.58
		c-5-2.28-10.52-3.54-16.29-3.54c-3.07,0-6.09,0.35-8.99,1.03c-2.11,0.5-3.42,2.62-2.92,4.73c0.5,2.11,2.62,3.42,4.73,2.92
		c2.3-0.54,4.7-0.82,7.18-0.82c4.62,0,9.01,1.01,13.03,2.84c6.03,2.74,11.24,7.36,14.93,13.2c3.69,5.84,5.86,12.88,5.86,20.48v48.87
		c2,2.73,3.82,5.62,5.41,8.66C345.93,220.4,346.75,220.55,347.56,220.71z"/>
	<path class="st1" d="M276.64,144.44c1.68-3.11,3.77-5.93,6.18-8.36c1.53-1.54,1.52-4.03-0.03-5.56c-1.54-1.53-4.03-1.52-5.56,0.03
		c-3.23,3.26-5.97,7.07-8.09,11.28c2.11,0.62,4.19,1.32,6.22,2.11C275.79,144.09,276.21,144.26,276.64,144.44z"/>
	<path class="st1" d="M303.91,173.95c2.38,2.82,4.58,5.84,6.57,9c1.16,1.84,3.58,2.39,5.42,1.23c1.84-1.16,2.39-3.58,1.23-5.42
		c-2.18-3.46-4.59-6.77-7.21-9.87c-1.4-1.66-3.88-1.87-5.54-0.48C302.73,169.81,302.52,172.29,303.91,173.95L303.91,173.95z"/>
	<path class="st1" d="M170.1,208.64c-0.28,0.04-0.56,0.1-0.84,0.15C169.55,208.77,169.83,208.71,170.1,208.64z"/>
	<path class="st1" d="M200.32,163.26c12.97-10.57,29.02-16.81,46.38-16.82c9.05,0,17.74,1.7,25.83,4.82
		c8.08,3.12,15.57,7.66,22.18,13.36c1.64,1.42,4.13,1.23,5.54-0.41c1.42-1.64,1.23-4.13-0.41-5.54
		c-6.92-5.97-14.74-10.8-23.21-14.23c-0.64,1.18-1.23,2.41-1.74,3.67v0c-0.82,2.01-3.11,2.98-5.12,2.16
		c-2.01-0.82-2.98-3.11-2.16-5.12c0.46-1.13,0.98-2.24,1.53-3.32c-7.15-2.11-14.68-3.24-22.43-3.24c-19.27,0-37.11,6.96-51.35,18.59
		c-13.65,11.14-24.04,26.55-29.45,44.3c2.77-0.68,5.65-1.05,8.61-1.05C179.71,185.56,188.76,172.69,200.32,163.26z"/>
	<path class="st1" d="M269.77,150.26c2.01,0.82,4.3-0.15,5.12-2.16v0c0.51-1.26,1.1-2.49,1.74-3.67c-0.42-0.17-0.85-0.34-1.27-0.51
		c-2.04-0.79-4.12-1.49-6.22-2.11c-0.55,1.08-1.06,2.19-1.53,3.32C266.79,147.15,267.76,149.44,269.77,150.26z"/>
	<path class="st1" d="M339.7,211.6c-4.5-6.14-9.99-11.43-16.22-15.59c-9.55-6.38-20.88-10.1-32.96-10.1
		c-8.62,0-16.87,1.89-24.35,5.3c-11.23,5.11-20.75,13.61-27.47,24.24c-6.72,10.63-10.64,23.41-10.64,37.1v46.8
		c0,2.17,1.76,3.93,3.93,3.93c2.17,0,3.93-1.76,3.93-3.93v-46.8c0-16.24,6.2-30.96,16.14-41.61c4.97-5.32,10.86-9.62,17.36-12.58
		c6.51-2.96,13.62-4.59,21.09-4.6c10.46,0,20.24,3.2,28.59,8.77c6.44,4.29,12.01,10.01,16.33,16.73c1.43,0.05,2.84,0.15,4.25,0.28
		V211.6z"/>
	<path class="st1" d="M345.11,220.26c-1.59-3.04-3.4-5.93-5.41-8.66v7.97C341.52,219.74,343.32,219.96,345.11,220.26z"/>
	<path class="st1" d="M208.01,265.32c1.97,2.11,3.82,4.34,5.55,6.68v-17.45c0-2.17-1.76-3.93-3.93-3.93c-2.17,0-3.93,1.76-3.93,3.93
		v8.4C206.49,263.72,207.26,264.51,208.01,265.32z"/>
	<path class="st1" d="M206.63,275.87c-0.08-0.11-0.17-0.22-0.25-0.33C206.45,275.65,206.54,275.76,206.63,275.87z"/>
	<path class="st1" d="M143.42,241.94c0-9.33,3.56-17.77,9.25-23.86c2.84-3.04,6.21-5.5,9.91-7.18c2.13-0.97,4.37-1.68,6.69-2.11
		c-0.43,0.03-0.87-0.01-1.31-0.13c-2.09-0.58-3.32-2.74-2.74-4.84c0.22-0.79,0.46-1.57,0.7-2.35c-2.28,0.55-4.49,1.31-6.59,2.27
		c-7.03,3.2-12.96,8.51-17.14,15.12c-4.18,6.62-6.62,14.57-6.62,23.08v4.27c2.56-0.86,5.19-1.58,7.86-2.13V241.94z"/>
	<path class="st1" d="M140.27,252.96c0.2-0.04,0.39-0.1,0.57-0.17C140.65,252.85,140.46,252.91,140.27,252.96z"/>
	<path class="st1" d="M172.79,205.91c-0.38,1.36-1.43,2.35-2.69,2.72c1.46-0.23,2.95-0.35,4.47-0.35c3.72,0,7.27,0.71,10.58,2.02
		c4.97,1.96,9.39,5.27,12.85,9.55c3.46,4.28,5.95,9.51,7.06,15.28c0.41,2.13,2.47,3.53,4.6,3.12c2.13-0.41,3.53-2.47,3.12-4.6
		c-1.81-9.39-6.61-17.67-13.34-23.62c-3.36-2.98-7.21-5.38-11.41-7.03c-4.2-1.66-8.74-2.57-13.47-2.56c-0.02,0-0.03,0-0.05,0
		C173.89,202.23,173.3,204.05,172.79,205.91L172.79,205.91z"/>
	<path class="st1" d="M167.95,208.66c0.44,0.12,0.88,0.16,1.31,0.13c0.28-0.05,0.56-0.11,0.84-0.15c1.26-0.37,2.31-1.36,2.69-2.72h0
		c0.51-1.86,1.1-3.69,1.73-5.49c-2.95,0-5.83,0.37-8.61,1.05c-0.24,0.78-0.48,1.56-0.7,2.35
		C164.63,205.91,165.86,208.08,167.95,208.66z"/>
	<path class="st1" d="M213.56,272v1.34c0,2.17-1.76,3.93-3.93,3.93c-1.21,0-2.29-0.55-3.01-1.4c1.24,1.62,2.41,3.29,3.51,5.03
		c6.96,11.02,11.05,24.3,11.05,38.57v94.01c2.6,0.45,5.22,0.85,7.86,1.18v-95.18C229.05,301.61,223.26,285.1,213.56,272z"/>
	<path class="st1" d="M111.96,270.68c5.82-6.24,12.74-11.28,20.38-14.76c2.57-1.17,5.21-2.15,7.93-2.96
		c-0.25,0.05-0.52,0.08-0.79,0.08c-2.17,0-3.93-1.76-3.93-3.93v-2.9c-2.2,0.74-4.36,1.6-6.47,2.56
		c-12.93,5.89-23.9,15.68-31.64,27.93c-3.31,5.23-6.02,10.93-8.05,16.96c1.32,4.81,2.85,9.54,4.58,14.16
		C96.27,293.44,102.74,280.56,111.96,270.68z"/>
	<path class="st1" d="M140.84,252.8c5.2-1.48,10.65-2.27,16.27-2.27c8.77,0,17.13,1.92,24.77,5.4c9.53,4.34,17.92,11.12,24.48,19.61
		c-0.42-0.63-0.67-1.38-0.67-2.2v-10.38c-6-5.89-12.94-10.72-20.56-14.19c-8.62-3.92-18.1-6.1-28.03-6.1
		c-4.68,0-9.26,0.49-13.7,1.41v5.04C143.42,250.81,142.34,252.24,140.84,252.8z"/>
	<path class="st1" d="M206.37,275.53c0.08,0.11,0.17,0.22,0.25,0.33c0.72,0.86,1.8,1.4,3.01,1.4c2.17,0,3.93-1.76,3.93-3.93V272
		c-1.73-2.34-3.58-4.57-5.55-6.68c-0.75-0.81-1.53-1.6-2.31-2.37v10.38C205.7,274.15,205.95,274.91,206.37,275.53z"/>
	<path class="st1" d="M143.42,249.11v-5.04c-2.68,0.56-5.3,1.27-7.86,2.13v2.9c0,2.17,1.76,3.93,3.93,3.93
		c0.27,0,0.53-0.03,0.79-0.08c0.19-0.06,0.38-0.11,0.57-0.17C142.34,252.24,143.42,250.81,143.42,249.11z"/>
	<path class="st1" d="M364.49,226.18c-5.37-2.45-11.04-4.29-16.92-5.47v3.28c0,2.17-1.76,3.93-3.93,3.93c-0.4,0-0.79-0.06-1.15-0.17
		c-1.45-0.01-2.84-0.82-3.51-2.21c-1.05-2.17-2.23-4.25-3.52-6.25c-0.97-0.04-1.95-0.06-2.93-0.06c-5.75,0-11.37,0.64-16.81,1.86
		c-2.12,0.48-3.45,2.58-2.97,4.7c0.48,2.12,2.58,3.45,4.7,2.97c4.87-1.1,9.92-1.67,15.08-1.67c10.17,0,19.86,2.22,28.71,6.25
		c13.27,6.04,24.65,16.16,32.71,28.91c7.81,12.36,12.47,27.17,12.76,43.1c2.22-6.24,4.08-12.64,5.55-19.2
		c-3.61-15.77-11.24-29.91-21.67-41.09C383.16,237.12,374.32,230.66,364.49,226.18z"/>
	<path class="st1" d="M346.04,222.11c0.95,1.95,0.13,4.31-1.82,5.25c-0.56,0.27-1.16,0.39-1.74,0.39c0.36,0.11,0.75,0.17,1.15,0.17
		c2.17,0,3.93-1.76,3.93-3.93v-3.28c-0.81-0.16-1.63-0.32-2.46-0.45C345.43,220.87,345.74,221.48,346.04,222.11z"/>
	<path class="st1" d="M342.48,227.75c-1.61-0.49-2.78-1.99-2.78-3.76v-4.43c-1.41-0.13-2.82-0.23-4.25-0.28
		c1.29,2,2.46,4.09,3.52,6.25C339.64,226.93,341.03,227.74,342.48,227.75z"/>
	<path class="st1" d="M346.04,222.11c-0.3-0.62-0.61-1.24-0.93-1.85c-1.78-0.3-3.59-0.53-5.41-0.7v4.43c0,1.77,1.17,3.27,2.78,3.76
		c0.58,0,1.18-0.12,1.74-0.39C346.17,226.41,346.99,224.06,346.04,222.11z"/>
	<path class="st1" d="M270.11,263.88c7.44-12.42,17.99-22.5,30.39-28.93c1.93-1,2.68-3.37,1.68-5.3c-1-1.93-3.37-2.68-5.3-1.68
		c-13.75,7.14-25.35,18.25-33.51,31.87c-8.16,13.62-12.9,29.78-12.9,47.04v109.07c2.64-0.01,5.26-0.07,7.86-0.2V306.87
		C258.33,291.06,262.67,276.3,270.11,263.88z"/>
	<path class="st1" d="M373.27,295.56c-4.12-4.41-9.03-8.01-14.51-10.5c-5.47-2.49-11.51-3.88-17.82-3.88
		c-10.23,0-19.71,3.66-27.3,9.74c-1.7,1.36-1.97,3.83-0.61,5.53c1.36,1.7,3.83,1.97,5.53,0.61c6.32-5.05,14.05-8.01,22.39-8.01
		c5.16,0,10.07,1.13,14.57,3.17c6.74,3.07,12.55,8.23,16.67,14.75c4.12,6.52,6.54,14.38,6.54,22.85v25.05
		c2.75-3.36,5.37-6.84,7.86-10.42v-14.63C386.58,316.51,381.5,304.38,373.27,295.56z"/>
	<path class="st1" d="M190.65,299.72c-3.55-3.8-7.78-6.9-12.5-9.05c-4.72-2.15-9.93-3.35-15.37-3.35c-4.55,0-8.96,0.83-13.04,2.38
		c-2.03,0.77-3.05,3.04-2.28,5.07c0.77,2.03,3.04,3.05,5.07,2.28c3.22-1.22,6.67-1.87,10.26-1.87c4.29,0,8.37,0.94,12.12,2.64
		c5.61,2.55,10.46,6.86,13.9,12.3c3.44,5.44,5.46,12.01,5.46,19.08v77.2c2.59,0.92,5.21,1.78,7.86,2.57v-79.77
		C202.11,317.76,197.74,307.32,190.65,299.72z"/>
	<path class="st1" d="M162.85,312.31c-3.52-3.77-7.72-6.84-12.4-8.97c-4.68-2.13-9.85-3.32-15.25-3.32c-5.4,0-10.57,1.19-15.25,3.32
		c-7.03,3.2-12.96,8.51-17.14,15.12c-0.88,1.39-1.67,2.83-2.39,4.33c1.54,3.14,3.18,6.23,4.91,9.26c1.51-5.51,4.29-10.43,7.97-14.37
		c2.84-3.04,6.21-5.5,9.91-7.18c3.71-1.69,7.75-2.61,11.99-2.61c4.25,0,8.28,0.93,11.99,2.61c5.55,2.53,10.35,6.78,13.75,12.17
		c3.4,5.39,5.4,11.88,5.4,18.88v51.95c2.58,1.5,5.2,2.94,7.86,4.3v-56.25C174.21,330.2,169.89,319.85,162.85,312.31z"/>
	<path class="st1" d="M333.52,312.31c-3.52-3.77-7.71-6.84-12.4-8.97c-4.68-2.13-9.85-3.32-15.25-3.32c-5.4,0-10.57,1.19-15.25,3.32
		c-7.03,3.2-12.96,8.51-17.14,15.12c-4.18,6.62-6.62,14.57-6.62,23.08v73.56c2.64-0.27,5.26-0.6,7.86-0.99v-72.57
		c0-9.33,3.56-17.77,9.25-23.86c2.84-3.05,6.21-5.5,9.91-7.18c3.7-1.69,7.74-2.61,11.99-2.61c4.25,0,8.29,0.93,11.99,2.61
		c5.55,2.53,10.35,6.78,13.75,12.17c3.4,5.39,5.4,11.88,5.4,18.88v49.8c2.67-1.65,5.29-3.37,7.86-5.16v-44.64
		C344.87,330.2,340.55,319.85,333.52,312.31z"/>
	<path class="st1" d="M249.88,79.19c-94.08,0-170.34,76.27-170.34,170.35c0,17.84,2.75,35.04,7.83,51.2
		c0.57-2.4,1.24-4.77,2.02-7.08c-3.85-14.05-5.92-28.84-5.92-44.12c0-45.96,18.62-87.54,48.74-117.67
		c30.13-30.12,71.7-48.74,117.67-48.74c45.97,0,87.54,18.62,117.67,48.74c30.12,30.13,48.74,71.71,48.74,117.67h3.93
		C420.23,155.46,343.96,79.19,249.88,79.19z"/>
	<path class="st1" d="M132.21,367.21c-10.44-10.44-19.5-22.26-26.88-35.16c-0.52,1.9-0.9,3.86-1.1,5.88
		c15.19,24.97,36.61,45.72,62.11,60.09v-4.53C153.85,386.22,142.38,377.37,132.21,367.21z"/>
	<path class="st1" d="M174.22,397.79v4.39c6.46,3.21,13.14,6.02,20.03,8.4v-4.17C187.35,403.97,180.66,401.09,174.22,397.79z"/>
	<path class="st1" d="M202.11,408.98v4.1c6.22,1.81,12.58,3.28,19.07,4.38v-3.98C214.69,412.35,208.33,410.84,202.11,408.98z"/>
	<path class="st1" d="M274.72,414.1v3.97c22.49-3.29,43.55-10.97,62.29-22.14v-4.59C318.37,402.82,297.29,410.73,274.72,414.1z"/>
	<path class="st1" d="M424.16,249.53h-3.93c0,15.98-2.21,31.44-6.32,46.11c-1.97,7.02-4.37,13.85-7.19,20.47
		c-5.33,12.53-12.11,24.3-20.14,35.08c-2.5,3.36-5.12,6.63-7.86,9.79c-9.89,11.42-21.27,21.51-33.84,29.97
		c-2.57,1.73-5.19,3.39-7.86,4.98c-18.74,11.18-39.8,18.86-62.29,22.14c-2.6,0.38-5.22,0.71-7.86,0.97
		c-2.83,0.28-5.67,0.49-8.53,0.63c-2.61,0.13-5.23,0.19-7.86,0.2c-0.2,0-0.39,0.01-0.58,0.01c-7.06,0-14.01-0.44-20.84-1.27
		c-2.64-0.32-5.26-0.71-7.86-1.15c-6.49-1.1-12.85-2.57-19.07-4.38c-2.65-0.77-5.27-1.61-7.86-2.5c-6.89-2.38-13.58-5.19-20.03-8.4
		c-2.66-1.32-5.28-2.71-7.86-4.16c-25.5-14.38-46.93-35.12-62.11-60.09c-2.04-3.36-3.97-6.79-5.78-10.3
		c-1.92-3.71-3.7-7.49-5.34-11.35c-2.16-5.06-4.07-10.25-5.74-15.54c-5.09-16.16-7.83-33.36-7.83-51.2
		c0-94.08,76.26-170.35,170.34-170.35s170.34,76.27,170.34,170.35H424.16c0-48.11-19.51-91.7-51.04-123.23
		C341.59,94.77,298,75.26,249.88,75.26c-48.11,0-91.71,19.51-123.23,51.05c-31.53,31.53-51.04,75.12-51.04,123.23
		c0,48.11,19.51,91.7,51.04,123.23c31.52,31.53,75.12,51.05,123.23,51.05c48.11,0,91.71-19.51,123.23-51.05
		C404.65,341.24,424.16,297.65,424.16,249.53z"/>
	<path class="st1" d="M258.33,415.74v3.93c2.86-0.14,5.71-0.35,8.53-0.63v-3.95C264.04,415.38,261.19,415.59,258.33,415.74z"/>
	<path class="st1" d="M367.55,367.21c-6.97,6.97-14.57,13.32-22.68,18.97v4.77c12.57-8.46,23.95-18.55,33.84-29.97v-6.11
		C375.2,359.16,371.48,363.28,367.55,367.21z"/>
	<path class="st1" d="M412.24,286.15c0.71,3.11,1.27,6.27,1.66,9.49c4.11-14.67,6.32-30.13,6.32-46.11h-3.93
		C416.29,262.12,414.89,274.37,412.24,286.15z"/>
	<path class="st1" d="M406.69,305.35c-4.98,13.99-11.78,27.12-20.12,39.1v6.74c8.03-10.78,14.82-22.54,20.14-35.08v-9.24
		C406.72,306.36,406.7,305.86,406.69,305.35z"/>
	<path class="st1" d="M249.88,415.95c-7.06,0-14.01-0.44-20.84-1.3v3.96c6.83,0.83,13.78,1.27,20.84,1.27c0.2,0,0.39-0.01,0.58-0.01
		v-3.93C250.27,415.94,250.08,415.95,249.88,415.95z"/>
	<path class="st1" d="M93.97,307.82c-0.44,2.77-0.73,5.59-0.85,8.46c1.65,3.86,3.43,7.64,5.34,11.35c0.56-1.66,1.22-3.28,1.97-4.84
		C98.04,317.92,95.89,312.93,93.97,307.82z"/>
	<path class="st1" d="M221.18,413.48v3.98c2.6,0.44,5.22,0.83,7.86,1.15v-3.96C226.41,414.32,223.79,413.93,221.18,413.48z"/>
	<path class="st1" d="M89.39,293.65c-0.78,2.31-1.45,4.67-2.02,7.08c1.67,5.3,3.59,10.48,5.74,15.54c0.12-2.87,0.41-5.69,0.85-8.46
		C92.24,303.19,90.71,298.47,89.39,293.65z"/>
	<path class="st1" d="M406.69,305.35c0.01,0.51,0.03,1.01,0.03,1.52v9.24c2.81-6.62,5.22-13.45,7.19-20.47
		c-0.39-3.22-0.95-6.39-1.66-9.49C410.77,292.71,408.91,299.11,406.69,305.35z"/>
	<path class="st1" d="M250.47,415.94v3.93c2.64-0.01,5.26-0.07,7.86-0.2v-3.93C255.72,415.87,253.1,415.93,250.47,415.94z"/>
	<path class="st1" d="M378.72,354.86v6.11c2.74-3.16,5.36-6.43,7.86-9.79v-6.74C384.09,348.02,381.47,351.5,378.72,354.86z"/>
	<path class="st1" d="M194.25,406.41v4.17c2.59,0.9,5.21,1.73,7.86,2.5v-4.1C199.46,408.19,196.84,407.33,194.25,406.41z"/>
	<path class="st1" d="M100.43,322.79c-0.75,1.56-1.41,3.18-1.97,4.84c1.81,3.5,3.74,6.94,5.78,10.3c0.2-2.02,0.58-3.98,1.1-5.88
		C103.61,329.02,101.97,325.93,100.43,322.79z"/>
	<path class="st1" d="M166.35,393.49v4.53c2.58,1.45,5.2,2.84,7.86,4.16v-4.39C171.55,396.43,168.93,394.99,166.35,393.49z"/>
	<path class="st1" d="M337.01,391.33v4.59c2.67-1.59,5.29-3.25,7.86-4.98v-4.77C342.3,387.97,339.68,389.69,337.01,391.33z"/>
	<path class="st1" d="M266.86,415.09v3.95c2.64-0.26,5.26-0.59,7.86-0.97v-3.97C272.12,414.49,269.5,414.83,266.86,415.09z"/>
</g>
</svg>
