<?xml version="1.0" encoding="utf-8"?>
<!-- Generator: Adobe Illustrator 25.3.0, SVG Export Plug-In . SVG Version: 6.00 Build 0)  -->
<svg version="1.1" id="Layer_1" xmlns="http://www.w3.org/2000/svg" xmlns:xlink="http://www.w3.org/1999/xlink" x="0px" y="0px"
	 viewBox="0 0 500 500" style="enable-background:new 0 0 500 500;" xml:space="preserve">
<style type="text/css">
	.st0{fill:none;}
	.st1{fill:#FFFFFF;}
</style>
<g>
	<path class="st0" d="M312.34,302.76c1.56-8.15,2.28-15.9,2.28-23.26c0-11.35-1.69-21.78-4.59-31.31c-2.9-9.53-7-18.18-11.86-25.93
		c-9.69-15.5-22.38-27.43-34.1-35.53l-0.06-0.04l-0.24-0.17c-2.34-1.78-4.77-3.3-7.35-4.64l-0.17-0.09
		c-3.7-2.12-7.17-3.84-10.16-5.03l-0.02-0.01c-7.46-3.01-13.44-6.51-18.23-10.29c-4.79-3.78-8.38-7.86-11.05-11.95
		c-0.34-0.53-0.67-1.05-0.99-1.58c0.8,2.68,1.93,5.53,3.38,8.5c3.17,6.51,7.84,13.59,13.55,20.84l0,0c3.66,4.66,6.53,10.1,8.5,16
		c1.97,5.9,3.04,12.26,3.04,18.75c0,9.73-2.41,19.79-7.86,28.94c-5.44,9.14-13.92,17.3-25.72,23.18
		c-11.37,5.68-23.54,13.8-34.32,23.35c-10.7,9.46-20.03,20.32-26.03,31.43c-1.76,4.68-2.64,9.9-2.64,15.41
		c-0.01,10.74,3.35,22.49,9.49,32.85c6.13,10.37,14.99,19.31,25.75,24.74c1.63,0.82,3.3,1.56,5.01,2.22
		c-0.04-0.02-0.08-0.04-0.12-0.07c-7.93-4.78-13.97-11.49-17.15-19.27l0,0c-2.85-7-5.68-15.74-5.68-26c0-5.17,0.72-10.71,2.48-16.53
		c1.75-5.83,4.54-11.94,8.61-18.3c8.16-12.72,21.42-26.41,42.15-41.2c14.62-10.44,22.6-21.46,27.03-31.12
		c4.42-9.66,5.28-18.03,5.28-23.07c0-3.13-0.33-4.97-0.33-4.98l0,0c-0.33-1.77,0.36-3.58,1.78-4.68c1.43-1.1,3.37-1.31,5-0.53
		c17.07,8.17,29.24,19.12,37.64,30.96c8.41,11.83,13.07,24.5,15.45,36.15c1.59,7.77,2.17,15.1,2.17,21.51
		c0,1.26-0.02,2.48-0.07,3.67c0.21,0.1,0.42,0.2,0.62,0.3C312.32,304.98,312.13,303.87,312.34,302.76z"/>
	<path class="st0" d="M265.74,67.45c0,2.68-0.39,5.46-1.21,8.29c-0.82,2.83-2.07,5.7-3.77,8.59c-2.84,4.83-4.16,9.51-4.16,13.92
		c0,2.54,0.44,5,1.33,7.42c0.9,2.42,2.26,4.81,4.15,7.14c3.79,4.66,9.78,9.12,18.26,12.78c5.65,2.44,12.38,4.53,20.23,6.12
		c16.74,3.38,30.33,11.99,39.63,23.64c9.31,11.65,14.34,26.31,14.34,41.73c0,11.74-2.91,23.93-9.03,35.59
		c-4.22,8.05-5.82,14.78-5.82,20.06c0.01,4.69,1.22,8.27,3.06,11c1.86,2.73,4.4,4.67,7.36,5.82c1.97,0.76,4.12,1.16,6.31,1.16
		c2.41,0,4.86-0.48,7.2-1.46c2.34-0.98,4.57-2.46,6.54-4.5c4.03-4.17,6.69-9.03,8.37-14.16c1.68-5.11,2.34-10.47,2.34-15.41
		c0-2.9-0.23-5.66-0.6-8.12c-0.37-2.46-0.89-4.62-1.43-6.3c-0.36-1.12-0.74-2.02-1.04-2.61c-0.17-0.34-0.32-0.57-0.39-0.66
		c-1.15-1.56-1.24-3.67-0.24-5.33c1.01-1.66,2.92-2.55,4.84-2.25c3.73,0.59,7.25,2.26,10.57,4.6c3.32,2.35,6.45,5.41,9.37,9.02
		c5.82,7.22,10.79,16.65,13.89,27.21c2.06,7.04,3.28,14.58,3.28,22.29c0,9.81-1.99,19.9-6.78,29.36
		c-3.74,7.4-9.22,14.38-16.63,20.49c1.18,0.75,2.31,1.55,3.37,2.42c3.2,2.62,5.85,5.77,7.96,9.27c4.2,7.01,6.22,15.39,6.22,24.13
		c0,4.44-0.52,8.99-1.56,13.53c25.9-34.1,41.27-76.6,41.27-122.74c0-56.1-22.73-106.85-59.49-143.62
		c-35.19-35.18-83.17-57.49-136.41-59.35c2.31,2.58,4.35,5.49,5.88,8.76C264.69,58.95,265.74,63.06,265.74,67.45z"/>
	<path class="st0" d="M242.8,60.66c-1.09,3.3-2.73,6.5-4.87,9.58c-4.3,6.15-10.58,11.82-18.88,17.19
		c-5.53,3.58-11.98,7.02-19.38,10.37l0,0c-10.74,4.86-18.12,11.03-22.84,17.7c-4.71,6.68-6.83,13.9-6.84,21.25
		c0,7.23,2.09,14.6,6.05,21.44c3.95,6.85,9.76,13.15,17.09,18.17c5.74,3.93,10.08,8.73,12.96,14.01c2.88,5.28,4.28,11.02,4.27,16.74
		c0,9.26-3.62,18.43-10.16,25.95c-6.54,7.53-16.01,13.45-27.78,16.38c-1.74,0.43-3.59-0.15-4.77-1.49
		c-1.18-1.35-1.51-3.26-0.85-4.92c1.19-3.02,1.78-6.24,1.78-9.6c0.01-7.09-2.67-14.81-8.01-21.85
		c-5.34-7.04-13.32-13.38-23.75-17.66c-5.69-2.34-10.01-5.12-13.19-8.21c-3.18-3.09-5.2-6.51-6.24-9.84
		c-0.18-0.57-0.33-1.14-0.46-1.7c-0.37,0.54-0.73,1.1-1.07,1.67c-2.5,4.2-4.02,9.08-4.01,13.88c0,2.46,0.39,4.91,1.24,7.31
		c0.85,2.4,2.17,4.76,4.09,7.06l0,0c3.9,4.67,7.31,9.18,10.08,13.74c2.77,4.56,4.91,9.17,6.17,14c0.85,3.22,1.3,6.53,1.3,9.92
		c0,3.37-0.45,6.82-1.35,10.34c-0.91,3.52-2.27,7.11-4.1,10.82c-3.66,7.41-9.14,15.3-16.71,24.13c-6.87,8.02-11.71,16.2-14.85,24.36
		c-3.13,8.16-4.57,16.3-4.57,24.29c0,13.48,4.11,26.59,11.3,38.36c7.19,11.76,17.48,22.15,29.67,30.07l0,0
		c16.28,10.59,34.72,15.93,52.29,15.93c12.14,0,23.86-2.54,34.22-7.6c1.82-0.89,3.6-1.86,5.33-2.91c-6.54,1.84-12.9,2.72-18.99,2.71
		c-7.76,0-15.09-1.4-21.82-3.91c-6.73-2.5-12.86-6.1-18.29-10.45c-10.87-8.73-18.99-20.47-23.8-33c-3.2-8.36-4.93-17.08-4.94-25.55
		c0-6.63,1.06-13.11,3.37-19.11c0.07-0.19,0.15-0.37,0.25-0.54c6.73-12.56,16.85-24.25,28.29-34.37
		c11.44-10.12,24.21-18.65,36.39-24.74c10.29-5.15,17.26-11.97,21.76-19.51c4.49-7.54,6.5-15.87,6.5-24.02
		c0-5.44-0.9-10.79-2.55-15.71c-1.64-4.92-4.03-9.4-6.94-13.11l0,0c-4.51-5.73-8.46-11.42-11.67-17.01
		c-3.21-5.59-5.69-11.07-7.18-16.43c-1-3.57-1.56-7.1-1.56-10.55c0-2.78,0.37-5.51,1.17-8.14c0.8-2.62,2.04-5.13,3.71-7.41
		c1.14-1.55,3.09-2.28,4.96-1.84c1.88,0.44,3.3,1.95,3.64,3.85c0.55,3.15,1.22,6.59,2.46,10.15c1.24,3.56,3.03,7.23,5.85,10.89
		c1.88,2.43,4.23,4.86,7.23,7.23c3.99,3.15,9.14,6.2,15.86,8.92c3.55,1.42,7.38,3.33,11.37,5.61l0,0c2.9,1.52,5.69,3.27,8.38,5.29
		l0.05,0.04l0.07,0.05c9.5,6.57,19.52,15.39,28.39,26.49c8.86,11.1,16.57,24.48,21.31,40.09c3.16,10.4,5,21.79,5,34.1
		c0,7.07-0.61,14.44-1.92,22.1c11.95,9.29,20.42,20.56,25.44,32.3l0,0c3.3,7.7,4.95,15.66,4.95,23.42c0,10.25-2.89,20.16-8.57,28.6
		c-5.67,8.44-14.12,15.35-24.95,19.69c-7.22,2.9-15.48,4.67-24.71,5.09c-0.02,0-0.03,0-0.05,0c-0.33,0.03-0.66,0.08-0.99,0.1
		c-6.49,0.52-12.36,1.74-17.2,3.5c-4.84,1.75-8.61,4.05-11.02,6.53c-0.36,0.37-0.7,0.75-1,1.12c1.93-1.06,4-1.92,6.17-2.6
		c2.65-0.83,5.46-1.43,8.37-1.84c3.88-0.55,7.94-0.77,12.06-0.77c7.83,0,15.85,0.82,23.03,1.94c3.89,0.61,7.94,0.89,12.05,0.89
		c8.12,0,16.49-1.12,24.37-3.03c7.88-1.91,15.27-4.61,21.42-7.71c4.1-2.06,7.64-4.29,10.4-6.51l0,0
		c7.27-5.86,12.67-13.02,16.27-20.61c3.59-7.58,5.36-15.57,5.35-22.98c0-5.45-0.95-10.58-2.76-15.01c-1.81-4.43-4.46-8.15-7.9-10.98
		c-2.3-1.88-4.96-3.38-8.06-4.41c-1.74-0.58-3.01-2.11-3.24-3.93c-0.24-1.82,0.59-3.62,2.12-4.63c9.59-6.32,15.93-13.75,19.97-21.7
		c4.03-7.96,5.75-16.5,5.75-25.02c0-8.78-1.84-17.51-4.82-25.31c-2.97-7.8-7.09-14.65-11.46-19.63c-1.23-1.41-2.47-2.65-3.7-3.74
		c0.57,3.26,0.91,6.91,0.91,10.82c0,5.79-0.77,12.12-2.82,18.4c-2.05,6.27-5.42,12.49-10.6,17.84c-2.88,2.98-6.21,5.21-9.73,6.68
		c-3.52,1.48-7.24,2.2-10.91,2.2c-5.02,0-9.98-1.36-14.25-4.06c-4.27-2.69-7.83-6.76-9.92-11.92c-1.4-3.44-2.16-7.34-2.16-11.6
		c0-7.22,2.15-15.42,6.91-24.51c5.42-10.34,7.93-20.98,7.93-31.14c0-10.01-2.44-19.54-6.99-27.86
		c-4.56-8.32-11.22-15.42-19.74-20.59c-5.69-3.45-12.21-6.03-19.54-7.52c-9.45-1.92-17.59-4.54-24.47-7.78
		c-6.88-3.23-12.5-7.08-16.85-11.47c-2.9-2.93-5.22-6.1-6.92-9.46c-2.27-4.48-3.43-9.3-3.42-14.17c0-6.36,1.93-12.74,5.48-18.78
		c1.34-2.28,2.25-4.41,2.83-6.41c0.58-2,0.83-3.85,0.83-5.62c0-2.17-0.38-4.2-1.06-6.15c-0.68-1.96-1.69-3.84-2.94-5.62
		c-2.06-2.95-4.84-5.62-7.83-7.86c0.08,0.91,0.13,1.82,0.13,2.74C244.44,53.96,243.9,57.36,242.8,60.66z"/>
	<path class="st0" d="M312.36,428.16c-6.79-1.06-14.39-1.83-21.55-1.83c-3.7,0-7.29,0.2-10.56,0.66c-3.28,0.45-6.24,1.16-8.7,2.11
		c-1.64,0.63-3.05,1.37-4.21,2.18c-1.55,1.09-2.63,2.27-3.37,3.64c-0.42,0.79-0.75,1.64-0.95,2.65c-0.43,2.07-2.14,3.61-4.25,3.81
		c-2.11,0.2-4.08-0.99-4.89-2.95c-1.29-3.12-1.95-6.25-1.95-9.29c0-2.35,0.4-4.65,1.17-6.79c0.76-2.14,1.88-4.13,3.27-5.93
		c2.78-3.61,6.59-6.47,11.06-8.74c2.99-1.51,6.28-2.76,9.83-3.76c4.73-1.33,9.91-2.22,15.41-2.67c6.61-0.53,12.17-2.33,16.85-5.09
		c4.68-2.76,8.52-6.51,11.57-11.11c2.03-3.07,3.7-6.52,4.98-10.29c1.72-5.02,2.75-10.62,3.05-16.59c0.03-0.57,0.04-1.15,0.04-1.74
		c0.01-5.47-1.27-11.92-3.49-18.08c-2.21-6.16-5.35-12.04-8.83-16.48c-2.31-2.96-4.78-5.27-7.05-6.65c-1.3-0.8-2.52-1.3-3.61-1.54
		c-2.32-0.51-3.92-2.67-3.75-5.03c0.15-2.05,0.24-4.28,0.24-6.67c0-8.74-1.2-19.45-4.87-30.38c-3.67-10.94-9.77-22.09-19.64-31.96
		c-4.98-4.98-10.94-9.65-18.06-13.79c-0.25,6.14-1.59,14.92-6.1,24.78c-5.1,11.15-14.28,23.6-30.18,34.94
		c-15.02,10.71-25.72,20.66-33.19,29.76c-7.48,9.1-11.72,17.32-13.95,24.69c-1.48,4.92-2.07,9.49-2.07,13.77
		c0,8.49,2.33,15.91,4.97,22.39c2.27,5.59,6.84,10.84,13.21,14.67c6.37,3.84,14.51,6.26,23.78,6.26c9.63,0,20.5-2.6,31.91-9
		c1.93-1.09,4.37-0.7,5.87,0.93c1.5,1.63,1.69,4.09,0.46,5.93c-7.81,11.63-18.2,20.35-29.98,26.1c-11.79,5.76-24.95,8.58-38.43,8.58
		c-19.51,0-39.69-5.89-57.52-17.48l0,0c-2.93-1.9-5.76-3.95-8.48-6.1c35.16,29.12,80.26,46.62,129.48,46.62
		c36.24,0,70.25-9.5,99.69-26.12c-7.68,1.66-15.72,2.63-23.69,2.63C321.33,429.17,316.79,428.86,312.36,428.16z"/>
	<path class="st0" d="M96.26,379.03c-8-13.08-12.71-27.91-12.71-43.36c0-9.15,1.66-18.49,5.21-27.73c3.55-9.25,9-18.38,16.52-27.16
		c5.42-6.32,9.59-12,12.67-17.15c3.08-5.15,5.05-9.75,6.13-13.95c0.72-2.8,1.05-5.41,1.05-7.94c0-2.54-0.33-5-0.98-7.48
		c-0.65-2.48-1.62-4.98-2.91-7.54c-2.58-5.14-6.47-10.56-11.43-16.48l0,0c-2.63-3.14-4.54-6.54-5.77-10.02
		c-1.23-3.48-1.79-7.04-1.79-10.52c0-5.1,1.18-10.02,3.14-14.48c1.97-4.46,4.71-8.47,7.97-11.78c2.17-2.21,4.58-4.1,7.16-5.59
		c1.83-1.05,4.14-0.78,5.68,0.67c1.54,1.45,1.94,3.74,1,5.64c-0.26,0.52-0.58,1.31-0.81,2.23c-0.24,0.92-0.39,1.98-0.39,3.1
		c0,1.67,0.33,3.45,1.3,5.35c0.97,1.9,2.61,3.97,5.52,6.08c1.94,1.4,4.44,2.81,7.64,4.12c11.92,4.89,21.31,12.24,27.75,20.74
		c6.44,8.49,9.96,18.16,9.96,27.65c0,1.36-0.08,2.72-0.23,4.07c6.26-2.69,11.29-6.44,15.01-10.72c5.17-5.96,7.81-12.92,7.81-19.66
		c0-4.17-1-8.28-3.1-12.15c-2.11-3.87-5.34-7.52-9.95-10.68c-8.46-5.8-15.26-13.13-19.98-21.28c-4.71-8.15-7.34-17.16-7.34-26.24
		c-0.01-9.23,2.75-18.53,8.6-26.79c5.85-8.27,14.71-15.48,26.72-20.91l0,0c7.94-3.59,14.58-7.24,19.97-10.91
		c5.4-3.67,9.54-7.36,12.53-10.98c2-2.42,3.49-4.8,4.55-7.16c1.41-3.15,2.06-6.24,2.07-9.45c0-1.17-0.09-2.36-0.27-3.57
		c-49.99,3.73-94.92,25.53-128.31,58.92c-36.77,36.77-59.49,87.52-59.49,143.62c0,56.11,22.73,106.86,59.49,143.64
		c1.97,1.97,3.99,3.9,6.05,5.79C106.1,392.94,100.67,386.25,96.26,379.03z"/>
	<path class="st0" d="M339.99,373.39c2.05-5.01,3.1-10.43,3.1-16.07c0-6.4-1.36-13.06-4.18-19.63l0,0
		c-2.98-6.96-7.39-13.8-13.28-20.1c4.67,6.47,8.39,14.43,10.69,22.57c1.53,5.45,2.43,10.98,2.43,16.25c0,0.75-0.02,1.49-0.06,2.23
		c-0.52,10.1-2.88,19.55-7.21,27.64C335.22,382.48,338.05,378.12,339.99,373.39z"/>
	<path class="st1" d="M125.3,166.16l-2.39-4.16l-4.29-2.15c-0.57,1.15-1.11,2.53-1.53,4.15c-0.41,1.61-0.69,3.46-0.69,5.47
		c0,1.48,0.16,3.05,0.52,4.67c1-1.45,2.1-2.79,3.27-3.99C121.81,168.52,123.55,167.16,125.3,166.16z"/>
	<path class="st1" d="M252.42,218.16l-2.2,0.4c0,0.01,0,0.01,0,0.02L252.42,218.16z"/>
	<path class="st1" d="M387.35,215.98c-0.31-0.78-0.63-1.51-0.98-2.2c-0.35-0.69-0.73-1.33-1.19-1.95l-3.87,2.84l-0.74,4.74
		c1.21,0.19,2.61,0.66,4.14,1.48c1.54,0.82,3.2,2,4.88,3.48c-0.19-1.07-0.39-2.1-0.62-3.07
		C388.5,219.32,387.96,217.55,387.35,215.98z"/>
	<path class="st1" d="M250.23,218.59c0-0.01,0-0.01,0-0.02l0,0L250.23,218.59z"/>
	<path class="st1" d="M244.18,46.49c-0.54,0.01-1.08,0.04-1.62,0.06c0.59,0.4,1.18,0.82,1.76,1.26
		C244.28,47.37,244.23,46.93,244.18,46.49z"/>
	<polygon class="st1" points="179.57,376.15 179.57,376.15 179.57,376.15 	"/>
	<path class="st1" d="M259.65,216.77l-4.71,0.91l-2.07,4.33c2.54,1.22,4.95,2.5,7.24,3.83c0.03-0.81,0.05-1.58,0.05-2.29
		C260.15,219.49,259.7,217.02,259.65,216.77z"/>
	<path class="st1" d="M255.87,429.74c-1.05,1.77-1.82,3.76-2.25,5.88l4.7,0.97l4.44-1.83c-0.87-2.13-1.23-3.99-1.23-5.64
		c0-1.14,0.17-2.18,0.48-3.19c0.43-1.36,1.15-2.69,2.2-3.98c-1.6,0.88-3.11,1.91-4.47,3.12
		C258.24,426.41,256.91,427.96,255.87,429.74z"/>
	<path class="st1" d="M307.22,308.98l4.79,0.35c0.09-1.18,0.15-2.42,0.2-3.7c-1.27-0.58-2.58-1.03-3.95-1.34L307.22,308.98z"/>
	<path class="st1" d="M386.48,323.79l2.64,4.01c2.37-1.56,4.57-3.19,6.63-4.89c-2.37-1.5-4.96-2.74-7.75-3.67L386.48,323.79z"/>
	<path class="st1" d="M244.18,46.49c0.05,0.44,0.1,0.88,0.13,1.32c2.99,2.25,5.76,4.92,7.83,7.86c1.26,1.79,2.26,3.67,2.94,5.62
		c0.69,1.96,1.06,3.99,1.06,6.15c0,1.76-0.25,3.62-0.83,5.62c-0.58,1.99-1.49,4.13-2.83,6.41C248.94,85.52,247,91.9,247,98.25
		c0,4.87,1.15,9.69,3.42,14.17c1.7,3.36,4.03,6.53,6.92,9.46c4.35,4.39,9.97,8.23,16.85,11.47c6.88,3.23,15.02,5.86,24.47,7.78
		c7.33,1.49,13.85,4.07,19.54,7.52c8.53,5.17,15.19,12.28,19.74,20.59c4.55,8.32,6.99,17.85,6.99,27.86
		c0,10.15-2.51,20.8-7.93,31.14c-4.76,9.1-6.91,17.3-6.91,24.51c0,4.26,0.76,8.16,2.16,11.6c2.1,5.16,5.66,9.23,9.92,11.92
		c4.27,2.7,9.23,4.06,14.25,4.06c3.67,0,7.39-0.73,10.91-2.2c3.52-1.48,6.86-3.71,9.73-6.68c5.17-5.35,8.54-11.57,10.6-17.84
		c2.05-6.28,2.82-12.61,2.82-18.4c0-3.91-0.35-7.57-0.91-10.82c-1.68-1.48-3.33-2.66-4.88-3.48c-1.53-0.82-2.93-1.29-4.14-1.48
		l0.74-4.74l3.87-2.84c0.46,0.62,0.84,1.26,1.19,1.95c0.35,0.69,0.68,1.42,0.98,2.2c0.61,1.56,1.15,3.34,1.61,5.32
		c0.23,0.98,0.44,2,0.62,3.07c1.23,1.09,2.48,2.33,3.7,3.74c4.36,4.98,8.48,11.83,11.46,19.63c2.98,7.8,4.82,16.53,4.82,25.31
		c0,8.52-1.72,17.07-5.75,25.02c-4.04,7.96-10.38,15.38-19.97,21.7c-1.53,1.01-2.36,2.81-2.12,4.63c0.24,1.82,1.5,3.35,3.24,3.93
		c3.1,1.03,5.77,2.53,8.06,4.41c3.44,2.82,6.09,6.55,7.9,10.98c1.81,4.43,2.76,9.55,2.76,15.01c0,7.41-1.76,15.4-5.35,22.98
		c-3.59,7.58-9,14.75-16.27,20.61l0,0c-2.75,2.22-6.3,4.46-10.4,6.51c-6.15,3.09-13.54,5.8-21.42,7.71
		c-7.88,1.91-16.25,3.03-24.37,3.03c-4.12,0-8.16-0.29-12.05-0.89c-7.18-1.12-15.2-1.94-23.03-1.94c-4.12,0-8.18,0.23-12.06,0.77
		c-2.91,0.41-5.72,1-8.37,1.84c-2.17,0.68-4.24,1.54-6.17,2.6c-1.05,1.3-1.77,2.62-2.2,3.98c-0.32,1.01-0.48,2.06-0.48,3.19
		c0,1.65,0.35,3.51,1.23,5.64l-4.44,1.83l4.7,0.97c0.21-1,0.53-1.86,0.95-2.65c0.74-1.37,1.83-2.55,3.37-3.64
		c1.16-0.81,2.57-1.54,4.21-2.18c2.46-0.95,5.43-1.66,8.7-2.11c3.28-0.45,6.86-0.66,10.56-0.66c7.16,0,14.75,0.76,21.55,1.83
		c4.44,0.69,8.97,1.01,13.53,1.01c7.97,0,16.01-0.97,23.69-2.63c16.14-9.11,30.92-20.36,43.94-33.38
		c6.54-6.54,12.62-13.53,18.22-20.9c1.04-4.54,1.56-9.09,1.56-13.53c0-8.75-2.02-17.12-6.22-24.13c-2.1-3.5-4.76-6.65-7.96-9.27
		c-1.06-0.87-2.19-1.68-3.37-2.42c-2.06,1.7-4.26,3.34-6.63,4.89l-2.64-4.01l1.51-4.55c2.8,0.93,5.39,2.17,7.75,3.67
		c7.41-6.11,12.88-13.09,16.63-20.49c4.79-9.46,6.79-19.55,6.78-29.36c0-7.7-1.22-15.25-3.28-22.29c-3.1-10.56-8.07-20-13.89-27.21
		c-2.92-3.61-6.06-6.67-9.37-9.02c-3.32-2.34-6.84-4.01-10.57-4.6c-1.92-0.3-3.83,0.59-4.84,2.25c-1.01,1.66-0.91,3.77,0.24,5.33
		c0.07,0.09,0.22,0.32,0.39,0.66c0.31,0.59,0.68,1.49,1.04,2.61c0.54,1.68,1.06,3.84,1.43,6.3c0.37,2.46,0.6,5.21,0.6,8.12
		c0,4.94-0.67,10.3-2.34,15.41c-1.68,5.12-4.34,9.99-8.37,14.16c-1.97,2.04-4.2,3.52-6.54,4.5c-2.34,0.98-4.8,1.46-7.2,1.46
		c-2.2,0-4.34-0.4-6.31-1.16c-2.96-1.15-5.51-3.09-7.36-5.82c-1.85-2.74-3.06-6.31-3.06-11c0-5.29,1.6-12.01,5.82-20.06
		c6.11-11.66,9.03-23.85,9.03-35.59c0-15.42-5.03-30.08-14.34-41.73c-9.3-11.66-22.89-20.26-39.63-23.64
		c-7.85-1.59-14.58-3.68-20.23-6.12c-8.48-3.66-14.47-8.12-18.26-12.78c-1.9-2.33-3.26-4.72-4.15-7.14
		c-0.89-2.42-1.33-4.88-1.33-7.42c0-4.4,1.32-9.08,4.16-13.92c1.7-2.89,2.95-5.77,3.77-8.59c0.82-2.83,1.21-5.61,1.21-8.29
		c0-4.4-1.05-8.5-2.75-12.14c-1.53-3.27-3.57-6.18-5.88-8.76c-2.4-0.08-4.8-0.14-7.22-0.14C247.98,46.41,246.08,46.44,244.18,46.49z
		"/>
	<path class="st1" d="M128.88,412.14c17.82,11.58,38.01,17.47,57.52,17.48c13.48,0,26.64-2.82,38.43-8.58
		c11.78-5.75,22.17-14.47,29.98-26.1c1.24-1.84,1.05-4.3-0.46-5.93c-1.5-1.63-3.94-2.01-5.87-0.93c-11.42,6.4-22.28,9-31.91,9
		c-9.27,0-17.41-2.42-23.78-6.26c-6.38-3.84-10.94-9.08-13.21-14.67c0,0,0,0,0,0l0,0l0,0c-2.64-6.48-4.97-13.9-4.97-22.39
		c0-4.28,0.59-8.84,2.07-13.77c2.22-7.38,6.47-15.6,13.95-24.69c7.47-9.09,18.18-19.04,33.19-29.76
		c15.9-11.33,25.09-23.78,30.18-34.94c4.51-9.85,5.85-18.64,6.1-24.78c-2.29-1.33-4.7-2.61-7.24-3.83l2.07-4.33l4.71-0.91
		c0.05,0.25,0.5,2.71,0.5,6.77c0,0.71-0.02,1.48-0.05,2.29c7.13,4.14,13.08,8.81,18.06,13.79c9.87,9.87,15.97,21.02,19.64,31.96
		c3.67,10.93,4.87,21.64,4.87,30.38c0,2.38-0.09,4.62-0.24,6.67c-0.17,2.37,1.43,4.52,3.75,5.03c1.1,0.24,2.32,0.74,3.61,1.54
		c2.27,1.39,4.73,3.69,7.05,6.65c3.48,4.44,6.63,10.32,8.83,16.48c2.22,6.16,3.5,12.6,3.49,18.08c0,0.59-0.01,1.17-0.04,1.74
		c-0.31,5.97-1.34,11.56-3.05,16.59c-1.29,3.77-2.96,7.22-4.98,10.29c-3.05,4.6-6.88,8.35-11.57,11.11
		c-4.69,2.76-10.25,4.56-16.85,5.09c-5.5,0.44-10.68,1.33-15.41,2.67c-3.55,1-6.84,2.25-9.83,3.76c-4.47,2.27-8.28,5.13-11.06,8.74
		c-1.39,1.8-2.51,3.79-3.27,5.93c-0.76,2.14-1.17,4.44-1.17,6.79c0,3.05,0.67,6.17,1.95,9.29c0.81,1.96,2.78,3.15,4.89,2.95
		c2.11-0.2,3.82-1.74,4.25-3.81l-4.7-0.97l-4.7-0.97c0.44-2.12,1.2-4.11,2.25-5.88c1.05-1.78,2.37-3.34,3.87-4.67
		c1.36-1.21,2.87-2.24,4.47-3.12c0.31-0.38,0.64-0.75,1-1.12c2.42-2.47,6.18-4.77,11.02-6.53c4.83-1.76,10.7-2.98,17.2-3.5
		c0.33-0.03,0.66-0.07,0.99-0.1c-2.62,0.09-4.84-1.95-4.96-4.58c-0.12-2.65,1.93-4.89,4.58-5.01c12.4-0.56,22.35-3.82,29.96-8.72
		c2.81-1.82,5.31-3.86,7.5-6.1c4.33-8.09,6.69-17.54,7.21-27.64c0.04-0.74,0.06-1.48,0.06-2.23c0-5.27-0.9-10.8-2.43-16.25
		c-2.3-8.15-6.02-16.11-10.69-22.57c-3.33-3.55-7.12-6.93-11.41-10.05c-0.6-0.43-1.07-0.99-1.4-1.61c-0.21-0.1-0.41-0.21-0.62-0.3
		c-0.05,1.28-0.11,2.51-0.2,3.7l-4.79-0.35l1.04-4.68c1.37,0.3,2.68,0.76,3.95,1.34c0.04-1.19,0.07-2.41,0.07-3.67
		c0-6.4-0.58-13.73-2.17-21.51c-2.38-11.65-7.04-24.31-15.45-36.15c-8.4-11.83-20.57-22.79-37.64-30.96c-1.63-0.78-3.57-0.57-5,0.53
		c-1.42,1.1-2.11,2.92-1.78,4.68l2.2-0.4l-2.2,0.42l0-0.02c0,0.01,0.33,1.85,0.33,4.98c0,5.05-0.86,13.42-5.28,23.07
		c-4.43,9.66-12.41,20.67-27.03,31.12c-20.72,14.79-33.99,28.48-42.15,41.2c-4.07,6.36-6.86,12.47-8.61,18.3
		c-1.76,5.83-2.48,11.37-2.48,16.53c0,10.27,2.83,19,5.68,26l0,0c3.18,7.78,9.22,14.5,17.15,19.27c0.04,0.02,0.08,0.04,0.12,0.07
		c5.85,2.25,12.19,3.51,19.01,3.51c6.09,0,12.56-1.01,19.41-3.27c6.85-2.26,14.07-5.79,21.6-10.84c2.2-1.48,5.18-0.89,6.66,1.31
		c1.48,2.2,0.89,5.18-1.31,6.66c-8.17,5.48-16.17,9.42-23.93,11.99c-1.15,0.38-2.29,0.72-3.43,1.04c-1.73,1.05-3.51,2.02-5.33,2.91
		c-10.36,5.06-22.07,7.6-34.22,7.6c-17.57,0-36-5.34-52.29-15.93l0,0c-12.19-7.91-22.48-18.31-29.67-30.07
		c-7.2-11.77-11.3-24.87-11.3-38.36c0-7.99,1.44-16.13,4.57-24.29c3.14-8.16,7.98-16.34,14.85-24.36
		c7.57-8.83,13.05-16.71,16.71-24.13c1.82-3.71,3.19-7.3,4.1-10.82c0.91-3.52,1.35-6.97,1.35-10.34c0-3.39-0.45-6.7-1.3-9.92
		c-1.27-4.83-3.41-9.45-6.17-14c-2.77-4.56-6.18-9.07-10.08-13.74l0,0c-1.92-2.3-3.23-4.66-4.09-7.06c-0.85-2.4-1.24-4.85-1.24-7.31
		c-0.01-4.8,1.51-9.68,4.01-13.88c0.34-0.57,0.7-1.12,1.07-1.67c-0.37-1.62-0.52-3.19-0.52-4.67c0-2.02,0.28-3.86,0.69-5.47
		c0.41-1.62,0.95-3,1.53-4.15l4.29,2.15l2.39,4.16c-1.75,1-3.49,2.36-5.11,4c-1.18,1.19-2.28,2.54-3.27,3.99
		c0.13,0.56,0.28,1.13,0.46,1.7c1.04,3.33,3.06,6.75,6.24,9.84c3.19,3.1,7.5,5.88,13.19,8.21c10.43,4.28,18.41,10.62,23.75,17.66
		c5.34,7.05,8.02,14.77,8.01,21.85c0,3.36-0.59,6.58-1.78,9.6c-0.66,1.67-0.33,3.58,0.85,4.92c1.18,1.35,3.03,1.93,4.77,1.49
		c11.77-2.93,21.24-8.84,27.78-16.38c6.54-7.52,10.16-16.69,10.16-25.95c0-5.72-1.39-11.46-4.27-16.74
		c-2.87-5.28-7.21-10.08-12.96-14.01c-7.33-5.02-13.14-11.32-17.09-18.17c-3.96-6.85-6.05-14.22-6.05-21.44
		c0.01-7.35,2.13-14.57,6.84-21.25c4.72-6.67,12.1-12.84,22.84-17.7l0,0c7.41-3.35,13.85-6.79,19.38-10.37
		c8.3-5.37,14.58-11.03,18.88-17.19c2.14-3.08,3.78-6.28,4.87-9.58c1.09-3.3,1.64-6.7,1.64-10.11c0-0.91-0.05-1.82-0.13-2.74
		c-0.58-0.43-1.16-0.86-1.76-1.26c-2.68,0.09-5.34,0.23-7.99,0.43c0.18,1.21,0.27,2.4,0.27,3.57c0,3.21-0.66,6.31-2.07,9.45
		c-1.06,2.36-2.55,4.74-4.55,7.16c-3,3.63-7.14,7.31-12.53,10.98c-5.39,3.67-12.03,7.32-19.97,10.91l0,0
		c-12.01,5.43-20.88,12.63-26.72,20.91c-5.85,8.26-8.61,17.56-8.6,26.79c0,9.09,2.63,18.09,7.34,26.24
		c4.71,8.16,11.52,15.48,19.98,21.28c4.61,3.16,7.84,6.81,9.95,10.68c2.1,3.87,3.1,7.97,3.1,12.15c0,6.74-2.64,13.7-7.81,19.66
		c-3.72,4.28-8.76,8.03-15.01,10.72c-0.34,3.09-1.07,6.14-2.22,9.05l-4.46-1.76l-1.16-4.66c2.8-0.7,5.41-1.59,7.84-2.64
		c0.15-1.35,0.23-2.7,0.23-4.07c-0.01-9.49-3.53-19.16-9.96-27.65c-6.44-8.5-15.83-15.85-27.75-20.74c-3.2-1.31-5.7-2.72-7.64-4.12
		c-2.91-2.11-4.55-4.18-5.52-6.08c-0.97-1.9-1.3-3.68-1.3-5.35c0-1.12,0.16-2.18,0.39-3.1c0.23-0.92,0.55-1.71,0.81-2.23
		c0.95-1.89,0.54-4.18-1-5.64c-1.54-1.45-3.85-1.73-5.68-0.67c-2.59,1.49-4.99,3.38-7.16,5.59c-3.26,3.31-6.01,7.32-7.97,11.78
		c-1.96,4.46-3.14,9.38-3.14,14.48c0,3.48,0.56,7.04,1.79,10.52c1.23,3.48,3.14,6.87,5.77,10.02l0,0
		c4.96,5.93,8.84,11.35,11.43,16.48c1.29,2.57,2.26,5.07,2.91,7.54c0.65,2.48,0.98,4.94,0.98,7.48c0,2.53-0.33,5.15-1.05,7.94
		c-1.08,4.19-3.05,8.8-6.13,13.95c-3.08,5.15-7.25,10.83-12.67,17.15c-7.52,8.78-12.97,17.91-16.52,27.16
		c-3.55,9.24-5.21,18.59-5.21,27.73c0,15.45,4.71,30.28,12.71,43.36c4.42,7.22,9.84,13.91,16.05,19.92c2.64,2.43,5.34,4.8,8.1,7.09
		C123.13,408.2,125.95,410.24,128.88,412.14L128.88,412.14z"/>
	<path class="st1" d="M171.26,244.77l4.46,1.76c1.15-2.92,1.88-5.96,2.22-9.05c-2.43,1.05-5.04,1.94-7.84,2.64L171.26,244.77z"/>
	<path class="st1" d="M145.96,321.92l4.23,2.26c0.05-0.09,0.11-0.19,0.16-0.28c0.03-0.09,0.06-0.17,0.09-0.26L145.96,321.92z"/>
	<path class="st1" d="M266.67,182.7l2.9-3.82c-0.06-0.05-0.12-0.09-0.18-0.13l-0.06-0.04L266.67,182.7z"/>
	<path class="st1" d="M258.63,177.62l2.38-4.16c-0.06-0.03-0.11-0.06-0.17-0.09L258.63,177.62z"/>
	<path class="st1" d="M317.05,303.66l4.71,0.9c0.19-0.99,0.37-1.98,0.53-2.96c-0.79-0.62-1.6-1.22-2.42-1.82L317.05,303.66z"/>
	<path class="st1" d="M249.66,167.85c-0.01,0-0.01,0-0.02-0.01c0,0-0.01,0-0.01,0L249.66,167.85z"/>
	<path class="st1" d="M266.78,182.77l-2.73,3.95c0.01,0,0.01,0.01,0.02,0.01l0.05,0.03L266.78,182.77z"/>
	<path class="st1" d="M214.37,144.2c0-1.94,0.25-3.71,0.75-5.33c0.5-1.63,1.24-3.12,2.28-4.55l-3.87-2.83l-4.73,0.83
		c0.95,5.46,2.44,12.96,7,20.61c-0.07-0.25-0.16-0.5-0.23-0.74C214.76,149.28,214.37,146.61,214.37,144.2z"/>
	<path class="st1" d="M319.18,405.61c10.83-4.34,19.28-11.26,24.95-19.69c5.68-8.43,8.57-18.35,8.57-28.6
		c0-7.76-1.65-15.71-4.95-23.42l0,0c-5.03-11.75-13.5-23.02-25.44-32.3c-0.17,0.98-0.34,1.97-0.53,2.96l-4.71-0.9l2.82-3.88
		c0.82,0.6,1.63,1.21,2.42,1.82c1.31-7.66,1.92-15.03,1.92-22.1c0-12.31-1.84-23.7-5-34.1c-4.74-15.61-12.45-28.99-21.31-40.09
		c-8.87-11.1-18.89-19.92-28.39-26.49l-0.07-0.05l-0.05-0.04c0.06,0.05,0.12,0.09,0.18,0.13l-2.9,3.82l2.66-3.99l0.06,0.04
		c-2.68-2.02-5.48-3.77-8.38-5.29l-2.38,4.16l2.22-4.26c0.06,0.03,0.11,0.06,0.17,0.09l0,0c-3.99-2.29-7.82-4.2-11.37-5.61
		c0.01,0,0.01,0,0.02,0.01l-0.02-0.01c0,0,0.01,0,0.01,0c-6.72-2.72-11.87-5.77-15.86-8.92c-3-2.37-5.35-4.8-7.23-7.23
		c-2.82-3.65-4.61-7.32-5.85-10.89c-1.24-3.56-1.91-7-2.46-10.15c-0.33-1.9-1.76-3.41-3.64-3.85c-1.87-0.44-3.83,0.28-4.96,1.84
		c-1.67,2.28-2.91,4.79-3.71,7.41c-0.8,2.62-1.17,5.36-1.17,8.14c0,3.46,0.56,6.98,1.56,10.55c1.5,5.36,3.97,10.84,7.18,16.43
		c3.21,5.59,7.17,11.28,11.67,17.01l0,0c2.92,3.71,5.3,8.19,6.94,13.11c1.64,4.92,2.55,10.27,2.55,15.71
		c0,8.16-2.01,16.48-6.5,24.02c-4.5,7.54-11.48,14.36-21.76,19.51c-12.18,6.09-24.95,14.63-36.39,24.74
		c-11.44,10.12-21.56,21.81-28.29,34.37c-0.09,0.18-0.18,0.36-0.25,0.54c-2.3,6-3.37,12.48-3.37,19.11c0,8.48,1.73,17.2,4.94,25.55
		c4.81,12.53,12.93,24.27,23.8,33c5.44,4.36,11.57,7.95,18.29,10.45c6.73,2.5,14.05,3.91,21.82,3.91c6.09,0,12.44-0.87,18.99-2.71
		c2.46-1.49,4.83-3.13,7.1-4.93c-5.68,1.43-11.21,2.1-16.48,2.1c-10.89,0-20.7-2.83-28.61-7.57c-1.71-0.66-3.38-1.4-5.01-2.22
		c-10.76-5.43-19.62-14.37-25.75-24.74c-6.14-10.36-9.5-22.11-9.49-32.85c0-5.5,0.88-10.72,2.64-15.41
		c-0.05,0.09-0.11,0.19-0.16,0.28l-4.23-2.26l4.48,1.72c-0.03,0.09-0.06,0.17-0.09,0.26c6-11.11,15.33-21.97,26.03-31.43
		c10.79-9.54,22.95-17.67,34.32-23.35c11.79-5.88,20.28-14.03,25.72-23.18c5.45-9.14,7.86-19.21,7.86-28.94
		c0-6.5-1.07-12.86-3.04-18.75c-1.97-5.9-4.84-11.34-8.5-16l0,0c-5.71-7.26-10.37-14.34-13.55-20.84c-1.45-2.98-2.58-5.82-3.38-8.5
		c-4.57-7.65-6.05-15.15-7-20.61l4.73-0.83l3.87,2.83c-1.04,1.43-1.78,2.92-2.28,4.55c-0.5,1.63-0.75,3.39-0.75,5.33
		c0,2.41,0.4,5.08,1.2,7.98c0.07,0.24,0.16,0.5,0.23,0.74c0.31,0.53,0.64,1.05,0.99,1.58c2.67,4.09,6.26,8.17,11.05,11.95
		c4.79,3.79,10.77,7.28,18.23,10.29l0.02,0.01c2.99,1.19,6.46,2.91,10.16,5.03l0.17,0.09c2.59,1.35,5.02,2.87,7.35,4.64l0.24,0.17
		l0.06,0.04c0,0-0.01-0.01-0.02-0.01l2.73-3.95l-2.66,3.99l-0.05-0.03c11.72,8.1,24.41,20.03,34.1,35.53
		c4.85,7.75,8.96,16.4,11.86,25.93c2.9,9.53,4.59,19.96,4.59,31.31c0,7.36-0.71,15.11-2.28,23.26c-0.21,1.11-0.02,2.22,0.49,3.17
		c1.74,0.86,3.4,1.94,4.96,3.19c2.87,2.3,5.46,5.17,7.81,8.4c0.01,0.02,0.03,0.04,0.04,0.06c5.89,6.29,10.3,13.14,13.28,20.1l0,0
		c2.82,6.57,4.18,13.23,4.18,19.63c0,5.64-1.05,11.07-3.1,16.07c-1.94,4.73-4.77,9.09-8.5,12.9c-0.02,0.03-0.03,0.07-0.05,0.1
		c-4.36,8.11-10.77,14.83-19.09,19.15c-5.28,2.75-11.3,4.51-17.93,5.16c0.02,0,0.03,0,0.05,0
		C303.69,410.29,311.96,408.51,319.18,405.61z"/>
	<path class="st1" d="M331.44,386.39c0.02-0.03,0.03-0.07,0.05-0.1c-2.19,2.23-4.68,4.28-7.5,6.1c-7.61,4.91-17.56,8.17-29.96,8.72
		c-2.65,0.12-4.7,2.36-4.58,5.01c0.12,2.63,2.33,4.67,4.96,4.58c6.64-0.65,12.66-2.41,17.93-5.16
		C320.67,401.22,327.08,394.5,331.44,386.39z"/>
	<path class="st1" d="M317.79,309.12c-1.56-1.25-3.21-2.33-4.96-3.19c0.34,0.62,0.81,1.18,1.4,1.61c4.29,3.12,8.08,6.49,11.41,10.05
		c-0.01-0.02-0.03-0.04-0.04-0.06C323.24,314.29,320.65,311.43,317.79,309.12z"/>
	<path class="st1" d="M250.82,392.26l-3.98-2.67c-3.94,5.86-8.59,10.84-13.8,14.99c6.56-1.65,13.31-4.3,20.13-8.13L250.82,392.26z"
		/>
	<path class="st1" d="M233.04,404.58c5.21-4.15,9.86-9.13,13.8-14.99l3.98,2.67l2.35,4.18C246.36,400.27,239.6,402.93,233.04,404.58
		c-2.26,1.8-4.63,3.45-7.1,4.93c1.14-0.32,2.28-0.66,3.43-1.04c7.76-2.57,15.76-6.5,23.93-11.99c2.2-1.48,2.79-4.46,1.31-6.66
		c-1.48-2.2-4.46-2.79-6.66-1.31c-7.53,5.05-14.75,8.58-21.6,10.84c-6.85,2.26-13.32,3.27-19.41,3.27c-6.82,0-13.16-1.27-19.01-3.51
		c7.91,4.74,17.72,7.57,28.61,7.57C221.84,406.68,227.36,406,233.04,404.58z"/>
	<path class="st1" d="M411.73,372.26c-1.03,4.48-2.56,8.95-4.6,13.3c31.57-36.46,50.67-84.02,50.67-136.04H453
		C453,295.66,437.63,338.16,411.73,372.26z"/>
	<path class="st1" d="M251.98,41.64c0.05,0.04,0.11,0.08,0.16,0.13c1.74,1.45,3.41,3.04,4.97,4.79
		c53.23,1.86,101.22,24.17,136.41,59.35C430.28,142.68,453,193.43,453,249.53h4.8C457.8,135.41,365.85,42.76,251.98,41.64z"/>
	<path class="st1" d="M349.58,426.54c-29.45,16.63-63.45,26.12-99.69,26.12c-49.23,0-94.32-17.5-129.48-46.62
		c-2.83-2.24-5.53-4.6-8.1-7.09c-2.05-1.89-4.07-3.81-6.05-5.79c-36.77-36.78-59.49-87.53-59.49-143.64
		c0-56.1,22.73-106.85,59.49-143.62c33.39-33.39,78.32-55.2,128.31-58.92c-0.23-1.54-0.6-3.11-1.13-4.72
		C126.29,50.64,41.97,140.24,41.97,249.53c0,114.84,93.09,207.93,207.92,207.93c43.42,0,83.72-13.31,117.06-36.07
		c-1.97,0.76-3.99,1.47-6.07,2.13C357.24,424.69,353.45,425.7,349.58,426.54z"/>
	<path class="st1" d="M457.8,249.53c0,52.02-19.1,99.58-50.67,136.04c-11.77,13.6-25.29,25.65-40.19,35.82
		c-33.34,22.76-73.64,36.07-117.06,36.07c-114.83,0-207.92-93.1-207.92-207.93c0-109.28,84.33-198.88,191.47-207.27
		c0.58-0.05,1.16-0.08,1.74-0.12c2.69-0.19,5.39-0.32,8.1-0.41c2.2-0.07,4.4-0.12,6.61-0.12c0.7,0,1.4,0.02,2.1,0.03
		C365.85,42.76,457.8,135.41,457.8,249.53h4.8c0-58.72-23.81-111.93-62.3-150.41c-38.48-38.49-91.69-62.31-150.42-62.31
		c-58.73,0-111.94,23.82-150.42,62.31c-38.49,38.48-62.31,91.69-62.3,150.41c0,58.73,23.82,111.94,62.3,150.42
		c38.48,38.49,91.69,62.31,150.42,62.31c58.73,0,111.94-23.82,150.42-62.31c38.49-38.48,62.3-91.7,62.3-150.42H457.8z"/>
	<path class="st1" d="M120.41,406.04c-2.76-2.29-5.46-4.66-8.1-7.09C114.87,401.44,117.58,403.8,120.41,406.04z"/>
	<path class="st1" d="M249.89,46.41c2.42,0,4.83,0.06,7.22,0.14c-1.56-1.74-3.23-3.34-4.97-4.79c-0.05-0.04-0.11-0.08-0.16-0.13
		c-0.7-0.01-1.4-0.03-2.1-0.03c-2.21,0-4.41,0.05-6.61,0.12c0.41,1.59,0.71,3.18,0.9,4.77C246.08,46.44,247.98,46.41,249.89,46.41z"
		/>
	<path class="st1" d="M393.52,393.16c-13.02,13.02-27.8,24.26-43.94,33.38c3.87-0.84,7.66-1.85,11.29-3.02
		c2.07-0.66,4.1-1.38,6.07-2.13c14.9-10.17,28.42-22.22,40.19-35.82c2.04-4.35,3.57-8.82,4.6-13.3
		C406.13,379.64,400.05,386.63,393.52,393.16z"/>
	<path class="st1" d="M242.38,46.43c0.06,0.04,0.12,0.08,0.18,0.12c0.54-0.02,1.08-0.05,1.62-0.06c-0.19-1.59-0.49-3.18-0.9-4.77
		c-2.71,0.08-5.41,0.22-8.1,0.41l-0.12,0.26C237.36,43.4,239.91,44.77,242.38,46.43z"/>
	<path class="st1" d="M242.56,46.55c-0.06-0.04-0.12-0.08-0.18-0.12c-2.47-1.66-5.02-3.03-7.32-4.03l0.12-0.26
		c-0.58,0.04-1.16,0.08-1.74,0.12c0.53,1.62,0.9,3.19,1.13,4.72C237.22,46.78,239.88,46.65,242.56,46.55z"/>
</g>
</svg>
