<?xml version="1.0" encoding="utf-8"?>
<!-- Generator: Adobe Illustrator 25.3.0, SVG Export Plug-In . SVG Version: 6.00 Build 0)  -->
<svg version="1.1" id="Layer_1" xmlns="http://www.w3.org/2000/svg" xmlns:xlink="http://www.w3.org/1999/xlink" x="0px" y="0px"
	 viewBox="0 0 1920 700" style="enable-background:new 0 0 1920 700;" xml:space="preserve">
<style type="text/css">
	.st0{fill:#1B1D50;}
	.st1{fill:#FFFFFF;}
	.st2{opacity:0.42;}
	.st3{fill:#8AD2D0;}
</style>
<rect class="st0" width="1920" height="700"/>
<g id="XMLID_120_">
	<g id="XMLID_135_">
		<g id="XMLID_136_">
			<path id="XMLID_137_" class="st1" d="M180.63,116.85c-63.84,0-87.81-35.95-88.8-37.48c-2.5-3.87-1.39-9.04,2.48-11.54
				c3.86-2.49,9-1.4,11.52,2.43c0.89,1.32,20.68,29.89,74.8,29.89c0.16,0,0.31,0,0.47,0c59.84-0.18,78.44-27.01,79.2-28.16
				c2.47-3.89,7.61-4.99,11.5-2.51c3.89,2.48,5.01,7.68,2.53,11.56c-0.93,1.45-23.49,35.59-93.19,35.81
				C180.98,116.85,180.8,116.85,180.63,116.85z"/>
		</g>
	</g>
	<g id="XMLID_132_">
		<g id="XMLID_133_">
			<path id="XMLID_134_" class="st1" d="M267.31,296.73c-2.72,0-5.39-1.33-7-3.78c-0.9-1.35-20.7-29.89-74.8-29.89
				c-0.16,0-0.31,0-0.47,0c-59.84,0.18-78.44,27.01-79.2,28.16c-2.47,3.89-7.61,4.99-11.5,2.51c-3.89-2.48-5.01-7.67-2.53-11.56
				c0.93-1.45,23.49-35.59,93.19-35.81c0.17,0,0.35,0,0.52,0c63.84,0,87.81,35.95,88.8,37.48c2.5,3.87,1.4,9.04-2.48,11.54
				C270.43,296.31,268.86,296.73,267.31,296.73z"/>
		</g>
	</g>
	<g id="XMLID_121_">
		<g id="XMLID_127_">
			<g id="XMLID_128_">
				<path id="XMLID_129_" class="st1" d="M155.74,263.07c-4.6,0-8.34-3.72-8.35-8.32c-0.42-145.37-0.07-146.89,0.21-148.12
					c1.03-4.49,5.51-7.3,10.01-6.26c4.15,0.95,6.86,4.85,6.44,8.98c-0.26,6.05-0.12,89.95,0.04,145.35
					c0.01,4.61-3.71,8.36-8.32,8.37C155.76,263.07,155.76,263.07,155.74,263.07z M164.04,109.44c-0.03,0.31-0.09,0.62-0.16,0.93
					C163.92,110.23,163.99,109.92,164.04,109.44z"/>
			</g>
		</g>
		<g id="XMLID_122_">
			<g id="XMLID_123_">
				<path id="XMLID_124_" class="st1" d="M210.59,263.07c-4.6,0-8.34-3.72-8.35-8.32c-0.42-145.37-0.07-146.89,0.21-148.12
					c1.03-4.49,5.51-7.3,10.01-6.26c4.15,0.95,6.86,4.85,6.44,8.98c-0.26,6.05-0.12,89.95,0.04,145.35
					c0.01,4.61-3.71,8.36-8.32,8.37C210.61,263.07,210.59,263.07,210.59,263.07z M218.88,109.44c-0.03,0.31-0.09,0.62-0.16,0.93
					C218.75,110.23,218.84,109.92,218.88,109.44z"/>
			</g>
		</g>
	</g>
</g>
<g>
	<g class="st2">
		<g>
			<g>
				<path class="st3" d="M587.66,243.34c-0.61-1.69-1.23-3.37-1.84-5.06c-0.19-0.51-1.05-0.48-1.01,0.14
					c0.14,2.18,0.29,4.35,0.41,6.53c0.33-0.14,0.66-0.28,1-0.41c-0.05-0.86-0.1-1.72-0.16-2.57c0.28,0.75,0.55,1.5,0.81,2.26
					c0.09-0.13,0.18-0.25,0.29-0.38C587.34,243.68,587.5,243.51,587.66,243.34z"/>
				<path class="st3" d="M527.01,158.72c-0.03,0.44-0.01,0.85-0.03,1.15c-0.1,2.49-0.04,5-0.11,7.49c-0.06,2.23-0.03,4.75-0.83,6.87
					c-1.14,2.97-4.74,5.16-7.57,6.23c-0.68,0.25-1.37,0.45-2.05,0.6c0.45,0.21,0.88,0.45,1.27,0.73c1.64-0.49,3.22-1.22,4.66-2.17
					c1.94-1.3,4.08-3.16,4.8-5.48c0.64-2.07,0.68-4.36,0.74-6.5c0.08-2.41,0.04-4.82,0.1-7.23c0.01-0.21,0.01-0.44,0.01-0.66
					C527.65,159.43,527.32,159.09,527.01,158.72z"/>
				<path class="st3" d="M598.39,215.06c-0.26-2.19-0.58-4.37-0.95-6.54c-0.41-2.37-1.03-4.72-1.28-7.12
					c-0.38-3.55-1.38-6.48-3.36-9.42c-1.12-1.65-2.61-2.76-4.44-3.56c-5.3-2.36-11.44-2.33-17.11-2.18
					c-4.1,0.11-8.03-1.3-11.43-3.55c-3.24-2.14-6.45-5.19-7.44-9.07c-0.84-3.31,0.18-6.63-0.16-9.96c-0.05-0.49-0.1-0.99-0.15-1.49
					c-0.3,0.3-0.61,0.6-0.93,0.89c0.18,1.64,0.23,3.28,0.01,4.95c-0.45,3.65,0.1,7.25,2.36,10.22c2,2.66,4.69,4.84,7.61,6.41
					c3.12,1.69,6.58,2.71,10.15,2.61c3.5-0.1,7-0.11,10.47,0.4c3.19,0.48,6.94,1.33,9.31,3.7c0.38,0.38,0.63,0.78,0.91,1.2
					c1.13,1.69,2.04,3.28,2.57,5.27c0.51,1.99,0.54,4.05,0.96,6.05c0.95,4.41,1.67,8.88,2.12,13.37c0.43,4.31,0.54,8.63,0.79,12.94
					c0.1,1.79,0.25,3.57,0.46,5.35c0.31-0.2,0.63-0.4,0.94-0.6C599.04,228.39,599.16,221.65,598.39,215.06z"/>
				<path class="st3" d="M616.67,234.84c-0.85,7.79-1.85,15.64-4.39,23.09c-1.29,3.8-3.04,8.07-6.9,9.89
					c-3.73,1.75-7.22,0.03-9.35-3.19c-1.32-1.98-2.24-4.22-3.07-6.5c-0.26,0.25-0.54,0.49-0.81,0.74c0.63,1.68,1.32,3.33,2.17,4.9
					c1.47,2.71,3.67,5.29,6.88,5.75c3.51,0.51,6.77-1.59,8.77-4.32c2.49-3.4,3.71-7.81,4.74-11.84c1.1-4.33,1.8-8.77,2.37-13.21
					c0.3-2.36,0.59-4.7,0.85-7.07C617.54,233.69,617.13,234.25,616.67,234.84z"/>
				<path class="st3" d="M623.29,180.18c-0.18-4.6-0.35-9.2-0.51-13.79c-0.09-2.29-0.18-4.6-0.26-6.89
					c-0.05-1.45,0.29-3.65-0.7-4.85c-1.75-2.13-5.1-0.61-6.69,0.88c-2.18,2.04-3.17,5.09-3.7,7.94c-0.74,3.95-0.93,8.03-1.14,12.04
					c-0.23,4.52-0.31,9.06-0.39,13.59c-0.09,4.96-0.16,9.92-0.43,14.87c0.33-0.56,0.7-1.13,1.12-1.69c0.05-1.2,0.1-2.41,0.14-3.61
					c0.26-8.47,0.19-16.95,0.73-25.42c0.24-3.68,0.4-7.49,1.32-11.09c0.73-2.88,2.21-6.19,5.22-7.27c0.78-0.28,1.82-0.39,2.57,0.04
					c1.13,0.64,0.86,2.44,0.9,3.55c0.09,2.38,0.18,4.77,0.26,7.15c0.19,4.85,0.36,9.71,0.55,14.56c0.09,2.32,0.09,4.56-0.66,6.79
					c-0.65,1.93-1.48,3.76-1.88,5.76c-0.33,1.6-0.48,3.23-0.56,4.87c0.2,0.06,0.4,0.14,0.6,0.24c0.14,0.06,0.26,0.14,0.39,0.23
					c0.06-0.95,0.13-1.9,0.23-2.86c0.3-2.68,1.18-5.02,2.07-7.54C623.33,185.22,623.4,182.79,623.29,180.18z"/>
			</g>
			<g>
				<path class="st3" d="M540.03,418.07c-1.47,0.66-2.91,1.42-4.32,2.19c-3.24,1.78-6.4,3.73-9.76,5.27
					c-0.36,0.16-0.73,0.33-1.1,0.48c-0.09,0.41-0.2,0.83-0.31,1.24c0.1-0.04,0.21-0.08,0.31-0.13c5.24-2.15,9.94-5.48,15.05-7.88
					C539.84,418.87,539.88,418.47,540.03,418.07z"/>
				<path class="st3" d="M591.03,402.89c-0.55,1.38-1.25,2.68-2.04,3.85c-1.5,2.21-3.45,4.12-5.8,5.39
					c-4.42,2.24-9.21,2.88-14.07,2.99c-0.01,0.19-0.04,0.36-0.09,0.56c-0.04,0.15-0.08,0.31-0.1,0.46c1.17-0.03,2.33-0.08,3.48-0.16
					c3.92-0.33,7.77-1.18,11.29-2.98c4.32-2.32,7.78-7.19,9-12.22C592.22,401.54,591.66,402.25,591.03,402.89z"/>
				<path class="st3" d="M497.48,429.18c-1.58,0.43-3.09,1.05-4.55,1.94c-2.94,1.82-5.17,4.5-7.53,6.98
					c-2.64,2.79-5.53,5.16-9.26,6.31c-7.18,2.23-14.93,0.64-22.29,0.51c-3.76-0.06-7.44,0.31-11.08,1.3
					c-3.73,1.01-7.33,2.47-10.99,3.73c-3.65,1.27-7.44,2.42-11.33,2.49c-4.27,0.09-7.83-1.53-11.6-3.36
					c-3.58-1.74-7.25-2.72-11.19-3.23c-4.15-0.55-8.39-0.73-12.44-1.85c-3.27-0.91-6.49-2.49-8.9-4.94
					c-0.03-0.03-0.05-0.05-0.08-0.08c-0.3-0.11-0.59-0.25-0.86-0.43c-0.23-0.09-0.46-0.16-0.69-0.24c-0.19-0.06-0.36-0.14-0.53-0.24
					c3.57,5.2,10.4,7.18,16.36,7.97c4.44,0.59,8.97,0.79,13.28,2.09c4.11,1.25,7.67,3.88,11.88,4.86
					c7.64,1.75,15.18-1.67,22.24-4.16c3.88-1.37,7.83-2.54,11.97-2.81c3.97-0.26,7.96,0.09,11.93,0.33
					c7.25,0.44,14.92,0.46,20.87-4.31c2.92-2.34,5.16-5.37,7.92-7.89c2-1.83,4.25-3.07,6.7-3.83
					C497.35,429.93,497.39,429.55,497.48,429.18z"/>
			</g>
			<g>
				<path class="st3" d="M583.44,594.6c-0.55-1.95-1.43-3.81-2.48-5.53c-4.61-7.52-12.32-12.87-15.13-21.49
					c-1.65-5.02-1.83-10.37-1.94-15.61c-0.54-24.02,0.45-48.04,1.85-72.02c1.37-23.19,3.11-46.37,4.21-69.57
					c-0.34-0.01-0.69-0.09-1.01-0.23c-0.89,18.56-2.17,37.1-3.36,55.63c-1.47,23.03-2.76,46.08-2.87,69.16
					c-0.03,5.68,0.01,11.35,0.15,17.03c0.11,5.04,0.29,10.17,1.72,15.03c1.2,4.11,3.45,7.66,6.13,10.96
					c2.69,3.31,5.73,6.35,8.21,9.85c1.19,1.68,2.26,3.47,2.99,5.39c0.34,0.88,0.61,1.78,0.8,2.69c0.13,0.58,0.26,1.18,0.21,1.78
					c-0.09,1.37-1.12,1.77-2.29,1.79c-2.44,0.06-5-0.4-7.39-0.86c-2.44-0.48-4.86-1.12-7.23-1.92c-4.69-1.59-9.15-3.82-13.22-6.6
					c-4.12-2.82-9.3-6.36-9.52-11.83c-0.11-2.91,0.53-5.84,0.8-8.73c1.01-10.77,1.04-21.65,1.01-32.46
					c-0.04-13.73-0.4-27.48-0.9-41.21c-0.48-13.26-1.08-26.5-1.78-39.73c-0.5-9.36-1.03-18.72-1.65-28.06
					c-0.14-2.14-0.28-4.3-0.45-6.44c-0.36-4.47-0.78-8.93-1.17-13.39l-0.14-1.57c-0.35-0.04-0.69-0.09-1.04-0.14
					c0.5,5.73,1.05,11.45,1.47,17.19c0.58,8.02,1.04,16.05,1.49,24.08c0.74,13.06,1.38,26.12,1.9,39.19
					c0.58,14.35,1.03,28.7,1.19,43.06c0.13,11.89,0.16,23.82-0.66,35.68c-0.15,2.19-0.34,4.37-0.6,6.55
					c-0.49,4.15-1.18,8.33,1.58,11.86c2.94,3.77,7.45,6.74,11.56,9.1c4.3,2.47,8.95,4.36,13.74,5.6c2.32,0.6,4.69,1.04,7.05,1.34
					c1.83,0.23,4.66,0.91,6.26-0.34C584.53,598.61,583.89,596.21,583.44,594.6z"/>
			</g>
			<g>
				<path class="st3" d="M527.7,407.72c-0.93,5.49-1.89,10.96-2.87,16.44c-3.13,17.53-6.45,35.03-9.51,52.57
					c-3.04,17.52-5.81,35.08-7.86,52.75c-0.5,4.31-0.95,8.62-1.35,12.94c-1.6,17.65,1.59,35.24,1.4,52.9
					c-0.03,2.24-0.1,4.49-0.25,6.72c-0.13,1.97-0.31,4.08-1.94,5.44c-2.36,1.95-6.13,1.59-8.56-0.03c-3.18-2.12-4.8-5.93-6.15-9.33
					c-1.42-3.56-2.54-7.2-3.4-10.94c-3.57-15.75-2.22-32.19-0.06-48.02c1.1-8.11,2.46-16.17,3.66-24.26
					c1.18-7.96,2.05-15.92,2.73-23.94c1.55-18.22,2.88-36.45,3.96-54.69c0.26-4.44,0.53-8.87,0.76-13.31
					c-0.35,0.14-0.71,0.26-1.09,0.36c-0.98,18.82-2.23,37.61-3.73,56.39c-0.71,8.97-1.37,17.97-2.51,26.9
					c-1.09,8.44-2.51,16.84-3.77,25.26c-2.43,16.21-4.5,32.83-2.13,49.18c0.58,4.01,1.44,7.98,2.63,11.85
					c1.09,3.56,2.38,7.23,4.22,10.49c1.54,2.73,3.78,5.26,6.9,6.11c2.51,0.68,5.51,0.36,7.45-1.48c1.1-1.04,1.62-2.46,1.83-3.93
					c0.31-2.22,0.35-4.51,0.4-6.75c0.11-4.65-0.03-9.3-0.26-13.93c-0.48-9.16-1.38-18.3-1.54-27.49c-0.08-4.5,0.03-9,0.44-13.47
					c1.77-18.71,4.45-37.3,7.54-55.82c3.06-18.3,6.5-36.53,9.81-54.8c1.47-8.09,2.91-16.19,4.28-24.29
					C528.45,407.62,528.09,407.68,527.7,407.72z"/>
			</g>
			<g>
				<path class="st3" d="M567.63,121.33c0.24,6.97-1.17,14.06-3.33,20.61c-2.61,7.88-7.02,14.58-12.53,20.71
					c-1.67,1.85-3.77,3.16-5.95,4.35c-0.91,0.5-1.9,1.13-2.98,1.04c-1.84-0.15-3.73-0.74-5.45-1.4c-3.98-1.54-6.99-4.18-9.97-7.18
					c-2.99-2.99-5.79-6.18-8.77-9.18c-0.24-0.25-0.49-0.49-0.74-0.73c-0.15,0.33-0.31,0.65-0.53,0.95c2.02,1.99,3.93,4.06,5.88,6.13
					c2.89,3.08,5.86,6.5,9.45,8.81c1.72,1.1,3.61,1.95,5.55,2.61c1.52,0.5,3.41,1.15,5.04,1.06c0.98-0.05,1.97-0.64,2.81-1.09
					c1.28-0.69,2.52-1.45,3.72-2.28c2.57-1.75,4.54-4.33,6.45-6.75c2.62-3.3,4.87-6.92,6.64-10.72c3.55-7.68,5.71-16.56,5.79-25.05
					c0-0.36,0-0.74-0.01-1.12C568.31,121.87,567.95,121.62,567.63,121.33z"/>
			</g>
			<g>
				<path class="st3" d="M576.04,105.81c0.21-0.35-0.06-0.75-0.44-0.78c-1.37-0.09-2.27-1.1-3.08-2.09
					c-0.65-0.79-1.28-1.6-1.57-2.56c0.98,0.58,2.13,0.75,3.31,0.54c0.55-0.1,0.41-0.83,0-0.99c-1.7-0.66-2.72-3.35-3.72-4.79
					c-0.98-1.4-2.03-2.74-3.14-4.03c-2.42-2.79-5.15-5.31-8.11-7.52c-2.44-1.82-4.9-3.5-8.01-3.78c-1.32-0.13-2.63,0.03-3.8,0.5
					c-0.33-1.8-1.55-3.19-3.23-4c-2.53-1.22-5.46-0.71-8.14-1.37c-0.38-0.09-0.74,0.25-0.63,0.63c0.24,0.81,0.61,1.53,1.13,2.14
					c-3.68-0.54-7.39-0.2-10.77,1.57c-2.1,1.09-4.02,2.52-5.98,3.87l-6.62,4.57c-7.07,4.89-15.27,9.72-18.79,17.98
					c-1.78,4.18-2.28,8.97-0.56,13.24c0.15,0.38,0.71,0.55,0.94,0.13c0.69-1.33,1.5-2.54,2.44-3.67c-1.32,6.3-1.92,12.84-0.25,19.13
					c0.8,3.01,2.1,5.89,4.03,8.34c2.24,2.87,5.85,5.73,4.9,9.82c-0.09,0.39,0.24,0.73,0.63,0.63c1.72-0.43,3.14-1.33,4.31-2.59
					c0.7,2.53-0.43,5.64-2.92,6.7c-0.05,0.03-0.1,0.04-0.15,0.06c-0.53,0.23-0.14,1.17,0.4,0.94c0.04-0.01,0.08-0.04,0.13-0.06
					c0,0,0,0,0,0.01c2.68-1.15,5.45-2.38,7.48-4.54c1.98-2.09,2.81-4.76,2.91-7.61c0.04-1.04,0-2.09-0.08-3.14
					c-0.29,0.16-0.64,0.26-1.03,0.3c0.01,0.14,0.03,0.28,0.04,0.41c0.2,3.21-0.09,6.5-2.29,9.02c-1.2,1.38-2.72,2.37-4.33,3.19
					c1.2-1.9,1.44-4.42,0.49-6.57c-0.18-0.39-0.69-0.28-0.89,0c-0.93,1.23-2.13,2.12-3.56,2.63c0.26-2.71-1.15-5.11-2.89-7.17
					c-1.22-1.43-2.49-2.77-3.5-4.36c-0.91-1.47-1.64-3.04-2.19-4.69c-2.42-7.18-1.5-14.88,0.16-22.13c0.11-0.49-0.49-0.86-0.86-0.5
					c-1.3,1.29-2.41,2.72-3.33,4.3c-2.38-7.63,2.03-15.4,7.66-20.43c3.14-2.82,6.69-5.14,10.16-7.53c3.85-2.66,7.64-5.4,11.55-7.96
					c2.03-1.33,4.15-2.44,6.55-2.89c2.67-0.5,5.4-0.25,8.03,0.38c0.54,0.13,0.94-0.68,0.4-0.94c-0.95-0.46-1.63-1.17-2.07-2.07
					c3.58,0.51,9.36,0.01,9.75,4.67c0,0.01,0,0.01,0,0.03c-0.69,0.43-1.29,1-1.77,1.75c-0.36,0.56,0.53,1.08,0.89,0.51
					c1.62-2.51,4.9-2.62,7.49-1.85c3.04,0.89,5.79,3.28,8.16,5.3c2.62,2.24,5.02,4.74,7.12,7.48c1,1.32,1.94,2.68,2.81,4.1
					c0.41,0.66,0.79,1.29,1.28,1.82c-0.7-0.15-1.34-0.51-1.87-1.09c-0.31-0.34-0.86-0.06-0.88,0.36c-0.08,1.77,0.94,3.17,2.02,4.49
					c0.79,0.96,1.64,1.8,2.77,2.18c-0.88,0.44-2.14-0.11-2.96-0.5c-0.45-0.21-0.98,0.23-0.7,0.7c2.33,4.08,3.46,8.56,3.78,13.18
					c-1.29-2.14-2.98-3.98-5.04-5.46c-0.43-0.31-0.95,0.29-0.7,0.7c1.32,2.21,1.03,5.25-0.7,7.14c-0.08-0.49-0.24-0.96-0.34-1.33
					c-0.39-1.37-0.99-2.62-1.83-3.77c-0.99-1.37-2.13-2.84-3.53-3.8c-0.78-0.53-1.69-0.7-2.51-1.14c-1.25-0.66-1.95-1.95-2.57-3.17
					c-0.26-0.51-1.12-0.16-0.94,0.4c0.23,0.7-2.13,2.48-2.58,2.87c-1.13,0.99-2.31,1.99-3.58,2.79c-3.83,2.43-8.42,3.01-12.87,3.33
					c0.55-0.74,0.95-1.68,1.19-2.36c0.65-1.88,0.13-3.92-1.03-5.49c0-0.01,0-0.01-0.01-0.03l0,0c-0.03-0.04-0.05-0.08-0.08-0.11
					c-0.39-0.49-1.03,0.14-0.8,0.63c0.04,0.08-1.13,1.4-1.37,1.68c-0.48,0.53-1.01,1-1.44,1.55c-0.68,0.86-0.95,1.92-1.4,2.89
					c-0.6,1.3-1.38,2.52-2.29,3.61c-3.01,3.61-7.64,5.14-10.94,8.34c0.05-0.55,0.1-1.09,0.14-1.64c0.05-0.55-0.7-0.64-0.95-0.26
					c-1.19,1.75-1.67,3.66-1.77,5.66c0.34-0.09,0.7-0.11,1.05-0.08c0.05-0.84,0.16-1.65,0.39-2.46c0,0.08-0.01,0.14-0.01,0.21
					c-0.04,0.43,0.6,0.7,0.88,0.36c1.87-2.26,4.4-3.63,6.84-5.17c2.37-1.49,4.46-3.23,6.08-5.53c1.43-2.03,1.98-4.46,3.68-6.28
					c0.41-0.44,1.25-1.19,1.73-1.97c0.59,1.15,0.75,2.52,0.33,3.76c-0.29,0.83-1.04,2.57-1.99,2.76c-0.56,0.11-0.44,1.05,0.14,1.01
					c5.51-0.36,11.38-0.85,15.97-4.22c1.29-0.95,2.54-1.99,3.71-3.09c0.4-0.38,1.14-0.99,1.62-1.67c0.59,1.01,1.33,1.95,2.38,2.51
					c0.7,0.36,1.49,0.54,2.18,0.94c0.85,0.5,1.53,1.27,2.17,2c1.09,1.27,2.17,2.59,2.74,4.18c0.18,0.49,0.98,2.51,0.6,2.88
					c-0.39,0.4,0.13,1.14,0.63,0.8c2.39-1.62,3.4-4.7,2.74-7.44c1.82,1.64,3.24,3.65,4.26,5.91c0.21,0.48,0.96,0.23,0.95-0.26
					c-0.08-5.15-1.05-10.15-3.37-14.73C573.77,107.16,575.21,107.17,576.04,105.81z"/>
			</g>
			<g>
				<path class="st3" d="M584.24,238.78c0.84,1.52,1.14,3.45,1.43,5.12c0.06,0.38,0.11,0.75,0.16,1.12c0.29-0.3,0.59-0.59,0.93-0.85
					c-0.2-1.32-0.46-2.61-0.84-3.88c-0.41-1.4-1-2.76-2.17-3.7c-1.17-0.94-2.63-1.37-4.03-1.79c-14.57-4.46-27.96-12.42-38.99-22.92
					c-5.05-4.81-9.99-10.22-13.68-16.16c-2.79-4.5-4.31-10.26-8.43-13.82c-2.88-2.48-7.43-2.66-11.04-2.56
					c-4.62,0.14-9.75,1.23-13.14,4.61c-0.61,0.61-1.27,1.33-1.32,2.05c0.05-0.03,0.1-0.05,0.16-0.06c0.34-0.1,0.64-0.16,0.95-0.21
					c0.19-0.46,0.79-0.91,1.15-1.25c3.62-3.42,9.2-4.23,13.98-4.1c2,0.06,4.05,0.26,5.96,0.85c2.09,0.64,3.58,2.22,4.81,3.97
					c1.64,2.37,2.86,5.01,4.16,7.59c1.27,2.52,2.74,4.81,4.42,7.07c8.26,11.08,18.79,20.43,30.78,27.3
					c6.31,3.61,13.02,6.51,19.96,8.64C581.32,236.36,583.23,236.96,584.24,238.78z"/>
				<path class="st3" d="M595.29,379.95c-1.1-3.78-2.13-7.53-2.76-11.43c-0.64-4.01-0.95-8.06-1.14-12.1
					c-0.38-7.89-0.26-15.81-0.99-23.69c-0.35-3.78-0.89-7.57-1.77-11.28c-0.44-1.88-1.09-3.73-1.39-5.65
					c-0.41-2.63,0.31-4.55,1.89-6.6c1.94-2.52,2.63-5.11,1.93-8.26c-0.78-3.47-2.69-6.54-4.01-9.81c-3.61-8.98-2.14-18.53-0.9-28.01
					c-0.13,0.29-0.26,0.58-0.4,0.86c-0.18,0.36-0.45,0.64-0.78,0.85c-0.43,3.38-0.85,6.77-1.04,10.16
					c-0.38,6.63,0.44,12.89,3.24,18.93c1.43,3.08,3.36,6.46,3.16,9.99c-0.21,3.68-3.81,5.64-4.21,9.22
					c-0.39,3.51,1.24,7.1,1.93,10.5c0.81,3.96,1.27,7.99,1.54,12.03c0.53,7.73,0.41,15.49,0.89,23.22c0.23,3.65,0.59,7.28,1.2,10.88
					c0.66,3.88,1.78,7.63,2.87,11.41c1.04,3.63,2,7.42,1.69,11.24c-0.33,3.87-2.15,7.35-4.87,10.07c-9.7,9.75-25.21,7.61-37.44,5.54
					c-6.83-1.15-13.78-2.31-20.72-1.83c-3.3,0.23-6.58,0.83-9.67,2c-3.19,1.22-5.96,3.08-8.66,5.16c-2.87,2.22-5.73,4.37-8.97,6.03
					c-2.82,1.44-5.8,2.54-8.85,3.42c-6.28,1.82-12.78,2.68-19.26,3.55c-6.33,0.84-12.69,1.65-18.87,3.28
					c-6.2,1.63-11.81,4.26-17.16,7.78c-5.34,3.51-10.71,7.76-17.05,9.23c-3.27,0.76-6.59,0.55-9.72-0.66
					c-3.01-1.17-5.69-3.02-8.48-4.6c-2.79-1.57-5.7-2.82-8.92-3.08c-3.71-0.3-7.38,0.55-11.03,1.06
					c-5.74,0.81-14.36,0.35-15.77-6.77c-1.42-7.1,5.21-12.39,10.82-15.06c3.24-1.54,6.64-2.74,9.82-4.41
					c3.04-1.6,5.88-3.58,8.53-5.76c5.73-4.72,10.62-10.37,15.62-15.84c5.61-6.14,11.23-12.28,16.83-18.43
					c11-12.05,22.3-23.89,32.94-36.27c9.46-11.01,17.39-23.44,28.15-33.3c4.52-4.15,10.79-7.66,11.73-14.27
					c0.44-3.03-0.05-6.09-0.08-9.13c-0.01-1.64,0.1-3.31,0.66-4.86c0.61-1.67,1.97-2.76,2.79-4.28c1.6-2.96-0.49-6.1-1.37-8.92
					c-1.19-3.85-1.15-8.02-1.37-12.02c-0.33-6.14-0.64-12.27-0.96-18.4c-0.36-0.33-0.6-0.76-0.73-1.24
					c-0.13-0.11-0.25-0.23-0.38-0.35c0.35,6.67,0.7,13.33,1.04,20c0.2,3.78,0.2,7.68,1.14,11.36c0.43,1.67,1.18,3.19,1.72,4.82
					c0.33,1,0.6,2.09,0.4,3.16c-0.23,1.22-1.09,2.05-1.82,2.99c-4.12,5.29-0.75,12.23-2.36,18.18c-0.91,3.38-3.56,5.84-6.16,8.01
					c-2.74,2.29-5.45,4.57-7.98,7.12c-5.31,5.34-9.96,11.28-14.57,17.21c-4.71,6.08-9.48,12.05-14.62,17.78
					c-5.53,6.18-11.15,12.25-16.75,18.37c-11.34,12.42-22.61,24.88-34.03,37.25c-5.1,5.51-10.45,10.99-16.94,14.85
					c-5.94,3.53-13.32,4.97-18.48,9.79c-3.93,3.66-6.63,10.19-3.31,15.1c3.3,4.85,9.99,5.14,15.24,4.42
					c4.15-0.56,8.38-1.64,12.58-0.94c3.42,0.58,6.44,2.38,9.37,4.12c2.76,1.64,5.58,3.33,8.73,4.07c2.88,0.68,5.88,0.53,8.72-0.25
					c6.26-1.72,11.55-5.89,16.9-9.38c5.64-3.68,11.6-6.26,18.15-7.84c12.94-3.11,26.56-2.94,39.23-7.27c2.96-1,5.83-2.26,8.53-3.83
					c3.16-1.84,5.89-4.25,8.85-6.38c6.11-4.4,13.24-5.83,20.67-5.6c13.53,0.41,26.87,5.53,40.47,2.89
					c6.18-1.2,12.17-4.28,15.81-9.56C598.76,394.15,597.31,386.84,595.29,379.95z"/>
			</g>
			<path class="st3" d="M559.59,128.54c-0.91,0.04-1.82,0.23-2.71,0.45c-0.65,0.15-1.3,0.33-1.88,0.66s-1.06,0.88-1.22,1.53
				c-0.05,0.24-0.06,0.5,0.03,0.73c0.16,0.46,0.6,0.75,1.04,0.95c2.24,1.05,5.01,0.83,7.08-0.54c0.88-0.59,1.82-1.53,1.22-2.64
				C562.53,128.5,560.73,128.49,559.59,128.54z"/>
			<path class="st3" d="M529.13,128.54c0.91,0.04,1.82,0.23,2.71,0.45c0.65,0.15,1.3,0.33,1.88,0.66c0.58,0.34,1.07,0.88,1.22,1.53
				c0.05,0.24,0.06,0.5-0.03,0.73c-0.16,0.46-0.6,0.75-1.04,0.95c-2.24,1.05-5.01,0.83-7.08-0.54c-0.88-0.59-1.82-1.53-1.22-2.64
				C526.2,128.5,528,128.49,529.13,128.54z"/>
			<path class="st3" d="M545.14,142.94c0.13,0.68,0.28,1.37,0.16,2.04c-0.19,1.14-1.01,1.9-1.83,2.46c0.2-0.14-0.08-3.67-0.08-4.12
				c-0.01-1.47,0-2.94,0.04-4.41c0.03-1.44,0.08-2.88,0.15-4.31c0.04-0.9-0.06-2.19,0.38-2.96c0.23,1.78,0.16,3.67,0.34,5.48
				C544.49,139.07,544.78,141.03,545.14,142.94z"/>
			<g>
				<path class="st3" d="M532.65,106.72c-1.52,1.48-2.24,3.42-3.22,5.26c-1.23,2.31-3.16,4.02-5.3,5.49
					c-0.28,0.19-0.01,0.63,0.26,0.44c1.84-1.25,3.67-2.73,4.89-4.64c1.32-2.04,1.95-4.46,3.73-6.19
					C533.25,106.86,532.89,106.5,532.65,106.72L532.65,106.72z"/>
			</g>
			<g>
				<path class="st3" d="M528.86,117.37c-1.8,2.69-4.27,4.79-7.22,6.16c-0.3,0.14-0.04,0.58,0.26,0.44c3.02-1.4,5.54-3.57,7.39-6.34
					C529.49,117.36,529.04,117.1,528.86,117.37L528.86,117.37z"/>
			</g>
			<g>
				<path class="st3" d="M521.41,119.9c-2.27,1.94-4.91,3.27-7.82,3.96c0.1,0.13,0.19,0.25,0.29,0.38c1.15-2.24,1.64-4.65,1.44-7.15
					c-0.03-0.33-0.54-0.33-0.51,0c0.19,2.42-0.26,4.74-1.38,6.9c-0.1,0.2,0.06,0.43,0.29,0.38c2.99-0.7,5.71-2.09,8.04-4.1
					C522.02,120.05,521.66,119.69,521.41,119.9L521.41,119.9z"/>
			</g>
			<g>
				<path class="st3" d="M517.1,118.14c0.01-1.15,0-2.32,0.03-3.47c0.03-1.37,0.46-2.38,1.17-3.53c0.18-0.29-0.28-0.54-0.44-0.26
					c-0.59,0.95-1.09,1.88-1.2,3.01c-0.14,1.4-0.05,2.84-0.05,4.25C516.59,118.48,517.1,118.48,517.1,118.14L517.1,118.14z"/>
			</g>
			<g>
				<path class="st3" d="M515.77,113.45c0.09-1.99,0.94-3.76,2.43-5.07c0.25-0.21-0.11-0.58-0.36-0.36
					c-1.59,1.4-2.49,3.32-2.58,5.44C515.25,113.78,515.76,113.78,515.77,113.45L515.77,113.45z"/>
			</g>
			<g>
				<path class="st3" d="M521.31,112.34c0.75-1.22,1.35-2.52,1.78-3.88c0.1-0.31-0.4-0.45-0.5-0.14c-0.41,1.33-0.99,2.58-1.73,3.76
					C520.7,112.36,521.13,112.61,521.31,112.34L521.31,112.34z"/>
			</g>
			<g>
				<path class="st3" d="M509.98,115.28c-1.19,4.49-4.67,7.94-5.78,12.47c-0.43,1.79-0.45,3.65,0.24,5.36
					c0.9,2.29,2.51,4.41,3.8,6.5c0.18,0.28,0.61,0.03,0.44-0.26c-1.15-1.87-2.46-3.72-3.42-5.69c-1.13-2.28-0.99-4.71-0.16-7.07
					c1.37-3.93,4.31-7.12,5.39-11.19C510.56,115.09,510.07,114.96,509.98,115.28L509.98,115.28z"/>
			</g>
			<g>
				<path class="st3" d="M507.05,130.8c-0.6-3.12,2.38-5.4,3.37-8.11c0.11-0.31-0.39-0.45-0.5-0.14c-1.05,2.87-4.01,5.05-3.37,8.38
					C506.61,131.27,507.11,131.13,507.05,130.8L507.05,130.8z"/>
			</g>
			<g>
				<path class="st3" d="M510.89,146.39c0.14-1.03-0.23-2.02-0.95-2.73c-0.24-0.24-0.6,0.13-0.36,0.36c0.65,0.64,0.91,1.48,0.8,2.37
					C510.33,146.72,510.85,146.72,510.89,146.39L510.89,146.39z"/>
			</g>
			<g>
				<path class="st3" d="M514.33,152.68c0.93-1.19,1.22-2.69,0.74-4.15c-0.1-0.31-0.6-0.18-0.5,0.14c0.41,1.25,0.21,2.59-0.61,3.65
					C513.77,152.57,514.13,152.94,514.33,152.68L514.33,152.68z"/>
			</g>
			<g>
				<path class="st3" d="M506.46,111.17c-0.81,3.31-3.04,6.01-6.15,7.43c0.13,0.1,0.25,0.19,0.38,0.29
					c1.25-4.64-2.04-9.79,0.61-14.12c0.18-0.29-0.28-0.54-0.44-0.26c-2.73,4.42,0.6,9.55-0.68,14.23c-0.06,0.24,0.18,0.38,0.38,0.29
					c3.21-1.48,5.54-4.31,6.38-7.74C507.04,111,506.54,110.86,506.46,111.17L506.46,111.17z"/>
			</g>
			<g>
				<path class="st3" d="M503.98,104.78c-1.18,1.64-1.68,3.6-1.42,5.6c0.04,0.33,0.55,0.33,0.51,0c-0.25-1.93,0.2-3.76,1.34-5.34
					C504.62,104.77,504.18,104.52,503.98,104.78L503.98,104.78z"/>
			</g>
			<g>
				<path class="st3" d="M505.69,107.19c0.76-1.87,2.05-3.42,3.76-4.51c0.28-0.18,0.03-0.63-0.26-0.44c-1.82,1.17-3.18,2.81-4,4.81
					C505.06,107.35,505.56,107.49,505.69,107.19L505.69,107.19z"/>
			</g>
			<g>
				<path class="st3" d="M499.51,127.23c-0.04-0.89-0.08-1.79-0.11-2.68c-0.01-0.33-0.53-0.33-0.51,0c0.04,0.89,0.08,1.79,0.11,2.68
					C499.01,127.57,499.52,127.57,499.51,127.23L499.51,127.23z"/>
			</g>
			<g>
				<path class="st3" d="M503.21,98.25c2.05-2.09,4.4-3.82,7-5.15c0.3-0.15,0.04-0.59-0.26-0.44c-2.66,1.35-5.02,3.11-7.1,5.22
					C502.6,98.13,502.97,98.49,503.21,98.25L503.21,98.25z"/>
			</g>
			<g>
				<path class="st3" d="M510.66,95.16c1.57-0.95,3.13-1.9,4.71-2.86c0.29-0.18,0.03-0.61-0.26-0.44c-1.57,0.95-3.13,1.9-4.71,2.86
					C510.12,94.9,510.38,95.34,510.66,95.16L510.66,95.16z"/>
			</g>
			<g>
				<path class="st3" d="M528.78,93.05c-0.65,3.08-2.76,5.49-5.48,7c-2.52,1.4-6.41,2.92-9.06,1.1c-0.04,0.16-0.09,0.31-0.13,0.48
					c5.81-0.38,4.99-7.92,5.4-11.86c0.04-0.33-0.48-0.33-0.51,0c-0.25,2.34,0.05,4.8-0.56,7.1c-0.55,2.07-2.05,4.1-4.33,4.23
					c-0.26,0.01-0.34,0.34-0.13,0.48c2.72,1.87,6.57,0.48,9.21-0.9c2.98-1.57,5.37-4.16,6.08-7.5
					C529.34,92.87,528.85,92.73,528.78,93.05L528.78,93.05z"/>
			</g>
			<g>
				<path class="st3" d="M521.29,91.4c0.23,1.55-0.15,3.04-1.08,4.31c-0.19,0.26,0.25,0.53,0.44,0.26c1-1.39,1.38-3.02,1.13-4.71
					C521.72,90.94,521.23,91.08,521.29,91.4L521.29,91.4z"/>
			</g>
			<g>
				<path class="st3" d="M523.3,92.88c-0.51,2.08-1.34,4.01-2.49,5.81c-0.18,0.28,0.26,0.54,0.44,0.26
					c1.17-1.84,2.02-3.82,2.54-5.94C523.88,92.69,523.39,92.55,523.3,92.88L523.3,92.88z"/>
			</g>
			<g>
				<path class="st3" d="M520.9,87.23c2.52-1.97,4.7-4.62,8.01-5.16c0.33-0.05,0.19-0.55-0.14-0.5c-3.41,0.55-5.66,3.27-8.24,5.29
					C520.27,87.07,520.65,87.43,520.9,87.23L520.9,87.23z"/>
			</g>
			<g>
				<path class="st3" d="M536.58,83.75c-2.98-0.44-5.94-0.31-8.87,0.41c-0.33,0.08-0.19,0.58,0.14,0.5c2.83-0.7,5.7-0.84,8.59-0.41
					C536.76,84.28,536.91,83.8,536.58,83.75L536.58,83.75z"/>
			</g>
			<g>
				<path class="st3" d="M537.91,80.6c-1.04-0.24-2.08-0.33-3.14-0.26c-0.33,0.03-0.33,0.54,0,0.51c1.01-0.08,2.02,0.01,3.01,0.24
					C538.1,81.18,538.24,80.68,537.91,80.6L537.91,80.6z"/>
			</g>
			<g>
				<path class="st3" d="M534.97,89.11c-1.78,1.4-1.3,4.56-1.43,6.55c-0.2,3.21-1.44,5.99-4.23,7.73c-0.28,0.18-0.03,0.61,0.26,0.44
					c1.98-1.23,3.46-3.09,4.07-5.36c0.38-1.38,0.43-2.81,0.48-4.22c0.06-1.54-0.14-3.72,1.22-4.79
					C535.59,89.27,535.22,88.91,534.97,89.11L534.97,89.11z"/>
			</g>
			<g>
				<path class="st3" d="M531.23,98.77c-0.79,1.53-2.09,2.69-3.71,3.3c-0.31,0.11-0.18,0.61,0.14,0.5c1.75-0.64,3.17-1.87,4.02-3.52
					C531.82,98.74,531.38,98.48,531.23,98.77L531.23,98.77z"/>
			</g>
			<g>
				<path class="st3" d="M563.42,92.75c1.01,0.94,1.94,1.97,2.79,3.06c0.2,0.26,0.56-0.1,0.36-0.36c-0.85-1.09-1.78-2.1-2.79-3.06
					C563.54,92.17,563.18,92.53,563.42,92.75L563.42,92.75z"/>
			</g>
			<g>
				<path class="st3" d="M563.46,96.06c1.9,1.64,3.38,3.63,4.4,5.94c0.14,0.3,0.58,0.04,0.44-0.26c-1.04-2.34-2.54-4.37-4.49-6.04
					C563.57,95.49,563.19,95.85,563.46,96.06L563.46,96.06z"/>
			</g>
			<g>
				<path class="st3" d="M560.59,108.98c0.74,0.79,1.58,1.44,2.51,1.98c0.29,0.16,0.55-0.28,0.26-0.44c-0.9-0.51-1.69-1.15-2.41-1.9
					C560.73,108.38,560.36,108.74,560.59,108.98L560.59,108.98z"/>
			</g>
			<g>
				<path class="st3" d="M565.74,112.64c0.51,0.81,0.9,1.67,1.18,2.59c0.1,0.31,0.59,0.18,0.5-0.14c-0.29-0.96-0.7-1.87-1.24-2.72
					C566.01,112.1,565.56,112.36,565.74,112.64L565.74,112.64z"/>
			</g>
			<g>
				<path class="st3" d="M555.91,102.63c1.73-6.64-4-11.54-9.06-14.58c-0.29-0.18-0.54,0.28-0.26,0.44
					c4.85,2.92,10.5,7.59,8.83,14.01C555.34,102.8,555.83,102.94,555.91,102.63L555.91,102.63z"/>
			</g>
			<g>
				<path class="st3" d="M542.02,88.9c1.37,0.88,2.49,2,3.37,3.37c0.18,0.28,0.63,0.03,0.44-0.26c-0.93-1.44-2.13-2.63-3.56-3.56
					C542.01,88.28,541.74,88.72,542.02,88.9L542.02,88.9z"/>
			</g>
			<g>
				<path class="st3" d="M547.38,94.66c3.56,5.16,2.69,12.04-2.03,16.16c-0.25,0.21,0.11,0.58,0.36,0.36
					c4.89-4.26,5.79-11.45,2.1-16.79C547.63,94.13,547.19,94.38,547.38,94.66L547.38,94.66z"/>
			</g>
			<g>
				<path class="st3" d="M538.6,198.95c-0.9-1.78-2.69-2.57-4.59-2.84c-2.37-0.35-4.8-0.4-7.18-0.58c-0.66-0.05-0.65,0.98,0,1.03
					c1.92,0.14,3.82,0.26,5.74,0.43c1.99,0.16,4.15,0.54,5.14,2.49C538.01,200.05,538.9,199.54,538.6,198.95L538.6,198.95z"/>
			</g>
			<g>
				<path class="st3" d="M575.17,194.65c-4.5,0.36-9,0.73-13.49,1.09c-3.22,0.26-6.67,0.43-7.74,4.06c-0.19,0.64,0.8,0.9,0.99,0.28
					c1.14-3.81,6.14-3.24,9.3-3.51c3.65-0.3,7.29-0.59,10.94-0.89C575.82,195.63,575.84,194.6,575.17,194.65L575.17,194.65z"/>
			</g>
			<g>
				<path class="st3" d="M529.88,165.95c0.26,1.95,0.4,3.92,0.43,5.89c0.01,0.66,1.04,0.66,1.03,0c-0.03-2.07-0.19-4.12-0.46-6.16
					C530.78,165.02,529.79,165.31,529.88,165.95L529.88,165.95z"/>
			</g>
			<g>
				<path class="st3" d="M529.4,175.82c-1.19,2.72-3.16,4.9-5.74,6.35c-0.58,0.33-0.06,1.22,0.51,0.89
					c2.73-1.53,4.86-3.86,6.11-6.73C530.56,175.73,529.67,175.22,529.4,175.82L529.4,175.82z"/>
			</g>
			<g>
				<path class="st3" d="M533.65,172.21c-0.15,2.43-0.7,4.75-1.63,6.99c-0.25,0.61,0.74,0.88,0.99,0.28
					c0.96-2.33,1.5-4.75,1.67-7.25C534.72,171.55,533.69,171.55,533.65,172.21L533.65,172.21z"/>
			</g>
			<g>
				<path class="st3" d="M548.76,211.43c0,2.49,0,4.99,0,7.48c0,0.66,1.03,0.66,1.03,0c0-2.49,0-4.99,0-7.48
					C549.79,210.76,548.76,210.76,548.76,211.43L548.76,211.43z"/>
			</g>
			<g>
				<path class="st3" d="M581.1,230.93c0.15,1.4,0.19,2.79,0.1,4.2c-0.04,0.66,0.99,0.66,1.03,0c0.09-1.4,0.05-2.81-0.1-4.2
					C582.05,230.28,581.02,230.27,581.1,230.93L581.1,230.93z"/>
			</g>
			<g>
				<path class="st3" d="M582.63,227.1c-0.14-2-0.28-4.01-0.41-6.01c-0.05-0.65-1.08-0.66-1.03,0c0.14,2,0.28,4.01,0.41,6.01
					C581.65,227.77,582.68,227.77,582.63,227.1L582.63,227.1z"/>
			</g>
			<g>
				<path class="st3" d="M576.98,225.65c0.05,1.77,0.1,3.52,0.15,5.29c0.01,0.66,1.05,0.66,1.03,0c-0.05-1.77-0.1-3.52-0.15-5.29
					C577.99,224.98,576.96,224.98,576.98,225.65L576.98,225.65z"/>
			</g>
			<g>
				<path class="st3" d="M532.39,218.23c3.7,6.08,7.39,12.15,11.08,18.23c3.28,5.4,6.53,10.86,10.89,15.47
					c0.45,0.48,1.18-0.25,0.73-0.73c-4.42-4.67-7.67-10.24-10.99-15.7c-3.61-5.93-7.22-11.86-10.81-17.79
					C532.92,217.14,532.03,217.67,532.39,218.23L532.39,218.23z"/>
			</g>
			<g>
				<path class="st3" d="M545.9,250.35c1.94,3.21,4.21,6.18,6.8,8.88c0.46,0.48,1.19-0.25,0.73-0.73c-2.53-2.64-4.75-5.54-6.65-8.67
					C546.46,249.26,545.57,249.78,545.9,250.35L545.9,250.35z"/>
			</g>
			<g>
				<path class="st3" d="M540.75,241.26c1.12,1.82,2.23,3.62,3.35,5.44c0.35,0.56,1.24,0.05,0.89-0.51
					c-1.12-1.82-2.23-3.62-3.35-5.44C541.29,240.17,540.4,240.68,540.75,241.26L540.75,241.26z"/>
			</g>
			<g>
				<path class="st3" d="M578.39,295.3c-1.93-0.74-3.68-1.79-5.25-3.14c-0.5-0.43-1.23,0.29-0.73,0.73c1.7,1.47,3.6,2.61,5.7,3.41
					C578.74,296.52,579.01,295.52,578.39,295.3L578.39,295.3z"/>
			</g>
			<g>
				<path class="st3" d="M480.8,354.96c-5.02,6.4-10.44,12.49-16.2,18.22c-0.46,0.46,0.26,1.19,0.73,0.73
					c5.78-5.74,11.18-11.81,16.2-18.22C481.94,355.17,481.22,354.44,480.8,354.96L480.8,354.96z"/>
			</g>
			<g>
				<path class="st3" d="M456.19,380.22c-4.02,3.38-8.47,6.16-13.26,8.33c-0.6,0.28-0.08,1.15,0.51,0.89
					c4.86-2.21,9.37-5.06,13.46-8.49C457.43,380.52,456.69,379.79,456.19,380.22L456.19,380.22z"/>
			</g>
			<g>
				<path class="st3" d="M422.18,396c-6.78,6.97-15.52,11.34-23.82,16.2c-3.36,1.97-7.57,4.06-9.22,7.83
					c-1.58,3.6,0.13,7.57,2.96,9.99c3.95,3.38,9.5,3.51,14.42,3.58c0.66,0.01,0.66-1.01,0-1.03c-4.44-0.06-9.45-0.09-13.16-2.86
					c-3.32-2.47-5.1-6.93-2.54-10.59c2.29-3.27,6.57-5.2,9.94-7.14c3.71-2.13,7.45-4.21,11.06-6.5c3.98-2.53,7.77-5.37,11.08-8.76
					C423.37,396.25,422.65,395.53,422.18,396L422.18,396z"/>
			</g>
			<g>
				<path class="st3" d="M399.43,423.53c13.67,3.6,28.09,3.82,41.87,0.68c0.64-0.15,0.38-1.14-0.28-0.99
					c-13.61,3.11-27.83,2.87-41.32-0.68C399.05,422.36,398.79,423.35,399.43,423.53L399.43,423.53z"/>
			</g>
			<g>
				<path class="st3" d="M426.94,418.09c6.13,1.34,12.45,1.18,18.51-0.48c0.64-0.18,0.36-1.17-0.28-0.99
					c-5.88,1.6-12,1.77-17.97,0.48C426.57,416.96,426.29,417.95,426.94,418.09L426.94,418.09z"/>
			</g>
			<g>
				<path class="st3" d="M414.3,437.81c4.35,1.27,8.98,0.75,12.95-1.42c0.58-0.31,0.06-1.2-0.51-0.89
					c-3.73,2.05-8.07,2.52-12.17,1.32C413.94,436.65,413.66,437.64,414.3,437.81L414.3,437.81z"/>
			</g>
			<g>
				<path class="st3" d="M381.39,433.05c0.94-0.06,1.83,0.34,2.36,1.14c0.36,0.55,1.25,0.04,0.89-0.51
					c-0.73-1.09-1.93-1.73-3.24-1.65C380.74,432.06,380.74,433.09,381.39,433.05L381.39,433.05z"/>
			</g>
			<g>
				<path class="st3" d="M620.8,196.91c-1.13-0.46-3.02-0.99-4.25-0.58c-1.17,0.39-2.39,1.69-3.3,2.51
					c-2.31,2.05-4.27,4.47-5.98,7.04c-3.6,5.42-6.11,11.66-7.04,18.12c-0.19,1.27-0.41,2.62-0.35,3.9c0.09,1.47,0.35,2.68-0.13,4.13
					c-0.79,2.36-2.92,3.92-4.86,5.27c-5.7,3.96-11.4,7.93-17.09,11.9c-5.98,4.17-11.97,8.34-17.94,12.53
					c-3.06,2.14-6.1,4.3-9.15,6.45c-1.62,1.14-3.93,2.59-5.78,1.05c-1.1-0.91-1.43-2.27-1.84-3.56c-0.39-1.18-0.84-2.34-1.27-3.51
					c-4.44-12.35-8.88-24.72-13.32-37.07c-1.94-5.41-3.88-10.81-5.83-16.22c-1.88-5.22-3.58-10.55-6.13-15.5
					c-1.5-2.92-3.31-5.94-5.84-8.11c-1.12-0.95-2.44-1.82-3.92-1.98c-0.36-0.04-0.69,0.01-1.04,0.01c-1.09,0.04-2.26-0.21-3.36-0.24
					c-3.32-0.08-6.92,0.39-9.7,2.36c-4.31,3.06-4.96,8.64-4.35,13.52c0.35,2.82,0.95,5.9,2.18,8.49c1.52,3.21,3.42,6.28,5.11,9.38
					c3.78,6.94,7.58,13.88,11.39,20.82c4.45,8.11,8.9,16.21,13.38,24.31c1.94,3.51,3.88,7,5.84,10.51c1.9,3.42,3.7,6.98,6,10.15
					c2.19,3.01,4.94,5.76,8.47,7.14c3.16,1.24,6.6,1.1,9.82,0.19c4.05-1.15,7.76-3.35,11.21-5.68c4.35-2.93,8.44-6.23,12.48-9.56
					c4.97-4.1,9.89-8.28,14.88-12.34c5.21-4.22,10.7-8.11,15.54-12.77c4.77-4.6,9.37-9.62,13.42-14.87
					c1.94-2.52,2.31-5.22,2.59-8.31c0.35-3.73,0.64-7.45,0.89-11.2c0.24-3.57,0.44-7.13,0.59-10.7c0.08-1.69,0.21-3.41,0.19-5.1
					c-0.01-1.19-0.31-1.92-1.42-2.46c-0.59-0.29-1.12,0.6-0.51,0.89c1.52,0.74,0.83,4,0.76,5.39c-0.08,1.95-0.16,3.91-0.28,5.86
					c-0.19,3.57-0.43,7.13-0.7,10.7c-0.26,3.45-0.28,7.12-1.06,10.49c-0.75,3.26-3.48,5.78-5.6,8.23
					c-4.25,4.95-8.68,9.79-13.66,14.02c-5,4.26-10.34,8.12-15.4,12.32c-8.48,7.02-16.74,14.73-26.22,20.42
					c-6.21,3.73-13.82,6.48-20.31,1.79c-3.57-2.58-5.91-6.41-8.04-10.17c-1.74-3.08-3.46-6.16-5.17-9.26
					c-4.23-7.61-8.43-15.24-12.62-22.87c-6.64-12.09-13.26-24.18-19.85-36.3c-0.24-0.44-0.48-0.88-0.71-1.33
					c-0.18-0.33-0.08-0.1-0.13-0.24c-0.49-1.13-0.83-2.34-1.14-3.52c-1.17-4.36-1.93-9.66,0.2-13.84c1.28-2.51,3.56-4.11,6.24-4.86
					c1.84-0.51,3.77-0.65,5.69-0.6c1.19,0.03,2.41,0.25,3.58,0.21c0.55-0.01,1.5,0.11,2.26,0.5c2.13,1.06,3.75,3.09,5.05,5.02
					c3.61,5.32,5.6,11.48,7.76,17.49c1.68,4.67,3.36,9.35,5.04,14.03c4.52,12.59,9.05,25.2,13.57,37.79
					c0.86,2.39,1.85,4.79,2.57,7.23c0.6,2.03,1.69,4.26,4.05,4.55c2.21,0.28,4.11-1.23,5.79-2.43c3.04-2.15,6.09-4.31,9.15-6.45
					c11.38-7.98,22.78-15.92,34.19-23.84c1.68-1.17,3.41-2.43,4.54-4.18c1.2-1.88,1.23-3.83,1.01-5.98
					c-0.16-1.64,0.2-3.48,0.49-5.09c0.31-1.72,0.73-3.41,1.25-5.07c1-3.22,2.39-6.3,4.08-9.22c1.5-2.59,3.26-5.06,5.32-7.24
					c0.99-1.05,2.05-2.04,3.19-2.93c0.74-0.58,1.34-1.08,2.29-1.15c0.99-0.08,2.03,0.24,2.93,0.6
					C621.14,198.15,621.42,197.16,620.8,196.91z"/>
			</g>
			<g>
				<path class="st3" d="M512.16,404.01c-5.19,2.22-10.35,4.56-15.62,6.55c-5.02,1.9-10.24,3.36-15.65,3.35
					c-0.66,0-0.66,1.03,0,1.03c5.5,0.01,10.81-1.45,15.91-3.38c5.36-2.03,10.6-4.41,15.87-6.65
					C513.29,404.65,512.77,403.76,512.16,404.01L512.16,404.01z"/>
			</g>
			<g>
				<path class="st3" d="M573.19,331.23c-5.35,6.49-10.99,12.75-17.25,18.38c-6.19,5.56-12.99,10.31-20.33,14.23
					c-13.91,7.43-29.02,12.19-43.39,18.62c-8.08,3.62-15.94,7.81-23.02,13.16c-0.53,0.39-0.01,1.29,0.51,0.89
					c12.78-9.67,27.86-15.34,42.62-21.2c14.8-5.88,29.34-12.27,41.62-22.61c7.35-6.2,13.84-13.34,19.96-20.75
					C574.34,331.45,573.62,330.71,573.19,331.23L573.19,331.23z"/>
			</g>
			<g>
				<path class="st3" d="M560.94,331.82c-2.13,3.3-4.71,6.25-7.68,8.81c-0.5,0.43,0.23,1.15,0.73,0.73
					c3.04-2.62,5.68-5.64,7.84-9.02C562.19,331.78,561.3,331.27,560.94,331.82L560.94,331.82z"/>
			</g>
			<g>
				<path class="st3" d="M545.99,344.5c-6,3.87-12.33,7.22-18.91,10.01c-0.6,0.26-0.09,1.14,0.51,0.89
					c6.58-2.79,12.89-6.14,18.91-10.01C547.07,345.03,546.56,344.15,545.99,344.5L545.99,344.5z"/>
			</g>
			<g>
				<path class="st3" d="M524.38,360.19c-9.8,7.04-22.48,7.78-32.66,14.08c-0.56,0.35-0.05,1.24,0.51,0.89
					c10.17-6.31,22.85-7.04,32.66-14.08C525.43,360.7,524.92,359.81,524.38,360.19L524.38,360.19z"/>
			</g>
			<g>
				<path class="st3" d="M510,234.57c1.15,1.77,2.1,3.63,2.86,5.6c0.24,0.61,1.23,0.35,0.99-0.28c-0.78-2.05-1.75-4.01-2.96-5.85
					C510.52,233.5,509.63,234.02,510,234.57L510,234.57z"/>
			</g>
			<g>
				<path class="st3" d="M515.17,246.35c1.97,2.66,3.66,5.46,5.09,8.44c0.29,0.6,1.18,0.08,0.89-0.51c-1.43-2.98-3.12-5.8-5.09-8.44
					C515.67,245.29,514.78,245.81,515.17,246.35L515.17,246.35z"/>
			</g>
			<g>
				<path class="st3" d="M517.64,241.91c1.24,1.29,2.31,2.71,3.19,4.26c0.33,0.58,1.22,0.06,0.89-0.51
					c-0.93-1.63-2.05-3.12-3.36-4.47C517.9,240.71,517.18,241.43,517.64,241.91L517.64,241.91z"/>
			</g>
			<g>
				<path class="st3" d="M520.7,419.97c-0.78,5.5-1.55,11-2.34,16.51c-0.09,0.65,0.9,0.93,0.99,0.28c0.78-5.5,1.55-11,2.33-16.51
					C521.77,419.59,520.78,419.32,520.7,419.97L520.7,419.97z"/>
			</g>
			<g>
				<path class="st3" d="M515,435.05c-0.56,3.56-1.22,7.1-1.98,10.64c-0.14,0.64,0.85,0.91,0.99,0.28
					c0.76-3.52,1.43-7.07,1.98-10.64C516.09,434.68,515.1,434.4,515,435.05L515,435.05z"/>
			</g>
			<g>
				<path class="st3" d="M515.83,443.81c-0.13,2.76-0.45,5.49-0.98,8.19c-0.13,0.65,0.86,0.93,0.99,0.28
					c0.55-2.79,0.89-5.63,1.01-8.47C516.89,443.15,515.86,443.15,515.83,443.81L515.83,443.81z"/>
			</g>
			<g>
				<path class="st3" d="M548.99,541.3c0,2.78,0,5.55,0,8.33c0,0.66,1.03,0.66,1.03,0c0-2.78,0-5.55,0-8.33
					C550.01,540.65,548.99,540.65,548.99,541.3L548.99,541.3z"/>
			</g>
			<g>
				<path class="st3" d="M546.58,550.36c-0.06,2.29-0.13,4.6-0.18,6.89c-0.01,0.66,1.01,0.66,1.03,0c0.06-2.29,0.13-4.6,0.18-6.89
					C547.62,549.69,546.59,549.69,546.58,550.36L546.58,550.36z"/>
			</g>
			<g>
				<path class="st3" d="M548.55,558.68c0.06,2.31,0.01,4.6-0.14,6.89c-0.05,0.66,0.99,0.65,1.03,0c0.15-2.29,0.2-4.59,0.14-6.89
					C549.56,558.01,548.54,558.01,548.55,558.68L548.55,558.68z"/>
			</g>
			<g>
				<path class="st3" d="M518.09,132.72c-1.42-1.64-3.52-3.06-5.59-1.57c-2.14,1.55-2.32,4.9-2,7.29c0.3,2.28,1.45,4.45,3.65,5.4
					c1.63,0.71,4.52,0.7,5.11-1.39c0.18-0.64-0.81-0.91-0.99-0.28c-0.29,1.03-1.75,1.15-2.59,1.04c-0.84-0.11-1.64-0.49-2.28-1.04
					c-1.3-1.12-1.83-2.88-1.94-4.55c-0.11-1.69-0.03-3.93,1.19-5.25c1.64-1.78,3.51-0.36,4.72,1.05
					C517.8,133.95,518.52,133.22,518.09,132.72L518.09,132.72z"/>
			</g>
			<g>
				<path class="st3" d="M527.47,205.86c5.86,5.25,10.89,11.33,15.77,17.47c4.74,5.96,9.28,12.43,14.97,17.53
					c2.86,2.57,6.19,4.66,10.06,5.2c0.65,0.09,0.93-0.9,0.28-0.99c-7.33-1.01-12.39-7.48-16.83-12.8
					c-4.89-5.89-9.45-12.04-14.46-17.82c-2.84-3.28-5.83-6.41-9.06-9.31C527.71,204.7,526.97,205.43,527.47,205.86L527.47,205.86z"
					/>
			</g>
			<g>
				<path class="st3" d="M571.07,239.96c2.91,1.73,6,3.07,9.26,4.02c0.64,0.19,0.9-0.8,0.28-0.99c-3.17-0.93-6.18-2.23-9.01-3.91
					C571.02,238.73,570.51,239.62,571.07,239.96L571.07,239.96z"/>
			</g>
			<g>
				<path class="st3" d="M566.51,235.51c-1.03-0.78-1.97-1.68-2.79-2.67c-0.43-0.5-1.15,0.23-0.73,0.73c0.9,1.05,1.9,1.99,3.01,2.83
					C566.53,236.79,567.04,235.9,566.51,235.51L566.51,235.51z"/>
			</g>
			<g>
				<path class="st3" d="M586.99,310.17c-8.82,3.01-17.06-2.68-22.46-9.21c-0.43-0.51-1.14,0.23-0.73,0.73
					c5.63,6.8,14.32,12.59,23.47,9.47C587.88,310.94,587.61,309.95,586.99,310.17L586.99,310.17z"/>
			</g>
			<g>
				<path class="st3" d="M576.14,303.2c-7.08-2.13-12.34-7.58-17.29-12.79c-0.45-0.48-1.18,0.25-0.73,0.73
					c5.07,5.35,10.47,10.88,17.74,13.06C576.5,304.39,576.78,303.39,576.14,303.2L576.14,303.2z"/>
			</g>
			<g>
				<path class="st3" d="M515.89,288.13c0.33,8.02-5.49,14.37-11.36,19.04c-3.09,2.46-6.36,4.69-9.38,7.23
					c-2.82,2.37-5.31,5.04-7.47,8.02c-4.26,5.86-7.2,12.54-10.31,19.06c-3.24,6.8-6.78,13.37-11.73,19.11
					c-5.9,6.83-13,12.47-20.06,18.05c-0.51,0.41,0.21,1.13,0.73,0.73c6.35-5.04,12.74-10.11,18.28-16.07
					c5.22-5.64,9.16-12.02,12.52-18.89c3.27-6.69,6.16-13.61,10.32-19.81c2.12-3.16,4.59-6.05,7.44-8.58
					c3.08-2.72,6.46-5.04,9.7-7.55c6.34-4.95,12.72-11.69,12.37-20.32C516.87,287.46,515.85,287.46,515.89,288.13L515.89,288.13z"/>
			</g>
			<g>
				<path class="st3" d="M574.52,376.19c-2.15,6.39-10.14,8.12-15.97,9.02c-7.79,1.19-15.7,0.96-23.52,1.83
					c-7.22,0.79-14.03,2.84-20.71,5.66c-7.05,2.98-13.82,6.6-20.91,9.48c-7.92,3.22-16.33,5.58-24.96,4.97
					c-0.66-0.05-0.65,0.98,0,1.03c15.81,1.1,29.88-7.28,43.8-13.48c7.32-3.26,14.78-5.78,22.78-6.65
					c7.92-0.86,15.91-0.65,23.79-1.87c6.28-0.96,14.41-2.94,16.7-9.73C575.72,375.84,574.72,375.58,574.52,376.19L574.52,376.19z"/>
			</g>
			<g>
				<path class="st3" d="M574.08,391.19c-10.1,7.17-23.32,3.45-34.69,5.86c-0.65,0.14-0.38,1.13,0.28,0.99
					c11.5-2.44,24.72,1.29,34.94-5.96C575.13,391.69,574.62,390.8,574.08,391.19L574.08,391.19z"/>
			</g>
			<g>
				<path class="st3" d="M531.1,398.71c-4.05,0.59-7.99,1.64-11.79,3.16c-0.6,0.24-0.34,1.24,0.28,0.99
					c3.8-1.52,7.74-2.58,11.79-3.16C532.02,399.61,531.75,398.62,531.1,398.71L531.1,398.71z"/>
			</g>
		</g>
		<g>
			<g>
				<path class="st3" d="M651.48,244.47c0.61-1.69,1.23-3.37,1.84-5.06c0.19-0.51,1.05-0.48,1.01,0.14
					c-0.14,2.18-0.29,4.35-0.41,6.53c-0.33-0.14-0.66-0.28-1-0.41c0.05-0.86,0.1-1.72,0.16-2.57c-0.28,0.75-0.55,1.5-0.81,2.26
					c-0.09-0.13-0.18-0.25-0.29-0.38C651.81,244.79,651.65,244.63,651.48,244.47z"/>
				<path class="st3" d="M712.15,159.85c0.03,0.44,0.01,0.85,0.03,1.15c0.1,2.49,0.04,5,0.11,7.49c0.06,2.23,0.03,4.75,0.83,6.87
					c1.14,2.97,4.74,5.16,7.57,6.23c0.68,0.25,1.37,0.45,2.05,0.6c-0.45,0.21-0.88,0.45-1.27,0.73c-1.64-0.49-3.22-1.22-4.66-2.17
					c-1.94-1.3-4.08-3.16-4.8-5.48c-0.64-2.07-0.68-4.36-0.74-6.5c-0.08-2.41-0.04-4.82-0.1-7.23c-0.01-0.21-0.01-0.44-0.01-0.66
					C711.51,160.56,711.84,160.21,712.15,159.85z"/>
				<path class="st3" d="M640.77,216.19c0.26-2.19,0.58-4.37,0.95-6.54c0.41-2.37,1.03-4.72,1.28-7.12
					c0.38-3.55,1.37-6.48,3.36-9.42c1.12-1.65,2.61-2.76,4.44-3.56c5.3-2.36,11.44-2.33,17.11-2.18c4.1,0.11,8.03-1.3,11.43-3.55
					c3.24-2.14,6.45-5.19,7.44-9.07c0.84-3.31-0.18-6.63,0.16-9.97c0.05-0.49,0.1-0.99,0.15-1.49c0.3,0.3,0.61,0.6,0.93,0.89
					c-0.18,1.64-0.23,3.28-0.01,4.95c0.45,3.63-0.1,7.25-2.36,10.22c-2,2.66-4.69,4.84-7.6,6.41c-3.12,1.69-6.58,2.71-10.15,2.61
					c-3.5-0.1-7-0.11-10.47,0.4c-3.19,0.48-6.94,1.33-9.31,3.7c-0.38,0.38-0.63,0.78-0.91,1.2c-1.13,1.69-2.04,3.28-2.57,5.27
					c-0.51,1.99-0.54,4.05-0.96,6.05c-0.95,4.41-1.67,8.88-2.12,13.37c-0.43,4.31-0.54,8.63-0.79,12.94
					c-0.1,1.79-0.25,3.57-0.46,5.35c-0.31-0.2-0.63-0.4-0.94-0.6C640.12,229.51,639.98,222.78,640.77,216.19z"/>
				<path class="st3" d="M622.48,235.96c0.85,7.79,1.85,15.64,4.39,23.09c1.29,3.8,3.04,8.07,6.9,9.89
					c3.73,1.75,7.22,0.03,9.35-3.19c1.32-1.98,2.24-4.22,3.07-6.5c0.26,0.25,0.54,0.49,0.81,0.74c-0.63,1.68-1.32,3.33-2.17,4.9
					c-1.47,2.71-3.67,5.29-6.88,5.75c-3.51,0.51-6.77-1.59-8.77-4.32c-2.49-3.4-3.71-7.81-4.74-11.84c-1.1-4.33-1.8-8.77-2.37-13.21
					c-0.3-2.36-0.59-4.7-0.85-7.07C621.6,234.81,622.03,235.37,622.48,235.96z"/>
				<path class="st3" d="M629.26,190.22c-0.08-4.54-0.16-9.06-0.39-13.59c-0.2-4.01-0.39-8.09-1.14-12.04
					c-0.54-2.86-1.52-5.91-3.7-7.94c-0.64-0.59-1.54-1.18-2.52-1.55c-0.03,0.35-0.05,0.69-0.09,1.03c2.83,1.18,4.25,4.37,4.96,7.17
					c0.91,3.6,1.08,7.4,1.32,11.09c0.54,8.46,0.46,16.95,0.73,25.42c0.04,1.2,0.09,2.41,0.14,3.61c0.41,0.56,0.78,1.13,1.12,1.69
					C629.42,200.14,629.35,195.18,629.26,190.22z"/>
			</g>
			<g>
				<path class="st3" d="M699.12,419.18c1.47,0.66,2.91,1.42,4.32,2.19c3.24,1.78,6.4,3.73,9.76,5.27c0.36,0.16,0.73,0.33,1.1,0.48
					c0.09,0.41,0.2,0.83,0.31,1.24c-0.1-0.04-0.21-0.08-0.31-0.13c-5.24-2.15-9.94-5.48-15.05-7.88
					C699.32,420,699.28,419.59,699.12,419.18z"/>
				<path class="st3" d="M648.13,404.01c0.55,1.38,1.25,2.68,2.04,3.85c1.5,2.21,3.45,4.12,5.8,5.39c4.42,2.24,9.21,2.88,14.07,2.99
					c0.01,0.18,0.04,0.36,0.09,0.56c0.04,0.15,0.08,0.31,0.1,0.46c-1.17-0.03-2.33-0.08-3.48-0.16c-3.92-0.33-7.77-1.18-11.29-2.98
					c-4.32-2.32-7.78-7.19-9-12.22C646.94,402.67,647.5,403.37,648.13,404.01z"/>
				<path class="st3" d="M741.68,430.31c1.58,0.43,3.09,1.05,4.55,1.94c2.94,1.82,5.17,4.5,7.53,6.98c2.64,2.79,5.53,5.16,9.26,6.31
					c7.18,2.23,14.93,0.64,22.29,0.51c3.76-0.06,7.44,0.31,11.08,1.3c3.73,1.01,7.33,2.47,10.99,3.73
					c3.65,1.27,7.44,2.42,11.33,2.49c4.27,0.09,7.83-1.53,11.6-3.36c3.58-1.74,7.25-2.72,11.19-3.24c4.15-0.55,8.39-0.71,12.44-1.85
					c3.27-0.91,6.49-2.49,8.9-4.94c0.03-0.03,0.05-0.05,0.08-0.08c0.3-0.11,0.59-0.25,0.86-0.43c0.23-0.09,0.46-0.16,0.69-0.24
					c0.19-0.06,0.36-0.14,0.53-0.24c-3.57,5.2-10.4,7.18-16.36,7.97c-4.44,0.59-8.97,0.79-13.28,2.09
					c-4.11,1.25-7.67,3.88-11.88,4.86c-7.64,1.75-15.18-1.67-22.24-4.16c-3.88-1.37-7.83-2.54-11.97-2.81
					c-3.97-0.26-7.96,0.09-11.93,0.33c-7.25,0.44-14.92,0.46-20.87-4.31c-2.92-2.34-5.16-5.37-7.92-7.89c-2-1.83-4.25-3.07-6.7-3.83
					C741.81,431.06,741.76,430.67,741.68,430.31z"/>
			</g>
			<g>
				<path class="st3" d="M655.72,595.72c0.55-1.95,1.43-3.81,2.48-5.53c4.61-7.52,12.32-12.87,15.13-21.49
					c1.65-5.02,1.83-10.37,1.94-15.61c0.54-24.02-0.45-48.04-1.85-72.02c-1.37-23.19-3.11-46.37-4.21-69.57
					c0.34-0.01,0.69-0.09,1.01-0.23c0.89,18.56,2.17,37.1,3.36,55.63c1.47,23.03,2.76,46.08,2.87,69.16
					c0.03,5.68-0.01,11.35-0.15,17.03c-0.11,5.04-0.29,10.17-1.72,15.03c-1.2,4.11-3.45,7.66-6.13,10.96
					c-2.69,3.31-5.73,6.35-8.21,9.85c-1.19,1.68-2.26,3.47-2.99,5.39c-0.34,0.88-0.61,1.78-0.8,2.69c-0.13,0.58-0.26,1.18-0.21,1.78
					c0.09,1.37,1.12,1.77,2.29,1.79c2.44,0.06,5-0.4,7.39-0.86c2.44-0.48,4.86-1.12,7.23-1.92c4.69-1.59,9.15-3.82,13.22-6.6
					c4.12-2.82,9.3-6.36,9.52-11.83c0.11-2.91-0.53-5.84-0.8-8.73c-1.01-10.77-1.04-21.65-1.01-32.46
					c0.04-13.73,0.4-27.48,0.9-41.21c0.48-13.26,1.08-26.5,1.78-39.73c0.5-9.36,1.03-18.72,1.65-28.06c0.14-2.14,0.28-4.3,0.45-6.44
					c0.36-4.47,0.78-8.93,1.17-13.39l0.14-1.57c0.35-0.04,0.69-0.09,1.04-0.14c-0.5,5.73-1.05,11.45-1.47,17.19
					c-0.58,8.02-1.04,16.05-1.49,24.08c-0.74,13.06-1.38,26.12-1.9,39.19c-0.58,14.35-1.03,28.7-1.19,43.06
					c-0.13,11.89-0.16,23.82,0.66,35.68c0.15,2.19,0.34,4.37,0.6,6.55c0.49,4.15,1.18,8.33-1.58,11.86
					c-2.94,3.77-7.45,6.74-11.56,9.1c-4.3,2.47-8.95,4.36-13.74,5.6c-2.32,0.6-4.69,1.04-7.05,1.34c-1.83,0.23-4.66,0.91-6.26-0.34
					C654.63,599.73,655.27,597.34,655.72,595.72z"/>
			</g>
			<g>
				<path class="st3" d="M711.46,408.84c0.93,5.49,1.89,10.96,2.87,16.44c3.13,17.53,6.46,35.03,9.51,52.57
					c3.04,17.52,5.81,35.08,7.86,52.75c0.5,4.31,0.95,8.62,1.35,12.94c1.6,17.65-1.59,35.24-1.4,52.9c0.03,2.24,0.1,4.49,0.25,6.72
					c0.13,1.97,0.31,4.08,1.94,5.44c2.36,1.95,6.13,1.59,8.56-0.03c3.18-2.12,4.8-5.93,6.15-9.33c1.42-3.56,2.54-7.2,3.4-10.94
					c3.57-15.75,2.22-32.19,0.06-48.02c-1.1-8.11-2.46-16.17-3.66-24.26c-1.18-7.96-2.05-15.92-2.73-23.94
					c-1.55-18.22-2.88-36.45-3.96-54.69c-0.26-4.44-0.53-8.87-0.76-13.31c0.35,0.14,0.71,0.26,1.09,0.36
					c0.98,18.82,2.23,37.61,3.73,56.39c0.71,8.97,1.37,17.97,2.51,26.9c1.09,8.44,2.51,16.84,3.77,25.26
					c2.43,16.21,4.5,32.83,2.13,49.18c-0.58,4.01-1.44,7.98-2.63,11.85c-1.09,3.56-2.38,7.23-4.22,10.49
					c-1.54,2.73-3.78,5.26-6.9,6.11c-2.51,0.68-5.51,0.36-7.45-1.48c-1.1-1.04-1.62-2.46-1.83-3.93c-0.31-2.22-0.35-4.51-0.4-6.75
					c-0.11-4.65,0.03-9.3,0.26-13.93c0.48-9.16,1.38-18.3,1.54-27.49c0.08-4.5-0.03-9-0.44-13.47c-1.77-18.69-4.45-37.3-7.54-55.82
					c-3.06-18.3-6.5-36.53-9.81-54.8c-1.47-8.09-2.91-16.19-4.28-24.29C710.71,408.73,711.07,408.81,711.46,408.84z"/>
			</g>
			<g>
				<path class="st3" d="M671.52,122.45c-0.24,6.97,1.17,14.06,3.33,20.61c2.61,7.88,7.02,14.58,12.53,20.71
					c1.67,1.85,3.77,3.16,5.95,4.35c0.91,0.5,1.9,1.13,2.98,1.04c1.84-0.15,3.73-0.74,5.45-1.4c3.98-1.54,6.99-4.18,9.97-7.18
					c2.99-2.99,5.79-6.18,8.77-9.18c0.24-0.25,0.49-0.49,0.74-0.73c0.15,0.33,0.31,0.65,0.53,0.95c-2.02,1.99-3.93,4.06-5.88,6.13
					c-2.89,3.08-5.86,6.5-9.45,8.81c-1.72,1.1-3.61,1.95-5.55,2.61c-1.52,0.5-3.41,1.15-5.04,1.06c-0.98-0.05-1.97-0.64-2.81-1.09
					c-1.28-0.69-2.52-1.45-3.72-2.28c-2.57-1.75-4.54-4.33-6.45-6.75c-2.62-3.3-4.87-6.92-6.64-10.72
					c-3.55-7.68-5.71-16.56-5.79-25.05c0-0.36,0-0.74,0.01-1.12C670.84,123,671.19,122.74,671.52,122.45z"/>
			</g>
			<g>
				<path class="st3" d="M663.11,106.92c-0.21-0.35,0.06-0.75,0.44-0.78c1.37-0.09,2.27-1.1,3.08-2.09c0.65-0.79,1.28-1.6,1.57-2.56
					c-0.98,0.58-2.13,0.75-3.31,0.54c-0.55-0.1-0.41-0.83,0-0.99c1.7-0.66,2.72-3.35,3.72-4.79c0.98-1.4,2.03-2.74,3.14-4.03
					c2.42-2.79,5.15-5.31,8.11-7.52c2.44-1.82,4.9-3.5,8.01-3.78c1.32-0.13,2.63,0.03,3.8,0.5c0.33-1.8,1.55-3.19,3.23-4
					c2.53-1.22,5.46-0.71,8.14-1.37c0.38-0.09,0.74,0.25,0.63,0.63c-0.24,0.81-0.61,1.53-1.13,2.14c3.68-0.54,7.39-0.19,10.77,1.57
					c2.1,1.09,4.02,2.52,5.98,3.87l6.62,4.57c7.07,4.89,15.27,9.72,18.79,17.98c1.78,4.18,2.28,8.97,0.56,13.24
					c-0.15,0.38-0.71,0.55-0.94,0.13c-0.69-1.33-1.5-2.54-2.44-3.67c1.32,6.3,1.92,12.84,0.25,19.13c-0.8,3.01-2.1,5.89-4.03,8.34
					c-2.24,2.87-5.85,5.73-4.9,9.82c0.09,0.39-0.24,0.73-0.63,0.63c-1.72-0.43-3.14-1.33-4.31-2.59c-0.7,2.53,0.43,5.64,2.92,6.7
					c0.05,0.03,0.1,0.04,0.15,0.06c0.53,0.23,0.14,1.17-0.4,0.94c-0.04-0.01-0.08-0.04-0.13-0.06c0,0,0,0,0,0.01
					c-2.68-1.15-5.45-2.38-7.48-4.54c-1.98-2.09-2.81-4.76-2.91-7.61c-0.04-1.04,0-2.09,0.08-3.14c0.29,0.16,0.64,0.26,1.03,0.3
					c-0.01,0.14-0.03,0.28-0.04,0.41c-0.2,3.21,0.09,6.5,2.29,9.02c1.2,1.38,2.72,2.37,4.34,3.19c-1.2-1.9-1.44-4.42-0.49-6.57
					c0.18-0.39,0.69-0.28,0.89,0c0.93,1.23,2.13,2.12,3.56,2.63c-0.26-2.71,1.15-5.11,2.89-7.17c1.22-1.43,2.49-2.77,3.5-4.36
					c0.91-1.47,1.64-3.04,2.19-4.69c2.42-7.18,1.5-14.88-0.16-22.13c-0.11-0.49,0.49-0.86,0.86-0.5c1.3,1.29,2.41,2.72,3.33,4.3
					c2.38-7.63-2.03-15.4-7.66-20.43c-3.14-2.82-6.69-5.14-10.16-7.53c-3.85-2.66-7.64-5.4-11.55-7.96
					c-2.03-1.33-4.15-2.44-6.55-2.89c-2.67-0.5-5.4-0.25-8.03,0.38c-0.54,0.13-0.94-0.68-0.4-0.94c0.95-0.46,1.63-1.17,2.07-2.07
					c-3.58,0.51-9.36,0.01-9.75,4.67c0,0.01,0,0.01,0,0.03c0.69,0.43,1.29,1,1.77,1.75c0.36,0.56-0.53,1.08-0.89,0.51
					c-1.62-2.51-4.9-2.62-7.49-1.85c-3.04,0.89-5.79,3.28-8.16,5.3c-2.62,2.24-5.02,4.74-7.12,7.48c-1,1.32-1.94,2.68-2.81,4.1
					c-0.41,0.66-0.79,1.29-1.28,1.82c0.7-0.15,1.34-0.51,1.87-1.09c0.31-0.34,0.86-0.06,0.88,0.36c0.08,1.77-0.94,3.17-2.02,4.49
					c-0.79,0.96-1.64,1.8-2.77,2.18c0.88,0.44,2.14-0.11,2.96-0.5c0.45-0.21,0.98,0.23,0.7,0.7c-2.33,4.08-3.46,8.56-3.78,13.18
					c1.29-2.14,2.98-3.98,5.04-5.46c0.43-0.31,0.95,0.29,0.7,0.7c-1.32,2.21-1.03,5.25,0.7,7.14c0.08-0.49,0.24-0.96,0.34-1.33
					c0.39-1.37,0.99-2.62,1.83-3.77c0.99-1.37,2.13-2.84,3.53-3.8c0.78-0.53,1.69-0.7,2.51-1.14c1.25-0.66,1.95-1.95,2.57-3.17
					c0.26-0.51,1.12-0.16,0.94,0.4c-0.23,0.7,2.13,2.48,2.58,2.87c1.13,0.99,2.31,1.99,3.58,2.79c3.83,2.43,8.42,3.01,12.87,3.33
					c-0.55-0.74-0.95-1.68-1.19-2.36c-0.65-1.88-0.13-3.92,1.03-5.49c0-0.01,0-0.01,0.01-0.03l0,0c0.03-0.04,0.05-0.08,0.08-0.11
					c0.39-0.49,1.03,0.14,0.8,0.63c-0.04,0.08,1.13,1.4,1.37,1.68c0.48,0.53,1.01,1,1.44,1.55c0.68,0.86,0.95,1.92,1.4,2.89
					c0.6,1.3,1.38,2.52,2.29,3.61c3.01,3.61,7.64,5.14,10.94,8.34c-0.05-0.55-0.1-1.09-0.14-1.64c-0.05-0.55,0.7-0.64,0.95-0.26
					c1.19,1.75,1.67,3.66,1.77,5.66c-0.34-0.09-0.7-0.11-1.05-0.08c-0.05-0.84-0.16-1.65-0.39-2.47c0,0.08,0.01,0.14,0.01,0.21
					c0.04,0.43-0.6,0.7-0.88,0.36c-1.87-2.26-4.4-3.63-6.84-5.17c-2.37-1.49-4.46-3.23-6.08-5.53c-1.43-2.03-1.98-4.46-3.68-6.28
					c-0.41-0.44-1.25-1.19-1.73-1.97c-0.59,1.15-0.75,2.52-0.33,3.76c0.29,0.83,1.04,2.57,1.99,2.77c0.56,0.11,0.44,1.05-0.14,1.01
					c-5.51-0.36-11.38-0.85-15.97-4.22c-1.29-0.95-2.54-1.99-3.71-3.09c-0.4-0.38-1.14-0.99-1.62-1.67
					c-0.59,1.01-1.33,1.95-2.38,2.51c-0.7,0.36-1.49,0.54-2.18,0.94c-0.85,0.5-1.53,1.27-2.17,2c-1.09,1.27-2.17,2.59-2.74,4.18
					c-0.18,0.49-0.98,2.51-0.6,2.88c0.39,0.4-0.13,1.14-0.63,0.8c-2.39-1.62-3.4-4.7-2.74-7.44c-1.82,1.64-3.24,3.65-4.26,5.91
					c-0.21,0.48-0.96,0.23-0.95-0.26c0.08-5.15,1.05-10.15,3.37-14.73C665.38,108.29,663.95,108.3,663.11,106.92z"/>
			</g>
			<g>
				<path class="st3" d="M654.91,239.91c-0.84,1.52-1.14,3.45-1.43,5.12c-0.06,0.38-0.11,0.74-0.16,1.12
					c-0.29-0.3-0.59-0.59-0.93-0.85c0.2-1.32,0.46-2.61,0.84-3.88c0.41-1.4,1-2.76,2.17-3.7c1.17-0.94,2.63-1.37,4.03-1.79
					c14.57-4.46,27.96-12.42,38.99-22.92c5.05-4.81,9.99-10.22,13.68-16.16c2.79-4.5,4.31-10.26,8.43-13.82
					c2.88-2.48,7.43-2.66,11.04-2.56c4.62,0.14,9.75,1.23,13.14,4.61c0.61,0.61,1.27,1.33,1.32,2.05c-0.05-0.03-0.1-0.05-0.16-0.06
					c-0.34-0.1-0.64-0.16-0.95-0.21c-0.19-0.46-0.8-0.91-1.15-1.25c-3.62-3.42-9.2-4.23-13.98-4.1c-2,0.06-4.05,0.26-5.96,0.85
					c-2.09,0.64-3.58,2.22-4.81,3.97c-1.64,2.37-2.86,5.01-4.16,7.59c-1.27,2.52-2.74,4.81-4.42,7.07
					c-8.26,11.08-18.79,20.43-30.78,27.3c-6.31,3.61-13.02,6.51-19.96,8.64C657.84,237.49,655.92,238.08,654.91,239.91z"/>
				<path class="st3" d="M643.87,381.08c1.1-3.78,2.13-7.53,2.76-11.43c0.64-4.01,0.95-8.06,1.14-12.1
					c0.38-7.89,0.26-15.81,0.99-23.69c0.35-3.78,0.89-7.57,1.77-11.28c0.44-1.88,1.09-3.73,1.39-5.65c0.41-2.63-0.31-4.55-1.89-6.6
					c-1.94-2.52-2.63-5.11-1.93-8.26c0.78-3.47,2.69-6.54,4.01-9.81c3.61-8.98,2.14-18.53,0.9-28.01c0.13,0.29,0.26,0.58,0.4,0.86
					c0.18,0.36,0.45,0.64,0.78,0.85c0.43,3.38,0.85,6.77,1.04,10.16c0.38,6.63-0.44,12.89-3.24,18.93
					c-1.43,3.08-3.36,6.46-3.16,9.99c0.21,3.68,3.81,5.64,4.21,9.22c0.39,3.51-1.24,7.1-1.93,10.5c-0.81,3.96-1.27,7.99-1.54,12.03
					c-0.53,7.73-0.41,15.49-0.89,23.22c-0.23,3.65-0.59,7.28-1.2,10.88c-0.66,3.88-1.78,7.63-2.87,11.41
					c-1.04,3.63-2,7.42-1.69,11.24c0.33,3.87,2.15,7.35,4.87,10.07c9.7,9.75,25.21,7.61,37.44,5.54c6.83-1.15,13.78-2.31,20.72-1.83
					c3.3,0.23,6.58,0.83,9.67,2c3.19,1.22,5.96,3.08,8.66,5.16c2.87,2.22,5.73,4.37,8.97,6.03c2.82,1.44,5.8,2.54,8.85,3.42
					c6.28,1.82,12.78,2.68,19.26,3.55c6.33,0.84,12.69,1.65,18.87,3.28c6.2,1.63,11.81,4.26,17.16,7.78
					c5.34,3.51,10.7,7.76,17.05,9.23c3.27,0.76,6.59,0.55,9.72-0.66c3.01-1.17,5.69-3.02,8.48-4.6c2.79-1.57,5.7-2.82,8.92-3.08
					c3.71-0.3,7.38,0.55,11.03,1.06c5.74,0.81,14.36,0.35,15.77-6.77c1.42-7.1-5.21-12.39-10.82-15.06
					c-3.24-1.54-6.64-2.74-9.82-4.41c-3.04-1.6-5.88-3.58-8.53-5.76c-5.73-4.72-10.62-10.37-15.62-15.84
					c-5.61-6.14-11.23-12.28-16.83-18.43c-11-12.05-22.3-23.89-32.94-36.27c-9.46-11.01-17.39-23.44-28.15-33.3
					c-4.52-4.15-10.79-7.66-11.73-14.27c-0.44-3.03,0.05-6.09,0.08-9.13c0.01-1.64-0.1-3.31-0.66-4.86
					c-0.61-1.67-1.97-2.76-2.79-4.28c-1.6-2.96,0.49-6.1,1.37-8.92c1.19-3.85,1.15-8.02,1.37-12.02c0.33-6.14,0.64-12.27,0.96-18.4
					c0.36-0.33,0.6-0.76,0.73-1.24c0.13-0.11,0.25-0.23,0.38-0.35c-0.35,6.67-0.7,13.33-1.04,20c-0.2,3.78-0.2,7.68-1.14,11.36
					c-0.43,1.67-1.18,3.19-1.72,4.82c-0.33,1-0.6,2.09-0.4,3.16c0.23,1.22,1.09,2.05,1.82,2.99c4.12,5.29,0.75,12.23,2.36,18.18
					c0.91,3.38,3.56,5.84,6.16,8.01c2.74,2.29,5.45,4.57,7.98,7.12c5.31,5.34,9.96,11.28,14.57,17.21
					c4.71,6.08,9.48,12.05,14.62,17.78c5.53,6.18,11.15,12.25,16.75,18.37c11.34,12.42,22.63,24.89,34.03,37.25
					c5.1,5.51,10.45,10.99,16.94,14.85c5.94,3.53,13.32,4.97,18.48,9.79c3.93,3.66,6.63,10.19,3.31,15.1
					c-3.3,4.85-9.99,5.14-15.24,4.42c-4.15-0.56-8.38-1.64-12.58-0.94c-3.42,0.58-6.44,2.38-9.37,4.12
					c-2.76,1.64-5.58,3.33-8.73,4.07c-2.88,0.68-5.88,0.53-8.72-0.25c-6.26-1.72-11.55-5.89-16.9-9.38
					c-5.64-3.68-11.6-6.26-18.15-7.84c-12.94-3.11-26.56-2.94-39.23-7.27c-2.96-1-5.83-2.26-8.53-3.83
					c-3.16-1.84-5.89-4.25-8.85-6.38c-6.11-4.4-13.24-5.83-20.67-5.6c-13.53,0.41-26.87,5.53-40.47,2.89
					c-6.18-1.2-12.17-4.28-15.81-9.56C640.4,395.28,641.85,387.97,643.87,381.08z"/>
			</g>
			<path class="st3" d="M679.56,129.65c0.91,0.04,1.82,0.24,2.71,0.45c0.65,0.15,1.3,0.33,1.88,0.66c0.58,0.34,1.06,0.88,1.22,1.53
				c0.05,0.24,0.06,0.5-0.03,0.73c-0.16,0.46-0.6,0.74-1.04,0.95c-2.24,1.05-5.01,0.83-7.08-0.54c-0.88-0.59-1.82-1.53-1.22-2.64
				C676.63,129.63,678.43,129.6,679.56,129.65z"/>
			<path class="st3" d="M710.02,129.65c-0.91,0.04-1.82,0.24-2.71,0.45c-0.65,0.15-1.3,0.33-1.88,0.66
				c-0.58,0.34-1.06,0.88-1.22,1.53c-0.05,0.24-0.06,0.5,0.03,0.73c0.16,0.46,0.6,0.74,1.04,0.95c2.24,1.05,5.01,0.83,7.08-0.54
				c0.88-0.59,1.82-1.53,1.22-2.64C712.96,129.63,711.16,129.6,710.02,129.65z"/>
			<path class="st3" d="M694.02,144.06c-0.13,0.68-0.28,1.37-0.16,2.04c0.19,1.14,1.01,1.9,1.83,2.46c-0.2-0.14,0.08-3.67,0.08-4.12
				c0.01-1.47,0-2.94-0.04-4.41c-0.03-1.44-0.08-2.88-0.15-4.31c-0.04-0.9,0.06-2.19-0.38-2.96c-0.23,1.78-0.16,3.67-0.34,5.48
				C694.67,140.2,694.38,142.14,694.02,144.06z"/>
			<g>
				<path class="st3" d="M706.5,107.85c1.52,1.48,2.24,3.42,3.22,5.26c1.23,2.31,3.16,4.02,5.3,5.49c0.28,0.19,0.01,0.63-0.26,0.44
					c-1.84-1.25-3.67-2.73-4.89-4.64c-1.32-2.04-1.95-4.46-3.73-6.19C705.9,107.99,706.26,107.63,706.5,107.85L706.5,107.85z"/>
			</g>
			<g>
				<path class="st3" d="M710.3,118.5c1.8,2.69,4.27,4.79,7.22,6.15c0.3,0.14,0.04,0.58-0.26,0.44c-3.02-1.4-5.54-3.57-7.39-6.34
					C709.67,118.49,710.11,118.23,710.3,118.5L710.3,118.5z"/>
			</g>
			<g>
				<path class="st3" d="M717.75,121.03c2.27,1.94,4.91,3.27,7.82,3.96c-0.1,0.13-0.19,0.25-0.29,0.38
					c-1.15-2.24-1.64-4.65-1.44-7.15c0.03-0.33,0.54-0.33,0.51,0c-0.19,2.42,0.26,4.74,1.38,6.9c0.1,0.2-0.06,0.43-0.29,0.38
					c-2.99-0.7-5.71-2.09-8.04-4.1C717.14,121.18,717.5,120.82,717.75,121.03L717.75,121.03z"/>
			</g>
			<g>
				<path class="st3" d="M722.06,119.27c-0.01-1.15,0-2.32-0.03-3.47c-0.03-1.37-0.46-2.38-1.17-3.53
					c-0.18-0.29,0.28-0.54,0.44-0.26c0.59,0.95,1.09,1.88,1.2,3.01c0.14,1.4,0.05,2.84,0.05,4.25
					C722.57,119.59,722.06,119.59,722.06,119.27L722.06,119.27z"/>
			</g>
			<g>
				<path class="st3" d="M723.39,114.57c-0.09-1.99-0.94-3.76-2.43-5.07c-0.25-0.21,0.11-0.58,0.36-0.36
					c1.59,1.4,2.49,3.32,2.58,5.44C723.91,114.91,723.4,114.91,723.39,114.57L723.39,114.57z"/>
			</g>
			<g>
				<path class="st3" d="M717.85,113.46c-0.75-1.22-1.35-2.52-1.78-3.88c-0.1-0.31,0.4-0.45,0.5-0.14c0.41,1.33,0.99,2.58,1.73,3.76
					C718.46,113.48,718.03,113.74,717.85,113.46L717.85,113.46z"/>
			</g>
			<g>
				<path class="st3" d="M729.18,116.4c1.19,4.49,4.67,7.94,5.78,12.47c0.43,1.79,0.45,3.65-0.24,5.36c-0.9,2.29-2.49,4.41-3.8,6.5
					c-0.18,0.28-0.61,0.03-0.44-0.26c1.15-1.87,2.46-3.72,3.42-5.69c1.13-2.28,0.99-4.71,0.16-7.07c-1.37-3.93-4.31-7.12-5.39-11.19
					C728.6,116.22,729.09,116.08,729.18,116.4L729.18,116.4z"/>
			</g>
			<g>
				<path class="st3" d="M732.11,131.93c0.6-3.12-2.38-5.4-3.37-8.11c-0.11-0.31,0.39-0.45,0.5-0.14c1.05,2.87,4.01,5.05,3.37,8.38
					C732.53,132.38,732.05,132.26,732.11,131.93L732.11,131.93z"/>
			</g>
			<g>
				<path class="st3" d="M728.26,147.52c-0.14-1.03,0.23-2.02,0.95-2.73c0.24-0.24,0.6,0.13,0.36,0.36
					c-0.65,0.64-0.91,1.48-0.8,2.37C728.83,147.84,728.31,147.84,728.26,147.52L728.26,147.52z"/>
			</g>
			<g>
				<path class="st3" d="M724.82,153.81c-0.93-1.19-1.22-2.69-0.74-4.15c0.1-0.31,0.6-0.18,0.5,0.14c-0.41,1.25-0.21,2.59,0.61,3.65
					C725.38,153.69,725.03,154.06,724.82,153.81L724.82,153.81z"/>
			</g>
			<g>
				<path class="st3" d="M732.7,112.3c0.81,3.31,3.04,6.01,6.15,7.43c-0.13,0.1-0.25,0.19-0.38,0.29
					c-1.25-4.64,2.04-9.79-0.61-14.12c-0.18-0.29,0.28-0.54,0.44-0.26c2.73,4.42-0.6,9.55,0.68,14.23c0.06,0.24-0.18,0.38-0.38,0.29
					c-3.21-1.48-5.54-4.31-6.38-7.74C732.12,112.11,732.61,111.97,732.7,112.3L732.7,112.3z"/>
			</g>
			<g>
				<path class="st3" d="M735.16,105.91c1.18,1.64,1.68,3.6,1.42,5.6c-0.04,0.33-0.55,0.33-0.51,0c0.25-1.93-0.2-3.76-1.34-5.34
					C734.54,105.9,734.98,105.63,735.16,105.91L735.16,105.91z"/>
			</g>
			<g>
				<path class="st3" d="M733.47,108.3c-0.76-1.87-2.05-3.42-3.76-4.51c-0.28-0.18-0.03-0.63,0.26-0.44c1.82,1.17,3.18,2.81,4,4.81
					C734.09,108.48,733.6,108.6,733.47,108.3L733.47,108.3z"/>
			</g>
			<g>
				<path class="st3" d="M739.65,128.36c0.04-0.89,0.08-1.79,0.11-2.68c0.01-0.33,0.53-0.33,0.51,0c-0.04,0.89-0.08,1.79-0.11,2.68
					C740.15,128.69,739.63,128.69,739.65,128.36L739.65,128.36z"/>
			</g>
			<g>
				<path class="st3" d="M735.95,99.38c-2.05-2.09-4.4-3.82-7-5.15c-0.3-0.15-0.04-0.59,0.26-0.44c2.66,1.35,5.02,3.11,7.1,5.22
					C736.54,99.24,736.18,99.62,735.95,99.38L735.95,99.38z"/>
			</g>
			<g>
				<path class="st3" d="M728.5,96.29c-1.57-0.95-3.13-1.9-4.71-2.86c-0.29-0.18-0.03-0.61,0.26-0.44c1.57,0.95,3.13,1.9,4.71,2.86
					C729.04,96.01,728.78,96.46,728.5,96.29L728.5,96.29z"/>
			</g>
			<g>
				<path class="st3" d="M710.38,94.18c0.65,3.08,2.76,5.49,5.48,7c2.52,1.4,6.41,2.92,9.06,1.1c0.04,0.16,0.09,0.31,0.13,0.48
					c-5.81-0.38-4.99-7.92-5.4-11.86c-0.04-0.33,0.48-0.33,0.51,0c0.25,2.34-0.05,4.8,0.56,7.1c0.55,2.07,2.05,4.1,4.33,4.23
					c0.26,0.01,0.34,0.34,0.13,0.48c-2.72,1.87-6.57,0.48-9.21-0.9c-2.98-1.57-5.37-4.16-6.08-7.5
					C709.82,93.99,710.31,93.86,710.38,94.18L710.38,94.18z"/>
			</g>
			<g>
				<path class="st3" d="M717.88,92.52c-0.23,1.55,0.15,3.04,1.08,4.31c0.19,0.26-0.25,0.53-0.44,0.26c-1-1.39-1.38-3.02-1.13-4.71
					C717.44,92.05,717.93,92.2,717.88,92.52L717.88,92.52z"/>
			</g>
			<g>
				<path class="st3" d="M715.85,94.01c0.51,2.08,1.34,4.01,2.49,5.83c0.18,0.28-0.26,0.54-0.44,0.26
					c-1.17-1.84-2.02-3.82-2.54-5.94C715.27,93.82,715.77,93.68,715.85,94.01L715.85,94.01z"/>
			</g>
			<g>
				<path class="st3" d="M718.26,88.36c-2.52-1.97-4.7-4.62-8.01-5.16c-0.33-0.05-0.19-0.55,0.14-0.5c3.41,0.55,5.66,3.27,8.24,5.29
					C718.88,88.19,718.51,88.56,718.26,88.36L718.26,88.36z"/>
			</g>
			<g>
				<path class="st3" d="M702.58,84.86c2.98-0.44,5.94-0.31,8.87,0.41c0.33,0.08,0.19,0.58-0.14,0.5c-2.83-0.7-5.7-0.84-8.59-0.41
					C702.39,85.41,702.25,84.91,702.58,84.86L702.58,84.86z"/>
			</g>
			<g>
				<path class="st3" d="M701.24,81.73c1.04-0.24,2.08-0.33,3.14-0.26c0.33,0.03,0.33,0.54,0,0.51c-1.01-0.08-2.02,0.01-3.01,0.24
					C701.06,82.29,700.92,81.8,701.24,81.73L701.24,81.73z"/>
			</g>
			<g>
				<path class="st3" d="M704.19,90.22c1.78,1.4,1.3,4.56,1.43,6.55c0.2,3.21,1.44,5.99,4.23,7.73c0.28,0.18,0.03,0.61-0.26,0.44
					c-1.98-1.23-3.46-3.09-4.07-5.36c-0.38-1.38-0.43-2.81-0.48-4.22c-0.06-1.54,0.14-3.72-1.22-4.79
					C703.57,90.39,703.93,90.02,704.19,90.22L704.19,90.22z"/>
			</g>
			<g>
				<path class="st3" d="M707.93,99.9c0.79,1.53,2.09,2.69,3.71,3.3c0.31,0.11,0.18,0.61-0.14,0.5c-1.75-0.64-3.16-1.87-4.02-3.52
					C707.34,99.86,707.78,99.61,707.93,99.9L707.93,99.9z"/>
			</g>
			<g>
				<path class="st3" d="M675.74,93.88c-1.01,0.94-1.94,1.97-2.79,3.06c-0.2,0.26-0.56-0.1-0.36-0.36c0.85-1.09,1.78-2.1,2.79-3.06
					C675.62,93.29,675.98,93.66,675.74,93.88L675.74,93.88z"/>
			</g>
			<g>
				<path class="st3" d="M675.7,97.19c-1.9,1.64-3.38,3.63-4.4,5.94c-0.14,0.3-0.58,0.04-0.44-0.26c1.04-2.34,2.54-4.37,4.49-6.04
					C675.59,96.61,675.95,96.98,675.7,97.19L675.7,97.19z"/>
			</g>
			<g>
				<path class="st3" d="M678.56,110.11c-0.74,0.79-1.58,1.44-2.51,1.98c-0.29,0.16-0.55-0.28-0.26-0.44
					c0.9-0.51,1.69-1.15,2.41-1.9C678.43,109.51,678.79,109.87,678.56,110.11L678.56,110.11z"/>
			</g>
			<g>
				<path class="st3" d="M673.41,113.77c-0.51,0.81-0.9,1.67-1.18,2.59c-0.1,0.31-0.59,0.18-0.5-0.14c0.29-0.96,0.7-1.87,1.24-2.72
					C673.15,113.23,673.6,113.49,673.41,113.77L673.41,113.77z"/>
			</g>
			<g>
				<path class="st3" d="M683.25,103.74c-1.73-6.64,4-11.54,9.06-14.58c0.29-0.18,0.54,0.28,0.26,0.44
					c-4.85,2.92-10.5,7.59-8.83,14.01C683.82,103.93,683.32,104.07,683.25,103.74L683.25,103.74z"/>
			</g>
			<g>
				<path class="st3" d="M697.13,90.02c-1.37,0.88-2.49,2-3.37,3.37c-0.18,0.28-0.63,0.03-0.44-0.26c0.93-1.44,2.13-2.63,3.56-3.56
					C697.15,89.4,697.42,89.85,697.13,90.02L697.13,90.02z"/>
			</g>
			<g>
				<path class="st3" d="M691.78,95.79c-3.56,5.16-2.69,12.04,2.03,16.16c0.25,0.21-0.11,0.58-0.36,0.36
					c-4.89-4.26-5.79-11.45-2.1-16.79C691.53,95.26,691.97,95.51,691.78,95.79L691.78,95.79z"/>
			</g>
			<g>
				<path class="st3" d="M700.56,200.06c0.9-1.78,2.69-2.57,4.59-2.84c2.37-0.35,4.8-0.4,7.18-0.58c0.66-0.05,0.65,0.98,0,1.03
					c-1.92,0.14-3.82,0.26-5.74,0.43c-1.99,0.16-4.15,0.54-5.14,2.49C701.15,201.18,700.26,200.65,700.56,200.06L700.56,200.06z"/>
			</g>
			<g>
				<path class="st3" d="M663.99,195.78c4.5,0.36,9,0.73,13.49,1.09c3.22,0.26,6.67,0.43,7.74,4.05c0.19,0.64-0.8,0.9-0.99,0.28
					c-1.14-3.81-6.14-3.24-9.3-3.51c-3.65-0.3-7.29-0.59-10.94-0.89C663.32,196.76,663.32,195.73,663.99,195.78L663.99,195.78z"/>
			</g>
			<g>
				<path class="st3" d="M709.28,167.08c-0.26,1.95-0.4,3.92-0.43,5.89c-0.01,0.66-1.04,0.66-1.03,0c0.03-2.07,0.19-4.12,0.46-6.16
					C708.38,166.15,709.37,166.42,709.28,167.08L709.28,167.08z"/>
			</g>
			<g>
				<path class="st3" d="M709.76,176.95c1.19,2.72,3.16,4.9,5.74,6.35c0.58,0.33,0.06,1.22-0.51,0.89
					c-2.73-1.53-4.86-3.86-6.11-6.73C708.6,176.86,709.48,176.33,709.76,176.95L709.76,176.95z"/>
			</g>
			<g>
				<path class="st3" d="M705.51,173.33c0.15,2.43,0.7,4.75,1.63,6.99c0.25,0.61-0.74,0.88-0.99,0.28c-0.96-2.33-1.5-4.75-1.67-7.25
					C704.44,172.68,705.47,172.68,705.51,173.33L705.51,173.33z"/>
			</g>
			<g>
				<path class="st3" d="M690.4,212.54c0,2.49,0,4.99,0,7.48c0,0.66-1.03,0.66-1.03,0c0-2.49,0-4.99,0-7.48
					C689.37,211.88,690.4,211.88,690.4,212.54L690.4,212.54z"/>
			</g>
			<g>
				<path class="st3" d="M658.06,232.05c-0.15,1.4-0.19,2.79-0.1,4.2c0.04,0.66-0.99,0.66-1.03,0c-0.09-1.4-0.05-2.81,0.1-4.2
					C657.1,231.4,658.12,231.4,658.06,232.05L658.06,232.05z"/>
			</g>
			<g>
				<path class="st3" d="M656.53,228.23c0.14-2,0.28-4.01,0.41-6.01c0.05-0.65,1.08-0.66,1.03,0c-0.14,2-0.28,4.01-0.41,6.01
					C657.51,228.88,656.48,228.89,656.53,228.23L656.53,228.23z"/>
			</g>
			<g>
				<path class="st3" d="M662.17,226.78c-0.05,1.77-0.1,3.52-0.15,5.29c-0.01,0.66-1.05,0.66-1.03,0c0.05-1.77,0.1-3.52,0.15-5.29
					C661.17,226.11,662.2,226.11,662.17,226.78L662.17,226.78z"/>
			</g>
			<g>
				<path class="st3" d="M706.77,219.36c-3.7,6.08-7.39,12.15-11.08,18.23c-3.28,5.4-6.53,10.86-10.89,15.47
					c-0.45,0.48-1.18-0.25-0.73-0.73c4.42-4.67,7.67-10.24,10.99-15.7c3.61-5.93,7.22-11.86,10.81-17.79
					C706.24,218.27,707.11,218.78,706.77,219.36L706.77,219.36z"/>
			</g>
			<g>
				<path class="st3" d="M693.26,251.47c-1.94,3.21-4.21,6.18-6.8,8.88c-0.46,0.48-1.19-0.25-0.73-0.73
					c2.53-2.64,4.75-5.54,6.65-8.67C692.7,250.39,693.59,250.91,693.26,251.47L693.26,251.47z"/>
			</g>
			<g>
				<path class="st3" d="M698.41,242.37c-1.12,1.82-2.23,3.62-3.35,5.44c-0.35,0.56-1.24,0.05-0.89-0.51
					c1.12-1.82,2.23-3.62,3.35-5.44C697.85,241.3,698.74,241.81,698.41,242.37L698.41,242.37z"/>
			</g>
			<g>
				<path class="st3" d="M660.76,296.41c1.93-0.74,3.68-1.79,5.25-3.14c0.5-0.43,1.23,0.29,0.73,0.73c-1.7,1.47-3.6,2.61-5.7,3.41
					C660.42,297.64,660.15,296.65,660.76,296.41L660.76,296.41z"/>
			</g>
			<g>
				<path class="st3" d="M758.34,356.09c5.02,6.4,10.44,12.49,16.2,18.22c0.46,0.46-0.26,1.19-0.73,0.73
					c-5.78-5.74-11.18-11.81-16.2-18.22C757.22,356.3,757.94,355.56,758.34,356.09L758.34,356.09z"/>
			</g>
			<g>
				<path class="st3" d="M782.97,381.33c4.02,3.38,8.47,6.16,13.26,8.33c0.6,0.28,0.08,1.15-0.51,0.89
					c-4.86-2.21-9.37-5.06-13.46-8.49C781.73,381.63,782.47,380.92,782.97,381.33L782.97,381.33z"/>
			</g>
			<g>
				<path class="st3" d="M816.98,397.13c6.78,6.97,15.52,11.34,23.82,16.2c3.36,1.97,7.57,4.06,9.22,7.83
					c1.58,3.6-0.13,7.57-2.96,9.99c-3.95,3.38-9.5,3.51-14.42,3.58c-0.66,0.01-0.66-1.01,0-1.03c4.44-0.06,9.45-0.09,13.16-2.86
					c3.32-2.47,5.1-6.93,2.54-10.59c-2.29-3.27-6.57-5.2-9.94-7.14c-3.71-2.13-7.45-4.21-11.06-6.5c-3.98-2.53-7.77-5.37-11.08-8.76
					C815.79,397.38,816.51,396.65,816.98,397.13L816.98,397.13z"/>
			</g>
			<g>
				<path class="st3" d="M839.73,424.64c-13.67,3.6-28.09,3.82-41.87,0.68c-0.64-0.15-0.38-1.14,0.28-0.99
					c13.61,3.11,27.83,2.87,41.32-0.68C840.09,423.49,840.37,424.48,839.73,424.64L839.73,424.64z"/>
			</g>
			<g>
				<path class="st3" d="M812.22,419.22c-6.13,1.34-12.45,1.18-18.51-0.48c-0.64-0.18-0.36-1.17,0.28-0.99
					c5.88,1.6,12,1.77,17.97,0.48C812.58,418.09,812.86,419.08,812.22,419.22L812.22,419.22z"/>
			</g>
			<g>
				<path class="st3" d="M824.86,438.94c-4.35,1.27-8.98,0.75-12.95-1.42c-0.58-0.31-0.06-1.2,0.51-0.89
					c3.73,2.05,8.07,2.52,12.17,1.32C825.22,437.76,825.5,438.75,824.86,438.94L824.86,438.94z"/>
			</g>
			<g>
				<path class="st3" d="M857.76,434.18c-0.94-0.06-1.83,0.34-2.36,1.14c-0.36,0.55-1.25,0.04-0.89-0.51
					c0.73-1.09,1.93-1.73,3.24-1.65C858.42,433.19,858.42,434.22,857.76,434.18L857.76,434.18z"/>
			</g>
			<g>
				<path class="st3" d="M746.44,186.56c-2.78-1.97-6.36-2.44-9.7-2.36c-1.12,0.03-2.27,0.26-3.36,0.24
					c-0.36-0.01-0.68-0.06-1.04-0.01c-1.48,0.18-2.81,1.04-3.92,1.98c-2.53,2.17-4.32,5.17-5.83,8.11
					c-2.56,4.95-4.26,10.26-6.13,15.5c-1.94,5.41-3.88,10.81-5.83,16.22c-4.44,12.35-8.88,24.72-13.32,37.07
					c-0.43,1.17-0.88,2.33-1.27,3.51c-0.41,1.29-0.74,2.64-1.84,3.56c-1.84,1.54-4.16,0.09-5.78-1.05
					c-3.04-2.15-6.09-4.31-9.15-6.45c-5.96-4.18-11.95-8.36-17.94-12.53c-5.69-3.97-11.39-7.94-17.09-11.9
					c-1.95-1.35-4.08-2.92-4.86-5.27c-0.49-1.45-0.21-2.67-0.13-4.13c0.08-1.28-0.16-2.63-0.35-3.9
					c-0.93-6.45-3.46-12.68-7.04-18.12c-1.7-2.57-3.67-4.99-5.98-7.04c-0.9-0.8-2.13-2.12-3.3-2.51c-0.18-0.06-0.38-0.1-0.58-0.11
					c0,0.08,0.01,0.14,0.01,0.21c0,0.31,0,0.64,0,0.95c0.69,0.18,1.19,0.59,1.8,1.06c1.14,0.89,2.21,1.88,3.19,2.93
					c2.07,2.19,3.82,4.65,5.32,7.24c1.69,2.92,3.08,6,4.08,9.22c0.53,1.67,0.94,3.36,1.25,5.07c0.29,1.62,0.65,3.45,0.49,5.09
					c-0.21,2.14-0.19,4.1,1.01,5.98c1.12,1.75,2.84,3.02,4.54,4.18c11.41,7.93,22.82,15.87,34.19,23.84
					c3.06,2.14,6.1,4.28,9.15,6.45c1.68,1.19,3.58,2.71,5.79,2.43c2.36-0.29,3.46-2.52,4.05-4.55c0.71-2.44,1.72-4.82,2.57-7.23
					c4.52-12.59,9.05-25.18,13.57-37.79c1.68-4.67,3.36-9.35,5.04-14.03c2.15-6.01,4.15-12.17,7.76-17.49
					c1.3-1.93,2.92-3.96,5.05-5.02c0.76-0.38,1.72-0.51,2.26-0.5c1.18,0.04,2.39-0.18,3.58-0.21c1.9-0.05,3.83,0.09,5.69,0.6
					c2.68,0.74,4.96,2.36,6.24,4.86c2.13,4.2,1.37,9.48,0.2,13.84c-0.31,1.18-0.65,2.39-1.14,3.52c-0.01,0.04-0.01,0.04-0.01,0.05
					c0,0-0.01,0-0.11,0.19c-0.24,0.44-0.48,0.88-0.71,1.33c-6.59,12.1-13.21,24.21-19.85,36.3c-4.2,7.63-8.39,15.26-12.62,22.87
					c-1.72,3.09-3.45,6.18-5.17,9.26c-2.13,3.77-4.47,7.61-8.04,10.17c-6.49,4.69-14.08,1.93-20.31-1.79
					c-9.48-5.69-17.73-13.41-26.22-20.42c-5.06-4.18-10.4-8.06-15.4-12.32c-4.97-4.23-9.41-9.07-13.66-14.02
					c-2.12-2.46-4.84-4.97-5.6-8.23c-0.1-0.41-0.18-0.84-0.25-1.27c-0.06,0.19-0.14,0.38-0.23,0.56c-0.06,0.14-0.14,0.28-0.21,0.4
					c-0.08,0.16-0.15,0.34-0.24,0.5c0.36,1.48,0.95,2.88,1.98,4.23c4.03,5.25,8.64,10.29,13.42,14.87
					c4.84,4.66,10.32,8.54,15.54,12.77c5,4.06,9.91,8.24,14.88,12.34c4.05,3.33,8.13,6.63,12.48,9.56
					c3.46,2.33,7.18,4.52,11.21,5.68c3.22,0.91,6.67,1.05,9.82-0.19c3.52-1.38,6.28-4.13,8.47-7.14c2.31-3.17,4.1-6.73,6-10.15
					c1.95-3.5,3.9-7,5.84-10.51c4.47-8.09,8.93-16.2,13.38-24.31c3.81-6.94,7.59-13.88,11.39-20.82c1.69-3.11,3.61-6.18,5.11-9.38
					c1.22-2.59,1.83-5.68,2.18-8.49C751.39,195.2,750.75,189.61,746.44,186.56z"/>
			</g>
			<g>
				<path class="st3" d="M727,405.14c5.19,2.22,10.35,4.56,15.62,6.55c5.02,1.9,10.24,3.36,15.65,3.35c0.66,0,0.66,1.03,0,1.03
					c-5.5,0.01-10.81-1.45-15.91-3.38c-5.36-2.03-10.6-4.41-15.87-6.65C725.87,405.76,726.39,404.87,727,405.14L727,405.14z"/>
			</g>
			<g>
				<path class="st3" d="M665.96,332.36c5.35,6.49,10.99,12.75,17.25,18.38c6.19,5.56,12.99,10.31,20.33,14.23
					c13.91,7.43,29.02,12.19,43.39,18.62c8.08,3.62,15.94,7.81,23.02,13.16c0.53,0.39,0.01,1.29-0.51,0.89
					c-12.78-9.67-27.86-15.34-42.62-21.2c-14.8-5.88-29.34-12.27-41.62-22.61c-7.35-6.2-13.84-13.34-19.96-20.75
					C664.82,332.57,665.54,331.84,665.96,332.36L665.96,332.36z"/>
			</g>
			<g>
				<path class="st3" d="M678.22,332.94c2.13,3.3,4.71,6.25,7.68,8.81c0.5,0.43-0.23,1.15-0.73,0.73c-3.04-2.62-5.68-5.64-7.84-9.02
					C676.97,332.91,677.86,332.38,678.22,332.94L678.22,332.94z"/>
			</g>
			<g>
				<path class="st3" d="M693.17,345.62c6,3.87,12.33,7.22,18.91,10.01c0.6,0.26,0.09,1.14-0.51,0.89
					c-6.58-2.79-12.89-6.14-18.91-10.01C692.09,346.15,692.6,345.26,693.17,345.62L693.17,345.62z"/>
			</g>
			<g>
				<path class="st3" d="M714.78,361.32c9.8,7.04,22.48,7.78,32.65,14.08c0.56,0.35,0.05,1.24-0.51,0.89
					c-10.17-6.31-22.85-7.04-32.66-14.08C713.73,361.82,714.24,360.93,714.78,361.32L714.78,361.32z"/>
			</g>
			<g>
				<path class="st3" d="M729.16,235.7c-1.15,1.77-2.1,3.63-2.86,5.6c-0.24,0.61-1.23,0.35-0.99-0.28c0.78-2.05,1.75-4.01,2.96-5.85
					C728.64,234.63,729.53,235.14,729.16,235.7L729.16,235.7z"/>
			</g>
			<g>
				<path class="st3" d="M723.98,247.46c-1.97,2.66-3.66,5.46-5.09,8.44c-0.29,0.6-1.17,0.08-0.89-0.51
					c1.43-2.98,3.12-5.8,5.09-8.44C723.49,246.42,724.38,246.93,723.98,247.46L723.98,247.46z"/>
			</g>
			<g>
				<path class="st3" d="M721.52,243.04c-1.24,1.29-2.31,2.71-3.19,4.26c-0.33,0.58-1.22,0.06-0.89-0.51
					c0.93-1.63,2.05-3.12,3.36-4.47C721.26,241.82,721.98,242.55,721.52,243.04L721.52,243.04z"/>
			</g>
			<g>
				<path class="st3" d="M718.46,421.1c0.78,5.5,1.55,11,2.34,16.51c0.09,0.65-0.9,0.93-0.99,0.28c-0.78-5.5-1.55-11-2.33-16.51
					C717.39,420.72,718.38,420.45,718.46,421.1L718.46,421.1z"/>
			</g>
			<g>
				<path class="st3" d="M724.16,436.18c0.56,3.56,1.22,7.1,1.98,10.64c0.14,0.64-0.85,0.91-0.99,0.28
					c-0.76-3.52-1.43-7.07-1.98-10.64C723.07,435.81,724.06,435.53,724.16,436.18L724.16,436.18z"/>
			</g>
			<g>
				<path class="st3" d="M723.33,444.93c0.13,2.76,0.45,5.49,0.98,8.19c0.13,0.65-0.86,0.93-0.99,0.28
					c-0.55-2.79-0.89-5.61-1.01-8.47C722.27,444.26,723.3,444.28,723.33,444.93L723.33,444.93z"/>
			</g>
			<g>
				<path class="st3" d="M690.16,542.43c0,2.78,0,5.55,0,8.33c0,0.66-1.03,0.66-1.03,0c0-2.78,0-5.55,0-8.33
					C689.13,541.76,690.16,541.76,690.16,542.43L690.16,542.43z"/>
			</g>
			<g>
				<path class="st3" d="M692.58,551.47c0.06,2.29,0.13,4.6,0.18,6.89c0.01,0.66-1.01,0.66-1.03,0c-0.06-2.29-0.13-4.6-0.18-6.89
					C691.53,550.81,692.55,550.81,692.58,551.47L692.58,551.47z"/>
			</g>
			<g>
				<path class="st3" d="M690.6,559.8c-0.06,2.31-0.01,4.6,0.14,6.89c0.05,0.66-0.99,0.65-1.03,0c-0.15-2.29-0.2-4.59-0.14-6.89
					C689.6,559.14,690.62,559.14,690.6,559.8L690.6,559.8z"/>
			</g>
			<g>
				<path class="st3" d="M721.07,133.85c1.42-1.64,3.52-3.06,5.59-1.57c2.14,1.55,2.32,4.9,2,7.29c-0.3,2.28-1.45,4.45-3.65,5.4
					c-1.63,0.71-4.52,0.7-5.11-1.39c-0.18-0.64,0.81-0.91,0.99-0.28c0.29,1.03,1.75,1.15,2.59,1.04c0.84-0.11,1.64-0.49,2.28-1.04
					c1.3-1.12,1.83-2.88,1.94-4.55c0.11-1.69,0.03-3.93-1.19-5.25c-1.64-1.78-3.51-0.36-4.72,1.05
					C721.36,135.08,720.63,134.35,721.07,133.85L721.07,133.85z"/>
			</g>
			<g>
				<path class="st3" d="M711.69,206.99c-5.86,5.25-10.89,11.33-15.77,17.47c-4.74,5.96-9.28,12.43-14.97,17.53
					c-2.86,2.57-6.19,4.66-10.06,5.2c-0.65,0.09-0.93-0.9-0.28-0.99c7.33-1.01,12.39-7.48,16.83-12.8
					c4.89-5.89,9.45-12.04,14.46-17.82c2.84-3.28,5.83-6.41,9.06-9.31C711.45,205.83,712.17,206.55,711.69,206.99L711.69,206.99z"/>
			</g>
			<g>
				<path class="st3" d="M668.09,241.08c-2.91,1.73-6,3.07-9.26,4.02c-0.64,0.19-0.9-0.8-0.28-0.99c3.17-0.93,6.18-2.23,9.01-3.91
					C668.14,239.86,668.65,240.74,668.09,241.08L668.09,241.08z"/>
			</g>
			<g>
				<path class="st3" d="M672.65,236.62c1.03-0.78,1.97-1.68,2.79-2.67c0.43-0.5,1.15,0.23,0.73,0.73c-0.9,1.05-1.9,1.99-3.01,2.83
					C672.63,237.91,672.12,237.02,672.65,236.62L672.65,236.62z"/>
			</g>
			<g>
				<path class="st3" d="M652.17,311.29c8.82,3.01,17.06-2.68,22.46-9.21c0.43-0.51,1.14,0.23,0.73,0.73
					c-5.63,6.8-14.32,12.59-23.47,9.47C651.28,312.07,651.55,311.07,652.17,311.29L652.17,311.29z"/>
			</g>
			<g>
				<path class="st3" d="M663.01,304.33c7.08-2.13,12.34-7.58,17.29-12.79c0.45-0.48,1.18,0.25,0.73,0.73
					c-5.07,5.35-10.47,10.88-17.74,13.06C662.66,305.51,662.38,304.52,663.01,304.33L663.01,304.33z"/>
			</g>
			<g>
				<path class="st3" d="M723.27,289.26c-0.33,8.02,5.49,14.37,11.36,19.04c3.09,2.46,6.36,4.69,9.38,7.23
					c2.82,2.37,5.31,5.04,7.47,8.02c4.26,5.86,7.2,12.54,10.31,19.06c3.24,6.8,6.78,13.37,11.73,19.11
					c5.9,6.83,13,12.47,20.06,18.05c0.51,0.41-0.21,1.13-0.73,0.73c-6.35-5.04-12.74-10.11-18.28-16.07
					c-5.22-5.64-9.16-12.02-12.52-18.89c-3.27-6.69-6.16-13.61-10.32-19.81c-2.12-3.16-4.59-6.05-7.44-8.58
					c-3.08-2.72-6.46-5.04-9.7-7.55c-6.34-4.94-12.72-11.69-12.37-20.32C722.27,288.59,723.3,288.59,723.27,289.26L723.27,289.26z"
					/>
			</g>
			<g>
				<path class="st3" d="M664.64,377.32c2.15,6.39,10.14,8.12,15.97,9.02c7.79,1.19,15.7,0.96,23.52,1.83
					c7.22,0.79,14.03,2.84,20.71,5.66c7.05,2.98,13.82,6.6,20.91,9.48c7.92,3.22,16.33,5.58,24.96,4.97c0.66-0.05,0.65,0.98,0,1.03
					c-15.81,1.1-29.88-7.28-43.8-13.48c-7.32-3.26-14.78-5.78-22.78-6.65c-7.92-0.86-15.91-0.65-23.79-1.87
					c-6.28-0.96-14.41-2.94-16.7-9.73C663.44,376.97,664.43,376.7,664.64,377.32L664.64,377.32z"/>
			</g>
			<g>
				<path class="st3" d="M665.08,392.31c10.1,7.17,23.32,3.45,34.69,5.86c0.65,0.14,0.38,1.13-0.28,0.99
					c-11.5-2.44-24.72,1.29-34.94-5.96C664.03,392.82,664.54,391.92,665.08,392.31L665.08,392.31z"/>
			</g>
			<g>
				<path class="st3" d="M708.07,399.84c4.05,0.59,7.99,1.64,11.79,3.16c0.6,0.24,0.34,1.24-0.28,0.99
					c-3.8-1.52-7.74-2.58-11.79-3.16C707.14,400.73,707.41,399.74,708.07,399.84L708.07,399.84z"/>
			</g>
		</g>
	</g>
	<g>
		<polygon class="st1" points="672.4,135.19 690.06,134.78 675.06,144.37 686.13,161.65 670.45,151.18 661.31,159.92 662.61,145.94 
			648.35,139.69 666.19,138.52 667.45,127.46 		"/>
		<polygon class="st1" points="757.43,570.77 765.16,562.84 762.65,573.71 775.17,576.59 763.57,578.77 763.29,586.69 
			757.75,579.86 748.63,583.31 756.11,574.98 751.83,569.48 		"/>
		<path class="st1" d="M684.62,277.69c-2.03,0.84-4.35-0.13-5.19-2.15c-0.84-2.03,0.13-4.35,2.15-5.19
			c2.03-0.84,4.35,0.13,5.19,2.15C687.62,274.52,686.65,276.85,684.62,277.69z"/>
		<path class="st1" d="M685.58,297.26c-2.03,0.84-4.35-0.13-5.19-2.15c-0.84-2.03,0.13-4.35,2.15-5.19
			c2.03-0.84,4.35,0.13,5.19,2.15C688.58,294.09,687.61,296.42,685.58,297.26z"/>
		<path class="st1" d="M686.55,317.15c-2.03,0.84-4.35-0.13-5.19-2.15c-0.84-2.03,0.13-4.35,2.15-5.19
			c2.03-0.84,4.35,0.13,5.19,2.15C689.55,313.99,688.58,316.32,686.55,317.15z"/>
		<path class="st1" d="M687.48,336.18c-2.03,0.84-4.35-0.13-5.19-2.15c-0.84-2.03,0.13-4.35,2.15-5.19
			c2.03-0.84,4.35,0.13,5.19,2.15C690.49,333.02,689.51,335.35,687.48,336.18z"/>
		<path class="st1" d="M688.41,355.1c-2.03,0.84-4.35-0.13-5.19-2.15s0.13-4.35,2.15-5.19s4.35,0.13,5.19,2.15
			C691.4,351.94,690.44,354.26,688.41,355.1z"/>
		<path class="st1" d="M689.37,374.67c-2.03,0.84-4.35-0.13-5.19-2.15c-0.84-2.03,0.13-4.35,2.15-5.19s4.35,0.13,5.19,2.15
			C692.37,371.51,691.4,373.83,689.37,374.67z"/>
		<path class="st1" d="M744.09,570.15c-2.03,0.84-4.35-0.13-5.19-2.15c-0.84-2.03,0.13-4.35,2.15-5.19
			c2.03-0.84,4.35,0.13,5.19,2.15C747.08,567,746.12,569.31,744.09,570.15z"/>
		<path class="st1" d="M690.4,395.9c-2.03,0.84-4.35-0.13-5.19-2.15c-0.84-2.03,0.13-4.35,2.15-5.19s4.35,0.13,5.19,2.15
			C693.41,392.73,692.43,395.06,690.4,395.9z"/>
		<path class="st1" d="M691.45,417.33c-2.03,0.84-4.35-0.13-5.19-2.15c-0.84-2.03,0.13-4.35,2.15-5.19s4.35,0.13,5.19,2.15
			S693.48,416.49,691.45,417.33z"/>
		<path class="st1" d="M546.36,159.55c-2.18,0.3-4.18-1.22-4.49-3.4c-0.3-2.18,1.22-4.18,3.4-4.49c2.18-0.3,4.18,1.22,4.49,3.4
			C550.05,157.23,548.54,159.24,546.36,159.55z"/>
		<path class="st1" d="M542.38,178.73c-2.18,0.3-4.18-1.22-4.49-3.4c-0.3-2.18,1.22-4.18,3.4-4.49c2.18-0.3,4.18,1.22,4.49,3.4
			C546.08,176.42,544.56,178.43,542.38,178.73z"/>
		<path class="st1" d="M538.35,198.23c-2.18,0.3-4.18-1.22-4.49-3.4c-0.3-2.18,1.22-4.18,3.4-4.49c2.18-0.3,4.18,1.22,4.49,3.4
			C542.03,195.92,540.52,197.93,538.35,198.23z"/>
		<path class="st1" d="M534.48,216.89c-2.18,0.3-4.18-1.22-4.49-3.4s1.22-4.18,3.4-4.49c2.18-0.3,4.18,1.22,4.49,3.4
			C538.17,214.58,536.66,216.59,534.48,216.89z"/>
		<path class="st1" d="M530.63,235.43c-2.18,0.3-4.18-1.22-4.49-3.4c-0.3-2.18,1.22-4.18,3.4-4.49c2.18-0.3,4.18,1.22,4.49,3.4
			C534.33,233.11,532.81,235.13,530.63,235.43z"/>
		<path class="st1" d="M526.66,254.61c-2.18,0.3-4.18-1.22-4.49-3.4c-0.3-2.18,1.22-4.18,3.4-4.49c2.18-0.3,4.18,1.22,4.49,3.4
			C530.36,252.31,528.84,254.31,526.66,254.61z"/>
		<path class="st1" d="M522.35,275.44c-2.18,0.3-4.18-1.22-4.49-3.4c-0.3-2.18,1.22-4.18,3.4-4.49c2.18-0.3,4.18,1.22,4.49,3.4
			C526.03,273.12,524.52,275.14,522.35,275.44z"/>
		<path class="st1" d="M627.27,137.03c-0.2-2.18,1.42-4.12,3.6-4.32s4.12,1.42,4.32,3.6c0.2,2.19-1.42,4.12-3.6,4.32
			S627.47,139.22,627.27,137.03z"/>
		<path class="st1" d="M608.3,132.14c-0.2-2.19,1.42-4.12,3.6-4.32c2.19-0.2,4.12,1.42,4.32,3.6c0.2,2.19-1.42,4.12-3.6,4.32
			C610.43,135.94,608.49,134.34,608.3,132.14z"/>
		<path class="st1" d="M589,127.18c-0.2-2.19,1.42-4.12,3.6-4.32c2.18-0.2,4.12,1.42,4.32,3.6c0.2,2.19-1.42,4.12-3.6,4.32
			C591.15,130.98,589.2,129.36,589,127.18z"/>
		<path class="st1" d="M706.54,485.65c-1.69,1.4-4.2,1.17-5.6-0.53c-1.4-1.69-1.17-4.2,0.53-5.6s4.2-1.17,5.6,0.53
			S708.23,484.24,706.54,485.65z"/>
		<path class="st1" d="M713.34,504.39c-1.69,1.4-4.2,1.17-5.6-0.53c-1.4-1.69-1.17-4.2,0.53-5.6s4.2-1.17,5.6,0.53
			S715.03,502.99,713.34,504.39z"/>
		<path class="st1" d="M719.67,521.78c-1.69,1.4-4.2,1.17-5.6-0.53c-1.4-1.69-1.17-4.2,0.53-5.6c1.69-1.4,4.2-1.17,5.6,0.53
			C721.6,517.88,721.36,520.39,719.67,521.78z"/>
		<path class="st1" d="M533.36,338.9c-1.43,1.67-3.93,1.87-5.6,0.45c-1.67-1.43-1.87-3.93-0.45-5.6c1.43-1.67,3.93-1.87,5.6-0.45
			C534.59,334.71,534.78,337.22,533.36,338.9z"/>
		<path class="st1" d="M543.44,356.39c-1.43,1.67-3.93,1.87-5.6,0.45c-1.67-1.43-1.87-3.93-0.45-5.6c1.43-1.67,3.93-1.87,5.6-0.45
			C544.66,352.2,544.85,354.72,543.44,356.39z"/>
		<path class="st1" d="M679.69,180.61c-2.03,0.84-4.35-0.13-5.19-2.15c-0.84-2.03,0.13-4.35,2.15-5.19
			c2.03-0.84,4.35,0.13,5.19,2.15C682.68,177.44,681.72,179.77,679.69,180.61z"/>
		<path class="st1" d="M680.68,200.77c-2.03,0.84-4.35-0.13-5.19-2.15c-0.84-2.03,0.13-4.35,2.15-5.19
			c2.03-0.84,4.35,0.13,5.19,2.15C683.67,197.61,682.71,199.93,680.68,200.77z"/>
		<path class="st1" d="M681.65,220.76c-2.03,0.84-4.35-0.13-5.19-2.15c-0.84-2.03,0.13-4.35,2.15-5.19s4.35,0.13,5.19,2.15
			C684.65,217.6,683.68,219.92,681.65,220.76z"/>
		<path class="st1" d="M682.62,240.68c-2.03,0.84-4.35-0.13-5.19-2.15c-0.84-2.03,0.13-4.35,2.15-5.19
			c2.03-0.84,4.35,0.13,5.19,2.15C685.63,237.51,684.65,239.84,682.62,240.68z"/>
		<path class="st1" d="M683.53,259.16c-2.03,0.84-4.35-0.13-5.19-2.15c-0.84-2.03,0.13-4.35,2.15-5.19
			c2.03-0.84,4.35,0.13,5.19,2.15C686.53,256.01,685.56,258.32,683.53,259.16z"/>
		<path class="st1" d="M557.41,421.06c-1.98,0.96-4.35,0.14-5.31-1.84c-0.96-1.98-0.14-4.35,1.84-5.31
			c1.98-0.96,4.35-0.14,5.31,1.83C560.21,417.71,559.39,420.1,557.41,421.06z"/>
		<path class="st1" d="M559.57,440.53c-1.98,0.96-4.35,0.14-5.31-1.83c-0.96-1.98-0.14-4.35,1.84-5.31
			c1.98-0.96,4.35-0.14,5.31,1.84C562.37,437.2,561.54,439.58,559.57,440.53z"/>
		<path class="st1" d="M561.92,461.67c-1.98,0.96-4.35,0.14-5.31-1.83c-0.96-1.98-0.14-4.35,1.84-5.31
			c1.98-0.96,4.35-0.14,5.31,1.83C564.71,458.32,563.88,460.7,561.92,461.67z"/>
		<path class="st1" d="M564.28,482.99c-1.98,0.96-4.35,0.14-5.31-1.84c-0.96-1.98-0.14-4.35,1.84-5.31
			c1.98-0.96,4.35-0.14,5.31,1.84C567.08,479.64,566.25,482.03,564.28,482.99z"/>
		<path class="st1" d="M566.5,503.05c-1.98,0.96-4.35,0.14-5.31-1.84c-0.96-1.98-0.14-4.35,1.84-5.31c1.98-0.96,4.35-0.14,5.31,1.84
			C569.3,499.72,568.48,502.08,566.5,503.05z"/>
		<path class="st1" d="M568.71,522.94c-1.98,0.96-4.35,0.14-5.31-1.84c-0.96-1.98-0.14-4.35,1.84-5.31
			c1.98-0.96,4.35-0.14,5.31,1.83C571.5,519.61,570.69,521.99,568.71,522.94z"/>
		<path class="st1" d="M692.78,432.89l19.49,1.13l-12.93,8.67l1.92,23.25l-13.56-20.23l-17.31,1.59L686,436.83
			c0,0-2.07-14.35-2.08-14.35C683.91,422.46,692.78,432.89,692.78,432.89z"/>
		<polygon class="st1" points="520.17,297.53 537.5,297.39 522.29,307.59 523.97,318.65 516.44,307.42 498.17,312.27 510.05,304.32 
			501.33,289.17 510.21,293.44 518.85,284.7 		"/>
		<polygon class="st1" points="731.29,542.45 742.22,545.97 733.32,549.58 737.86,559.27 731.76,554.39 714.29,558.56 722.2,548.55 
			714.67,538.03 723.04,541.37 731.08,534.38 		"/>
		<path class="st1" d="M560.12,116.86c1.85-1.19,15.2-7.55,15.2-7.55l-8.54,11.14l10.54,7.62l-10.86-1.32l4.25,12.08l-8.93-6.48
			l-3.42,14.38l-2.51-12.77l-9.57,6.13l5.99-10.36l-13.43-5.34l13.53,0.05l-9.6-14.32l10.96,6.92l3.57-11.43L560.12,116.86z"/>
		<path class="st1" d="M568.53,550.78c2.37-1.52,19.38-9.63,19.38-9.63l-10.9,14.2l13.44,9.72l-13.84-1.68l5.42,15.41l-11.39-8.26
			l-4.36,18.34l-3.21-16.27l-12.2,7.82l7.64-13.22l-17.13-6.8l17.25,0.06l-12.24-18.25l13.97,8.82l4.55-14.57L568.53,550.78z"/>
		<polygon class="st1" points="554.14,371.82 570.46,374.52 556,384.2 563.28,395.08 549.85,389.39 539.3,396.47 544.94,382.05 
			537.8,371.41 545.29,371.17 552.18,361.76 		"/>
	</g>
</g>
</svg>
