<?xml version="1.0" encoding="utf-8"?>
<!-- Generator: Adobe Illustrator 25.3.0, SVG Export Plug-In . SVG Version: 6.00 Build 0)  -->
<svg version="1.1" id="Layer_1" xmlns="http://www.w3.org/2000/svg" xmlns:xlink="http://www.w3.org/1999/xlink" x="0px" y="0px"
	 viewBox="0 0 1920 700" style="enable-background:new 0 0 1920 700;" xml:space="preserve">
<style type="text/css">
	.st0{fill:#1B1D50;}
	.st1{fill:#FFFFFF;}
	.st2{opacity:0.42;fill:#8AD2D0;enable-background:new    ;}
	.st3{opacity:0.42;}
	.st4{fill:#8AD2D0;}
</style>
<rect class="st0" width="1920" height="700"/>
<g id="XMLID_92_">
	<g id="XMLID_96_">
		<g id="XMLID_97_">
			<path id="XMLID_98_" class="st1" d="M115.35,271.31c-22.14,0-40.15-18.01-40.15-40.15c0-22.14,18.01-40.15,40.15-40.15
				c22.14,0,40.15,18.01,40.15,40.15S137.49,271.31,115.35,271.31z M115.35,206.42c-13.64,0-24.74,11.1-24.74,24.74
				s11.1,24.74,24.74,24.74s24.74-11.1,24.74-24.74S128.99,206.42,115.35,206.42z"/>
		</g>
	</g>
	<g id="XMLID_93_">
		<g id="XMLID_94_">
			<path id="XMLID_95_" class="st1" d="M206.71,317.45c-10.96,0-22.09-4.31-29.66-14.28c-21.1-27.76,7.08-86.04,29.72-132.86
				c2.57-5.31,5.03-10.41,7.29-15.19c9.13-19.34,9.79-37.84,1.88-52.1c-6.22-11.2-17.41-18.5-30.69-20.04
				c-31.39-3.65-51.8,15.6-60.41,34.82c-19.01,42.44,3.31,76,4.26,77.41c2.39,3.51,1.5,8.3-2,10.7s-8.28,1.53-10.7-1.96
				c-1.16-1.69-28.29-41.88-5.64-92.45c10.35-23.1,36.5-48.44,76.25-43.83c18.28,2.12,33.73,12.27,42.39,27.86
				c10.4,18.71,9.9,42.2-1.41,66.16c-2.27,4.83-4.76,9.96-7.35,15.33c-18.6,38.47-46.71,96.59-31.34,116.83
				c7.65,10.06,21.78,10.16,31.02,4.44c4.41-2.72,11.07-8.81,6.07-19c-1.88-3.82-0.3-8.44,3.52-10.31c3.82-1.88,8.44-0.3,10.31,3.52
				c7.24,14.73,2.61,30.01-11.8,38.91C222.18,315.27,214.48,317.45,206.71,317.45z"/>
		</g>
	</g>
</g>
<g>
	<g>
		<g>
			<path class="st2" d="M779.72,568.19c-0.39-4.31-0.86-8.67-2.28-12.8c-1.14-3.33-2.93-6.49-5.47-8.95
				c-2.67-2.57-5.7-3.65-9.24-4.47c-2.04-0.47-3.9-1.14-5.31-2.77c-1.39-1.61-2.22-3.65-3.11-5.56c-1.96-4.28-3.88-8.57-5.72-12.89
				c-3.77-8.77-7.31-17.63-10.62-26.58c-1.57-4.24-3.08-8.49-4.54-12.76c-0.69-2.03-1.57-4.1-1.99-6.21
				c-0.54-2.68,0.51-4.74,1.9-6.93c4.59-7.27,9.21-14.51,13.27-22.08c3.95-7.36,7.41-15.03,9.67-23.09
				c0.25-0.88,0.47-1.75,0.69-2.65c-0.33,0.4-0.79,0.72-1.38,0.88c-1.56,6-3.82,11.84-6.48,17.44c-3.53,7.46-7.73,14.58-12.09,21.57
				c-2.03,3.25-4.52,6.43-6.11,9.91c-1.71,3.7,0.01,7.35,1.24,10.94c5.74,16.77,12.27,33.28,19.55,49.44
				c1.5,3.32,2.81,7.48,5.53,10.02c2.56,2.39,6.11,2.26,9.2,3.49c7.89,3.13,10.74,12.12,11.71,19.79c0.25,1.92,0.47,3.86,0.57,5.79
				c0.07,1.36-0.08,2.67-1.57,3.15c-1.17,0.39-2.5,0.36-3.72,0.47c-4.38,0.39-8.77,0.6-13.17,0.65c-4.54,0.04-9.1-0.06-13.65-0.4
				c-1.99-0.15-4.09-0.43-5.68-1.72c-1.56-1.26-2.39-3.17-3.18-4.97c-6.2-14.06-11.59-28.47-18.15-42.37
				c0.01,0.6-0.13,1.19-0.43,1.7c5.1,10.94,9.55,22.19,14.21,33.31c0.78,1.83,1.56,3.67,2.33,5.5c0.81,1.88,1.54,3.88,2.65,5.6
				c2.03,3.13,5.17,3.86,8.68,4.11c9.34,0.65,18.76,0.5,28.07-0.43c1.33-0.14,2.9-0.21,3.86-1.28
				C780.19,571.7,779.86,569.76,779.72,568.19z"/>
		</g>
		<g>
			<path class="st2" d="M375.87,505.42c-2.93,4.65-4.28,10.57-2.71,15.95c1.45,4.96,5.27,8.68,9.7,11.12
				c4.79,2.64,10.2,3.96,15.55,4.86c5.72,0.96,11.55,1.36,17.36,1.21c23.54-0.6,46.69-10.28,62.32-28.12
				c8.55-9.75,14.83-21.27,19.94-33.13c5.43-12.59,9.63-25.68,13.02-38.96c6.91-27,10.62-54.66,15.72-82.02
				c0.63-3.33,1.26-6.66,1.93-9.98c1.06-5.32,1.63-10.81,3.7-15.87c0.79-1.93,1.99-3.86,3.5-5.39c0-0.01,0-0.01-0.01-0.01
				c-0.17-0.49-0.15-1.08-0.03-1.6c-4.27,3.54-5.77,9.6-6.81,14.8c-0.51,2.58-0.9,5.2-1.42,7.78c-5.41,26.79-8.95,53.93-14.92,80.59
				c-2.95,13.16-6.5,26.19-11.16,38.85c-4.5,12.26-9.95,24.34-17.33,35.17c-6.93,10.17-15.73,18.86-26.4,25.08
				c-10.14,5.92-21.57,9.63-33.22,11.05c-11.3,1.39-23.4,0.93-34.33-2.43c-5.14-1.58-10.44-4.13-13.69-8.57
				c-3.64-4.97-3.7-11.46-1.25-16.98c5.39-12.19,19.26-15.23,30.94-17.92c4.75-1.1,9.71-2.4,13.92-4.97
				c-0.26,0.03-0.54,0.04-0.81,0.04c-0.42,0-0.81-0.1-1.17-0.25c-3.35,1.78-7.09,2.89-10.77,3.78
				C395.92,492.23,382.72,494.54,375.87,505.42z"/>
			<path class="st2" d="M541.43,383.94c-0.03-0.04-0.06-0.1-0.08-0.14c-2.86,6.45-5.79,12.88-8.28,19.45
				c-5.59,14.77-9.55,30.07-14.05,45.19c-4.5,15.1-9.57,30.18-17.4,43.94c-7.92,13.9-18.76,25.96-31.97,35
				c-6.86,4.71-14.31,8.64-22.16,11.45c-8.45,3.02-17.29,4.49-26.25,4.63c-9.35,0.15-18.66-0.96-27.89-2.39
				c-7.77-1.21-16.15-2.22-21.77-8.31c-4.57-4.95-6.84-12.16-5.59-18.81c1.4-7.5,7.02-13.35,13.21-17.38
				c6.96-4.53,14.97-6.99,22.58-10.16c2.31-0.96,4.54-2.01,6.73-3.17c-0.36-0.18-0.72-0.39-1.06-0.64
				c-7.46,3.79-15.59,6.11-23.11,9.78c-6.57,3.21-12.95,7.74-16.72,14.16c-3.43,5.88-3.97,12.88-1.58,19.24
				c2.46,6.53,7.52,11.42,14.12,13.69c4.24,1.45,8.75,2.03,13.17,2.71c4.6,0.71,9.23,1.33,13.87,1.78
				c9.25,0.88,18.65,0.96,27.83-0.67c8.89-1.57,17.44-4.78,25.39-9.02c14.34-7.64,26.83-18.69,36.21-31.94
				c9.41-13.31,15.55-28.57,20.51-44.01c5.11-15.87,9.09-32.1,14.52-47.87c2.81-8.16,6.17-16.08,9.67-23.96
				c0.26-0.58,0.51-1.17,0.78-1.75C541.83,384.49,541.61,384.21,541.43,383.94z"/>
		</g>
		<g class="st3">
			<path class="st4" d="M665.21,239.84c4.71-1.83,9.57-3.28,14.52-4.35c-0.03,1.97-0.36,3.95-0.99,5.81
				c-0.24,0.72-0.61,1.5-1.35,1.72c-0.72,0.21-1.6-0.75-1.07-1.28c-1.49,1.81-2.63,3.9-3.31,6.14c-0.35,1.14-0.82,2.56-2,2.74
				c-0.67,0.1-1.31-0.25-1.89-0.6c-1.18-0.69-2.36-1.39-3.54-2.08L665.21,239.84z"/>
		</g>
		<g class="st3">
			<path class="st4" d="M717.58,199.02c-4.02,4.29-7.56,9.05-10.5,14.13c-0.17,0.31-0.35,0.65-0.22,0.97
				c0.14,0.36,0.56,0.49,0.93,0.57c2.5,0.53,5.13,0.63,7.6-0.07c2.47-0.69,4.74-2.21,6.07-4.39c1.67-2.72,1.71-6.1,1.57-9.3
				c-0.07-1.47-0.21-3.06-1.19-4.14c-0.18-0.21-0.42-0.4-0.69-0.43c-0.25-0.03-0.5,0.08-0.74,0.21c-0.85,0.46-1.61,1.08-2.22,1.83
				L717.58,199.02z"/>
		</g>
		<g>
			<path class="st2" d="M451.83,466.61c2.92-7.31,3.28-15.58,2.47-23.33c-0.75-7.18-2.68-14.23-5.79-20.76
				c-6.14-12.88-16.92-23.07-30.33-28.07c-7.52-2.81-15.66-3.86-23.64-2.86c-0.49,0.06-0.72,0.56-0.39,0.94
				c4.49,5.43,11.63,7.35,16.76,12.02c5.46,4.96,8.45,12.27,8.17,19.62c0.35-0.1,0.69-0.18,1.04-0.28
				c-3.97-6.49-10.53-11.09-17.99-12.58c-0.43-0.08-0.93,0.39-0.63,0.82c3.77,5.34,7.53,10.87,9.68,17.08
				c2.11,6.07,2.1,12.24-0.46,18.17c-3.77,8.73-11.99,17.34-8.93,27.53c1.95,6.49,7.03,10.67,13.73,11.44
				c6.99,0.81,14.23-1.51,20.38-4.7C442.23,478.35,448.98,473.41,451.83,466.61c0.28-0.65-0.81-0.94-1.07-0.29
				c-2.47,5.88-8.21,10.27-13.56,13.35c-6,3.45-13.09,6-20.09,5.7c-6.81-0.31-12.26-4.11-14.24-10.74
				c-3.03-10.12,5.68-18.84,9.21-27.6c5.21-12.89-2.33-25.12-9.62-35.45c-0.21,0.28-0.42,0.54-0.63,0.82
				c7.18,1.43,13.49,5.81,17.33,12.07c0.29,0.47,1.01,0.26,1.04-0.28c0.28-7.17-2.46-14.34-7.5-19.47
				c-5.21-5.28-12.98-7.2-17.74-12.96c-0.13,0.32-0.26,0.64-0.39,0.94c13.8-1.72,27.93,2.82,38.6,11.66
				c10.91,9.03,17.63,22.34,19.72,36.24c1.26,8.46,1.11,17.7-2.1,25.72C450.5,466.99,451.57,467.27,451.83,466.61z"/>
		</g>
		<g>
			<path class="st2" d="M717.7,153.15c-8.45,6.24-16.34,13.51-23.34,21.3c-5.31,5.91-10.34,12.39-13.56,19.7
				c-0.69,1.58-1.33,3.21-1.79,4.89c-0.31,1.11-0.74,2.14-0.81,3.32c-0.13,2.13,0.74,3.79,1.75,5.59c0.44,0.79,0.64,1.64,0.65,2.54
				c0.06,2.77-1.22,5.5-2.54,7.86c-2.26,4.06-5.27,7.68-8.39,11.09c-0.97,1.07-1.99,2.11-3,3.14c-0.35,0.35-0.76,0.65-0.97,1.1
				c-0.13,0.28-0.15,0.64-0.21,0.93c-0.33,1.6-0.54,3.22-0.65,4.85c-0.4,5.61,0.32,11.38,2.46,16.62c1.33,3.28,3.21,6.31,5.56,8.96
				c1.36,1.54,2.88,2.95,4.5,4.21c0.81,0.63,1.64,1.22,2.5,1.79c0.61,0.4,1.78,1.46,2.54,1.46c0.68,0,1.64-0.72,2.22-0.99
				c1.88-0.88,3.77-1.74,5.64-2.58c6.04-2.71,12.14-5.31,18.33-7.7c6.5-2.52,13.12-4.9,19.91-6.53c2.65-0.64,5.36-1.18,8.1-1.28
				c2.82-0.1,5.66,0.31,8.48,0.32c2.26,0.01,4.59-0.14,6.7-1.01c2.07-0.86,3.75-2.36,5.14-4.1c4.64-5.74,7.27-12.89,10.77-19.33
				c5.03-9.24,10.98-18.29,10.63-29.25c-0.22-6.95-2.6-13.66-5.63-19.86c-2.25-4.6-4.91-9-7.75-13.27
				c-3.08-4.63-6.85-9.02-8.91-14.23c-2.17-5.47-1.22-11.39-2.64-17.02c-0.58-2.32-1.06-5.13-2.75-6.93
				c-1.36-1.47-3.42-2.17-5.38-2.15c-4.72,0.03-8.75,3.93-11.13,7.68c-1.28,2.03-2.22,4.28-2.72,6.61c-0.4,1.89-0.18,3.88-0.63,5.74
				c-0.57,2.38-3.46,2.78-5.45,3.45C722.72,150.96,720.13,151.86,717.7,153.15c-0.63,0.33-0.07,1.29,0.56,0.96
				c2.67-1.43,5.52-2.33,8.38-3.29c1.63-0.54,3.64-0.99,4.64-2.52c0.79-1.21,0.75-2.74,0.83-4.13c0.14-2.53,0.74-4.97,1.83-7.27
				c2.08-4.35,6.61-9.62,11.95-9.17c3.33,0.28,4.84,2.61,5.68,5.57c0.85,2.95,1.49,5.84,1.63,8.91c0.13,2.71,0.17,5.39,0.85,8.03
				c0.58,2.31,1.56,4.5,2.72,6.56c2.67,4.72,6.16,8.99,9.06,13.58c4.46,7.03,8.56,14.62,10.44,22.8c1.25,5.45,1.26,11.03-0.25,16.42
				c-1.38,4.9-3.84,9.39-6.31,13.81c-3.27,5.82-6.11,11.82-9.3,17.69c-2.43,4.47-5.36,9.91-10.75,11.14
				c-4.97,1.14-10.13-0.33-15.16,0.22c-6.02,0.68-11.92,2.57-17.62,4.53c-11.16,3.82-22.05,8.5-32.72,13.49
				c-0.5,0.24-1,0.47-1.51,0.71c-0.11,0.06-0.28,0.18-0.39,0.18c-0.51,0.04,0.5,0.03,0.01-0.15c-0.94-0.35-1.93-1.18-2.75-1.75
				c-0.97-0.68-1.9-1.39-2.79-2.17c-1.46-1.26-2.82-2.67-4.03-4.18c-4.14-5.17-6.35-11.62-6.78-18.19c-0.15-2.26-0.1-4.56,0.14-6.82
				c0.13-1.19,0.17-2.71,0.63-3.84c0.31-0.74,0.96-1.13,1.56-1.74c1.83-1.88,3.6-3.82,5.27-5.84c2.46-2.97,4.79-6.13,6.45-9.62
				c1-2.1,1.86-4.45,1.75-6.81c-0.04-0.86-0.21-1.74-0.6-2.52c-0.9-1.88-1.99-3.38-1.81-5.59c0.1-1.13,0.57-2.25,0.89-3.33
				c0.54-1.81,1.25-3.56,2.06-5.25c1.63-3.43,3.65-6.66,5.86-9.73c7.77-10.8,17.79-20.12,28.22-28.3c0.63-0.5,1.26-0.99,1.92-1.46
				C718.84,153.69,718.29,152.73,717.7,153.15z"/>
		</g>
		<g>
			<path class="st2" d="M693.64,174.18c-4.89-0.36-8.96-3.31-13.45-4.95c-3.54-1.29-7.6-1.11-8.16,3.38
				c-0.29,2.35-0.19,4.85-0.1,7.23c0.1,2.22,0.38,4.49,1.36,6.52c1.7,3.46,5.32,5.64,9.13,5.79c0.72,0.03,0.71-1.08,0-1.11
				c-3.82-0.15-7.31-2.61-8.59-6.25c-0.72-2.08-0.79-4.34-0.83-6.52c-0.03-1.96-0.18-4.11,0.21-6.04c1.01-5.04,7.61-1.6,10.37-0.31
				c3.24,1.54,6.45,3.11,10.06,3.39C694.36,175.34,694.36,174.23,693.64,174.18L693.64,174.18z"/>
		</g>
		<g>
			<path class="st2" d="M665.92,240.39c4.72-1.82,9.57-3.27,14.52-4.35c-0.24-0.18-0.47-0.36-0.71-0.54
				c-0.03,1.31-0.17,2.58-0.46,3.85c-0.13,0.53-0.25,1.04-0.43,1.56c-0.08,0.29-0.19,0.57-0.32,0.83c-0.19,0.63-0.57,0.72-1.15,0.28
				c0.31-0.53-0.47-1.18-0.88-0.68c-1.49,1.85-2.64,3.89-3.38,6.16c-0.56,1.68-0.92,3.03-3.15,2.06c-1.22-0.54-2.39-1.4-3.54-2.08
				c-0.63-0.36-1.18,0.6-0.56,0.96c1.43,0.85,2.89,1.95,4.45,2.54c0.97,0.38,1.93,0.24,2.65-0.54c0.78-0.85,1.01-2.06,1.39-3.11
				c0.67-1.89,1.68-3.63,2.93-5.18c-0.29-0.22-0.58-0.44-0.88-0.68c-0.83,1.42,1.04,2.67,2.28,1.81c0.89-0.63,1.19-1.85,1.47-2.83
				c0.44-1.61,0.65-3.27,0.69-4.93c0.01-0.38-0.36-0.61-0.71-0.54c-4.95,1.07-9.8,2.52-14.52,4.34
				C664.96,239.57,665.25,240.64,665.92,240.39L665.92,240.39z"/>
		</g>
		<g>
			<path class="st2" d="M671.79,250.33c0.38,2.24,0.83,4.46,1.43,6.64c0.39,1.45,0.81,2.22,2.22,2.81c4.14,1.71,8.39,3.2,12.59,4.78
				c0.67,0.25,0.96-0.82,0.29-1.07c-3.5-1.33-7-2.67-10.5-3.99c-0.79-0.31-1.82-0.51-2.53-1c-0.9-0.61-1.04-1.96-1.29-2.92
				c-0.46-1.83-0.83-3.68-1.14-5.54C672.74,249.33,671.67,249.64,671.79,250.33L671.79,250.33z"/>
		</g>
		<g>
			<path class="st2" d="M673.96,258.19c-0.36,1.93-0.71,3.85-1.07,5.78c-0.13,0.69,0.94,1,1.07,0.29c0.36-1.93,0.71-3.85,1.07-5.78
				C675.17,257.78,674.09,257.48,673.96,258.19L673.96,258.19z"/>
		</g>
		<g>
			<path class="st2" d="M717.74,198.62c-3.15,3.39-6.03,7.04-8.55,10.94c-0.61,0.94-1.21,1.9-1.78,2.88
				c-0.32,0.54-0.76,1.18-0.54,1.85c0.47,1.4,3.31,1.32,4.46,1.38c3.97,0.21,8.18-1.11,10.64-4.39c2.4-3.21,2.52-7.81,2.06-11.64
				c-0.15-1.25-0.72-3.67-2.35-3.79C720.13,195.7,718.73,197.66,717.74,198.62c-0.51,0.5,0.28,1.29,0.79,0.79
				c0.93-0.9,2.85-3.52,3.88-1.61c0.92,1.7,0.72,4.18,0.65,6.06c-0.15,4.46-2.03,8.35-6.42,9.96c-2.25,0.83-4.72,0.92-7.07,0.54
				c-0.61-0.1-1.45-0.03-1.46-0.93c0-0.35,0.63-1.07,0.79-1.33c0.54-0.89,1.1-1.76,1.67-2.63c2.36-3.57,5.03-6.92,7.95-10.05
				C719.01,198.88,718.23,198.1,717.74,198.62z"/>
		</g>
		<g>
			<path class="st2" d="M822.17,335.64c1.71,5.81,2.57,11.98,3.18,17.99c1.46,14.37,0.75,29-2.4,43.09
				c-0.96,4.32-2.17,8.59-3.58,12.77c-0.38,1.08-0.76,2.17-1.17,3.24c-0.28,0.74-0.74,1.54-0.86,2.32c-0.01,0.06,0,0.11,0,0.17
				c-0.11,1.07,0.01,2.21,0.03,3.28c0.08,5.68,0.26,11.37,0.51,17.05c0.82,18.61,2.35,37.24,5.45,55.61
				c1.56,9.2,3.5,18.38,6.46,27.25c2.25,6.74,5.1,13.73,9.85,19.12c1.15,1.31,2.36,2.86,4.13,3.08c1.86,0.24,3.82,0.83,5.54,1.64
				c7.48,3.52,10.56,11.21,10.59,19.15c0.01,3.31-0.43,6.6-1.08,9.85c0.18-0.14,0.36-0.28,0.54-0.4c-4.29,0.18-8.61,0.17-12.91,0
				c-3.56-0.13-7.13-0.36-10.66-0.89c-2.81-0.42-5.88-0.9-8.36-2.33c-1.88-1.07-3.49-2.86-5.02-4.4c-2.95-2.97-5.72-6.1-8.42-9.3
				c-8.48-10.03-16.09-20.8-22.86-32.06c-8.7-14.45-15.99-29.81-21.2-45.85c-5.78-17.8-8.95-36.5-8.36-55.25
				c0.07-2.43,0.21-4.85,0.42-7.28c0.06-0.71-1.06-0.71-1.11,0c-1.54,19.05,0.82,38.24,6.09,56.59
				c4.78,16.66,11.85,32.63,20.45,47.65c6.86,11.98,14.7,23.43,23.43,34.13c2.96,3.63,6.04,7.18,9.28,10.59
				c1.79,1.88,3.63,3.81,5.68,5.42c1.49,1.15,3.28,1.78,5.09,2.26c3.2,0.85,6.52,1.22,9.8,1.5c5.86,0.49,11.78,0.56,17.67,0.38
				c0.35-0.01,0.68-0.03,1.03-0.04c0.24-0.01,0.49-0.17,0.54-0.4c1.83-9.06,2.13-20.16-5.21-27c-2.03-1.89-4.47-3.28-7.1-4.17
				c-1.46-0.49-2.92-0.63-4.4-0.94c-0.35-0.07,0.21,0.28-0.17-0.17c-0.43-0.53-1.1-0.94-1.58-1.45c-1.1-1.11-2.08-2.32-2.99-3.6
				c-2.07-2.95-3.71-6.2-5.11-9.5c-3.49-8.24-5.68-17.02-7.45-25.78c-3.84-18.97-5.59-38.36-6.63-57.66
				c-0.36-6.6-0.61-13.19-0.74-19.8c-0.04-1.74-0.07-3.49-0.08-5.22c0-0.35-0.06-0.74,0-1.08c0.04-0.28,0,0.08,0.19-0.51
				c0.75-2.36,1.74-4.65,2.5-7.03c4.71-14.71,6.56-30.29,5.91-45.71c-0.36-8.52-1.36-17.15-3.49-25.41
				c-0.1-0.39-0.19-0.78-0.32-1.17C823.04,334.65,821.97,334.94,822.17,335.64L822.17,335.64z"/>
		</g>
		<g>
			<path class="st2" d="M723.33,397.09c0.03,2.9,0.03,5.81,0.03,8.7c0,7.63-0.06,15.27-0.15,22.9c-0.13,10.63-0.33,21.27-0.64,31.9
				c-0.35,11.99-0.81,23.98-1.46,35.97c-0.64,11.7-1.43,23.39-2.6,35.04c-0.97,9.81-2.14,19.62-4.1,29.29
				c-1.21,6.02-2.5,12.76-5.85,18.01c-0.26,0.4-0.54,0.78-0.83,1.17c-0.11,0.15-0.51,0.47-0.15,0.31c-0.07,0.03-0.17,0.01-0.24,0.04
				c-1.14,0.26-2.36,0.32-3.52,0.46c-5.1,0.61-10.23,1.03-15.35,1.17c-5.99,0.18-12.13,0.11-18.01-1.18
				c-4.13-0.9-9.45-2.71-10.17-7.52c-0.81-5.32,3.47-10.48,7.46-13.38c5.67-4.13,12.95-5.47,19.69-3.52
				c4.38,1.26,8.25,3.75,11.63,6.78c0.53,0.47,1.32-0.31,0.79-0.79c-5.97-5.36-13.6-8.89-21.77-7.8
				c-6.13,0.82-11.98,4.11-15.73,9.06c-2.71,3.57-4.71,8.92-1.92,13.03c2.67,3.93,8.28,5.1,12.64,5.75c10.75,1.6,22,0.68,32.74-0.72
				c0.68-0.08,1.72-0.03,2.32-0.43c0.76-0.51,1.39-1.76,1.83-2.56c1.43-2.5,2.39-5.28,3.22-8.03c2.5-8.36,3.79-17.12,4.93-25.76
				c1.5-11.46,2.47-22.98,3.27-34.5c0.85-12.46,1.45-24.94,1.9-37.42c0.42-11.64,0.72-23.3,0.92-34.95
				c0.15-8.99,0.24-17.97,0.28-26.96c0.01-4.47,0.01-8.96,0-13.44c0-0.19,0-0.4,0-0.6C724.44,396.37,723.33,396.37,723.33,397.09
				L723.33,397.09z"/>
		</g>
		<g>
			<path class="st2" d="M679.02,554.6c0.5-11.17,0.76-22.36,0.96-33.54c0.36-21.11,0.43-42.27-0.82-63.35
				c-0.56-9.43-1.24-19.02-3.29-28.26c-0.15-0.69-1.22-0.4-1.07,0.29c1.81,8.11,2.5,16.49,3.06,24.77c0.71,10.53,1,21.09,1.14,31.65
				c0.24,18.93-0.06,37.86-0.65,56.79c-0.12,3.88-0.25,7.77-0.43,11.64C677.88,555.3,678.99,555.3,679.02,554.6L679.02,554.6z"/>
		</g>
		<g>
			<path class="st2" d="M651.58,346.39c0.57,8.21,1.71,16.41,3.06,24.51c2.56,15.42,6.09,31.07,12.62,45.34
				c3.18,6.96,7.25,13.92,13.19,18.91c0.54,0.46,1.33-0.32,0.79-0.79c-5.22-4.39-8.95-10.34-11.94-16.41
				c-3.5-7.11-6.04-14.67-8.16-22.3c-3.68-13.3-6.06-26.98-7.61-40.7c-0.32-2.85-0.63-5.71-0.83-8.56
				C652.63,345.68,651.52,345.68,651.58,346.39L651.58,346.39z"/>
		</g>
		<g>
			<path class="st2" d="M593.42,412.38c0.07-0.28,0.28-0.9,0.28-0.89c0.03-0.25,0.15-0.11,0.07-0.15c0.19,0.11-0.83-0.04-0.67-0.11
				c0.03-0.01,0.1,0.56,0.11,0.89c0.14,2.7-0.1,5.43-0.28,8.11c-0.44,6.73-1.07,13.44-1.71,20.15c-0.97,10.12-2.36,20.05-4.63,29.97
				c-2.2,9.63-5.14,19.11-7.06,28.79c-3.64,18.44-2.54,37.35-4.78,55.94c-1.03,8.55-3.56,17.29-11.88,21.34
				c-4.02,1.96-8.55,2.72-12.95,3.27c-4.47,0.56-9.07,1.14-13.58,0.64c-2.52-0.28-4.95-0.93-7.2-2.08c0.08,0.21,0.17,0.42,0.25,0.63
				c1.15-7.13,3.46-14.03,6.93-20.37c3.33-6.09,8.45-11.26,10.2-18.12c0.88-3.46,1.22-7.06,1.65-10.6
				c0.49-3.96,0.93-7.93,1.32-11.89c0.79-7.84,1.4-15.69,1.85-23.57c0.9-15.84,1.11-31.74,0.64-47.59c-0.24-8-0.65-15.99-1.24-23.98
				c-0.51-6.93-0.54-14.01-1.7-20.87c-0.54-3.2-1.4-6.31-2.72-9.28c-1.6-3.58-3.6-6.96-5.13-10.6c-2.78-6.61-4.77-13.58-5.91-20.66
				c-1.95-12.14-1.39-24.64,1.15-36.64c1.6-7.53,3.93-14.97,7.13-21.98c0.43-0.93,0.86-2.54,1.61-3.29c0.44-0.44,1.4-0.83,1.95-1.18
				c0.79-0.5,1.6-1.01,2.39-1.51c1.67-1.04,3.33-2.07,5.02-3.08c3.25-1.97,6.52-3.89,9.82-5.78c16.49-9.42,33.57-18.09,51.2-25.19
				c0.28-0.11,0.56-0.22,0.83-0.33c0.65-0.26,0.38-1.33-0.29-1.07c-14.73,5.75-29.01,12.91-42.91,20.41
				c-6.49,3.52-12.91,7.17-19.22,10.99c-1.6,0.96-3.18,1.93-4.75,2.92c-0.89,0.56-1.78,1.11-2.67,1.68
				c-0.69,0.44-1.7,0.85-2.25,1.46c-0.21,0.22-0.32,0.56-0.46,0.82c-2.68,5.25-4.72,10.88-6.38,16.54
				c-7.03,24-5.89,50.08,5.57,72.55c1.74,3.39,3.36,6.64,4.27,10.37c0.85,3.46,1.21,7.02,1.46,10.57
				c0.51,7.55,1.04,15.09,1.46,22.64c0.9,16.08,1.1,32.18,0.6,48.27c-0.51,16.06-1.72,32.1-3.64,48.06
				c-0.46,3.85-0.81,7.78-1.76,11.55c-0.93,3.65-2.81,6.78-4.95,9.84c-4,5.75-7.42,11.69-9.67,18.36c-1.13,3.35-1.96,6.79-2.52,10.3
				c-0.04,0.24,0.03,0.51,0.25,0.63c4.21,2.15,8.88,2.58,13.53,2.35c4.54-0.22,9.2-0.76,13.66-1.7c4.09-0.85,8.17-2.25,11.46-4.9
				c3.22-2.6,5.34-6.23,6.63-10.12c1.36-4.1,1.89-8.45,2.31-12.73c0.49-4.97,0.78-9.96,1.03-14.97c0.53-10.48,0.83-21.01,2.32-31.4
				c1.47-10.35,4.59-20.38,7.04-30.53c2.52-10.39,4.36-20.81,5.42-31.46c0.75-7.57,1.47-15.16,1.99-22.75
				c0.21-2.97,0.51-6.03,0.32-9c-0.04-0.65-0.29-2.39-1.33-1.49c-0.31,0.26-0.57,1.01-0.6,1.42c0,0.04-0.01,0.08-0.03,0.11
				C592.17,412.78,593.26,413.07,593.42,412.38L593.42,412.38z"/>
		</g>
		<g>
			<path class="st2" d="M593.54,415.59c4.68-1.74,9.52-3.14,14.35-4.42c10.87-2.9,22-5.03,33.22-5.88
				c7.1-0.54,14.26-0.54,21.34,0.26c0.71,0.08,0.71-1.03,0-1.11c-12.44-1.42-25.05-0.38-37.35,1.76
				c-9.09,1.58-18.09,3.81-26.87,6.61c-1.68,0.53-3.35,1.08-5,1.7C592.58,414.76,592.87,415.84,593.54,415.59L593.54,415.59z"/>
		</g>
		<g>
			<path class="st2" d="M729.5,78.55c15.62-0.96,31.81,1.58,46.1,8.07c14.55,6.6,26.21,17.87,39.96,25.8
				c8.14,4.68,16.98,7.89,25.79,11.05c0.1-0.36,0.19-0.71,0.29-1.07c-3.63-1.24-7.98-1.18-11.76-1.14
				c-3.53,0.03-8.53-0.1-11.56,2.06c-2.67,1.9-0.15,5.21,1.24,7.1c3.02,4.1,6.66,7.73,10.16,11.41c9.3,9.78,15.97,22.3,20.81,34.82
				c2.85,7.38,5,15.06,6.16,22.89c1.31,8.85,1.25,17.81,2.03,26.71c1.43,16.48,6.85,33.92,20.33,44.55
				c0.08-0.31,0.17-0.63,0.25-0.93c-3.14,1.26-6.61,1.47-9.82,0.26c-2.64-0.99-4.88-2.86-7.59-3.68c-3.71-1.13-6.91,0.82-8.55,4.13
				c-1.72,3.46-2.11,7.45-2.68,11.21c-0.75,4.99-2.46,9.75-4.27,14.44c-4.71,12.24-11.57,23.19-20,33.21
				c-4.04,4.81-8.61,9.21-12.49,14.16c-3.49,4.43-6.18,9.41-8.46,14.56c-2.68,6.06-5.03,12.32-7.17,18.59
				c-2.29,6.7-3.92,13.65-2.93,20.75c0.22-0.22,0.46-0.46,0.68-0.68c-5.49-1.58-5.52-8.13-4.71-12.7c0.4-2.31,1.08-5.81-1.15-7.46
				c-2.6-1.92-5.91,2.22-7.29,3.92c-2.92,3.56-5.31,7.53-7.66,11.48c-3.47,5.85-7.41,11.46-11.26,17.08
				c-2.7,3.93-5.46,7.82-8.32,11.63c-0.75,1-1.85,3.1-3.49,2.71c-1.07-0.26-2.06-1.54-2.79-2.26c-1.81-1.78-3.61-3.54-5.42-5.32
				c-7.23-7.09-14.45-14.19-21.68-21.27c-3.56-3.5-6.91-7.04-10.23-10.75c-3.27-3.65-6.66-7.32-10.55-10.32
				c-2.42-1.86-7-5.13-9.81-2.11c-2.42,2.58-1.7,6.88-2.06,10.07c-0.53,4.67-4.11,9.49-9.2,9.24c0.18,0.24,0.36,0.47,0.54,0.71
				c3.52-12.1-0.75-24.79-6.99-35.24c-6.52-10.91-14.09-21.15-20.72-32c-3.28-5.38-6.36-10.88-9.05-16.58
				c-2.47-5.24-4.95-10.81-6.32-16.45c-1.57-6.45-2.1-13.21-4.89-19.31c-0.9-1.99-2.61-4.92-5.25-4.15
				c-2.49,0.71-3.6,3.57-4.57,5.68c-1.74,3.74-3.47,7.48-5.21,11.23c0.25-0.07,0.51-0.14,0.76-0.19c-1.74-1.1-1.85-3.32-1.88-5.17
				c-0.04-2.32-0.01-4.65-0.01-6.99c-0.01-4.85,0-9.7,0.03-14.55c0.07-9.48,0.24-18.97,0.69-28.43c0.88-18.3,2.86-36.54,6.68-54.48
				c3.39-15.88,8.18-31.72,16.15-45.95c3.88-6.93,8.49-13.46,14.21-19.01c5.74-5.56,12.34-10.2,19.27-14.15
				C690.84,85.94,709.98,79.85,729.5,78.55c0.71-0.04,0.72-1.17,0-1.11c-17.81,1.19-35.13,6.32-51.01,14.44
				c-7.21,3.68-14.13,8.02-20.34,13.23c-6.25,5.24-11.48,11.38-15.83,18.26c-8.96,14.16-14.38,30.35-18.15,46.59
				c-4.18,18.02-6.45,36.42-7.49,54.87c-0.63,11.05-0.85,22.11-0.92,33.17c-0.04,5.64-0.03,11.28-0.01,16.92
				c0.01,3.25-0.83,8.36,2.45,10.42c0.24,0.15,0.64,0.07,0.76-0.19c1.4-3.03,2.82-6.07,4.22-9.1c1.01-2.18,2.2-6.43,4.81-7.27
				c2.47-0.78,3.96,3.2,4.61,4.89c2.24,5.82,2.75,12.03,4.31,18.02c2.81,10.75,8.3,21.08,13.94,30.58
				c6.02,10.14,12.83,19.77,19.2,29.69c7.42,11.53,13.94,25.19,9.89,39.17c-0.11,0.36,0.18,0.68,0.54,0.71
				c3.18,0.15,5.96-1.51,7.84-4.02c2.32-3.08,2.47-6.46,2.67-10.17c0.11-2.11,0.43-6.03,3.24-6.32c1.76-0.18,3.6,0.96,5,1.89
				c7.78,5.16,13.23,13.28,19.83,19.76c7.06,6.93,14.12,13.87,21.18,20.79c1.81,1.78,3.61,3.54,5.42,5.32
				c1.57,1.54,3.07,3.31,4.82,4.65c3.13,2.4,5.03-0.89,6.77-3.21c5.84-7.82,11.23-15.98,16.63-24.11c2.17-3.27,4.03-6.7,6.18-9.98
				c1.47-2.24,3.03-4.47,4.85-6.45c0.89-0.96,2.81-3.2,4.35-2.61c1.49,0.56,1.49,2.96,1.38,4.22c-0.21,2.5-0.94,4.88-0.83,7.42
				c0.17,3.84,2.04,7.74,5.97,8.87c0.44,0.13,0.74-0.29,0.68-0.68c-0.93-6.66,0.61-13.26,2.72-19.54
				c1.86-5.54,3.96-11.05,6.21-16.45c2.2-5.28,4.72-10.45,8.06-15.1c3.52-4.92,7.99-9.14,11.94-13.71
				c7.93-9.2,14.87-19.09,19.8-30.24c2.32-5.22,4.47-10.7,5.88-16.26c0.89-3.47,1.04-7.11,1.86-10.6c1.1-4.64,3.81-9.71,9.45-7.5
				c2.85,1.11,5.22,3.11,8.24,3.86c3.02,0.74,6.13,0.46,8.99-0.71c0.33-0.14,0.61-0.64,0.25-0.93
				c-11.73-9.25-17.55-24.14-19.44-38.59c-1.08-8.24-1.11-16.56-1.79-24.83c-0.64-7.77-2.1-15.4-4.4-22.83
				c-2.15-6.93-4.97-13.66-8.32-20.11c-3.13-6.04-6.6-12.31-10.85-17.65c-2.72-3.42-5.96-6.43-8.92-9.64
				c-1.71-1.85-3.42-3.72-4.96-5.72c-1.04-1.35-2.35-2.92-2.78-4.6c-1.36-5.27,20.01-3.58,23.02-2.56c0.68,0.24,0.96-0.83,0.29-1.07
				c-8.16-2.92-16.34-5.86-23.96-10.05c-7.09-3.89-13.59-8.75-20.13-13.48c-6.49-4.68-13.1-9.3-20.37-12.73
				c-6.96-3.28-14.38-5.57-21.94-7.03c-8.48-1.63-17.15-2.21-25.76-1.68C728.79,77.48,728.78,78.59,729.5,78.55z"/>
		</g>
		<g>
			<path class="st2" d="M833.31,267.4c-2.83,18.91-12.71,36.49-27.18,48.95c-4.1,3.53-8.56,6.61-13.3,9.21
				c0.28,0.17,0.56,0.32,0.83,0.49c0.78-9.02,2-17.98,3.64-26.89c0.13-0.69-0.94-1-1.07-0.29c-1.67,8.99-2.89,18.06-3.68,27.18
				c-0.04,0.44,0.5,0.67,0.83,0.49c16.9-9.3,30.06-24.8,36.84-42.82c1.95-5.18,3.33-10.55,4.15-16.01
				C834.49,266.99,833.42,266.69,833.31,267.4L833.31,267.4z"/>
		</g>
		<g>
			<path class="st2" d="M812.59,296.12c6.64-9.59,10.82-20.66,12.27-32.24c0.08-0.71-1.03-0.71-1.11,0
				c-1.4,11.37-5.59,22.26-12.12,31.67C811.22,296.15,812.19,296.7,812.59,296.12L812.59,296.12z"/>
		</g>
		<g>
			<path class="st2" d="M815.44,269.08c3.46-9.46,5.29-19.44,5.42-29.5c0.01-0.72-1.1-0.72-1.11,0c-0.13,9.98-1.95,19.84-5.38,29.21
				C814.12,269.47,815.19,269.75,815.44,269.08L815.44,269.08z"/>
		</g>
		<g>
			<path class="st2" d="M778.45,232.77c-6.86,11.24-11.17,24.51-21.43,33.33c-5.04,4.35-10.94,6.64-17.58,6.96
				c-6.74,0.32-13.48-0.38-20.05,1.57c-6.03,1.78-11.46,5.72-13.8,11.73c-0.26,0.67,0.82,0.96,1.07,0.29
				c2.36-6.06,8.17-9.75,14.27-11.28c6.91-1.72,13.95-0.63,20.94-1.36c12.03-1.26,20.56-10.28,26.43-20.2
				c3.95-6.68,7.04-13.83,11.09-20.45C779.79,232.72,778.83,232.16,778.45,232.77L778.45,232.77z"/>
		</g>
		<g>
			<path class="st2" d="M692.98,294.84c1.39-9.67,7.03-18.41,15.34-23.58c0.61-0.38,0.04-1.35-0.56-0.96
				c-8.52,5.32-14.42,14.3-15.84,24.25C691.8,295.24,692.87,295.55,692.98,294.84L692.98,294.84z"/>
		</g>
		<g>
			<path class="st2" d="M716.59,269.07c4.32-0.93,8.7-1.5,13.1-1.71c0.71-0.03,0.72-1.15,0-1.11c-4.52,0.22-8.99,0.81-13.39,1.75
				C715.59,268.15,715.88,269.22,716.59,269.07L716.59,269.07z"/>
		</g>
		<g>
			<path class="st2" d="M662.55,288.87c8.02,7.36,10.53,18.42,15.76,27.61c2.68,4.7,6.24,8.38,10.23,11.99
				c4.13,3.74,8.35,7.71,9.74,13.31c1.51,6.1-0.24,12.81-4.6,17.33c0.32,0.13,0.64,0.26,0.94,0.39c0.15-8.06-6.48-13.9-12.26-18.52
				c-0.56-0.44-1.35,0.33-0.79,0.79c5.52,4.42,12.07,10,11.92,17.73c-0.01,0.47,0.61,0.74,0.94,0.39c3.63-3.75,5.56-8.91,5.45-14.12
				c-0.13-5.64-2.77-10.38-6.63-14.35c-4.15-4.28-8.99-7.77-12.34-12.78c-3.17-4.74-5.28-10.06-7.61-15.23
				c-2.53-5.6-5.42-11.12-10-15.33C662.82,287.6,662.03,288.38,662.55,288.87L662.55,288.87z"/>
		</g>
		<g>
			<path class="st2" d="M652.73,302.79c2.72,4.54,5.45,9.09,8.18,13.63c0.36,0.61,1.33,0.06,0.96-0.56
				c-2.72-4.54-5.45-9.09-8.18-13.63C653.33,301.61,652.35,302.18,652.73,302.79L652.73,302.79z"/>
		</g>
		<g>
			<path class="st2" d="M664.65,326.19c2.86,5.54,5.71,11.1,8.57,16.65c0.33,0.64,1.29,0.07,0.96-0.56
				c-2.86-5.54-5.71-11.1-8.57-16.65C665.29,324.99,664.33,325.55,664.65,326.19L664.65,326.19z"/>
		</g>
		<g>
			<path class="st2" d="M695.75,316.27c8.17,5.59,14.55,13.69,18.08,22.93c1.88,4.89,2.75,9.94,3.21,15.13
				c0.46,5.24,0.75,10.63,2.86,15.52c1.93,4.46,5.29,8.38,10.07,9.77c0.69,0.19,0.99-0.88,0.29-1.07
				c-11.35-3.29-11.35-17.52-12.38-26.96c-1.01-9.35-4.5-18.2-10.27-25.65c-3.2-4.13-7-7.7-11.31-10.64
				C695.72,314.89,695.17,315.86,695.75,316.27L695.75,316.27z"/>
		</g>
		<g>
			<path class="st2" d="M708.42,368c4.49,5.89,9.8,11.09,15.81,15.4c6.06,4.32,14.83,7.57,16.87,15.52c0.18,0.69,1.25,0.4,1.07-0.29
				c-1.93-7.49-9.41-10.85-15.31-14.77c-6.7-4.45-12.62-10.02-17.49-16.42C708.95,366.87,707.99,367.43,708.42,368L708.42,368z"/>
		</g>
		<g>
			<path class="st2" d="M783.82,287.36c1.56,5.32-0.24,10.78-2.68,15.55c-2.36,4.59-5.34,8.82-8.39,12.96
				c-5.96,8.11-12.3,16.22-14.99,26.1c-1.42,5.2-1.68,10.66-0.21,15.88c0.28-0.21,0.54-0.42,0.82-0.63
				c-8.71-4.35-15.27-12.56-17.42-22.08c-2.28-10.03,0.63-20.91,7.36-28.64c0.47-0.54-0.32-1.33-0.79-0.79
				c-5.42,6.21-8.46,14.3-8.45,22.54c0,7.93,2.99,15.6,8.13,21.62c2.95,3.45,6.56,6.28,10.62,8.3c0.42,0.21,0.96-0.14,0.82-0.63
				c-2.9-10.21,1.22-20.75,6.7-29.32c5.54-8.68,12.7-16.35,17.23-25.66c2.33-4.79,3.89-10.23,2.33-15.49
				C784.68,286.39,783.61,286.68,783.82,287.36L783.82,287.36z"/>
		</g>
		<g>
			<path class="st2" d="M758.75,314.81c5.45-6,9.8-12.87,12.91-20.34c0.28-0.67-0.81-0.94-1.07-0.29
				c-3.04,7.29-7.31,14.01-12.63,19.86C757.47,314.54,758.26,315.34,758.75,314.81L758.75,314.81z"/>
		</g>
		<g>
			<path class="st2" d="M775.7,285.66c2.54-14.65,5.63-31.18,18.37-40.62c0.57-0.42,0.01-1.39-0.56-0.96
				c-13.02,9.64-16.29,26.28-18.88,41.28C774.51,286.06,775.58,286.36,775.7,285.66L775.7,285.66z"/>
		</g>
		<g>
			<path class="st2" d="M725.12,291.81c-4.14,6.38-5.36,14.28-3.38,21.62c0.18,0.69,1.26,0.4,1.07-0.29
				c-1.92-7.06-0.72-14.62,3.27-20.76C726.47,291.77,725.51,291.21,725.12,291.81L725.12,291.81z"/>
		</g>
		<g>
			<path class="st2" d="M791.51,349.92c-4.61,15.65-21.36,22.91-30.28,35.63c-2.49,3.54-4.32,7.48-5.06,11.76
				c-0.13,0.69,0.94,1,1.07,0.29c2.83-16.38,19.9-24.3,29.4-36.34c2.63-3.32,4.72-6.99,5.92-11.06
				C792.78,349.52,791.71,349.23,791.51,349.92L791.51,349.92z"/>
		</g>
		<g>
			<path class="st2" d="M768.46,366.41c9.2-7.98,16.97-17.49,22.93-28.12c0.35-0.63-0.61-1.18-0.96-0.56
				c-5.91,10.55-13.6,19.98-22.75,27.9C767.14,366.09,767.92,366.89,768.46,366.41L768.46,366.41z"/>
		</g>
		<g>
			<path class="st2" d="M838.9,292.63c6.96-14.24,6.35-30.47,5.59-45.9c-0.04-0.71-1.15-0.72-1.11,0
				c0.75,15.2,1.43,31.29-5.43,45.34C837.62,292.71,838.58,293.28,838.9,292.63L838.9,292.63z"/>
		</g>
		<g>
			<path class="st2" d="M811.93,139.88c8.31,3.88,13.65,11.88,16.7,20.27c3.61,9.94,4.34,20.59,6.75,30.82
				c0.96,4.07,3.27,9.62,8.48,8.5c0.61-0.13,0.49-1.14-0.15-1.1c-7.82,0.65-16.38,1.32-23.33-3.06c-6.59-4.15-8.27-11.84-8.49-19.12
				c-0.03-0.71-1.14-0.72-1.11,0c0.22,7.35,1.9,15.08,8.27,19.56c7.17,5.06,16.38,4.43,24.68,3.72c-0.06-0.36-0.1-0.72-0.15-1.1
				c-5.86,1.25-7.07-7.29-7.88-11.21c-1.04-5.11-1.81-10.28-2.82-15.4c-1.72-8.64-4.34-17.27-9.85-24.3
				c-2.83-3.61-6.36-6.61-10.53-8.56C811.84,138.62,811.27,139.58,811.93,139.88L811.93,139.88z"/>
		</g>
		<g>
			<path class="st2" d="M827.21,176.27c-1.83-2.65-2.25-5.82-2.89-8.89c-0.64-3.06-1.68-5.75-3.61-8.23
				c-3.68-4.71-8.87-9.14-14.65-10.91c-0.68-0.21-0.99,0.86-0.29,1.07c3.14,0.96,5.91,2.7,8.41,4.81c2.35,1.99,4.71,4.21,6.45,6.77
				c3.28,4.84,2.35,11.17,5.64,15.97C826.65,177.43,827.63,176.87,827.21,176.27L827.21,176.27z"/>
		</g>
		<g>
			<path class="st2" d="M788.99,166.92c-0.97,11.28,4.74,21.95,13.01,29.28c4.14,3.67,8.88,6.61,13.85,9
				c5.42,2.6,11.26,4.35,16.45,7.41c5.59,3.29,10.06,8.17,12.98,13.95c0.32,0.64,1.28,0.08,0.96-0.56
				c-2.36-4.68-5.72-8.78-9.88-11.98c-4.5-3.46-9.8-5.45-14.99-7.59c-10.56-4.34-20.81-10.7-26.75-20.77
				c-3.33-5.66-5.1-12.16-4.53-18.74C790.17,166.21,789.04,166.21,788.99,166.92L788.99,166.92z"/>
		</g>
		<g>
			<path class="st2" d="M789.85,195.39c1.97,6.09,6.07,11.23,11.59,14.48c0.61,0.36,1.18-0.6,0.56-0.96c-5.25-3.1-9.2-8-11.07-13.81
				C790.69,194.42,789.62,194.71,789.85,195.39L789.85,195.39z"/>
		</g>
		<g>
			<path class="st2" d="M814.33,217.53c6.59,5.86,19.59,6.92,21.77,16.88c0.15,0.69,1.22,0.4,1.07-0.29
				c-2.28-10.39-15.24-11.3-22.07-17.37C814.58,216.26,813.79,217.06,814.33,217.53L814.33,217.53z"/>
		</g>
		<g>
			<path class="st2" d="M852.64,242.59c1,3.82,1.54,7.71,1.58,11.67c0.01,0.71,1.13,0.72,1.11,0c-0.06-4.04-0.6-8.05-1.63-11.96
				C853.53,241.61,852.46,241.9,852.64,242.59L852.64,242.59z"/>
		</g>
		<g>
			<path class="st2" d="M748.27,119c5.41,0.71,9.82,4.57,12.39,9.24c3,5.45,3.57,11.85,3.65,17.97c0.01,0.71,1.13,0.72,1.11,0
				c-0.1-6.57-0.76-13.52-4.24-19.27c-2.83-4.7-7.39-8.31-12.92-9.03C747.56,117.79,747.56,118.91,748.27,119L748.27,119z"/>
		</g>
		<g>
			<path class="st2" d="M767.57,124.21c4.06,5.86,5.74,12.58,5.54,19.65c-0.17,6.42-1.17,13.01,1.51,19.06
				c0.29,0.65,1.25,0.08,0.96-0.56c-2.88-6.49-1.28-13.73-1.35-20.55c-0.07-6.52-2.01-12.8-5.72-18.16
				C768.13,123.05,767.16,123.61,767.57,124.21L767.57,124.21z"/>
		</g>
		<g>
			<path class="st2" d="M777.04,170.66c0.96,3.2,2.32,6.23,4.07,9.06c0.38,0.61,1.33,0.06,0.96-0.56c-1.71-2.75-3.03-5.68-3.96-8.8
				C777.91,169.69,776.84,169.98,777.04,170.66L777.04,170.66z"/>
		</g>
		<g>
			<path class="st2" d="M722.8,97.31c2.07-3.74,6.14-5.53,10.12-6.57c4.7-1.24,9.64-1.6,14.46-1.06c4.93,0.56,9.7,2.07,14.55,3.08
				c4.63,0.96,9.32,1.46,14.03,1.53c-0.17-0.28-0.32-0.56-0.49-0.83c-1.21,2.81-3.15,5.22-5.71,6.92c-2.92,1.93-6.13,2.47-9.56,2.67
				c-5.02,0.28-11.89,0.9-13.41,6.81c-0.18,0.69,0.89,0.99,1.07,0.29c1.81-7.07,11.41-5.41,16.73-6.46
				c5.25-1.03,9.74-4.77,11.84-9.67c0.17-0.38-0.01-0.83-0.49-0.83c-5.38-0.08-10.69-0.76-15.92-1.97
				c-4.92-1.14-9.78-2.54-14.84-2.82c-4.82-0.26-9.8,0.29-14.4,1.81c-3.61,1.18-7.07,3.14-8.98,6.56
				C721.5,97.38,722.46,97.93,722.8,97.31L722.8,97.31z"/>
		</g>
		<g>
			<path class="st2" d="M740.42,116.62c-0.76-3.54-0.26-7.14,1.42-10.35c0.33-0.64-0.63-1.19-0.96-0.56
				c-1.82,3.49-2.35,7.36-1.53,11.21C739.49,117.61,740.56,117.32,740.42,116.62L740.42,116.62z"/>
		</g>
		<g>
			<path class="st2" d="M748.55,101.1c2.1-0.9,4.28-1.42,6.56-1.57c0.71-0.04,0.72-1.17,0-1.11c-2.49,0.17-4.84,0.75-7.11,1.72
				C747.33,100.42,747.9,101.38,748.55,101.1L748.55,101.1z"/>
		</g>
		<g>
			<path class="st2" d="M783.66,104.55c8.59,2.15,16.72,5.75,24.09,10.67c0.6,0.4,1.15-0.57,0.56-0.96
				c-7.45-4.96-15.67-8.6-24.36-10.78C783.26,103.3,782.97,104.37,783.66,104.55L783.66,104.55z"/>
		</g>
		<g>
			<path class="st2" d="M779.91,111.95c5.86,3.2,9.7,8.77,12.76,14.53c2.42,4.56,4.31,11.32,9.88,12.94
				c0.69,0.19,0.99-0.88,0.29-1.07c-3.03-0.88-4.77-3.6-6.14-6.24c-1.4-2.72-2.65-5.53-4.18-8.2c-2.96-5.18-6.73-10.02-12.05-12.91
				C779.84,110.65,779.27,111.61,779.91,111.95L779.91,111.95z"/>
		</g>
		<g>
			<path class="st2" d="M788.55,133.42c0.86,3.7,2.4,7.14,4.6,10.25c0.4,0.58,1.38,0.03,0.96-0.56c-2.14-3.03-3.64-6.38-4.47-9.99
				C789.46,132.43,788.39,132.73,788.55,133.42L788.55,133.42z"/>
		</g>
		<g>
			<path class="st2" d="M796.38,150.98c1.03,2.71,1.39,5.53,1.1,8.41c-0.07,0.71,1.04,0.71,1.11,0c0.31-2.97-0.07-5.91-1.13-8.71
				C797.2,150.03,796.13,150.32,796.38,150.98L796.38,150.98z"/>
		</g>
		<g>
			<path class="st2" d="M799.24,168.35c0.21,4.81,1.58,9.41,4.06,13.53c0.36,0.61,1.33,0.06,0.96-0.56
				c-2.36-3.96-3.7-8.36-3.9-12.98C800.32,167.63,799.2,167.63,799.24,168.35L799.24,168.35z"/>
		</g>
		<g>
			<path class="st2" d="M630.27,193.59c-2.13,7.13-2.93,14.58-2.36,22c0.06,0.71,1.17,0.71,1.11,0c-0.56-7.34,0.22-14.66,2.33-21.7
				C631.55,193.2,630.48,192.91,630.27,193.59L630.27,193.59z"/>
		</g>
		<g>
			<path class="st2" d="M626.9,226.87c-0.99,7.18-1.26,14.42-0.78,21.65c0.04,0.71,1.17,0.72,1.11,0
				c-0.47-7.13-0.24-14.28,0.74-21.36C628.08,226.46,627.01,226.16,626.9,226.87L626.9,226.87z"/>
		</g>
		<g>
			<path class="st2" d="M669.31,202.17c3.02,8.92,0.32,19.16-6.71,25.43c-0.54,0.47,0.25,1.26,0.79,0.79
				c7.29-6.52,10.13-17.24,6.99-26.51C670.15,201.2,669.08,201.49,669.31,202.17L669.31,202.17z"/>
		</g>
		<g>
			<path class="st2" d="M660.91,213.4c-5.88,11.63-10.05,24.66-8.6,37.84c0.63,5.71,2.25,11.32,5.03,16.37
				c2.85,5.16,6.89,9.23,11.57,12.77c5.5,4.15,11.52,7.73,15.98,13.08c0.46,0.56,1.24-0.24,0.79-0.79
				c-7.43-8.91-19.09-13.06-25.68-22.83c-6.89-10.23-8.11-23.18-5.7-35.03c1.49-7.27,4.22-14.21,7.56-20.83
				C662.19,213.33,661.23,212.76,660.91,213.4L660.91,213.4z"/>
		</g>
		<g>
			<path class="st2" d="M641.42,261.21c2.5,8.45,3.86,17.16,4.03,25.97c0.01,0.71,1.13,0.72,1.11,0
				c-0.17-8.91-1.53-17.73-4.07-26.26C642.29,260.23,641.21,260.52,641.42,261.21L641.42,261.21z"/>
		</g>
		<g>
			<path class="st2" d="M675.96,111.94c-16.22,5.43-17.94,25.47-23.36,39c-1.88,4.67-4.39,9.07-8.09,12.55
				c-0.42,0.39,0.01,1.07,0.54,0.93c9.84-2.7,20.62-5.79,27.71-13.62c3.47-3.82,5.35-8.56,7.35-13.24
				c2.04-4.79,4.46-9.75,9.21-12.37c5.81-3.18,12.95-2.28,19.23-1.45c0.71,0.1,0.69-1.01,0-1.11c-5.5-0.74-11.37-1.43-16.77,0.31
				c-4.91,1.57-8.28,5.21-10.62,9.68c-2.38,4.56-3.82,9.56-6.56,13.94c-2.9,4.63-7.29,8-12.09,10.49c-5.6,2.89-11.7,4.64-17.76,6.31
				c0.18,0.31,0.36,0.63,0.54,0.93c12.23-11.46,10.75-30.35,20.51-43.37c2.68-3.57,6.18-6.46,10.45-7.89
				C676.93,112.79,676.64,111.72,675.96,111.94L675.96,111.94z"/>
		</g>
		<g>
			<path class="st2" d="M667.33,143.33c3.7-5.09,6.71-10.59,9.05-16.42c0.26-0.67-0.81-0.96-1.07-0.29
				c-2.29,5.74-5.29,11.16-8.93,16.16C665.96,143.36,666.92,143.91,667.33,143.33L667.33,143.33z"/>
		</g>
		<g>
			<path class="st2" d="M684.09,120.04c11.95-6.99,27.05-5.07,40.02-2.68c0.69,0.13,1-0.94,0.29-1.07
				c-13.27-2.45-28.64-4.35-40.88,2.79C682.91,119.44,683.47,120.4,684.09,120.04L684.09,120.04z"/>
		</g>
		<g>
			<path class="st2" d="M724.32,130.91c-2.6,7.21-6.75,13.74-12.16,19.19c-0.5,0.51,0.28,1.29,0.79,0.79
				c5.54-5.57,9.78-12.28,12.45-19.68C725.64,130.53,724.55,130.24,724.32,130.91L724.32,130.91z"/>
		</g>
		<g>
			<path class="st2" d="M703.88,141.83c-1.14,9.39-10.5,14.06-18.84,15.65c-4.31,0.81-8.78,1.08-12.78,3.04
				c-3.22,1.57-5.93,4.13-7.85,7.13c-2.17,3.4-3.28,7.39-3.1,11.44c0.03,0.71,1.14,0.72,1.11,0c-0.35-8.03,4.79-15.83,12.45-18.44
				c4.34-1.47,8.99-1.58,13.41-2.75c3.97-1.04,7.85-2.74,10.95-5.47c3.11-2.75,5.27-6.43,5.78-10.59
				C705.07,141.12,703.96,141.12,703.88,141.83L703.88,141.83z"/>
		</g>
		<g>
			<path class="st2" d="M648.78,176.59c1.07,11.67,0.89,23.43-0.53,35.06c-0.08,0.71,1.03,0.71,1.11,0
				c1.42-11.64,1.6-23.39,0.53-35.06C649.84,175.88,648.71,175.88,648.78,176.59L648.78,176.59z"/>
		</g>
		<g>
			<path class="st2" d="M639.97,180.16c-0.64,8.05-0.54,16.12,0.26,24.15c0.76,7.67,1.88,15.56-0.57,23.05
				c-0.19,0.58,0.54,0.85,0.93,0.54c6.18-4.9,11.91-10.39,17.01-16.44c2.25-2.67,4.29-5.52,5.18-8.95c0.97-3.79,0.69-7.75,0.4-11.6
				c-0.06-0.71-1.17-0.71-1.11,0c0.28,3.75,0.58,7.63-0.38,11.31c-0.97,3.77-3.42,6.77-5.91,9.64c-4.84,5.57-10.2,10.67-15.99,15.26
				c0.31,0.18,0.63,0.36,0.93,0.54c2.42-7.41,1.43-15.22,0.67-22.8c-0.83-8.21-0.97-16.45-0.32-24.69
				C641.14,179.46,640.03,179.46,639.97,180.16L639.97,180.16z"/>
		</g>
		<g>
			<path class="st2" d="M657.94,193.04c0-2.99,0-5.96,0-8.95c0-0.72-1.11-0.72-1.11,0c0,2.99,0,5.96,0,8.95
				C656.83,193.77,657.94,193.77,657.94,193.04L657.94,193.04z"/>
		</g>
		<g>
			<path class="st2" d="M633.8,171.59c0.56-7.06,1.95-13.99,4.14-20.72c0.22-0.68-0.85-0.97-1.07-0.29
				c-2.22,6.82-3.61,13.87-4.18,21.02C632.64,172.3,633.75,172.3,633.8,171.59L633.8,171.59z"/>
		</g>
		<g>
			<path class="st2" d="M645.3,141.98c1.88-6.02,4.53-11.71,7.91-17.02c0.39-0.61-0.58-1.17-0.96-0.56
				c-3.43,5.39-6.11,11.2-8.02,17.3C644,142.37,645.07,142.66,645.3,141.98L645.3,141.98z"/>
		</g>
		<g>
			<path class="st2" d="M664.39,113.26c5.09-8.27,15.28-11.46,24.54-11.42c5.95,0.03,11.82,1.24,17.61,2.56
				c5.32,1.21,10.7,2.75,16.16,3.2c4.5,0.36,9.49-0.29,12.31-4.21c0.42-0.58-0.54-1.14-0.96-0.56c-2.89,4-8.48,4.07-12.91,3.49
				c-5.82-0.78-11.52-2.42-17.24-3.64c-9.71-2.07-19.93-3.18-29.32,0.79c-4.56,1.93-8.52,5-11.13,9.24
				C663.05,113.3,664.01,113.86,664.39,113.26L664.39,113.26z"/>
		</g>
		<g>
			<path class="st2" d="M700.9,92.67c5.56,0.99,11.26-0.31,15.8-3.7c0.57-0.42,0.01-1.39-0.56-0.96c-4.29,3.2-9.66,4.52-14.94,3.57
				C700.5,91.46,700.2,92.53,700.9,92.67L700.9,92.67z"/>
		</g>
		<g>
			<path class="st2" d="M725.54,85.07c5.17-0.72,10.39-0.9,15.6-0.58c0.71,0.04,0.71-1.07,0-1.11c-5.32-0.33-10.63-0.11-15.91,0.63
				C724.54,84.09,724.83,85.16,725.54,85.07L725.54,85.07z"/>
		</g>
		<g>
			<path class="st2" d="M792.47,260.7c9.43-8.16,17.77-20.84,12.55-33.67c-0.26-0.65-1.35-0.38-1.07,0.29
				c5.07,12.48-3.11,24.68-12.27,32.58C791.14,260.38,791.93,261.17,792.47,260.7L792.47,260.7z"/>
		</g>
		<g>
			<path class="st2" d="M799.16,229.3c-1.21-4.02-3.71-7.41-7.17-9.77c-0.6-0.4-1.15,0.56-0.56,0.96c3.22,2.2,5.54,5.38,6.67,9.1
				C798.28,230.28,799.36,229.99,799.16,229.3L799.16,229.3z"/>
		</g>
		<g>
			<path class="st2" d="M753.68,345.24c-3.67-7.34-2.97-16.33,1.71-23.05c0.4-0.58-0.56-1.15-0.96-0.56
				c-4.9,7.06-5.53,16.51-1.71,24.18C753.04,346.45,754,345.88,753.68,345.24L753.68,345.24z"/>
		</g>
		<g>
			<path class="st2" d="M756.48,169.02c2.6,2.63,4.63,5.16,5.49,8.82c0.88,3.75,1.42,7.61,1.81,11.44c0.07,0.71,1.18,0.71,1.11,0
				c-0.43-4.1-0.96-8.27-1.97-12.26c-0.92-3.61-3.07-6.2-5.64-8.8C756.78,167.71,755.98,168.51,756.48,169.02L756.48,169.02z"/>
		</g>
		<g>
			<path class="st2" d="M757.98,182.08c1.03,8.48,0.81,17.04-0.68,25.44c-0.13,0.69,0.94,1,1.07,0.29c1.5-8.5,1.76-17.16,0.72-25.73
				C759.01,181.39,757.9,181.37,757.98,182.08L757.98,182.08z"/>
		</g>
		<g>
			<path class="st2" d="M769.55,192.11c-0.11,11.32-4.24,22.4-11.57,31.03c-0.46,0.54,0.32,1.33,0.79,0.79
				c7.53-8.87,11.78-20.18,11.91-31.82C770.67,191.41,769.56,191.39,769.55,192.11L769.55,192.11z"/>
		</g>
		<g>
			<path class="st2" d="M690,212.68c1.56,2.06,4.32,2.04,6.53,1.11c2.83-1.19,4.79-3.75,6.13-6.45c1.53-3.07,2.56-6.36,4.17-9.41
				c1.68-3.17,3.84-6.09,6.74-8.21c0.57-0.42,0.01-1.39-0.56-0.96c-4.43,3.25-7.13,8.05-9.2,13.03c-1.22,2.93-2.25,6.11-4.4,8.52
				c-1.76,1.96-6.23,4.72-8.43,1.79C690.52,211.55,689.57,212.11,690,212.68L690,212.68z"/>
		</g>
		<g>
			<path class="st2" d="M700.65,199.48c1.75-5.97,5.18-11.26,9.92-15.28c0.54-0.46-0.25-1.25-0.79-0.79
				c-4.88,4.15-8.41,9.63-10.2,15.77C699.38,199.87,700.45,200.16,700.65,199.48L700.65,199.48z"/>
		</g>
		<g>
			<path class="st2" d="M555.38,303.75c5.59-4.35,11.71-7.96,18.2-10.78c0.65-0.28,0.08-1.25-0.56-0.96
				c-6.59,2.86-12.76,6.54-18.42,10.96C554.03,303.4,554.82,304.19,555.38,303.75L555.38,303.75z"/>
		</g>
		<g>
			<path class="st2" d="M539.93,320.5c8.85-6.2,18.11-11.77,27.72-16.7c0.64-0.33,0.07-1.29-0.56-0.96
				c-9.62,4.93-18.87,10.5-27.72,16.7C538.79,319.96,539.34,320.92,539.93,320.5L539.93,320.5z"/>
		</g>
		<g>
			<path class="st2" d="M574.92,299.19c3.35-1.81,6.77-3.49,10.25-5.02c0.65-0.29,0.08-1.25-0.56-0.96
				c-3.49,1.54-6.91,3.21-10.25,5.02C573.74,298.56,574.29,299.52,574.92,299.19L574.92,299.19z"/>
		</g>
		<g>
			<path class="st2" d="M670.01,407.07c1.96,4.49,4.31,8.8,7.04,12.87c0.4,0.6,1.36,0.04,0.96-0.56c-2.72-4.07-5.07-8.38-7.04-12.87
				C670.68,405.85,669.72,406.42,670.01,407.07L670.01,407.07z"/>
		</g>
		<g>
			<path class="st2" d="M676.93,409.07c2.79,5.34,6.1,10.69,7.63,16.56c1.56,5.93,1.35,12.14,1.14,18.23
				c-0.03,0.72,1.08,0.71,1.11,0c0.19-6.18,0.39-12.49-1.18-18.52c-1.56-5.97-4.92-11.41-7.75-16.83
				C677.56,407.88,676.6,408.43,676.93,409.07L676.93,409.07z"/>
		</g>
		<g>
			<path class="st2" d="M682.42,442.49c-0.11,3.14-0.24,6.29-0.35,9.43c-0.03,0.72,1.08,0.71,1.11,0c0.11-3.14,0.24-6.29,0.35-9.43
				C683.56,441.77,682.45,441.77,682.42,442.49L682.42,442.49z"/>
		</g>
		<g>
			<path class="st2" d="M787.37,505.75c1.92,4.28,4.31,8.31,7.16,12.05c0.43,0.57,1.39,0.01,0.96-0.56
				c-2.83-3.74-5.22-7.77-7.14-12.05C788.04,504.53,787.08,505.1,787.37,505.75L787.37,505.75z"/>
		</g>
		<g>
			<path class="st2" d="M794.85,510.83c4.31,7.07,9.35,13.65,15.05,19.63c0.5,0.51,1.28-0.26,0.79-0.79
				c-5.64-5.93-10.62-12.42-14.88-19.41C795.45,509.66,794.47,510.22,794.85,510.83L794.85,510.83z"/>
		</g>
		<g>
			<path class="st2" d="M802.06,530.21c2.83,5.28,6.48,10.03,10.82,14.15c0.51,0.49,1.31-0.29,0.79-0.79
				c-4.28-4.04-7.86-8.73-10.64-13.92C802.69,529.02,801.73,529.57,802.06,530.21L802.06,530.21z"/>
		</g>
		<g>
			<path class="st2" d="M851.19,560.49c1.53,3.28,1.97,6.88,1.31,10.44c-0.14,0.69,0.94,1,1.07,0.29c0.74-3.86,0.25-7.73-1.42-11.28
				C851.85,559.28,850.89,559.85,851.19,560.49L851.19,560.49z"/>
		</g>
		<g>
			<path class="st2" d="M837.3,557.21c3.42,3.72,2.71,8.95,1,13.28c-0.26,0.67,0.81,0.96,1.07,0.29c1.88-4.74,2.42-10.35-1.28-14.37
				C837.6,555.9,836.81,556.68,837.3,557.21L837.3,557.21z"/>
		</g>
		<g>
			<path class="st2" d="M691.19,563.99c-7.59,2.61-7.55,11.64-6.95,18.22c0.07,0.71,1.18,0.71,1.11,0
				c-0.56-5.99-0.92-14.73,6.13-17.15C692.15,564.84,691.87,563.75,691.19,563.99L691.19,563.99z"/>
		</g>
		<g>
			<path class="st2" d="M673.86,562.78c-6.18,3.72-7.57,11.23-6.75,17.9c0.08,0.69,1.2,0.71,1.11,0c-0.78-6.27,0.35-13.41,6.2-16.94
				C675.04,563.38,674.48,562.41,673.86,562.78L673.86,562.78z"/>
		</g>
		<g>
			<path class="st2" d="M757.76,556.78c5.96,3.57,5.27,11.34,4.52,17.26c-0.08,0.71,1.03,0.71,1.11,0
				c0.81-6.36,1.28-14.41-5.07-18.22C757.71,555.44,757.15,556.4,757.76,556.78L757.76,556.78z"/>
		</g>
		<g>
			<path class="st2" d="M769.77,553.96c6.28,3.96,6.5,13.06,4.28,19.34c-0.24,0.68,0.83,0.97,1.07,0.29
				c2.39-6.79,1.9-16.37-4.79-20.61C769.73,552.61,769.17,553.58,769.77,553.96L769.77,553.96z"/>
		</g>
		<g>
			<path class="st2" d="M538.94,580.68c-0.11-5.93,0.89-12.87,6.73-15.9c0.64-0.33,0.07-1.29-0.56-0.96
				c-6.2,3.21-7.39,10.53-7.28,16.85C537.83,581.4,538.94,581.4,538.94,580.68L538.94,580.68z"/>
		</g>
		<g>
			<path class="st2" d="M553.73,578.8c-0.79-5.09,1.31-10.35,5.41-13.48c0.56-0.43,0.01-1.39-0.56-0.96
				c-4.53,3.46-6.81,9.1-5.92,14.74C552.77,579.8,553.84,579.5,553.73,578.8L553.73,578.8z"/>
		</g>
		<g>
			<path class="st2" d="M427.39,478.9c8.77-7.74,16.81-18.41,14.49-30.82c-0.14-0.71-1.21-0.4-1.07,0.29
				c2.25,11.98-5.77,22.29-14.2,29.74C426.06,478.58,426.85,479.37,427.39,478.9L427.39,478.9z"/>
		</g>
		<g>
			<path class="st2" d="M442.29,469.63c2.63-3.17,3.93-7.02,4.47-11.06c0.61-4.57,0.6-9.48-0.46-13.98
				c-2.24-9.52-10.09-17.52-9.13-27.78c0.07-0.71-1.04-0.71-1.11,0c-0.88,9.48,5.61,17.06,8.46,25.59c1.5,4.49,1.71,9.32,1.36,14.02
				c-0.33,4.45-1.49,8.91-4.38,12.39C441.05,469.38,441.83,470.17,442.29,469.63L442.29,469.63z"/>
		</g>
		<g>
			<path class="st2" d="M417.65,401.29c3.95,4.04,7.07,8.87,9.06,14.16c2.07,5.53,2.56,11.48,4.13,17.15
				c1.6,5.78,3.68,11.63,3.2,17.7c-0.46,5.82-3.2,11.06-7.36,15.09c-4.32,4.17-8.98,7.57-10.89,13.52
				c-0.22,0.68,0.85,0.97,1.07,0.29c1.9-5.92,6.74-9.2,10.95-13.37c3.88-3.85,6.46-8.75,7.2-14.19c0.81-5.91-0.9-11.67-2.52-17.29
				c-0.9-3.13-1.65-6.25-2.25-9.45c-0.54-2.92-1.1-5.81-2.06-8.62c-2.03-5.92-5.38-11.31-9.75-15.8
				C417.93,400,417.15,400.79,417.65,401.29L417.65,401.29z"/>
		</g>
		<g>
			<path class="st2" d="M409.22,476.06c0.85-3.63,3.93-5.77,6.85-7.7c0.6-0.39,0.04-1.36-0.56-0.96c-3.17,2.1-6.46,4.45-7.36,8.36
				C407.98,476.46,409.05,476.77,409.22,476.06L409.22,476.06z"/>
		</g>
		<g>
			<path class="st2" d="M421.81,463.53c2.99-2.65,5.1-6.2,5.95-10.12c0.43-1.97,0.54-4.02,0.32-6.02c-0.28-2.49-0.97-4.89-1.08-7.39
				c-0.03-0.71-1.15-0.72-1.11,0c0.21,4.29,1.75,8.34,0.9,12.67c-0.76,3.9-2.78,7.42-5.75,10.06
				C420.49,463.22,421.28,464,421.81,463.53L421.81,463.53z"/>
		</g>
		<g>
			<path class="st2" d="M415.23,458.19c2.21-2.21,3.85-4.93,4.7-7.95c0.93-3.35,0.6-6.75,0.43-10.17c-0.1-1.89-0.11-3.81,0.29-5.67
				c0.39-1.78,1.18-3.42,1.82-5.11c1.29-3.4,1.96-6.99,2.1-10.63c0.03-0.72-1.08-0.71-1.11,0c-0.14,3.54-0.81,7.02-2.07,10.32
				c-1.21,3.2-2.25,6.02-2.21,9.48c0.04,3.45,0.65,6.92-0.06,10.32c-0.68,3.28-2.32,6.24-4.7,8.61
				C413.94,457.9,414.72,458.69,415.23,458.19L415.23,458.19z"/>
		</g>
		<g>
			<path class="st2" d="M585.23,451.17c-0.72,6-1.96,11.94-3.71,17.73c-0.21,0.68,0.86,0.99,1.07,0.29
				c1.76-5.89,3.02-11.91,3.75-18.02C586.42,450.47,585.31,450.47,585.23,451.17L585.23,451.17z"/>
		</g>
		<g>
			<path class="st2" d="M579.38,459.36c-2.47,9.95-5.75,19.68-9.82,29.07c-0.28,0.65,0.68,1.22,0.96,0.56
				c4.11-9.49,7.45-19.3,9.93-29.33C580.63,458.96,579.54,458.66,579.38,459.36L579.38,459.36z"/>
		</g>
		<g>
			<path class="st2" d="M578.28,480.72c-3.93,9.2-7.91,18.65-8,28.82c-0.01,0.72,1.11,0.72,1.11,0c0.1-9.95,3.99-19.24,7.85-28.25
				C579.52,480.63,578.56,480.06,578.28,480.72L578.28,480.72z"/>
		</g>
		<g>
			<path class="st2" d="M745.08,434.07c-2.13,4.24-4.59,8.28-7.36,12.13c-0.42,0.58,0.54,1.14,0.96,0.56
				c2.78-3.85,5.24-7.89,7.36-12.13C746.37,434,745.41,433.43,745.08,434.07L745.08,434.07z"/>
		</g>
		<g>
			<path class="st2" d="M737.48,436.52c-5.85,8.66-11.96,18.04-11.53,28.94c0.03,0.71,1.14,0.72,1.11,0
				c-0.43-10.7,5.64-19.88,11.38-28.37C738.84,436.49,737.86,435.93,737.48,436.52L737.48,436.52z"/>
		</g>
		<g>
			<path class="st2" d="M735.59,455.43c-0.51,1.25-1.18,2.43-1.97,3.53c-0.42,0.58,0.54,1.14,0.96,0.56
				c0.86-1.18,1.54-2.45,2.08-3.79C736.93,455.05,735.85,454.77,735.59,455.43L735.59,455.43z"/>
		</g>
	</g>
	<g>
		<polygon class="st1" points="723.64,99.92 731.14,88.11 730.85,102.21 747.08,102.55 733.28,108.24 735,118.09 726.39,111.09 
			715.99,117.71 723.09,105.46 716.37,99.77 		"/>
		<polygon class="st1" points="815.51,407.46 802.34,396.91 818.21,399.79 823.9,387.16 824.79,401.37 841.56,401.29 831.38,406.65 
			838.62,416.62 828.09,415.06 825.93,427.57 821.86,415.48 811.56,420.98 		"/>
		<polygon class="st1" points="684.22,281.11 681.2,267.86 690.72,274.97 696.92,266.68 696.71,278.47 708.6,284.97 696.96,287.75 
			693.85,302.18 689.22,289.16 675.41,288.42 		"/>
		<path class="st1" d="M816.84,380.05c1.4,1.13,1.63,3.18,0.51,4.59c-1.13,1.4-3.17,1.63-4.59,0.51c-1.4-1.13-1.63-3.18-0.51-4.59
			C813.38,379.16,815.44,378.92,816.84,380.05z"/>
		<path class="st1" d="M808.26,363.12c1.4,1.13,1.63,3.18,0.51,4.59c-1.13,1.4-3.18,1.63-4.59,0.51c-1.4-1.13-1.63-3.18-0.51-4.59
			C804.8,362.22,806.85,362,808.26,363.12z"/>
		<path class="st1" d="M801.23,347.88c1.4,1.13,1.63,3.17,0.51,4.59c-1.13,1.4-3.18,1.63-4.59,0.51c-1.4-1.11-1.63-3.18-0.51-4.59
			C797.77,346.98,799.82,346.75,801.23,347.88z"/>
		<path class="st1" d="M720.37,291.37c-1.79,0.14-3.36-1.21-3.5-3c-0.14-1.79,1.21-3.36,3-3.5c1.79-0.14,3.36,1.21,3.5,3
			C723.5,289.66,722.16,291.23,720.37,291.37z"/>
		<path class="st1" d="M738.2,297.87c-1.79,0.14-3.36-1.21-3.5-3s1.21-3.36,3-3.5c1.79-0.14,3.36,1.21,3.5,3
			C741.34,296.16,739.99,297.73,738.2,297.87z"/>
		<path class="st1" d="M753.75,304.21c-1.79,0.14-3.36-1.21-3.5-3c-0.14-1.79,1.21-3.36,3-3.5c1.79-0.14,3.36,1.21,3.5,3
			C756.87,302.5,755.54,304.07,753.75,304.21z"/>
		<path class="st1" d="M793.14,331.11c1.4,1.13,1.63,3.18,0.51,4.59c-1.13,1.4-3.18,1.63-4.59,0.51c-1.4-1.13-1.63-3.17-0.51-4.59
			C789.68,330.2,791.74,329.98,793.14,331.11z"/>
		<path class="st1" d="M686.19,256.27c1.25,1.29,1.22,3.36-0.07,4.61c-1.29,1.25-3.36,1.22-4.61-0.07
			c-1.25-1.29-1.22-3.36,0.07-4.61C682.88,254.93,684.94,254.98,686.19,256.27z"/>
		<path class="st1" d="M680.69,237.79c1.25,1.29,1.22,3.36-0.07,4.61s-3.36,1.22-4.61-0.07c-1.25-1.29-1.22-3.36,0.07-4.61
			C677.38,236.45,679.44,236.49,680.69,237.79z"/>
		<path class="st1" d="M640.17,460.39c-1-1.43-0.65-3.42,0.78-4.42s3.42-0.65,4.42,0.78c1,1.43,0.65,3.42-0.78,4.42
			C643.16,462.17,641.18,461.82,640.17,460.39z"/>
		<path class="st1" d="M625.06,464.54c-1-1.43-0.65-3.42,0.78-4.42c1.43-1,3.42-0.65,4.42,0.78c1,1.43,0.65,3.42-0.78,4.42
			C628.05,466.32,626.08,465.97,625.06,464.54z"/>
		<path class="st1" d="M609.72,468.77c-1-1.43-0.65-3.42,0.78-4.42c1.43-1,3.42-0.65,4.42,0.78c1,1.43,0.65,3.42-0.78,4.42
			C612.71,470.56,610.72,470.21,609.72,468.77z"/>
		<path class="st1" d="M595.04,472.81c-1-1.43-0.65-3.42,0.78-4.42c1.43-1,3.42-0.65,4.42,0.78c1,1.43,0.65,3.42-0.78,4.42
			C598.02,474.6,596.04,474.25,595.04,472.81z"/>
		<path class="st1" d="M580.45,476.83c-1-1.43-0.65-3.42,0.78-4.42s3.42-0.65,4.42,0.78c1,1.43,0.65,3.42-0.78,4.42
			C583.43,478.62,581.45,478.27,580.45,476.83z"/>
		<path class="st1" d="M565.34,480.99c-1-1.43-0.65-3.42,0.78-4.42c1.43-1,3.42-0.65,4.42,0.78c1,1.43,0.65,3.42-0.78,4.42
			C568.33,482.77,566.36,482.42,565.34,480.99z"/>
		<path class="st1" d="M548.96,485.5c-1-1.43-0.65-3.42,0.78-4.42c1.43-1,3.42-0.65,4.42,0.78c1,1.43,0.65,3.42-0.78,4.42
			C551.95,487.29,549.96,486.94,548.96,485.5z"/>
		<path class="st1" d="M532.43,490.05c-1-1.43-0.65-3.42,0.78-4.42s3.42-0.65,4.42,0.78c1,1.43,0.65,3.42-0.78,4.42
			C535.41,491.85,533.43,491.5,532.43,490.05z"/>
		<path class="st1" d="M474.65,512.1c-1.45-1.07-1.74-3.11-0.67-4.56c1.07-1.45,3.11-1.74,4.56-0.67s1.74,3.11,0.67,4.56
			C478.14,512.88,476.09,513.19,474.65,512.1z"/>
		<path class="st1" d="M461.28,521.01c-1.45-1.07-1.74-3.11-0.67-4.56c1.07-1.45,3.11-1.74,4.56-0.67c1.45,1.07,1.74,3.11,0.67,4.56
			C464.77,521.79,462.73,522.08,461.28,521.01z"/>
		<path class="st1" d="M447.69,530.06c-1.45-1.07-1.74-3.11-0.67-4.56c1.07-1.45,3.11-1.74,4.56-0.67c1.45,1.07,1.74,3.11,0.67,4.56
			C451.18,530.84,449.14,531.13,447.69,530.06z"/>
		<path class="st1" d="M434.69,538.71c-1.45-1.07-1.74-3.11-0.67-4.56c1.07-1.45,3.11-1.74,4.56-0.67s1.74,3.11,0.67,4.56
			C438.17,539.49,436.13,539.78,434.69,538.71z"/>
		<path class="st1" d="M421.76,547.32c-1.45-1.07-1.74-3.11-0.67-4.56c1.07-1.45,3.11-1.74,4.56-0.67c1.45,1.07,1.74,3.11,0.67,4.56
			C425.25,548.09,423.21,548.39,421.76,547.32z"/>
		<path class="st1" d="M408.4,556.21c-1.45-1.07-1.74-3.11-0.67-4.56c1.07-1.45,3.11-1.74,4.56-0.67s1.74,3.11,0.67,4.56
			C411.87,556.99,409.84,557.29,408.4,556.21z"/>
		<path class="st1" d="M393.89,565.87c-1.45-1.07-1.74-3.11-0.67-4.56c1.07-1.45,3.11-1.74,4.56-0.67c1.45,1.07,1.74,3.11,0.67,4.56
			C397.36,566.64,395.32,566.95,393.89,565.87z"/>
		<path class="st1" d="M379.7,573.77c-1.45-1.07-1.74-3.11-0.67-4.56c1.07-1.45,3.11-1.74,4.56-0.67c1.45,1.07,1.74,3.11,0.67,4.56
			S381.15,574.86,379.7,573.77z"/>
		<path class="st1" d="M366.34,582.68c-1.45-1.07-1.74-3.11-0.67-4.56s3.11-1.74,4.56-0.67c1.45,1.07,1.74,3.11,0.67,4.56
			S367.78,583.75,366.34,582.68z"/>
		<path class="st1" d="M351.83,592.34c-1.45-1.07-1.74-3.11-0.67-4.56c1.07-1.45,3.11-1.74,4.56-0.67c1.45,1.07,1.74,3.11,0.67,4.56
			C355.32,593.11,353.28,593.41,351.83,592.34z"/>
		<path class="st1" d="M684.06,448.13c-1-1.43-0.65-3.42,0.78-4.42c1.43-1,3.42-0.65,4.42,0.78c1,1.43,0.65,3.42-0.78,4.42
			C687.05,449.92,685.06,449.58,684.06,448.13z"/>
		<path class="st1" d="M668.69,452.37c-1-1.43-0.65-3.42,0.78-4.42c1.43-1,3.42-0.65,4.42,0.78c1,1.43,0.65,3.42-0.78,4.42
			C671.68,454.16,669.7,453.8,668.69,452.37z"/>
		<path class="st1" d="M654.42,456.3c-1-1.43-0.65-3.42,0.78-4.42c1.43-1,3.42-0.65,4.42,0.78c1,1.43,0.65,3.42-0.78,4.42
			C657.41,458.08,655.44,457.73,654.42,456.3z"/>
		<path class="st1" d="M762.72,427.3c-1-1.43-0.65-3.42,0.78-4.42s3.42-0.65,4.42,0.78c1,1.43,0.65,3.42-0.78,4.42
			C765.71,429.1,763.74,428.75,762.72,427.3z"/>
		<path class="st1" d="M747.62,431.46c-1-1.43-0.65-3.42,0.78-4.42c1.43-1,3.42-0.65,4.42,0.78c1,1.43,0.65,3.42-0.78,4.42
			S748.63,432.89,747.62,431.46z"/>
		<path class="st1" d="M732.27,435.67c-1-1.43-0.65-3.42,0.78-4.42s3.42-0.65,4.42,0.78c1,1.43,0.65,3.42-0.78,4.42
			C735.25,437.46,733.28,437.11,732.27,435.67z"/>
		<path class="st1" d="M717.58,439.71c-1-1.43-0.65-3.42,0.78-4.42c1.43-1,3.42-0.65,4.42,0.78c1,1.43,0.65,3.42-0.78,4.42
			C720.57,441.49,718.59,441.14,717.58,439.71z"/>
		<path class="st1" d="M702.99,443.71c-1-1.43-0.65-3.42,0.78-4.42c1.43-1,3.42-0.65,4.42,0.78c1,1.43,0.65,3.42-0.78,4.42
			C705.98,445.51,704,445.16,702.99,443.71z"/>
		<path class="st1" d="M791.25,419.31c-1-1.43-0.65-3.42,0.78-4.42c1.43-1,3.42-0.65,4.42,0.78c1,1.43,0.65,3.42-0.78,4.42
			S792.26,420.74,791.25,419.31z"/>
		<path class="st1" d="M776.98,423.23c-1-1.43-0.65-3.42,0.78-4.42c1.43-1,3.42-0.65,4.42,0.78c1,1.43,0.65,3.42-0.78,4.42
			C779.97,425.02,777.99,424.66,776.98,423.23z"/>
		<path class="st1" d="M526.99,363.65c-1.28-1.21-1.32-3.22-0.11-4.49c1.21-1.28,3.22-1.32,4.49-0.11c1.28,1.21,1.32,3.22,0.11,4.49
			C530.27,364.82,528.27,364.86,526.99,363.65z"/>
		<path class="st1" d="M513.03,370.74c-1.28-1.21-1.32-3.22-0.11-4.49c1.21-1.28,3.22-1.32,4.49-0.11c1.28,1.21,1.32,3.22,0.11,4.49
			S514.29,371.94,513.03,370.74z"/>
		<path class="st1" d="M498.83,377.93c-1.28-1.21-1.32-3.22-0.11-4.49s3.22-1.32,4.49-0.11c1.28,1.21,1.32,3.22,0.11,4.49
			C502.11,379.09,500.09,379.14,498.83,377.93z"/>
		<path class="st1" d="M485.24,384.81c-1.28-1.21-1.32-3.22-0.11-4.49c1.21-1.28,3.22-1.32,4.49-0.11c1.28,1.21,1.32,3.22,0.11,4.49
			C488.52,385.96,486.5,386.02,485.24,384.81z"/>
		<path class="st1" d="M471.73,391.66c-1.28-1.21-1.32-3.22-0.11-4.49c1.21-1.28,3.22-1.32,4.49-0.11c1.28,1.21,1.32,3.22,0.11,4.49
			C475.02,392.82,473.01,392.87,471.73,391.66z"/>
		<path class="st1" d="M457.77,398.73c-1.28-1.21-1.32-3.22-0.11-4.49c1.21-1.28,3.22-1.32,4.49-0.11c1.28,1.21,1.32,3.22,0.11,4.49
			C461.05,399.89,459.03,399.94,457.77,398.73z"/>
		<path class="st1" d="M442.61,406.42c-1.28-1.21-1.32-3.22-0.11-4.49c1.21-1.28,3.22-1.32,4.49-0.11c1.28,1.21,1.32,3.22,0.11,4.49
			C445.89,407.57,443.87,407.63,442.61,406.42z"/>
		<path class="st1" d="M427.31,414.17c-1.28-1.21-1.32-3.22-0.11-4.49c1.21-1.28,3.22-1.32,4.49-0.11c1.28,1.21,1.32,3.22,0.11,4.49
			C430.59,415.33,428.57,415.38,427.31,414.17z"/>
		<path class="st1" d="M567.57,342.93c-1.28-1.21-1.32-3.22-0.11-4.49c1.21-1.28,3.22-1.32,4.49-0.11c1.28,1.21,1.32,3.22,0.11,4.49
			C570.86,344.08,568.84,344.13,567.57,342.93z"/>
		<path class="st1" d="M553.35,350.13c-1.28-1.21-1.32-3.22-0.11-4.49c1.21-1.28,3.22-1.32,4.49-0.11c1.28,1.21,1.32,3.22,0.11,4.49
			C556.63,351.28,554.63,351.34,553.35,350.13z"/>
		<path class="st1" d="M540.15,356.81c-1.28-1.21-1.32-3.22-0.11-4.49c1.21-1.28,3.22-1.32,4.49-0.11c1.28,1.21,1.32,3.22,0.11,4.49
			C543.44,357.98,541.43,358.02,540.15,356.81z"/>
		<path class="st1" d="M640.52,306.86c-1.28-1.21-1.32-3.22-0.11-4.49c1.21-1.28,3.22-1.32,4.49-0.11c1.28,1.21,1.32,3.22,0.11,4.49
			C643.81,308.01,641.79,308.07,640.52,306.86z"/>
		<path class="st1" d="M626.55,313.93c-1.28-1.21-1.32-3.22-0.11-4.49c1.21-1.28,3.22-1.32,4.49-0.11c1.28,1.21,1.32,3.22,0.11,4.49
			C629.83,315.09,627.82,315.14,626.55,313.93z"/>
		<path class="st1" d="M612.34,321.12c-1.28-1.21-1.32-3.22-0.11-4.49c1.21-1.28,3.22-1.32,4.49-0.11c1.28,1.21,1.32,3.22,0.11,4.49
			C615.62,322.27,613.61,322.33,612.34,321.12z"/>
		<path class="st1" d="M598.75,327.99c-1.28-1.21-1.32-3.22-0.11-4.49c1.21-1.28,3.22-1.32,4.49-0.11c1.28,1.21,1.32,3.22,0.11,4.49
			C602.03,329.15,600.03,329.2,598.75,327.99z"/>
		<path class="st1" d="M585.24,334.83c-1.28-1.21-1.32-3.22-0.11-4.49c1.21-1.28,3.22-1.32,4.49-0.11c1.28,1.21,1.32,3.22,0.11,4.49
			C588.52,335.98,586.52,336.04,585.24,334.83z"/>
		<path class="st1" d="M666.89,293.35c-1.28-1.21-1.32-3.22-0.11-4.49c1.21-1.28,3.22-1.32,4.49-0.11c1.28,1.21,1.32,3.22,0.11,4.49
			C670.17,294.51,668.15,294.56,666.89,293.35z"/>
		<path class="st1" d="M653.69,300.02c-1.28-1.21-1.32-3.22-0.11-4.49c1.21-1.28,3.22-1.32,4.49-0.11c1.28,1.21,1.32,3.22,0.11,4.49
			C656.97,301.19,654.95,301.23,653.69,300.02z"/>
		<path class="st1" d="M401.05,447.56c-1.07,1.45-3.1,1.76-4.56,0.69c-1.45-1.07-1.76-3.1-0.69-4.56c1.07-1.45,3.1-1.76,4.56-0.69
			C401.81,444.06,402.12,446.1,401.05,447.56z"/>
		<polygon class="st1" points="403.24,418.7 417.21,411.73 411.69,422.88 422.26,438.24 404.81,429.61 393.45,437.6 400.1,424.13 
			392.96,415.02 		"/>
		<polygon class="st1" points="791.85,109.3 805.81,102.32 800.3,113.48 810.87,128.84 793.42,120.21 782.04,128.2 788.71,114.73 
			781.55,105.6 		"/>
		<path class="st1" d="M371.38,505.06c-1.75-0.13-3.07-1.64-2.95-3.39c0.13-1.75,1.64-3.07,3.39-2.95s3.07,1.64,2.95,3.39
			C374.65,503.87,373.13,505.19,371.38,505.06z"/>
		<path class="st1" d="M365.1,519.4c-1.75-0.13-3.07-1.64-2.95-3.39c0.13-1.75,1.64-3.07,3.39-2.95s3.07,1.64,2.95,3.39
			C368.37,518.2,366.85,519.52,365.1,519.4z"/>
		<path class="st1" d="M358.71,533.99c-1.75-0.13-3.07-1.64-2.95-3.39c0.13-1.75,1.64-3.07,3.39-2.95s3.07,1.64,2.95,3.39
			C361.99,532.79,360.46,534.11,358.71,533.99z"/>
		<path class="st1" d="M352.61,547.94c-1.75-0.13-3.07-1.64-2.95-3.39c0.13-1.75,1.64-3.07,3.39-2.95c1.75,0.13,3.07,1.64,2.95,3.39
			C355.87,546.75,354.36,548.07,352.61,547.94z"/>
		<path class="st1" d="M346.54,561.81c-1.75-0.13-3.07-1.64-2.95-3.39c0.13-1.75,1.64-3.07,3.39-2.95c1.75,0.13,3.07,1.64,2.95,3.39
			C349.8,560.61,348.29,561.93,346.54,561.81z"/>
		<path class="st1" d="M340.26,576.15c-1.75-0.13-3.07-1.64-2.95-3.39c0.13-1.75,1.64-3.07,3.39-2.95c1.75,0.13,3.07,1.64,2.95,3.39
			C343.52,574.95,342.01,576.27,340.26,576.15z"/>
		<path class="st1" d="M757.94,108.45c0.14,1.75-1.15,3.28-2.9,3.43c-1.75,0.14-3.28-1.15-3.43-2.9c-0.14-1.75,1.15-3.28,2.9-3.43
			C756.26,105.41,757.8,106.71,757.94,108.45z"/>
		<path class="st1" d="M774.52,112.88c0.14,1.75-1.15,3.28-2.9,3.42c-1.75,0.14-3.28-1.15-3.42-2.9s1.15-3.28,2.9-3.43
			C772.84,109.83,774.37,111.13,774.52,112.88z"/>
		<path class="st1" d="M389.51,463.26c-1.75-0.13-3.07-1.64-2.95-3.39c0.13-1.75,1.64-3.07,3.39-2.95c1.75,0.13,3.07,1.64,2.95,3.39
			C392.79,462.07,391.26,463.39,389.51,463.26z"/>
		<path class="st1" d="M383.12,477.85c-1.75-0.13-3.07-1.64-2.95-3.39c0.13-1.75,1.64-3.07,3.39-2.95c1.75,0.13,3.07,1.64,2.95,3.39
			C386.4,476.66,384.87,477.98,383.12,477.85z"/>
		<path class="st1" d="M377.19,491.42c-1.75-0.13-3.07-1.64-2.95-3.39c0.13-1.75,1.64-3.07,3.39-2.95c1.75,0.13,3.07,1.64,2.95,3.39
			C380.45,490.22,378.94,491.54,377.19,491.42z"/>
		<path class="st1" d="M775.49,317.02l-14.55-6.68l12.46-2.75l5.49-18.31l4.31,19.49l13.7,3.96l-15.05,3.32
			c0,0-2.71,11.57-2.7,11.57L775.49,317.02z"/>
		<polygon class="st1" points="337.2,608.2 347.4,618.1 332.64,615.29 327.24,622.71 329.32,611.82 315.87,604.13 327.39,606.33 
			331.03,592.46 333.74,600.08 343.83,599.96 		"/>
		<polygon class="st1" points="667.49,211.93 662.57,199.16 674.35,207.57 682.06,203.24 675.85,211.94 684.52,224.1 675.32,217.53 
			666.55,228.19 667.25,220.43 658.37,216.47 		"/>
		<path class="st1" d="M498.02,492.9c0.54-2.24,6.04-16.67,6.04-16.67l1.57,14.59l13.46-1.85l-9.17,6.84l11.94,6.07l-11.42,1.56
			l7.8,13.34l-11.12-7.84l-2.82,11.55l-2.96-12.16l-14.01,5.66l10.27-9.73l-17.59-3.89l13.28-2.68l-5.56-11.21L498.02,492.9z"/>
		<path class="st1" d="M681.76,188.76c1.78,0.31,2.96,1.99,2.65,3.77c-0.31,1.78-1.99,2.96-3.77,2.65s-2.96-1.99-2.65-3.77
			C678.3,189.64,679.98,188.46,681.76,188.76z"/>
		<path class="st1" d="M689.65,174.77c1.78,0.31,2.96,1.99,2.65,3.77c-0.31,1.78-1.99,2.96-3.77,2.65
			c-1.78-0.31-2.96-1.99-2.65-3.77C686.19,175.65,687.87,174.47,689.65,174.77z"/>
		<path class="st1" d="M698.21,159.59c1.78,0.31,2.96,1.99,2.65,3.77c-0.31,1.78-1.99,2.96-3.77,2.65s-2.96-1.99-2.65-3.77
			C694.75,160.46,696.43,159.28,698.21,159.59z"/>
		<path class="st1" d="M706.84,144.27c1.78,0.31,2.96,1.99,2.65,3.77c-0.31,1.78-1.99,2.96-3.77,2.65
			c-1.78-0.31-2.96-1.99-2.65-3.77C703.38,145.15,705.07,143.97,706.84,144.27z"/>
		<path class="st1" d="M714.97,129.85c1.78,0.31,2.96,1.99,2.65,3.77c-0.31,1.78-1.99,2.96-3.77,2.65
			c-1.78-0.31-2.96-1.99-2.65-3.77C711.51,130.74,713.19,129.54,714.97,129.85z"/>
	</g>
</g>
</svg>
