<?xml version="1.0" encoding="utf-8"?>
<!-- Generator: Adobe Illustrator 25.3.0, SVG Export Plug-In . SVG Version: 6.00 Build 0)  -->
<svg version="1.1" id="Layer_1" xmlns="http://www.w3.org/2000/svg" xmlns:xlink="http://www.w3.org/1999/xlink" x="0px" y="0px"
	 viewBox="0 0 1920 700" style="enable-background:new 0 0 1920 700;" xml:space="preserve">
<style type="text/css">
	.st0{fill:#1B1D50;}
	.st1{fill:#FFFFFF;}
	.st2{opacity:0.42;fill:#8AD2D0;enable-background:new    ;}
</style>
<rect class="st0" width="1920" height="700"/>
<g id="XMLID_69_">
	<g id="XMLID_73_">
		<g id="XMLID_74_">
			<path id="XMLID_75_" class="st1" d="M346.35,181.33H259.8l1.9-11.02c0.07-0.38,6.46-39.72-11.81-61.91
				c-8.11-9.86-19.82-14.85-35.79-15.27c-15.71-0.4-27.13,3.84-34.83,13.02c-15.19,18.08-12.4,52.25-10.04,63.89l2.29,11.29H84.63
				c-5.2,0-9.42-4.21-9.42-9.42c0-5.2,4.21-9.42,9.42-9.42h64.57c-1.58-16.62-1.69-47.81,15.65-68.46
				c11.47-13.66,28.21-20.27,49.75-19.73c21.49,0.57,38.28,8.03,49.9,22.2c16.95,20.67,17.9,50.15,16.94,65.99h64.93
				c5.2,0,9.42,4.21,9.42,9.42C355.78,177.11,351.55,181.33,346.35,181.33z"/>
		</g>
	</g>
	<g id="XMLID_70_">
		<g id="XMLID_71_">
			<path id="XMLID_72_" class="st1" d="M346.35,235.96H84.61c-5.2,0-9.42-4.21-9.42-9.42c0-5.2,4.21-9.42,9.42-9.42h261.74
				c5.2,0,9.42,4.21,9.42,9.42C355.77,231.74,351.55,235.96,346.35,235.96z"/>
		</g>
	</g>
</g>
<g>
	<g>
		<g>
			<g>
				<path class="st2" d="M742.5,180.61c1.61,2.29,2.81,4.87,3.87,7.45c1.17,2.85,2.19,5.79,3.06,8.76h1.49
					c-1.04-3.62-2.29-7.2-3.8-10.65c-1.14-2.6-3.13-7.39-6.11-9.41c-0.18,0.17-0.4,0.32-0.67,0.42c-0.2,0.22-0.45,0.39-0.74,0.5
					C740.8,178.33,741.77,179.57,742.5,180.61z"/>
				<path class="st2" d="M725.71,197.08c0.08,0,0.15-0.02,0.23-0.02c0.87-3.05,1.93-6.06,3.13-8.99c1.04-2.53,2.23-5.07,3.78-7.34
					c0.7-1.02,1.64-2.26,2.8-2.95c-0.23-0.27-0.37-0.55-0.45-0.87c0-0.02-0.02-0.02-0.02-0.03c-0.08-0.17-0.13-0.32-0.18-0.45
					c-3.28,1.76-5.46,7-6.67,9.75c-1.62,3.73-3,7.6-4.07,11.54C724.64,197.39,725.11,197.14,725.71,197.08z"/>
			</g>
			<g>
				<path class="st2" d="M750.98,523.7c0.87,1.96,2.18,4.22,4.44,4.74c1.91,0.44,3.17,3.28,3.95,4.82
					c1.69,3.28,2.95,6.78,4.14,10.28c2.51,7.42,4.56,15.01,6.43,22.61c0.45-0.13,0.97-0.13,1.46,0c-1.52-6.21-3.17-12.39-5.06-18.49
					c-1.22-3.95-2.55-7.89-4.17-11.69c-1.09-2.58-2.29-5.43-4.24-7.5c-0.59-0.62-1.29-1.19-2.14-1.39c-2.26-0.5-3.37-3.38-4.07-5.31
					c-1.06-2.91-1.67-5.98-2.18-9.03c-0.57-3.48-0.95-7-1.17-10.52c-0.15,0.03-0.32,0.05-0.5,0.05c-0.3,0-0.6,0.02-0.9,0.02
					c0.25,3.99,0.7,7.97,1.39,11.89C748.94,517.38,749.64,520.67,750.98,523.7z"/>
				<path class="st2" d="M705.43,566.59c0.92-3.75,1.86-7.49,2.9-11.2c2.09-7.5,4.22-15.31,7.82-22.26c0.89-1.72,1.98-3.97,3.9-4.71
					c2.66-1,3.92-3.3,4.89-5.88c2.39-6.25,3.08-13.26,3.53-19.93c-0.13,0-0.27,0-0.39,0c-0.39,0-0.72-0.07-1-0.2
					c-0.32,5.43-1.02,10.92-2.38,16.16c-0.69,2.66-1.74,7.23-4.66,8.36c-2.11,0.8-3.25,2.16-4.39,4.14
					c-3.94,6.75-6.06,14.72-8.19,22.17c-1.26,4.39-2.41,8.79-3.48,13.23C704.44,566.4,704.96,566.44,705.43,566.59z"/>
			</g>
			<g>
				<path class="st2" d="M744.88,462.71c0.54,0.1,1.06,0.37,1.41,0.77c0.02-0.23,0.03-0.45,0.03-0.69c0.02-1.04,0-2.06,0-3.1V238.37
					c0-1.61,0.13-3.47,0.07-5.28c-0.5,0.03-0.99,0.07-1.49,0.08c0,0.45,0,0.9,0,1.36v196.99c0,10.32,0.05,20.63,0,30.96
					C744.9,462.56,744.88,462.64,744.88,462.71z"/>
				<path class="st2" d="M729.14,463.28c0.35-0.22,0.8-0.33,1.37-0.27c0.02,0,0.03,0,0.05,0c-0.02-0.18-0.03-0.39-0.03-0.59
					c0-1.21,0-2.43,0-3.63V258.11c0-8.34-0.27-16.71-0.02-25.05c-0.12,0-0.22,0-0.33,0c-0.42,0-0.77-0.1-1.09-0.27
					c0,0.35,0,0.72,0,1.09v219.89c0,3.03-0.05,6.06,0,9.09C729.12,462.99,729.14,463.14,729.14,463.28z"/>
			</g>
			<g>
				<path class="st2" d="M757.02,197.34c-1.61-1.54-4-1.89-6.13-1.81c-3.62,0.13-7.22,0.87-10.84,1.04
					c-4.82,0.22-9.63,0.15-14.45-0.05c-2.43-0.1-5.14,0.33-6.97,2.09c-1.79,1.71-2.09,4.2-1.76,6.55c0.5,3.47,1.27,6.97,2.19,10.35
					c1.47,5.46,3.84,11.72,9.14,14.37c-0.07-0.52,0-1.04,0.22-1.49c-4.35-2.39-6.41-7.75-7.72-12.31c-0.8-2.8-1.39-5.63-1.93-8.47
					c-0.45-2.34-1.24-5.16,0.27-7.3c1.44-2.04,4.22-2.45,6.53-2.34c3.57,0.13,7.13,0.23,10.72,0.17c3.27-0.07,6.55-0.22,9.81-0.59
					c2.75-0.32,5.83-1.19,8.51-0.08c1.74,0.72,2.71,2.29,2.66,4.14c-0.15,6.41-1.49,13.41-3.92,19.34
					c-0.84,2.04-1.89,4.09-3.42,5.73c-0.45,0.49-0.94,0.89-1.42,1.22c0.02,0.22,0.02,0.44-0.02,0.67c-0.08,0.47-0.23,0.89-0.44,1.27
					c0.49-0.22,0.94-0.49,1.39-0.8c1.56-1.14,2.75-2.71,3.7-4.35c3.84-6.65,5.12-15.16,5.56-22.74
					C758.78,200.22,758.3,198.56,757.02,197.34z"/>
			</g>
			<g>
				<path class="st2" d="M728.59,229.16c3.06-7.8,6.11-15.62,9.18-23.43c-0.44,0.05-0.87,0.12-1.31,0.17
					c2.8,6.06,5.61,12.11,8.41,18.17c0.57,1.22,1.14,2.46,1.71,3.68c0.32,0.69,0.25,0.35,0.3,1.17c0.1,2.01-1.22,3.28-3.17,3.62
					c-2.81,0.47-5.89-0.02-8.74,0.05c-2.76,0.07-6.6,0.3-6.35-3.6c0.07-0.92-1.37-0.92-1.42,0c-0.25,3.92,3.13,5.24,6.5,5.09
					c1.67-0.08,3.35-0.07,5.02-0.05c2.68,0.03,6.25,0.62,8.36-1.54c1.61-1.64,1.46-3.9,0.59-5.81c-1.76-3.8-3.52-7.59-5.28-11.39
					c-1.56-3.37-3.11-6.72-4.67-10.08c-0.28-0.62-1.11-0.33-1.31,0.17c-3.06,7.8-6.11,15.62-9.18,23.43
					C726.86,229.64,728.25,230.01,728.59,229.16z"/>
			</g>
			<g>
				<path class="st2" d="M742.82,172.15c-0.12,2.78-2.24,5.11-5.11,5.11c-2.78,0-5.11-2.33-5.11-5.11c0-2.76,2.33-5.12,5.11-5.11
					C740.6,167.06,742.71,169.34,742.82,172.15c0.03,0.92,1.47,0.92,1.42,0c-0.15-3.55-2.88-6.53-6.53-6.53
					c-3.55,0-6.53,2.98-6.53,6.53c0,3.55,2.98,6.53,6.53,6.53c3.67,0,6.4-2.98,6.53-6.53C744.3,171.23,742.86,171.23,742.82,172.15z
					"/>
			</g>
			<g>
				<path class="st2" d="M1004.99,200.22c0-0.25,0-0.52,0.02-0.77c-2.23,3.25-4.99,6.1-8.09,8.51c-17.9,14-42.15,11.07-62.87,6.55
					c-11.32-2.46-22.46-5.71-33.33-9.71c-10.62-3.9-20.92-8.57-31.27-13.13c-18.92-8.31-38.57-16.55-59.45-17.82
					c-17.18-1.04-35.57,2.33-49.5,12.96c-3.35,2.55-6.36,5.48-9.01,8.74c-0.57,0.7,0.44,1.72,1,1
					c11.19-13.83,28.62-20.23,45.97-21.3c20.05-1.24,39.3,4.71,57.64,12.23c20.35,8.34,39.99,18.1,61.19,24.23
					c10.58,3.06,21.42,5.58,32.35,7.02c10.75,1.41,21.94,1.56,32.41-1.61c8.12-2.45,15.79-7.02,21.39-13.43
					c0.65-0.75,1.27-1.52,1.86-2.33C1005.13,201.04,1004.99,200.62,1004.99,200.22z"/>
				<path class="st2" d="M1004.63,213.9c-12.56,11.56-30.18,16.46-47.01,16.56c-11.91,0.07-23.7-1.93-35.29-4.5
					c-11.45-2.55-22.81-5.54-34.2-8.37c-22.34-5.56-44.85-12.26-67.89-14.12c-19.56-1.57-39.99,0.97-56.84,11.71
					c-3.85,2.46-7.44,5.31-10.73,8.47c-0.67,0.64,0.35,1.64,1,1c14.85-14.32,35.27-20.18,55.55-20.2
					c24.03-0.03,47.49,6.78,70.62,12.54c11.76,2.93,23.5,5.93,35.27,8.76c11.57,2.78,23.31,5.22,35.22,5.95
					c18.99,1.14,38.82-2.81,53.67-15.37c0.27-0.23,0.55-0.47,0.82-0.72C1004.59,215.09,1004.51,214.47,1004.63,213.9z"/>
				<path class="st2" d="M1016.99,180.94c-2.16-3.1-5.69-5.19-9.55-4.57c-3.3,0.54-6.5,2.93-7,6.4c-0.5,3.43,2.31,6.9,5.66,7.49
					c0.69,0.12,1.39,0.12,2.08-0.02c0.39-0.08,0.84-0.44,1.11-0.2c0.22,0.18-0.08,0.9-0.25,1.34c0.57,0.08,1.02,0.35,1.32,0.74
					c0.5-1.22,0.97-2.71,0.28-3.52c-0.9-1.04-2.81,0.39-3.92,0.3c-2.29-0.18-4.45-2.31-4.84-4.54c-0.42-2.36,1.16-4.52,3.11-5.64
					c4.45-2.55,9.34,0.05,11.56,4.27c2.68,5.07,1.22,11.09-1,16.04c-1.06,2.36-2.36,4.61-3.82,6.73c0.39,0.57,0.52,1.32,0.37,2.01
					c3.06-4.1,5.48-8.69,6.68-13.56C1019.88,189.73,1019.7,184.83,1016.99,180.94z"/>
			</g>
			<g>
				<path class="st2" d="M1003.99,222.56c0.13,1.49,0.39,3.08,1.96,3.67c1.44,0.54,3.7,0.33,5.06-0.39c2.6-1.37,2.28-4.56,2.26-7.05
					c-0.05-4.97-0.17-9.95-0.54-14.9c-0.2-2.76-0.47-5.54-0.97-8.26c-0.32-1.74-0.67-3.75-1.69-5.26c-0.67-0.97-1.86-1.66-2.96-0.89
					c-1.57,1.12-1.76,4.42-1.99,6.11C1003.77,204.45,1003.35,213.63,1003.99,222.56c0.07,0.9,1.49,0.92,1.42,0
					c-0.49-7.02-0.17-13.98,0.44-20.97c0.1-1.21,0.84-11.54,2.56-10.92c0.95,0.33,1.36,2.61,1.56,3.42
					c0.52,2.04,0.79,4.15,1.02,6.26c0.49,4.61,0.69,9.23,0.79,13.85c0.03,1.69,0.05,3.38,0.08,5.09c0.02,1.14,0.13,2.34-0.15,3.45
					c-0.44,1.66-1.71,2.18-3.27,2.28c-0.27,0.02-0.64,0.05-0.92,0c-1.61-0.22-1.96-1.11-2.08-2.46
					C1005.33,221.64,1003.91,221.64,1003.99,222.56z"/>
			</g>
			<g>
				<path class="st2" d="M1078.3,374.68c-0.6,0.6-2.75,0.99-3.75,1.26c-2.98,0.77-6,1.36-9.03,1.89c-9.86,1.76-19.84,2.88-29.84,3.6
					c-23.16,1.67-46.77,1.19-69.75-2.29c-5.71-0.87-11.79-1.69-17.2-3.8c-0.49-0.18-1.06-0.59-1.49-0.7c-0.08-0.02,0,0.3-0.02,0.3
					c0.1-0.03,0.39-0.27,0.55-0.35c2.01-1.07,4.57-1.44,6.78-1.89c9.38-1.89,18.97-2.81,28.5-3.52c13.03-0.97,26.11-1.27,39.17-0.97
					c11.87,0.27,23.75,0.95,35.54,2.31c4.29,0.49,8.59,1.07,12.83,1.91c2.28,0.45,4.92,0.82,6.98,1.96
					c0.22,0.12,0.49,0.23,0.64,0.44C1078.35,374.97,1078.19,374.8,1078.3,374.68c-0.57,0.7,0.44,1.72,1,1
					c2.51-3.08-8.41-4.67-9.56-4.89c-10.67-1.96-21.59-2.81-32.42-3.43c-25.66-1.46-51.78-1.06-77.2,2.9
					c-3.47,0.54-6.95,1.12-10.33,2.08c-1.07,0.3-3.62,0.82-3.92,2.18c-0.3,1.31,1.67,1.88,2.56,2.23c2.34,0.89,4.84,1.46,7.28,1.99
					c9.03,1.96,18.25,3.03,27.43,3.8c13.5,1.12,27.06,1.46,40.59,0.95c11.82-0.44,23.63-1.46,35.34-3.2
					c4.09-0.6,8.17-1.29,12.21-2.16c2.24-0.49,4.56-0.94,6.7-1.76c0.45-0.17,0.97-0.35,1.32-0.7
					C1079.95,375.04,1078.95,374.03,1078.3,374.68z"/>
			</g>
			<g>
				<path class="st2" d="M946.08,375.19c0.05,3.72,2.04,7.59,4.14,10.53c6.4,8.98,17.28,13.72,27.62,16.4
					c9.76,2.53,19.93,3.48,29.99,3.72c11.09,0.25,22.29-0.25,33.21-2.31c11.67-2.21,24.38-6.4,32.46-15.64
					c2.08-2.38,3.78-5.06,4.91-8c0.49-1.29,1.17-3.05,1.09-4.47c0-0.07,0.02-0.15,0.02-0.22c0.03-0.92-1.41-0.92-1.42,0
					c-0.1,3.15-2.08,7.02-4.04,9.75c-6.36,8.79-17.28,13.33-27.45,15.91c-9.65,2.45-19.64,3.37-29.59,3.57
					c-10.85,0.23-21.82-0.25-32.49-2.28c-11.32-2.14-23.65-6.15-31.45-15.12c-1.94-2.23-3.57-4.79-4.57-7.59
					c-0.49-1.37-0.7-2.9-0.95-4.05c-0.02-0.07-0.02-0.13-0.02-0.2C947.5,374.27,946.06,374.27,946.08,375.19L946.08,375.19z"/>
			</g>
			<g>
				<path class="st2" d="M1078.48,373.36c-2.16-5.01-4.34-10.01-6.5-15.02c-5.21-12.02-10.4-24.05-15.61-36.07
					c-6.3-14.55-12.59-29.11-18.89-43.66c-5.44-12.59-10.9-25.17-16.34-37.76c-1.81-4.19-3.62-8.36-5.43-12.54
					c-0.82-1.88-1.46-4.12-2.55-5.88c-0.05-0.08-0.08-0.18-0.12-0.27c-0.37-0.84-1.59-0.12-1.24,0.72
					c2.16,5.01,4.34,10.01,6.5,15.02c5.21,12.02,10.4,24.05,15.61,36.07c6.3,14.55,12.59,29.11,18.89,43.66
					c5.44,12.59,10.9,25.17,16.34,37.76c1.81,4.19,3.62,8.36,5.43,12.54c0.82,1.88,1.46,4.12,2.55,5.88
					c0.05,0.08,0.08,0.18,0.12,0.27C1077.61,374.92,1078.85,374.2,1078.48,373.36L1078.48,373.36z"/>
			</g>
			<g>
				<path class="st2" d="M947.49,373.91c1.93-4.97,3.84-9.96,5.76-14.94c4.61-11.96,9.21-23.91,13.82-35.87
					c5.58-14.47,11.15-28.94,16.73-43.39c4.82-12.49,9.63-25,14.45-37.5c1.59-4.12,3.17-8.24,4.76-12.34
					c0.72-1.88,1.81-3.89,2.24-5.84c0.02-0.08,0.07-0.17,0.1-0.25c0.33-0.85-1.06-1.22-1.37-0.39c-1.93,4.97-3.84,9.96-5.76,14.94
					c-4.61,11.96-9.21,23.91-13.82,35.87c-5.58,14.47-11.15,28.94-16.73,43.39c-4.82,12.49-9.63,25-14.45,37.5
					c-1.59,4.12-3.17,8.24-4.76,12.34c-0.72,1.88-1.81,3.89-2.24,5.84c-0.02,0.08-0.07,0.17-0.1,0.25
					C945.78,374.38,947.15,374.77,947.49,373.91L947.49,373.91z"/>
			</g>
			<g>
				<path class="st2" d="M1008.21,225.72c0.13,5.21,0.25,10.42,0.39,15.64c0.3,12.51,0.62,25.04,0.92,37.55
					c0.37,15.14,0.75,30.29,1.12,45.43c0.32,13.1,0.65,26.19,0.97,39.29c0.1,4.32,0.22,8.64,0.32,12.96
					c0.05,2.01-0.12,4.17,0.15,6.16c0.02,0.08,0,0.18,0,0.27c0.02,0.92,1.46,0.92,1.42,0c-0.13-5.21-0.25-10.42-0.39-15.64
					c-0.3-12.51-0.62-25.04-0.92-37.55c-0.37-15.14-0.75-30.29-1.12-45.43c-0.32-13.1-0.65-26.19-0.97-39.29
					c-0.1-4.32-0.22-8.64-0.32-12.96c-0.05-2.01,0.12-4.17-0.15-6.16c-0.02-0.08,0-0.18,0-0.27
					C1009.62,224.8,1008.18,224.8,1008.21,225.72L1008.21,225.72z"/>
			</g>
			<g>
				<path class="st2" d="M723.13,222.93c-13.63-13.15-31.74-19.53-50.44-20.48c-22.89-1.17-45.45,4.74-67.47,10.23
					c-11.45,2.85-22.91,5.71-34.36,8.56c-11.4,2.85-22.86,5.71-34.53,7.3c-19.98,2.73-41.1,1.14-58.21-10.45
					c-2.29-1.56-4.47-3.28-6.5-5.17c-0.02,0.62-0.07,1.22-0.15,1.83c10.25,9.16,24.03,14.37,37.56,15.88
					c23.73,2.66,47.33-4.3,70.12-9.98c11.86-2.95,23.7-5.95,35.57-8.86c11.67-2.86,23.45-5.56,35.4-6.98
					c20.53-2.46,42.19-1.04,60.24,9.98c4.25,2.6,8.19,5.68,11.77,9.14C722.78,224.57,723.78,223.56,723.13,222.93z"/>
				<path class="st2" d="M464.17,204.1c-1.26-1.91-2.38-3.94-3.32-6.05c-2.21-4.97-3.55-11-0.79-16.03
					c2.29-4.14,7.27-6.61,11.64-3.92c1.99,1.24,3.5,3.55,2.81,5.96c-0.6,2.13-2.68,4.04-4.96,4.12c-1.09,0.03-2.88-1.37-3.77-0.23
					c-0.59,0.75-0.2,2.11,0.27,3.28c0.22-0.65,0.65-1.06,1.17-1.24c-0.1-0.28-0.15-0.57-0.02-0.69c0.23-0.22,0.75,0.12,1.11,0.2
					c0.75,0.17,1.54,0.15,2.28-0.02c3.28-0.72,5.98-4.12,5.44-7.54c-0.55-3.5-3.87-5.89-7.22-6.33c-3.87-0.52-7.37,1.67-9.46,4.82
					c-5.36,8.06-0.47,18.76,4.47,25.77c0.05,0.07,0.1,0.13,0.15,0.22C464.04,205.64,464.11,204.87,464.17,204.1z"/>
				<path class="st2" d="M725.02,194.82c-11.07-13.7-28.24-20.23-45.42-21.6c-20.03-1.59-39.39,4.02-57.79,11.44
					c-10.17,4.1-20.1,8.71-30.18,13.03c-10.72,4.59-21.62,8.69-32.82,11.94c-11.2,3.23-22.71,5.95-34.3,7.25
					c-10.99,1.24-22.46,1.04-32.91-2.93c-8.07-3.06-15.56-8.41-20.36-15.66c-0.12,0.8-0.18,1.61-0.02,2.41
					c3.2,4.27,7.3,7.87,11.87,10.65c18.07,11.02,40.46,8.02,60.1,3.72c11.09-2.43,22.02-5.61,32.67-9.53
					c10.03-3.67,19.78-8.04,29.56-12.34c18.96-8.36,38.62-16.95,59.52-18.56c17.27-1.32,35.84,1.76,49.96,12.36
					c3.4,2.55,6.45,5.53,9.11,8.83C724.59,196.57,725.59,195.54,725.02,194.82z"/>
			</g>
			<g>
				<path class="st2" d="M471.11,221.84c-0.13,1.56-0.94,2.48-2.53,2.46c-1-0.02-2.16-0.1-2.93-0.82c-1.19-1.11-0.97-3.05-0.95-4.52
					c0.02-1.36,0.03-2.71,0.05-4.07c0.08-4.52,0.23-9.03,0.64-13.53c0.2-2.23,0.45-4.47,0.89-6.67c0.27-1.37,0.54-3.2,1.44-4.34
					c0.92-1.17,1.32,0.18,1.61,1.14c0.7,2.41,0.94,4.99,1.19,7.49C471.24,206.58,471.64,214.2,471.11,221.84
					c-0.07,0.92,1.36,0.92,1.42,0c0.59-8.26,0.15-16.6-0.82-24.8c-0.18-1.57-0.99-11.22-4.67-8.06c-1.22,1.06-1.64,3.05-1.99,4.54
					c-0.57,2.46-0.85,5.01-1.09,7.52c-0.49,5.28-0.64,10.57-0.7,15.86c-0.03,2.46-0.59,5.76,1.36,7.62c1.31,1.26,3.6,1.46,5.31,1.16
					c1.99-0.35,2.43-2.01,2.6-3.8C472.61,220.92,471.19,220.92,471.11,221.84z"/>
			</g>
			<g>
				<path class="st2" d="M397.22,374.97c0.9,0.92,2.76,1.19,3.94,1.51c3.18,0.84,6.41,1.47,9.66,2.04
					c10.65,1.89,21.44,3.06,32.22,3.77c24.01,1.57,48.65,0.95,72.41-3.22c3.23-0.57,6.45-1.21,9.61-2.08
					c1.59-0.44,3.6-0.85,4.96-1.86c3.35-2.48-6.75-4.37-7.67-4.56c-10.1-2.04-20.46-2.98-30.75-3.7
					c-14.13-0.99-28.3-1.17-42.45-0.69c-12.01,0.42-24.03,1.22-35.94,2.86c-3.84,0.54-7.72,1.12-11.47,2.11
					c-1.36,0.37-3.97,0.84-4.72,2.24C396.72,373.96,396.83,374.5,397.22,374.97c0.59,0.72,1.59-0.3,1-1
					c0.08,0.1-0.03,0.27,0.03,0.17c0.15-0.22,0.45-0.33,0.67-0.47c0.85-0.47,1.86-0.74,2.8-1c3.28-0.92,6.68-1.46,10.06-1.96
					c10.92-1.62,21.96-2.41,32.97-2.9c23.83-1.06,48.08-0.54,71.69,3.18c3.25,0.52,6.5,1.07,9.66,1.96
					c0.87,0.25,1.81,0.49,2.61,0.92c0.17,0.08,0.39,0.32,0.55,0.37c-0.05-0.02,0.05-0.33-0.02-0.32c-1.39,0.42-2.8,1.21-4.27,1.61
					c-2.85,0.8-5.74,1.41-8.66,1.94c-21.8,4.02-44.46,4.79-66.57,3.78c-11-0.5-22.01-1.51-32.89-3.17
					c-5.83-0.89-12.01-1.67-17.6-3.65c-0.33-0.12-0.99-0.39-1.07-0.47C397.57,373.29,396.57,374.32,397.22,374.97z"/>
			</g>
			<g>
				<path class="st2" d="M529,374.47c-0.05,3.18-1.94,7-3.89,9.75c-6.23,8.81-17.12,13.33-27.21,15.91
					c-9.63,2.45-19.61,3.37-29.52,3.58c-10.85,0.23-21.84-0.25-32.52-2.28c-11.4-2.16-23.75-6.16-31.68-15.12
					c-1.98-2.23-3.65-4.79-4.69-7.59c-0.5-1.32-0.77-2.96-1.02-4.05c-0.02-0.07-0.02-0.13-0.02-0.2c-0.03-0.92-1.46-0.92-1.42,0
					c0.12,3.73,2.16,7.6,4.29,10.53c6.51,8.96,17.45,13.7,27.87,16.4c9.8,2.53,19.96,3.48,30.06,3.72
					c11.09,0.25,22.27-0.25,33.18-2.31c11.59-2.19,24.27-6.38,32.22-15.64c2.04-2.38,3.72-5.06,4.79-8
					c0.47-1.29,1.14-3.06,1.02-4.47c0-0.07,0.02-0.15,0.02-0.22C530.44,373.55,529.02,373.55,529,374.47L529,374.47z"/>
			</g>
			<g>
				<path class="st2" d="M399.26,373.36c2.16-5.01,4.34-10.01,6.5-15.02c5.21-12.02,10.4-24.05,15.61-36.07
					c6.3-14.55,12.59-29.11,18.89-43.66c5.44-12.59,10.9-25.17,16.34-37.76c1.81-4.19,3.62-8.36,5.43-12.54
					c0.84-1.94,1.86-3.87,2.55-5.88c0.03-0.08,0.08-0.18,0.12-0.27c0.37-0.84-0.87-1.56-1.24-0.72c-2.16,5.01-4.34,10.01-6.5,15.02
					c-5.21,12.02-10.4,24.05-15.61,36.07c-6.3,14.55-12.59,29.11-18.89,43.66c-5.44,12.59-10.9,25.17-16.34,37.76
					c-1.81,4.19-3.62,8.36-5.43,12.54c-0.84,1.94-1.86,3.87-2.55,5.88c-0.03,0.08-0.08,0.18-0.12,0.27
					C397.67,373.48,398.89,374.2,399.26,373.36L399.26,373.36z"/>
			</g>
			<g>
				<path class="st2" d="M530.41,372.81c-1.93-4.97-3.84-9.96-5.76-14.94c-4.61-11.96-9.21-23.91-13.82-35.87
					c-5.58-14.47-11.15-28.94-16.73-43.39c-4.82-12.49-9.63-25-14.45-37.5c-1.59-4.12-3.17-8.24-4.76-12.34
					c-0.74-1.93-1.34-3.99-2.24-5.84c-0.03-0.08-0.07-0.17-0.1-0.25c-0.33-0.85-1.71-0.49-1.37,0.39c1.93,4.97,3.84,9.96,5.76,14.94
					c4.61,11.96,9.21,23.91,13.82,35.87c5.58,14.47,11.15,28.94,16.73,43.39c4.82,12.49,9.63,25,14.45,37.5
					c1.59,4.12,3.17,8.24,4.76,12.34c0.74,1.93,1.34,3.99,2.24,5.84c0.03,0.08,0.07,0.17,0.1,0.25
					C529.35,374.03,530.74,373.66,530.41,372.81L530.41,372.81z"/>
			</g>
			<g>
				<path class="st2" d="M466.89,225c-0.13,5.21-0.25,10.42-0.39,15.64c-0.3,12.51-0.62,25.04-0.92,37.55
					c-0.37,15.14-0.75,30.29-1.12,45.43c-0.32,13.1-0.65,26.19-0.97,39.29c-0.1,4.32-0.22,8.64-0.32,12.96
					c-0.05,1.99-0.35,4.17-0.15,6.16c0.02,0.08,0,0.18,0,0.27c-0.02,0.92,1.41,0.92,1.42,0c0.13-5.21,0.25-10.42,0.39-15.64
					c0.3-12.51,0.62-25.04,0.92-37.55c0.37-15.14,0.75-30.29,1.12-45.43c0.32-13.1,0.65-26.19,0.97-39.29
					c0.1-4.32,0.22-8.64,0.32-12.96c0.05-1.99,0.35-4.17,0.15-6.16c-0.02-0.08,0-0.18,0-0.27C468.33,224.08,466.9,224.08,466.89,225
					L466.89,225z"/>
			</g>
			<g>
				<path class="st2" d="M753.93,495.01c-0.28-4.39,0.12-9.71-1.91-13.75c-1.12-2.24-3.06-3.89-3.67-6.41
					c-0.59-2.43-0.25-4.97-0.27-7.44c-0.02-1.31,0.2-4.14-1.07-4.99c-1.19-0.8-3.75-0.17-5.12-0.08c-3.55,0.22-7.05,0.08-10.6-0.02
					c-1.29-0.03-3.2-0.52-3.95,0.85c-0.99,1.81-0.47,4.81-0.4,6.77c0.08,2.38,0.18,4.86-0.92,7.03c-1,1.99-2.63,3.57-3.37,5.73
					c-0.72,2.14-0.77,4.47-0.89,6.72c-0.12,2.5-0.4,5.04-0.33,7.54c0.13,4.62,3.47,6.4,7.72,6.33c2.78-0.05,5.58-0.35,8.34-0.35
					c2.95,0,5.91,0.23,8.88,0.23c2.18,0,4.44-0.25,6.03-1.89C754.08,499.57,754.08,497.22,753.93,495.01
					c-0.05-0.92-1.49-0.92-1.42,0c0.15,2.33,0.15,4.82-2.23,6.06c-2.14,1.12-5.07,0.64-7.4,0.59c-1.78-0.03-3.58-0.17-5.36-0.18
					c-2.31-0.03-4.67,0.23-6.98,0.32c-2.33,0.08-5.09,0.35-6.72-1.67c-1.46-1.83-0.92-4.64-0.82-6.82c0.2-3.97-0.18-8.64,1.96-12.16
					c0.9-1.49,2.08-2.78,2.71-4.42c0.65-1.67,0.75-3.5,0.74-5.29c-0.03-1.89-0.23-3.78-0.1-5.66c0.1-1.32,0.12-2.08,1.61-2.04
					c0.89,0.02,1.78,0.03,2.66,0.08c2.93,0.12,5.81,0.18,8.74,0c0.6-0.03,1.19-0.07,1.79-0.1c0.57-0.03,2.33-0.37,2.78-0.1
					c1.34,0.75,0.74,4.86,0.7,6.21c-0.05,1.99-0.08,4.04,0.5,5.96c0.6,1.99,1.98,3.45,3.06,5.17c2.5,3.92,2.01,9.58,2.31,14.07
					C752.57,495.91,753.99,495.93,753.93,495.01z"/>
			</g>
			<g>
				<path class="st2" d="M663.85,585.14c-0.45-1.02-0.77-2.09-0.94-3.23c-0.74-5.01,1.62-10.1,5.89-12.81
					c2.98-1.89,6.13-2.03,9.48-2.03h115.79c1.84,0,3.68-0.03,5.54,0c9.26,0.13,15.84,9.83,11.84,18.39c0.5-0.18,1.02-0.15,1.49,0.02
					c1.24-2.88,1.56-6.18,0.57-9.5c-1.88-6.36-7.79-10.32-14.29-10.33c-7.28-0.02-14.57,0-21.84,0H696.8c-6.92,0-13.85-0.03-20.77,0
					c-7.12,0.03-13.45,5.06-14.52,12.23c-0.4,2.71-0.02,5.34,0.99,7.67C662.86,585.31,663.31,585.14,663.85,585.14L663.85,585.14z"
					/>
			</g>
			<g>
				<path class="st2" d="M634.14,598c-0.2-2.33,0.32-4.72,1.74-6.87c2.14-3.22,5.68-4.86,9.48-4.87c1.02,0,2.03,0,3.03,0H827.6
					c0.89,0,1.76,0,2.65,0c4.64,0.03,8.93,2.8,10.52,7.25c0.54,1.51,0.7,3.03,0.57,4.49h1.44c0-0.12,0.03-0.22,0.03-0.33
					c0.27-6.26-4.45-11.86-10.65-12.73c-2.36-0.33-4.89-0.12-7.27-0.12H672.6c-9.09,0-18.19-0.05-27.28,0
					c-3.42,0.02-6.65,1.17-9.09,3.62c-2.58,2.58-3.77,6.1-3.53,9.55h1.44V598z"/>
			</g>
			<g>
				<path class="st2" d="M852.56,634.6c-2.56,0-5.14,0-7.7,0c-6.9,0-13.78,0-20.68,0c-10,0-20,0-29.99,0c-11.89,0-23.78,0-35.67,0
					c-12.51,0-25,0-37.51,0c-12.02,0-24.05,0-36.07,0c-10.27,0-20.53,0-30.8,0c-7.28,0-14.59,0-21.87,0c-3.1,0-6.2,0.03-9.29,0
					c-7.5-0.08-13.55-6.06-13.67-13.58c-0.08-5.43-0.87-11.87,2.33-16.58c2.7-3.99,7.08-6,11.81-6.01c1.32,0,2.65,0,3.99,0
					c5.93,0,11.86,0,17.79,0c9.34,0,18.71,0,28.05,0c11.54,0,23.08,0,34.62,0c12.51,0,25.02,0,37.53,0c12.26,0,24.53,0,36.79,0
					c10.8,0,21.6,0,32.39,0c8.12,0,16.23,0,24.35,0c4.2,0,8.41,0,12.63,0c3.05,0,5.98,0.57,8.57,2.33
					c3.75,2.53,5.95,6.77,6.01,11.27c0.03,2.45,0,4.87,0,7.32c0,3.23-0.37,6.26-2.19,9.06C861.44,632.27,857.14,634.51,852.56,634.6
					c-0.92,0.02-0.92,1.44,0,1.42c8.26-0.15,14.89-6.77,15.01-15.02c0.08-5.41,0.8-11.64-2.01-16.5c-2.75-4.74-7.8-7.49-13.23-7.52
					c-1.16,0-2.29,0-3.45,0c-5.84,0-11.67,0-17.52,0c-9.41,0-18.84,0-28.25,0c-11.79,0-23.56,0-35.35,0c-12.74,0-25.49,0-38.23,0
					c-12.53,0-25.05,0-37.58,0c-10.9,0-21.8,0-32.69,0c-8.07,0-16.14,0-24.22,0c-3.89,0-7.77-0.02-11.66,0
					c-4.4,0.02-8.57,1.61-11.57,4.91c-4.61,5.07-3.92,11.51-3.92,17.84c0,3.18,0.47,6.2,2.14,8.98c2.04,3.38,5.43,5.93,9.28,6.87
					c1.71,0.42,3.4,0.44,5.14,0.44c4.74,0,9.48,0,14.23,0c8.71,0,17.4,0,26.11,0c11.29,0,22.57,0,33.86,0c12.68,0,25.35,0,38.03,0
					c12.66,0,25.3,0,37.97,0c11.45,0,22.91,0,34.35,0c8.84,0,17.7,0,26.54,0c5.02,0,10.05,0,15.07,0c0.65,0,1.31,0,1.96,0
					C853.49,636.02,853.49,634.6,852.56,634.6z"/>
			</g>
		</g>
		<g>
			<path class="st2" d="M786.48,184.34c6.93-4.45,15.31-4.1,23.19-3.65c0.92,0.05,0.92-1.37,0-1.42
				c-8.16-0.45-16.78-0.75-23.91,3.85C784.99,183.6,785.69,184.83,786.48,184.34L786.48,184.34z"/>
		</g>
		<g>
			<path class="st2" d="M801.86,185.21c14.1-0.1,28.02,3.42,40.38,10.18c0.8,0.44,1.52-0.79,0.72-1.24
				c-12.58-6.88-26.74-10.47-41.1-10.38C800.93,183.79,800.93,185.21,801.86,185.21L801.86,185.21z"/>
		</g>
		<g>
			<path class="st2" d="M832.92,184.44c7.12,3.53,14.18,7.25,21.42,10.53c6.92,3.15,14.22,4.91,21.62,6.51
				c0.9,0.2,1.27-1.19,0.39-1.37c-7.5-1.62-14.87-3.42-21.87-6.65c-7.02-3.25-13.88-6.83-20.82-10.27
				C832.82,182.8,832.1,184.04,832.92,184.44L832.92,184.44z"/>
		</g>
		<g>
			<path class="st2" d="M1008.71,180.99c2.41,0.64,4.35,2.39,5.16,4.76c0.3,0.87,1.67,0.49,1.37-0.39
				c-0.97-2.85-3.25-4.99-6.16-5.76C1008.21,179.38,1007.82,180.76,1008.71,180.99L1008.71,180.99z"/>
		</g>
		<g>
			<path class="st2" d="M636.16,200.32c-6.18,1.76-12.26,3.8-18.24,6.13c-0.85,0.33-0.49,1.71,0.39,1.37
				c5.98-2.33,12.06-4.37,18.24-6.13C637.44,201.44,637.05,200.07,636.16,200.32L636.16,200.32z"/>
		</g>
		<g>
			<path class="st2" d="M621.99,199.51c-6.83,2.95-13.67,5.89-20.51,8.84c-6.61,2.85-13.28,5.71-20.43,6.93
				c-0.9,0.15-0.52,1.52,0.39,1.37c7.03-1.21,13.62-3.99,20.13-6.8c7.05-3.03,14.1-6.08,21.15-9.11
				C623.55,200.38,622.83,199.16,621.99,199.51L621.99,199.51z"/>
		</g>
		<g>
			<path class="st2" d="M587.81,208.04c-13.53,4.14-27.28,7.45-41.21,9.91c-0.9,0.17-0.52,1.54,0.39,1.37
				c13.93-2.46,27.68-5.78,41.21-9.91C589.07,209.14,588.69,207.77,587.81,208.04L587.81,208.04z"/>
		</g>
		<g>
			<path class="st2" d="M751.77,207c-0.15,3.05-0.32,6.1-0.47,9.14c-0.05,0.92,1.37,0.92,1.42,0c0.15-3.05,0.32-6.1,0.47-9.14
				C753.24,206.08,751.82,206.08,751.77,207L751.77,207z"/>
		</g>
		<g>
			<path class="st2" d="M738.23,303.63c-0.1,13.15-0.18,26.29-0.28,39.44c0,0.92,1.42,0.92,1.42,0c0.1-13.15,0.18-26.29,0.28-39.44
				C739.67,302.72,738.23,302.71,738.23,303.63L738.23,303.63z"/>
		</g>
		<g>
			<path class="st2" d="M742.12,295.27c-0.27-10.01-0.55-20.03-0.82-30.04c-0.03-0.92-1.46-0.92-1.42,0
				c0.27,10.01,0.55,20.03,0.82,30.04C740.71,296.19,742.14,296.19,742.12,295.27L742.12,295.27z"/>
		</g>
		<g>
			<path class="st2" d="M731.05,508.91c1.36,7.5-1.17,15.19-6.61,20.5c-2.6,2.53-5.36,4.79-7,8.11c-1.61,3.23-2.31,6.8-2.98,10.33
				c-0.17,0.9,1.21,1.29,1.37,0.39c0.74-3.95,1.51-8.06,3.68-11.51s5.76-5.68,8.26-8.88c4.24-5.44,5.88-12.54,4.66-19.31
				C732.26,507.62,730.88,508.01,731.05,508.91L731.05,508.91z"/>
		</g>
		<g>
			<path class="st2" d="M730.92,534.28c-3.1,3.52-5.31,7.75-6.28,12.36c-0.77,3.68-1.37,8.29,2.21,10.67
				c1.69,1.12,3.73,1.61,5.68,2.01c2.36,0.49,4.84,0.75,7.23,0.25c3.95-0.82,6.83-3.67,7.3-7.72c0.65-5.68-1.16-11.79-3.77-16.76
				c-0.44-0.82-1.66-0.1-1.24,0.72c2.45,4.64,4.07,10.2,3.63,15.47c-0.52,6.4-6.82,7.72-12.14,6.78c-2.14-0.39-4.66-0.87-6.4-2.29
				c-2.14-1.76-1.76-4.87-1.39-7.32c0.74-4.89,2.91-9.46,6.18-13.16C732.52,534.62,731.52,533.6,730.92,534.28L730.92,534.28z"/>
		</g>
		<g>
			<path class="st2" d="M748.25,534.65c4.15,5.14,3.6,11.69,3.05,17.9c-0.08,0.92,1.36,0.9,1.42,0c0.59-6.68,0.97-13.4-3.47-18.91
				C748.68,532.93,747.68,533.95,748.25,534.65L748.25,534.65z"/>
		</g>
		<g>
			<path class="st2" d="M757.31,543.16c0.32,5.64-0.1,11.25-1.31,16.78c-0.2,0.9,1.19,1.27,1.37,0.39
				c1.22-5.64,1.67-11.39,1.36-17.15C758.7,542.24,757.26,542.24,757.31,543.16L757.31,543.16z"/>
		</g>
		<g>
			<path class="st2" d="M774.52,626.98c15.26-0.45,30.5-1.37,45.7-2.76c0.9-0.08,0.92-1.51,0-1.42c-15.21,1.41-30.45,2.33-45.7,2.76
				C773.6,625.57,773.6,626.99,774.52,626.98L774.52,626.98z"/>
		</g>
		<g>
			<path class="st2" d="M745.79,618.15c15.32,0.57,30.66,0.55,45.97-0.05c0.92-0.03,0.92-1.47,0-1.42
				c-15.32,0.62-30.66,0.64-45.97,0.05C744.87,616.68,744.87,618.12,745.79,618.15L745.79,618.15z"/>
		</g>
		<g>
			<path class="st2" d="M761.21,625.05c-14.12,0.4-28.22,1.09-42.32,2.06c-0.9,0.07-0.92,1.49,0,1.42
				c14.08-0.97,28.2-1.67,42.32-2.06C762.12,626.46,762.13,625.02,761.21,625.05L761.21,625.05z"/>
		</g>
		<g>
			<path class="st2" d="M722.81,622.22c2.96-0.1,5.91-0.2,8.88-0.3c0.92-0.03,0.92-1.46,0-1.42c-2.96,0.1-5.91,0.2-8.88,0.3
				C721.89,620.83,721.89,622.25,722.81,622.22L722.81,622.22z"/>
		</g>
		<g>
			<path class="st2" d="M723.87,486.89c1.78-1.88,3.8-3.38,6.13-4.54c-0.28-0.03-0.57-0.07-0.87-0.12c1.88,2.21,3.99,4.14,6.31,5.84
				c0.27,0.2,0.64,0.07,0.87-0.12c2.9-2.34,5.53-4.94,7.89-7.82c-0.33,0-0.67,0-1,0c2.73,2.75,5.63,5.33,8.67,7.72
				c0-0.33,0-0.67,0-1c-1.81,1.54-4.91,1.14-7.13,1.19c-2.43,0.05-4.87,0.08-7.32,0.08c-4.87,0-9.75-0.1-14.62-0.3
				c-0.92-0.03-0.92,1.39,0,1.42c5.56,0.23,11.14,0.33,16.71,0.3c2.78-0.02,5.58-0.05,8.36-0.17c1.86-0.08,3.55-0.28,5.01-1.51
				c0.27-0.23,0.28-0.79,0-1c-3.05-2.39-5.95-4.97-8.67-7.72c-0.25-0.25-0.77-0.3-1,0c-2.36,2.88-4.99,5.48-7.89,7.82
				c0.28-0.03,0.57-0.07,0.87-0.12c-2.24-1.64-4.24-3.52-6.03-5.63c-0.22-0.25-0.6-0.25-0.87-0.12c-2.43,1.22-4.56,2.8-6.41,4.77
				C722.21,486.54,723.23,487.56,723.87,486.89L723.87,486.89z"/>
		</g>
		<g>
			<path class="st2" d="M729.26,493.69c4.05-0.07,8.11-0.07,12.16-0.03c0.92,0.02,0.92-1.42,0-1.42c-4.05-0.03-8.11-0.03-12.16,0.03
				C728.35,492.28,728.34,493.7,729.26,493.69L729.26,493.69z"/>
		</g>
		<g>
			<path class="st2" d="M733.14,496.7c2.19,0.1,4.39,0.17,6.6,0.2c0.92,0.02,0.92-1.42,0-1.42c-2.19-0.03-4.4-0.1-6.6-0.2
				C732.22,495.23,732.22,496.65,733.14,496.7L733.14,496.7z"/>
		</g>
		<g>
			<path class="st2" d="M970.65,386.98c8.91,1.59,17.9,2.55,26.95,2.86c0.92,0.03,0.92-1.39,0-1.42
				c-8.91-0.32-17.79-1.24-26.56-2.81C970.13,385.44,969.74,386.81,970.65,386.98L970.65,386.98z"/>
		</g>
		<g>
			<path class="st2" d="M982.5,392.84c13.38,2.24,26.95,1.67,40.43,1.04c0.92-0.05,0.92-1.47,0-1.42
				c-13.35,0.64-26.81,1.22-40.04-0.99C981.98,391.31,981.58,392.69,982.5,392.84L982.5,392.84z"/>
		</g>
		<g>
			<path class="st2" d="M1011.41,388.9c6.9,0,13.8-0.17,20.68-0.54c0.92-0.05,0.92-1.47,0-1.42c-6.88,0.35-13.78,0.54-20.68,0.54
				C1010.49,387.48,1010.49,388.9,1011.41,388.9L1011.41,388.9z"/>
		</g>
		<g>
			<path class="st2" d="M1037.65,372.51c5.36-0.2,10.7-0.03,16.03,0.49c0.92,0.08,0.9-1.34,0-1.42c-5.33-0.52-10.67-0.67-16.03-0.49
				C1036.73,371.12,1036.73,372.54,1037.65,372.51L1037.65,372.51z"/>
		</g>
		<g>
			<path class="st2" d="M429.91,373.8c21.15-1.79,42.42-1.91,63.59-0.33c0.92,0.07,0.92-1.36,0-1.42
				c-21.17-1.57-42.44-1.46-63.59,0.33C429,372.46,429,373.88,429.91,373.8L429.91,373.8z"/>
		</g>
		<g>
			<path class="st2" d="M449.57,376.71c8.32-0.18,16.63-0.05,24.95,0.35c0.92,0.05,0.92-1.39,0-1.42
				c-8.31-0.42-16.63-0.54-24.95-0.35C448.67,375.3,448.65,376.73,449.57,376.71L449.57,376.71z"/>
		</g>
		<g>
			<path class="st2" d="M505.29,373.18c2.71,0.18,5.43,0.42,8.14,0.7c0.92,0.1,0.9-1.34,0-1.42c-2.71-0.28-5.43-0.52-8.14-0.7
				C504.37,371.69,504.37,373.11,505.29,373.18L505.29,373.18z"/>
		</g>
		<g>
			<path class="st2" d="M419.94,394.03c7.42,2.58,15.09,4.25,22.89,5.04c0.92,0.1,0.9-1.34,0-1.42c-7.69-0.77-15.22-2.46-22.51-4.99
				C419.46,392.35,419.07,393.73,419.94,394.03L419.94,394.03z"/>
		</g>
		<g>
			<path class="st2" d="M436.78,394.14c12.28,1.24,24.62,1.69,36.96,1.36c0.92-0.03,0.92-1.46,0-1.42
				c-12.34,0.33-24.68-0.12-36.96-1.36C435.87,392.64,435.87,394.06,436.78,394.14L436.78,394.14z"/>
		</g>
	</g>
	<g>
		<polygon class="st1" points="977.23,281.66 965.49,264.86 982.99,273.65 993.94,260.87 990.11,277.75 1009.67,283.38 
			995.98,286.14 1001.01,300.25 989.27,294.82 982.47,308.65 981.87,293.16 967.98,296.06 		"/>
		<path class="st1" d="M754.81,283.3c-0.69-2.03,0.4-4.2,2.43-4.89s4.2,0.4,4.89,2.43c0.69,2.03-0.4,4.2-2.43,4.89
			C757.68,286.4,755.5,285.31,754.81,283.3z"/>
		<path class="st1" d="M735.81,282.96c-0.69-2.03,0.4-4.2,2.43-4.89c2.03-0.69,4.2,0.4,4.89,2.43c0.69,2.03-0.4,4.2-2.43,4.89
			C738.67,286.08,736.48,284.99,735.81,282.96z"/>
		<path class="st1" d="M716.46,282.64c-0.69-2.03,0.4-4.2,2.43-4.89c2.03-0.69,4.2,0.4,4.89,2.43c0.69,2.03-0.4,4.2-2.43,4.89
			C719.34,285.74,717.15,284.65,716.46,282.64z"/>
		<path class="st1" d="M697.98,282.33c-0.69-2.03,0.4-4.2,2.43-4.89c2.03-0.69,4.2,0.4,4.89,2.43s-0.4,4.2-2.43,4.89
			C700.84,285.42,698.66,284.34,697.98,282.33z"/>
		<path class="st1" d="M679.6,282.01c-0.69-2.03,0.4-4.2,2.43-4.89c2.03-0.69,4.2,0.4,4.89,2.43c0.69,2.03-0.4,4.2-2.43,4.89
			C682.47,285.11,680.27,284.03,679.6,282.01z"/>
		<path class="st1" d="M660.58,281.69c-0.69-2.03,0.4-4.2,2.43-4.89c2.03-0.69,4.2,0.4,4.89,2.43c0.69,2.03-0.4,4.2-2.43,4.89
			C663.46,284.79,661.27,283.7,660.58,281.69z"/>
		<path class="st1" d="M639.95,281.34c-0.69-2.03,0.4-4.2,2.43-4.89c2.03-0.69,4.2,0.4,4.89,2.43c0.69,2.03-0.4,4.2-2.43,4.89
			C642.81,284.44,640.63,283.35,639.95,281.34z"/>
		<path class="st1" d="M619.13,280.97c-0.69-2.03,0.4-4.2,2.43-4.89c2.03-0.69,4.2,0.4,4.89,2.43c0.69,2.03-0.4,4.2-2.43,4.89
			C621.99,284.08,619.8,283,619.13,280.97z"/>
		<path class="st1" d="M598,282.36c-0.69-2.03,0.4-4.2,2.43-4.89c2.03-0.69,4.2,0.4,4.89,2.43c0.69,2.03-0.4,4.2-2.43,4.89
			C600.86,285.47,598.68,284.39,598,282.36z"/>
		<path class="st1" d="M578.67,282.04c-0.69-2.03,0.4-4.2,2.43-4.89s4.2,0.4,4.89,2.43c0.69,2.03-0.4,4.2-2.43,4.89
			C581.53,285.14,579.34,284.05,578.67,282.04z"/>
		<path class="st1" d="M560.17,281.72c-0.69-2.03,0.4-4.2,2.43-4.89c2.03-0.69,4.2,0.4,4.89,2.43c0.69,2.03-0.4,4.2-2.43,4.89
			C563.05,284.82,560.85,283.75,560.17,281.72z"/>
		<path class="st1" d="M541.79,281.41c-0.69-2.03,0.4-4.2,2.43-4.89c2.03-0.69,4.2,0.4,4.89,2.43c0.69,2.03-0.4,4.2-2.43,4.89
			C544.66,284.52,542.48,283.43,541.79,281.41z"/>
		<path class="st1" d="M522.79,281.09c-0.69-2.03,0.4-4.2,2.43-4.89c2.03-0.69,4.2,0.4,4.89,2.43c0.69,2.03-0.4,4.2-2.43,4.89
			C525.65,284.19,523.46,283.1,522.79,281.09z"/>
		<path class="st1" d="M502.14,280.74c-0.69-2.03,0.4-4.2,2.43-4.89s4.2,0.4,4.89,2.43s-0.4,4.2-2.43,4.89
			C505.02,283.83,502.82,282.74,502.14,280.74z"/>
		<path class="st1" d="M481.32,280.38c-0.69-2.03,0.4-4.2,2.43-4.89c2.03-0.69,4.2,0.4,4.89,2.43c0.69,2.03-0.4,4.2-2.43,4.89
			C484.19,283.48,482.01,282.39,481.32,280.38z"/>
		<path class="st1" d="M460.4,280.6c-0.69-2.03,0.4-4.2,2.43-4.89c2.03-0.69,4.2,0.4,4.89,2.43s-0.4,4.2-2.43,4.89
			C463.27,283.72,461.07,282.63,460.4,280.6z"/>
		<path class="st1" d="M810.15,284.05c-0.69-2.03,0.4-4.2,2.43-4.89c2.03-0.69,4.2,0.4,4.89,2.43s-0.4,4.2-2.43,4.89
			C813.01,287.15,810.82,286.06,810.15,284.05z"/>
		<path class="st1" d="M790.79,283.72c-0.69-2.03,0.4-4.2,2.43-4.89s4.2,0.4,4.89,2.43c0.69,2.03-0.4,4.2-2.43,4.89
			C793.67,286.83,791.47,285.74,790.79,283.72z"/>
		<path class="st1" d="M772.82,283.41c-0.69-2.03,0.4-4.2,2.43-4.89c2.03-0.69,4.2,0.4,4.89,2.43c0.69,2.03-0.4,4.2-2.43,4.89
			C775.7,286.51,773.5,285.42,772.82,283.41z"/>
		<path class="st1" d="M908.92,286.71c-0.69-2.03,0.4-4.2,2.43-4.89c2.03-0.69,4.2,0.4,4.89,2.43c0.69,2.03-0.4,4.2-2.43,4.89
			C911.8,289.81,909.6,288.72,908.92,286.71z"/>
		<path class="st1" d="M889.91,286.36c-0.69-2.03,0.4-4.2,2.43-4.89s4.2,0.4,4.89,2.43c0.69,2.03-0.4,4.2-2.43,4.89
			C892.77,289.48,890.58,288.39,889.91,286.36z"/>
		<path class="st1" d="M870.58,286.03c-0.69-2.03,0.4-4.2,2.43-4.89c2.03-0.69,4.2,0.4,4.89,2.43c0.69,2.03-0.4,4.2-2.43,4.89
			C873.45,289.14,871.25,288.05,870.58,286.03z"/>
		<path class="st1" d="M852.08,285.71c-0.69-2.03,0.4-4.2,2.43-4.89c2.03-0.69,4.2,0.4,4.89,2.43c0.69,2.03-0.4,4.2-2.43,4.89
			C854.96,288.81,852.77,287.72,852.08,285.71z"/>
		<path class="st1" d="M833.71,285.37c-0.69-2.03,0.4-4.2,2.43-4.89c2.03-0.69,4.2,0.4,4.89,2.43c0.69,2.03-0.4,4.2-2.43,4.89
			C836.57,288.49,834.39,287.4,833.71,285.37z"/>
		<path class="st1" d="M944.91,287.17c-0.69-2.03,0.4-4.2,2.43-4.89c2.03-0.69,4.2,0.4,4.89,2.43c0.69,2.03-0.4,4.2-2.43,4.89
			C947.77,290.26,945.58,289.18,944.91,287.17z"/>
		<path class="st1" d="M926.94,286.85c-0.69-2.03,0.4-4.2,2.43-4.89c2.03-0.69,4.2,0.4,4.89,2.43c0.69,2.03-0.4,4.2-2.43,4.89
			C929.8,289.95,927.61,288.86,926.94,286.85z"/>
		<path class="st1" d="M451.4,311.2c0.67,2.08-0.49,4.3-2.56,4.97c-2.08,0.67-4.3-0.49-4.97-2.56c-0.67-2.08,0.49-4.3,2.56-4.97
			C448.51,307.97,450.74,309.12,451.4,311.2z"/>
		<path class="st1" d="M486.71,381.4c-1.37,1.62-3.8,1.84-5.44,0.47c-1.62-1.37-1.84-3.8-0.47-5.44c1.37-1.62,3.8-1.84,5.44-0.47
			C487.87,377.33,488.07,379.76,486.71,381.4z"/>
		<path class="st1" d="M496.31,397.81c-1.37,1.62-3.8,1.84-5.44,0.47c-1.62-1.37-1.84-3.8-0.47-5.44c1.37-1.62,3.8-1.84,5.44-0.47
			C497.48,393.74,497.68,396.17,496.31,397.81z"/>
		<path class="st1" d="M506.09,414.49c-1.37,1.62-3.8,1.84-5.44,0.47c-1.64-1.37-1.84-3.8-0.47-5.44c1.37-1.62,3.8-1.84,5.44-0.47
			C507.25,410.42,507.46,412.87,506.09,414.49z"/>
		<path class="st1" d="M515.43,430.45c-1.37,1.62-3.8,1.84-5.44,0.47c-1.62-1.37-1.84-3.8-0.47-5.44c1.37-1.62,3.8-1.84,5.44-0.47
			C516.59,426.38,516.81,428.83,515.43,430.45z"/>
		<path class="st1" d="M524.71,446.31c-1.37,1.62-3.8,1.84-5.44,0.47c-1.62-1.37-1.84-3.8-0.47-5.44c1.37-1.62,3.8-1.84,5.44-0.47
			S526.09,444.69,524.71,446.31z"/>
		<path class="st1" d="M534.33,462.72c-1.37,1.62-3.8,1.84-5.44,0.47c-1.62-1.37-1.84-3.8-0.47-5.44c1.37-1.62,3.8-1.84,5.44-0.47
			S535.7,461.1,534.33,462.72z"/>
		<path class="st1" d="M458.6,333.74c-1.37,1.62-3.8,1.84-5.44,0.47c-1.62-1.37-1.84-3.8-0.47-5.44c1.37-1.62,3.8-1.84,5.44-0.47
			C459.75,329.67,459.95,332.11,458.6,333.74z"/>
		<path class="st1" d="M468.38,350.45c-1.37,1.62-3.8,1.84-5.44,0.47c-1.62-1.37-1.84-3.8-0.47-5.44c1.37-1.62,3.8-1.84,5.44-0.47
			C469.53,346.38,469.73,348.81,468.38,350.45z"/>
		<path class="st1" d="M477.45,365.94c-1.37,1.62-3.8,1.84-5.44,0.47c-1.62-1.37-1.84-3.8-0.47-5.44c1.37-1.62,3.8-1.84,5.44-0.47
			C478.61,361.89,478.83,364.32,477.45,365.94z"/>
		<polygon class="st1" points="548.83,480.81 565.83,477.88 552.53,490.35 555.98,500.96 546.77,491.14 529.6,498.86 539.99,489.12 
			528.97,475.65 538.38,478.41 545.46,468.43 		"/>
		<path class="st1" d="M428.44,269.48c1.41-2.41,12.74-17.37,12.74-17.37l-3.17,17.53l16.33,2.46l-13.01,4.84l11.82,11.15
			l-13.85-2.09l4.52,18.22l-10.27-12.93l-7.23,12.49l0.72-15.19l-18.25,1.81l15.29-7.82l-19.18-10.57l16.4,1.42l-2.63-14.97
			L428.44,269.48z"/>
		<polygon class="st1" points="681.88,91.04 669.77,102.26 671.48,87.93 658.99,86.46 671.53,79.51 671.15,63.04 681.14,73.61 
			698.19,68.12 687.31,80.9 694.91,95.87 		"/>
		<path class="st1" d="M847.86,187.05c-0.5,2.08-2.58,3.35-4.66,2.85s-3.35-2.58-2.85-4.66s2.58-3.35,4.66-2.85
			C847.07,182.9,848.34,184.99,847.86,187.05z"/>
		<path class="st1" d="M863.79,197.45c-0.5,2.08-2.58,3.35-4.66,2.85s-3.35-2.58-2.85-4.66s2.58-3.35,4.66-2.85
			C863,193.3,864.27,195.38,863.79,197.45z"/>
		<path class="st1" d="M879.96,208.02c-0.5,2.08-2.58,3.35-4.66,2.85s-3.35-2.58-2.85-4.66s2.58-3.35,4.66-2.85
			C879.19,203.87,880.47,205.94,879.96,208.02z"/>
		<path class="st1" d="M895.45,218.14c-0.5,2.08-2.58,3.35-4.66,2.85c-2.08-0.5-3.35-2.58-2.85-4.66s2.58-3.35,4.66-2.85
			C894.68,213.98,895.96,216.06,895.45,218.14z"/>
		<path class="st1" d="M910.84,228.18c-0.5,2.08-2.58,3.35-4.66,2.85s-3.35-2.58-2.85-4.66c0.5-2.08,2.58-3.35,4.66-2.85
			C910.07,224.01,911.35,226.11,910.84,228.18z"/>
		<path class="st1" d="M926.77,238.57c-0.5,2.08-2.58,3.35-4.66,2.85c-2.08-0.5-3.35-2.58-2.85-4.66s2.58-3.35,4.66-2.85
			C926,234.41,927.27,236.51,926.77,238.57z"/>
		<path class="st1" d="M944.05,249.85c-0.5,2.08-2.58,3.35-4.66,2.85c-2.08-0.5-3.35-2.58-2.85-4.66s2.58-3.35,4.66-2.85
			C943.28,245.7,944.56,247.78,944.05,249.85z"/>
		<path class="st1" d="M961.5,261.23c-0.5,2.08-2.58,3.35-4.66,2.85c-2.08-0.5-3.35-2.58-2.85-4.66c0.5-2.08,2.58-3.35,4.66-2.85
			C960.72,257.07,961.99,259.17,961.5,261.23z"/>
		<path class="st1" d="M801.42,156.98c-0.5,2.08-2.58,3.35-4.66,2.85c-2.08-0.5-3.35-2.58-2.85-4.66s2.58-3.35,4.66-2.85
			C800.63,152.82,801.91,154.9,801.42,156.98z"/>
		<path class="st1" d="M817.63,167.56c-0.5,2.08-2.58,3.35-4.66,2.85c-2.08-0.5-3.35-2.58-2.85-4.66c0.5-2.08,2.58-3.35,4.66-2.85
			C816.84,163.39,818.12,165.48,817.63,167.56z"/>
		<path class="st1" d="M832.67,177.37c-0.5,2.08-2.58,3.35-4.66,2.85c-2.08-0.5-3.35-2.58-2.85-4.66c0.5-2.08,2.58-3.35,4.66-2.85
			C831.9,173.22,833.17,175.3,832.67,177.37z"/>
		<path class="st1" d="M719.19,102.15c-0.5,2.08-2.58,3.35-4.66,2.85s-3.35-2.58-2.85-4.66c0.5-2.08,2.58-3.35,4.66-2.85
			S719.7,100.09,719.19,102.15z"/>
		<path class="st1" d="M735.12,112.56c-0.5,2.08-2.58,3.35-4.66,2.85c-2.08-0.5-3.35-2.58-2.85-4.66c0.5-2.08,2.58-3.35,4.66-2.85
			C734.35,108.39,735.62,110.49,735.12,112.56z"/>
		<path class="st1" d="M751.3,123.13c-0.5,2.08-2.58,3.35-4.66,2.85c-2.08-0.5-3.35-2.58-2.85-4.66c0.5-2.08,2.58-3.35,4.66-2.85
			C750.53,118.98,751.8,121.07,751.3,123.13z"/>
		<path class="st1" d="M766.79,133.25c-0.5,2.08-2.58,3.35-4.66,2.85c-2.08-0.5-3.35-2.58-2.85-4.66s2.58-3.35,4.66-2.85
			C766,129.09,767.29,131.19,766.79,133.25z"/>
		<path class="st1" d="M782.16,143.31c-0.5,2.08-2.58,3.35-4.66,2.85s-3.35-2.58-2.85-4.66s2.58-3.35,4.66-2.85
			C781.39,139.16,782.66,141.23,782.16,143.31z"/>
		<path class="st1" d="M544.79,189.41c-1.83-1.11-2.41-3.47-1.31-5.29s3.47-2.41,5.29-1.31c1.83,1.11,2.41,3.47,1.31,5.29
			C549,189.93,546.62,190.52,544.79,189.41z"/>
		<path class="st1" d="M530.07,201.46c-1.83-1.11-2.41-3.47-1.31-5.29c1.11-1.83,3.47-2.41,5.29-1.31c1.83,1.11,2.41,3.47,1.31,5.29
			C534.28,201.97,531.9,202.56,530.07,201.46z"/>
		<path class="st1" d="M515.1,213.7c-1.83-1.11-2.41-3.47-1.31-5.29s3.47-2.41,5.29-1.31c1.83,1.11,2.41,3.47,1.31,5.29
			C519.3,214.22,516.93,214.8,515.1,213.7z"/>
		<path class="st1" d="M500.8,225.42c-1.83-1.11-2.41-3.47-1.31-5.29c1.11-1.83,3.47-2.41,5.29-1.31c1.83,1.11,2.41,3.47,1.31,5.29
			C504.99,225.92,502.62,226.51,500.8,225.42z"/>
		<path class="st1" d="M486.56,237.06c-1.83-1.11-2.41-3.47-1.31-5.29c1.11-1.83,3.47-2.41,5.29-1.31c1.83,1.11,2.41,3.47,1.31,5.29
			C490.77,237.56,488.39,238.15,486.56,237.06z"/>
		<path class="st1" d="M471.84,249.1c-1.83-1.11-2.41-3.47-1.31-5.29c1.11-1.83,3.47-2.41,5.29-1.31c1.83,1.11,2.41,3.47,1.31,5.29
			C476.05,249.6,473.67,250.19,471.84,249.1z"/>
		<path class="st1" d="M455.87,262.16c-1.83-1.11-2.41-3.47-1.31-5.29c1.11-1.83,3.47-2.41,5.29-1.31s2.41,3.47,1.31,5.29
			C460.07,262.68,457.69,263.27,455.87,262.16z"/>
		<path class="st1" d="M587.5,154.25c-1.83-1.11-2.41-3.47-1.31-5.29c1.11-1.83,3.47-2.41,5.29-1.31c1.83,1.11,2.41,3.47,1.31,5.29
			C591.7,154.77,589.32,155.35,587.5,154.25z"/>
		<path class="st1" d="M572.52,166.51c-1.83-1.11-2.41-3.47-1.31-5.29c1.11-1.83,3.47-2.41,5.29-1.31c1.83,1.11,2.41,3.47,1.31,5.29
			C576.71,167.01,574.35,167.59,572.52,166.51z"/>
		<path class="st1" d="M558.61,177.88c-1.83-1.11-2.41-3.47-1.31-5.29c1.11-1.83,3.47-2.41,5.29-1.31c1.83,1.11,2.41,3.47,1.31,5.29
			C562.81,178.4,560.43,178.98,558.61,177.88z"/>
		<path class="st1" d="M649.88,104.46c-1.83-1.11-2.41-3.47-1.31-5.29c1.11-1.83,3.47-2.41,5.29-1.31c1.83,1.11,2.41,3.47,1.31,5.29
			S651.7,105.56,649.88,104.46z"/>
		<path class="st1" d="M634.91,116.7c-1.83-1.11-2.41-3.47-1.31-5.29c1.11-1.83,3.47-2.41,5.29-1.31c1.83,1.11,2.41,3.47,1.31,5.29
			C639.09,117.22,636.73,117.81,634.91,116.7z"/>
		<path class="st1" d="M620.59,128.39c-1.83-1.11-2.41-3.47-1.31-5.29c1.11-1.83,3.47-2.41,5.29-1.31c1.83,1.11,2.41,3.47,1.31,5.29
			C624.77,128.91,622.4,129.49,620.59,128.39z"/>
		<path class="st1" d="M606.35,140.03c-1.83-1.11-2.41-3.47-1.31-5.29c1.11-1.83,3.47-2.41,5.29-1.31s2.41,3.47,1.31,5.29
			C610.54,140.55,608.18,141.13,606.35,140.03z"/>
		<path class="st1" d="M992.77,327.11c-0.59,2.11-2.78,3.33-4.89,2.73c-2.11-0.59-3.33-2.78-2.73-4.89
			c0.59-2.11,2.78-3.33,4.89-2.73C992.13,322.82,993.36,325.01,992.77,327.11z"/>
		<path class="st1" d="M983.52,405.15c-2.04,0.6-4.19-0.55-4.79-2.6s0.55-4.19,2.6-4.79c2.04-0.6,4.19,0.55,4.79,2.6
			C986.74,402.38,985.57,404.54,983.52,405.15z"/>
		<path class="st1" d="M982.5,424.14c-2.04,0.6-4.19-0.55-4.79-2.6c-0.6-2.04,0.55-4.19,2.6-4.79c2.04-0.6,4.19,0.55,4.79,2.6
			C985.7,421.37,984.55,423.54,982.5,424.14z"/>
		<path class="st1" d="M981.45,443.43c-2.04,0.6-4.19-0.55-4.79-2.6s0.55-4.19,2.6-4.79c2.04-0.6,4.19,0.55,4.79,2.6
			C984.66,440.68,983.49,442.83,981.45,443.43z"/>
		<path class="st1" d="M980.44,461.9c-2.04,0.6-4.19-0.55-4.79-2.6c-0.6-2.04,0.55-4.19,2.6-4.79c2.04-0.6,4.19,0.55,4.79,2.6
			C983.66,459.16,982.49,461.3,980.44,461.9z"/>
		<path class="st1" d="M979.46,480.26c-2.04,0.6-4.19-0.55-4.79-2.6s0.55-4.19,2.6-4.79c2.04-0.6,4.19,0.55,4.79,2.6
			C982.65,477.51,981.5,479.65,979.46,480.26z"/>
		<path class="st1" d="M978.42,499.25c-2.04,0.6-4.19-0.55-4.79-2.6c-0.6-2.04,0.55-4.19,2.6-4.79c2.04-0.6,4.19,0.55,4.79,2.6
			C981.63,496.5,980.46,498.64,978.42,499.25z"/>
		<path class="st1" d="M986.34,349.88c-2.04,0.6-4.19-0.55-4.79-2.6c-0.6-2.04,0.55-4.19,2.6-4.79c2.04-0.6,4.19,0.55,4.79,2.6
			C989.55,347.14,988.38,349.28,986.34,349.88z"/>
		<path class="st1" d="M985.3,369.21c-2.04,0.6-4.19-0.55-4.79-2.6c-0.6-2.04,0.55-4.19,2.6-4.79c2.04-0.6,4.19,0.55,4.79,2.6
			C988.5,366.46,987.34,368.61,985.3,369.21z"/>
		<path class="st1" d="M984.31,387.14c-2.04,0.6-4.19-0.55-4.79-2.6c-0.6-2.04,0.55-4.19,2.6-4.79c2.04-0.6,4.19,0.55,4.79,2.6
			C987.53,384.4,986.36,386.54,984.31,387.14z"/>
		<polygon class="st1" points="988.6,536.99 1004.41,543.91 986.44,546.99 983.46,557.73 981.18,544.46 962.61,541.45 
			976.64,539.04 974.88,521.74 981.2,529.22 992.62,524.8 		"/>
		<path class="st1" d="M549.36,522.68c-2.04,0.6-4.19-0.55-4.79-2.6c-0.6-2.04,0.55-4.19,2.6-4.79c2.04-0.6,4.19,0.55,4.79,2.6
			C552.56,519.91,551.41,522.06,549.36,522.68z"/>
		<path class="st1" d="M548.36,541.13c-2.04,0.6-4.19-0.55-4.79-2.6c-0.6-2.04,0.55-4.19,2.6-4.79c2.04-0.6,4.19,0.55,4.79,2.6
			C551.56,538.38,550.4,540.53,548.36,541.13z"/>
		<path class="st1" d="M547.35,559.49c-2.04,0.6-4.19-0.55-4.79-2.6c-0.6-2.04,0.55-4.19,2.6-4.79c2.04-0.6,4.19,0.55,4.79,2.6
			C550.57,556.74,549.4,558.88,547.35,559.49z"/>
		<path class="st1" d="M546.33,578.48c-2.04,0.6-4.19-0.55-4.79-2.6c-0.6-2.04,0.55-4.19,2.6-4.79s4.19,0.55,4.79,2.6
			C549.53,575.73,548.38,577.87,546.33,578.48z"/>
		<polygon class="st1" points="556.51,616.22 572.32,623.14 554.34,626.22 551.37,636.96 549.1,623.69 530.52,620.68 544.56,618.27 
			542.78,600.97 549.11,608.45 560.53,604.03 		"/>
		<polygon class="st1" points="1041.69,580.79 1023.77,570.86 1043.34,571.07 1047.58,554.8 1051.55,571.63 1071.6,568.11 
			1060.51,576.6 1071.21,587.05 1058.28,587.34 1058.25,602.76 1050.91,589.11 1039.71,597.8 		"/>
		<path class="st1" d="M1013.74,558.4c0.07,2.18-1.66,4-3.85,4.07c-2.18,0.07-4-1.66-4.07-3.85c-0.07-2.18,1.66-4,3.85-4.07
			C1011.84,554.5,1013.67,556.22,1013.74,558.4z"/>
	</g>
</g>
</svg>
