<?xml version="1.0" encoding="utf-8"?>
<!-- Generator: Adobe Illustrator 25.3.0, SVG Export Plug-In . SVG Version: 6.00 Build 0)  -->
<svg version="1.1" id="Layer_1" xmlns="http://www.w3.org/2000/svg" xmlns:xlink="http://www.w3.org/1999/xlink" x="0px" y="0px"
	 viewBox="0 0 1920 700" style="enable-background:new 0 0 1920 700;" xml:space="preserve">
<style type="text/css">
	.st0{fill:#1B1D50;}
	.st1{fill:#FFFFFF;}
	.st2{opacity:0.42;fill:#8AD2D0;enable-background:new    ;}
	.st3{opacity:0.42;}
	.st4{fill:#8AD2D0;}
</style>
<rect class="st0" width="1920" height="700"/>
<g id="XMLID_1_">
	<g id="XMLID_5_">
		<g id="XMLID_11_">
			<g id="XMLID_12_">
				<path id="XMLID_13_" class="st1" d="M86.52,329.47c-1.84,0-3.71-0.42-5.47-1.3c-6.05-3.02-8.5-10.37-5.48-16.42l42.28-84.55
					c10.03-20.06,9.54-43.75-1.32-63.36C75.63,89.93,75.22,88.28,74.65,86c-1.64-6.56,2.35-13.21,8.9-14.84
					c6.1-1.53,12.27,1.81,14.42,7.56c1.06,2.24,7.21,14.05,39.98,73.26c14.76,26.67,15.44,58.88,1.8,86.17L97.48,322.7
					C95.33,326.99,91.01,329.47,86.52,329.47z M98.04,78.88c0.14,0.38,0.26,0.78,0.36,1.18C98.34,79.84,98.26,79.43,98.04,78.88z"/>
			</g>
		</g>
		<g id="XMLID_6_">
			<g id="XMLID_7_">
				<path id="XMLID_8_" class="st1" d="M258.75,329.47c-5.03,0-9.63-3.11-11.45-7.92c-0.91-1.93-6.51-12.8-39.97-73.27
					c-14.77-26.67-15.44-58.88-1.8-86.17l42.28-84.55c3.02-6.05,10.37-8.5,16.42-5.48c6.05,3.02,8.5,10.37,5.48,16.42l-42.27,84.55
					c-10.03,20.06-9.54,43.75,1.32,63.37c40.9,73.9,41.31,75.55,41.88,77.83c1.64,6.56-2.35,13.2-8.9,14.84
					C260.73,329.35,259.73,329.47,258.75,329.47z M246.89,320.19c0.06,0.23,0.15,0.63,0.36,1.18
					C247.1,320.99,246.99,320.59,246.89,320.19z"/>
			</g>
		</g>
	</g>
	<g id="XMLID_2_">
		<g id="XMLID_3_">
			<path id="XMLID_4_" class="st1" d="M257.5,212.37H87.78c-6.76,0-12.24-5.48-12.24-12.24c0-6.76,5.48-12.24,12.24-12.24H257.5
				c6.76,0,12.24,5.48,12.24,12.24C269.74,206.89,264.27,212.37,257.5,212.37z"/>
		</g>
	</g>
</g>
<g>
	<g>
		<g>
			<g>
				<path class="st2" d="M548.12,515.35c-3.25-3.98-5.86-8.41-7.02-13.45c-0.7-3.05-1.38-6.79,0.81-9.45
					c3.08-3.75,7.97,0.97,10.91,2.61c3.71,2.05,7.66,3.68,11.71,4.9c17.21,5.2,35.83,3.64,53.31,0.73
					c17.67-2.95,35.29-7.06,52.31-12.63c5.42-1.77,10.75-3.75,16.04-5.87c3.62-1.45,7.23-3.02,10.91-4.35c2.91-1.06,5.9-1.92,9-2.27
					c3.49-0.38,7.02-0.11,10.48,0.44c11.78,1.94,25.42,6.16,31.2,17.58c1.71,3.38,2.54,7.19,2.47,10.96
					c-0.03,1.27-0.29,2.48-0.37,3.72c-0.44,6.1-2.17,11.76-5.25,17.1c-7.74,13.42-21.56,21.86-35.63,27.36
					c-20.56,8.04-42.68,12.02-64.75,9.94c-5.46-0.51-10.86-1.4-16.21-2.6c-0.63-0.14-0.9,0.83-0.27,0.97
					c21.9,4.9,44.54,3.92,66.1-2.15c17.14-4.82,35.15-12.09,46.81-26.15c5.28-6.36,9.28-14.2,10.08-22.51
					c0.06-0.66,0.07-1.31,0.1-1.97c0.01-0.27-0.03,0.06-0.01-0.07c0.03-0.23,0.09-0.46,0.13-0.67c0.46-2.82,0.31-5.75-0.27-8.54
					c-2.69-12.85-14.94-19.46-26.72-22.41c-7.37-1.85-14.96-3.08-22.46-1.18c-3.38,0.86-6.63,2.17-9.85,3.46
					c-4.53,1.84-9.05,3.69-13.65,5.39c-16.4,6.02-33.44,10.22-50.55,13.65c-18.29,3.65-37.63,6.46-56.14,2.74
					c-4.56-0.91-9.05-2.25-13.33-4.12c-2.05-0.9-4.05-1.91-5.97-3.05c-1.91-1.14-3.82-2.91-6.06-3.32
					c-2.94-0.54-5.18,1.28-6.06,3.98c-1.06,3.22-0.29,6.63,0.66,9.78c1.34,4.53,3.85,8.53,6.82,12.16
					C547.82,516.56,548.52,515.84,548.12,515.35L548.12,515.35z"/>
			</g>
			<g>
				<path class="st2" d="M688.65,480.14c0.24,0.03-0.04,0-0.13-0.01c-0.23-0.04-0.47-0.07-0.7-0.11c-0.84-0.16-1.68-0.34-2.51-0.54
					c-2.95-0.73-5.83-1.71-8.63-2.89c-8.9-3.78-16.87-9.67-22.97-17.18c-4.18-5.15-7.44-11.01-9.78-17.2
					c-2.41-6.37-4.79-12.5-8.73-18.14c-5.56-7.93-13.22-14.2-22.19-17.87c-2.97-1.21-6.05-2.14-9.2-2.74
					c-1.48-0.29-3.24-0.73-4.78-0.61c-0.07,0-0.14,0-0.21-0.01c-0.4-0.01-0.7,0.57-0.36,0.86c4.38,3.61,7.34,9.75,5.67,15.4
					c-0.64,2.2-1.95,4.05-3.15,5.96c-1.01,1.61-2.02,3.24-2.98,4.88c-1.75,3.04-3.44,6.27-4.22,9.71c-0.64,2.84-0.57,5.87,0.98,8.41
					c1.98,3.19,5.7,4.96,9.2,5.97c4.38,1.27,10.61,1.84,11.02,7.57c0.19,2.62-0.61,5.2-1.06,7.77c-0.43,2.48-0.64,5.03-0.31,7.53
					c0.68,5.16,4.04,8.93,8.65,11.09c2.37,1.11,4.88,1.83,7.41,2.35c3.05,0.64,6.99,1.44,7.71,5.05c0.13,0.63,1.08,0.37,0.97-0.27
					c-1.03-5.16-7.4-5.33-11.44-6.49c-4.85-1.38-9.81-3.99-11.63-9.01c-1.94-5.36,0.13-10.51,0.64-15.87
					c0.21-2.18-0.01-4.49-1.41-6.26c-1.2-1.5-2.99-2.34-4.78-2.94c-4.23-1.43-8.84-1.85-12.33-4.93c-2.68-2.37-3.45-5.72-2.78-9.14
					c0.7-3.64,2.48-7.02,4.32-10.18c1.97-3.38,4.69-6.66,5.97-10.38c2.1-6.1-0.96-12.96-5.76-16.92c-0.11,0.29-0.24,0.57-0.36,0.86
					c3.98,0.07,8.06,1.18,11.78,2.5c9.04,3.21,16.95,9.14,22.71,16.8c4.13,5.5,6.9,11.66,9.21,18.12c2.18,6.1,5.2,11.92,9.13,17.1
					c5.95,7.87,13.82,14.14,22.77,18.29c2.98,1.37,6.06,2.52,9.21,3.41c1.5,0.41,3.14,0.96,4.71,1.06c0.1,0,0.21,0.03,0.31,0.04
					C689.28,481.22,689.28,480.23,688.65,480.14L688.65,480.14z"/>
			</g>
			<g>
				<path class="st2" d="M718.58,548.98c-0.91,2.11-2.1,4.11-3.31,6.06c-3.14,5.08-6.86,9.8-10.98,14.1
					c-13.57,14.17-31.5,23.3-50.73,26.83c-7.09,1.3-14.22,2.27-21.27,3.68c-7.26,1.45-14.47,3.17-21.57,5.3
					c-5.73,1.73-11.39,3.74-16.92,6c-4.78,1.95-9.5,4.19-13.67,7.26c-3.81,2.79-7.19,6.33-8.91,10.79c-0.37,0.96-0.8,4.18-2.22,4.01
					c-1.63-0.2-2.65-2.64-2.89-3.99c-0.63-3.39,1.33-6.44,3.81-8.57c2.51-2.14,5.75-3.27,8.14-5.56c1.83-1.74,3.18-4.41,2.4-6.96
					c-0.4-1.3-1.3-2.35-2.15-3.38c-1.21-1.45-2.44-2.91-3.54-4.45c-1.97-2.77-3.61-5.86-4.11-9.25c-0.51-3.48,0.2-7.17,2.67-9.8
					c2.3-2.42,5.62-3.69,8.9-3.95c3.78-0.29,7.51,0.64,11.06,1.87c3.22,1.13,6.4,2.54,9.82,2.95c6.44,0.8,12.09-2.81,16.81-6.77
					c5.42-4.55,10.32-9.37,17.51-10.82c3.45-0.7,6.99-0.78,10.49-0.77c0.64,0,0.64-1,0-1c-6.93-0.03-13.79,0.57-19.71,4.52
					c-5.79,3.86-10.27,9.57-16.7,12.46c-3.55,1.6-7.23,1.85-10.99,0.86c-3.55-0.94-6.9-2.55-10.47-3.46
					c-6.02-1.54-13.32-1.31-17.72,3.72c-4.23,4.85-3.17,11.89-0.26,17.1c1.64,2.94,3.85,5.45,5.96,8.04
					c1.31,1.63,2.04,3.35,1.31,5.4c-0.67,1.88-2.17,3.27-3.79,4.36c-2.72,1.84-5.73,3.17-7.93,5.7c-1.81,2.08-2.92,4.71-2.57,7.49
					c0.27,2.1,1.65,4.99,4.05,5.28c0.93,0.11,1.63-0.34,2.01-1.17c0.6-1.27,0.73-2.81,1.28-4.12c4.25-9.9,15.93-14.7,25.31-18.28
					c13.66-5.19,27.76-8.7,42.13-11.25c6.9-1.23,13.87-2.05,20.67-3.76c5.49-1.38,10.85-3.24,16.01-5.55
					c8.58-3.85,16.57-9.04,23.57-15.33c7.64-6.86,14.77-15.29,19.15-24.67c0.07-0.14,0.14-0.3,0.2-0.44
					C719.69,548.9,718.82,548.38,718.58,548.98L718.58,548.98z"/>
			</g>
			<g>
				<path class="st2" d="M571.53,500.83c-0.5-3.88-2.18-7.73-3.86-11.22c-4.85-10.08-12.12-18.38-19.88-26.32
					c-6.44-6.59-11.44-14.6-15.87-22.63c-4.61-8.33-8.61-16.98-12.26-25.77c-2.51-6.03-4.86-12.15-7.02-18.32
					c-0.54-1.57-1.1-3.12-1.53-4.72c-3.05-11.48-3.99-23.65-3.44-35.49c1.03-21.53,7.94-42.52,20.76-59.94
					c1.95-2.67,4.04-5.22,6.23-7.69c0.33-0.37,0.01-0.97-0.48-0.84c-11.09,2.92-22.17,5.85-33.25,8.8c-1.1,0.29-2.18,0.63-3.29,0.87
					c0.26-0.06-0.16,0.01-0.29,0.04c-0.3,0.06-0.6,0.11-0.88,0.19c-2.52,0.61-4.93,1.88-6.79,3.71c-2.98,2.95-4.13,7.12-4.11,11.24
					c0.01,2.79,0.5,5.45-0.21,8.23c-0.51,2.01-1.51,3.88-2.89,5.43c-2.25,2.52-5.35,4.19-8.54,5.22c-1.24,0.4-2.99,0.71-3.99,0.94
					c-3.24,0.73-6.44,2.12-9.45,3.51c-12.8,5.95-24.07,16.71-24.15,31.71c-0.03,6.4,1.58,12.95,4.92,18.44
					c5.12,8.44,13.15,14.53,22.5,17.62c4.58,1.51,9.75,3.85,11.88,8.51c1.1,2.41,1.08,5.15,0.26,7.63c-0.51,1.54-1.51,2.79-2.4,4.15
					c-0.84,1.28-1.61,2.67-2.54,3.88c0.14-0.19-0.13,0.13-0.2,0.21c-0.29,0.34-0.57,0.68-0.84,1.04
					c-5.56,7.33-6.27,16.95-2.42,25.24c1.58,3.39,3.86,6.42,5.82,9.6c1.55,2.54,3.04,5.13,4.38,7.79c1.41,2.81,2.78,5.73,3.49,8.81
					c0.56,2.38,0.38,5.08-0.21,7.49c-0.77,3.11-2.47,5.93-5.08,7.83c-1.68,1.23-3.62,2.01-5.62,2.5c-2.71,0.64-5.95,1.06-8.6,0.14
					c-3.27-1.14-6.4-2.97-8.9-5.39c-2.67-2.61-3.81-5.62-3.95-9.3c-0.23-5.69,0.66-12.03-4.62-15.81
					c-5.52-3.98-12.65-2.67-18.98-3.04c-5.59-0.34-11.08-2.65-13.73-7.84c-2.1-4.11-2.2-8.98-2-13.49c0.21-4.75,0.91-9.45,1.11-14.2
					c0.5-12.13-3.54-24.55-9.81-34.82c-3.29-5.39-7.27-10.32-11.71-14.8c-0.38-0.4-1.11,0.13-0.78,0.61
					c0.9,1.35,1.21,3.21,1.41,4.78c0.7,5.42-0.47,11.01-2.1,16.15c-1.41,4.49-3.29,8.81-5.42,13c-2.24,4.39-4.76,8.56-6.4,13.23
					c-2.91,8.27-3.78,17.15-3.35,25.88c0.54,10.92,2.92,21.96,7,32.12c0.07,0.19,0.17,0.46,0.37,0.94c0.44,1.1,0.93,2.17,1.44,3.24
					c1.98,4.18,4.32,8.18,6.89,12.02c8.63,12.92,20.05,23.95,33.31,32.04c2.1,1.27,4.22,2.47,6.4,3.61c0.57,0.3,1.07-0.57,0.5-0.87
					c-14.76-7.69-27.59-18.81-37.3-32.32c-4.18-5.82-7.93-12.08-10.57-18.75c-0.06-0.16-0.04-0.09-0.17-0.4
					c-0.2-0.5-0.38-0.98-0.57-1.48c-0.71-1.9-1.34-3.82-1.92-5.76c-2.01-6.67-3.44-13.56-4.08-20.5
					c-0.81-8.68-0.43-17.57,1.94-25.99c1.34-4.79,3.45-9.11,5.82-13.46c2.31-4.25,4.41-8.65,6.07-13.2
					c2.04-5.55,3.58-11.54,3.32-17.48c-0.07-1.58-0.26-3.18-0.68-4.71c-0.19-0.68-0.4-1.73-0.87-2.28c-0.07-0.09-0.1-0.2-0.16-0.29
					c-0.26,0.2-0.53,0.4-0.78,0.6c9.51,9.62,16.78,21.42,19.76,34.72c1.25,5.58,1.74,11.21,1.3,16.91c-0.36,4.69-1,9.37-1.01,14.07
					c0,4.28,0.5,8.83,2.81,12.53c2.69,4.31,7.5,6.56,12.43,7.1c6.69,0.76,14.86-1.33,20.52,3.44c5.39,4.53,2.69,12.05,4.01,18.04
					c1.33,6,7.34,10.02,12.78,12.02c4.32,1.58,10.18,0.48,14.14-1.78c4.95-2.84,7.34-8.31,7.36-13.86c0.01-2.84-0.86-5.49-1.94-8.1
					c-2.07-4.98-4.79-9.67-7.69-14.2c-2.05-3.22-4.22-6.3-5.5-9.94c-1-2.84-1.5-5.83-1.37-8.84c0.19-4.18,1.6-8.26,3.91-11.75
					c0.98-1.48,2.14-2.81,3.11-4.31c2.45-3.76,5-6.94,4.38-11.72c-0.47-3.56-2.74-6.42-5.62-8.44c-2.5-1.75-5.32-2.82-8.18-3.78
					c-2.94-0.98-5.77-2.27-8.41-3.89c-6.47-3.96-12.11-10.01-15.1-17.04c-3.04-7.11-3.72-15.76-1.24-23.11
					c2.38-7.03,7.54-12.69,13.56-16.85c4.51-3.14,9.52-5.58,14.71-7.34c2.6-0.88,4.35-1.03,7-1.87c3.08-0.98,6.06-2.51,8.37-4.78
					c3.02-2.97,4.45-6.99,4.32-11.19c-0.09-2.81-0.44-5.48,0.21-8.26c0.5-2.1,1.44-4.06,2.89-5.67c1.81-2,4.26-3.35,6.87-3.96
					c10.27-2.42,21.12-5.52,31.54-8.27c2.04-0.54,4.08-1.08,6.12-1.61c-0.16-0.29-0.33-0.56-0.48-0.84
					c-14.84,16.81-23.97,37.69-26.58,59.93c-1.61,13.75-0.98,27.95,2.11,41.46c1.5,6.56,4.08,12.86,6.53,19.11
					c3.25,8.28,6.79,16.47,10.75,24.44c4.28,8.61,9.01,17.08,14.89,24.72c3.07,3.98,6.63,7.37,10.05,11.02
					c4.16,4.45,7.97,9.24,11.21,14.4c3.25,5.19,6.23,10.95,7.49,17c0.03,0.16,0.17,0.94,0.14,0.73
					C570.62,501.46,571.62,501.47,571.53,500.83L571.53,500.83z"/>
			</g>
			<g>
				<path class="st2" d="M546.99,516.23c2.51-1.37,5.65-1.85,8.46-1.74c3.01,0.14,5.93,1.13,8.46,2.77
					c1.25,0.81,2.32,1.87,3.65,2.57c4.98,2.65,11.18,3.29,16.68,3.95c9.72,1.15,19.56,1.47,29.36,1.54
					c12.63,0.09,25.27-0.36,37.88-1.11c16.18-0.98,32.32-2.51,48.41-4.58c-0.11-0.29-0.24-0.57-0.36-0.86
					c-2.55,2.1-5.25,4.04-7.93,5.95c-7.21,5.13-14.69,9.9-22.33,14.37c-11.18,6.54-22.74,12.45-34.61,17.67
					c-14.61,6.44-29.71,11.82-45.14,15.98c-17.48,4.72-35.4,7.84-53.47,9.07c-2.38,0.16-4.76,0.29-7.16,0.38
					c0.04,0.33,0.09,0.66,0.13,0.98c2.72-0.47,5.43-1.06,8.13-1.7c4.65-1.11,9.41-2.35,13.7-4.49c1.6-0.8,3.38-1.8,4.29-3.41
					c0.21-0.39-0.14-0.84-0.57-0.74c-3.72,0.91-7.53,1.57-11.31,2.2c-9.2,1.5-18.49,2.45-27.82,2.79
					c-11.66,0.43-23.46-0.1-34.93-2.32c-11.55-2.22-22.98-6.23-32.55-13.22c-10.15-7.41-17.24-18.02-20.65-30.1
					c-0.48-1.71-0.88-3.42-1.24-5.16c-0.33,0.09-0.64,0.17-0.97,0.27c1.37,5.18,6,9.35,10.88,11.15c4.46,1.63,10.64,2.25,14.89-0.24
					c3.94-2.31,6.03-6.7,8.33-10.44c1.23-2,2.55-3.99,4.33-5.53c2.52-2.2,5.87-2.99,9.17-2.88c7.51,0.27,13.76,4.79,20.48,7.6
					c7.13,2.98,14.86,3.21,22.3,1.35c6.89-1.71,13.47-4.88,20.05-7.5c3.76-1.5,7.54-2.99,11.31-4.51c0.58-0.24,0.33-1.2-0.27-0.97
					c-2.57,1.03-5.15,2.05-7.73,3.08c-5.4,2.15-10.82,4.32-16.23,6.47c-7.49,2.98-15.53,4.66-23.53,2.92
					c-7.21-1.57-13.17-6.25-20.19-8.37c-5.45-1.65-11.83-1.75-16.3,2.28c-3.36,3.05-5.15,7.4-7.69,11.08
					c-1.28,1.85-2.81,3.59-4.81,4.71c-2.45,1.35-5.38,1.4-8.11,1.2c-6.79-0.48-14.07-4.66-15.93-11.65
					c-0.17-0.63-1.1-0.36-0.97,0.27c2.57,12.65,8.65,24.28,18.48,32.78c9,7.79,20.2,12.55,31.7,15.31
					c11.56,2.79,23.56,3.69,35.43,3.55c9.92-0.11,19.83-1,29.66-2.45c3.25-0.48,6.5-1.04,9.72-1.67c0.98-0.2,1.98-0.4,2.97-0.61
					c0.43-0.09,1.2-0.11,1.55-0.36c0.04-0.03,0.14-0.03,0.2-0.04c-0.19-0.24-0.37-0.48-0.57-0.74c-1.08,1.9-3.56,2.94-5.48,3.75
					c-2.79,1.2-5.75,2.08-8.68,2.87c-3.75,1-7.54,1.85-11.36,2.51c-0.56,0.1-0.43,1.01,0.13,0.98c18.35-0.76,36.59-3.45,54.42-7.83
					c15.86-3.89,31.4-9.11,46.45-15.43c12.43-5.22,24.57-11.19,36.29-17.85c8.26-4.69,16.33-9.72,24.13-15.16
					c2.31-1.61,4.61-3.27,6.84-4.96c0.94-0.71,2.31-1.45,3.07-2.38c0.03-0.04,0.09-0.07,0.13-0.1c0.31-0.26,0.07-0.91-0.36-0.86
					c-27.43,3.51-55.14,5.66-82.81,5.7c-10.14,0.01-20.32-0.23-30.4-1.27c-3.68-0.39-7.34-0.87-10.96-1.64
					c-2.48-0.53-5.05-1.15-7.33-2.28c-1.45-0.73-2.61-1.85-3.96-2.72c-2.52-1.64-5.42-2.64-8.41-2.87c-3.15-0.24-6.7,0.3-9.51,1.84
					C545.92,515.67,546.42,516.53,546.99,516.23L546.99,516.23z"/>
			</g>
			<g class="st3">
				<path class="st4" d="M705.87,487.13c3.55,0.03,6.97-1.43,9.91-3.41c1.2-0.8,2.37-1.74,2.99-3.04c0.63-1.3,0.54-3.02-0.53-3.99
					c-0.43-0.38-0.96-0.61-1.48-0.8c-4.68-1.74-10.07-1.44-14.52,0.8C694.44,480.6,698.4,487.08,705.87,487.13z"/>
			</g>
			<g class="st3">
				<path class="st4" d="M737.53,530.39c0.81,0.03,1.75,0.2,2.14,1c0.34,0.7,0.09,1.57-0.17,2.32c-0.58,1.71-1.2,3.46-2.25,4.88
					c-1.5,2.01-3.74,3.11-5.89,4.13c-4.48,2.11-10.35,1.01-6.66-5.46C727.23,532.81,732.99,530.26,737.53,530.39z"/>
			</g>
			<g>
				<path class="st2" d="M726.49,517.1c-4.11,0.94-7.31,4.41-9.38,7.91c-2.17,3.66-3.21,7.9-3.05,12.15c0.03,0.64,1.03,0.64,1,0
					c-0.16-3.94,0.76-7.83,2.69-11.26c1.94-3.44,5.02-6.93,9.01-7.84C727.38,517.91,727.12,516.96,726.49,517.1L726.49,517.1z"/>
			</g>
			<g>
				<path class="st2" d="M697.35,496.18c7.74,3.92,17.1,2.27,22.98-4.13c0.43-0.47-0.27-1.18-0.71-0.71
					c-5.56,6.06-14.42,7.7-21.77,3.98C697.28,495.03,696.78,495.88,697.35,496.18L697.35,496.18z"/>
			</g>
			<g>
				<path class="st2" d="M695.36,499.39c3.55,1.44,7.34,1.94,11.15,1.5c0.63-0.07,0.64-1.07,0-1c-3.72,0.44-7.4-0.06-10.88-1.45
					C695.04,498.19,694.77,499.15,695.36,499.39L695.36,499.39z"/>
			</g>
			<g>
				<path class="st2" d="M709.97,500.7c1.37-0.24,2.67-0.76,3.82-1.53c0.53-0.36,0.03-1.23-0.5-0.87c-1.1,0.73-2.28,1.2-3.58,1.43
					C709.07,499.85,709.34,500.82,709.97,500.7L709.97,500.7z"/>
			</g>
			<g>
				<path class="st2" d="M709.59,511.34c11.65-6.3,23.48-12.66,36.57-15.38c0.63-0.13,0.36-1.1-0.27-0.97
					c-13.16,2.74-25.1,9.14-36.8,15.48C708.53,510.78,709.02,511.65,709.59,511.34L709.59,511.34z"/>
			</g>
			<g>
				<path class="st2" d="M687.95,480.31c-2.92,3.29-5.2,7.09-6.69,11.24c-1.43,3.95-2.4,8.56-1.87,12.78
					c0.11,0.94,0.34,1.87,0.71,2.74c0.09,0.19,0.83,1.2,0.14,0.97c-0.51-0.17-0.96-1.48-1.11-1.9c-0.81-2.22-1.27-4.62-1.48-6.97
					c-0.44-5.03,0.38-10.08,2.34-14.74c0.26-0.6-0.71-0.86-0.97-0.27c-1.61,3.82-2.47,7.91-2.5,12.06
					c-0.01,2.01,0.17,4.02,0.53,5.99c0.34,1.81,0.74,3.84,1.65,5.46c0.44,0.78,1.53,2.14,2.57,1.54c1.23-0.71-0.36-2.62-0.6-3.46
					c-1.13-3.88-0.13-8.63,1.03-12.39c1.4-4.56,3.78-8.75,6.94-12.32C689.08,480.54,688.38,479.83,687.95,480.31L687.95,480.31z"/>
			</g>
			<g>
				<path class="st2" d="M696.99,545.5c7.3,3.17,15.24,4.26,23.13,3.19c0.64-0.09,0.37-1.06-0.27-0.97
					c-7.59,1.04-15.34-0.04-22.36-3.09C696.9,544.39,696.39,545.25,696.99,545.5L696.99,545.5z"/>
			</g>
			<g>
				<path class="st2" d="M696.76,545.7c2.05,2.05,5,2.47,7.57,3.61c2.91,1.28,5.7,2.97,9,2.61c0.63-0.07,0.64-1.07,0-1
					c-3.31,0.36-6.06-1.44-8.98-2.68c-2.32-1-5.03-1.4-6.87-3.24C697,544.55,696.31,545.25,696.76,545.7L696.76,545.7z"/>
			</g>
			<g>
				<path class="st2" d="M660.57,490.31c-2.14,0.47-5.92,2.02-5.33,4.82c0.57,2.78,4.28,3.58,6.66,3.56
					c-0.09-0.31-0.17-0.63-0.26-0.93c-2.77,1.4-7.76,3.28-6.99,7.29c0.7,3.68,6.19,3.81,9.03,3.55c0.64-0.06,0.64-1.06,0-1
					c-2.32,0.2-8.03,0.27-8.07-3.19c-0.04-3.19,4.22-4.62,6.54-5.79c0.46-0.23,0.23-0.94-0.26-0.93c-1.77,0.01-4.55-0.4-5.48-2.18
					c-1.24-2.42,2.69-3.86,4.41-4.23C661.47,491.13,661.22,490.16,660.57,490.31L660.57,490.31z"/>
			</g>
			<g>
				<path class="st2" d="M655.68,493.7c-2.71,0.19-5.25,1.95-5.48,4.83c-0.23,2.67,1.91,4.93,4.59,4.75c0.64-0.04,0.64-1.04,0-1
					c-2.27,0.16-3.95-1.8-3.55-4.04c0.38-2.17,2.37-3.39,4.43-3.55C656.33,494.66,656.33,493.66,655.68,493.7L655.68,493.7z"/>
			</g>
			<g>
				<path class="st2" d="M632.7,511.51c-1.63-0.36-4.75-0.38-5.87,1.18c-1.4,1.94,1.08,3.42,2.62,3.95c0-0.33,0-0.64,0-0.97
					c-1.78,0.63-5.18,0.19-5.62,2.77c-0.34,1.97,1.85,2.5,3.34,2.58c0.64,0.03,0.64-0.97,0-1c-0.56-0.03-1.23-0.04-1.73-0.33
					c-1.17-0.67-0.29-1.91,0.61-2.3c1.14-0.5,2.5-0.33,3.68-0.74c0.47-0.17,0.48-0.8,0-0.97c-0.46-0.16-1.06-0.29-1.44-0.61
					c-1.57-1.4-0.61-2.1,0.51-2.42c1.13-0.33,2.5-0.41,3.64-0.16C633.07,512.62,633.34,511.65,632.7,511.51L632.7,511.51z"/>
			</g>
			<g>
				<path class="st2" d="M627,513.22c-1.45,0.19-3.09,0.56-3.74,2.05c-0.48,1.13,0.1,2.51,1.33,2.78c0.63,0.13,0.9-0.83,0.27-0.97
					c-0.97-0.21-0.91-1.34-0.34-1.94c0.63-0.66,1.61-0.81,2.47-0.93C627.62,514.15,627.62,513.14,627,513.22L627,513.22z"/>
			</g>
			<g>
				<path class="st2" d="M588.74,507.09c4.19,0.88,8.46,1.15,12.72,0.78c0.64-0.06,0.64-1.06,0-1c-4.18,0.36-8.34,0.11-12.45-0.74
					C588.38,505.99,588.11,506.96,588.74,507.09L588.74,507.09z"/>
			</g>
			<g>
				<path class="st2" d="M605.31,507.08c6.84-0.27,13.59-1.58,20.05-3.91c0.6-0.21,0.34-1.18-0.27-0.97
					c-6.37,2.3-13.02,3.61-19.78,3.88C604.67,506.11,604.67,507.1,605.31,507.08L605.31,507.08z"/>
			</g>
			<g>
				<path class="st2" d="M598.14,511.08c3.45,0.09,6.89-0.01,10.32-0.27c0.64-0.04,0.64-1.06,0-1c-3.44,0.27-6.87,0.36-10.32,0.27
					C597.49,510.07,597.49,511.07,598.14,511.08L598.14,511.08z"/>
			</g>
			<g>
				<path class="st2" d="M578.46,507.27c-1.47-0.29-3.44-0.46-4.15,1.21c-0.63,1.45,0.54,2.32,1.83,2.62
					c-0.04-0.3-0.09-0.61-0.11-0.91c-1.34,0.58-3.85,0.26-4.22,2.18c-0.34,1.74,1.6,2.48,2.94,2.74c0.63,0.11,0.9-0.84,0.27-0.97
					c-0.53-0.1-1.53-0.23-1.84-0.67c-0.96-1.28,0.29-1.68,0.98-1.85c0.83-0.21,1.6-0.23,2.4-0.57c0.4-0.17,0.27-0.81-0.11-0.91
					c-0.29-0.06-0.57-0.14-0.84-0.26c-0.47-0.87-0.36-1.4,0.31-1.6c0.67-0.46,1.58-0.2,2.31-0.06
					C578.82,508.36,579.09,507.39,578.46,507.27L578.46,507.27z"/>
			</g>
			<g>
				<path class="st2" d="M545.38,501.3c1.08,3.09,2.85,5.8,5.26,8.03c0.47,0.44,1.18-0.27,0.71-0.71c-2.28-2.1-3.98-4.66-5-7.59
					C546.12,500.43,545.17,500.69,545.38,501.3L545.38,501.3z"/>
			</g>
			<g>
				<path class="st2" d="M551.75,501.54c-2.92-1.64-5.02-4.28-5.97-7.49c-0.19-0.61-1.14-0.36-0.97,0.27
					c1.03,3.45,3.29,6.32,6.43,8.08C551.81,502.71,552.32,501.86,551.75,501.54L551.75,501.54z"/>
			</g>
			<g>
				<path class="st2" d="M681.83,540.27c-1.38,1.18-4.01,3.39-3.56,5.5c0.44,2.12,2.98,1.88,4.56,1.47
					c-0.13-0.3-0.26-0.61-0.39-0.91c-1.63,1.04-4.19,3.88-2.85,5.97c0.6,0.94,1.75,1.01,2.77,1.06c1.77,0.09,3.52-0.14,5.25-0.56
					c0.63-0.16,0.36-1.11-0.27-0.97c-1.63,0.4-4.15,0.98-5.8,0.44c-2.84-0.93,0.03-4.21,1.43-5.1c0.47-0.3,0.17-1.07-0.38-0.91
					c-0.73,0.2-1.54,0.46-2.28,0.24c-1.27-0.37-1.07-1.7-0.47-2.58c0.74-1.11,1.73-2.07,2.74-2.94
					C683.03,540.55,682.32,539.86,681.83,540.27L681.83,540.27z"/>
			</g>
			<g>
				<path class="st2" d="M655.85,556.01c-1.74,0.27-4.92,0.77-5.26,2.97c-0.31,1.98,1.91,2.38,3.38,2.3
					c-0.04-0.33-0.09-0.66-0.13-0.98c-1.4,0.48-2.85,1.23-2.74,2.92c0.04,0.64,1.04,0.64,1,0c-0.09-1.21,1.07-1.64,2-1.97
					c0.5-0.17,0.46-1.01-0.13-0.98c-0.47,0.03-1.1,0.1-1.54-0.07c-1.13-0.46-0.71-1.74,0.17-2.24c1.04-0.58,2.35-0.8,3.52-0.98
					C656.75,556.88,656.48,555.91,655.85,556.01L655.85,556.01z"/>
			</g>
			<g>
				<path class="st2" d="M650.98,558.68c-1.18,0.36-2.52,0.81-3.21,1.94c-0.57,0.96-0.56,2.14,0.2,2.98
					c0.44,0.47,1.14-0.23,0.71-0.71c-0.6-0.66-0.27-1.64,0.31-2.18c0.61-0.57,1.47-0.83,2.25-1.06
					C651.85,559.45,651.59,558.48,650.98,558.68L650.98,558.68z"/>
			</g>
			<g>
				<path class="st2" d="M613.68,458c1.1,2.52,2.89,4.83,4.68,6.92c4.62,5.39,10.57,9.57,17.01,12.5c5.25,2.4,10.81,3.98,16.48,4.96
					c0.63,0.11,0.9-0.86,0.27-0.97c-14.02-2.41-28.49-9.11-36.27-21.56c-0.47-0.76-0.94-1.54-1.31-2.37
					C614.28,456.9,613.42,457.41,613.68,458L613.68,458z"/>
			</g>
			<g>
				<path class="st2" d="M604.51,413.7c-0.39,2.85,0.44,5.99,1.34,8.65c2.79,8.37,8.5,15.61,14.69,21.77
					c6.12,6.09,13.05,11.34,20.25,16.08c0.54,0.36,1.04-0.51,0.5-0.87c-10.85-7.14-21.5-15.58-28.92-26.42
					c-3.29-4.82-6.17-10.39-6.82-16.27c-0.07-0.68-0.13-1.38-0.1-2.07c0-0.13,0.07-0.91,0.03-0.61
					C605.56,413.34,604.61,413.07,604.51,413.7L604.51,413.7z"/>
			</g>
			<g>
				<path class="st2" d="M579.1,613.63c-0.04,0.1,0.16-0.33,0.24-0.51c0.3-0.58,0.64-1.14,0.98-1.7c1.4-2.15,3.09-4.09,4.92-5.9
					c7.8-7.77,17.84-13.22,27.86-17.54c9.94-4.28,20.32-7.47,30.8-10.08c0.63-0.16,0.36-1.13-0.27-0.97
					c-16.28,4.04-32.71,9.47-46.98,18.45c-6.3,3.96-12.58,8.78-16.83,15c-0.64,0.94-1.28,1.92-1.7,2.99
					C577.9,613.97,578.87,614.23,579.1,613.63L579.1,613.63z"/>
			</g>
			<g>
				<path class="st2" d="M494.28,527.25c1.51,0.91,3.17,1.63,4.79,2.32c4.73,2.04,9.67,3.65,14.64,5.02
					c8.16,2.22,16.51,3.72,24.9,4.75c11.98,1.45,24.08,1.9,36.15,1.63c15.78-0.37,31.53-1.97,47.11-4.45
					c2.24-0.36,4.46-0.73,6.69-1.11c0.63-0.11,0.37-1.07-0.27-0.97c-28.19,4.92-57.15,7.29-85.69,4.35
					c-14.22-1.47-28.66-4.15-41.93-9.61c-2-0.83-4.04-1.68-5.89-2.79C494.23,526.05,493.74,526.92,494.28,527.25L494.28,527.25z"/>
			</g>
			<g>
				<path class="st2" d="M432.27,536.68c1.94,1.47,4.05,2.71,6.15,3.92c5.73,3.31,11.76,6.09,17.92,8.5
					c9.48,3.69,19.32,6.43,29.32,8.31c13.02,2.45,26.28,3.45,39.51,3.17c16.61-0.36,33.15-2.72,49.29-6.64
					c2.3-0.56,4.59-1.15,6.86-1.77c0.63-0.17,0.36-1.13-0.27-0.97c-16.54,4.49-33.51,7.4-50.65,8.2
					c-13.62,0.64-27.31-0.04-40.75-2.28c-10.25-1.71-20.36-4.29-30.13-7.87c-6.59-2.41-13.05-5.28-19.18-8.68
					c-1.77-0.98-3.51-2.01-5.19-3.11c-0.71-0.47-1.5-1.23-2.28-1.55c-0.03-0.01-0.07-0.06-0.1-0.07
					C432.27,535.44,431.77,536.29,432.27,536.68L432.27,536.68z"/>
			</g>
			<g>
				<path class="st2" d="M475.83,412.71c0.04,6,1.67,12.21,3.59,17.84c4.68,13.72,13.17,25.89,24.08,35.4
					c8.83,7.69,19.05,13.57,29.83,18.04c0.6,0.24,0.86-0.73,0.27-0.97c-17.42-7.2-33.36-18.44-44-34.22
					c-6.07-9.03-10.39-19.35-12.16-30.1c-0.33-1.97-0.61-3.98-0.63-5.97C476.82,412.07,475.83,412.07,475.83,412.71L475.83,412.71z"
					/>
			</g>
			<g>
				<path class="st2" d="M409,455.5c0.34,2.01,0.97,4.01,1.63,5.93c1.68,4.95,3.98,9.7,6.73,14.13c3.95,6.33,8.88,12.05,14.57,16.87
					c7.37,6.25,15.91,10.96,24.98,14.23c12.28,4.43,25.38,6.25,38.38,6.47c1.92,0.03,3.86,0.03,5.79,0c0.64-0.01,0.64-1.01,0-1
					c-13.46,0.23-27.05-1.07-39.95-5.1c-9.51-2.97-18.58-7.44-26.42-13.6c-5.97-4.69-11.19-10.32-15.4-16.64
					c-2.98-4.51-5.48-9.34-7.31-14.43c-0.57-1.55-1.07-3.15-1.5-4.75c-0.19-0.7-0.23-1.61-0.53-2.27c-0.01-0.03-0.01-0.07-0.01-0.1
					C409.85,454.6,408.88,454.87,409,455.5L409,455.5z"/>
			</g>
			<g>
				<path class="st2" d="M383.35,436.81c-0.26,7.29,0.44,14.69,1.44,21.9c2.05,14.74,6.13,29.6,13.89,42.42
					c4.72,7.81,10.88,14.71,18.48,19.82c0.54,0.36,1.04-0.5,0.5-0.87c-13.47-9.07-21.86-23.61-26.78-38.8
					c-3.86-11.92-5.86-24.48-6.43-36.99c-0.11-2.5-0.2-4.99-0.11-7.49C384.36,436.17,383.36,436.17,383.35,436.81L383.35,436.81z"/>
			</g>
			<g>
				<path class="st2" d="M485.62,319.7c-2.94,7.81-4.41,16.38-5.33,24.64c-2.08,18.61-0.16,37.77,6.79,55.24
					c4.95,12.48,12.38,23.8,21.59,33.54c0.44,0.47,1.15-0.24,0.71-0.71c-15.54-16.44-25.35-37.29-28.03-59.76
					c-1.77-14.79-0.74-29.97,2.84-44.42c0.68-2.78,1.43-5.58,2.44-8.26C486.81,319.36,485.85,319.11,485.62,319.7L485.62,319.7z"/>
			</g>
			<g>
				<path class="st2" d="M652.09,592.44c2.82,0.16,5.58-0.38,8.3-1.06c2.55-0.61,5.12-1.24,7.64-1.98c4.85-1.41,9.58-3.31,13.62-6.4
					c0.5-0.38,0-1.25-0.5-0.87c-3.98,3.04-8.61,4.9-13.37,6.3c-2.27,0.67-4.56,1.23-6.87,1.8c-2.91,0.71-5.8,1.37-8.81,1.2
					C651.45,591.41,651.45,592.41,652.09,592.44L652.09,592.44z"/>
			</g>
			<g>
				<path class="st2" d="M673.18,583.52c9.01-4.58,16.94-11.06,23.2-18.99c0.4-0.5-0.31-1.21-0.71-0.71
					c-6.22,7.87-14.06,14.29-23,18.84C672.11,582.94,672.61,583.81,673.18,583.52L673.18,583.52z"/>
			</g>
			<g>
				<path class="st2" d="M686.61,580.06c1.64-1.07,3.29-2.14,4.93-3.19c0.54-0.34,0.04-1.21-0.5-0.87
					c-1.64,1.07-3.29,2.14-4.93,3.19C685.55,579.55,686.07,580.42,686.61,580.06L686.61,580.06z"/>
			</g>
			<g>
				<path class="st2" d="M578.35,595.22c-4.25-3.15-4.01-9.3-0.68-13c3.72-4.15,9.58-4.81,14.76-3.58c0.63,0.14,0.9-0.81,0.27-0.97
					c-5.83-1.37-12.48-0.43-16.34,4.58c-3.27,4.23-2.94,10.55,1.48,13.84C578.36,596.48,578.86,595.61,578.35,595.22L578.35,595.22z
					"/>
			</g>
			<g>
				<path class="st2" d="M582.92,588.05c0.13-4.04,4.49-5.42,7.86-5.18c3.49,0.26,6.79,1.63,10.31,1.65c0.64,0,0.64-1,0-1
					c-4.39-0.04-8.61-2.24-13.03-1.57c-3.14,0.47-6.03,2.74-6.15,6.09C581.9,588.71,582.91,588.71,582.92,588.05L582.92,588.05z"/>
			</g>
			<g>
				<path class="st2" d="M607.95,584.8c6.47-1.84,12.45-5,17.61-9.34c0.5-0.41-0.21-1.11-0.71-0.71
					c-5.02,4.21-10.86,7.29-17.17,9.08C607.06,584.01,607.33,584.97,607.95,584.8L607.95,584.8z"/>
			</g>
			<g>
				<path class="st2" d="M586.93,608.94c2.5-3.24,5.58-5.92,9.11-7.98c0.56-0.33,0.06-1.18-0.5-0.87c-3.68,2.15-6.86,4.96-9.47,8.34
					C585.67,608.94,586.53,609.44,586.93,608.94L586.93,608.94z"/>
			</g>
			<g>
				<path class="st2" d="M617.73,471.6c12.01,10.21,27.7,15.63,43.45,14.94c0.64-0.03,0.64-1.03,0-1
					c-15.47,0.67-30.94-4.61-42.75-14.64C617.94,470.49,617.24,471.19,617.73,471.6L617.73,471.6z"/>
			</g>
			<g>
				<path class="st2" d="M627.1,466.41c3.51,2.47,7.3,4.42,11.35,5.83c0.61,0.21,0.87-0.76,0.27-0.97
					c-3.96-1.4-7.67-3.32-11.11-5.73C627.07,465.17,626.57,466.04,627.1,466.41L627.1,466.41z"/>
			</g>
			<g>
				<path class="st2" d="M607.9,409.49c6.9,2.41,12.21,7.64,17.32,12.65c4.99,4.88,10.08,10.15,11.85,17.12
					c0.16,0.63,1.13,0.36,0.97-0.27c-1.8-7.13-6.99-12.56-12.11-17.57c-5.25-5.13-10.68-10.44-17.75-12.9
					C607.56,408.32,607.3,409.28,607.9,409.49L607.9,409.49z"/>
			</g>
			<g>
				<path class="st2" d="M624.23,427.56c7.46,6.6,5.77,20.25,15.73,24.62c0.58,0.26,1.1-0.6,0.5-0.87
					c-9.71-4.26-8.14-17.94-15.53-24.47C624.46,426.41,623.74,427.13,624.23,427.56L624.23,427.56z"/>
			</g>
			<g>
				<path class="st2" d="M523.32,532.06c10.75,2.55,21.72,4.06,32.75,4.49c0.64,0.03,0.64-0.97,0-1
					c-10.95-0.43-21.82-1.92-32.48-4.46C522.97,530.94,522.69,531.9,523.32,532.06L523.32,532.06z"/>
			</g>
			<g>
				<path class="st2" d="M548.37,532.68c18.61,1.71,37.33,1.74,55.94,0.11c0.64-0.06,0.64-1.06,0-1
					c-18.61,1.64-37.34,1.6-55.94-0.11C547.73,531.63,547.73,532.63,548.37,532.68L548.37,532.68z"/>
			</g>
			<g>
				<path class="st2" d="M452.96,536.95c3.94,0.83,7.46-1.24,10.47-3.56c3.58-2.75,6.92-5.29,11.66-5.23
					c9.01,0.13,15.8,6.97,23.58,10.48c4.58,2.07,9.35,2.47,14.3,2.65c0.64,0.03,0.64-0.98,0-1c-4.76-0.17-9.4-0.53-13.8-2.51
					c-3.78-1.7-7.2-4.09-10.77-6.17c-6.84-3.99-15.04-6.53-22.1-1.64c-3.88,2.68-7.86,7.13-13.08,6.03
					C452.6,535.85,452.33,536.8,452.96,536.95L452.96,536.95z"/>
			</g>
			<g>
				<path class="st2" d="M474.03,535.65c4.31,0.37,8.14,2.37,11.83,4.45c3.49,1.98,6.96,3.92,10.71,5.38
					c8.21,3.18,16.68,3.95,25.42,3.65c5.4-0.19,10.84-0.5,16.21,0.33c0.63,0.1,0.9-0.87,0.27-0.97c-9.11-1.41-18.32,0.37-27.48-0.56
					c-4.42-0.46-8.78-1.47-12.98-2.97c-4.12-1.48-7.87-3.58-11.66-5.72c-3.86-2.2-7.84-4.21-12.33-4.59
					C473.39,534.59,473.39,535.61,474.03,535.65L474.03,535.65z"/>
			</g>
			<g>
				<path class="st2" d="M524.38,545.42c1.4,0,2.79,0,4.19,0c0.64,0,0.64-1,0-1c-1.4,0-2.79,0-4.19,0
					C523.74,544.42,523.74,545.42,524.38,545.42L524.38,545.42z"/>
			</g>
			<g>
				<path class="st2" d="M443.72,554.19c12.15,8.13,24.82,16.5,39.54,18.86c0.63,0.1,0.9-0.86,0.27-0.97
					c-14.63-2.35-27.22-10.68-39.3-18.76C443.69,552.97,443.19,553.83,443.72,554.19L443.72,554.19z"/>
			</g>
			<g>
				<path class="st2" d="M576.83,570.2c16.21-1.03,32.14-4.93,46.98-11.55c0.58-0.26,0.09-1.13-0.5-0.87
					c-14.67,6.53-30.46,10.39-46.48,11.41C576.19,569.24,576.19,570.24,576.83,570.2L576.83,570.2z"/>
			</g>
			<g>
				<path class="st2" d="M607.95,559.7c16.6-4.52,31-14.26,45.04-23.85c0.53-0.36,0.03-1.23-0.5-0.87
					c-13.97,9.54-28.29,19.25-44.8,23.75C607.06,558.91,607.32,559.87,607.95,559.7L607.95,559.7z"/>
			</g>
			<g>
				<path class="st2" d="M481.72,417.8c5.19,11.82,12.28,22.73,20.97,32.28c0.43,0.47,1.14-0.23,0.71-0.71
					c-8.64-9.48-15.67-20.33-20.82-32.08C482.31,416.7,481.46,417.22,481.72,417.8L481.72,417.8z"/>
			</g>
			<g>
				<path class="st2" d="M509.46,456.56c12.12,14.16,31.75,17.45,45.87,28.93c4.42,3.59,8.5,8.1,9.57,13.87
					c0.11,0.63,1.08,0.37,0.97-0.27c-1.74-9.42-10.85-15.8-18.61-20.26c-8.1-4.65-16.85-8.06-24.85-12.9
					c-4.55-2.77-8.77-6.02-12.25-10.08C509.75,455.36,509.05,456.07,509.46,456.56L509.46,456.56z"/>
			</g>
			<g>
				<path class="st2" d="M524.36,290.7c-15.36,12.76-20.13,33.18-20.83,52.26c-0.23,6.33-0.11,12.68,0.01,19.02
					c0.01,0.64,1.01,0.64,1,0c-0.4-20.08-0.58-41.25,10.45-58.89c2.74-4.39,6.1-8.37,10.08-11.68
					C525.56,291,524.85,290.29,524.36,290.7L524.36,290.7z"/>
			</g>
			<g>
				<path class="st2" d="M506.44,303.16c-2.85,5.63-5.7,11.35-6.73,17.65c-0.1,0.63,0.86,0.9,0.97,0.27
					c1.01-6.22,3.81-11.85,6.63-17.41C507.59,303.09,506.72,302.59,506.44,303.16L506.44,303.16z"/>
			</g>
			<g>
				<path class="st2" d="M497.31,334.2c-1.03,11.66-0.4,23.4,1.83,34.89c0.13,0.63,1.08,0.37,0.97-0.27
					c-2.22-11.41-2.81-23.06-1.8-34.62C498.37,333.56,497.37,333.56,497.31,334.2L497.31,334.2z"/>
			</g>
			<g>
				<path class="st2" d="M499.25,375.13c0.78,4.65,1.83,9.25,3.11,13.79c0.17,0.61,1.14,0.36,0.97-0.27
					c-1.3-4.53-2.34-9.14-3.11-13.79C500.11,374.23,499.14,374.5,499.25,375.13L499.25,375.13z"/>
			</g>
			<g>
				<path class="st2" d="M477.78,507.96c19.48,3.09,39.54,0.23,58.8,4.95c0.63,0.16,0.9-0.81,0.27-0.97
					c-19.28-4.72-39.33-1.85-58.8-4.95C477.41,506.89,477.14,507.86,477.78,507.96L477.78,507.96z"/>
			</g>
			<g>
				<path class="st2" d="M520.18,504.2c5.87-0.54,11.73,0.2,17.3,2.18c0.61,0.21,0.87-0.76,0.27-0.97
					c-5.63-2.01-11.61-2.77-17.57-2.22C519.54,503.25,519.54,504.25,520.18,504.2L520.18,504.2z"/>
			</g>
			<g>
				<path class="st2" d="M408.33,502.16c4.41,7.76,11.73,13.08,19.21,17.64c4.31,2.64,8.73,5.09,12.9,7.93
					c3.88,2.62,7.96,5.63,9.8,10.11c0.24,0.58,1.21,0.33,0.97-0.27c-1.63-3.94-4.75-6.76-8.13-9.21c-4.09-2.97-8.48-5.48-12.8-8.07
					c-8.1-4.83-16.31-10.22-21.09-18.62C408.87,501.1,408.01,501.6,408.33,502.16L408.33,502.16z"/>
			</g>
			<g>
				<path class="st2" d="M411.85,498.09c2.67,3.99,5.75,7.69,9.18,11.04c0.46,0.44,1.17-0.26,0.71-0.71
					c-3.38-3.29-6.4-6.92-9.03-10.84C412.35,497.05,411.49,497.55,411.85,498.09L411.85,498.09z"/>
			</g>
			<g>
				<path class="st2" d="M405.36,483.72c1.25,3.51,3.01,6.77,5.26,9.74c0.38,0.5,1.25,0.01,0.87-0.5c-2.21-2.89-3.95-6.07-5.16-9.51
					C406.12,482.85,405.15,483.11,405.36,483.72L405.36,483.72z"/>
			</g>
			<g>
				<path class="st2" d="M394.32,394.63c4.09,6.19,6.94,13.08,8.43,20.35c0.13,0.63,1.1,0.36,0.97-0.27
					c-1.5-7.36-4.39-14.33-8.53-20.59C394.84,393.59,393.97,394.09,394.32,394.63L394.32,394.63z"/>
			</g>
			<g>
				<path class="st2" d="M404.05,419.76c0.34,10.1,0.13,20.2-0.63,30.29c-0.04,0.64,0.96,0.64,1,0c0.76-10.08,0.97-20.19,0.63-30.29
					C405.02,419.11,404.02,419.11,404.05,419.76L404.05,419.76z"/>
			</g>
		</g>
		<g>
			<g>
				<path class="st2" d="M747.91,183.79c3.39,3.85,6.17,8.18,7.51,13.17c0.8,2.98,1.57,6.44-0.29,9.24
					c-2.78,4.19-7.81-0.21-10.85-1.77c-3.82-1.98-7.87-3.49-12.03-4.59c-17.62-4.68-36.49-2.35-54.07,1.3
					c-17.55,3.64-35.02,8.4-51.83,14.64c-5.25,1.95-10.41,4.09-15.51,6.37c-3.56,1.58-7.09,3.28-10.71,4.72
					c-2.87,1.14-5.82,2.08-8.88,2.51c-3.49,0.48-7.06,0.31-10.54-0.14c-11.81-1.54-25.55-5.33-31.63-16.58
					c-1.77-3.28-2.71-6.99-2.77-10.71c-0.01-1.28,0.19-2.47,0.24-3.68c0.23-6.25,1.8-12.08,4.79-17.62
					c7.5-13.89,21.35-22.76,35.49-28.79c20.05-8.54,41.72-13.13,63.55-11.82c5.38,0.33,10.71,1,16,1.98
					c0.63,0.11,0.9-0.84,0.27-0.97c-21.64-4.02-43.82-2.37-64.79,4.19c-17.18,5.38-35.23,13.26-46.67,27.76
					c-5.22,6.62-9.08,14.76-9.61,23.27c-0.07,1.21-0.01,1.92-0.13,2.82c-0.34,2.77-0.1,5.62,0.56,8.31
					c3.05,12.62,15.29,18.92,27.06,21.47c7.49,1.61,15.2,2.68,22.69,0.54c3.31-0.94,6.47-2.34,9.61-3.74
					c4.43-1.98,8.84-4.01,13.32-5.85c16.1-6.63,32.89-11.46,49.81-15.51c18.39-4.42,37.88-8.06,56.79-4.98
					c4.56,0.74,9.07,1.91,13.39,3.61c2.21,0.87,4.36,1.88,6.43,3.02c1.88,1.04,3.78,2.67,5.97,2.94c2.97,0.37,5.08-1.58,5.83-4.33
					c0.88-3.24,0-6.53-1.04-9.61c-1.51-4.48-4.15-8.38-7.26-11.92C748.19,182.61,747.48,183.31,747.91,183.79L747.91,183.79z"/>
			</g>
			<g>
				<path class="st2" d="M608.76,224.14c3.99,0.37,8.17,1.67,11.96,3.09c9.1,3.44,17.32,9.05,23.73,16.38
					c4.32,4.95,7.77,10.62,10.34,16.65c1.41,3.32,2.65,6.66,4.33,9.87c1.48,2.81,3.17,5.52,5.09,8.06
					c5.85,7.76,13.75,13.76,22.88,17.1c2.99,1.1,6.12,1.91,9.27,2.4c1.5,0.23,3.25,0.6,4.78,0.44c0.07-0.01,0.14,0,0.23,0
					c0.54-0.01,0.63-0.64,0.26-0.93c0.2,0.16-0.23-0.19-0.29-0.24c-0.31-0.27-0.63-0.56-0.93-0.86c-0.98-0.96-1.88-2.01-2.65-3.14
					c-2.2-3.22-3.28-7.1-2.28-10.95c0.57-2.17,1.77-4.04,2.88-5.95c0.94-1.63,1.87-3.25,2.75-4.9c1.65-3.11,3.22-6.39,3.91-9.85
					c0.56-2.85,0.44-5.89-1.18-8.4c-2.04-3.15-5.79-4.81-9.3-5.7c-4.19-1.08-10.38-1.3-11.39-6.56c-0.5-2.64,0.21-5.36,0.61-7.97
					c0.36-2.4,0.53-4.82,0.21-7.23c-0.7-5.49-4.16-9.41-9.17-11.55c-2.32-1-4.78-1.61-7.26-2.05c-3.12-0.56-7.27-1.13-8.14-4.79
					c-0.14-0.63-1.11-0.36-0.97,0.27c1.23,5.2,7.73,5.09,11.86,6.13c4.99,1.25,10.07,3.81,11.93,8.94c0.97,2.64,1.04,5.52,0.77,8.3
					c-0.26,2.62-0.96,5.2-1.01,7.84c-0.04,2.08,0.4,4.21,1.85,5.76c1.37,1.47,3.35,2.2,5.23,2.69c4.26,1.15,8.9,1.55,12.33,4.65
					c2.6,2.32,3.28,5.65,2.71,8.98c-0.64,3.71-2.35,7.19-4.12,10.47c-1.88,3.49-4.59,6.94-5.55,10.84
					c-1.5,6.07,1.84,12.45,6.64,16.13c0.09-0.31,0.17-0.63,0.26-0.93c-3.96,0.07-8.07-0.87-11.82-2.05
					c-9.13-2.87-17.2-8.43-23.24-15.83c-4.41-5.39-7.43-11.49-10-17.91c-2.38-5.95-5.55-11.55-9.57-16.54
					c-6.23-7.76-14.42-13.79-23.57-17.64c-3.02-1.27-6.16-2.31-9.35-3.08c-1.48-0.36-3.28-0.93-4.83-0.9
					c-0.07,0-0.16-0.01-0.23-0.03C608.12,223.09,608.12,224.09,608.76,224.14L608.76,224.14z"/>
			</g>
			<g>
				<path class="st2" d="M576.38,156.34c2.88-7.39,8.23-14.66,13.56-20.65c13.09-14.67,30.7-24.44,49.85-28.63
					c7.13-1.57,14.32-2.84,21.42-4.53c7.2-1.73,14.34-3.72,21.35-6.15c5.53-1.91,10.98-4.09,16.31-6.5
					c4.65-2.11,9.21-4.51,13.23-7.66c3.72-2.92,6.99-6.62,8.57-11.15c0.19-0.54,0.36-1.1,0.48-1.67c0.09-0.33,0.1-0.71,0.21-1.04
					c0.14-0.41,0.81-1.35,1.35-1.4c0.76-0.06,1.67,1.04,2.05,1.58c0.48,0.68,0.81,1.47,1,2.28c0.76,3.37-1.07,6.49-3.48,8.7
					c-2.48,2.28-5.76,3.54-8.08,6.02c-1.74,1.85-2.91,4.59-1.92,7.1c0.53,1.34,1.55,2.38,2.51,3.44c1.27,1.4,2.52,2.82,3.66,4.35
					c2.02,2.72,3.69,5.77,4.23,9.15c0.54,3.44-0.17,7.09-2.6,9.7c-2.2,2.35-5.35,3.68-8.51,4.04c-3.76,0.43-7.54-0.36-11.12-1.45
					c-3.27-1-6.49-2.3-9.92-2.6c-6.46-0.57-11.99,3.24-16.55,7.37c-5.25,4.75-9.97,9.75-17.1,11.46c-3.42,0.83-6.96,1.04-10.47,1.15
					c-0.64,0.03-0.64,1.03,0,1c6.93-0.23,13.76-1.07,19.52-5.23c5.65-4.06,9.91-9.92,16.23-13.08c3.58-1.78,7.31-2.12,11.19-1.21
					c3.66,0.87,7.14,2.38,10.85,3.12c5.97,1.2,13,0.57,17.11-4.49c3.91-4.83,2.78-11.62-0.14-16.64c-1.74-2.98-4.05-5.5-6.33-8.06
					c-1.47-1.64-2.37-3.31-1.68-5.52c0.58-1.91,2.04-3.37,3.62-4.51c2.65-1.94,5.6-3.38,7.71-5.99c1.68-2.07,2.69-4.63,2.35-7.33
					c-0.29-2.17-1.77-5.16-4.25-5.38c-0.93-0.09-1.61,0.38-1.98,1.23c-0.53,1.21-0.6,2.69-1.06,3.96
					c-3.74,10.11-15.26,15.4-24.5,19.32c-13.67,5.82-27.89,9.87-42.4,12.98c-6.8,1.45-13.69,2.54-20.38,4.52
					c-5.39,1.6-10.65,3.65-15.7,6.16c-8.38,4.18-16.13,9.64-22.84,16.15c-7.36,7.14-14.1,15.77-18.14,25.28
					c-0.07,0.17-0.14,0.36-0.21,0.53C575.18,156.69,576.15,156.94,576.38,156.34L576.38,156.34z"/>
			</g>
			<g>
				<path class="st2" d="M725.07,199.29c0.64,3.81,2.47,7.57,4.25,10.94c5.16,9.78,12.62,17.85,20.62,25.38
					c6.63,6.23,11.85,13.9,16.54,21.63c4.86,8.03,9.14,16.4,13.09,24.9c2.84,6.12,5.5,12.31,7.97,18.58
					c0.64,1.61,1.3,3.24,1.81,4.89c3.51,11.28,4.9,23.37,4.82,35.13c-0.16,21.63-6.23,42.96-18.41,60.93
					c-1.9,2.79-3.92,5.5-6.07,8.11c-0.3,0.36-0.03,1,0.48,0.84c10.94-3.32,21.87-6.63,32.79-9.97c4.04-1.23,8.16-2.02,11.18-5.25
					c2.88-3.07,3.89-7.26,3.71-11.36c-0.11-2.69-0.68-5.25-0.16-7.93c0.41-2.14,1.35-4.15,2.74-5.83c3.15-3.82,7.67-5.45,12.29-6.62
					c3.27-0.83,6.49-2.4,9.47-3.92c5.83-2.99,11.35-6.9,15.57-11.96c4.99-6,7.67-13.47,7.23-21.32c-0.36-6.39-2.3-12.7-5.9-17.99
					c-2.35-3.45-5.22-6.52-8.5-9.1c-4.56-3.58-9.65-5.75-15.17-7.43c-4.48-1.37-9.54-3.72-11.52-8.3c-0.98-2.28-1-4.88-0.27-7.23
					c0.51-1.67,1.58-3.09,2.48-4.58c0.44-0.74,0.9-1.48,1.34-2.24c0.19-0.31,0.37-0.63,0.57-0.94c0.03-0.06,0.3-0.48,0.14-0.26
					c0.38-0.53,0.81-1.01,1.18-1.54c5.59-8.1,5.4-18.38,0.48-26.76c-1.92-3.28-4.33-6.26-6.39-9.45c-1.5-2.32-2.92-4.71-4.22-7.16
					c-1.3-2.48-2.58-5.08-3.25-7.81c-0.19-0.77-0.23-1.18-0.29-1.81c-0.17-2-0.01-4.04,0.48-5.97c0.81-3.19,2.65-6.05,5.4-7.9
					c1.81-1.21,3.86-1.98,5.99-2.44c1.38-0.3,2.79-0.46,4.22-0.53c1.77-0.09,3.29,0.37,4.93,1.01c3.21,1.27,6.32,3.17,8.61,5.76
					c2.35,2.65,2.91,5.87,3.05,9.31c0.11,2.95,0.03,5.99,1.01,8.81c0.93,2.64,2.77,4.72,5.26,6c6.09,3.11,12.93,1.24,19.42,1.74
					c5.42,0.41,10.48,3.02,12.89,8.06c1.97,4.11,2.15,8.9,2.07,13.37c-0.09,4.69-0.61,9.37-0.57,14.06
					c0.09,12.05,4.61,24.17,11.24,34.11c3.45,5.16,7.54,9.85,12.06,14.1c0.4,0.37,1.13-0.13,0.78-0.61
					c-0.96-1.34-1.33-3.19-1.6-4.78c-0.9-5.36,0.07-10.99,1.5-16.17c1.24-4.53,2.97-8.93,4.93-13.19c2.1-4.55,4.51-8.85,5.99-13.66
					c2.58-8.37,3.09-17.28,2.32-25.98c-0.97-10.85-3.75-21.76-8.18-31.74c-0.04-0.11-0.21-0.51-0.41-0.93
					c-0.47-1.07-1-2.11-1.54-3.14c-2.15-4.12-4.65-8.07-7.39-11.85c-9.08-12.55-20.87-23.13-34.39-30.7
					c-2.12-1.2-4.29-2.31-6.5-3.35c-0.58-0.27-1.08,0.58-0.5,0.87c14.99,7.13,28.16,17.71,38.37,30.8
					c4.38,5.63,8.58,12.18,11.35,18.48c3.84,8.71,6.44,18.04,7.73,27.46c1.2,8.78,1.15,17.84-0.93,26.48
					c-1.14,4.75-3.02,9.08-5.2,13.43c-2.18,4.35-4.12,8.84-5.65,13.46c-1.85,5.67-3.22,11.78-2.75,17.78
					c0.13,1.55,0.37,3.12,0.83,4.62c0.21,0.68,0.46,1.75,0.96,2.31c0.07,0.07,0.11,0.19,0.17,0.27c0.26-0.2,0.53-0.4,0.78-0.61
					c-9.68-9.11-17.31-20.39-20.85-33.29c-1.51-5.5-2.31-11.15-2.12-16.85c0.16-4.66,0.63-9.31,0.54-13.97
					c-0.09-4.28-0.63-8.81-2.87-12.56c-2.47-4.12-6.89-6.5-11.58-7.14c-6.86-0.96-14.4,1.58-20.79-1.95
					c-6.5-3.59-4.78-11.09-5.73-17.22c-0.97-6.25-6.33-10.27-11.89-12.5c-1.3-0.53-2.77-1.14-4.18-1.17
					c-1.33-0.03-2.68,0.11-4.01,0.3c-2.3,0.33-4.55,0.96-6.6,2.04c-5.26,2.78-7.83,8.38-7.79,14.19c0,0.61,0.06,1.23,0.11,1.84
					c0.06,0.5-0.01-0.01,0.06,0.46c0.26,1.83,0.94,3.58,1.67,5.26c1.94,4.51,4.52,8.74,7.23,12.8c2.18,3.28,4.71,6.36,6.43,9.92
					c1.41,2.92,2.32,6.12,2.48,9.37c0.21,4.49-0.98,8.97-3.27,12.83c-0.9,1.53-2.02,2.89-2.94,4.41c-2.31,3.84-4.83,7.11-4.21,11.85
					c1.38,10.41,14.44,11.19,21.82,15.07c7.02,3.69,13.13,9.64,16.63,16.8c3.25,6.64,4.39,15.34,2.37,22.7
					c-2,7.3-6.97,13.3-12.93,17.81c-4.42,3.34-9.37,6-14.53,7.98c-2.32,0.9-4.73,1.33-7.07,2.17c-3.05,1.1-5.97,2.75-8.2,5.13
					c-2.85,3.07-4.12,7.1-3.84,11.25c0.19,2.85,0.66,5.56,0.06,8.41c-0.43,2.05-1.28,4.01-2.64,5.62c-1.74,2.07-4.16,3.54-6.76,4.23
					c-10.49,2.84-20.87,6.29-31.28,9.44c-1.98,0.6-3.96,1.2-5.93,1.8c0.16,0.29,0.33,0.56,0.48,0.84
					c14.36-17.51,22.73-38.94,24.42-61.48c1.04-13.75-0.16-27.88-3.79-41.19c-1.81-6.62-4.72-12.95-7.46-19.21
					c-3.64-8.3-7.56-16.48-11.93-24.41c-4.53-8.23-9.52-16.31-15.58-23.51c-3.35-3.98-7.26-7.31-10.89-11.01
					c-4.18-4.25-8.04-8.84-11.34-13.82c-3.24-4.88-6.23-10.29-7.61-16.04c-0.06-0.26-0.13-0.51-0.17-0.77
					C725.92,198.39,724.97,198.65,725.07,199.29L725.07,199.29z"/>
			</g>
			<g>
				<path class="st2" d="M749.02,182.88c-2.58,1.53-5.89,2.15-8.84,2.04c-3.19-0.11-6.26-1.18-8.91-2.95c-1.07-0.71-2-1.5-3.18-2.04
					c-5.23-2.41-11.51-2.84-17.15-3.27c-9.71-0.76-19.49-0.7-29.22-0.4c-12.75,0.4-25.47,1.33-38.16,2.57
					c-15.93,1.57-31.78,3.68-47.57,6.29c0.16,0.29,0.33,0.56,0.48,0.84c2.45-2.18,5.06-4.21,7.66-6.2
					c7.02-5.39,14.32-10.44,21.77-15.19c10.94-6.96,22.29-13.29,33.95-18.95c14.39-6.97,29.29-12.93,44.57-17.65
					c17.32-5.36,35.13-9.14,53.17-11.04c2.35-0.24,4.71-0.46,7.06-0.64c-0.04-0.33-0.09-0.66-0.13-0.98
					c-4.09,0.86-8.14,1.94-12.13,3.19c-2.92,0.93-5.86,1.97-8.61,3.34c-1.84,0.93-4.04,2.1-5.02,3.99c-0.2,0.37,0.13,0.86,0.57,0.74
					c3.69-1.04,7.47-1.85,11.25-2.61c9.11-1.84,18.35-3.14,27.63-3.81c11.62-0.86,23.38-0.76,34.9,1.01
					c11.65,1.8,23.23,5.36,33.07,11.99c10.48,7.06,18.01,17.45,21.84,29.46c0.53,1.65,0.98,3.32,1.4,5.02
					c0.33-0.09,0.64-0.17,0.97-0.27c-1.58-5.19-6.46-9.25-11.49-10.82c-4.56-1.41-10.77-1.78-14.89,1.01
					c-3.78,2.57-5.67,7-7.86,10.84c-1.15,2.02-2.42,4.05-4.18,5.62c-2.6,2.31-6.1,3.14-9.51,3.02c-7.6-0.26-14-4.72-20.97-7.16
					c-7.16-2.51-14.84-2.21-22.04-0.03c-6.63,2.01-12.93,5.29-19.26,8.08C756.45,179.6,752.73,181.24,749.02,182.88
					c-0.58,0.26-0.09,1.13,0.5,0.87c2.5-1.11,4.99-2.21,7.49-3.31c5.36-2.37,10.72-4.75,16.1-7.11c7.33-3.22,15.3-5.19,23.31-3.74
					c7.11,1.28,13.12,5.56,20.02,7.5c5.6,1.57,12.23,1.58,16.65-2.74c3.18-3.09,4.79-7.39,7.11-11.09c1.23-1.95,2.68-3.84,4.66-5.06
					c2.4-1.48,5.26-1.67,8.01-1.58c6.86,0.2,14.39,4.06,16.53,11.04c0.19,0.61,1.11,0.36,0.97-0.27
					c-3.01-12.5-9.51-23.91-19.59-32.04c-9.24-7.46-20.58-11.82-32.12-14.17c-11.72-2.4-23.78-2.87-35.7-2.28
					c-9.92,0.48-19.81,1.71-29.57,3.54c-3.21,0.6-6.42,1.27-9.6,2.01c-1,0.23-1.98,0.47-2.97,0.73c-0.41,0.1-1.2,0.16-1.55,0.41
					c-0.04,0.03-0.14,0.04-0.2,0.06c0.19,0.24,0.37,0.48,0.57,0.74c1.03-1.95,3.49-3.09,5.39-3.99c2.74-1.3,5.62-2.27,8.51-3.17
					c3.71-1.14,7.47-2.14,11.26-2.92c0.54-0.11,0.43-1.03-0.13-0.98c-18.27,1.43-36.34,4.76-53.95,9.77
					c-15.71,4.46-31.06,10.25-45.87,17.11c-12.28,5.67-24.21,12.11-35.72,19.22c-8.11,5.02-16.03,10.37-23.64,16.11
					c-2.24,1.7-4.46,3.42-6.64,5.19c-0.93,0.76-2.18,1.53-2.94,2.45c-0.03,0.04-0.09,0.07-0.13,0.1c-0.41,0.37,0.04,0.91,0.48,0.84
					c27.25-4.51,54.81-7.66,82.41-8.71c10.08-0.38,20.2-0.51,30.27,0.14c6.03,0.4,12.75,0.73,18.38,3.17
					c1.37,0.58,2.42,1.5,3.66,2.3c2.64,1.7,5.67,2.75,8.83,2.92c3.25,0.19,6.9-0.47,9.72-2.17
					C750.07,183.42,749.58,182.55,749.02,182.88L749.02,182.88z"/>
			</g>
			<g class="st3">
				<path class="st4" d="M591.29,217.8c-3.54,0.11-6.92,1.68-9.78,3.76c-1.17,0.84-2.3,1.83-2.88,3.15
					c-0.57,1.33-0.43,3.05,0.67,3.96c0.44,0.36,0.97,0.57,1.51,0.76c4.73,1.57,10.11,1.07,14.49-1.33
					C602.97,223.9,598.76,217.57,591.29,217.8z"/>
			</g>
			<g class="st3">
				<path class="st4" d="M558.08,175.72c-0.81,0.01-1.75-0.14-2.18-0.93c-0.37-0.7-0.14-1.57,0.09-2.32
					c0.53-1.74,1.07-3.51,2.07-4.95c1.43-2.07,3.61-3.25,5.73-4.35c4.39-2.28,10.31-1.4,6.86,5.22
					C568.28,172.93,562.62,175.68,558.08,175.72z"/>
			</g>
			<g>
				<path class="st2" d="M569.59,188.61c4.06-1.1,7.16-4.66,9.1-8.24c2.02-3.75,2.94-8.01,2.61-12.25c-0.04-0.64-1.06-0.64-1,0
					c0.3,3.92-0.46,7.86-2.27,11.35c-1.81,3.51-4.76,7.11-8.71,8.18C568.69,187.81,568.96,188.77,569.59,188.61L569.59,188.61z"/>
			</g>
			<g>
				<path class="st2" d="M599.5,208.44c-7.88-3.64-17.18-1.67-22.81,4.95c-0.41,0.48,0.29,1.2,0.71,0.71
					c5.33-6.26,14.12-8.24,21.6-4.79C599.58,209.57,600.09,208.72,599.5,208.44L599.5,208.44z"/>
			</g>
			<g>
				<path class="st2" d="M601.37,205.15c-3.65-1.33-7.49-1.67-11.32-1.07c-0.63,0.1-0.37,1.07,0.27,0.97
					c3.65-0.57,7.31-0.19,10.79,1.07C601.71,206.33,601.97,205.38,601.37,205.15L601.37,205.15z"/>
			</g>
			<g>
				<path class="st2" d="M586.73,204.37c-1.37,0.29-2.64,0.86-3.76,1.67c-0.51,0.37-0.01,1.24,0.5,0.87
					c1.07-0.77,2.24-1.28,3.52-1.57C587.63,205.19,587.36,204.24,586.73,204.37L586.73,204.37z"/>
			</g>
			<g>
				<path class="st2" d="M586.71,193.73c-11.41,6.73-23.01,13.52-35.97,16.73c-0.63,0.16-0.36,1.11,0.27,0.97
					c13.05-3.22,24.74-10.05,36.22-16.83C587.77,194.26,587.27,193.4,586.71,193.73L586.71,193.73z"/>
			</g>
			<g>
				<path class="st2" d="M609.46,223.96c2.75-3.35,4.88-7.14,6.22-11.28c1.31-4.04,2.12-8.7,1.48-12.93c-0.16-1.01-0.43-2-0.88-2.92
					c-0.03-0.07-0.66-0.94-0.37-1.04c0.46-0.17,1.3,1.73,1.41,2.02c0.93,2.27,1.48,4.75,1.77,7.16c0.58,4.93-0.07,9.92-1.83,14.57
					c-0.23,0.6,0.74,0.87,0.97,0.27c1.44-3.79,2.15-7.84,2.07-11.91c-0.09-3.72-0.66-8.14-2.5-11.44c-0.46-0.81-1.48-2.15-2.58-1.74
					c-1.45,0.57,0.21,2.54,0.5,3.29c1.37,3.76,0.56,8.57-0.41,12.35c-1.21,4.72-3.46,9.11-6.56,12.86
					C608.33,223.74,609.04,224.46,609.46,223.96L609.46,223.96z"/>
			</g>
			<g>
				<path class="st2" d="M597.94,159.1c-7.36-2.88-15.33-3.66-23.11-2.31c-0.63,0.11-0.37,1.07,0.27,0.97
					c7.6-1.33,15.4-0.51,22.59,2.31C598.28,160.29,598.54,159.32,597.94,159.1L597.94,159.1z"/>
			</g>
			<g>
				<path class="st2" d="M598.26,158.94c-2.2-2.04-5.3-2.35-8-3.46c-2.91-1.2-5.69-2.61-8.93-2.14c-0.64,0.09-0.37,1.06,0.27,0.97
					c3.07-0.44,5.83,1.11,8.57,2.22c2.45,1,5.36,1.27,7.37,3.12C598.04,160.08,598.75,159.37,598.26,158.94L598.26,158.94z"/>
			</g>
			<g>
				<path class="st2" d="M636.42,212.96c2.12-0.56,5.83-2.22,5.18-5c-0.66-2.77-4.41-3.45-6.77-3.34c0.09,0.31,0.17,0.63,0.26,0.93
					c2.71-1.5,7.54-3.51,6.74-7.46c-0.74-3.74-6.33-3.66-9.14-3.31c-0.63,0.07-0.64,1.08,0,1c2.28-0.29,8.26-0.57,8.21,3.01
					c-0.04,3.15-4.01,4.62-6.32,5.9c-0.43,0.24-0.24,0.96,0.26,0.93c1.8-0.09,4.53,0.23,5.56,1.97c1.38,2.37-2.55,3.98-4.22,4.41
					C635.54,212.15,635.81,213.12,636.42,212.96L636.42,212.96z"/>
			</g>
			<g>
				<path class="st2" d="M641.2,209.37c2.69-0.29,5.18-2.12,5.32-5c0.13-2.65-2.07-4.88-4.75-4.59c-0.63,0.07-0.64,1.07,0,1
					c2.14-0.23,3.86,1.43,3.75,3.59c-0.13,2.31-2.18,3.78-4.32,4.01C640.56,208.44,640.56,209.44,641.2,209.37L641.2,209.37z"/>
			</g>
			<g>
				<path class="st2" d="M663.51,190.74c1.65,0.3,4.75,0.23,5.83-1.37c1.34-1.98-1.18-3.39-2.74-3.85c0,0.33,0,0.64,0,0.97
					c1.77-0.7,5.15-0.37,5.53-2.95c0.3-1.97-1.92-2.45-3.41-2.47c-0.64-0.01-0.64,0.98,0,1c0.51,0.01,1.07,0,1.55,0.2
					c1.33,0.51,0.66,1.91-0.31,2.38c-1.13,0.54-2.47,0.43-3.65,0.88c-0.44,0.17-0.5,0.81,0,0.97c0.48,0.14,1.03,0.27,1.45,0.56
					c1.15,0.77,0.81,2.05-0.4,2.45c-1.13,0.37-2.47,0.51-3.62,0.3C663.14,189.65,662.87,190.62,663.51,190.74L663.51,190.74z"/>
			</g>
			<g>
				<path class="st2" d="M669.29,188.81c1.41-0.23,2.98-0.7,3.54-2.17c0.43-1.13-0.19-2.5-1.41-2.72c-0.63-0.11-0.9,0.86-0.27,0.97
					c1.06,0.19,0.96,1.37,0.36,2c-0.64,0.67-1.63,0.83-2.48,0.97C668.39,187.94,668.66,188.91,669.29,188.81L669.29,188.81z"/>
			</g>
			<g>
				<path class="st2" d="M707.64,193.56c-4.22-0.73-8.48-0.84-12.73-0.31c-0.63,0.07-0.64,1.08,0,1c4.16-0.51,8.34-0.43,12.48,0.29
					C708,194.63,708.27,193.66,707.64,193.56L707.64,193.56z"/>
			</g>
			<g>
				<path class="st2" d="M691.09,194.17c-6.83,0.53-13.53,2.08-19.89,4.63c-0.58,0.24-0.33,1.21,0.27,0.97
					c6.27-2.52,12.88-4.08,19.62-4.61C691.71,195.13,691.73,194.13,691.09,194.17L691.09,194.17z"/>
			</g>
			<g>
				<path class="st2" d="M698.1,189.91c-3.45,0.04-6.87,0.26-10.29,0.66c-0.63,0.07-0.64,1.07,0,1c3.42-0.38,6.86-0.61,10.29-0.66
					C698.74,190.89,698.74,189.89,698.1,189.91L698.1,189.91z"/>
			</g>
			<g>
				<path class="st2" d="M717.88,192.99c1.47,0.23,3.38,0.36,4.09-1.28c0.64-1.47-0.56-2.35-1.88-2.64c0.04,0.3,0.09,0.61,0.11,0.91
					c1.33-0.64,3.89-0.4,4.16-2.4c0.23-1.74-1.68-2.38-3.02-2.58c-0.63-0.1-0.9,0.87-0.27,0.97c0.37,0.06,1.45,0.16,1.67,0.44
					c-0.01,0.6-0.03,1.21-0.06,1.81c-0.27,0.13-0.56,0.23-0.86,0.27c-0.74,0.19-1.44,0.27-2.14,0.61c-0.38,0.19-0.29,0.83,0.11,0.91
					c0.5-0.01,0.73,0.27,0.7,0.86c0.53,0.64,0.38,1.04-0.44,1.18c-0.6,0.19-1.35,0.04-1.94-0.06
					C717.51,191.92,717.24,192.89,717.88,192.99L717.88,192.99z"/>
			</g>
			<g>
				<path class="st2" d="M751.17,197.77c-1.2-3.05-3.05-5.7-5.55-7.83c-0.48-0.41-1.2,0.29-0.71,0.71c2.35,2.01,4.16,4.51,5.29,7.39
					C750.45,198.62,751.42,198.36,751.17,197.77L751.17,197.77z"/>
			</g>
			<g>
				<path class="st2" d="M744.77,197.74c2.97,1.54,5.19,4.08,6.25,7.26c0.2,0.61,1.17,0.34,0.97-0.27c-1.14-3.42-3.51-6.2-6.72-7.86
					C744.7,196.58,744.2,197.44,744.77,197.74L744.77,197.74z"/>
			</g>
			<g>
				<path class="st2" d="M613.36,163.82c1.34-1.23,3.88-3.54,3.38-5.62c-0.51-2.11-3.04-1.8-4.59-1.31c0.13,0.3,0.26,0.61,0.39,0.91
					c1.58-1.1,4.06-4.01,2.65-6.07c-0.63-0.91-1.78-0.97-2.79-0.97c-1.77-0.01-3.52,0.27-5.22,0.74c-0.61,0.17-0.36,1.14,0.27,0.97
					c1.68-0.47,4.04-1.1,5.79-0.67c2.91,0.73,0.19,4.18-1.2,5.15c-0.44,0.31-0.19,1.08,0.39,0.91c0.71-0.21,1.51-0.51,2.28-0.33
					c1.28,0.3,1.13,1.67,0.6,2.55c-0.68,1.14-1.64,2.14-2.62,3.04C612.18,163.54,612.89,164.26,613.36,163.82L613.36,163.82z"/>
			</g>
			<g>
				<path class="st2" d="M638.74,147.12c1.73-0.34,4.86-0.94,5.16-3.14c0.27-2-1.98-2.32-3.44-2.18c0.04,0.33,0.09,0.66,0.13,0.98
					c1.37-0.53,2.82-1.31,2.64-3.01c-0.07-0.63-1.07-0.64-1,0c0.13,1.2-0.98,1.68-1.91,2.05c-0.48,0.19-0.47,1.04,0.13,0.98
					c0.47-0.04,1.1-0.14,1.54,0.01c1.24,0.44,0.84,1.67-0.06,2.24c-1,0.63-2.32,0.9-3.48,1.11
					C637.85,146.29,638.12,147.25,638.74,147.12L638.74,147.12z"/>
			</g>
			<g>
				<path class="st2" d="M643.52,144.3c1.17-0.41,2.5-0.9,3.14-2.05c0.54-0.96,0.5-2.17-0.29-2.97c-0.46-0.46-1.15,0.24-0.71,0.71
					c0.63,0.63,0.37,1.63-0.21,2.2c-0.6,0.6-1.43,0.88-2.21,1.15C642.65,143.54,642.91,144.5,643.52,144.3L643.52,144.3z"/>
			</g>
			<g>
				<path class="st2" d="M684.51,243.55c-1.2-2.48-3.08-4.73-4.92-6.73c-4.76-5.16-10.78-9.08-17.24-11.79
					c-5.39-2.27-11.09-3.66-16.87-4.45c-0.63-0.09-0.9,0.88-0.27,0.97c14.09,1.9,28.8,8.04,37.04,20.2c0.5,0.74,1,1.51,1.4,2.31
					C683.93,244.63,684.79,244.12,684.51,243.55L684.51,243.55z"/>
			</g>
			<g>
				<path class="st2" d="M695.29,287.34c0.29-2.85-0.73-6.03-1.73-8.63c-3.12-8.2-9.04-15.17-15.41-21.06
					c-6.35-5.86-13.45-10.85-20.82-15.33c-0.56-0.33-1.06,0.53-0.5,0.87c11.19,6.79,22.23,14.9,30.03,25.57
					c3.42,4.68,6.43,10.1,7.27,15.91c0.13,0.87,0.24,1.8,0.14,2.68C694.22,287.98,695.22,287.98,695.29,287.34L695.29,287.34z"/>
			</g>
			<g>
				<path class="st2" d="M713.34,86.71c-0.98,2.87-3.68,6.02-5.86,8.36c-7.54,8.07-17.4,13.89-27.29,18.59
					c-9.74,4.62-19.95,8.18-30.3,11.15c-0.61,0.17-0.36,1.14,0.27,0.97c16.1-4.62,32.28-10.64,46.21-20.1
					c6.17-4.21,12.31-9.24,16.34-15.63c0.61-0.96,1.23-1.98,1.6-3.07C714.53,86.36,713.56,86.09,713.34,86.71L713.34,86.71z"/>
			</g>
			<g>
				<path class="st2" d="M801.29,169.95c-1.55-0.86-3.24-1.53-4.89-2.17c-4.81-1.87-9.77-3.29-14.79-4.46
					c-8.28-1.92-16.73-3.14-25.19-3.85c-11.98-1.01-24.03-1.01-36.02-0.29c-15.76,0.94-31.41,3.12-46.9,6.16
					c-2.24,0.44-4.48,0.9-6.72,1.37c-0.63,0.13-0.36,1.1,0.27,0.97c27.98-5.95,56.82-9.38,85.45-7.5
					c14.26,0.94,28.8,3.09,42.26,8.06c2.02,0.74,4.09,1.53,6,2.57C801.35,171.13,801.86,170.26,801.29,169.95L801.29,169.95z"/>
			</g>
			<g>
				<path class="st2" d="M862.92,158.25c-2-1.4-4.16-2.58-6.32-3.72c-5.83-3.09-11.95-5.65-18.19-7.81
					c-9.58-3.34-19.49-5.7-29.52-7.21c-13.12-1.98-26.45-2.5-39.68-1.73c-16.64,0.97-33.12,3.95-49.15,8.48
					c-2.22,0.63-4.45,1.3-6.66,1.98c-0.61,0.19-0.36,1.15,0.27,0.97c16.33-5.08,33.15-8.61,50.2-10.05
					c13.55-1.14,27.22-0.96,40.72,0.76c10.35,1.31,20.6,3.54,30.54,6.76c6.67,2.17,13.22,4.78,19.48,7.96
					c1.83,0.93,3.64,1.91,5.39,2.97c0.73,0.44,1.53,1.15,2.31,1.45c0.03,0.01,0.07,0.04,0.1,0.07
					C862.95,159.48,863.44,158.63,862.92,158.25L862.92,158.25z"/>
			</g>
			<g>
				<path class="st2" d="M823.92,283.74c-0.26-5.99-2.11-12.11-4.22-17.65c-5.16-13.52-14.06-25.37-25.28-34.46
					c-9.13-7.4-19.58-12.93-30.57-17.01c-0.6-0.23-0.87,0.74-0.27,0.97c17.67,6.56,34.01,17.17,45.2,32.54
					c6.42,8.81,11.14,18.99,13.29,29.7c0.38,1.94,0.76,3.94,0.84,5.92C822.95,284.39,823.95,284.39,823.92,283.74L823.92,283.74z"/>
			</g>
			<g>
				<path class="st2" d="M889.14,238.53c-0.41-2.01-1.13-3.98-1.85-5.89c-1.87-4.86-4.31-9.51-7.23-13.83
					c-4.18-6.2-9.33-11.73-15.2-16.35c-7.57-5.95-16.24-10.35-25.41-13.29c-12.43-3.99-25.62-5.35-38.64-5.09
					c-1.94,0.04-3.86,0.11-5.8,0.21c-0.64,0.03-0.64,1.04,0,1c13.46-0.73,27.12,0.09,40.17,3.65c9.54,2.61,18.69,6.72,26.72,12.52
					c6.19,4.48,11.68,9.95,16.13,16.17c3.14,4.38,5.8,9.11,7.83,14.1c0.63,1.54,1.2,3.11,1.68,4.71c0.21,0.7,0.3,1.6,0.61,2.25
					c0.01,0.03,0.01,0.07,0.03,0.1C888.31,239.43,889.28,239.16,889.14,238.53L889.14,238.53z"/>
			</g>
			<g>
				<path class="st2" d="M915.46,256.28c-0.01-7.31-0.98-14.7-2.25-21.89c-2.6-14.69-7.24-29.42-15.5-41.93
					c-4.99-7.59-11.36-14.22-19.11-19.02c-0.54-0.34-1.06,0.53-0.5,0.87c13.82,8.58,22.74,22.83,28.22,37.84
					c4.28,11.75,6.74,24.2,7.76,36.64c0.2,2.48,0.38,4.99,0.38,7.49C914.46,256.92,915.46,256.92,915.46,256.28L915.46,256.28z"/>
			</g>
			<g>
				<path class="st2" d="M817.53,377.05c2.65-7.93,3.82-16.54,4.43-24.84c1.4-18.55-1.21-37.46-8.64-54.57
					c-5.39-12.42-13.3-23.6-22.94-33.08c-0.46-0.46-1.17,0.26-0.71,0.71c16.1,15.83,26.62,36.2,30.19,58.5
					c2.37,14.77,1.88,30.07-1.18,44.7c-0.58,2.79-1.21,5.6-2.12,8.31C816.36,377.41,817.33,377.66,817.53,377.05L817.53,377.05z"/>
			</g>
			<g>
				<path class="st2" d="M641.2,110.57c-2.82-0.06-5.55,0.58-8.26,1.35c-2.61,0.73-5.22,1.47-7.79,2.34
					c-4.76,1.6-9.35,3.68-13.25,6.89c-0.5,0.41,0.21,1.11,0.71,0.71c3.88-3.21,8.51-5.22,13.26-6.79c2.25-0.74,4.55-1.4,6.83-2.04
					c2.79-0.78,5.59-1.51,8.51-1.45C641.85,111.59,641.85,110.59,641.2,110.57L641.2,110.57z"/>
			</g>
			<g>
				<path class="st2" d="M620.45,120.26c-8.88,4.93-16.57,11.73-22.57,19.93c-0.38,0.51,0.48,1.01,0.87,0.5
					c5.9-8.06,13.49-14.73,22.21-19.58C621.52,120.81,621.01,119.94,620.45,120.26L620.45,120.26z"/>
			</g>
			<g>
				<path class="st2" d="M607.16,124.21c-1.61,1.13-3.21,2.25-4.82,3.38c-0.53,0.37-0.03,1.24,0.5,0.87
					c1.61-1.13,3.21-2.25,4.82-3.38C608.19,124.7,607.69,123.83,607.16,124.21L607.16,124.21z"/>
			</g>
			<g>
				<path class="st2" d="M714.76,105.08c4.35,2.99,4.38,9.14,1.18,12.98c-3.56,4.29-9.4,5.16-14.61,4.13
					c-0.63-0.13-0.9,0.84-0.27,0.97c5.87,1.15,12.48-0.01,16.17-5.15c3.11-4.33,2.58-10.67-1.97-13.79
					C714.73,103.86,714.23,104.71,714.76,105.08L714.76,105.08z"/>
			</g>
			<g>
				<path class="st2" d="M710.46,112.41c0.03,4.02-4.26,5.6-7.64,5.48c-3.49-0.13-6.84-1.37-10.37-1.28c-0.64,0.01-0.64,1.01,0,1
					c4.33-0.11,8.56,1.85,12.9,1.13c3.17-0.53,6.12-2.91,6.1-6.33C711.46,111.76,710.46,111.76,710.46,112.41L710.46,112.41z"/>
			</g>
			<g>
				<path class="st2" d="M685.6,116.59c-6.4,2.07-12.26,5.46-17.27,9.97c-0.48,0.43,0.23,1.14,0.71,0.71
					c4.86-4.39,10.58-7.7,16.83-9.71C686.47,117.36,686.21,116.39,685.6,116.59L685.6,116.59z"/>
			</g>
			<g>
				<path class="st2" d="M705.72,91.68c-2.38,3.32-5.35,6.13-8.8,8.31c-0.54,0.34-0.04,1.21,0.5,0.87c3.61-2.28,6.69-5.2,9.15-8.67
					C706.96,91.67,706.09,91.17,705.72,91.68L705.72,91.68z"/>
			</g>
			<g>
				<path class="st2" d="M679.97,230.09c-12.38-9.77-28.25-14.61-43.96-13.35c-0.64,0.06-0.64,1.06,0,1
					c15.44-1.24,31.1,3.45,43.26,13.06C679.77,231.19,680.46,230.49,679.97,230.09L679.97,230.09z"/>
			</g>
			<g>
				<path class="st2" d="M670.8,235.62c-3.59-2.34-7.46-4.15-11.55-5.42c-0.61-0.19-0.88,0.77-0.27,0.97
					c4.01,1.25,7.79,3.04,11.31,5.32C670.84,236.83,671.34,235.98,670.8,235.62L670.8,235.62z"/>
			</g>
			<g>
				<path class="st2" d="M692.06,291.79c-7.04-2.18-12.58-7.27-17.92-12.13c-5.1-4.65-10.32-9.71-12.32-16.53
					c-0.19-0.61-1.14-0.36-0.97,0.27c2.04,6.99,7.33,12.21,12.58,16.97c5.48,4.98,11.15,10.17,18.36,12.39
					C692.41,292.94,692.67,291.97,692.06,291.79L692.06,291.79z"/>
			</g>
			<g>
				<path class="st2" d="M675.09,274.35c-7.76-6.37-6.53-20.05-16.74-24.08c-0.6-0.24-0.86,0.73-0.27,0.97
					c4.82,1.91,7.23,6.96,9.01,11.49c1.75,4.46,3.45,9.2,7.29,12.33C674.88,275.46,675.57,274.76,675.09,274.35L675.09,274.35z"/>
			</g>
			<g>
				<path class="st2" d="M772.09,166.21c-10.84-2.17-21.84-3.27-32.89-3.29c-0.64,0-0.64,1,0,1c10.95,0.03,21.87,1.11,32.62,3.27
					C772.46,167.29,772.73,166.34,772.09,166.21L772.09,166.21z"/>
			</g>
			<g>
				<path class="st2" d="M747.04,166.5c-18.65-1.03-37.37-0.37-55.91,1.94c-0.63,0.09-0.64,1.08,0,1
					c18.54-2.32,37.26-2.97,55.91-1.94C747.68,167.52,747.68,166.52,747.04,166.5L747.04,166.5z"/>
			</g>
			<g>
				<path class="st2" d="M842.24,158.75c-3.84-0.66-7.2,1.35-10.07,3.71c-3.59,2.94-6.83,5.77-11.72,5.89
					c-8.88,0.2-15.87-6.19-23.64-9.47c-4.75-2-9.61-2.27-14.71-2.27c-0.64,0-0.64,1,0,1c4.65,0,9.18,0.16,13.56,1.87
					c3.96,1.55,7.56,3.91,11.31,5.9c6.97,3.74,15.27,5.99,22.14,0.86c3.76-2.82,7.6-7.41,12.85-6.52
					C842.6,159.82,842.87,158.85,842.24,158.75L842.24,158.75z"/>
			</g>
			<g>
				<path class="st2" d="M821.22,160.79c-4.31-0.21-8.21-2.05-11.99-4.01c-3.64-1.9-7.24-3.75-11.14-5.06
					c-8.44-2.87-17.01-3.25-25.84-2.6c-5.26,0.38-10.54,0.83-15.8,0.21c-0.64-0.07-0.63,0.93,0,1c9.2,1.08,18.38-1.08,27.59-0.44
					c4.43,0.31,8.83,1.18,13.06,2.55c4.15,1.35,7.97,3.32,11.83,5.32c3.86,2,7.87,3.81,12.28,4.04
					C821.87,161.83,821.87,160.84,821.22,160.79L821.22,160.79z"/>
			</g>
			<g>
				<path class="st2" d="M770.55,152.89c-1.4,0.06-2.79,0.1-4.19,0.16c-0.64,0.03-0.64,1.03,0,1c1.4-0.06,2.79-0.1,4.19-0.16
					C771.19,153.86,771.19,152.87,770.55,152.89L770.55,152.89z"/>
			</g>
			<g>
				<path class="st2" d="M850.84,141.17c-12.49-7.71-25.48-15.58-40.34-17.42c-0.64-0.09-0.63,0.93,0,1
					c14.64,1.81,27.52,9.68,39.82,17.28C850.88,142.37,851.38,141.52,850.84,141.17L850.84,141.17z"/>
			</g>
			<g>
				<path class="st2" d="M717.22,130.05c-16.17,1.61-31.94,6.1-46.54,13.25c-0.58,0.29-0.07,1.14,0.5,0.87
					c14.43-7.06,30.04-11.51,46.03-13.12C717.85,130.99,717.86,129.98,717.22,130.05L717.22,130.05z"/>
			</g>
			<g>
				<path class="st2" d="M686.52,141.67c-16.43,5.13-30.46,15.38-44.13,25.48c-0.51,0.38-0.01,1.24,0.5,0.87
					c13.6-10.05,27.56-20.28,43.89-25.38C687.39,142.44,687.14,141.49,686.52,141.67L686.52,141.67z"/>
			</g>
			<g>
				<path class="st2" d="M817.86,278.87c-5.62-11.62-13.1-22.27-22.14-31.5c-0.46-0.46-1.15,0.24-0.71,0.71
					c8.98,9.17,16.4,19.73,21.99,31.28C817.28,279.95,818.13,279.45,817.86,278.87L817.86,278.87z"/>
			</g>
			<g>
				<path class="st2" d="M788.7,241.15c-12.6-13.69-32.3-16.3-46.82-27.18c-4.58-3.42-8.87-7.81-10.15-13.57
					c-0.14-0.63-1.1-0.36-0.97,0.27c2.08,9.31,11.34,15.36,19.23,19.52c8.31,4.39,17.27,7.49,25.48,12.09
					c4.62,2.58,8.93,5.67,12.53,9.58C788.44,242.34,789.14,241.62,788.7,241.15L788.7,241.15z"/>
			</g>
			<g>
				<path class="st2" d="M779.88,407.45c14.87-13.3,18.92-33.89,18.92-52.98c0-6.35-0.36-12.68-0.71-19.01c-0.04-0.64-1.04-0.64-1,0
					c1.13,20.05,2.1,41.21-8.27,59.24c-2.58,4.49-5.79,8.58-9.65,12.03C778.69,407.17,779.4,407.88,779.88,407.45L779.88,407.45z"/>
			</g>
			<g>
				<path class="st2" d="M797.33,394.33c2.67-5.79,5.3-11.63,6.1-18.01c0.09-0.64-0.93-0.63-1,0c-0.78,6.19-3.38,11.91-5.96,17.51
					C796.2,394.4,797.06,394.92,797.33,394.33L797.33,394.33z"/>
			</g>
			<g>
				<path class="st2" d="M805.31,362.99c0.6-11.69-0.44-23.4-3.11-34.81c-0.14-0.63-1.11-0.36-0.97,0.27
					c2.64,11.31,3.66,22.93,3.07,34.53C804.29,363.63,805.28,363.63,805.31,362.99L805.31,362.99z"/>
			</g>
			<g>
				<path class="st2" d="M801.89,322.16c-0.96-4.62-2.15-9.18-3.62-13.66c-0.2-0.61-1.17-0.34-0.97,0.27
					c1.45,4.49,2.67,9.04,3.62,13.66C801.06,323.05,802.02,322.78,801.89,322.16L801.89,322.16z"/>
			</g>
			<g>
				<path class="st2" d="M818.36,188.6c-19.53-2.37-39.42,1.23-58.82-2.77c-0.63-0.13-0.9,0.84-0.27,0.97
					c19.48,4.02,39.45,0.41,59.07,2.79C819,189.68,818.99,188.68,818.36,188.6L818.36,188.6z"/>
			</g>
			<g>
				<path class="st2" d="M776.25,193.93c-5.85,0.76-11.73,0.23-17.37-1.54c-0.61-0.2-0.88,0.77-0.27,0.97
					c5.7,1.81,11.69,2.35,17.62,1.58C776.88,194.86,776.9,193.84,776.25,193.93L776.25,193.93z"/>
			</g>
			<g>
				<path class="st2" d="M888.11,191.88c-4.73-7.66-12.35-12.73-20.06-17.05c-4.41-2.47-8.91-4.76-13.19-7.46
					c-3.96-2.5-8-5.32-10.01-9.71c-0.27-0.58-1.13-0.07-0.87,0.5c1.74,3.81,4.99,6.5,8.4,8.8c4.26,2.87,8.83,5.25,13.33,7.71
					c8.18,4.49,16.5,9.57,21.53,17.71C887.58,192.93,888.44,192.43,888.11,191.88L888.11,191.88z"/>
			</g>
			<g>
				<path class="st2" d="M884.73,196.08c-2.82-3.89-6.02-7.47-9.58-10.69c-0.47-0.43-1.18,0.27-0.71,0.71
					c3.51,3.17,6.66,6.67,9.42,10.49C884.25,197.11,885.12,196.61,884.73,196.08L884.73,196.08z"/>
			</g>
			<g>
				<path class="st2" d="M891.73,210.2c-1.4-3.51-3.29-6.73-5.69-9.65c-0.41-0.5-1.11,0.21-0.71,0.71c2.28,2.78,4.11,5.87,5.43,9.21
					C891.01,211.05,891.98,210.8,891.73,210.2L891.73,210.2z"/>
			</g>
			<g>
				<path class="st2" d="M906.03,298.82c-4.32-6.05-7.43-12.82-9.18-20.03c-0.16-0.63-1.11-0.36-0.97,0.27
					c1.77,7.29,4.92,14.16,9.28,20.26C905.55,299.84,906.42,299.34,906.03,298.82L906.03,298.82z"/>
			</g>
			<g>
				<path class="st2" d="M895.4,274.08c-0.71-10.08-0.87-20.19-0.48-30.29c0.03-0.64-0.97-0.64-1,0c-0.38,10.1-0.23,20.2,0.48,30.29
					C894.44,274.72,895.44,274.72,895.4,274.08L895.4,274.08z"/>
			</g>
		</g>
	</g>
	<g>
		<path class="st1" d="M908.96,112.01c0.61,1.17,0.17,2.62-1,3.24c-1.17,0.61-2.62,0.17-3.24-1c-0.61-1.17-0.17-2.62,1-3.24
			C906.88,110.39,908.33,110.83,908.96,112.01z"/>
		<path class="st1" d="M908.69,99.65c0.61,1.17,0.17,2.62-1,3.24c-1.17,0.61-2.62,0.17-3.24-1c-0.61-1.17-0.17-2.62,1-3.24
			S908.06,98.48,908.69,99.65z"/>
		<path class="st1" d="M480.62,339.84c0.97,0.9,1.03,2.42,0.11,3.39c-0.91,0.97-2.42,1.03-3.39,0.11c-0.97-0.9-1.03-2.42-0.11-3.39
			C478.14,339,479.65,338.94,480.62,339.84z"/>
		<path class="st1" d="M579.87,539.98c-1-0.87-1.1-2.38-0.23-3.38c0.87-1,2.38-1.1,3.38-0.23c1,0.87,1.1,2.38,0.23,3.38
			C582.38,540.75,580.87,540.85,579.87,539.98z"/>
		<path class="st1" d="M906.95,149.53c-1.23,0.51-2.62-0.07-3.14-1.3c-0.51-1.23,0.07-2.62,1.3-3.14c1.23-0.51,2.62,0.07,3.14,1.3
			C908.76,147.62,908.17,149.03,906.95,149.53z"/>
		<path class="st1" d="M907.6,162.35c-1.23,0.51-2.62-0.07-3.14-1.3c-0.51-1.23,0.07-2.62,1.3-3.14c1.23-0.51,2.62,0.07,3.14,1.3
			C909.4,160.44,908.83,161.83,907.6,162.35z"/>
		<path class="st1" d="M814.01,192.46c-1.06-0.74-1.31-2.2-0.57-3.25s2.2-1.31,3.25-0.57c1.06,0.74,1.31,2.2,0.57,3.25
			C816.53,192.95,815.08,193.2,814.01,192.46z"/>
		<path class="st1" d="M804.61,199.13c-1.06-0.74-1.31-2.2-0.57-3.25c0.74-1.06,2.2-1.31,3.25-0.57c1.06,0.74,1.31,2.2,0.57,3.25
			C807.12,199.62,805.67,199.88,804.61,199.13z"/>
		<path class="st1" d="M795.06,205.92c-1.06-0.74-1.31-2.2-0.57-3.25c0.74-1.06,2.2-1.31,3.25-0.57c1.06,0.74,1.31,2.2,0.57,3.25
			C797.57,206.41,796.12,206.66,795.06,205.92z"/>
		<path class="st1" d="M417.08,296.13c0.1,1.33-0.88,2.47-2.21,2.58c-1.33,0.1-2.47-0.88-2.58-2.21c-0.1-1.33,0.88-2.47,2.21-2.58
			C415.83,293.82,416.98,294.82,417.08,296.13z"/>
		<path class="st1" d="M429.46,299.51c0.1,1.33-0.88,2.47-2.21,2.58c-1.33,0.1-2.47-0.88-2.58-2.21c-0.1-1.33,0.88-2.47,2.21-2.58
			C428.2,297.2,429.36,298.19,429.46,299.51z"/>
		<path class="st1" d="M573.97,573.78c-0.86,1.01-2.38,1.13-3.38,0.26c-1.01-0.86-1.13-2.38-0.26-3.38
			c0.86-1.01,2.38-1.13,3.38-0.26C574.71,571.25,574.84,572.76,573.97,573.78z"/>
		<path class="st1" d="M542.41,518.81c-0.86,1.01-2.38,1.13-3.38,0.26c-1.01-0.86-1.13-2.38-0.26-3.38
			c0.86-1.01,2.38-1.13,3.38-0.26C543.17,516.29,543.28,517.8,542.41,518.81z"/>
		<polygon class="st1" points="825.13,177.23 834.54,170.63 831.73,179.36 841.12,189.38 827.47,185 820.06,192.05 823.43,181.52 
			817.25,175.66 		"/>
		<path class="st1" d="M544.65,528.96c-1.08,0.7-2.54,0.38-3.24-0.7s-0.39-2.54,0.7-3.24s2.54-0.38,3.24,0.7
			C546.05,526.82,545.74,528.26,544.65,528.96z"/>
		<path class="st1" d="M547.26,540.2c-1.08,0.7-2.54,0.38-3.24-0.7s-0.39-2.54,0.7-3.24c1.08-0.7,2.54-0.38,3.24,0.7
			C548.67,538.04,548.35,539.5,547.26,540.2z"/>
		<path class="st1" d="M549.91,551.6c-1.08,0.7-2.54,0.38-3.24-0.7c-0.7-1.08-0.39-2.54,0.7-3.24c1.08-0.7,2.54-0.38,3.24,0.7
			C551.33,549.47,551.01,550.91,549.91,551.6z"/>
		<path class="st1" d="M552.45,562.53c-1.08,0.7-2.54,0.38-3.24-0.7s-0.39-2.54,0.7-3.24c1.08-0.7,2.54-0.38,3.24,0.7
			C553.86,560.39,553.55,561.83,552.45,562.53z"/>
		<path class="st1" d="M554.98,573.38c-1.08,0.7-2.54,0.38-3.24-0.7s-0.39-2.54,0.7-3.24c1.08-0.7,2.54-0.38,3.24,0.7
			C556.39,571.24,556.07,572.68,554.98,573.38z"/>
		<path class="st1" d="M861.32,125.35c1.01,0.81,1.17,2.28,0.36,3.29c-0.81,1.01-2.28,1.17-3.29,0.36
			c-1.01-0.81-1.17-2.28-0.36-3.29C858.84,124.69,860.31,124.53,861.32,125.35z"/>
		<polygon class="st1" points="910.98,81.22 910.73,92.99 905.22,85.38 891.23,87.03 903.15,78.42 901.81,68.01 908.46,77.21 
			917.07,75.64 		"/>
		<polygon class="st1" points="912.14,177.58 922.23,174.85 914.9,183.12 917.57,189.32 911.47,183.92 901.54,189.54 907.26,183.08 
			899.86,175.56 905.69,176.71 909.41,170.27 		"/>
		<path class="st1" d="M885.64,126.32c0.17-1.31,1.37-2.24,2.68-2.08c1.31,0.17,2.24,1.37,2.08,2.68c-0.17,1.31-1.37,2.24-2.68,2.08
			C886.4,128.83,885.47,127.63,885.64,126.32z"/>
		<polygon class="st1" points="660.93,351.23 651.38,346.99 662.29,345.18 664.12,338.68 665.46,346.72 676.71,348.62 
			668.19,350.03 669.21,360.53 665.39,355.96 658.46,358.62 		"/>
		<path class="st1" d="M838.35,163.86c1.28-0.1,2.41,0.86,2.52,2.14c0.1,1.28-0.86,2.41-2.14,2.52c-1.28,0.1-2.41-0.86-2.52-2.14
			C836.1,165.08,837.07,163.96,838.35,163.86z"/>
		<path class="st1" d="M841.37,152.54c1.28-0.1,2.41,0.86,2.52,2.14c0.1,1.28-0.86,2.41-2.14,2.52c-1.28,0.1-2.41-0.86-2.52-2.14
			C839.12,153.76,840.09,152.64,841.37,152.54z"/>
		<polygon class="st1" points="841.6,138.72 833.09,132.65 844.14,133.06 847.25,127.06 846.93,135.21 857.58,139.31 848.96,138.99 
			847.85,149.49 845.04,144.24 837.71,145.45 		"/>
		<polygon class="st1" points="560.76,589.7 550.91,593.23 557.56,584.4 554.41,578.42 560.92,583.33 570.37,576.93 565.18,583.83 
			573.16,590.73 567.25,590.06 564.06,596.76 		"/>
		<polygon class="st1" points="475.94,409.43 467.97,403.27 478.59,404.07 481.8,398.4 481.2,406.24 491.31,410.59 483.01,409.96 
			481.56,420.01 479.03,414.87 471.93,415.76 		"/>
		<polygon class="st1" points="445.61,301.24 450.72,305.9 444.93,305.66 445,312.1 442.87,307.91 432.24,305.82 439.08,302.31 
			437.59,294.65 441.35,298.59 447.51,296.76 		"/>
		<path class="st1" d="M478.41,388.72c1.23-0.48,2.62,0.13,3.11,1.35c0.48,1.23-0.13,2.62-1.35,3.11c-1.23,0.48-2.62-0.13-3.11-1.35
			C476.57,390.58,477.18,389.2,478.41,388.72z"/>
		<path class="st1" d="M478.04,376.89c1.23-0.48,2.62,0.13,3.11,1.35c0.48,1.23-0.13,2.62-1.35,3.11c-1.23,0.48-2.62-0.13-3.11-1.35
			C476.2,378.78,476.8,377.38,478.04,376.89z"/>
		<path class="st1" d="M477.62,364.08c1.23-0.48,2.62,0.13,3.11,1.35c0.48,1.23-0.13,2.62-1.35,3.11s-2.62-0.13-3.11-1.35
			C475.78,365.94,476.4,364.56,477.62,364.08z"/>
		<path class="st1" d="M477.21,351.13c1.23-0.48,2.62,0.13,3.11,1.35c0.48,1.23-0.13,2.62-1.35,3.11c-1.23,0.48-2.62-0.13-3.11-1.35
			C475.37,353.01,475.98,351.61,477.21,351.13z"/>
		<path class="st1" d="M703.56,306.59c-1.21-0.44-1.84-1.78-1.4-2.99c0.44-1.21,1.78-1.84,2.99-1.4s1.84,1.78,1.4,2.99
			S704.78,307.03,703.56,306.59z"/>
		<path class="st1" d="M696.21,315.47c-1.21-0.44-1.84-1.78-1.4-2.99c0.44-1.21,1.78-1.84,2.99-1.4s1.84,1.78,1.4,2.99
			C698.77,315.28,697.43,315.91,696.21,315.47z"/>
		<path class="st1" d="M688.73,324.49c-1.21-0.44-1.84-1.78-1.4-2.99s1.78-1.84,2.99-1.4s1.84,1.78,1.4,2.99
			C691.3,324.31,689.95,324.94,688.73,324.49z"/>
		<path class="st1" d="M681.59,333.12c-1.21-0.44-1.84-1.78-1.4-2.99s1.78-1.84,2.99-1.4c1.21,0.44,1.84,1.78,1.4,2.99
			C684.14,332.95,682.8,333.56,681.59,333.12z"/>
		<path class="st1" d="M674.49,341.7c-1.21-0.44-1.84-1.78-1.4-2.99s1.78-1.84,2.99-1.4s1.84,1.78,1.4,2.99
			C677.04,341.52,675.7,342.15,674.49,341.7z"/>
		<path class="st1" d="M724.87,280.68c-1.21-0.44-1.84-1.78-1.4-2.99c0.44-1.21,1.78-1.84,2.99-1.4c1.21,0.44,1.84,1.78,1.4,2.99
			C727.42,280.49,726.08,281.12,724.87,280.68z"/>
		<path class="st1" d="M717.38,289.72c-1.21-0.44-1.84-1.78-1.4-2.99c0.44-1.21,1.78-1.84,2.99-1.4c1.21,0.44,1.84,1.78,1.4,2.99
			C719.95,289.53,718.59,290.16,717.38,289.72z"/>
		<path class="st1" d="M710.44,298.1c-1.21-0.44-1.84-1.78-1.4-2.99s1.78-1.84,2.99-1.4c1.21,0.44,1.84,1.78,1.4,2.99
			C712.99,297.92,711.65,298.54,710.44,298.1z"/>
		<path class="st1" d="M763.52,234.92c-1.21-0.44-1.84-1.78-1.4-2.99s1.78-1.84,2.99-1.4c1.21,0.44,1.84,1.78,1.4,2.99
			C766.07,234.74,764.73,235.36,763.52,234.92z"/>
		<path class="st1" d="M756.16,243.79c-1.21-0.44-1.84-1.78-1.4-2.99c0.44-1.21,1.78-1.84,2.99-1.4c1.21,0.44,1.84,1.78,1.4,2.99
			C758.72,243.61,757.38,244.23,756.16,243.79z"/>
		<path class="st1" d="M748.68,252.82c-1.21-0.44-1.84-1.78-1.4-2.99c0.44-1.21,1.78-1.84,2.99-1.4c1.21,0.44,1.84,1.78,1.4,2.99
			C751.23,252.63,749.89,253.26,748.68,252.82z"/>
		<path class="st1" d="M741.52,261.44c-1.21-0.44-1.84-1.78-1.4-2.99c0.44-1.21,1.78-1.84,2.99-1.4s1.84,1.78,1.4,2.99
			C744.09,261.26,742.73,261.89,741.52,261.44z"/>
		<path class="st1" d="M734.42,270.03c-1.21-0.44-1.84-1.78-1.4-2.99s1.78-1.84,2.99-1.4c1.21,0.44,1.84,1.78,1.4,2.99
			C736.97,269.84,735.63,270.47,734.42,270.03z"/>
		<path class="st1" d="M770.88,216.2c-0.93-1.41-5.92-11.63-5.92-11.63l8.63,6.5l5.79-8.17l-0.94,8.37l9.27-3.35l-4.92,6.92
			l11.09,2.52l-9.8,2.02l4.79,7.33l-8.01-4.53l-4.01,10.37l-0.06-10.41l-10.95,7.49l5.25-8.48l-8.81-2.67L770.88,216.2z"/>
		<polygon class="st1" points="389.29,240.73 392.6,250.18 385.04,245.76 381.21,252.35 380.38,243.69 371.14,239.93 379.42,236.92 
			380.51,226.11 384.97,235.27 395.14,234.67 		"/>
		<path class="st1" d="M389.01,261.77c-1.06,0.74-2.51,0.5-3.27-0.56c-0.74-1.06-0.5-2.51,0.56-3.27c1.06-0.74,2.51-0.5,3.27,0.56
			C390.3,259.56,390.06,261.02,389.01,261.77z"/>
		<path class="st1" d="M392.17,273.05c-1.06,0.74-2.51,0.5-3.27-0.56c-0.74-1.06-0.5-2.51,0.56-3.27c1.06-0.74,2.51-0.5,3.27,0.56
			C393.48,270.84,393.23,272.31,392.17,273.05z"/>
		<polygon class="st1" points="537.97,503.05 531.08,512.25 531.02,503.1 519,496.48 533.33,496.4 538.18,487.4 538.24,498.45 
			545.95,502.1 		"/>
		<path class="st1" d="M617.61,412.54c-1.33,0.1-2.48-0.88-2.58-2.21c-0.1-1.33,0.88-2.48,2.21-2.58s2.48,0.88,2.58,2.21
			C619.92,411.29,618.94,412.44,617.61,412.54z"/>
		<path class="st1" d="M614.48,424.13c-1.33,0.1-2.48-0.88-2.58-2.21c-0.1-1.33,0.88-2.48,2.21-2.58s2.48,0.88,2.58,2.21
			C616.79,422.88,615.8,424.03,614.48,424.13z"/>
		<path class="st1" d="M611.47,435.24c-1.33,0.1-2.48-0.88-2.58-2.21c-0.1-1.33,0.88-2.48,2.21-2.58s2.48,0.88,2.58,2.21
			C613.78,433.99,612.79,435.14,611.47,435.24z"/>
		<path class="st1" d="M608.49,446.26c-1.33,0.1-2.48-0.88-2.58-2.21c-0.1-1.33,0.88-2.48,2.21-2.58c1.33-0.1,2.48,0.88,2.58,2.21
			S609.8,446.16,608.49,446.26z"/>
		<path class="st1" d="M605.39,457.68c-1.33,0.1-2.48-0.88-2.58-2.21c-0.1-1.33,0.88-2.48,2.21-2.58s2.48,0.88,2.58,2.21
			C607.7,456.41,606.72,457.57,605.39,457.68z"/>
		<path class="st1" d="M602.04,470.06c-1.33,0.1-2.48-0.88-2.58-2.21s0.88-2.48,2.21-2.58s2.48,0.88,2.58,2.21
			C604.35,468.81,603.35,469.96,602.04,470.06z"/>
		<path class="st1" d="M598.02,481.31c-1.33,0.1-2.48-0.88-2.58-2.21c-0.1-1.33,0.88-2.48,2.21-2.58c1.33-0.1,2.48,0.88,2.58,2.21
			C600.33,480.06,599.35,481.21,598.02,481.31z"/>
		<path class="st1" d="M594.93,492.73c-1.33,0.1-2.48-0.88-2.58-2.21c-0.1-1.33,0.88-2.48,2.21-2.58c1.33-0.1,2.48,0.88,2.58,2.21
			C597.24,491.46,596.25,492.62,594.93,492.73z"/>
		<path class="st1" d="M591.58,505.11c-1.33,0.1-2.48-0.88-2.58-2.21c-0.1-1.33,0.88-2.48,2.21-2.58s2.48,0.88,2.58,2.21
			C593.89,503.85,592.9,505.01,591.58,505.11z"/>
		<path class="st1" d="M515.25,472.93c0.8-1.01,2.27-1.2,3.28-0.41c1.01,0.8,1.2,2.27,0.41,3.28c-0.8,1.01-2.27,1.2-3.28,0.41
			C514.64,475.41,514.47,473.94,515.25,472.93z"/>
		<path class="st1" d="M509.06,463.2c0.8-1.01,2.27-1.2,3.28-0.41c1.01,0.8,1.2,2.27,0.41,3.28c-0.8,1.01-2.27,1.2-3.28,0.41
			C508.45,465.68,508.26,464.21,509.06,463.2z"/>
		<path class="st1" d="M502.76,453.32c0.8-1.01,2.27-1.2,3.28-0.41c1.01,0.8,1.2,2.27,0.41,3.28c-0.8,1.01-2.27,1.2-3.28,0.41
			C502.16,455.8,501.98,454.33,502.76,453.32z"/>
		<path class="st1" d="M496.74,443.85c0.8-1.01,2.27-1.2,3.28-0.41c1.01,0.8,1.2,2.27,0.41,3.28c-0.8,1.01-2.27,1.2-3.28,0.41
			C496.13,446.35,495.96,444.88,496.74,443.85z"/>
		<path class="st1" d="M490.76,434.46c0.8-1.01,2.27-1.2,3.28-0.41c1.01,0.8,1.2,2.27,0.41,3.28c-0.8,1.01-2.27,1.2-3.28,0.41
			C490.16,436.95,489.97,435.48,490.76,434.46z"/>
		<path class="st1" d="M484.57,424.73c0.8-1.01,2.27-1.2,3.28-0.41c1.01,0.8,1.2,2.27,0.41,3.28c-0.8,1.01-2.27,1.2-3.28,0.41
			C483.95,427.23,483.78,425.76,484.57,424.73z"/>
		<g>
			<path class="st1" d="M639.76,368.1c1.06-0.8,2.57-0.58,3.37,0.47s0.58,2.57-0.47,3.36c-1.06,0.8-2.57,0.58-3.37-0.47
				S638.7,368.9,639.76,368.1z"/>
			<path class="st1" d="M651.19,359.44c1.21,0.46,1.83,1.81,1.37,3.01c-0.46,1.21-1.81,1.83-3.01,1.37
				c-1.21-0.46-1.83-1.81-1.37-3.01C648.63,359.6,649.98,358.99,651.19,359.44z"/>
		</g>
		<path class="st1" d="M521.21,482.07c0.8-1.01,2.27-1.2,3.28-0.41c1.01,0.8,1.2,2.27,0.41,3.28c-0.8,1.01-2.27,1.2-3.28,0.41
			C520.6,484.56,520.41,483.09,521.21,482.07z"/>
		<path class="st1" d="M875.56,209.33c-0.53,1.21-1.94,1.77-3.15,1.24s-1.77-1.94-1.24-3.15c0.53-1.21,1.94-1.77,3.15-1.24
			C875.54,206.71,876.09,208.12,875.56,209.33z"/>
		<path class="st1" d="M885.03,201.4c-0.53,1.21-1.94,1.77-3.15,1.24s-1.77-1.94-1.24-3.15c0.53-1.21,1.94-1.77,3.15-1.24
			C885,198.76,885.56,200.17,885.03,201.4z"/>
		<path class="st1" d="M895.4,192.42c-0.53,1.21-1.94,1.77-3.15,1.24c-1.21-0.53-1.77-1.94-1.24-3.15c0.53-1.21,1.94-1.77,3.15-1.24
			C895.37,189.79,895.93,191.21,895.4,192.42z"/>
		<polygon class="st1" points="871.73,120.53 864.49,118.84 869.9,116.43 870.69,107.58 874.47,116.05 881.07,116.58 874.52,119.5 
			874.37,125.02 		"/>
		<path class="st1" d="M460.38,310.38c-0.47,1.2-1.84,1.78-3.04,1.31c-1.2-0.47-1.78-1.84-1.31-3.04c0.47-1.2,1.84-1.78,3.04-1.31
			C460.27,307.81,460.85,309.17,460.38,310.38z"/>
		<path class="st1" d="M469.87,318.71c-0.47,1.2-1.84,1.78-3.04,1.31c-1.2-0.47-1.78-1.84-1.31-3.04c0.47-1.2,1.84-1.78,3.04-1.31
			C469.75,316.14,470.34,317.51,469.87,318.71z"/>
		<polygon class="st1" points="477.54,327.22 477.01,319.8 480.92,324.27 489.6,322.41 482.63,328.52 484.07,334.97 479.36,329.59 
			474.04,331.07 		"/>
		<polygon class="st1" points="900.23,128.2 907.52,120.7 905.45,131.55 910.91,135.53 902.9,134 897.22,143.9 898.85,135.43 
			888.65,132.75 894.26,130.75 894.16,123.32 		"/>
		<polygon class="st1" points="630.26,392.57 633.2,404.63 625.24,395.82 616.24,400.62 622.12,391.92 612.32,384.44 620.66,385.89 
			620.92,376.82 626.35,382.47 633.24,376.15 630.17,385.04 638.66,386.46 		"/>
		<polygon class="st1" points="394.17,292.14 387.12,299.88 388.84,288.96 383.25,285.17 391.3,286.44 396.63,276.34 395.29,284.87 
			405.57,287.21 400.04,289.39 400.38,296.82 		"/>
		<polygon class="st1" points="581.82,560.63 580.64,571.02 575.65,561.17 568.89,561.36 576.18,557.68 574.6,546.37 578.5,554.07 
			588.21,549.96 585,554.97 589.61,560.79 		"/>
		<path class="st1" d="M862.5,221.55c1.64,0.41,12.25,4.53,12.25,4.53L864,227.17l1.28,9.92l-4.99-6.79l-4.53,8.75l-1.08-8.41
			l-9.87,5.66l5.83-8.14l-8.48-2.14l8.97-2.11l-4.09-10.34l7.1,7.61l2.97-12.93l1.9,9.8l8.28-4.02L862.5,221.55z"/>
		<polygon class="st1" points="588.27,523.59 585.52,533.18 580.73,523.84 573.7,527.45 578.05,519.79 574.55,512.98 582.79,517.36 
			589.67,513.82 589.28,518.34 594.44,523.12 		"/>
	</g>
</g>
</svg>
