<?xml version="1.0" encoding="utf-8"?>
<!-- Generator: Adobe Illustrator 25.3.0, SVG Export Plug-In . SVG Version: 6.00 Build 0)  -->
<svg version="1.1" id="Layer_1" xmlns="http://www.w3.org/2000/svg" xmlns:xlink="http://www.w3.org/1999/xlink" x="0px" y="0px"
	 viewBox="0 0 1920 700" style="enable-background:new 0 0 1920 700;" xml:space="preserve">
<style type="text/css">
	.st0{fill:#1B1D50;}
	.st1{fill:#FFFFFF;}
	.st2{opacity:0.42;fill:#8AD2D0;enable-background:new    ;}
</style>
<rect class="st0" width="1920" height="700"/>
<g id="XMLID_38_">
	<g id="XMLID_45_">
		<g id="XMLID_46_">
			<path id="XMLID_47_" class="st1" d="M101.56,311.37c-3.3,0-6.55-1.6-8.52-4.56c-2.96-4.43-2-10.33,2.07-13.62
				c7.24-6.58,132.32-132,215.09-215.17c3.99-4,10.47-4.02,14.47-0.04c4,3.99,4.02,10.47,0.04,14.47
				C111.14,307.03,108.29,308.93,107.22,309.65C105.48,310.82,103.5,311.37,101.56,311.37z M95.87,292.62
				c-0.13,0.08-0.37,0.23-0.69,0.5C95.4,292.95,95.63,292.78,95.87,292.62z"/>
		</g>
	</g>
	<g id="XMLID_42_">
		<g id="XMLID_43_">
			<path id="XMLID_44_" class="st1" d="M322.39,179.94c-5.65,0-10.23-4.58-10.23-10.23V90.94H237c-5.65,0-10.23-4.58-10.23-10.23
				c0-5.65,4.58-10.23,10.23-10.23h95.62v99.23C332.62,175.37,328.04,179.94,322.39,179.94z"/>
		</g>
	</g>
	<g id="XMLID_39_">
		<g id="XMLID_40_">
			<path id="XMLID_41_" class="st1" d="M244.59,259.53c0,0-99.02-99.02-100.22-100.22c-4-4-3.99-10.48,0.01-14.47
				c4-4,10.48-3.99,14.47,0.01c1.2,1.21,100.22,100.22,100.22,100.22L244.59,259.53z"/>
		</g>
	</g>
</g>
<g>
	<g>
		<g>
			<path class="st2" d="M496.32,485.19c0.65-0.79,1.31-1.57,1.98-2.36c-0.53-12.19-1.02-24.39-1.47-36.57
				c-0.71-18.68-1.34-37.37-1.92-56.05c-0.7-22.51-1.31-45.02-1.84-67.54c-0.61-26-1.11-51.99-1.52-77.99
				c-0.45-29.2-0.77-58.4-0.96-87.6c-0.04-6.4-0.07-12.78-0.1-19.18c-0.77-1.86-1.47-3.83-2.1-5.84c0.1,23.96,0.28,47.92,0.54,71.88
				c0.31,27.64,0.74,55.28,1.28,82.91c0.49,24.43,1.06,48.84,1.73,73.27c0.57,20.56,1.2,41.12,1.91,61.68
				c0.57,16.46,1.18,32.91,1.86,49.37C495.91,475.84,496.11,480.52,496.32,485.19z"/>
			<path class="st2" d="M917.22,494.16c-2.5,0.22-5.04-0.03-7.51-0.42c-0.31-0.04-0.54-0.15-0.74-0.31
				c-5.23,0.71-10.46,1.42-15.71,2.13c-9.93,1.34-19.88,2.66-29.81,3.96c-12.6,1.66-25.21,3.28-37.83,4.9
				c-14.58,1.86-29.16,3.69-43.74,5.48c-15.66,1.93-31.31,3.81-46.99,5.65c-16.05,1.88-32.11,3.71-48.18,5.47
				c-15.76,1.72-31.54,3.38-47.33,4.94c-14.58,1.43-29.17,2.78-43.78,3.99c-12.71,1.04-25.46,1.99-38.2,2.7
				c-2.36,0.13-4.73,0.25-7.09,0.38c-0.74,0.92-1.6,1.63-2.56,2.18c9.11-0.4,18.21-0.96,27.31-1.6c13.8-0.97,27.6-2.13,41.37-3.39
				c15.39-1.41,30.74-2.94,46.12-4.54c16.05-1.68,32.11-3.44,48.13-5.26c16.11-1.84,32.2-3.73,48.3-5.66
				c15.25-1.84,30.49-3.71,45.73-5.63c13.76-1.72,27.52-3.48,41.26-5.27c11.38-1.47,22.76-2.98,34.14-4.48
				c8.37-1.11,16.74-2.24,25.11-3.37c4.49-0.61,8.99-1.22,13.48-1.84c0.57-0.08,1.14-0.15,1.71-0.24c0.43-0.06,0.65-0.31,0.72-0.61
				C919.86,493.69,918.57,494.04,917.22,494.16z"/>
			<path class="st2" d="M514.36,534.6c-0.07-0.07-0.15-0.15-0.24-0.22c-0.33-0.31-0.49-0.64-0.53-0.97
				c-2.25-0.15-4.49-0.38-6.71-0.71c-1.74-0.26-4.13-0.75-5.4-1.34c-0.28-0.13-0.56-0.35-0.83-0.45c0,0,0,0-0.01,0
				c0.04,0.1,0.06,0.25-0.06,0.46c0.06-0.1,0.01-0.31-0.01-0.49c-0.36-0.14-0.15-0.21-0.01-0.08c0-0.04-0.01-0.08-0.01-0.11
				c0.04-3.44-0.26-6.94-0.51-10.39c-0.04-0.01-0.08-0.03-0.14-0.04c-0.18-0.04-0.36-0.1-0.56-0.19c-0.11-0.06-0.24-0.11-0.35-0.18
				c-0.38-0.17-0.74-0.35-1.11-0.54c0.13,2.5,0.25,5.02,0.39,7.53c0.07,1.35,0.08,2.71,0.22,4.06c0.11,1.21,0.92,1.74,1.99,2.23
				c4.31,1.99,9.7,2.1,14.36,2.34C514.65,535.2,514.49,534.91,514.36,534.6z"/>
		</g>
		<g>
			<g>
				<g>
					<path class="st2" d="M687.6,321.26c-3.46-3.92-5.91-8.9-7.33-13.95c-2.95-11.18-3.76-22.75-9.67-33
						c-5.62-9.74-13.87-18.14-22.51-25.25c-18.29-15.07-39.98-25.28-60.96-35.97c-11.09-5.65-22.2-11.27-33.26-16.97
						c-9.84-5.08-19.6-10.35-28.71-16.65c-17.99-12.44-33.53-29.97-37.1-52.24c-1.6-10-0.89-23.02,5.93-31.13
						c3.53-4.22,10.66-7.21,15.43-3.09c3.92,3.38,3.88,10.96-2.34,11.39c-2.39,0.17-3.85-0.86-5.09-2.74
						c-0.6-0.9-1.24-1.63-2.31-0.75c-1.34,1.11-2.09,4.45-2.55,6.04c-0.68,2.35-1.1,4.77-1.31,7.21
						c-0.82,10.03,2.24,20.28,7.55,28.74c5.65,9,13.73,16.21,22.38,22.22c9.45,6.57,19.68,12.08,30.03,17.03
						c21.56,10.31,44.43,16.46,67.03,23.98c22.16,7.4,44.02,17.08,59.87,34.83c3.96,4.44,7.55,9.18,9.78,14.73
						c2.02,5.01,3.05,10.32,4.05,15.59c1.75,9.31,3.37,21.4,10.96,28.02c0.24-0.47,0.67-0.82,1.32-0.88
						c-4.01-3.39-6.07-8.47-7.61-13.44c-1.66-5.33-2.57-10.82-3.63-16.29c-1.04-5.36-2.3-10.68-4.59-15.65
						c-2.32-5.01-5.79-9.38-9.47-13.45c-7.71-8.56-17.03-15.59-27.14-21.09c-21.15-11.5-44.73-17.15-67.41-24.71
						c-12.12-4.03-23.97-8.79-35.43-14.44c-10.63-5.24-21.19-11.05-30.66-18.2c-9.11-6.89-17.33-15.44-21.87-26.06
						c-2.24-5.26-3.62-10.93-3.77-16.65c-0.08-2.8,0.13-5.59,0.68-8.33c0.22-1.11,1.47-7.65,2.81-7.61c-0.03,0,1.18,1.67,1.34,1.81
						c0.51,0.46,1.13,0.81,1.77,1.06c1.54,0.63,3.31,0.7,4.92,0.25c3.42-0.93,5.33-4.15,4.94-7.62c-0.42-3.73-3.14-6.97-6.73-8.01
						c-4.41-1.29-9.28,0.45-12.56,3.49c-7.19,6.69-8.89,18.63-8.43,27.95c0.51,10.31,3.98,20.35,9.15,29.24
						c11.41,19.59,30.97,32.32,50.48,42.78c22.11,11.85,44.84,22.54,66.94,34.4c21.23,11.41,43.65,25.35,56.38,46.53
						c6.18,10.28,6.93,21.99,9.9,33.3c1.53,5.41,4.13,10.74,7.9,14.9C686.78,322.04,687.07,321.51,687.6,321.26z"/>
					<path class="st2" d="M945.32,472.35c-0.54-3.98-3.2-7.26-7.14-8.29c-3.41-0.89-7.41,0.24-8.92,3.66
						c-1.24,2.84-0.58,6.73,1.98,8.65c0.45,0.33,1.49,0.54,1.84,0.89c0.29,0.29-0.45,0.5-0.89,0.77c-0.61,0.36-1.21,0.72-1.84,1.06
						c-2.53,1.34-5.23,2.32-8.03,3c-5.52,1.34-11.32,1.38-16.92,0.45c-11.37-1.91-21.41-7.9-29.88-15.53
						c-8.64-7.76-15.87-17.04-22.59-26.45c-7.33-10.25-13.93-21.02-19.74-32.2c-10.99-21.15-19.5-43.65-32.84-63.52
						c-6.43-9.57-13.99-18.32-23.08-25.47c-8.93-7.04-19.82-13.81-31.2-15.76c-5.98-1.02-12.01,0.25-18,0.25
						c-3.09,0-6.44-0.28-9.65-1c-0.21,0.61-0.72,1.1-1.56,1.1c-0.04,0-0.08-0.01-0.13-0.01c-0.03,0.03-0.06,0.06-0.08,0.08
						c7.08,1.85,15.05,1.04,22.09,0.75c12.35-0.53,24.05,6.01,33.85,12.97c19.27,13.67,31.47,34.11,41.71,54.95
						c5.13,10.43,9.86,21.05,15.05,31.45c5.34,10.68,11.28,21.05,17.95,30.95c11.88,17.67,26.2,37.17,46.48,45.64
						c8.95,3.74,19.1,5.08,28.62,2.89c2.35-0.54,4.63-1.31,6.83-2.31c1.5-0.68,4.67-1.78,5.51-3.35c0.58-1.09-0.08-1.64-1-2.09
						c-2.3-1.11-3.6-2.57-3.53-5.33c0.15-6.13,7.76-6.41,11.32-2.94c4.76,4.65,1.93,12.37-2.17,16.3
						c-7.62,7.35-19.98,9.61-30.17,9.24c-22.73-0.82-42.14-14.29-56.91-30.63c-7.57-8.37-14.19-17.51-20.67-26.72
						c-7.32-10.39-14.59-20.83-21.9-31.24c-13.23-18.89-26.24-38.44-43.53-53.92c-8.25-7.39-17.49-13.7-27.73-17.96
						c-5.17-2.16-10.64-4.02-16.25-4.63c-6.39-0.7-12.66,1.28-19.03,1.02c-2.5-0.1-4.83-0.64-6.96-1.52
						c0.03,0.53-0.17,1.07-0.57,1.42c0.92,0.38,1.86,0.7,2.85,0.95c5.93,1.52,11.98,0.01,17.95-0.4c6.59-0.46,12.9,1.27,19,3.6
						c22.91,8.71,40.11,27.32,54.53,46.45c15.26,20.23,29.13,41.48,43.88,62.07c12.81,17.88,27.34,36,47.55,45.82
						c9.5,4.6,20.03,7.43,30.63,7.28c9.72-0.14,21.15-2.75,28.37-9.71C943.78,481.73,945.98,477.12,945.32,472.35z"/>
				</g>
			</g>
			<g>
				<path class="st2" d="M683.44,251.9c-2.45-8.61-9.57-14.37-16.36-19.64c-0.75-0.58-1.84,0.47-1.07,1.07
					c6.57,5.09,13.59,10.64,15.97,18.98C682.26,253.22,683.72,252.83,683.44,251.9L683.44,251.9z"/>
			</g>
			<g>
				<path class="st2" d="M670.17,241.28c-11.32-10-25.12-17.01-39.9-20.21c-0.95-0.21-1.35,1.25-0.4,1.46
					c14.52,3.14,28.1,9.99,39.24,19.82C669.82,242.98,670.89,241.92,670.17,241.28L670.17,241.28z"/>
			</g>
			<g>
				<path class="st2" d="M645.27,218.79c-7.94-2.07-15.96-3.98-23.83-6.27c-7.76-2.27-14.83-5.93-21.9-9.79
					c-0.85-0.47-1.61,0.83-0.77,1.31c7.03,3.85,14.08,7.53,21.79,9.81c8.03,2.38,16.21,4.3,24.3,6.41
					C645.81,220.5,646.2,219.04,645.27,218.79L645.27,218.79z"/>
			</g>
			<g>
				<path class="st2" d="M507.96,94.43c-2.87-1.41-6.13-1.32-8.92,0.26c-0.85,0.49-0.08,1.78,0.77,1.31
					c2.28-1.31,5.02-1.43,7.39-0.26C508.07,96.16,508.84,94.87,507.96,94.43L507.96,94.43z"/>
			</g>
			<g>
				<path class="st2" d="M789.42,361.21c3.7,5.68,7.14,11.52,10.28,17.51c0.45,0.86,1.75,0.1,1.31-0.77
					c-3.14-6-6.58-11.84-10.28-17.51C790.18,359.64,788.89,360.39,789.42,361.21L789.42,361.21z"/>
			</g>
			<g>
				<path class="st2" d="M799.7,366.93c3.58,7.44,7.15,14.89,10.74,22.33c3.19,6.62,6.47,13.22,11.16,18.92
					c0.61,0.75,1.68-0.32,1.07-1.07c-4.7-5.7-7.94-12.41-11.13-19.03c-3.52-7.3-7.03-14.61-10.53-21.91
					C800.57,365.29,799.28,366.05,799.7,366.93L799.7,366.93z"/>
			</g>
			<g>
				<path class="st2" d="M827.58,416.89c7.94,12.72,16.65,24.94,26.08,36.59c0.61,0.75,1.67-0.32,1.07-1.07
					c-9.35-11.56-17.99-23.68-25.85-36.28C828.37,415.3,827.06,416.05,827.58,416.89L827.58,416.89z"/>
			</g>
		</g>
		<g>
			<path class="st2" d="M584.63,449.12c0.54,18.88-2.55,38.01-10.17,55.37c0.29,0,0.6,0,0.89,0c-3.05-6.09-6.84-11.77-11.3-16.93
				c-0.31-0.35-0.88-0.06-0.88,0.36c-0.03,5.95-0.04,11.91-0.07,17.86c-0.01,2.84,0.06,5.68-0.04,8.51
				c-0.06,1.47-0.26,2.92-0.97,4.24c-0.65,1.22-1.59,2.28-2.46,3.34c-6.75,8.21-14.15,15.87-22.13,22.88
				c-4.56,4.01-9.31,7.8-14.22,11.38c0.25,0.1,0.5,0.21,0.77,0.31c-3.03-9.43-7.21-18.45-12.44-26.85
				c-0.35-0.57-1.25-0.04-0.89,0.53c5.19,8.33,9.33,17.26,12.34,26.61c0.1,0.29,0.47,0.51,0.77,0.31
				c8.88-6.45,17.22-13.63,24.92-21.47c3.91-3.98,7.65-8.12,11.2-12.42c1.5-1.82,3.23-3.66,3.83-6.01c0.68-2.63,0.38-5.59,0.38-8.28
				c0.03-6.97,0.06-13.95,0.08-20.92c-0.29,0.13-0.58,0.25-0.88,0.36c4.4,5.09,8.12,10.7,11.14,16.72c0.17,0.32,0.74,0.35,0.89,0
				c7.69-17.53,10.86-36.81,10.31-55.88C585.64,448.47,584.61,448.45,584.63,449.12L584.63,449.12z"/>
		</g>
		<g>
			<path class="st2" d="M577.82,439.83c-18.35-4.91-36.77,4.31-51.14,15.07c-15.32,11.46-28.42,25.92-39.91,41.16
				c-3.95,5.24-7.85,10.63-11.14,16.3c-0.15,0.28-0.03,0.7,0.31,0.77c9.25,1.95,18.2,4.86,26.7,9.01c0.6,0.29,1.13-0.6,0.53-0.89
				c-8.58-4.19-17.61-7.15-26.95-9.11c0.1,0.25,0.21,0.5,0.31,0.77c2.78-4.8,6.01-9.35,9.29-13.81c5.12-6.97,10.6-13.67,16.4-20.09
				c6.62-7.3,13.7-14.22,21.38-20.39c7.6-6.11,15.9-11.59,25-15.19c9.2-3.64,19.27-5.15,28.94-2.56
				C578.19,440.99,578.46,440.01,577.82,439.83L577.82,439.83z"/>
		</g>
		<g>
			<path class="st2" d="M504.92,534.69c-2.06,0-4.01-1.06-5.13-2.57c-1-1.52-1.85-3.37-0.58-5.88c1.09-2.16,2.63-3.83,4.13-5.45
				c0.72-0.78,1.47-1.59,2.16-2.43l0.04-0.04c7.5-7.75,14.59-15.51,21.45-23.01c6.87-7.51,13.97-15.27,21.48-23.04
				c28.23-31.01,56.38-61.71,83.61-91.4c38.21-41.68,77.72-84.76,116.52-127.71l1.02,0.92c-38.8,42.94-78.31,86.04-116.52,127.72
				c-27.22,29.69-55.37,60.39-83.62,91.41c-7.51,7.76-14.61,15.53-21.47,23.02c-6.86,7.5-13.95,15.25-21.47,23.01
				c-0.7,0.88-1.46,1.7-2.2,2.49c-1.5,1.61-2.92,3.14-3.91,5.13c-0.89,1.79-0.46,3.09,0.47,4.48c1.28,1.71,3.96,2.7,6.25,1.39
				c2.3-2.3,4.51-4.65,6.65-6.91c2.17-2.3,4.41-4.66,6.73-7c44.56-49.16,88.84-97.46,131.66-144.18
				c34.08-37.19,69.33-75.64,104.27-114.02l1.02,0.92c-34.93,38.4-70.18,76.83-104.27,114.02c-42.82,46.71-87.1,95-131.67,144.19
				c-2.35,2.35-4.58,4.72-6.73,7c-2.17,2.3-4.41,4.66-6.73,7l-0.14,0.1C506.95,534.42,505.92,534.69,504.92,534.69z"/>
		</g>
		<g>
			<path class="st2" d="M789.26,272c0.32-10.21,2.28-20.45,4.08-30.49c1.79-10.06,3.78-20.07,5.9-30.06
				c0.45-2.09,0.88-4.16,1.34-6.25c0.08-0.36-0.24-0.77-0.64-0.64c-5.65,1.85-11.31,3.63-16.99,5.37
				c-10.89,3.35-21.84,6.58-32.9,9.35c-5.09,1.28-10.24,2.52-15.44,3.21c-0.33,0.04-0.71,0.43-0.45,0.78
				c2.21,2.89,4.9,5.51,7.72,7.8c5.01,4.06,11.05,7.36,17.64,7.33c-0.13-0.29-0.25-0.58-0.36-0.88c-4.41,4.28-8.83,8.58-13.24,12.87
				c-0.19,0.19-0.19,0.53,0,0.74c2.16,2.18,4.23,4.52,6.5,6.58c2.27,2.06,4.8,3.88,7.19,5.8c0.19,0.15,0.54,0.24,0.74,0
				c3.83-4.81,7.67-9.64,11.49-14.45c-0.29-0.13-0.58-0.25-0.88-0.36c0.63,6.58,4.47,12.27,9.01,16.85
				c2.56,2.57,5.43,5.01,8.53,6.91c0.57,0.35,1.09-0.54,0.53-0.89c-2.87-1.77-5.51-3.99-7.9-6.34c-4.52-4.44-8.51-10.04-9.13-16.53
				c-0.04-0.39-0.57-0.75-0.88-0.36c-3.83,4.81-7.67,9.64-11.49,14.45c0.25,0,0.49,0,0.74,0c-2.38-1.92-4.91-3.76-7.19-5.8
				c-2.27-2.06-4.34-4.4-6.5-6.58c0,0.25,0,0.49,0,0.74c4.41-4.3,8.83-8.58,13.24-12.87c0.32-0.32,0.08-0.89-0.36-0.88
				c-6.51,0.03-12.49-3.34-17.38-7.4c-2.5-2.09-5.3-4.86-7.11-7.22c-0.15,0.26-0.29,0.51-0.45,0.78c10.13-1.34,20.1-4.28,29.9-7.05
				c9.93-2.81,19.8-5.83,29.63-8.96c2.03-0.64,4.06-1.29,6.08-1.96c-0.21-0.21-0.43-0.42-0.64-0.64c-1.29,5.88-2.52,11.8-3.7,17.71
				c-2.25,11.27-4.41,22.59-6.05,33.97c-0.74,5.09-1.43,10.24-1.6,15.4C788.21,272.67,789.24,272.67,789.26,272z"/>
		</g>
		<g>
			<path class="st2" d="M553.66,492.05c1.91,8.81,2.41,17.83,1.5,26.79c-0.07,0.67,0.97,0.65,1.03,0
				c0.92-9.04,0.39-18.17-1.53-27.06C554.52,491.12,553.52,491.4,553.66,492.05L553.66,492.05z"/>
		</g>
		<g>
			<path class="st2" d="M549.46,502.48c0.07,7.92-1.2,15.98-5.02,23.01c-1.73,3.17-3.92,6.09-6.59,8.53
				c-2.64,2.41-5.81,4.19-8.22,6.87c-0.45,0.5,0.29,1.22,0.74,0.74c2.59-2.89,6.05-4.77,8.83-7.44c2.56-2.46,4.69-5.4,6.34-8.54
				c3.74-7.11,5.04-15.19,4.95-23.16C550.49,501.82,549.45,501.82,549.46,502.48L549.46,502.48z"/>
		</g>
		<g>
			<path class="st2" d="M537.94,521.9c-2.67,4.99-6.18,9.45-10.38,13.23c-0.5,0.45,0.24,1.18,0.74,0.74
				c4.27-3.84,7.83-8.37,10.54-13.44C539.15,521.83,538.25,521.31,537.94,521.9L537.94,521.9z"/>
		</g>
		<g>
			<path class="st2" d="M574.83,485.83c0.58-5.76,1.91-11.41,3.94-16.82c0.24-0.63-0.77-0.89-1-0.28
				c-2.06,5.51-3.38,11.24-3.96,17.1C573.73,486.49,574.76,486.49,574.83,485.83L574.83,485.83z"/>
		</g>
		<g>
			<path class="st2" d="M570.74,478.57c0.14-1.56,0.47-3.07,0.95-4.56c0.21-0.64-0.79-0.9-1-0.28c-0.51,1.59-0.83,3.19-0.99,4.84
				C569.64,479.24,570.67,479.22,570.74,478.57L570.74,478.57z"/>
		</g>
		<g>
			<path class="st2" d="M567.24,451.34c-7.93,1.47-15.85,2.95-23.77,4.42c-0.65,0.13-0.38,1.11,0.28,1
				c7.93-1.47,15.85-2.95,23.77-4.42C568.17,452.22,567.89,451.22,567.24,451.34L567.24,451.34z"/>
		</g>
		<g>
			<path class="st2" d="M551.02,462c-9.81,0.82-19.55,2.42-29.1,4.77c-0.64,0.15-0.38,1.15,0.28,1c9.47-2.34,19.1-3.92,28.82-4.74
				C551.67,462.97,551.69,461.95,551.02,462L551.02,462z"/>
		</g>
		<g>
			<path class="st2" d="M533.35,458.95c-2.3,0.26-4.52,0.79-6.69,1.6c-0.61,0.24-0.35,1.22,0.28,1c2.07-0.78,4.22-1.29,6.41-1.56
				C534,459.91,534,458.88,533.35,458.95L533.35,458.95z"/>
		</g>
		<g>
			<path class="st2" d="M538.21,483.22c-11.95,0.5-23.58,3.58-34.71,7.8c-0.61,0.24-0.35,1.24,0.28,1
				c11.05-4.2,22.58-7.28,34.43-7.78C538.87,484.22,538.87,483.19,538.21,483.22L538.21,483.22z"/>
		</g>
		<g>
			<path class="st2" d="M520.84,491.3c-14.22,1.95-27.02,8.81-39.47,15.55c-0.58,0.32-0.07,1.21,0.53,0.89
				c12.37-6.71,25.08-13.52,39.22-15.46C521.78,492.22,521.5,491.21,520.84,491.3L520.84,491.3z"/>
		</g>
		<g>
			<path class="st2" d="M490.75,510.9c2.1-1.52,4.33-2.81,6.68-3.87c0.61-0.28,0.08-1.17-0.53-0.89c-2.36,1.06-4.59,2.35-6.68,3.87
				C489.71,510.4,490.22,511.29,490.75,510.9L490.75,510.9z"/>
		</g>
		<g>
			<path class="st2" d="M638.58,381.51c6.66-7.6,13.62-14.93,20.85-21.98c0.47-0.46-0.25-1.2-0.74-0.74
				c-7.25,7.04-14.2,14.37-20.85,21.98C637.41,381.27,638.14,382.01,638.58,381.51L638.58,381.51z"/>
		</g>
		<g>
			<path class="st2" d="M663.02,354.99c2.8-3.21,5.66-6.37,8.6-9.47c0.46-0.49-0.28-1.21-0.74-0.74c-2.94,3.1-5.8,6.26-8.6,9.47
				C661.85,354.76,662.59,355.5,663.02,354.99L663.02,354.99z"/>
		</g>
		<g>
			<path class="st2" d="M783.77,248.73c-1.74-2.6-5.58-0.39-4.63,2.49c1.2,3.63,5.8,2.46,7.39-0.13c1.1-1.79,1.2-3.95,1.15-6
				c-0.07-2.62-0.13-5.23,0.06-7.85c0.35-5.36,1.39-10.63,3.05-15.73c0.21-0.64-0.79-0.9-1-0.28c-2.1,6.52-3.21,13.34-3.21,20.19
				c0,3.16,0.9,7.47-1.57,9.97c-1.21,1.22-3.55,1.73-4.62,0.03c-0.43-0.68-0.57-1.75,0.08-2.35c0.68-0.63,1.89-0.61,2.42,0.18
				C783.25,249.8,784.14,249.28,783.77,248.73L783.77,248.73z"/>
		</g>
		<g>
			<path class="st2" d="M758.55,227.07c1.92,0.93,0.42,3.51-1.5,2.91c-2.32-0.74-1.84-3.69-0.5-5.08c2.36-2.48,6.65-2.13,9.77-2.57
				c6.66-0.95,13.12-2.96,19.18-5.87c0.6-0.29,0.07-1.18-0.53-0.89c-4.63,2.23-9.52,3.91-14.54,4.98c-2.59,0.56-5.18,0.9-7.8,1.18
				c-2.07,0.21-4.22,0.5-5.97,1.73c-1.41,0.99-2.39,2.56-2.3,4.33c0.08,1.59,1.15,2.95,2.73,3.28c2.94,0.63,4.79-3.51,1.96-4.88
				C758.48,225.88,757.95,226.77,758.55,227.07L758.55,227.07z"/>
		</g>
		<g>
			<path class="st2" d="M779.87,242.12c-0.25-3.32,0.26-6.59,1.5-9.7c0.25-0.61-0.75-0.89-1-0.28c-1.27,3.19-1.79,6.55-1.54,9.96
				C778.89,242.77,779.93,242.79,779.87,242.12L779.87,242.12z"/>
		</g>
		<g>
			<path class="st2" d="M776.03,235.11c1.32-3.9,3.24-7.53,5.7-10.82c0.4-0.53-0.5-1.06-0.89-0.53c-2.52,3.37-4.47,7.09-5.81,11.07
				C774.82,235.47,775.83,235.73,776.03,235.11L776.03,235.11z"/>
		</g>
		<g>
			<path class="st2" d="M768.38,230.95c1.13-0.67,2.18-1.43,3.19-2.3c0.51-0.43-0.22-1.15-0.74-0.74c-0.93,0.79-1.93,1.5-2.98,2.13
				C767.28,230.39,767.81,231.29,768.38,230.95L768.38,230.95z"/>
		</g>
		<g>
			<path class="st2" d="M760.02,256.49c1.5-2.16,3.1-4.23,4.83-6.22c0.43-0.5-0.29-1.24-0.74-0.74c-1.77,2.06-3.44,4.2-4.98,6.43
				C758.74,256.52,759.65,257.03,760.02,256.49L760.02,256.49z"/>
		</g>
		<g>
			<path class="st2" d="M728.57,323.11c11.67,2.16,22.61,7.5,31.45,15.4c0.5,0.45,1.22-0.29,0.74-0.74
				c-8.99-8.03-20.06-13.48-31.91-15.66C728.19,321.98,727.91,322.98,728.57,323.11L728.57,323.11z"/>
		</g>
		<g>
			<path class="st2" d="M711.97,316.08c17.33-0.4,35.85,0.99,50.23,11.73c3.69,2.75,6.93,6.07,9.5,9.88
				c0.38,0.54,1.27,0.03,0.89-0.53c-9.78-14.43-27.22-20.35-43.88-21.74c-5.56-0.47-11.16-0.5-16.75-0.36
				C711.3,315.07,711.3,316.1,711.97,316.08L711.97,316.08z"/>
		</g>
		<g>
			<path class="st2" d="M689.44,296.65c-1.7-5.54-3.39-11.09-5.11-16.62c-0.19-0.64-1.2-0.36-1,0.28c1.7,5.54,3.39,11.09,5.11,16.62
				C688.63,297.55,689.63,297.29,689.44,296.65L689.44,296.65z"/>
		</g>
		<g>
			<path class="st2" d="M487.92,130.03c3.42,0.15,7.09-0.1,9.52-2.84c0.45-0.5-0.29-1.24-0.74-0.74c-2.23,2.53-5.63,2.67-8.78,2.53
				C487.25,128.96,487.25,129.99,487.92,130.03L487.92,130.03z"/>
		</g>
		<g>
			<path class="st2" d="M489.43,135.61c3.34,0.32,6.57-0.77,9.08-2.98c0.5-0.45-0.24-1.17-0.74-0.74c-2.31,2.04-5.29,2.96-8.35,2.67
				C488.76,134.51,488.78,135.56,489.43,135.61L489.43,135.61z"/>
		</g>
		<g>
			<path class="st2" d="M491.55,140.76c3.49-0.03,6.76-1.39,9.24-3.87c0.47-0.47-0.26-1.21-0.74-0.74c-2.28,2.28-5.27,3.55-8.5,3.56
				C490.88,139.73,490.88,140.76,491.55,140.76L491.55,140.76z"/>
		</g>
		<g>
			<path class="st2" d="M494.37,147.23c3.6-0.39,6.89-1.82,9.61-4.2c0.5-0.45-0.24-1.17-0.74-0.74c-2.5,2.18-5.58,3.53-8.89,3.9
				C493.72,146.27,493.7,147.3,494.37,147.23L494.37,147.23z"/>
		</g>
		<g>
			<path class="st2" d="M901.1,482.98c-0.81,3.62-0.26,7.3,1.57,10.53c0.33,0.58,1.22,0.06,0.89-0.53c-1.7-2.98-2.21-6.39-1.47-9.72
				C902.24,482.62,901.25,482.34,901.1,482.98L901.1,482.98z"/>
		</g>
		<g>
			<path class="st2" d="M905.81,483.84c0.13,3.51,1.1,6.87,2.87,9.89c0.33,0.57,1.24,0.06,0.89-0.53c-1.68-2.87-2.62-6.04-2.73-9.38
				C906.81,483.17,905.79,483.17,905.81,483.84L905.81,483.84z"/>
		</g>
		<g>
			<path class="st2" d="M914.69,493.16c-1.61-2.71-2.49-5.7-2.59-8.86c-0.01-0.67-1.06-0.67-1.03,0c0.1,3.34,1.02,6.51,2.73,9.38
				C914.13,494.26,915.02,493.75,914.69,493.16L914.69,493.16z"/>
		</g>
		<g>
			<path class="st2" d="M917.33,484.19c0.01,3.06,0.72,6,2.07,8.75c0.29,0.6,1.18,0.07,0.89-0.53c-1.28-2.57-1.92-5.34-1.93-8.22
				C918.36,483.52,917.33,483.52,917.33,484.19L917.33,484.19z"/>
		</g>
	</g>
	<g>
		<polygon class="st1" points="627.27,491.23 638.13,475.63 636.09,493.69 650.71,499.14 634.79,501.22 636.14,520.05 
			629.35,509.01 618.7,517.9 619.66,505.93 605.42,504.44 618.72,498.96 611.75,487.81 		"/>
		<path class="st1" d="M757.53,242.09c0.49,1.98-0.72,3.95-2.68,4.44c-1.98,0.49-3.95-0.72-4.44-2.68
			c-0.49-1.98,0.72-3.95,2.68-4.44S757.04,240.13,757.53,242.09z"/>
		<path class="st1" d="M761.48,221.08c0.49,1.98-0.72,3.95-2.68,4.44c-1.98,0.49-3.95-0.72-4.44-2.68
			c-0.49-1.98,0.72-3.95,2.68-4.44C759.02,217.91,761.01,219.11,761.48,221.08z"/>
		<path class="st1" d="M765.67,202.64c0.49,1.98-0.72,3.95-2.68,4.44c-1.98,0.49-3.95-0.72-4.44-2.68
			c-0.49-1.98,0.72-3.95,2.68-4.44C763.19,199.47,765.2,200.68,765.67,202.64z"/>
		<path class="st1" d="M644.32,533.91c-1.39,1.47-3.71,1.54-5.19,0.17c-1.47-1.39-1.54-3.71-0.17-5.19
			c1.39-1.47,3.71-1.54,5.19-0.17C645.63,530.11,645.7,532.43,644.32,533.91z"/>
		<path class="st1" d="M652.72,550.3c-1.39,1.47-3.71,1.54-5.19,0.17s-1.54-3.71-0.17-5.19c1.39-1.47,3.71-1.54,5.19-0.17
			C654.03,546.5,654.11,548.82,652.72,550.3z"/>
		<path class="st1" d="M660.53,565.52c-1.39,1.47-3.71,1.54-5.19,0.17c-1.47-1.39-1.54-3.71-0.17-5.19
			c1.39-1.47,3.71-1.54,5.19-0.17C661.84,561.7,661.92,564.03,660.53,565.52z"/>
		<path class="st1" d="M435.05,578.69c-1.96-0.54-3.1-2.56-2.57-4.51c0.54-1.96,2.56-3.1,4.51-2.57c1.96,0.54,3.1,2.56,2.57,4.51
			C439.02,578.08,437,579.23,435.05,578.69z"/>
		<path class="st1" d="M831.87,309.76c-0.1-1.98,1.42-3.66,3.39-3.76c1.98-0.1,3.66,1.42,3.76,3.39c0.1,1.98-1.42,3.66-3.39,3.76
			C833.65,313.25,831.97,311.73,831.87,309.76z"/>
		<path class="st1" d="M814.97,304.69c-0.1-1.98,1.42-3.66,3.39-3.76c1.98-0.1,3.66,1.42,3.76,3.39c0.1,1.98-1.42,3.66-3.39,3.76
			C816.75,308.18,815.07,306.67,814.97,304.69z"/>
		<path class="st1" d="M797.79,299.54c-0.1-1.98,1.42-3.66,3.39-3.76c1.98-0.1,3.66,1.42,3.76,3.39c0.1,1.98-1.42,3.66-3.39,3.76
			C799.57,303.04,797.89,301.52,797.79,299.54z"/>
		<path class="st1" d="M781.35,294.62c-0.1-1.98,1.42-3.66,3.39-3.76c1.98-0.1,3.66,1.42,3.76,3.39c0.1,1.98-1.42,3.66-3.39,3.76
			C783.14,298.11,781.46,296.59,781.35,294.62z"/>
		<path class="st1" d="M765.02,289.74c-0.1-1.98,1.42-3.66,3.39-3.76c1.98-0.1,3.66,1.42,3.76,3.39c0.1,1.98-1.42,3.66-3.39,3.76
			C766.81,293.23,765.13,291.71,765.02,289.74z"/>
		<path class="st1" d="M650.86,403.84c1.68-1.14,3.96-0.71,5.11,0.97c1.14,1.68,0.71,3.96-0.97,5.11c-1.68,1.14-3.96,0.71-5.11-0.97
			C648.74,407.26,649.18,404.98,650.86,403.84z"/>
		<path class="st1" d="M645.91,384.83c1.68-1.14,3.96-0.71,5.11,0.97c1.14,1.68,0.71,3.96-0.97,5.11s-3.96,0.71-5.11-0.97
			C643.79,388.26,644.24,385.98,645.91,384.83z"/>
		<path class="st1" d="M640.93,365.65c1.68-1.14,3.96-0.71,5.11,0.97c1.14,1.68,0.71,3.96-0.97,5.11c-1.68,1.14-3.96,0.71-5.11-0.97
			C638.81,369.07,639.24,366.79,640.93,365.65z"/>
		<path class="st1" d="M636.22,347.62c1.68-1.14,3.96-0.71,5.11,0.97s0.71,3.96-0.97,5.11c-1.68,1.14-3.96,0.71-5.11-0.97
			C634.11,351.04,634.56,348.75,636.22,347.62z"/>
		<path class="st1" d="M631.58,329.72c1.68-1.14,3.96-0.71,5.11,0.97c1.14,1.68,0.71,3.96-0.97,5.11c-1.68,1.14-3.96,0.71-5.11-0.97
			C629.46,333.14,629.89,330.86,631.58,329.72z"/>
		<path class="st1" d="M860.73,308.84l16.82,5.13l-13.16,4.83l-3.27,20.76l-7.55-20.59l-15.5-2.3l15.89-5.83l1.24-12.99
			C855.18,297.83,860.73,308.84,860.73,308.84z"/>
		<path class="st1" d="M775.94,176.11l-4.76,17.4l-5.34-13.35l-21.37-2.74l20.88-8.36l1.89-15.96l6.45,16.11
			c0,0,13.35,0.89,13.35,0.88C787.05,170.1,775.94,176.11,775.94,176.11z"/>
		<polygon class="st1" points="673.58,583.1 684,585.06 676.26,589.4 681.53,597.75 675.39,593.99 659.86,599.83 665.94,589.75 
			657.83,580.98 665.88,583.07 672.45,575.74 		"/>
		<path class="st1" d="M625.04,306.97c-1.96,1.7-16.43,11.37-16.43,11.37l8.08-14.43l-13.58-7.09l12.88-0.29l-7-13.37l11.5,6.04
			l1.56-17.33l5.08,14.45l10.13-8.76l-5.23,13.09l16.55,3.95l-15.78,2.23l13.61,15.07l-13.94-6.2l-2.23,13.93L625.04,306.97z"/>
		<polygon class="st1" points="480.86,200.23 468.68,209.52 471.51,196.43 460.12,193.97 472.32,188.66 473.41,173.42 
			481.71,184.07 497.95,180.5 486.76,191.34 492.46,205.84 		"/>
		<path class="st1" d="M585.41,271.69c-0.64,1.86-2.68,2.87-4.55,2.23s-2.87-2.68-2.23-4.55c0.64-1.86,2.68-2.87,4.55-2.23
			C585.06,267.78,586.05,269.82,585.41,271.69z"/>
		<path class="st1" d="M599.44,282.89c-0.64,1.86-2.68,2.87-4.55,2.23c-1.86-0.64-2.87-2.68-2.23-4.55
			c0.64-1.86,2.68-2.87,4.55-2.23C599.1,278.98,600.08,281.01,599.44,282.89z"/>
		<path class="st1" d="M514.33,213.79c-0.64,1.86-2.68,2.87-4.55,2.21c-1.86-0.64-2.87-2.68-2.21-4.55
			c0.64-1.86,2.68-2.87,4.55-2.21C513.99,209.89,514.97,211.92,514.33,213.79z"/>
		<path class="st1" d="M528.11,224.81c-0.64,1.86-2.68,2.87-4.55,2.21c-1.86-0.64-2.87-2.68-2.21-4.55
			c0.64-1.86,2.68-2.87,4.55-2.21C527.76,220.9,528.76,222.93,528.11,224.81z"/>
		<path class="st1" d="M542.11,236.01c-0.64,1.86-2.68,2.87-4.55,2.21c-1.86-0.64-2.87-2.68-2.21-4.55
			c0.64-1.86,2.68-2.87,4.55-2.21C541.77,232.1,542.77,234.13,542.11,236.01z"/>
		<path class="st1" d="M555.52,246.72c-0.64,1.86-2.68,2.87-4.55,2.21c-1.86-0.64-2.87-2.68-2.21-4.55
			c0.64-1.86,2.68-2.87,4.55-2.21C555.18,242.81,556.16,244.84,555.52,246.72z"/>
		<path class="st1" d="M568.84,257.36c-0.64,1.86-2.68,2.87-4.55,2.21c-1.86-0.64-2.87-2.68-2.21-4.55
			c0.64-1.86,2.68-2.87,4.55-2.21C568.49,253.46,569.49,255.5,568.84,257.36z"/>
		<polygon class="st1" points="737.19,562.52 724.06,570.4 728.33,557.71 717.29,554 730,550.07 732.78,535.06 739.85,546.55 
			756.38,544.84 744.05,554.36 748.1,569.4 		"/>
		<path class="st1" d="M705.57,568.6c-1.45-1.35-1.53-3.62-0.18-5.06c1.35-1.45,3.62-1.53,5.06-0.18c1.45,1.35,1.53,3.62,0.18,5.06
			C709.27,569.87,707.01,569.95,705.57,568.6z"/>
		<path class="st1" d="M689.64,576.84c-1.45-1.35-1.53-3.62-0.18-5.06c1.35-1.45,3.62-1.53,5.06-0.18s1.53,3.62,0.18,5.06
			C693.34,578.12,691.08,578.19,689.64,576.84z"/>
		<path class="st1" d="M893.65,304.89c1.22,1.56,0.95,3.81-0.61,5.02c-1.56,1.22-3.81,0.95-5.02-0.61
			c-1.21-1.56-0.95-3.81,0.61-5.02C890.19,303.06,892.43,303.34,893.65,304.89z"/>
		<path class="st1" d="M911.98,298.76c1.22,1.56,0.95,3.81-0.61,5.02c-1.56,1.22-3.81,0.95-5.02-0.61
			c-1.22-1.56-0.95-3.81,0.61-5.02C908.51,296.93,910.75,297.21,911.98,298.76z"/>
		<polygon class="st1" points="929.16,295.18 918.95,290.15 927.85,288.43 932.08,275.51 934.79,289.44 944.45,292.5 933.69,294.59 
			931.56,302.77 		"/>
		<path class="st1" d="M566.47,518.55c-1.18-1.59-0.85-3.83,0.74-5.01s3.83-0.85,5.01,0.74c1.18,1.59,0.85,3.83-0.74,5.01
			C569.91,520.46,567.66,520.14,566.47,518.55z"/>
		<path class="st1" d="M549.61,523.73c-1.18-1.59-0.85-3.83,0.74-5.01c1.59-1.18,3.83-0.85,5.01,0.74s0.85,3.83-0.74,5.01
			C553.03,525.65,550.79,525.31,549.61,523.73z"/>
		<path class="st1" d="M532.47,529c-1.18-1.59-0.85-3.83,0.74-5.01s3.83-0.85,5.01,0.74c1.18,1.59,0.85,3.83-0.74,5.01
			C535.9,530.9,533.64,530.58,532.47,529z"/>
		<path class="st1" d="M516.07,534.03c-1.18-1.59-0.85-3.83,0.74-5.01c1.59-1.18,3.83-0.85,5.01,0.74c1.18,1.59,0.85,3.83-0.74,5.01
			C519.49,535.94,517.24,535.62,516.07,534.03z"/>
		<path class="st1" d="M499.77,539.04c-1.18-1.59-0.85-3.83,0.74-5.01c1.59-1.18,3.83-0.85,5.01,0.74c1.18,1.59,0.85,3.83-0.74,5.01
			C503.19,540.95,500.95,540.63,499.77,539.04z"/>
		<path class="st1" d="M482.91,544.22c-1.18-1.59-0.85-3.83,0.74-5.01c1.59-1.18,3.83-0.85,5.01,0.74s0.85,3.83-0.74,5.01
			C486.33,546.14,484.08,545.8,482.91,544.22z"/>
		<path class="st1" d="M582.4,513.47c-1.18-1.59-0.85-3.83,0.74-5.01c1.59-1.18,3.83-0.85,5.01,0.74c1.18,1.59,0.85,3.83-0.74,5.01
			C585.82,515.39,583.58,515.06,582.4,513.47z"/>
		<polygon class="st1" points="416.7,486.67 426.98,498.94 410.76,494.08 403.86,501.77 407.45,489.81 393.26,479.64 405.92,483.42 
			411.6,468.32 413.75,477.16 425.08,478.19 		"/>
		<polygon class="st1" points="663,437.31 678.64,440.76 662.84,446.81 662.07,457.12 657.61,445.46 640.16,446.06 652.49,441.34 
			647.76,425.9 654.87,431.59 664.46,425.5 		"/>
		<ellipse class="st1" cx="646.83" cy="464.67" rx="3.58" ry="3.58"/>
		<polygon class="st1" points="745.93,273.27 752.76,287.75 738.31,278.93 729.68,284.62 736.18,273.96 725.03,260.52 
			736.32,267.39 745.64,254.22 745.48,263.33 756.17,267.2 		"/>
		<path class="st1" d="M708.63,284.06c-1.04-1.68-0.53-3.88,1.14-4.92c1.68-1.04,3.88-0.53,4.92,1.14c1.04,1.68,0.53,3.88-1.14,4.92
			C711.89,286.26,709.68,285.74,708.63,284.06z"/>
		<path class="st1" d="M691.87,287.73c-1.04-1.68-0.53-3.88,1.14-4.92c1.68-1.04,3.88-0.53,4.92,1.14c1.04,1.68,0.53,3.88-1.14,4.92
			C695.13,289.92,692.91,289.4,691.87,287.73z"/>
		<path class="st1" d="M675.22,291.36c-1.04-1.68-0.53-3.88,1.14-4.92c1.68-1.04,3.88-0.53,4.92,1.14c1.04,1.68,0.53,3.88-1.14,4.92
			C678.46,293.56,676.26,293.05,675.22,291.36z"/>
		<path class="st1" d="M657.97,295.13c-1.04-1.68-0.53-3.88,1.14-4.92c1.68-1.04,3.88-0.53,4.92,1.14c1.04,1.68,0.53,3.88-1.14,4.92
			C661.22,297.33,659.03,296.82,657.97,295.13z"/>
		<polygon class="st1" points="442.73,544.95 431.95,529.3 448.13,537.57 458.37,525.78 454.71,541.42 472.82,546.76 460.11,549.24 
			464.68,562.34 453.82,557.24 447.43,570.04 446.96,555.67 434.06,558.27 		"/>
		<path class="st1" d="M428.74,514.82c-0.85,1.84-3.03,2.64-4.87,1.79s-2.64-3.03-1.79-4.87s3.03-2.64,4.87-1.79
			C428.78,510.8,429.6,512.97,428.74,514.82z"/>
		<polygon class="st1" points="426.32,593.7 430.46,608.4 416.69,600.1 410.46,610.45 409.96,596.98 399.91,590.93 414.17,590 
			420.28,579.86 423.41,586.03 433.97,588.12 		"/>
	</g>
</g>
</svg>
