<?xml version="1.0" encoding="utf-8"?>
<!-- Generator: Adobe Illustrator 25.3.0, SVG Export Plug-In . SVG Version: 6.00 Build 0)  -->
<svg version="1.1" id="Layer_1" xmlns="http://www.w3.org/2000/svg" xmlns:xlink="http://www.w3.org/1999/xlink" x="0px" y="0px"
	 viewBox="0 0 1920 700" style="enable-background:new 0 0 1920 700;" xml:space="preserve">
<style type="text/css">
	.st0{fill:#1B1D50;}
	.st1{fill:#FFFFFF;}
	.st2{opacity:0.42;fill:#8AD2D0;enable-background:new    ;}
</style>
<rect class="st0" width="1920" height="700"/>
<g id="XMLID_50_">
	<g id="XMLID_54_">
		<g id="XMLID_64_">
			<g id="XMLID_65_">
				<path id="XMLID_66_" class="st1" d="M299.14,272.27c-8.75,0-21.09-2.14-33.04-11.53c-22.49-17.67-27.19-29.2-27.72-43.16
					c-0.52-13.73-0.5-42.64-0.39-64.49c0.06-11.95,0.15-23.08,0.23-31.23c0.04-4.07,0.08-7.4,0.1-9.71
					c0.01-1.08,0.02-2.05,0.06-2.93c-0.01-0.18-0.02-0.37-0.02-0.56h0.05c0.2-2.99,0.9-4.86,3.58-6.49l3.79-2.32l7.76,4.35v4.46
					c0,0.08,0,0.17-0.01,0.25c-0.04,2.98-0.98,82.2,0,108.08c0.32,8.51,2.14,16.25,21.94,31.79c8.07,6.34,16.34,8.08,22.5,8.27
					l-11.55-18.67c-2.21-3.57-1.1-8.24,2.46-10.45c3.57-2.21,8.25-1.1,10.45,2.46l14.76,23.85c2.09,3.37,2.31,7.52,0.6,11.1
					c-1.7,3.57-5.07,6-8.99,6.49C303.88,272.09,301.66,272.27,299.14,272.27z M301.17,262.25h0.01H301.17z"/>
			</g>
		</g>
		<g id="XMLID_61_">
			<g id="XMLID_62_">
				<path id="XMLID_63_" class="st1" d="M140.4,224.89c-4.19,0-7.59-3.4-7.59-7.59V108.67c0-5.69-2.06-9.63-6.31-12.04
					c-6.18-3.51-15.05-2.83-18.43-0.81c-10.42,6.2-13.75,21.35-13.78,21.5c-0.83,4.11-4.84,6.77-8.95,5.93
					c-4.11-0.83-6.76-4.83-5.93-8.95c0.18-0.89,4.58-21.84,20.9-31.53c7.81-4.65,22.55-5.67,33.7,0.67
					c9.02,5.13,13.98,14.09,13.98,25.23V217.3C147.99,221.49,144.59,224.89,140.4,224.89z"/>
			</g>
		</g>
		<g id="XMLID_58_">
			<g id="XMLID_59_">
				<path id="XMLID_60_" class="st1" d="M192.92,224.89c-4.19,0-7.59-3.4-7.59-7.59V109.19c-0.45-2.94-3.48-17.65-19.01-17.65
					c-0.01,0-0.01,0-0.03,0c-13.64,0.01-16.72,7.13-17.03,7.94l0.06-0.19l-14.49-4.53c0.24-0.75,6.05-18.37,31.43-18.4
					c0.01,0,0.03,0,0.05,0c24.06,0,32.82,20.41,34.13,31.32c0.04,0.32,0.06,0.64,0.06,0.98V217.3
					C200.51,221.49,197.11,224.89,192.92,224.89z"/>
			</g>
		</g>
		<g id="XMLID_55_">
			<g id="XMLID_56_">
				<path id="XMLID_57_" class="st1" d="M245.95,117.29c-3.93,0-7.26-3.03-7.56-7.02c-0.3-3.64-2.52-14.22-9.06-19.17
					c-3.75-2.84-8.58-3.64-14.77-2.44c-10.77,2.09-14.56,10.88-14.59,10.97c-1.55,3.9-5.96,5.79-9.86,4.25
					c-3.9-1.55-5.79-5.96-4.25-9.86c0.27-0.67,6.8-16.58,25.81-20.25c10.56-2.04,19.62-0.26,26.91,5.31
					c13.3,10.15,14.88,29.26,14.94,30.06c0.32,4.18-2.82,7.83-7,8.14C246.33,117.28,246.14,117.29,245.95,117.29z"/>
			</g>
		</g>
	</g>
	<g id="XMLID_51_">
		<g id="XMLID_52_">
			<path id="XMLID_53_" class="st1" d="M283.19,294.44c-1.93,0-3.87-0.74-5.35-2.21c-2.98-2.96-2.99-7.76-0.04-10.73l25.05-25.21
				c2.95-2.98,7.76-2.99,10.73-0.04c2.98,2.96,2.99,7.76,0.04,10.73l-25.05,25.21C287.09,293.7,285.15,294.44,283.19,294.44z"/>
		</g>
	</g>
</g>
<g>
	<g>
		<g>
			<g>
				<path class="st2" d="M654,495.63c-3.34,0-6.82-0.15-10.43-0.49c-23.21-2.13-64.06-12.82-104.06-27.23
					c-42.78-15.41-73.94-31.23-83.35-42.29c-21.15-24.85-27.69-39.77-24.77-79.18l0.01-0.11l0.04-0.1
					c0.07-0.15,7.36-14.75,23.91-15.96c16.11-1.17,25.66,4.34,26.39,4.77c1.05,0.48,27.49,12.28,52.72,15.16
					c4.6,0.53,13.38,0.5,24.53,0.48c52.14-0.11,160.59-0.36,183.93,53.07c0.06,0.14,3.72,10.29,4.84,22.01
					c1.48,15.62-2.27,26.91-10.82,32.61c-3.66,2.45-7.45,5.34-11.47,8.42C708.48,479.77,687.71,495.63,654,495.63z M432.53,346.65
					c-2.87,38.91,3.62,53.67,24.52,78.23c9.29,10.92,40.26,26.6,82.86,41.95c39.91,14.39,80.65,25.05,103.78,27.17
					c39.54,3.64,62.57-13.98,81.07-28.12c4.03-3.08,7.85-6,11.54-8.46c19.87-13.27,5.71-52.83,5.57-53.24
					c-23.03-52.71-130.97-52.46-182.85-52.35c-11.17,0.03-20.01,0.04-24.67-0.49c-25.8-2.95-52.82-15.15-53.1-15.27l-0.06-0.03
					c-0.1-0.06-9.72-5.79-25.73-4.62C440.23,332.53,433.17,345.41,432.53,346.65z"/>
			</g>
			<g>
				<path class="st2" d="M709.78,478.26c3.29,2.27,7.2,3.5,11.19,3.5c4.1,0,7.92-1.43,11.41-3.47c3.48-2.03,7.08-4.42,9.92-7.31
					c2.34-2.39,4.13-5.43,4.01-8.87c-0.11-3.29-1.79-6.48-5.02-7.57c-0.7-0.24-1.01,0.87-0.31,1.12c3.68,1.26,4.84,5.8,3.83,9.23
					c-1.26,4.31-5.29,7.22-8.78,9.65c-3.8,2.64-7.86,5.23-12.53,5.89c-4.62,0.64-9.3-0.55-13.13-3.17
					C709.73,476.85,709.16,477.84,709.78,478.26L709.78,478.26z"/>
			</g>
			<g>
				<path class="st2" d="M741.19,453.93c2.17,3.16,6.34,4.31,9.94,3.19c4.07-1.26,6.8-5.16,7.79-9.16c1.29-5.17,0.13-11.1-1.76-16
					c-1.58-4.07-4.68-7.83-9.36-7.99c-0.74-0.03-0.74,1.13,0,1.16c4.53,0.14,7.26,4.17,8.59,8.07c1.45,4.28,2.45,9.1,1.61,13.61
					c-0.67,3.61-2.78,7.24-6.22,8.82c-3.23,1.5-7.52,0.73-9.59-2.29C741.77,452.74,740.77,453.33,741.19,453.93L741.19,453.93z"/>
			</g>
			<g>
				<path class="st2" d="M725.34,481.34c5.31,3.34,11.57,4.87,17.83,4.7c5.66-0.15,12.7-1.31,16.43-6.01
					c0.29-0.38,0.14-0.99-0.41-0.98c-6.35,0.03-13.51-2.28-15.69-8.91c-0.24-0.7-1.34-0.41-1.12,0.31c2.35,7.13,9.9,9.78,16.81,9.75
					c-0.14-0.32-0.27-0.66-0.41-0.98c-3.65,4.57-10.6,5.62-16.11,5.69c-5.9,0.08-11.75-1.4-16.75-4.55
					C725.29,479.94,724.71,480.93,725.34,481.34L725.34,481.34z"/>
			</g>
			<g>
				<path class="st2" d="M755.9,453.55c4.7,2.22,6.31,7.36,7.62,12.01c0.11,0.42,0.66,0.56,0.96,0.25c2.04-1.99,2.87-4.71,3.24-7.47
					c0.45-3.22,0.49-6.52-0.04-9.72c-0.99-6.07-4.49-11.2-9.85-14.28c-0.64-0.36-1.23,0.63-0.59,0.99
					c4.94,2.82,8.18,7.48,9.22,13.05c0.56,2.98,0.56,6.07,0.2,9.09c-0.32,2.74-0.98,5.54-3.02,7.52c0.32,0.08,0.64,0.17,0.96,0.25
					c-1.38-4.92-3.17-10.33-8.15-12.7C755.82,452.24,755.23,453.24,755.9,453.55L755.9,453.55z"/>
			</g>
			<g>
				<path class="st2" d="M727.06,384.24c6.74-2.63,13.09-6.59,18.32-11.61c2.57-2.48,4.91-5.29,6.57-8.46
					c1.64-3.15,2.71-6.57,4.13-9.82c1.64-3.76,3.71-7.41,7.27-9.66c-0.29-0.17-0.57-0.34-0.87-0.5c-0.17,2.45,1.44,4.46,3.51,5.59
					c2.91,1.61,6.24,0.99,9.3,1.97c1.27,0.41,1.94,1.02,1.37,2.32c-0.31,0.7-0.81,1.3-1.3,1.86c-0.91,1.03-1.8,2-2.5,3.19
					c-1.4,2.36-2.13,5.06-2.57,7.75c-1.09,6.46-1.16,13.05-2.41,19.49c-1.2,6.25-3.26,12.36-6.84,17.68
					c-3.69,5.48-8.96,9.82-15.59,10.98c-0.73,0.13-0.42,1.24,0.31,1.12c12.07-2.13,19.24-13.89,22.18-24.87
					c1.8-6.75,2.29-13.69,2.99-20.61c0.32-3.17,0.8-6.45,2.11-9.4c0.64-1.45,1.51-2.74,2.57-3.93c0.8-0.88,1.68-1.78,2.15-2.91
					c1.43-3.36-2.55-3.97-4.94-4.27c-3.48-0.42-9.54-1.15-9.2-6c0.03-0.43-0.52-0.73-0.87-0.5c-7.78,4.92-8.39,14.88-13.06,22.04
					c-5.22,8.03-14.14,13.97-22.94,17.41C726.07,383.39,726.36,384.51,727.06,384.24L727.06,384.24z"/>
			</g>
			<g>
				<path class="st2" d="M777.95,351.95c7.86-3.89,6.87-14.22,8.52-21.44c0.5-2.21,1.17-4.38,1.99-6.49
					c0.81-2.1,1.92-4.11,2.45-6.29c0.41-1.64,0.48-3.4-0.1-4.99c-0.6-1.69-1.83-2.69-3.31-3.59c-3.57-2.18-5.01-5.72-7.47-8.91
					c-1.92-2.49-5.22-4.87-8.53-4c-2.95,0.77-4.15,3.65-4.45,6.42c-0.43,3.94,0.21,8.01,0.14,11.99
					c-0.21,10.68-2.03,21.27-3.96,31.76c-0.14,0.73,0.98,1.03,1.12,0.31c1.47-7.99,2.85-16,3.57-24.1
					c0.36-4.18,0.55-8.38,0.42-12.57c-0.1-3.09-0.69-6.46,0.32-9.45c0.53-1.59,1.66-2.94,3.37-3.29c2.08-0.43,4.21,0.76,5.71,2.11
					c2.49,2.25,3.72,5.54,5.89,8.06c1.09,1.26,2.35,2.04,3.72,2.92c2.03,1.3,2.92,3.13,2.73,5.55c-0.15,2-1.05,3.86-1.83,5.66
					c-0.77,1.78-1.47,3.58-2.03,5.44c-1.33,4.36-1.61,8.8-2.38,13.27c-0.73,4.22-2.38,8.61-6.45,10.63
					C776.71,351.28,777.28,352.27,777.95,351.95L777.95,351.95z"/>
			</g>
			<g>
				<path class="st2" d="M776.55,298.21c4.41-2.71,10.2-2.15,15.16-2.17c5.26-0.01,10.64-0.2,15.87,0.32
					c2.52,0.25,4.68,1.16,5.41,3.8c0.55,2.01,0.66,4.38,0.57,6.46c-0.1,2.38-0.81,4.82-2.95,6.15c-1.96,1.22-4.43,1.01-6.59,0.59
					c-2.49-0.49-4.89-1.33-7.36-1.93c-2.53-0.62-5.09-0.95-7.69-1.05c-0.74-0.03-0.74,1.13,0,1.16c2.92,0.1,5.76,0.56,8.6,1.31
					c2.46,0.66,4.88,1.48,7.4,1.83c4.61,0.63,8.7-1.33,9.55-6.2c0.41-2.35,0.18-4.8-0.14-7.13c-0.29-2.1-1.01-4.07-2.96-5.15
					c-1.92-1.05-4.22-1.08-6.35-1.13c-3.29-0.11-6.57-0.17-9.86-0.2c-3.55-0.03-7.12-0.07-10.66,0.1c-2.99,0.14-5.97,0.63-8.56,2.22
					C775.35,297.59,775.93,298.6,776.55,298.21L776.55,298.21z"/>
			</g>
			<g>
				<path class="st2" d="M810.36,314.33c2.48,5.16,6.14,9.69,10.68,13.17c4.99,3.82,10.82,5.96,16.88,7.43
					c6.78,1.65,13.62,2.92,20.31,4.99c3.44,1.06,6.85,2.25,10.21,3.55c2.95,1.15,5.92,2.38,8.56,4.14c2.77,1.85,4.8,4.29,6.35,7.22
					c1.45,2.73,2.55,5.64,4.18,8.27c3.1,4.98,7.99,8.49,13.23,10.96c5.82,2.74,12.08,4.24,18.21,6.1c6.1,1.83,11.92,4.18,17.12,7.9
					c10.5,7.48,17.87,19.1,20.07,31.83c0.04,0.24,0.32,0.43,0.56,0.42c2.57-0.18,4.45-2.21,5.08-4.64c0.84-3.24-0.63-6.54-1.58-9.59
					c-2.15-6.95-2.73-14.24-3.27-21.45c-0.53-6.95-0.99-13.97-2.82-20.73c-1.75-6.48-4.92-12.32-9.34-17.37
					c-4.43-5.05-9.78-9.2-15.24-13.08c-5.97-4.22-12.04-8.45-18.45-12c-6.63-3.68-13.59-6.15-21.08-7.4
					c-7.76-1.29-15.65-1.76-23.45-2.81c-17.8-2.41-35.41-6.24-52.71-11.05c-0.71-0.2-1.02,0.91-0.31,1.12
					c14.66,4.08,29.52,7.44,44.56,9.85c7.24,1.16,14.52,2.01,21.82,2.77c7.54,0.78,15.1,1.76,22.21,4.53
					c6.82,2.66,13.06,6.63,19.12,10.7c5.58,3.76,11.22,7.52,16.32,11.92c4.89,4.21,9.33,9.05,12.29,14.84
					c3.15,6.13,4.45,12.96,5.17,19.76c0.81,7.5,0.98,15.06,2.2,22.52c0.63,3.85,1.71,7.47,2.85,11.17c0.59,1.92,1.12,4,0.62,6
					c-0.48,1.89-1.92,3.65-3.96,3.79c0.18,0.14,0.38,0.28,0.56,0.42c-1.89-10.95-7.57-21.09-15.75-28.59
					c-4.11-3.78-8.82-6.84-13.96-9.02c-6.36-2.71-13.16-4.14-19.7-6.34c-5.79-1.93-11.57-4.57-15.96-8.92
					c-2.29-2.28-3.93-4.95-5.31-7.86c-1.31-2.74-2.5-5.58-4.38-8.01c-3.73-4.85-9.73-7.12-15.27-9.19
					c-6.64-2.49-13.47-4.49-20.4-6.01c-7.36-1.62-14.96-2.94-21.52-6.85c-5.93-3.54-10.67-8.82-13.65-15.05
					C811.03,313.09,810.03,313.66,810.36,314.33L810.36,314.33z"/>
			</g>
			<g>
				<path class="st2" d="M859.47,340.55c5.57,7.01,6.5,16.4,8.91,24.74c2.38,8.29,5.59,16.35,9.55,24.01
					c3.99,7.75,8.75,15.09,14.18,21.9c5.33,6.68,11.29,13.02,18.08,18.24c7.47,5.73,16.18,10.01,25.7,10.5
					c0.56,0.03,0.69-0.63,0.41-0.98c-5.8-7.44-17.83-9.17-20.05-19.37c-0.98-4.5-0.32-9.62-2.62-13.79
					c-1.13-2.06-2.92-3.26-4.99-4.25c-1.24-0.6-2.59-1.15-3.58-2.14c-1.2-1.19-1.69-2.85-2.04-4.46
					c-1.57-7.15-2.21-14.56-2.46-21.86c-0.03-0.74-1.17-0.74-1.16,0c0.22,6.53,0.84,13.06,1.99,19.51c0.46,2.62,0.85,5.68,2.85,7.62
					c1.99,1.93,4.92,2.36,6.92,4.25c3.71,3.5,2.98,9.64,3.73,14.24c0.78,4.74,3.3,8.2,7.13,11.01c4.52,3.3,9.92,5.54,13.43,10.06
					c0.14-0.32,0.27-0.66,0.41-0.98c-17.5-0.9-31.58-14.43-42.04-27.27c-10.98-13.47-19.26-29.16-24.15-45.84
					c-2.57-8.78-3.54-18.57-9.41-25.96C859.82,339.15,859.01,339.97,859.47,340.55L859.47,340.55z"/>
			</g>
			<g>
				<path class="st2" d="M689.57,364.43c1.43-4.74,3.16-9.4,4.81-14.07c0.8-2.28,1.59-4.56,2.29-6.87c0.62-2,1.27-4.64,3.22-5.79
					c2.14-1.27,4.01,0.56,5.4,2.01c1.19,1.23,2.41,2.53,4.1,3.06c1.05,0.32,2.66,0.24,2.89,1.51c0.21,1.08-0.73,2.73-1.13,3.72
					c-0.96,2.38-2.07,4.7-3.13,7.03c-2.11,4.68-4.35,9.65-4.46,14.87c-0.01,0.74,1.13,0.74,1.16,0c0.13-5.64,2.8-10.99,5.09-16.03
					c1.08-2.36,2.18-4.73,3.08-7.16c0.74-2.01,1.05-3.9-1.37-4.64c-1.12-0.35-2.2-0.43-3.19-1.13c-0.92-0.64-1.68-1.52-2.46-2.32
					c-1.24-1.27-2.7-2.57-4.6-2.52c-4.55,0.14-5.54,6.66-6.64,9.94c-2.01,6.03-4.35,11.96-6.18,18.05
					C688.25,364.83,689.36,365.14,689.57,364.43L689.57,364.43z"/>
			</g>
			<g>
				<path class="st2" d="M703.57,337.18c3.99-1.86,8.96-1.58,13.01-0.01c5.16,2.01,7.33,6.82,9.51,11.57
					c1.3,2.84,2.55,5.69,3.71,8.59c0.94,2.32,2.45,5.08,2.42,7.64c-0.04,3.75-3.96,3.16-6.47,2.34c-1.2-0.41-2.46-0.92-3.31-1.9
					c-0.98-1.12-1.09-2.71-1.64-4.04c-1.92-4.63-6.84-7.03-9.06-11.47c-0.34-0.66-1.33-0.08-0.99,0.59
					c1.22,2.41,3.16,4.25,5.05,6.13c0.94,0.92,1.87,1.87,2.64,2.94c0.96,1.31,1.45,2.71,1.93,4.27c0.78,2.55,2.62,3.8,5.06,4.62
					c2.2,0.73,5.2,1.44,6.96-0.55c1.58-1.78,0.91-4.49,0.2-6.48c-1.17-3.26-2.53-6.48-3.92-9.65c-2.31-5.27-4.53-11.9-9.92-14.81
					c-4.67-2.52-10.92-2.99-15.77-0.73C702.32,336.5,702.9,337.5,703.57,337.18L703.57,337.18z"/>
			</g>
			<g>
				<path class="st2" d="M725.19,368.09c0.69,4.75,2.57,9.22,5.5,13.02c0.45,0.59,1.45,0,0.99-0.59c-2.88-3.75-4.7-8.08-5.38-12.75
					C726.2,367.05,725.08,367.36,725.19,368.09L725.19,368.09z"/>
			</g>
			<g>
				<path class="st2" d="M732.88,365.77c1.89,1.06,3.36,2.91,4.53,4.68c1.15,1.72,2.25,3.65,2.53,5.72c0.1,0.73,1.22,0.42,1.12-0.31
					c-0.32-2.29-1.58-4.48-2.88-6.34c-1.26-1.82-2.77-3.66-4.73-4.75C732.81,364.41,732.22,365.4,732.88,365.77L732.88,365.77z"/>
			</g>
			<g>
				<path class="st2" d="M644.61,355.14c0.15-5.19,1.02-10.29,2.69-15.22c0.83-2.46,1.75-4.98,2.98-7.27
					c0.55-1.02,1.3-2.21,2.39-2.7c1.38-0.63,2.48,0.17,3.47,1.08c1.44,1.31,2.55,1.97,4.49,2.28c1.47,0.24,2.7,0.55,2.32,2.43
					c-0.28,1.37-0.76,2.73-1.12,4.07c-1.57,5.65-3.15,11.3-4.71,16.96c-0.2,0.71,0.91,1.02,1.12,0.31
					c1.47-5.29,2.94-10.56,4.41-15.84c0.36-1.3,0.73-2.6,1.08-3.89c0.27-0.94,0.66-2,0.45-2.98c-0.32-1.48-1.72-1.93-3.05-2.14
					c-0.92-0.14-1.83-0.22-2.64-0.71c-0.87-0.53-1.51-1.37-2.31-1.99c-1.2-0.94-2.67-1.29-4.08-0.57c-1.5,0.77-2.48,2.36-3.16,3.83
					c-1.02,2.14-1.9,4.36-2.67,6.6c-1.73,5.09-2.66,10.39-2.81,15.76C643.43,355.88,644.58,355.88,644.61,355.14L644.61,355.14z"/>
			</g>
			<g>
				<path class="st2" d="M657.31,330.34c1.36-2.78,5.29-2.29,7.2-0.42c2.53,2.49,2.99,6.6,3.71,9.92c1.4,6.56,3.01,13.22,3.57,19.9
					c0.06,0.74,1.22,0.74,1.16,0c-0.29-3.51-0.95-6.99-1.61-10.45c-0.88-4.63-1.76-9.3-2.91-13.86c-0.78-3.1-2.17-6.64-5.44-7.82
					c-2.41-0.87-5.47-0.32-6.67,2.14C655.99,330.41,656.98,331,657.31,330.34L657.31,330.34z"/>
			</g>
			<g>
				<path class="st2" d="M586.14,351.18c2.03-4.01,4.07-8.04,6.1-12.05c0.94-1.85,1.72-4.08,3.09-5.66
					c1.68-1.93,3.52-0.53,5.57-0.34c1.58,0.15,4.52-0.8,5.44,0.99c0.9,1.73-0.81,3.99-1.73,5.36c-2.59,3.83-5.16,7.66-7.75,11.5
					c-0.42,0.62,0.59,1.19,0.99,0.59c1.65-2.45,3.3-4.89,4.94-7.34c1.38-2.06,3.05-4.1,4.14-6.34c0.69-1.41,1.2-3.24,0.2-4.66
					c-1.05-1.47-2.89-1.37-4.49-1.26c-1.33,0.08-2.42-0.14-3.69-0.48c-0.85-0.22-1.72-0.38-2.59-0.11
					c-1.71,0.53-2.63,2.29-3.38,3.78c-2.62,5.15-5.22,10.32-7.82,15.47C584.81,351.27,585.8,351.85,586.14,351.18L586.14,351.18z"/>
			</g>
			<g>
				<path class="st2" d="M600.36,332.15c1.68-2.04,4.8-1.08,6.34,0.66c1.8,2.03,2.36,4.87,3.51,7.27c2.15,4.52,6.46,7.78,7.58,12.81
					c0.15,0.73,1.27,0.42,1.12-0.31c-0.64-2.91-2.29-5.29-4.07-7.62c-2.03-2.66-3.57-5.2-4.78-8.32c-0.95-2.42-2.08-4.96-4.55-6.15
					c-1.97-0.95-4.48-0.95-5.94,0.85C599.07,331.91,599.88,332.72,600.36,332.15L600.36,332.15z"/>
			</g>
			<g>
				<path class="st2" d="M601.67,344.75c0.22,2.63,0.88,5.12,2,7.51c0.31,0.67,1.31,0.08,0.99-0.59c-1.02-2.2-1.64-4.5-1.85-6.92
					C602.78,344.01,601.62,344.01,601.67,344.75L601.67,344.75z"/>
			</g>
			<g>
				<path class="st2" d="M539.66,350.18c0.36-4.03,0.71-8.07,1.08-12.1c0.18-2.01,0.38-4.28,1.79-5.86c1.61-1.79,3.4-1.27,5.44-0.7
					c0.69,0.2,1.36,0.34,2.07,0.32c0.7-0.01,2.27-0.48,2.85,0.04c0.88,0.78,0.6,2.35,0.55,3.36c-0.06,1.05-0.11,2.1-0.17,3.15
					c-0.22,4.11-0.45,8.21-0.69,12.32c-0.04,0.74,1.12,0.74,1.16,0c0.28-5.16,0.57-10.31,0.85-15.47c0.08-1.61,0.39-3.8-1.48-4.52
					c-0.78-0.29-1.61-0.15-2.42-0.08c-1.22,0.1-2.24-0.18-3.38-0.53c-3.87-1.16-6.6,1.33-7.36,5.08c-0.46,2.27-0.52,4.63-0.73,6.92
					c-0.24,2.69-0.48,5.38-0.73,8.07C538.43,350.9,539.59,350.9,539.66,350.18L539.66,350.18z"/>
			</g>
			<g>
				<path class="st2" d="M546.29,331.04c1.99-1.1,4.28-1.92,6.59-1.76c2.99,0.2,4.66,2.31,5.52,5.01
					c1.76,5.55,3.06,11.29,4.56,16.91c0.2,0.71,1.3,0.41,1.12-0.31c-0.94-3.5-1.87-7.01-2.82-10.5c-0.8-2.96-1.27-6.43-2.91-9.08
					c-2.81-4.53-8.67-3.44-12.64-1.24C545.06,330.4,545.65,331.39,546.29,331.04L546.29,331.04z"/>
			</g>
			<g>
				<path class="st2" d="M692.62,486.91c0.57,8.63-6.52,14.66-13.47,18.29c-6.59,3.44-13.61,5.94-20.33,9.08
					c-6.42,2.98-12.7,6.54-17.69,11.62c-0.57,0.59-2.13,2.92-3.2,1.61c-0.62-0.76-0.24-2.1-0.28-3.01
					c-0.08-1.76-1.12-3.12-2.36-4.28c-2.62-2.45-5.79-4.36-9.1-5.72c-0.46-0.2-0.94-0.36-1.41-0.53c-0.42-0.15-1.62-0.29-1.92-0.6
					c-0.41-0.42-0.14-1.45,0.04-1.86c0.25-0.56,0.63-1.08,0.96-1.58c1.16-1.75,2.43-3.41,3.66-5.12c2.46-3.4,4.87-6.96,5.9-11.09
					c0.18-0.73-0.94-1.03-1.12-0.31c-1.05,4.2-3.57,7.78-6.07,11.22c-1.23,1.69-2.49,3.36-3.62,5.1c-0.7,1.08-1.76,2.82-0.98,4.15
					c0.39,0.66,1.17,0.66,1.87,0.88c1.15,0.36,2.28,0.8,3.37,1.3c2.03,0.92,3.97,2.08,5.73,3.45c1.96,1.51,3.9,3.1,3.85,5.78
					c-0.03,1.44,0.01,3.16,1.58,3.83c1.48,0.64,2.36-0.78,3.24-1.73c1.36-1.44,2.82-2.78,4.38-4.01c3.19-2.55,6.74-4.63,10.38-6.46
					c7.2-3.65,14.85-6.35,22.11-9.9c7.85-3.85,16.28-10.33,15.62-20.08C693.72,486.16,692.56,486.16,692.62,486.91L692.62,486.91z"
					/>
			</g>
			<g>
				<path class="st2" d="M636.54,523.29c-7.69,4.1-14.6,10.08-15.83,19.19c-0.34,2.46-0.29,4.96-0.03,7.43
					c0.25,2.27,0.88,4.5,1.09,6.77c0.1,1.03,0.11,2.21-0.36,3.16c-0.71,1.43-2.24,1.76-3.71,1.82c-2.43,0.08-4.88-0.31-7.3-0.48
					c-2.27-0.15-4.59-0.15-6.78,0.5c-2.21,0.67-3.93,2.08-5.72,3.48c-2.25,1.76-5.22,3.45-7.9,1.54c-1.92-1.36-3.13-3.69-4.38-5.64
					c-1.45-2.28-2.87-4.63-3.87-7.15c-0.92-2.31-2.03-5.44-1.27-7.9c0.76-2.49,3.48-4.36,5.48-5.83c2.14-1.58,4.41-2.96,6.66-4.36
					c10.89-6.8,21.8-13.58,32.7-20.36c0.63-0.39,0.06-1.38-0.59-0.99c-10.49,6.53-20.98,13.06-31.47,19.59
					c-2.45,1.52-4.91,3.01-7.26,4.67c-1.99,1.41-4.1,2.94-5.58,4.89c-2.95,3.9-0.42,9.76,1.55,13.55c1.23,2.36,2.7,4.62,4.17,6.84
					c1.13,1.69,2.41,3.5,4.35,4.31c5.12,2.15,8.7-3.89,12.95-5.38c5.16-1.82,10.5,0.69,15.71-0.28c4.7-0.87,3.86-5.85,3.2-9.34
					c-1.19-6.21-1.2-12.82,2.21-18.38c2.95-4.8,7.68-8.07,12.56-10.67C637.78,523.95,637.2,522.94,636.54,523.29L636.54,523.29z"/>
			</g>
			<g>
				<path class="st2" d="M632.64,577.09c3.16-10.06,14.7-13.26,24.05-13.79c5.89-0.34,11.82-0.03,17.68-0.77
					c5.62-0.71,11.09-2.24,16.53-3.75c5.68-1.58,11.37-2.99,17.2-3.82c6.06-0.87,12.18-1.26,18.29-1.5
					c11.34-0.43,22.85-0.91,34.17,0.08c6.21,0.55,12.4,1.66,18.29,3.75c5.36,1.9,11.23,4.6,13.75,10.04
					c0.17-0.29,0.34-0.57,0.5-0.87c-3.72,0.14-7.23-1.5-10.78-2.39c-2.87-0.71-5.78-1.22-8.71-1.54c-6.13-0.67-12.33-0.48-18.4,0.52
					c-12.22,1.97-23.94,7.23-33.35,15.33c-9.43,8.11-16.35,18.85-26.45,26.22c-5.54,4.04-11.9,6.6-18.74,7.3
					c-7.13,0.73-14.33-0.39-21.08-2.77c-7.52-2.66-14.49-6.82-20.85-11.62c-3.02-2.28-6.28-5.12-6.78-9.09
					c-0.56-4.32,2.18-8.25,4.53-11.61c0.43-0.62-0.57-1.19-0.99-0.59c-2.04,2.91-4.15,6.06-4.66,9.66
					c-0.41,2.91,0.52,5.66,2.31,7.96c1.99,2.55,4.68,4.46,7.29,6.31c3.01,2.14,6.13,4.11,9.37,5.86c12.45,6.68,27.63,9.94,41.19,4.6
					c11.94-4.7,19.9-15.23,28.4-24.31c4.49-4.8,9.31-9.2,14.91-12.71c5.59-3.5,11.69-6.14,18.05-7.87
					c7.17-1.96,14.66-2.74,22.07-2.29c3.76,0.22,7.5,0.78,11.15,1.66c3.8,0.92,7.57,2.69,11.54,2.53c0.46-0.01,0.69-0.48,0.5-0.87
					c-2.06-4.45-6.32-7.19-10.67-9.09c-5.16-2.25-10.64-3.68-16.21-4.53c-11.62-1.79-23.49-1.3-35.2-0.99
					c-12.47,0.32-24.84,1.2-36.93,4.43c-5.94,1.58-11.85,3.44-17.93,4.46c-6.24,1.05-12.56,0.77-18.85,1.05
					c-10.22,0.46-22.81,3.65-26.29,14.68C631.31,577.5,632.41,577.81,632.64,577.09L632.64,577.09z"/>
			</g>
			<g>
				<path class="st2" d="M714.8,587c5.37,0.66,10.77,1.15,16.17,1.47c2.7,0.17,5.4,0.28,8.11,0.35c2.35,0.07,4.8,0.27,7.13-0.17
					c2.2-0.41,3.64-1.71,5.51-2.77c1.45-0.83,2.45-0.64,3.93-0.01c0.74,0.32,1.45,0.55,2.28,0.46c1.38-0.14,2.56-0.78,4-0.76
					c1.26,0.03,2.5,0.32,3.76,0.45c2.13,0.21,4.28,0.15,6.39-0.15c4.91-0.69,9.48-2.69,13.38-5.72c-0.32-0.08-0.64-0.17-0.96-0.25
					c0.95,3.82-3.23,5.92-6.06,7.26c-3.06,1.45-6.25,2.62-9.5,3.59c-6.21,1.87-12.57,3.09-18.92,4.41
					c-13.1,2.73-25.86,6.84-38.86,9.94c-7.52,1.79-15.15,3.19-22.88,3.64c-0.74,0.04-0.74,1.2,0,1.16
					c14.4-0.84,28.29-4.91,42.14-8.73c6.85-1.89,13.73-3.62,20.7-5.06c6.85-1.41,13.75-2.74,20.4-4.96c3.48-1.16,7.05-2.5,10.2-4.39
					c2.53-1.51,4.67-4.03,3.89-7.16c-0.11-0.46-0.64-0.5-0.96-0.25c-3.59,2.81-7.89,4.66-12.39,5.36c-2.24,0.35-4.55,0.41-6.8,0.15
					c-1.17-0.13-2.34-0.39-3.52-0.42c-1.2-0.03-2.17,0.32-3.31,0.59c-2.11,0.5-3.69-1.29-5.8-0.83c-1.92,0.42-3.3,2.03-5.06,2.8
					c-2.32,1.01-5.03,0.77-7.51,0.71c-2.62-0.06-5.22-0.17-7.82-0.31c-5.89-0.32-11.76-0.84-17.61-1.55
					C714.06,585.75,714.06,586.91,714.8,587L714.8,587z"/>
			</g>
			<g>
				<path class="st2" d="M594.92,567.68c3.89,5.09,8.28,9.78,13.17,13.91c4.64,3.93,9.83,7.99,15.59,10.1
					c1.38,0.52,2.82,0.88,4.29,1.03c1.09,0.13,2.73,0.35,3.72-0.25c0.87-0.53,0.83-1.43,0.6-2.29c-0.43-1.73-0.73-3.23-0.35-5.02
					c0.66-3.2,2.6-5.89,4.74-8.28c1.64-1.83,2.55-3.92,0.96-6.13c-1.85-2.6-5.26-2.76-8.07-3.48c-3.71-0.98-7.15-2.74-10.14-5.13
					c-0.57-0.46-1.4,0.35-0.81,0.81c2.08,1.66,4.35,3.06,6.81,4.11c2.41,1.02,4.89,1.48,7.41,2.13c1.47,0.38,2.92,0.95,3.85,2.22
					c1.31,1.85,0.35,3.38-0.96,4.82c-1.62,1.79-3.06,3.73-4.01,5.96c-0.95,2.21-1.41,4.66-0.88,7.03c0.1,0.42,0.63,1.44,0.49,1.86
					c-0.22,0.73-1.76,0.59-2.34,0.56c-1.54-0.07-3.05-0.41-4.5-0.91c-5.51-1.89-10.54-5.8-14.98-9.48
					c-5.03-4.2-9.59-8.96-13.57-14.17C595.46,566.51,594.47,567.08,594.92,567.68L594.92,567.68z"/>
			</g>
			<g>
				<path class="st2" d="M613.2,489.52c-0.11,5.16-5.26,8.38-9.47,10.18c-2.62,1.12-5.27,2.18-7.99,3.03
					c-1.3,0.41-2.78,0.83-4.14,0.42c-1.4-0.42-1.99-1.71-2.74-2.82c-1.23-1.83-2.84-3.4-4.7-4.59c-1.75-1.12-3.97-1.5-5.61-2.76
					c-0.55-0.42-1.26-1.02-0.63-1.71c0.41-0.45,1.5-0.76,2.04-1.03c1.15-0.57,2.31-1.13,3.47-1.71c2.67-1.3,5.34-2.59,7.99-3.94
					c0.66-0.34,0.08-1.34-0.59-0.99c-2.48,1.27-4.98,2.49-7.5,3.71c-1.15,0.56-2.31,1.12-3.45,1.69c-0.59,0.29-1.17,0.59-1.76,0.88
					c-0.42,0.21-1.22,0.43-1.5,0.87c-0.73,1.16,0.49,2.6,1.36,3.23c1.64,1.17,3.69,1.58,5.41,2.64c2.22,1.37,3.76,3.23,5.19,5.38
					c1.05,1.59,2.45,2.5,4.41,2.45c2.28-0.06,4.52-1.08,6.61-1.86c2.35-0.88,4.74-1.78,6.98-2.91c3.82-1.94,7.69-5.61,7.79-10.17
					C614.37,488.78,613.21,488.78,613.2,489.52L613.2,489.52z"/>
			</g>
			<g>
				<path class="st2" d="M577.59,492.74c-9.73,0.98-19.44,2.17-29.12,3.58c-4.81,0.7-9.64,1.38-14.42,2.28
					c-2.8,0.53-6.27,1.51-7.66,4.27c-0.84,1.64-0.62,3.45-0.14,5.16c0.64,2.28,1.43,4.53,2.15,6.78c0.56,1.73,0.95,3.83,2.32,5.15
					c0.99,0.94,2.32,1.33,3.66,1.37c3.93,0.13,7.92-2.08,11.5-3.44c4.5-1.69,9.02-3.34,13.57-4.92c10.24-3.55,20.61-6.71,31.19-9.06
					c0.73-0.15,0.42-1.27-0.31-1.12c-16.92,3.75-33.3,9.57-49.45,15.77c-2.82,1.09-7.75,3.16-9.9-0.13
					c-1.09-1.65-1.47-3.99-2.06-5.86c-0.69-2.15-1.79-4.53-1.93-6.81c-0.25-4.01,4-5.4,7.2-6.01c4.27-0.83,8.59-1.41,12.87-2.06
					c10.15-1.51,20.33-2.77,30.54-3.79C578.32,493.83,578.33,492.67,577.59,492.74L577.59,492.74z"/>
			</g>
			<g>
				<path class="st2" d="M525.78,506.01c-5.38,7.61-6.11,17.36-4.63,26.32c1.79,10.75,6.29,20.92,9.31,31.35
					c1.58,5.44,2.89,10.95,4.14,16.47c0.62,2.74,2.18,6.96,5.82,6.01c4.8-1.24,3.54-7.19,2.63-10.6c-1.43-5.37-2.6-10.8-3.54-16.26
					c-2.11-12.47-2.89-25.17-2.38-37.82c0.03-0.74-1.12-0.74-1.16,0c-0.41,10.07,0,20.15,1.24,30.15c0.62,4.91,1.43,9.79,2.43,14.63
					c0.52,2.49,1.09,4.96,1.71,7.43c0.6,2.38,1.64,4.94,1.48,7.41c-0.14,2.34-2.53,5.38-4.96,3.41c-1.51-1.22-1.9-3.44-2.29-5.23
					c-1.09-4.98-2.32-9.93-3.71-14.84c-2.71-9.52-6.57-18.75-8.82-28.4c-2.29-9.85-2.36-20.89,3.69-29.47
					C527.2,505.98,526.21,505.41,525.78,506.01L525.78,506.01z"/>
			</g>
			<g>
				<path class="st2" d="M537.02,585.37c-0.84,2.41-2.59,4.07-4.31,5.85c-1.58,1.64-3.01,3.43-4.07,5.45
					c-1.02,1.94-1.71,4.13-1.48,6.34c0.07,0.64,0.07,1.15,0.59,1.51c0.73,0.49,2.03,0.41,2.82,0.24c2.06-0.43,3.8-1.99,5.19-3.48
					c1.54-1.68,2.99-3.51,4.36-5.33c2.67-3.52,4.45-7.41,3.12-11.86c-0.21-0.71-1.33-0.41-1.12,0.31c1.17,3.97-0.38,7.43-2.73,10.6
					c-1.2,1.64-2.52,3.2-3.83,4.75c-1.34,1.58-3.02,3.36-5.1,3.86c-0.49,0.11-1.33,0.29-1.79,0.03c-0.48-0.28-0.41-0.73-0.42-1.31
					c-0.03-1.08,0.2-2.13,0.53-3.13c0.7-2.07,1.96-3.97,3.36-5.64c2.17-2.57,4.81-4.55,5.96-7.83
					C538.38,584.98,537.26,584.67,537.02,585.37L537.02,585.37z"/>
			</g>
			<g>
				<path class="st2" d="M560.46,474.92c-0.32,4.71-5.72,7.48-9.57,8.94c-2.41,0.91-4.87,1.78-7.36,2.43
					c-1.15,0.31-2.46,0.62-3.64,0.22c-1.36-0.45-1.85-1.79-2.55-2.89c-1.02-1.59-2.34-2.98-3.87-4.07
					c-1.61-1.15-3.83-1.58-5.26-2.95c-1.38-1.34,0.67-1.83,1.71-2.35c1.17-0.59,2.35-1.2,3.51-1.82c2.49-1.31,4.98-2.63,7.52-3.82
					c0.67-0.31,0.08-1.31-0.59-0.99c-2.38,1.1-4.7,2.34-7.02,3.55c-1.16,0.62-2.34,1.23-3.51,1.82c-0.5,0.25-1.01,0.5-1.51,0.76
					c-0.48,0.22-1.27,0.41-1.62,0.81c-0.85,0.98,0.21,2.48,0.96,3.09c1.44,1.16,3.31,1.61,4.84,2.64c1.97,1.31,3.3,3.08,4.5,5.08
					c0.92,1.52,2.14,2.42,3.97,2.46c2.18,0.06,4.43-0.88,6.48-1.57c2.18-0.73,4.42-1.44,6.5-2.45c3.48-1.68,7.34-4.77,7.64-8.91
					C561.66,474.18,560.5,474.18,560.46,474.92L560.46,474.92z"/>
			</g>
			<g>
				<path class="st2" d="M527.46,476.46c-9.23,0.53-18.45,1.26-27.65,2.21c-4.25,0.45-8.56,0.78-12.78,1.5
					c-2.6,0.43-5.75,1.4-6.81,4.1c-0.67,1.68-0.25,3.43,0.2,5.09c0.57,2.18,1.17,4.35,1.78,6.53c0.42,1.52,0.81,3.08,2.15,4.04
					c1.12,0.8,2.55,0.99,3.89,0.9c3.64-0.24,7.26-1.96,10.7-3.02c4.15-1.29,8.34-2.5,12.53-3.62c9.43-2.53,18.95-4.67,28.57-6.36
					c0.73-0.13,0.42-1.24-0.31-1.12c-15.29,2.69-30.4,6.48-45.16,11.29c-2.66,0.87-6.64,2.8-9.34,1.15
					c-1.75-1.06-2.03-3.92-2.52-5.73c-0.53-1.96-1.23-3.96-1.57-5.96c-0.71-4.11,2.81-5.58,6.2-6.15c4.01-0.69,8.14-0.99,12.18-1.43
					c9.29-0.96,18.6-1.72,27.93-2.25C528.2,477.58,528.21,476.42,527.46,476.46L527.46,476.46z"/>
			</g>
			<g>
				<path class="st2" d="M479.82,486.53c-11.92,15.43-1.99,36.22,1.99,52.6c1.2,4.94,2.21,9.92,3.08,14.92
					c0.45,2.57,1.65,6.73,5.13,5.99c4.36-0.92,3.61-6.24,2.91-9.4c-1.1-5.01-1.99-10.07-2.62-15.17
					c-1.41-11.43-1.62-22.96-0.66-34.43c0.06-0.74-1.09-0.74-1.16,0c-0.77,9.22-0.8,18.47-0.04,27.68c0.36,4.38,0.9,8.73,1.61,13.06
					c0.34,2.04,0.7,4.08,1.12,6.13c0.49,2.39,1.45,5.03,1.23,7.5c-0.24,2.45-3.05,5.08-5.03,2.45c-1.03-1.37-1.22-3.3-1.51-4.95
					c-0.77-4.45-1.69-8.87-2.74-13.26c-2.1-8.75-5.24-17.27-6.88-26.12c-1.65-8.98-1.22-18.91,4.57-26.4
					C481.26,486.51,480.27,485.94,479.82,486.53L479.82,486.53z"/>
			</g>
			<g>
				<path class="st2" d="M486.37,559.22c-1.66,4.15-5.92,6.54-7.93,10.56c-0.85,1.68-1.43,3.64-1.13,5.54
					c0.24,1.5,2.34,1.4,3.51,1.1c1.83-0.48,3.38-1.8,4.68-3.15c1.55-1.59,3.03-3.31,4.39-5.09c2.36-3.09,3.87-6.56,2.91-10.47
					c-0.18-0.73-1.29-0.42-1.12,0.31c0.92,3.76-0.76,7.02-3.05,9.9c-1.05,1.33-2.18,2.59-3.33,3.83c-1.26,1.4-2.74,2.92-4.6,3.48
					c-0.48,0.14-0.95,0.21-1.44,0.15c-0.67-0.07-0.73-0.1-0.87-0.71c-0.2-0.9,0.15-2.04,0.43-2.89c0.62-1.85,1.78-3.51,3.03-4.98
					c2.06-2.41,4.42-4.27,5.62-7.27C487.75,558.84,486.63,558.54,486.37,559.22L486.37,559.22z"/>
			</g>
			<g>
				<path class="st2" d="M518.21,459.27c-0.71,3.38-4.34,6.32-7.54,7.23c-2.14,0.6-4.38,0.99-6.56,1.34
					c-2.38,0.39-4.7,0.77-5.8-1.85c-0.63-1.48-1.37-2.84-2.46-4.04c-1.15-1.26-2.55-1.99-3.89-2.99c-0.28-0.21-1.22-0.91-1.2-1.37
					c0.01-0.63,0.9-0.66,1.34-0.78c1.1-0.34,2.2-0.67,3.3-1.01c2.38-0.73,4.75-1.45,7.13-2.18c0.71-0.21,0.41-1.33-0.31-1.12
					c-2.92,0.9-5.86,1.79-8.78,2.69c-1.57,0.48-4.7,0.64-3.68,3.02c0.78,1.85,3.27,2.62,4.64,3.92c0.94,0.88,1.72,1.93,2.29,3.08
					c0.46,0.91,0.71,1.94,1.37,2.74c1.19,1.45,3.15,1.44,4.87,1.23c2.73-0.34,5.58-0.83,8.21-1.62c3.51-1.06,7.4-4.27,8.18-7.99
					C519.47,458.85,518.37,458.54,518.21,459.27L518.21,459.27z"/>
			</g>
			<g>
				<path class="st2" d="M490.35,457.96c-7.94-0.63-15.91-1.09-23.87-1.34c-3.72-0.13-7.58-0.49-11.3-0.15
					c-2.14,0.2-4.55,0.85-5.51,2.98c-0.57,1.24-0.42,2.63-0.27,3.94c0.24,1.96,0.5,3.92,0.76,5.87c0.32,2.43,1.19,4.25,3.8,4.71
					c2.69,0.48,5.55-0.42,8.17-0.9c3.79-0.69,7.61-1.3,11.43-1.86c8.5-1.23,17.06-2.11,25.65-2.43c0.74-0.03,0.74-1.19,0-1.16
					c-13.17,0.5-26.28,2.28-39.23,4.67c-2.22,0.41-6.08,1.58-7.85-0.5c-1.01-1.19-0.9-3.31-1.09-4.77
					c-0.21-1.66-0.55-3.36-0.62-5.02c-0.14-3.57,3.01-4.36,5.96-4.42c3.36-0.07,6.74,0.1,10.11,0.21
					c7.97,0.25,15.93,0.71,23.87,1.34C491.09,459.17,491.08,458.01,490.35,457.96L490.35,457.96z"/>
			</g>
			<g>
				<path class="st2" d="M449.28,460.88c-11.9,11.73-5.85,30.49-4.42,44.89c0.43,4.31,0.59,8.61,0.83,12.94
					c0.13,2.15,0.83,5.26,3.58,5.17c3.48-0.1,3.97-4.2,3.79-6.82c-0.31-4.34-0.55-8.66-0.52-12.99c0.07-9.99,1.22-19.94,3.4-29.69
					c0.17-0.73-0.95-1.03-1.12-0.31c-1.66,7.44-2.76,15.01-3.2,22.63c-0.22,3.78-0.29,7.57-0.21,11.36
					c0.04,1.89,0.13,3.79,0.24,5.68c0.11,1.78,0.43,3.64,0.31,5.41c-0.07,1.1-0.39,2.21-1.24,2.95c-0.95,0.83-2.29,0.88-3.06-0.2
					c-0.88-1.22-0.81-2.98-0.85-4.41c-0.14-3.92-0.41-7.82-0.78-11.72c-0.76-7.59-2.43-15.13-2.74-22.77
					c-0.31-7.62,1.19-15.75,6.82-21.3C450.64,461.17,449.81,460.36,449.28,460.88L449.28,460.88z"/>
			</g>
			<g>
				<path class="st2" d="M446.99,522.27c-1.92,3.33-5.87,4.82-8.2,7.89c-0.98,1.3-1.75,2.8-1.89,4.43c-0.07,0.74-0.13,1.1,0.46,1.51
					c0.6,0.41,1.43,0.52,2.13,0.49c3.33-0.15,6.48-3.54,8.68-5.72c2.46-2.43,4.45-5.36,4.08-8.96c-0.07-0.73-1.23-0.74-1.16,0
					c0.32,3.15-1.3,5.66-3.43,7.83c-1.06,1.08-2.21,2.07-3.36,3.05c-1.29,1.09-2.76,2.31-4.48,2.59c-0.94,0.15-1.93,0.11-1.75-1.06
					c0.14-0.84,0.46-1.64,0.88-2.36c0.78-1.36,1.9-2.52,3.08-3.54c2.08-1.8,4.52-3.09,5.93-5.55
					C448.36,522.2,447.35,521.63,446.99,522.27L446.99,522.27z"/>
			</g>
			<g>
				<path class="st2" d="M472.16,437.05c-0.8,2.73-4.32,2.53-6.66,2.87c-1.75,0.25-3.55,0.49-5.33,0.53
					c-0.76,0.01-1.66,0.01-2.32-0.43c-0.88-0.62-1.02-1.89-1.41-2.81c-0.46-1.08-1.1-2.08-1.89-2.95c-0.84-0.94-2.67-1.73-3.22-2.84
					c-0.55-1.09,0.87-1.06,1.65-1.26c0.64-0.15,1.27-0.31,1.92-0.46c1.52-0.36,3.03-0.73,4.56-1.08c0.73-0.17,0.42-1.27-0.31-1.12
					c-1.94,0.43-3.87,0.91-5.82,1.38c-1.22,0.29-3.54,0.18-3.5,1.9c0.04,1.57,1.85,2.45,2.88,3.31c0.9,0.76,1.68,1.69,2.24,2.73
					c0.49,0.91,0.7,1.92,1.13,2.82c0.7,1.45,2.08,1.93,3.62,1.96c2.1,0.04,4.25-0.31,6.32-0.62c2.88-0.42,6.24-0.34,7.19-3.64
					C473.47,436.64,472.36,436.34,472.16,437.05L472.16,437.05z"/>
			</g>
			<g>
				<path class="st2" d="M450.69,431.05c-6.73-1.06-13.48-1.96-20.24-2.71c-3.12-0.34-6.29-0.84-9.43-0.88
					c-1.87-0.03-4.11,0.34-5.16,2.08c-0.56,0.94-0.62,2.01-0.59,3.09c0.04,1.72,0.17,3.44,0.27,5.15c0.11,2.15,0.56,3.93,2.84,4.6
					c2.41,0.71,5.17,0.01,7.61-0.22c3.17-0.31,6.36-0.55,9.55-0.74c7.38-0.43,14.8-0.56,22.19-0.27c0.74,0.03,0.74-1.12,0-1.16
					c-11.12-0.43-22.28,0.03-33.34,1.16c-1.99,0.21-4.99,0.96-6.73-0.41c-1.19-0.94-0.96-2.8-1.03-4.17
					c-0.08-1.47-0.24-2.96-0.21-4.43c0.04-3.12,2.59-3.68,5.2-3.55c2.76,0.14,5.52,0.5,8.27,0.8c6.85,0.74,13.69,1.65,20.52,2.73
					C451.11,432.28,451.42,431.18,450.69,431.05L450.69,431.05z"/>
			</g>
			<g>
				<path class="st2" d="M415.35,430.9c-11.01,9.34-6.91,25.98-6.67,38.47c0.07,3.68-0.21,7.36-0.15,11.03
					c0.03,1.94,0.83,4.53,3.27,4.2c2.73-0.36,3.26-3.36,3.27-5.59c0.03-3.72,0.1-7.41,0.41-11.12c0.71-8.5,2.35-16.91,4.84-25.06
					c0.22-0.71-0.9-1.02-1.12-0.31c-1.87,6.15-3.29,12.45-4.15,18.82c-0.43,3.1-0.74,6.21-0.92,9.34c-0.18,3.1-0.03,6.22-0.22,9.31
					c-0.08,1.38-1.2,4.56-3.24,3.24c-1.24-0.8-0.98-2.92-0.92-4.17c0.13-3.33,0.17-6.66,0.1-9.99c-0.14-6.57-1.09-13.16-0.85-19.75
					c0.22-6.5,2.06-13.27,7.19-17.62C416.74,431.23,415.93,430.42,415.35,430.9L415.35,430.9z"/>
			</g>
			<g>
				<path class="st2" d="M408.91,483.24c-1.48,2.15-4.01,3.13-5.93,4.84c-1.65,1.48-2.89,3.3-3.05,5.55
					c-0.01,0.21,0.13,0.39,0.28,0.5c3.02,2,6.56-1.13,8.85-2.92c2.66-2.07,5.09-4.61,5.01-8.2c-0.01-0.74-1.17-0.74-1.16,0
					c0.06,2.62-1.43,4.6-3.31,6.27c-1.8,1.59-4.35,3.9-6.81,4.29c-0.78,0.13-1.76,0.14-1.58-0.84c0.11-0.64,0.45-1.26,0.8-1.8
					c0.71-1.12,1.72-2.04,2.78-2.84c1.83-1.38,3.79-2.32,5.12-4.28C410.32,483.21,409.33,482.64,408.91,483.24L408.91,483.24z"/>
			</g>
			<g>
				<path class="st2" d="M695.25,383.38c4.56,1.29,8.94,3.08,13.5,4.39c4.2,1.2,7.99,2.91,10.89,6.25c5.3,6.1,6.91,14.73,8.7,22.36
					c1.13,4.81,2.53,9.72,3.02,14.64c0.49,4.94-1.1,9.06-4.43,12.68c-6.14,6.67-14.31,11.64-22.18,15.98
					c-8.35,4.62-16.99,8.73-25.54,12.99c-4.45,2.22-8.87,4.74-13.51,6.52c-4.68,1.79-9.48,1.9-14.35,0.81
					c-2.31-0.52-4.56-1.24-6.77-2.07c-1.02-0.38-2.25-0.69-3.15-1.3c-1.44-1.01-0.91-2.76-0.49-4.18c1.33-4.48,4.1-8.45,6.57-12.35
					c5.01-7.87,10.24-15.59,15.47-23.3c10.5-15.47,21.06-30.96,29.8-47.52c1.09-2.06,2.14-4.13,3.17-6.22
					c0.36-0.74-0.74-1.4-1.12-0.66c-8.87,18.01-20.07,34.71-31.31,51.28c-5.64,8.31-11.3,16.6-16.7,25.07
					c-2.52,3.94-5.27,7.9-6.82,12.35c-0.59,1.68-1.41,3.97-0.34,5.62c0.98,1.47,3.26,1.97,4.8,2.53c4.6,1.66,9.48,3.01,14.4,2.74
					c4.81-0.25,9.09-2.31,13.34-4.42c9.44-4.71,18.95-9.31,28.31-14.19c8.53-4.45,16.91-9.37,24.15-15.76
					c3.16-2.78,6.27-6.03,7.47-10.18c1.33-4.56,0.11-9.37-0.88-13.86c-1.09-4.95-2.2-9.92-3.5-14.82c-1.01-3.8-2.24-7.59-4.11-11.08
					c-1.76-3.27-4.18-6.22-7.34-8.22c-4.06-2.56-9.01-3.33-13.48-4.91c-2.42-0.85-4.82-1.75-7.29-2.45
					C694.78,381.91,694.45,383.15,695.25,383.38L695.25,383.38z"/>
			</g>
			<g>
				<path class="st2" d="M695.5,382c-5.97-2.67-12.15-4.84-18.5-6.41c-3.15-0.78-6.32-1.43-9.52-1.92
					c-3.12-0.48-6.35-1.03-9.51-0.94c-6.25,0.18-10.14,5.48-14,9.75c-4.43,4.91-8.67,9.99-12.73,15.2
					c-7.94,10.21-15.19,20.94-21.89,32c-3.3,5.45-6.48,11.05-8.68,17.05c-1.99,5.38-3.64,11.97-2.55,17.73
					c0.24,1.26,0.91,2.11,2.11,2.57c1.68,0.64,3.51,1.01,5.24,1.47c3.79,1.01,7.58,1.97,11.4,2.88c7.72,1.83,15.48,3.45,23.28,4.85
					c0.81,0.14,1.16-1.09,0.35-1.24c-12.88-2.32-25.66-5.22-38.28-8.71c-0.77-0.21-1.65-0.35-2.22-0.91
					c-0.7-0.67-0.69-1.62-0.74-2.55c-0.1-1.55-0.07-3.1,0.06-4.64c0.25-3.02,0.92-6,1.85-8.89c1.86-5.8,4.74-11.23,7.83-16.47
					c6.21-10.53,12.99-20.74,20.33-30.52c3.72-4.95,7.61-9.79,11.65-14.49c1.99-2.29,4.01-4.56,6.08-6.78
					c1.96-2.11,3.96-4.57,6.54-5.93c3.2-1.68,7.06-1.02,10.5-0.6c3.51,0.43,7.01,1.05,10.46,1.83c6.96,1.58,13.76,3.86,20.29,6.78
					C695.6,383.46,696.25,382.34,695.5,382L695.5,382z"/>
			</g>
			<g>
				<path class="st2" d="M620.41,415.33c3.62-2.1,8.24-1.59,12.25-1.4c4.45,0.22,8.87,0.67,13.26,1.36
					c4.27,0.67,8.49,1.57,12.67,2.67c2,0.53,3.97,1.1,5.94,1.73c1.52,0.49,4.96,1.57,4.13,3.79c0.21-0.15,0.42-0.32,0.62-0.48
					c-8.14-0.66-16.14-2.81-23.48-6.38c-6.17-3.01-16.7-8.4-14.71-16.88c0.2-0.81-1.05-1.15-1.24-0.35
					c-2.04,8.71,7.47,14.31,13.93,17.63c7.93,4.1,16.63,6.54,25.51,7.26c0.29,0.03,0.53-0.22,0.62-0.48
					c1.45-3.86-4.74-5.31-7.17-6.04c-4.85-1.45-9.79-2.62-14.8-3.47c-4.87-0.84-9.78-1.38-14.71-1.65
					c-4.42-0.24-9.47-0.78-13.45,1.54C619.04,414.63,619.69,415.75,620.41,415.33L620.41,415.33z"/>
			</g>
			<g>
				<path class="st2" d="M599.34,465.83c-6.56-1.27-12.98-3.13-19.19-5.59c-3.13-1.24-6.2-2.64-9.19-4.18
					c-2.81-1.44-6.01-2.89-8.45-4.92c-2.98-2.48-0.52-7.27,0.57-10.18c1.29-3.44,2.81-6.78,4.38-10.11
					c3.08-6.5,6.24-12.98,9.36-19.45c3.23-6.73,6.46-13.45,9.71-20.17c1.62-3.36,3.23-6.73,4.85-10.08
					c0.77-1.59,1.54-3.19,2.29-4.78c0.66-1.37,1.24-2.89,2.22-4.08c1.83-2.22,5.69-2,8.36-2.2c2.69-0.21,5.37-0.32,8.06-0.36
					c5.79-0.11,11.59,0.07,17.37,0.42c12.73,0.77,25.47,2.29,37.96,4.91c0.81,0.17,1.16-1.08,0.35-1.24
					c-11.58-2.42-23.4-3.9-35.19-4.74c-6.22-0.45-12.46-0.7-18.7-0.64c-2.87,0.03-5.75,0.11-8.61,0.31
					c-2.62,0.17-5.66,0.13-8.14,1.02c-2.81,0.99-3.85,4.07-5.02,6.53c-1.71,3.54-3.4,7.08-5.1,10.61
					c-3.36,6.99-6.73,13.98-10.08,20.96c-3.34,6.95-6.7,13.9-10.03,20.87c-1.55,3.24-3.08,6.52-4.42,9.85
					c-0.7,1.72-1.34,3.47-1.93,5.24c-0.49,1.5-1.02,3.06-0.95,4.66c0.15,3.47,3.75,4.99,6.36,6.49c3.43,1.96,6.96,3.73,10.59,5.3
					c7.15,3.09,14.61,5.4,22.25,6.88C599.81,467.23,600.16,465.98,599.34,465.83L599.34,465.83z"/>
			</g>
			<g>
				<path class="st2" d="M571.24,423.32c9.27-16.25,32.43-13.75,47.84-10.49c0.06-0.42,0.11-0.84,0.17-1.27
					c-6.82,0.85-13.8-0.25-20.05-3.15c-3.08-1.43-5.97-3.26-8.53-5.47c-2.59-2.24-6.29-5.52-5.78-9.31
					c0.11-0.81-1.13-1.16-1.24-0.35c-0.5,3.66,1.96,6.59,4.42,9.01c2.71,2.67,5.85,4.91,9.24,6.63c6.74,3.43,14.43,4.85,21.94,3.92
					c0.66-0.08,0.95-1.1,0.17-1.27c-16.01-3.4-39.69-5.76-49.3,11.08C569.72,423.39,570.82,424.04,571.24,423.32L571.24,423.32z"/>
			</g>
			<g>
				<path class="st2" d="M564.28,452.38c-9.59-1.66-19.44-3.4-28.22-7.79c-2.08-1.05-4.1-2.24-6-3.61c-2.11-1.52-5.3-3.45-4.6-6.43
					c1.26-5.43,3.26-10.8,5.03-16.07c3.62-10.74,7.68-21.34,12.18-31.75c2.24-5.19,4.6-10.32,7.05-15.41
					c1.01-2.07,1.94-4.38,3.61-6.01c2.22-2.18,5.36-1.86,8.24-1.76c13.06,0.42,26.04,2.45,38.63,5.96c0.8,0.22,1.15-1.02,0.35-1.24
					c-11.79-3.29-23.93-5.29-36.15-5.89c-2.78-0.14-5.93-0.59-8.66,0.13c-2.13,0.55-3.69,2.06-4.85,3.86
					c-1.48,2.29-2.55,4.88-3.71,7.34c-1.27,2.69-2.5,5.37-3.72,8.08c-4.89,10.96-9.31,22.14-13.23,33.48
					c-2,5.78-3.86,11.61-5.59,17.47c-0.67,2.28-1.03,4.15,0.73,6.01c1.59,1.71,3.64,3.15,5.59,4.42c9.8,6.39,21.66,8.52,32.99,10.47
					C564.74,453.76,565.09,452.52,564.28,452.38L564.28,452.38z"/>
			</g>
			<g>
				<path class="st2" d="M543.51,383.19c1.83,6.61,8.78,10.42,14.39,13.45c6.67,3.61,13.89,6.2,21.48,6.74
					c0.53,0.04,0.76-0.56,0.56-0.96c-1.43-2.98-5.05-3.5-7.97-4c-4.07-0.7-8.18-1.23-12.31-1.47c-8.29-0.48-16.7,0.31-24.5,3.31
					c-0.77,0.29-0.43,1.54,0.35,1.24c7.2-2.78,14.89-3.64,22.56-3.34c3.85,0.14,7.68,0.56,11.47,1.16c2.99,0.46,7.79,0.62,9.3,3.75
					c0.18-0.32,0.38-0.64,0.56-0.96c-7.19-0.52-14.04-2.95-20.38-6.32c-5.41-2.88-12.5-6.54-14.26-12.92
					C544.53,382.06,543.29,382.4,543.51,383.19L543.51,383.19z"/>
			</g>
			<g>
				<path class="st2" d="M553.16,364.57c-5.33-0.35-10.64-0.69-15.97-1.03c-4.36-0.28-9.82-1.51-13.75,0.99
					c-1.83,1.17-3.31,2.88-4.8,4.45c-1.68,1.78-3.31,3.58-4.92,5.43c-3.08,3.52-6.03,7.16-8.84,10.89
					c-5.76,7.66-10.96,15.76-15.5,24.22c-1.94,3.62-3.94,7.85-3.15,12.07c0.8,4.21,4.5,6.64,8.03,8.49
					c9.34,4.87,19.98,6.15,30.31,7.38c0.83,0.1,0.81-1.19,0-1.29c-8.66-1.03-17.5-2.08-25.63-5.37c-3.71-1.5-8.64-3.54-10.63-7.24
					c-2.29-4.27,0.01-9.3,2.07-13.17c8.27-15.52,18.82-30.28,31.28-42.71c1.97-1.96,4.03-3.2,6.88-3.31c2.59-0.1,5.2,0.22,7.78,0.39
					c5.61,0.36,11.23,0.73,16.84,1.09C553.98,365.91,553.98,364.62,553.16,364.57L553.16,364.57z"/>
			</g>
			<g>
				<path class="st2" d="M501.54,391.89c5.71-0.13,11.41,0.18,17.06,0.96c2.76,0.38,5.51,0.88,8.22,1.48
					c1.45,0.32,2.89,0.67,4.34,1.05c0.71,0.2,1.44,0.38,2.15,0.6c0.84,0.27,1.47,0.24,1.5,1.19c0.22,0.62,0,0.83-0.67,0.63
					c-0.42-0.04-0.81-0.14-1.2-0.28c-0.7-0.24-1.37-0.6-2.03-0.94c-1.08-0.55-2.14-1.13-3.19-1.75c-2.17-1.29-4.27-2.73-6.24-4.31
					c-3.94-3.15-7.43-6.82-10.39-10.89c-0.48-0.67-1.59-0.03-1.12,0.66c5.45,7.54,12.73,13.82,21.15,17.86
					c1.38,0.66,3.66,1.66,5.02,0.39c1.24-1.16,0.08-2.64-1.06-3.26c-2.07-1.1-4.82-1.47-7.1-1.99c-2.71-0.63-5.45-1.13-8.22-1.54
					c-6.04-0.9-12.14-1.26-18.24-1.13C500.72,390.62,500.7,391.91,501.54,391.89L501.54,391.89z"/>
			</g>
			<g>
				<path class="st2" d="M522.95,364.93c-4-2.52-8.13-4.81-12.39-6.84c-3.9-1.86-8.17-3.75-12.6-3.24c-4,0.46-7.34,2.8-10.43,5.23
					c-3.75,2.95-7.41,6.03-10.99,9.17c-6,5.27-13.24,10.92-16.29,18.57c-3.02,7.59-0.1,15.79,5.05,21.69
					c3.16,3.64,7.09,6.5,11.09,9.15c4.52,2.98,9.12,5.85,13.68,8.75c0.7,0.45,1.34-0.67,0.66-1.12c-3.78-2.41-7.55-4.81-11.31-7.22
					c-3.38-2.17-6.75-4.41-9.78-7.06c-5.89-5.2-10.84-13.03-8.95-21.2c1.76-7.66,8.53-13.22,14.1-18.24
					c3.29-2.98,6.66-5.86,10.08-8.68c3.13-2.57,6.35-5.52,10.19-6.99c4.92-1.89,9.86-0.03,14.38,2.1c4.43,2.08,8.74,4.46,12.88,7.08
					C523.01,366.48,523.65,365.38,522.95,364.93L522.95,364.93z"/>
			</g>
			<g>
				<path class="st2" d="M473.25,373.22c5.45,1.68,10.8,3.71,15.96,6.13c2.45,1.13,4.85,2.36,7.23,3.65
					c1.26,0.69,2.52,1.4,3.75,2.14c0.6,0.36,1.3,0.69,1.85,1.12c1.09,0.85,0.48,1.08-0.43,0.95c-2.73-0.36-4.99-2.25-6.92-4.07
					c-1.79-1.69-3.4-3.55-4.81-5.58c-2.85-4.1-4.81-8.73-5.8-13.62c-0.17-0.81-1.41-0.46-1.24,0.35
					c1.75,8.59,6.68,17.29,14.01,22.31c1.59,1.09,3.97,2.34,5.99,1.96c1.52-0.29,1.48-1.78,0.59-2.77
					c-0.67-0.76-1.73-1.23-2.59-1.73c-1.16-0.69-2.34-1.36-3.51-2.01c-2.36-1.3-4.77-2.53-7.22-3.68
					c-5.36-2.5-10.87-4.63-16.52-6.36C472.8,371.73,472.45,372.97,473.25,373.22L473.25,373.22z"/>
			</g>
			<g>
				<path class="st2" d="M492.63,357.17c-8.17-8.91-19.63-15.58-32.11-14.1c-5.22,0.62-12,2.74-14.19,8.06
					c-1.08,2.63-0.78,5.57-0.11,8.25c0.84,3.36,2.2,6.61,3.38,9.86c2.88,7.78,5.93,15.5,9.15,23.15c0.32,0.76,1.57,0.42,1.24-0.35
					c-2.55-6.04-4.98-12.14-7.31-18.26c-1.16-3.06-2.31-6.14-3.41-9.23c-1.02-2.84-2.18-5.76-2.35-8.81
					c-0.36-6.82,5.97-9.93,11.79-11.08c6.01-1.19,12.35-0.22,17.93,2.21c5.82,2.53,10.82,6.56,15.09,11.2
					C492.28,358.69,493.19,357.78,492.63,357.17L492.63,357.17z"/>
			</g>
			<g>
				<path class="st2" d="M452.97,346.82c9.64,2.17,18.5,7.26,25.16,14.57c1.03,1.13,2.96,3.4,0.56,4.32
					c-1.31,0.5-2.63-0.34-3.59-1.16c-1.86-1.61-3.44-3.62-4.75-5.71c-2.77-4.38-4.34-9.41-4.55-14.59c-0.04-0.83-1.33-0.83-1.29,0
					c0.2,4.67,1.43,9.24,3.64,13.37c1.08,2.01,2.39,3.9,3.9,5.64c1.36,1.55,3.02,3.45,5.17,3.82c1.45,0.25,3.17-0.41,3.76-1.83
					c0.76-1.85-0.8-3.51-1.94-4.77c-3.17-3.48-6.87-6.5-10.89-8.95c-4.59-2.77-9.61-4.78-14.82-5.96
					C452.51,345.39,452.16,346.64,452.97,346.82L452.97,346.82z"/>
			</g>
			<g>
				<path class="st2" d="M585.17,127.65c-10.57,8.61-13.06,24.33-9.48,36.91c3.66,12.87,13.66,22.74,26.36,26.78
					c7.01,2.22,14.52,2.63,21.7,1.1c0.49-0.1,0.56-0.83,0.14-1.05c-3.37-1.82-7.23-1.94-10.77-3.24c-2.15-0.8-4.08-2.2-4.85-4.45
					c-0.8-2.31-0.35-4.91,0.66-7.06c2.07-4.42,6.49-7.22,9.89-10.54c3.17-3.1,5.96-6.66,8.04-10.59c3.73-7.03,4.95-15.09,2.14-22.64
					c-2.27-6.08-6.96-12.26-13.85-13.08c-2.49-0.29-5.03,0.15-7.47,0.63c-2.69,0.53-5.36,1.01-8.04,1.44
					C594.42,122.71,589.39,124.37,585.17,127.65c-0.59,0.46,0.24,1.27,0.81,0.81c3.9-3.03,8.63-4.59,13.45-5.43
					c2.35-0.41,4.7-0.74,7.03-1.23c2.38-0.49,4.8-1.02,7.24-0.98c7.68,0.1,12.77,7.4,14.74,14.08c2.39,8.11-0.07,16.54-4.67,23.41
					c-2.57,3.83-5.79,7.02-9.26,10.06c-3.24,2.84-6.59,5.97-7.55,10.33c-0.9,4.01,0.55,7.97,4.29,9.87
					c3.79,1.93,8.27,1.75,12.03,3.79c0.04-0.35,0.1-0.7,0.14-1.05c-12.35,2.63-25.84-0.74-35.37-9.09
					c-9.64-8.45-14.29-21.84-12.36-34.47c1.12-7.31,4.48-14.57,10.28-19.3C586.57,128,585.74,127.19,585.17,127.65z"/>
			</g>
			<g>
				<path class="st2" d="M574.4,153.94c-0.18,6.35-7.5,7.99-12.5,8.68c-6.15,0.85-12.32,1.66-18.49,2.5
					c-3.19,0.43-6.38,0.87-9.58,1.3c-2.98,0.41-5.99,0.92-9.01,0.87c-5.72-0.11-9.97-3.29-11.93-8.61
					c-1.85-5.05-2.2-11.55,1.44-15.87c3.2-3.8,7.66-6.87,11.86-9.47c8.43-5.23,17.94-8.64,27.76-10.13
					c11.19-1.69,22.71-0.78,33.44,2.81c0.7,0.24,1.01-0.88,0.31-1.12c-20.53-6.88-43.94-3.89-62.27,7.55
					c-4.39,2.74-9.27,6.04-12.45,10.21c-3.33,4.38-3.05,10.71-1.41,15.72c1.52,4.63,4.75,8.54,9.65,9.66
					c2.84,0.64,5.78,0.43,8.64,0.08c3.26-0.41,6.52-0.87,9.78-1.31c7.85-1.06,15.71-2.03,23.54-3.19c5.37-0.8,12.17-3.17,12.36-9.65
					C575.58,153.2,574.43,153.2,574.4,153.94L574.4,153.94z"/>
			</g>
			<g>
				<path class="st2" d="M511.74,156.04c3.79-1.52,6.56-4.43,9.54-7.1c3.41-3.05,7.33-5.54,11.57-7.31
					c4.46-1.86,9.22-2.82,13.96-3.65c4.98-0.87,10-1.45,15.05-1.69c5.66-0.27,11.33-0.06,16.94,0.69c0.73,0.1,0.73-1.06,0-1.16
					c-9.9-1.33-19.93-0.88-29.77,0.64c-9.23,1.43-18.14,3.62-25.72,9.34c-3.96,2.98-7.17,7.26-11.86,9.13
					C510.74,155.2,511.04,156.32,511.74,156.04L511.74,156.04z"/>
			</g>
			<g>
				<path class="st2" d="M512.09,151.16c3.72-3.71,7.85-6.94,12.35-9.64c0.63-0.38,0.06-1.38-0.59-0.99
					c-4.59,2.76-8.8,6.04-12.57,9.82C510.74,150.86,511.55,151.69,512.09,151.16L512.09,151.16z"/>
			</g>
			<g>
				<path class="st2" d="M527.61,138.26c6.8-3.44,14.25-5.3,21.87-5.48c0.74-0.01,0.74-1.17,0-1.16c-7.83,0.18-15.47,2.1-22.46,5.64
					C526.36,137.6,526.94,138.6,527.61,138.26L527.61,138.26z"/>
			</g>
			<g>
				<path class="st2" d="M514.55,162.51c10.03,0.07,20.04-1.1,29.76-3.58c9.83-2.5,19.77-7.23,30.14-5.69
					c0.73,0.11,1.03-1.01,0.31-1.12c-10.08-1.51-19.59,2.69-29.13,5.26c-10.13,2.73-20.6,4.04-31.09,3.96
					C513.79,161.35,513.79,162.5,514.55,162.51L514.55,162.51z"/>
			</g>
			<g>
				<path class="st2" d="M523.33,157.02c2.22,0,2.24-3.47,0-3.47C521.11,153.55,521.09,157.02,523.33,157.02L523.33,157.02z"/>
			</g>
			<g>
				<path class="st2" d="M533.92,152.39c2.22,0,2.24-3.47,0-3.47C531.69,148.92,531.69,152.39,533.92,152.39L533.92,152.39z"/>
			</g>
			<g>
				<path class="st2" d="M546.84,149.24c2.22,0,2.24-3.47,0-3.47C544.6,145.77,544.6,149.24,546.84,149.24L546.84,149.24z"/>
			</g>
			<g>
				<path class="st2" d="M561.4,147.25c2.22,0,2.24-3.47,0-3.47C559.17,143.79,559.17,147.25,561.4,147.25L561.4,147.25z"/>
			</g>
			<g>
				<path class="st2" d="M511.9,144.49c-4.25,0.25-8.6,0.66-12.61,2.14c-4.07,1.51-7.27,4.17-10.03,7.5
					c-2.85,3.44-5.78,7.15-7.79,11.15c-2.04,4.04-2.76,8.54-2.81,13.05c-0.03,2.35,0.11,4.7,0.29,7.05c0.17,2.07,0.25,4.2,0.71,6.22
					c0.87,3.83,3.64,5.78,7.43,6.27c4.95,0.64,10.25,0.41,15.2-0.14c4.29-0.48,8.17-1.86,11.64-4.48c3.93-2.96,6.91-6.94,9.44-11.12
					c2.57-4.25,5.83-9.09,5.78-14.25c-0.01-0.74-1.16-0.74-1.16,0c0.04,4.48-2.63,8.56-4.81,12.29c-2.13,3.66-4.52,7.23-7.59,10.15
					c-2.82,2.69-6.2,4.78-10.01,5.68c-4.46,1.06-9.34,1.05-13.9,0.95c-4.1-0.08-9.16-0.13-10.66-4.81c-0.56-1.76-0.64-3.66-0.8-5.5
					c-0.18-2.08-0.34-4.17-0.39-6.27c-0.1-4.24,0.22-8.54,1.75-12.53c1.54-4.04,4.32-7.52,6.92-10.94c2.71-3.55,5.73-6.87,9.9-8.71
					c4.24-1.87,8.95-2.32,13.51-2.59C512.65,145.6,512.65,144.44,511.9,144.49L511.9,144.49z"/>
			</g>
			<g>
				<path class="st2" d="M479.71,182.58c7.2-12.24,18.45-21.89,31.68-27.1c0.69-0.27,0.39-1.38-0.31-1.12
					c-13.51,5.33-24.99,15.12-32.36,27.63C478.34,182.64,479.33,183.21,479.71,182.58L479.71,182.58z"/>
			</g>
			<g>
				<path class="st2" d="M489.64,197.56c5.13-5.55,10.56-10.84,16.28-15.79c4.99-4.34,10.81-8.22,14.12-14.1
					c0.36-0.64-0.63-1.23-0.99-0.59c-3.34,5.93-9.34,9.85-14.36,14.22c-5.57,4.85-10.84,10.01-15.86,15.43
					C488.31,197.29,489.12,198.1,489.64,197.56L489.64,197.56z"/>
			</g>
			<g>
				<path class="st2" d="M495.18,197.19c3.06-2.82,6.94-4.59,9.83-7.62c0.52-0.53-0.31-1.36-0.81-0.81
					c-2.88,3.03-6.77,4.8-9.83,7.62C493.81,196.89,494.63,197.7,495.18,197.19L495.18,197.19z"/>
			</g>
			<g>
				<path class="st2" d="M508.55,187.54c2.08-1.24,3.9-2.82,5.41-4.73c0.46-0.57-0.35-1.4-0.81-0.81c-1.44,1.83-3.17,3.34-5.17,4.55
					C507.33,186.93,507.9,187.94,508.55,187.54L508.55,187.54z"/>
			</g>
			<g>
				<path class="st2" d="M517.12,180.05c3.36-3.08,4.45-7.58,5.3-11.89c0.14-0.73-0.96-1.03-1.12-0.31
					c-0.81,4.11-1.79,8.43-4.99,11.38C515.75,179.74,516.56,180.55,517.12,180.05L517.12,180.05z"/>
			</g>
			<g>
				<path class="st2" d="M480.35,173.98c1.73-2.76,3.92-5.16,6.5-7.13c0.59-0.45,0.01-1.44-0.59-0.99c-2.76,2.1-5.08,4.62-6.92,7.55
					C478.96,174.04,479.96,174.61,480.35,173.98L480.35,173.98z"/>
			</g>
			<g>
				<path class="st2" d="M491.74,162.58c2.11-1.99,4.38-3.79,6.77-5.43c0.62-0.42,0.03-1.41-0.59-0.99
					c-2.48,1.69-4.81,3.55-6.99,5.61C490.37,162.27,491.19,163.09,491.74,162.58L491.74,162.58z"/>
			</g>
			<g>
				<path class="st2" d="M502.95,154.5c2.82-1.29,5.76-2.25,8.78-2.95c0.73-0.17,0.42-1.27-0.31-1.12
					c-3.12,0.71-6.14,1.75-9.06,3.06C501.7,153.81,502.28,154.81,502.95,154.5L502.95,154.5z"/>
			</g>
			<g>
				<path class="st2" d="M485.75,191.45c2.22,0,2.24-3.47,0-3.47C483.53,187.98,483.52,191.45,485.75,191.45L485.75,191.45z"/>
			</g>
			<g>
				<path class="st2" d="M491.22,185.32c2.22,0,2.24-3.47,0-3.47C488.98,181.85,488.98,185.32,491.22,185.32L491.22,185.32z"/>
			</g>
			<g>
				<path class="st2" d="M496.84,177.7c2.22,0,2.24-3.47,0-3.47C494.62,174.24,494.62,177.7,496.84,177.7L496.84,177.7z"/>
			</g>
			<g>
				<path class="st2" d="M503.47,170.92c2.22,0,2.24-3.47,0-3.47C501.23,167.46,501.23,170.92,503.47,170.92L503.47,170.92z"/>
			</g>
			<g>
				<path class="st2" d="M509.75,166.29c2.22,0,2.24-3.47,0-3.47C507.53,162.82,507.53,166.29,509.75,166.29L509.75,166.29z"/>
			</g>
			<g>
				<path class="st2" d="M478.96,175.56c-9.85,1.4-15.64,10.29-19.83,18.42c-2.36,4.59-4.6,9.27-6.34,14.15
					c-1.69,4.8-2.96,9.65-2.13,14.74c0.42,2.59,1.2,5.12,2,7.62c0.7,2.21,1.66,4.06,3.24,5.76c3.02,3.26,6.35,6.54,10.89,7.36
					c4.73,0.84,9.43-0.64,13.68-2.62c2.32-1.08,4.59-2.27,6.85-3.44c2.07-1.06,3.82-2.35,5.09-4.34c2.96-4.67,3.24-10.54,3.64-15.89
					c0.49-6.39,0.91-12.78,0.48-19.19c-0.06-0.74-1.2-0.74-1.16,0c0.34,4.96,0.17,9.93-0.15,14.89c-0.32,4.81-0.42,9.83-1.68,14.52
					c-0.62,2.32-1.57,4.73-3.2,6.52c-1.58,1.72-3.87,2.62-5.92,3.66c-4.24,2.17-8.6,4.5-13.43,4.89c-4.99,0.41-8.82-1.69-12.26-5.12
					c-1.55-1.54-3.23-3.1-4.15-5.12c-0.99-2.15-1.59-4.62-2.18-6.91c-0.62-2.41-1.02-4.88-0.87-7.37c0.15-2.42,0.8-4.78,1.51-7.09
					c1.44-4.68,3.43-9.17,5.61-13.57c4.34-8.77,9.87-19.29,20.63-20.81C479.99,176.58,479.68,175.46,478.96,175.56L478.96,175.56z"
					/>
			</g>
			<g>
				<path class="st2" d="M478.93,179.28c-3.31,3.27-5.05,7.75-6.54,12.07c-1.82,5.19-3.1,10.54-4.34,15.89
					c-2.53,10.99-5.06,22-6.91,33.13c-0.13,0.73,0.99,1.03,1.12,0.31c1.78-10.77,4.22-21.41,6.66-32.04
					c1.16-5.08,2.35-10.17,3.96-15.13c1.52-4.71,3.26-9.85,6.88-13.41C480.28,179.57,479.46,178.75,478.93,179.28L478.93,179.28z"/>
			</g>
			<g>
				<path class="st2" d="M476.38,242.02c0.08-4.22,0.22-8.46,1.72-12.46c1.34-3.58,3.47-6.8,5.23-10.17
					c1.75-3.34,2.96-6.81,3.54-10.54c0.6-3.92,0.64-7.89,0.66-11.85c0-0.74-1.15-0.74-1.16,0c-0.03,4.2-0.04,8.43-0.8,12.59
					c-0.71,3.94-2.27,7.48-4.2,10.96c-1.73,3.13-3.59,6.21-4.73,9.62c-1.26,3.82-1.36,7.86-1.44,11.85
					C475.21,242.76,476.37,242.76,476.38,242.02L476.38,242.02z"/>
			</g>
			<g>
				<path class="st2" d="M480.42,239.54c-0.18-3.55,0.42-7.03,1.85-10.31c0.29-0.67-0.7-1.26-0.99-0.59
					c-1.51,3.45-2.21,7.12-2,10.88C479.31,240.27,480.45,240.28,480.42,239.54L480.42,239.54z"/>
			</g>
			<g>
				<path class="st2" d="M484.48,238.39c0.01-9.13,8.95-15.17,9.62-24.19c0.06-0.74-1.1-0.74-1.16,0
					c-0.67,9.01-9.61,14.98-9.62,24.19C483.33,239.13,484.48,239.13,484.48,238.39L484.48,238.39z"/>
			</g>
			<g>
				<path class="st2" d="M489.19,217.96c0.9-1.69,1.44-3.5,1.65-5.4c0.08-0.74-1.08-0.73-1.16,0c-0.18,1.69-0.69,3.3-1.48,4.81
					C487.85,218.03,488.84,218.62,489.19,217.96L489.19,217.96z"/>
			</g>
			<g>
				<path class="st2" d="M492.13,208.26c0-1.54,0-3.09,0-4.63c0-0.74-1.16-0.74-1.16,0c0,1.54,0,3.09,0,4.63
					C490.97,209,492.13,209,492.13,208.26L492.13,208.26z"/>
			</g>
			<g>
				<path class="st2" d="M456.55,229.93c-0.14-4.55,0.1-9.09,0.74-13.59c0.1-0.73-1.01-1.03-1.12-0.31
					c-0.66,4.62-0.92,9.24-0.78,13.9C455.42,230.67,456.57,230.67,456.55,229.93L456.55,229.93z"/>
			</g>
			<g>
				<path class="st2" d="M460.13,211.22c0.56-3.31,1.48-6.53,2.81-9.61c0.29-0.67-0.7-1.26-0.99-0.59
					c-1.36,3.19-2.35,6.48-2.92,9.89C458.89,211.64,460.01,211.95,460.13,211.22L460.13,211.22z"/>
			</g>
			<g>
				<path class="st2" d="M466.86,196.01c0.28-2.74,1.19-5.27,2.7-7.58c0.41-0.63-0.59-1.2-0.99-0.59c-1.62,2.48-2.56,5.23-2.85,8.17
					C465.64,196.75,466.79,196.75,466.86,196.01L466.86,196.01z"/>
			</g>
			<g>
				<path class="st2" d="M469.04,238.13c2.22,0,2.24-3.47,0-3.47C466.8,234.66,466.8,238.13,469.04,238.13L469.04,238.13z"/>
			</g>
			<g>
				<path class="st2" d="M471.03,226.7c2.22,0,2.24-3.47,0-3.47S468.79,226.7,471.03,226.7L471.03,226.7z"/>
			</g>
			<g>
				<path class="st2" d="M473.01,217.77c2.22,0,2.24-3.47,0-3.47S470.77,217.77,473.01,217.77L473.01,217.77z"/>
			</g>
			<g>
				<path class="st2" d="M474.83,206.84c2.22,0,2.24-3.47,0-3.47C472.61,203.38,472.59,206.84,474.83,206.84L474.83,206.84z"/>
			</g>
			<g>
				<path class="st2" d="M478.97,200.38c2.22,0,2.24-3.47,0-3.47C476.73,196.91,476.73,200.38,478.97,200.38L478.97,200.38z"/>
			</g>
			<g>
				<path class="st2" d="M453.18,228.79c-4.62,1.93-8.74,4.01-11.58,8.29c-2.82,4.24-4.66,9.12-5.82,14.05
					c-1.16,4.91-1.66,9.97-1.86,15.01c-0.21,5.55-0.14,11.24,1.33,16.64c0.62,2.29,1.54,4.5,3.13,6.31
					c1.58,1.78,3.64,3.22,5.59,4.56c4.21,2.88,8.82,4.35,13.94,3.69c5.2-0.67,9.9-3.19,14-6.36c1.79-1.38,3.64-2.85,4.94-4.73
					c1.5-2.15,1.9-4.77,2.35-7.31c2.21-12.61,4.2-25.54,1.68-38.26c-0.14-0.73-1.26-0.42-1.12,0.31
					c2.06,10.42,1.03,21.09-0.64,31.49c-0.41,2.52-0.83,5.02-1.29,7.52c-0.49,2.7-1.23,5.08-3.17,7.09
					c-3.27,3.4-7.62,6.31-12.07,7.93c-4.78,1.75-10.13,1.92-14.75-0.39c-2.07-1.02-3.96-2.39-5.78-3.78c-2.2-1.68-4-3.57-5.02-6.2
					c-1.82-4.71-2.1-10.01-2.07-15.01c0.03-4.84,0.34-9.71,1.15-14.47c0.88-5.16,2.38-10.25,4.88-14.87
					c1.29-2.36,2.77-4.67,4.88-6.36c2.24-1.8,4.95-2.92,7.58-4.03C454.16,229.61,453.87,228.49,453.18,228.79L453.18,228.79z"/>
			</g>
			<g>
				<path class="st2" d="M459.28,239.25c-1.99,4.88-4.11,9.72-6.39,14.47c-2,4.17-4.17,8.27-5.41,12.74
					c-2.52,9.05-2.11,18.57-1.68,27.84c0.03,0.74,1.19,0.74,1.16,0c-0.43-9.34-0.88-18.96,1.79-28.05
					c1.38-4.74,3.79-9.06,5.89-13.51c2.04-4.35,3.97-8.75,5.78-13.2C460.68,238.87,459.56,238.56,459.28,239.25L459.28,239.25z"/>
			</g>
			<g>
				<path class="st2" d="M464.86,294.78c-1.8-9.19-3.3-18.92-0.81-28.14c2.17-8.04,8.06-14.8,8.66-23.3c0.06-0.74-1.1-0.74-1.16,0
					c-0.62,8.85-7.1,15.97-8.99,24.52c-1.99,8.99-0.56,18.31,1.19,27.23C463.89,295.82,465.01,295.51,464.86,294.78L464.86,294.78z"
					/>
			</g>
			<g>
				<path class="st2" d="M469.26,291.51c-0.29-3.2-0.91-6.34-1.86-9.41c-0.22-0.71-1.33-0.41-1.12,0.31
					c0.92,2.98,1.52,6.01,1.82,9.1C468.19,292.25,469.33,292.25,469.26,291.51L469.26,291.51z"/>
			</g>
			<g>
				<path class="st2" d="M467.31,276.95c-0.15-3.44,0.7-6.73,2.52-9.66c0.39-0.63-0.6-1.22-0.99-0.59
					c-1.92,3.09-2.84,6.61-2.69,10.25C466.19,277.69,467.33,277.69,467.31,276.95L467.31,276.95z"/>
			</g>
			<g>
				<path class="st2" d="M474.06,288.21c-1.12-4.85-1.66-10.4-0.36-15.27c0.6-2.27,1.64-4.39,2.25-6.66
					c0.62-2.31,0.94-4.67,1.02-7.05c0.03-0.74-1.13-0.74-1.16,0c-0.1,2.64-0.5,5.24-1.27,7.78c-0.74,2.39-1.86,4.66-2.28,7.15
					c-0.81,4.74-0.38,9.72,0.7,14.38C473.11,289.24,474.23,288.94,474.06,288.21L474.06,288.21z"/>
			</g>
			<g>
				<path class="st2" d="M475.24,256.91c0.5-1.96,0.71-3.93,0.64-5.96c-0.03-0.74-1.17-0.74-1.16,0c0.07,1.92-0.14,3.79-0.62,5.65
					C473.95,257.33,475.05,257.64,475.24,256.91L475.24,256.91z"/>
			</g>
			<g>
				<path class="st2" d="M441.36,289.51c-1.22-3.86-1.58-7.89-1.03-11.92c0.1-0.73-1.01-1.03-1.12-0.31
					c-0.57,4.24-0.24,8.45,1.03,12.53C440.47,290.53,441.59,290.22,441.36,289.51L441.36,289.51z"/>
			</g>
			<g>
				<path class="st2" d="M440.3,272.14c0.76-4.18,1.99-8.24,3.68-12.14c0.29-0.67-0.7-1.26-0.99-0.59
					c-1.73,3.99-3.02,8.13-3.79,12.42C439.06,272.56,440.18,272.87,440.3,272.14L440.3,272.14z"/>
			</g>
			<g>
				<path class="st2" d="M447.63,254.11c1.48-2.85,3.41-5.3,5.37-7.83c1.59-2.06,3.01-4.21,3.62-6.77c0.17-0.73-0.94-1.03-1.12-0.31
					c-0.69,2.84-2.43,5.13-4.21,7.38c-1.75,2.21-3.36,4.45-4.67,6.95C446.29,254.2,447.28,254.78,447.63,254.11L447.63,254.11z"/>
			</g>
			<g>
				<path class="st2" d="M456.12,291.91c2.22,0,2.24-3.47,0-3.47C453.89,288.46,453.89,291.91,456.12,291.91L456.12,291.91z"/>
			</g>
			<g>
				<path class="st2" d="M456.45,280.67c2.22,0,2.24-3.47,0-3.47C454.23,277.2,454.22,280.67,456.45,280.67L456.45,280.67z"/>
			</g>
			<g>
				<path class="st2" d="M458.1,269.08c2.22,0,2.24-3.47,0-3.47C455.88,265.61,455.88,269.08,458.1,269.08L458.1,269.08z"/>
			</g>
			<g>
				<path class="st2" d="M461.08,258.64c2.22,0,2.24-3.47,0-3.47C458.86,255.19,458.86,258.64,461.08,258.64L461.08,258.64z"/>
			</g>
			<g>
				<path class="st2" d="M465.73,250.87c2.22,0,2.24-3.47,0-3.47C463.5,247.4,463.49,250.87,465.73,250.87L465.73,250.87z"/>
			</g>
			<g>
				<path class="st2" d="M440.19,289.79c-6.46,5.82-8.52,15.45-9.47,23.73c-1.12,9.76-0.13,19.69,2.39,29.16
					c0.13,0.46,0.83,0.59,1.05,0.14c0.14-0.29,0.29-0.57,0.43-0.87c0.34-0.66-0.66-1.24-0.99-0.59c-0.14,0.29-0.29,0.57-0.43,0.87
					c0.35,0.04,0.7,0.1,1.05,0.14c-2.39-9.03-3.38-18.45-2.46-27.77c0.83-8.28,2.78-18.18,9.24-24
					C441.56,290.11,440.75,289.3,440.19,289.79L440.19,289.79z"/>
			</g>
			<g>
				<path class="st2" d="M465.5,295.06c5.4,4.75,9.05,11.05,11.59,17.72c1.23,3.24,2.24,6.57,3.1,9.93
					c1.06,4.13,2.13,8.39,1.29,12.66c-0.14,0.73,0.96,1.03,1.12,0.31c0.81-4.1,0-8.14-0.99-12.12c-0.94-3.75-2.01-7.47-3.38-11.08
					c-2.62-6.85-6.34-13.33-11.89-18.22C465.75,293.76,464.94,294.57,465.5,295.06L465.5,295.06z"/>
			</g>
			<g>
				<path class="st2" d="M478.51,333.55c0.39-6.77-1.29-13.57-4.77-19.38c-1.75-2.91-3.92-5.47-6.43-7.75
					c-2.88-2.6-6.71-5.86-5.44-10.24c0.21-0.71-0.91-1.02-1.12-0.31c-0.96,3.3,0.71,6.42,2.95,8.77c2.63,2.76,5.55,4.99,7.76,8.14
					c4.24,6.04,6.34,13.4,5.9,20.77C477.31,334.29,478.47,334.29,478.51,333.55L478.51,333.55z"/>
			</g>
			<g>
				<path class="st2" d="M445.69,294.81c0.29,3.52,0,7.06-0.99,10.46c-0.95,3.24-2.52,6.28-3.19,9.61
					c-1.27,6.28-0.14,12.75,1.97,18.71c0.25,0.7,1.36,0.39,1.12-0.31c-2.22-6.25-3.37-13.13-1.61-19.65c0.84-3.1,2.32-5.99,3.1-9.12
					c0.8-3.17,1.02-6.45,0.74-9.71C446.78,294.07,445.62,294.07,445.69,294.81L445.69,294.81z"/>
			</g>
			<g>
				<path class="st2" d="M441.7,335.27c-2-3.9-3.15-8.1-3.43-12.46c-0.04-0.74-1.2-0.74-1.16,0c0.28,4.57,1.5,8.96,3.58,13.05
					C441.04,336.51,442.04,335.92,441.7,335.27L441.7,335.27z"/>
			</g>
			<g>
				<path class="st2" d="M435.8,331.56c-1.65-9.03-0.56-18.42,3.12-26.84c0.29-0.67-0.7-1.26-0.99-0.59
					c-3.82,8.73-4.95,18.35-3.24,27.72C434.82,332.6,435.94,332.29,435.8,331.56L435.8,331.56z"/>
			</g>
			<g>
				<path class="st2" d="M454.97,303c2.22,0,2.24-3.47,0-3.47C452.73,299.55,452.73,303,454.97,303L454.97,303z"/>
			</g>
			<g>
				<path class="st2" d="M454.64,311.37c2.96,0,2.98-4.62,0-4.62S451.66,311.37,454.64,311.37L454.64,311.37z"/>
			</g>
			<g>
				<path class="st2" d="M453.14,321.55c3.72,0,3.72-5.78,0-5.78C449.43,315.77,449.42,321.55,453.14,321.55L453.14,321.55z"/>
			</g>
			<g>
				<path class="st2" d="M454.64,331.14c3.71,0,3.72-5.78,0-5.78C450.92,325.38,450.92,331.14,454.64,331.14L454.64,331.14z"/>
			</g>
			<g>
				<path class="st2" d="M608.86,121.61c4.2,1.62,8.75,4.41,11.05,8.39c2.32,4.03,1.83,8.96,1.38,13.4c-0.07,0.74,1.08,0.73,1.16,0
					c0.48-4.8,0.91-10.13-1.8-14.4c-2.56-4.03-7.13-6.82-11.48-8.5C608.47,120.22,608.16,121.34,608.86,121.61L608.86,121.61z"/>
			</g>
			<g>
				<path class="st2" d="M620.94,148.51c-0.35,2.03-1.22,3.82-2.62,5.33c-0.5,0.55,0.31,1.36,0.81,0.81
					c1.52-1.65,2.53-3.62,2.91-5.83C622.19,148.09,621.07,147.77,620.94,148.51L620.94,148.51z"/>
			</g>
			<g>
				<path class="st2" d="M615.85,157.78c-2.2,2.76-5.43,4.45-7.45,7.34c-0.43,0.62,0.57,1.19,0.99,0.59
					c1.97-2.81,5.15-4.43,7.27-7.1C617.13,158.02,616.32,157.2,615.85,157.78L615.85,157.78z"/>
			</g>
			<g>
				<path class="st2" d="M606.08,169.35c-1.37,2.17-2.1,4.57-2.17,7.12c-0.03,0.74,1.13,0.74,1.16,0c0.07-2.36,0.76-4.55,2.01-6.54
					C607.48,169.29,606.47,168.72,606.08,169.35L606.08,169.35z"/>
			</g>
			<g>
				<path class="st2" d="M603.1,180.54c-0.03,2.2,0.64,4.28,1.96,6.04c0.43,0.59,1.44,0.01,0.99-0.59c-1.2-1.62-1.82-3.44-1.8-5.47
					C604.26,179.8,603.11,179.8,603.1,180.54L603.1,180.54z"/>
			</g>
			<g>
				<path class="st2" d="M608.3,190.3c1.58,1.22,3.4,2.04,5.36,2.45c0.73,0.15,1.03-0.96,0.31-1.12c-1.87-0.39-3.55-1.16-5.08-2.32
					C608.3,188.85,607.73,189.85,608.3,190.3L608.3,190.3z"/>
			</g>
			<g>
				<path class="st2" d="M602.75,122.47c2.14,0.9,3.99,2.42,5.22,4.39c1.38,2.21,1.73,4.74,1.89,7.3c0.15,2.57,0.21,5.13-0.5,7.65
					c-0.66,2.38-1.8,4.57-3.01,6.71c-4.74,8.47-9.54,17.52-10.13,27.42c-0.29,5.05,0.76,10.18,3.55,14.43
					c0.41,0.62,1.4,0.04,0.99-0.59c-6.15-9.4-2.91-21.15,1.3-30.61c2.06-4.63,4.89-8.84,7.02-13.44c2.11-4.57,2.36-9.29,1.66-14.24
					c-0.64-4.6-3.4-8.35-7.71-10.14C602.36,121.07,602.07,122.19,602.75,122.47L602.75,122.47z"/>
			</g>
			<g>
				<path class="st2" d="M598,123.63c0.7,0.76,1.4,1.52,2.1,2.28c0.7,0.77,1.52,1.55,1.61,2.64c0.06,0.74,1.22,0.74,1.16,0
					c-0.2-2.34-2.57-4.14-4.06-5.75C598.32,122.28,597.51,123.09,598,123.63L598,123.63z"/>
			</g>
			<g>
				<path class="st2" d="M602.22,132.37c0.11,2.41,0.1,4.81-0.04,7.22c-0.04,0.74,1.1,0.74,1.16,0c0.14-2.41,0.15-4.81,0.04-7.22
					C603.34,131.63,602.18,131.63,602.22,132.37L602.22,132.37z"/>
			</g>
			<g>
				<path class="st2" d="M601.17,143.41c-1.15,4.53-2.92,8.81-5.33,12.81c-0.38,0.64,0.62,1.22,0.99,0.59
					c2.46-4.08,4.29-8.47,5.45-13.09C602.46,142.99,601.35,142.68,601.17,143.41L601.17,143.41z"/>
			</g>
			<g>
				<path class="st2" d="M592.18,163.21c-1.22,3.44-1.96,6.99-2.24,10.63c-0.06,0.74,1.09,0.74,1.16,0
					c0.27-3.54,1.01-6.98,2.2-10.32C593.53,162.82,592.43,162.51,592.18,163.21L592.18,163.21z"/>
			</g>
			<g>
				<path class="st2" d="M590.54,177.39c0.08,3.75,1.22,7.31,3.33,10.4c0.42,0.62,1.41,0.03,0.99-0.59
					c-2.01-2.94-3.1-6.27-3.17-9.83C591.67,176.65,590.53,176.64,590.54,177.39L590.54,177.39z"/>
			</g>
			<g>
				<path class="st2" d="M593.2,132.19c2.96,0,2.98-4.62,0-4.62C590.23,127.58,590.23,132.19,593.2,132.19L593.2,132.19z"/>
			</g>
			<g>
				<path class="st2" d="M586.91,140.85c2.96,0,2.98-4.62,0-4.62C583.94,136.23,583.93,140.85,586.91,140.85L586.91,140.85z"/>
			</g>
			<g>
				<path class="st2" d="M582.44,152.4c2.96,0,2.98-4.62,0-4.62C579.47,147.79,579.47,152.4,582.44,152.4L582.44,152.4z"/>
			</g>
			<g>
				<path class="st2" d="M582.18,164.34c2.96,0,2.98-4.62,0-4.62C579.21,159.73,579.2,164.34,582.18,164.34L582.18,164.34z"/>
			</g>
			<g>
				<path class="st2" d="M584.15,174.19c2.96,0,2.98-4.62,0-4.62C581.17,169.57,581.17,174.19,584.15,174.19L584.15,174.19z"/>
			</g>
			<g>
				<path class="st2" d="M616.43,137.05c2.96,0,2.98-4.62,0-4.62C613.46,132.43,613.45,137.05,616.43,137.05L616.43,137.05z"/>
			</g>
			<g>
				<path class="st2" d="M615.11,148.86c2.96,0,2.98-4.62,0-4.62C612.15,144.25,612.15,148.86,615.11,148.86L615.11,148.86z"/>
			</g>
			<g>
				<path class="st2" d="M611.45,156.41c2.22,0,2.24-3.47,0-3.47C609.21,152.96,609.21,156.41,611.45,156.41L611.45,156.41z"/>
			</g>
			<g>
				<path class="st2" d="M607.38,161.35c1.48,0,1.48-2.31,0-2.31C605.9,159.04,605.88,161.35,607.38,161.35L607.38,161.35z"/>
			</g>
			<g>
				<path class="st2" d="M591.45,356.2c5.03,0.2,10.07,0.39,15.09,0.59c0.74,0.03,0.74-1.12,0-1.16c-5.03-0.2-10.07-0.39-15.09-0.59
					C590.7,355.01,590.7,356.17,591.45,356.2L591.45,356.2z"/>
			</g>
			<g>
				<path class="st2" d="M598.89,359.2c2.36,0.83,4.82,0.94,7.3,1.03c2.71,0.1,5.43,0.17,8.14,0.2c5.62,0.07,11.24,0,16.85-0.06
					c0.74-0.01,0.74-1.16,0-1.16c-5.43,0.06-10.85,0.11-16.28,0.06c-2.71-0.03-5.43-0.08-8.14-0.18c-2.56-0.1-5.12-0.17-7.57-1.02
					C598.48,357.84,598.19,358.94,598.89,359.2L598.89,359.2z"/>
			</g>
			<g>
				<path class="st2" d="M639.63,359.42c1.45,0.17,2.89,0.34,4.35,0.5c0.74,0.08,0.73-1.08,0-1.16c-1.45-0.17-2.89-0.34-4.35-0.5
					C638.89,358.19,638.9,359.34,639.63,359.42L639.63,359.42z"/>
			</g>
			<g>
				<path class="st2" d="M651.85,467.69c1.75,1.2,4,1.23,6.06,1.16c2.32-0.08,4.63-0.46,6.88-1.02c4.52-1.09,8.91-2.73,13.17-4.53
					c8.81-3.73,17.16-8.43,25.8-12.52c0.67-0.32,0.08-1.31-0.59-0.99c-8,3.79-15.75,8.08-23.83,11.66
					c-4.11,1.82-8.34,3.45-12.66,4.68c-2.32,0.66-4.68,1.22-7.08,1.44c-2.29,0.22-5.17,0.49-7.16-0.9
					C651.82,466.28,651.25,467.27,651.85,467.69L651.85,467.69z"/>
			</g>
			<g>
				<path class="st2" d="M682.03,453.4c7.37-4.36,16.39-4.67,23.56-9.45c6.31-4.2,10.68-10.68,13.24-17.73
					c0.25-0.7-0.87-1.01-1.12-0.31c-2.6,7.16-7.23,13.8-13.86,17.76c-6.96,4.15-15.44,4.59-22.42,8.73
					C680.81,452.78,681.39,453.78,682.03,453.4L682.03,453.4z"/>
			</g>
			<g>
				<path class="st2" d="M725.58,433.48c1.26-14.59-6.34-27.94-16.81-37.54c-0.55-0.5-1.37,0.31-0.81,0.81
					c10.26,9.41,17.7,22.42,16.47,36.72C724.36,434.21,725.51,434.21,725.58,433.48L725.58,433.48z"/>
			</g>
			<g>
				<path class="st2" d="M699.61,394.84c-5.62,3.54-10.14,8.56-13.05,14.53c-0.32,0.67,0.67,1.24,0.99,0.59
					c2.82-5.8,7.17-10.68,12.63-14.12C700.83,395.44,700.24,394.44,699.61,394.84L699.61,394.84z"/>
			</g>
			<g>
				<path class="st2" d="M690.94,409.9c-4.04,6.42-8.14,12.85-13.41,18.35c-0.52,0.53,0.29,1.36,0.81,0.81
					c5.34-5.57,9.5-12.08,13.59-18.59C692.32,409.86,691.33,409.28,690.94,409.9L690.94,409.9z"/>
			</g>
			<g>
				<path class="st2" d="M642.71,518.9c5.71-4.96,12.03-9.16,18.82-12.49c0.67-0.32,0.08-1.33-0.59-0.99
					c-6.88,3.38-13.27,7.64-19.06,12.67C641.33,518.57,642.15,519.39,642.71,518.9L642.71,518.9z"/>
			</g>
			<g>
				<path class="st2" d="M645.95,508.74c1.94-1.78,4.04-3.34,6.29-4.73c0.63-0.39,0.06-1.38-0.59-0.99
					c-2.34,1.43-4.5,3.06-6.53,4.91C644.58,508.41,645.39,509.23,645.95,508.74L645.95,508.74z"/>
			</g>
			<g>
				<path class="st2" d="M542.57,512.76c7.55-3.09,15.16-6.03,22.82-8.82c0.69-0.25,0.39-1.37-0.31-1.12
					c-7.66,2.8-15.27,5.73-22.82,8.82C541.59,511.92,541.89,513.04,542.57,512.76L542.57,512.76z"/>
			</g>
			<g>
				<path class="st2" d="M542.69,505.34c2.6-0.7,5.22-1.27,7.87-1.72c0.73-0.13,0.42-1.23-0.31-1.12c-2.66,0.43-5.27,1.01-7.87,1.72
					C541.65,504.41,541.96,505.53,542.69,505.34L542.69,505.34z"/>
			</g>
			<g>
				<path class="st2" d="M483.52,507.6c0.32,4.14,0.45,8.28,0.36,12.43c-0.01,0.74,1.13,0.74,1.16,0c0.08-4.15-0.04-8.29-0.36-12.43
					C484.61,506.88,483.45,506.86,483.52,507.6L483.52,507.6z"/>
			</g>
			<g>
				<path class="st2" d="M460.09,466.84c4.78-0.77,9.61-1.19,14.46-1.27c0.74-0.01,0.74-1.16,0-1.16
					c-4.95,0.08-9.87,0.53-14.77,1.31C459.06,465.84,459.36,466.96,460.09,466.84L460.09,466.84z"/>
			</g>
			<g>
				<path class="st2" d="M473.84,462.12c3.45,0.11,6.92,0.21,10.38,0.32c0.74,0.03,0.74-1.13,0-1.16
					c-3.45-0.11-6.92-0.21-10.38-0.32C473.1,460.95,473.1,462.1,473.84,462.12L473.84,462.12z"/>
			</g>
			<g>
				<path class="st2" d="M426.97,438.13c3.59-0.08,7.17-0.25,10.75-0.5c0.74-0.06,0.74-1.2,0-1.16c-3.58,0.25-7.16,0.42-10.75,0.5
					C426.23,436.98,426.23,438.14,426.97,438.13L426.97,438.13z"/>
			</g>
			<g>
				<path class="st2" d="M436.27,369.59c-0.01,4.98,0.9,9.89,2.7,14.53c0.27,0.69,1.38,0.39,1.12-0.31
					c-1.78-4.56-2.69-9.33-2.67-14.22C437.42,368.84,436.27,368.84,436.27,369.59L436.27,369.59z"/>
			</g>
			<g>
				<path class="st2" d="M441.18,375.5c0.2,3.61,1.19,7.09,2.22,10.53c1.03,3.45,2.21,6.85,3.54,10.21c1.27,3.22,2.67,6.41,4.2,9.51
					c1.36,2.77,2.88,5.47,5.26,7.48c0.56,0.48,1.38-0.34,0.81-0.81c-2.31-1.96-3.76-4.56-5.08-7.24c-1.57-3.19-2.99-6.45-4.28-9.75
					c-1.2-3.09-2.29-6.24-3.26-9.43c-1.03-3.43-2.06-6.91-2.27-10.49C442.29,374.76,441.14,374.76,441.18,375.5L441.18,375.5z"/>
			</g>
			<g>
				<path class="st2" d="M696.67,594.72c3.87-0.6,7.06-4.13,9.65-6.81c3.08-3.19,5.82-6.67,8.54-10.15c0.45-0.57-0.36-1.4-0.81-0.81
					c-2.52,3.2-5.03,6.41-7.82,9.38c-2.62,2.8-5.92,6.67-9.87,7.29C695.64,593.72,695.95,594.84,696.67,594.72L696.67,594.72z"/>
			</g>
			<g>
				<path class="st2" d="M705.44,580.95c7.31-7.03,14.91-14.25,24.53-17.94c0.69-0.27,0.39-1.38-0.31-1.12
					c-9.83,3.78-17.57,11.06-25.05,18.24C704.08,580.65,704.91,581.47,705.44,580.95L705.44,580.95z"/>
			</g>
			<g>
				<path class="st2" d="M729.58,567.86c6.98-3.44,14.29-6.11,21.83-8.01c0.71-0.18,0.42-1.3-0.31-1.12
					c-7.64,1.92-15.05,4.64-22.11,8.13C728.33,567.19,728.91,568.19,729.58,567.86L729.58,567.86z"/>
			</g>
			<g>
				<path class="st2" d="M645.81,574.41c2.71-2.11,6.06-3.06,9.37-3.79c3.66-0.8,7.37-1.34,11.1-1.64c0.74-0.06,0.74-1.22,0-1.16
					c-4.01,0.32-8,0.9-11.92,1.79c-3.36,0.77-6.61,1.83-9.37,3.97C644.4,574.05,645.22,574.86,645.81,574.41L645.81,574.41z"/>
			</g>
			<g>
				<path class="st2" d="M648.79,569.15c1.45-0.56,2.94-0.98,4.46-1.26c0.73-0.14,0.42-1.24-0.31-1.12
					c-1.52,0.29-3.01,0.71-4.46,1.26C647.8,568.31,648.09,569.42,648.79,569.15L648.79,569.15z"/>
			</g>
			<g>
				<path class="st2" d="M758.01,396.73c3.17-3.57,5.41-7.76,6.59-12.39c0.18-0.71-0.92-1.02-1.12-0.31
					c-1.13,4.43-3.26,8.46-6.29,11.87C756.7,396.47,757.52,397.29,758.01,396.73L758.01,396.73z"/>
			</g>
			<g>
				<path class="st2" d="M759.38,386.96c2.14-6.42,3.68-13.01,4.6-19.72c0.1-0.73-1.01-1.03-1.12-0.31
					c-0.91,6.71-2.45,13.3-4.6,19.72C758.04,387.36,759.14,387.67,759.38,386.96L759.38,386.96z"/>
			</g>
			<g>
				<path class="st2" d="M799.52,307.45c3.27,0,6.54,0,9.82,0c0.74,0,0.74-1.16,0-1.16c-3.27,0-6.54,0-9.82,0
					C798.76,306.3,798.76,307.45,799.52,307.45L799.52,307.45z"/>
			</g>
			<g>
				<path class="st2" d="M803.41,303.95c1.97,0,3.94,0,5.92,0c0.74,0,0.74-1.16,0-1.16c-1.97,0-3.94,0-5.92,0
					C802.66,302.81,802.66,303.95,803.41,303.95L803.41,303.95z"/>
			</g>
			<g>
				<path class="st2" d="M849.37,332.3c8.6,1.65,17.26,2.89,25.97,3.73c0.74,0.07,0.73-1.08,0-1.16
					c-8.61-0.83-17.17-2.07-25.66-3.69C848.95,331.06,848.65,332.16,849.37,332.3L849.37,332.3z"/>
			</g>
			<g>
				<path class="st2" d="M866.59,328.78c7.3,1.08,14.56,2.42,20.26,7.45c5.01,4.42,8.32,10.43,10.61,16.63
					c0.25,0.69,1.37,0.39,1.12-0.31c-2.36-6.38-5.76-12.59-10.92-17.13c-5.87-5.17-13.24-6.64-20.77-7.75
					C866.17,327.56,865.85,328.67,866.59,328.78L866.59,328.78z"/>
			</g>
			<g>
				<path class="st2" d="M889.9,355.22c6.84,7.86,15.62,13.8,25.44,17.29c0.7,0.25,1.01-0.87,0.31-1.12
					c-9.64-3.41-18.22-9.29-24.94-16.98C890.24,353.85,889.43,354.66,889.9,355.22L889.9,355.22z"/>
			</g>
			<g>
				<path class="st2" d="M912.99,365.01c2.59,1.26,5.26,2.24,8.06,2.92c0.73,0.18,1.03-0.94,0.31-1.12
					c-2.7-0.67-5.27-1.59-7.78-2.81C912.91,363.7,912.32,364.69,912.99,365.01L912.99,365.01z"/>
			</g>
			<g>
				<path class="st2" d="M921.54,373c4.27,1.78,8.22,4.18,11.76,7.15c0.56,0.48,1.38-0.34,0.81-0.81c-3.71-3.1-7.82-5.58-12.28-7.44
					C921.16,371.6,920.86,372.72,921.54,373L921.54,373z"/>
			</g>
			<g>
				<path class="st2" d="M935.67,375.04c5.55,3.19,10.07,7.85,13.09,13.48c0.35,0.66,1.34,0.07,0.99-0.59
					c-3.12-5.8-7.79-10.61-13.51-13.9C935.6,373.67,935.03,374.68,935.67,375.04L935.67,375.04z"/>
			</g>
			<g>
				<path class="st2" d="M637.1,462c4.13-5.82,8.49-11.47,13.09-16.92c0.48-0.56-0.34-1.38-0.81-0.81
					c-4.67,5.52-9.09,11.24-13.27,17.16C635.67,462.03,636.66,462.6,637.1,462L637.1,462z"/>
			</g>
			<g>
				<path class="st2" d="M632.85,455.69c12.22-12.89,24.99-26.54,29.66-44.18c1.27-4.78,1.85-9.72,1.61-14.66
					c-0.04-0.74-1.19-0.74-1.16,0c1.13,23.58-15.83,42.09-30.93,58.02C631.52,455.43,632.33,456.24,632.85,455.69L632.85,455.69z"/>
			</g>
			<g>
				<path class="st2" d="M582.42,432.78c15.58-11.73,23.91-30.05,30.18-47.98c0.25-0.7-0.87-1.01-1.12-0.31
					c-6.15,17.61-14.35,35.77-29.66,47.3C581.26,432.22,581.83,433.23,582.42,432.78L582.42,432.78z"/>
			</g>
			<g>
				<path class="st2" d="M539.37,418.76c15.66-6.78,23.24-23.14,27.69-38.61c0.21-0.71-0.91-1.02-1.12-0.31
					c-4.36,15.22-11.76,31.26-27.16,37.93C538.11,418.06,538.7,419.05,539.37,418.76L539.37,418.76z"/>
			</g>
			<g>
				<path class="st2" d="M506.66,411.88c10.15-7.72,18.04-18.07,22.77-29.91c0.28-0.69-0.84-0.99-1.12-0.31
					c-4.6,11.54-12.33,21.7-22.24,29.23C505.5,411.32,506.07,412.32,506.66,411.88L506.66,411.88z"/>
			</g>
			<g>
				<path class="st2" d="M477.63,390.09c9.43-5.03,17.26-12.71,22.49-22.03c0.36-0.64-0.63-1.23-0.99-0.59
					c-5.15,9.15-12.81,16.66-22.07,21.61C476.4,389.44,476.97,390.44,477.63,390.09L477.63,390.09z"/>
			</g>
			<g>
				<path class="st2" d="M649.19,598.78c5.2,0,5.2-8.08,0-8.08S643.99,598.78,649.19,598.78L649.19,598.78z"/>
			</g>
			<g>
				<path class="st2" d="M659.47,604.92c2.96,0,2.98-4.61,0-4.61C656.51,600.3,656.51,604.92,659.47,604.92L659.47,604.92z"/>
			</g>
			<g>
				<path class="st2" d="M664.33,594.69c1.48,0,1.48-2.31,0-2.31C662.83,592.38,662.83,594.69,664.33,594.69L664.33,594.69z"/>
			</g>
			<g>
				<path class="st2" d="M670.97,604.34c2.22,0,2.24-3.47,0-3.47C668.75,600.88,668.75,604.34,670.97,604.34L670.97,604.34z"/>
			</g>
			<g>
				<path class="st2" d="M679.44,595.9c1.48,0,1.48-2.31,0-2.31C677.96,593.6,677.96,595.9,679.44,595.9L679.44,595.9z"/>
			</g>
			<g>
				<path class="st2" d="M687.92,603.71c2.96,0,2.98-4.61,0-4.61C684.94,599.09,684.94,603.71,687.92,603.71L687.92,603.71z"/>
			</g>
			<g>
				<path class="st2" d="M939.62,358.61c4.46,0,4.46-6.92,0-6.92S935.14,358.61,939.62,358.61L939.62,358.61z"/>
			</g>
			<g>
				<path class="st2" d="M930.54,347.77c2.96,0,2.98-4.62,0-4.62C927.56,343.15,927.56,347.77,930.54,347.77L930.54,347.77z"/>
			</g>
			<g>
				<path class="st2" d="M943.24,367.77c2.22,0,2.24-3.47,0-3.47C941.02,364.31,941.02,367.77,943.24,367.77L943.24,367.77z"/>
			</g>
			<g>
				<path class="st2" d="M929.93,361.11c2.22,0,2.24-3.47,0-3.47C927.7,357.66,927.7,361.11,929.93,361.11L929.93,361.11z"/>
			</g>
			<g>
				<path class="st2" d="M919.65,356.16c5.2,0,5.2-8.08,0-8.08S914.45,356.16,919.65,356.16L919.65,356.16z"/>
			</g>
			<g>
				<path class="st2" d="M919.65,338.09c2.96,0,2.98-4.62,0-4.62C916.67,333.48,916.67,338.09,919.65,338.09L919.65,338.09z"/>
			</g>
			<g>
				<path class="st2" d="M909.97,334.55c0.74,0,0.74-1.16,0-1.16S909.22,334.55,909.97,334.55L909.97,334.55z"/>
			</g>
			<g>
				<path class="st2" d="M909.36,335.7c2.22,0,2.24-3.47,0-3.47C907.13,332.25,907.13,335.7,909.36,335.7L909.36,335.7z"/>
			</g>
			<g>
				<path class="st2" d="M903.31,326.05c1.48,0,1.48-2.31,0-2.31C901.83,323.74,901.82,326.05,903.31,326.05L903.31,326.05z"/>
			</g>
		</g>
	</g>
	<g>
		<polygon class="st1" points="401.97,155.09 396.95,138.32 410.04,150.13 423.66,135.07 417.74,152.78 428.48,159.24 
			414.79,161.63 412.53,176.89 406.77,160.15 395.87,161.84 		"/>
		<polygon class="st1" points="586.6,333.51 570.04,329.58 583.28,322.81 577.37,311.27 590.53,318.01 604.39,308.22 601.09,322.85 
			615.57,334.3 598.39,332.32 589.94,347.42 		"/>
		<path class="st1" d="M559.77,317.58c2.14-0.7,4.45,0.49,5.13,2.63c0.7,2.14-0.49,4.45-2.63,5.13c-2.14,0.7-4.45-0.49-5.13-2.63
			C556.45,320.55,557.62,318.26,559.77,317.58z"/>
		<path class="st1" d="M535.97,313.55c2.14-0.7,4.45,0.49,5.13,2.63c0.7,2.14-0.49,4.45-2.63,5.13c-2.14,0.7-4.45-0.49-5.13-2.63
			C532.66,316.54,533.83,314.25,535.97,313.55z"/>
		<path class="st1" d="M707.36,549.81c-0.17,2.25-2.11,3.94-4.36,3.78c-2.25-0.17-3.94-2.11-3.78-4.36
			c0.17-2.25,2.11-3.94,4.36-3.78C705.83,545.6,707.53,547.56,707.36,549.81z"/>
		<path class="st1" d="M727.33,558.58c-0.17,2.25-2.11,3.94-4.36,3.78c-2.25-0.17-3.94-2.11-3.78-4.36
			c0.17-2.25,2.11-3.94,4.36-3.78C725.8,554.38,727.5,556.34,727.33,558.58z"/>
		<path class="st1" d="M796.26,539.31c1.89,1.23,2.42,3.76,1.19,5.65c-1.23,1.89-3.76,2.42-5.65,1.19
			c-1.89-1.23-2.42-3.76-1.19-5.65C791.85,538.61,794.39,538.08,796.26,539.31z"/>
		<path class="st1" d="M813.64,526.12c1.89,1.23,2.42,3.76,1.19,5.65c-1.23,1.89-3.76,2.42-5.65,1.19
			c-1.89-1.23-2.42-3.76-1.19-5.65C809.22,525.42,811.75,524.89,813.64,526.12z"/>
		<path class="st1" d="M684.77,382.51l0.98,19.52l-10.01-11.93l-22.92,4.41l18.67-15.66l-3.44-17.06l12.08,14.4
			c0,0,14.04-3.61,14.05-3.61C694.18,372.56,684.77,382.51,684.77,382.51z"/>
		<path class="st1" d="M650.93,368.52c0.62-2.11,2.82-3.31,4.94-2.7c2.11,0.62,3.31,2.82,2.7,4.94c-0.62,2.11-2.82,3.31-4.94,2.7
			C651.53,372.83,650.31,370.63,650.93,368.52z"/>
		<path class="st1" d="M635.49,357.34c0.62-2.11,2.82-3.31,4.94-2.7c2.11,0.62,3.31,2.82,2.7,4.94c-0.62,2.11-2.82,3.31-4.94,2.7
			C636.08,361.66,634.87,359.45,635.49,357.34z"/>
		<path class="st1" d="M620.15,346.23c0.62-2.11,2.82-3.31,4.94-2.7c2.11,0.62,3.31,2.82,2.7,4.94c-0.62,2.11-2.82,3.31-4.94,2.7
			C620.73,350.55,619.53,348.34,620.15,346.23z"/>
		<path class="st1" d="M438.18,129.63c1.78,1.3,2.15,3.79,0.85,5.55c-1.3,1.78-3.79,2.15-5.55,0.85c-1.78-1.3-2.15-3.79-0.85-5.55
			C433.91,128.72,436.4,128.33,438.18,129.63z"/>
		<path class="st1" d="M455.94,117.59c1.78,1.3,2.15,3.79,0.85,5.55s-3.79,2.15-5.55,0.85c-1.78-1.3-2.15-3.79-0.85-5.55
			C451.69,116.68,454.17,116.29,455.94,117.59z"/>
		<polygon class="st1" points="830.68,505.16 817.17,493.58 835.82,495.95 841.99,486.25 840.24,500.02 857.64,508.58 
			843.08,506.74 839.61,524.33 835.63,515.03 823.04,515.97 		"/>
		<path class="st1" d="M525.08,137.51c-0.95,2.04-3.38,2.92-5.43,1.97s-2.92-3.38-1.97-5.43c0.95-2.04,3.38-2.92,5.43-1.97
			C525.15,133.05,526.03,135.46,525.08,137.51z"/>
		<polygon class="st1" points="548.22,151.42 557.79,136.42 558.07,155.21 568.54,159.95 554.66,160.16 548.64,178.59 
			548.42,163.92 530.5,162.97 539.15,157.71 536.45,145.38 		"/>
		<path class="st1" d="M638.03,526.36c2.06,0.91,2.99,3.31,2.08,5.38c-0.91,2.06-3.31,2.99-5.38,2.08
			c-2.06-0.91-2.99-3.31-2.08-5.38C633.56,526.38,635.96,525.45,638.03,526.36z"/>
		<path class="st1" d="M721.22,448.99c-1.99,0.94-4.35,0.1-5.3-1.89c-0.94-1.99-0.1-4.36,1.89-5.3c1.99-0.94,4.36-0.1,5.3,1.89
			C724.04,445.68,723.2,448.06,721.22,448.99z"/>
		<polygon class="st1" points="733.86,471.06 751.06,475.61 733.24,481.59 731.91,493 727.5,479.86 708.1,479.73 722,475.05 
			717.47,457.7 725.09,464.33 736.03,458.01 		"/>
		<path class="st1" d="M457.21,301.97c0.35,2.17-1.12,4.21-3.29,4.56c-2.17,0.35-4.21-1.12-4.56-3.29
			c-0.35-2.17,1.12-4.21,3.29-4.56C454.82,298.33,456.86,299.8,457.21,301.97z"/>
		<path class="st1" d="M476.82,305.55c0.35,2.17-1.12,4.21-3.29,4.56c-2.17,0.35-4.21-1.12-4.56-3.29
			c-0.35-2.17,1.12-4.21,3.29-4.56C474.42,301.91,476.47,303.38,476.82,305.55z"/>
		<polygon class="st1" points="500.27,304.07 509.39,288.8 510.21,307.58 520.8,312.02 506.94,312.63 501.44,331.23 500.8,316.56 
			482.87,316.11 491.36,310.63 488.33,298.36 		"/>
		<polygon class="st1" points="426.64,286.74 411.73,278.26 429.81,277.09 433.87,266.78 434.74,280.12 452.78,285.03 
			438.67,285.96 438.61,303.23 433.14,295.17 421.39,298.36 		"/>
		<path class="st1" d="M422.08,252.99c1.96-1.1,4.45-0.42,5.55,1.54c1.1,1.96,0.42,4.45-1.54,5.55c-1.96,1.1-4.45,0.42-5.55-1.54
			C419.44,256.59,420.12,254.1,422.08,252.99z"/>
		<path class="st1" d="M418.63,233.19c1.96-1.1,4.45-0.42,5.55,1.54c1.1,1.96,0.42,4.45-1.54,5.55c-1.96,1.1-4.45,0.42-5.55-1.54
			C415.98,236.79,416.67,234.3,418.63,233.19z"/>
		<path class="st1" d="M414.89,211.7c1.96-1.1,4.45-0.42,5.55,1.54c1.1,1.96,0.42,4.45-1.54,5.55c-1.96,1.1-4.45,0.42-5.55-1.54
			C412.23,215.29,412.93,212.8,414.89,211.7z"/>
		<path class="st1" d="M411.12,190.01c1.96-1.1,4.45-0.42,5.55,1.54c1.1,1.96,0.42,4.45-1.54,5.55s-4.45,0.42-5.55-1.54
			C408.46,193.61,409.14,191.12,411.12,190.01z"/>
		<polygon class="st1" points="702.87,413.39 701.97,401.88 709.09,409.04 715.33,402.84 713.69,412.73 722.88,419.65 
			712.74,420.55 708.35,432.28 706.07,420.77 694.58,418.44 		"/>
		<path class="st1" d="M751.16,522.32c1.45,1.72,1.24,4.29-0.48,5.75s-4.29,1.24-5.75-0.48c-1.45-1.72-1.24-4.29,0.48-5.75
			C747.13,520.39,749.7,520.6,751.16,522.32z"/>
		<path class="st1" d="M746.19,501.9c1.45,1.72,1.24,4.29-0.48,5.75c-1.72,1.45-4.29,1.24-5.75-0.48c-1.45-1.72-1.24-4.29,0.48-5.75
			C742.17,499.97,744.74,500.18,746.19,501.9z"/>
		<polygon class="st1" points="594.19,512.89 603,501.62 602.82,513.03 617.63,521.57 599.79,521.31 593.51,532.4 593.72,518.62 
			584.21,513.88 		"/>
		<polygon class="st1" points="473.25,108.61 460.82,106.29 469.82,101.79 470.5,86.7 477.56,100.8 488.8,101.19 477.92,106.63 
			478.09,116.03 		"/>
		<polygon class="st1" points="502.45,126.85 486.73,135.2 495.75,118.7 488.98,109.42 501.15,116.08 515.48,103.01 508.45,115.87 
			523.55,125.54 513.46,125.84 509.72,137.91 		"/>
		<polygon class="st1" points="669.57,533.43 667.65,516.41 679.25,530.33 689.96,527.53 679.7,536.09 686.34,553.56 677.29,542.69 
			663.29,552.83 666.59,543.66 657.1,536.05 		"/>
		<path class="st1" d="M759.94,551.43c1.86-2.2,16.14-15.26,16.14-15.26l-6.45,17.2l16.1,5.51l-14.1,2.49l9.93,13.5l-13.65-4.68
			l1.22,19.3l-8.01-15.01l-9.64,11.33l3.54-15.26L736.17,569l16.95-5.1l-17.48-14.25l16.36,4.48l0.1-15.66L759.94,551.43z"/>
	</g>
</g>
</svg>
