<?xml version="1.0" encoding="utf-8"?>
<!-- Generator: Adobe Illustrator 25.3.0, SVG Export Plug-In . SVG Version: 6.00 Build 0)  -->
<svg version="1.1" id="Layer_1" xmlns="http://www.w3.org/2000/svg" xmlns:xlink="http://www.w3.org/1999/xlink" x="0px" y="0px"
	 viewBox="0 0 500 500" style="enable-background:new 0 0 500 500;" xml:space="preserve">
<style type="text/css">
	.st0{fill:none;stroke:#D7BE8A;stroke-width:3;stroke-linecap:round;stroke-linejoin:round;stroke-miterlimit:10;}
</style>
<g>
	<path class="st0" d="M236.3,466.51c-17.41,0-30.98-15.1-29.14-32.42c0.08-0.73,0.18-1.63,0.29-2.66
		c2.07-18.53,2.96-37.17,3.12-55.81c0.06-7.13,0.6-14.33,2.25-18.52c4.11-10.45,19.04-45.55,19.04-45.55l24.85-30.83
		c1.82-2.25,4.21-3.97,6.93-4.98c8.94-3.31,29.46-10.98,32.08-12.73c3.36-2.24,4.85,14.7-5.23,21.91
		c-10.08,7.21-17.55,12.8-17.55,12.8l-16.8,19.8c0,0,30.99-26.07,39.2-29.65c8.21-3.58,28.12-20.68,28.12-20.68
		s27.88-33.11,34.23-37.13c6.35-4.02,17.55-3.27,2.61,15.4c-14.93,18.67-19.79,31.36-22.78,33.6c-2.99,2.24-23.52,24.12-23.52,24.12
		l0,0l42.57-40.17c0,0,22.03-30.99,35.47-27.26c13.44,3.73-11.88,23.16-14.5,30.8c0,0-4.92,17.43-9.4,24.68
		c-4.48,7.25-7.47,16.58-8.21,19.95c-0.75,3.36-7.09,11.57-7.09,11.57s3.73,8.96-1.12,16.8s-20.91,32.11-20.91,32.11l-54.51,43.31
		c0,0-6.56,11.43-10.38,28.31c-3.06,13.5-14.83,23.21-28.66,23.21H236.3z"/>
	<line class="st0" x1="243.44" y1="328.73" x2="256.13" y2="317.53"/>
	<line class="st0" x1="330.44" y1="347.3" x2="352.84" y2="322.76"/>
	<polyline class="st0" points="326.33,324.4 359.56,292.59 377.55,266.56 	"/>
</g>
<path class="st0" d="M162.21,145.75c0-47.86,38.79-86.65,86.65-86.65c18.6,0,35.81,5.88,49.93,15.85c-18.28-18.51-43.66-30-71.73-30
	c-55.67,0-100.8,45.13-100.8,100.8c0,55.67,45.13,100.8,100.8,100.8c28.07,0,53.45-11.48,71.73-30
	c-14.12,9.97-31.33,15.85-49.93,15.85C201,232.4,162.21,193.6,162.21,145.75z"/>
</svg>
