<?xml version="1.0" encoding="utf-8"?>
<!-- Generator: Adobe Illustrator 25.3.0, SVG Export Plug-In . SVG Version: 6.00 Build 0)  -->
<svg version="1.1" id="Layer_1" xmlns="http://www.w3.org/2000/svg" xmlns:xlink="http://www.w3.org/1999/xlink" x="0px" y="0px"
	 viewBox="0 0 500 500" style="enable-background:new 0 0 500 500;" xml:space="preserve">
<style type="text/css">
	.st0{fill:none;stroke:#D7BE8A;stroke-width:3;stroke-linecap:round;stroke-linejoin:round;stroke-miterlimit:10;}
</style>
<g>
	<path class="st0" d="M290.88,376.86c-0.56-9.3-8.2-15.41-11.5-16.33c-32.17-8.95-52.25-6.56-61.23-8.53
		c-2.78-0.61-14.31-8.34-33.6-11.73c-19.29-3.39-59.61-10.21-59.78-11.76s-1.03-9.27,19.06-9.27c20.09,0,38.3,2.23,38.3,2.23
		l-40.02-39.16c0,0-9.62-8.93-2.4-11.34c7.21-2.4,35.38,23.01,35.38,23.01l-3.95-23.17c0,0-0.17-4.65,3.61-4.99
		c3.78-0.34,7.61,5.14,10.65,17.52c1.08,4.4,2.4,10.99,2.4,10.99l9,13.85l15.67,5.73l-13-15.46l-2.58-19.24c0,0-1.2-7.04,3.61-7.04
		s9.96,21.3,9.96,21.3l11.51,13.4l10.3,3.61c0,0,27.2-4.36,38.51-5.16c25.25-1.79,41.88,5.16,52.13,14.07
		c25.33,22,27.48,80.61,28.52,104.81c0.73,16.94-12.82,31.06-29.77,31.06l0,0c-17.16,0-30.78-14.46-29.75-31.59L290.88,376.86z"/>
	<polyline class="st0" points="175.09,293.99 187.11,304.64 210.13,313.05 	"/>
	<path class="st0" d="M251.61,341.87c0,0-16.78-5.83-32.46-7.35c-10.41-1.01-34.81,2.49-34.81,2.49s-5.72-2.12-5.54-7.76
		c0.17-5.63,8.05-10.63,20.24-12.57c12.19-1.94,24.74-4.91,33.24-6.21"/>
</g>
<g>
	<circle class="st0" cx="249.88" cy="168.71" r="43.77"/>
	<g>
		<g>
			<line class="st0" x1="249.88" y1="113.57" x2="249.88" y2="57.66"/>
			<line class="st0" x1="249.88" y1="279.77" x2="249.88" y2="223.86"/>
			<line class="st0" x1="194.74" y1="168.71" x2="138.83" y2="168.71"/>
			<line class="st0" x1="360.94" y1="168.71" x2="305.03" y2="168.71"/>
		</g>
		<g>
			<line class="st0" x1="210.89" y1="129.72" x2="182.97" y2="101.8"/>
			<line class="st0" x1="316.8" y1="235.63" x2="288.88" y2="207.71"/>
			<line class="st0" x1="210.89" y1="207.71" x2="182.97" y2="235.63"/>
			<line class="st0" x1="316.8" y1="101.8" x2="288.88" y2="129.72"/>
		</g>
		<g>
			<line class="st0" x1="229.3" y1="117.55" x2="214.56" y2="80.93"/>
			<line class="st0" x1="285.21" y1="256.5" x2="270.47" y2="219.87"/>
			<line class="st0" x1="198.72" y1="189.3" x2="162.1" y2="204.04"/>
			<line class="st0" x1="337.67" y1="133.39" x2="301.04" y2="148.13"/>
		</g>
		<g>
			<line class="st0" x1="199.15" y1="147.09" x2="162.83" y2="131.62"/>
			<line class="st0" x1="336.94" y1="205.81" x2="300.62" y2="190.33"/>
			<line class="st0" x1="228.26" y1="219.45" x2="212.79" y2="255.77"/>
			<line class="st0" x1="286.98" y1="81.66" x2="271.5" y2="117.98"/>
		</g>
		<g>
			<line class="st0" x1="204.86" y1="136.87" x2="187.98" y2="124.94"/>
			<line class="st0" x1="311.79" y1="212.49" x2="294.91" y2="200.55"/>
			<line class="st0" x1="218.04" y1="213.74" x2="206.11" y2="230.62"/>
			<line class="st0" x1="293.66" y1="106.81" x2="281.72" y2="123.69"/>
		</g>
		<g>
			<line class="st0" x1="195.89" y1="157.51" x2="175.64" y2="153.32"/>
			<line class="st0" x1="324.12" y1="184.11" x2="303.88" y2="179.91"/>
			<line class="st0" x1="238.68" y1="222.71" x2="234.49" y2="242.95"/>
			<line class="st0" x1="265.28" y1="94.47" x2="261.08" y2="114.72"/>
		</g>
		<g>
			<line class="st0" x1="195.53" y1="178.04" x2="175.16" y2="181.53"/>
			<line class="st0" x1="324.61" y1="155.89" x2="304.24" y2="159.39"/>
			<line class="st0" x1="259.21" y1="223.07" x2="262.7" y2="243.44"/>
			<line class="st0" x1="237.06" y1="93.99" x2="240.56" y2="114.36"/>
		</g>
		<g>
			<line class="st0" x1="219.73" y1="122.54" x2="208.43" y2="105.23"/>
			<line class="st0" x1="291.34" y1="232.19" x2="280.04" y2="214.89"/>
			<line class="st0" x1="203.71" y1="198.87" x2="186.4" y2="210.17"/>
			<line class="st0" x1="313.36" y1="127.26" x2="296.06" y2="138.56"/>
		</g>
	</g>
	<path class="st0" d="M221.72,168.71c0-20.78,16.85-37.63,37.63-37.63c8.08,0,15.55,2.55,21.68,6.88
		c-7.94-8.04-18.96-13.03-31.15-13.03c-24.18,0-43.77,19.6-43.77,43.77s19.6,43.77,43.77,43.77c12.19,0,23.21-4.99,31.15-13.03
		c-6.13,4.33-13.61,6.88-21.68,6.88C238.57,206.34,221.72,189.5,221.72,168.71z"/>
</g>
</svg>
