<?xml version="1.0" encoding="utf-8"?>
<!-- Generator: Adobe Illustrator 25.3.0, SVG Export Plug-In . SVG Version: 6.00 Build 0)  -->
<svg version="1.1" id="Layer_1" xmlns="http://www.w3.org/2000/svg" xmlns:xlink="http://www.w3.org/1999/xlink" x="0px" y="0px"
	 viewBox="0 0 500 500" style="enable-background:new 0 0 500 500;" xml:space="preserve">
<style type="text/css">
	.st0{fill:none;stroke:#D7BE8A;stroke-width:3;stroke-linecap:round;stroke-linejoin:round;stroke-miterlimit:10;}
</style>
<g>
	<path class="st0" d="M217.97,376.86c0.56-9.3,8.2-15.41,11.5-16.33c32.17-8.95,52.25-6.56,61.23-8.53
		c2.78-0.61,14.31-8.34,33.6-11.73c19.29-3.39,59.61-10.21,59.78-11.76c0.17-1.55,1.03-9.27-19.06-9.27
		c-20.09,0-38.3,2.23-38.3,2.23l40.02-39.16c0,0,9.62-8.93,2.4-11.34c-7.21-2.4-35.38,23.01-35.38,23.01l3.95-23.17
		c0,0,0.17-4.65-3.61-4.99c-3.78-0.34-7.61,5.14-10.65,17.52c-1.08,4.4-2.4,10.99-2.4,10.99l-9,13.85l-15.67,5.73l13-15.46
		l2.58-19.24c0,0,1.2-7.04-3.61-7.04s-9.96,21.3-9.96,21.3l-11.51,13.4l-10.3,3.61c0,0-27.2-4.36-38.51-5.16
		c-25.25-1.79-41.88,5.16-52.13,14.07c-25.33,22-27.48,80.61-28.52,104.81c-0.73,16.94,12.82,31.06,29.77,31.06l0,0
		c17.16,0,30.78-14.46,29.75-31.59L217.97,376.86z"/>
	<polyline class="st0" points="333.76,293.99 321.74,304.64 298.72,313.05 	"/>
	<path class="st0" d="M257.24,341.87c0,0,16.78-5.83,32.46-7.35c10.41-1.01,34.81,2.49,34.81,2.49s5.72-2.12,5.54-7.76
		c-0.17-5.63-8.05-10.63-20.24-12.57c-12.19-1.94-24.74-4.91-33.23-6.21"/>
</g>
<g>
	<g>
		<g>
			<g>
				<line class="st0" x1="148.34" y1="186.02" x2="182.42" y2="186.02"/>
				<line class="st0" x1="324.44" y1="186.02" x2="358.53" y2="186.02"/>
			</g>
			<g>
				<line class="st0" x1="253.43" y1="80.93" x2="253.43" y2="109.09"/>
				<line class="st0" x1="253.43" y1="262.96" x2="253.43" y2="291.12"/>
			</g>
		</g>
		<g>
			<g>
				<line class="st0" x1="183.94" y1="116.53" x2="191.72" y2="124.31"/>
				<line class="st0" x1="323.04" y1="255.63" x2="315.25" y2="247.85"/>
			</g>
			<line class="st0" x1="323.04" y1="116.53" x2="315.25" y2="124.31"/>
			<line class="st0" x1="183.94" y1="255.63" x2="191.72" y2="247.85"/>
		</g>
	</g>
	<polygon class="st0" points="253.43,164.42 272.07,116.47 264.23,167.32 304.35,135.11 272.14,175.22 322.98,167.39 275.03,186.02 
		322.98,204.66 272.14,196.83 304.35,236.94 264.23,204.73 272.07,255.57 253.43,207.63 234.8,255.57 242.63,204.73 202.52,236.94 
		234.73,196.83 183.88,204.66 231.83,186.02 183.88,167.39 234.73,175.22 202.52,135.11 242.63,167.32 234.8,116.47 	"/>
</g>
</svg>
