<?xml version="1.0" encoding="utf-8"?>
<!-- Generator: Adobe Illustrator 25.3.0, SVG Export Plug-In . SVG Version: 6.00 Build 0)  -->
<svg version="1.1" id="Layer_1" xmlns="http://www.w3.org/2000/svg" xmlns:xlink="http://www.w3.org/1999/xlink" x="0px" y="0px"
	 viewBox="0 0 1920 700" style="enable-background:new 0 0 1920 700;" xml:space="preserve">
<style type="text/css">
	.st0{fill:#1B1D50;}
	.st1{fill:#FFFFFF;}
	.st2{opacity:0.42;fill:#8AD2D0;enable-background:new    ;}
</style>
<rect class="st0" width="1920" height="700"/>
<g id="XMLID_138_">
	<g id="XMLID_146_">
		<g id="XMLID_147_">
			<path id="XMLID_148_" class="st1" d="M197.54,303.3c-42.75,0-77.54-34.78-77.54-77.54s34.78-77.54,77.54-77.54
				s77.54,34.78,77.54,77.54C275.07,268.52,240.3,303.3,197.54,303.3z M197.54,167c-32.4,0-58.76,26.36-58.76,58.76
				s26.36,58.76,58.76,58.76s58.76-26.36,58.76-58.76S229.94,167,197.54,167z"/>
		</g>
	</g>
	<g id="XMLID_139_">
		<g id="XMLID_143_">
			<g id="XMLID_144_">
				<path id="XMLID_145_" class="st1" d="M185.8,167.01c-3.98,0-7.67-2.55-8.94-6.54c-0.1-0.32-11.31-33.97-42.49-54.34
					c-21.29-13.9-44.72-12.21-44.95-12.2c-5.17,0.41-9.69-3.42-10.12-8.58c-0.43-5.16,3.37-9.68,8.52-10.13
					c1.21-0.1,29.93-2.37,56.81,15.19c36.94,24.12,49.59,62.72,50.12,64.35c1.57,4.94-1.15,10.22-6.09,11.79
					C187.71,166.86,186.75,167,185.8,167.01z"/>
			</g>
		</g>
		<g id="XMLID_140_">
			<g id="XMLID_141_">
				<path id="XMLID_142_" class="st1" d="M209.28,167c-0.95,0-1.92-0.15-2.88-0.46c-4.92-1.59-7.64-6.85-6.07-11.78
					c0.52-1.63,13.18-40.23,50.11-64.35c26.88-17.55,55.6-15.3,56.81-15.19c5.17,0.45,8.99,5,8.54,10.16
					c-0.45,5.16-5,8.99-10.14,8.54c-0.41-0.03-23.75-1.65-44.95,12.2c-31.18,20.36-42.39,54.02-42.5,54.36
					C216.93,164.46,213.24,166.99,209.28,167z"/>
			</g>
		</g>
	</g>
</g>
<g>
	<g>
		<path class="st2" d="M940.13,213c-2.72-5.42-7.86-8.8-13.5-10.64c-7.15-2.33-14.81-2.76-22.12-4.5
			c-7.55-1.79-14.93-4.33-21.98-7.58c-10.37-4.77-31.63-14.83-26.05-29.63c2.59-6.9,9.87-11.62,15.68-15.57
			c6.18-4.2,12.73-7.86,19.55-10.92c3.22-1.44,6.5-2.73,9.84-3.88c-0.06-0.39-0.03-0.81,0.07-1.19
			c-13.1,4.53-25.47,11.14-36.41,19.68c-5.54,4.32-11.41,10.18-10.62,17.81c0.71,7.01,6.47,12.32,11.94,16.09
			c15.14,10.41,32.67,15.68,50.58,18.68c8.59,1.44,18.16,3.91,22.2,12.53c4.75,10.12-5.13,16.97-12.47,21.91
			c-3.8,2.55-7.78,4.86-11.88,6.9c-2.31,1.15-4.68,2.3-7.12,3.2c-0.98,0.36-2.03,0.77-3.07,0.97c-1.68,0.31-2.75-0.38-4.25-1.04
			c-7.75-3.36-15.84-6.25-24.01-8.37c-7.88-2.05-16.2-3.39-24.33-2.31c-4.27,0.56-8.44,1.95-12.66,2.82
			c-4.74,0.98-9.54,1.71-14.37,2.1c-9.66,0.8-19.5,0.29-28.87-2.26c-3.9-1.07-7.6-2.66-11.44-3.87c-5.83-1.85-11.83-3.18-17.84-4.26
			c-16.9-3.03-34.23-3.99-51.37-3.14c-20.76,1.04-41.48,4.86-60.95,12.19c-21.46,8.09-41.16,20.52-57.17,36.99
			c-13.61,14.02-24.55,30.81-32.53,48.81c0.39,0.15,0.77,0.29,1.16,0.43c1.05-2.35,2.14-4.7,3.28-7.01
			c9.52-19.38,22.59-36.96,39.05-51c14.48-12.35,31.31-21.75,49.19-28.16c16.44-5.89,33.72-9.32,51.11-10.72
			c14.94-1.21,30.01-0.94,44.9,0.76c10.74,1.22,21.57,3.1,31.86,6.47c3.21,1.05,6.32,2.38,9.59,3.31c7.13,2.05,14.59,2.9,22.02,2.87
			c7.47-0.01,14.93-0.93,22.24-2.41c7.19-1.46,13.86-3.55,21.29-3.17c7.51,0.38,14.9,2.19,22.05,4.44c3.24,1.02,6.45,2.16,9.63,3.35
			c1.61,0.6,3.24,1.22,4.84,1.86c1.07,0.43,2.13,0.88,3.18,1.35c0.85,0.38,1.96,1.16,2.87,1.3c1.11,0.17,2.58-0.53,3.63-0.87
			c1.6-0.5,3.13-1.16,4.64-1.85c3.5-1.57,6.94-3.32,10.26-5.26c5.8-3.39,12.35-7.32,16.69-12.54
			C942.07,223.43,942.63,218.03,940.13,213z"/>
		<path class="st2" d="M588.92,330.42c4.19-0.8,8.44-1.28,12.68-1.63c5.77-0.48,11.58-0.69,17.35-1.01
			c0.21-0.39,0.46-0.76,0.76-1.11c-5.35,0.28-10.72,0.46-15.96,0.83c-3.98,0.28-7.96,0.67-11.91,1.28
			c-4.26,0.66-8.44,1.71-12.63,2.75c0.25,0.29,0.43,0.63,0.56,1.01C582.81,331.78,585.84,331.01,588.92,330.42z"/>
		<path class="st2" d="M951.97,331.53c-0.42-10.05-1.25-20.25-3.06-30.15c-1.81-9.92-4.95-19.78-11.14-27.88
			c-0.01-0.01-0.03-0.03-0.04-0.06c-0.01-0.01-0.03-0.04-0.04-0.06c-5.8-7.37-12.82-13.55-20.63-18.72
			c5.86-3.56,11.44-7.53,17.15-11.31c4.99-3.29,10.36-6.11,14.06-10.96c8.24-10.76,1.29-24.64-9.05-30.96
			c-6.52-3.98-14.06-5.77-21.43-7.43c-8.17-1.84-16.24-3.94-24.15-6.71c-7.9-2.76-16.12-5.83-23.32-10.16
			c-3.01-1.81-6.01-4.13-7.48-7.41c-1.68-3.74-0.67-7.67,1.74-10.81c2.47-3.22,5.9-5.56,9.29-7.71c4.27-2.69,8.59-5.35,12.88-8.02
			c5.38-3.35,10.75-6.7,16.13-10.05c-0.38-0.18-0.67-0.43-0.91-0.76c-4.29,2.68-8.58,5.34-12.87,8.02
			c-6.87,4.29-14.27,8.2-20.66,13.19c-4.29,3.35-8.41,8.11-7.44,13.96c1,6.03,6.87,9.75,11.88,12.26
			c14.84,7.44,30.6,12.03,46.71,15.75c7.9,1.82,16.3,4.02,22.61,9.39c5.44,4.63,9.64,11.87,8.51,19.2
			c-1.32,8.59-9.26,13.31-15.99,17.52c-6.42,4.02-12.47,8.56-18.99,12.46c-0.38,0.22-0.35,0.74,0,0.97
			c8.02,5.2,15.19,11.49,21.12,19c10.97,14.41,12.35,33.66,13.57,51.09c0.35,4.91,0.63,9.75,0.22,14.67
			c-0.48,5.68-1.58,11.3-2.65,16.87c-2.09,10.95-4.61,21.81-7.43,32.59c-2.8,10.78-5.91,21.47-9.18,32.12
			c-1.6,5.21-3.28,10.39-5.06,15.54c-1.74,5.07-3.03,10.27-4.77,15.35c-6.7,19.44-17.2,36.87-26.42,55.14
			c-4.64,9.18-9.15,18.71-15.61,26.8c-3.21,4.02-7.04,6.8-11.95,8.4c-4.62,1.49-9.49,2-14.31,2.4
			c6.52-10.09,13.73-20.04,18.78-30.95c4.7-10.13,7.96-20.83,11.97-31.23c4.5-11.69,9.36-23.24,13.73-34.97
			c3.04-8.16,6.59-17.28,4.19-26.1c-0.78-2.9-2.31-5.75-4.77-7.55c-8.28-6.1-16.68-11.87-24.41-18.68
			c-7.62-6.71-14.87-13.99-20.46-22.51c-0.67-1.02-1.11-1.02-2.56-1.32c-3.6-0.74-7.4-0.91-11.11-0.48
			c-0.01-0.03-0.04-0.06-0.06-0.08c-0.06,0.04-0.13,0.07-0.18,0.11c-1.82,0.22-3.62,0.6-5.35,1.14c-3.77,1.16-6.25,3.7-8.62,6.74
			c-3.66,4.71-7.29,9.49-11.56,13.68c-4.22,4.15-8.93,7.83-13.59,11.46c-4.85,3.77-9.88,6.78-15.54,9.1
			c-0.11-0.14-0.22-0.28-0.34-0.42c-0.43,0.06-0.85,0.08-1.3,0.08c0.2,0.25,0.41,0.5,0.6,0.76c-5.21,2.06-10.3,4.19-15.32,6.69
			c-5.89,2.93-11.87,5.24-18.14,7.23c-11.06,3.52-21.77,8.02-32.38,12.68c-4.13,1.82-8.31,4.04-11.03,7.76
			c-3.07,4.2-5.16,9.25-7.85,13.71c-13.55,22.35-27.29,44.61-40.99,66.87c-7.93,12.88-15.68,25.91-23.81,38.67
			c-3.91,6.12-7.89,12.31-12.47,17.95c-1.74,2.13-3.6,4.43-6.14,5.63c-3.98,1.88-8.8,1.42-12.96,0.49
			c-1.81-0.41-3.62-0.91-5.34-1.58c10.15-17.73,19.85-35.75,29.15-53.93c7.09-13.85,13.97-27.82,20.04-42.14
			c2.45-5.8,4.79-11.67,6.7-17.69c1.25-3.98,2.52-8.2,2.61-12.4c0.03-1.39-0.06-2.94-0.74-4.19c-1.09-1.96-3.56-2.17-5.42-3.01
			c-6.94-3.11-13.75-9.42-15.67-17.06c-0.01-0.03-0.03-0.06-0.04-0.08c-0.08-0.63-0.18-1.26-0.28-1.89
			c-0.49-3.35-0.95-6.74-0.67-10.12c0.27-3.18,1.3-6.21,2.76-9.03c2.69-5.2,6.52-9.7,9.47-14.73c3.15-5.35,4.98-11.31,5.72-17.48
			c0.76-6.33,0.39-12.77-0.49-19.07c-0.46-3.25-1.09-6.46-1.77-9.67c-0.69-3.29-1.05-6.85,2.17-8.9c2.7-1.71,5.79-2.92,8.59-4.48
			c3.06-1.72,6.04-3.59,8.93-5.58c4.7-3.25,9.59-7.12,11.84-12.56c0.42-1.02,0.7-2.06,0.85-3.13c-0.35,0.2-0.7,0.39-1.04,0.59
			c-0.07,0.04-0.14,0.06-0.21,0.1c-0.07,0.28-0.14,0.56-0.22,0.84c-0.95,3.07-3.01,5.7-5.27,7.95c-4.79,4.74-10.92,8.35-16.8,11.56
			c-1.5,0.81-3.03,1.6-4.57,2.35c-1.3,0.64-2.68,1.23-3.78,2.2c-2.09,1.84-2.34,4.57-1.98,7.18c0.45,3.25,1.32,6.46,1.84,9.7
			c0.56,3.45,0.95,6.94,1.11,10.43c0.29,6.57-0.25,13.26-2.31,19.54c-2.05,6.21-5.83,11.31-9.45,16.66
			c-3.34,4.92-6.25,10.18-6.57,16.24c-0.21,3.92,0.49,7.78,1.05,11.66c-0.13,0.18-0.25,0.35-0.41,0.5c0.17,0.01,0.34,0.01,0.48-0.01
			c0.35,2.45,0.62,4.91,0.55,7.37c-0.18,6.63-3.67,12.04-9.35,15.35c-6.05,3.52-13.17,3.95-20,3.27c-3.63-0.36-7.39-0.88-10.93-1.81
			c-3.29-0.85-5.4-2.89-6.53-6.07c-0.94-2.62-1.23-5.41-1.78-8.11c-0.57-2.8-1.47-5.52-2.61-8.16c-1.29-2.99-2.89-5.83-4.64-8.56
			c0.06-0.08,0.1-0.15,0.15-0.24c-0.14-0.07-0.28-0.13-0.42-0.2c-1.33-2.06-2.75-4.06-4.19-6.04c-3.55-4.84-7.3-9.52-10.62-14.51
			c-3.73-5.59-6.67-11.59-8.51-18.07c-1.89-6.69-2.7-13.61-2.93-20.53c-0.11-3.35,0.07-6.7,0-10.06c-0.06-2.4-0.42-4.81-1.37-7.02
			c-1.7-3.97-5.13-6.57-8.66-8.83c-0.7-0.45-1.42-0.9-2.13-1.33c-0.14,0.01-0.28,0.03-0.43,0.03c-0.69,0-1.25-0.2-1.68-0.53
			c-0.43-0.01-0.81-0.11-1.15-0.27l0,0c2.42,1.54,4.91,3,7.23,4.68c3.85,2.77,6.42,6.42,6.95,11.23c0.34,3.08,0.04,6.25,0.07,9.35
			c0.04,3.39,0.2,6.77,0.53,10.15c0.38,3.73,0.98,7.43,1.88,11.06c-0.52,0.45-1.05,0.87-1.33,1.22c-1.07,1.26-2,2.63-2.86,4.04
			c-1.77,2.9-3.2,6.01-4.51,9.14c-3,7.06-5.82,14.02-9.32,20.85c-8.72,17.03-18.09,33.75-28.86,49.57
			c-10.95,16.09-23.83,30.47-36.29,45.37c-5.76,6.9-11.31,13.96-16.29,21.44c-0.18,0.28-0.01,0.77,0.34,0.83
			c5.02,0.71,10.23,0.91,15.11-0.69c4.91-1.6,8.51-5.05,11.95-8.75c8.52-9.17,16.97-18.42,25.45-27.62
			c8.58-9.31,17.06-18.7,25.75-27.89c7.99-8.44,16.72-15.78,25.56-23.29c7.72-6.56,14.53-13.72,19.96-22.1
			c2.2,3.5,4.11,7.16,5.47,11.11c0.9,2.62,1.42,5.3,1.91,8c0.45,2.47,0.95,4.99,2.19,7.2c1.26,2.26,3.24,3.73,5.69,4.47
			c3.21,0.97,6.69,1.39,9.99,1.81c6.46,0.83,13.26,0.85,19.37-1.68c4.86-2,9.29-5.56,11.45-10.46c1.6-3.62,1.72-7.46,1.39-11.31
			c1.63,3.25,3.9,6.19,6.6,8.62c2.2,1.98,4.7,3.62,7.36,4.89c1.56,0.74,3.71,1.01,5.03,2.1c2.52,2.05,0.98,7.67,0.42,10.2
			c-1.47,6.6-3.92,12.98-6.45,19.24c-3.34,8.28-7.05,16.4-10.9,24.46c-7.96,16.68-16.51,33.06-25.3,49.31
			c-3.27,6.04-6.57,12.05-9.92,18.05c-1.63,2.9-3.8,5.87-5.05,8.96c-0.06,0.14-0.15,0.28-0.24,0.41c-0.2,0.35,0,0.69,0.34,0.83
			c5.1,2.12,11.35,3.42,16.82,2.24c5.79-1.25,9.26-6.48,12.56-10.97c6.64-9.07,12.45-18.71,18.25-28.31
			c12.94-21.4,26.25-42.58,39.33-63.88c6.59-10.75,13.61-21.36,19.72-32.39c2.52-4.55,4.37-9.36,8.8-12.46
			c4.13-2.92,9.03-4.5,13.64-6.49c5.8-2.52,11.59-5.03,17.56-7.15c5.76-2.05,11.69-3.6,17.36-5.89c5.41-2.16,10.47-5.07,15.8-7.41
			c2.73-1.19,5.54-2.23,8.31-3.32c1.68,2.02,3.49,3.9,5.3,5.56c1.51,1.39,3.11,2.69,4.78,3.88c2.65,1.85,5.68,3.59,6.91,6.76
			c1.18,2.99,0.6,6.33-0.27,9.31c-0.9,3.07-2.19,6.03-3.36,9c-1.26,3.18-2.51,6.36-3.78,9.53c-5.2,12.98-10.6,25.87-16.72,38.44
			c-3.45,7.08-7.13,14.06-11.13,20.85c-0.17,0.29-0.03,0.76,0.34,0.83c9.24,1.74,16.92-4.7,22.14-11.6c3.2-4.22,5.63-8.91,8-13.62
			c2.66-5.3,5.16-10.68,7.72-16.02c2.56-5.34,5.19-10.65,8.11-15.81c2.93-5.16,6.24-10.08,9.67-14.91
			c6.8-9.56,14.06-18.93,18.98-29.66c4.46-9.74,7.09-20.73,4.93-31.41c-0.97-4.82-2.93-9.46-5.69-13.55
			c0.95-0.08,1.91-0.14,2.86-0.15c1.79-0.04,3.6,0.07,5.37,0.34c0.66,0.1,2.97,0.21,3.41,0.53c0.11,0.08,0.14,0.32,0.24,0.42
			c0.6,0.59,1.02,1.64,1.51,2.33c2.51,3.62,5.4,6.98,8.41,10.18c5.61,5.97,11.74,11.42,18.14,16.54c4.32,3.46,8.76,6.77,13.29,9.94
			c1.67,1.16,3.56,2.17,5.02,3.62c3.85,3.84,4.37,9.98,3.83,15.08c-0.62,5.73-2.72,11.13-4.71,16.5
			c-2.21,5.94-4.53,11.84-6.87,17.73c-4.39,11.03-8.63,22.07-12.7,33.22c-1.93,5.33-3.97,10.62-6.39,15.74
			c-2.54,5.37-5.7,10.3-8.9,15.29l-10.13,15.82c-0.22,0.34,0.06,0.88,0.49,0.84c8.07-0.62,17.03-1.42,23.66-6.56
			c3.28-2.55,5.79-6.14,8.07-9.56c2.65-3.97,4.99-8.16,7.22-12.38c4.51-8.52,8.8-17.14,13.43-25.61
			c5.19-9.49,10.05-19.17,14.17-29.18c4.23-10.29,7.19-21.02,10.71-31.58c3.66-11,6.88-22.19,9.96-33.36
			c3.04-11.04,5.8-22.17,8.16-33.4C949.82,353.85,952.43,342.66,951.97,331.53z M558.58,452.97c-8.27,7.33-17,14.02-24.78,21.91
			c-16.66,16.89-32.35,34.83-48.42,52.28c-4.26,4.62-8.38,10.13-13.64,13.68c-5.45,3.67-12.15,3.92-18.47,3.13
			c14.23-21.18,32.8-39,47.64-59.75c7.43-10.37,14.2-21.19,20.53-32.26c6.05-10.58,12.21-21.39,17.18-32.53
			c3.77-8.42,6.26-19.02,12.92-25.84c0.62,2.34,1.35,4.64,2.23,6.9c2.2,5.65,5.33,10.81,8.83,15.74
			c4.11,5.77,8.77,11.35,12.67,17.35C570.69,440.8,565.05,447.22,558.58,452.97z M842.97,382.38c3.18,10.09,1.56,20.9-2.23,30.58
			c-4.05,10.34-10.53,19.44-16.97,28.39c-6.46,8.97-12.52,18.01-17.53,27.89c-5.02,9.88-9.39,20.08-14.69,29.82
			c-4.12,7.58-10.3,16.31-19.14,18.58c-1.93,0.49-3.92,0.59-5.89,0.31c7.27-12.49,13.52-25.52,19.24-38.78
			c2.87-6.64,5.62-13.34,8.31-20.07c1.37-3.42,2.72-6.84,4.08-10.27c1.25-3.15,2.63-6.31,3.43-9.6c0.73-2.99,0.97-6.24-0.31-9.1
			c-1.43-3.17-4.47-4.98-7.2-6.88c-3.43-2.44-6.77-5.47-9.61-8.89c2.28-0.93,4.53-1.91,6.69-3.11c4.84-2.69,9.14-6.25,13.44-9.71
			c4.51-3.64,8.9-7.39,12.73-11.76c3.5-3.98,6.43-8.48,10.02-12.38c2.82-3.07,6.73-4.4,10.75-4.92
			C840.2,375.52,841.87,378.87,842.97,382.38z"/>
		<g>
			<path class="st2" d="M657.86,304.02c13.16-6.04,27.01-10.39,40.63-15.22c13.01-4.62,25.94-9.49,38.63-14.91
				s25.14-11.41,37.11-18.29c11.02-6.32,21.79-13.31,31.34-21.74c9.94-8.77,18.44-19.33,23.05-31.87c-0.36-0.1-0.71-0.2-1.08-0.29
				c-3.43,21.64-15.39,40.94-30.79,56.19c-16.87,16.69-37.85,28.49-59.16,38.57c-22.26,10.53-45.33,19.31-67.09,30.88
				c-5.49,2.92-10.89,6.01-16.15,9.33c-4.02,2.54-8.23,5.58-13.05,6.22c-6.43,0.87-14.24-0.38-19.78-3.87
				c-2.33-1.46-4.46-3.7-4.22-6.63c0.29-3.76,3.84-6.43,6.63-8.48c3.49-2.56,7.26-4.71,10.93-6.98c4.82-2.97,9.54-6.05,14.55-8.73
				C652.23,306.72,655.03,305.33,657.86,304.02c0.66-0.31,0.08-1.28-0.56-0.97c-10.19,4.72-19.65,10.71-29.14,16.68
				c-4.86,3.06-14.63,8.7-11.34,15.89c1.21,2.62,3.85,4.36,6.39,5.54c3.27,1.51,6.81,2.35,10.37,2.77c3.14,0.38,6.45,0.46,9.56-0.25
				c5.28-1.22,9.92-4.93,14.46-7.71c22.05-13.51,46.18-23.01,69.7-33.55c22.51-10.09,44.9-21.36,63.67-37.63
				c16.64-14.42,30.4-33.17,36.01-54.7c0.7-2.66,1.25-5.37,1.68-8.09c0.11-0.71-0.83-0.98-1.08-0.29
				c-8.63,23.45-30.31,39.03-51.02,51.25c-23.64,13.96-49.19,24.29-74.97,33.55c-14.81,5.33-29.95,9.96-44.27,16.55
				C656.64,303.34,657.22,304.31,657.86,304.02z"/>
		</g>
		<g>
			<path class="st2" d="M534.01,316.9c-14.11-2.24-28.41-2.75-42.65-3.71c-14-0.95-28-2.14-41.92-3.95
				c-14-1.82-27.93-4.27-41.64-7.75c-12.31-3.11-24.57-6.91-36.03-12.42c-11.97-5.76-23.13-13.59-30.97-24.46
				c-0.42-0.59-1.28-0.1-0.97,0.56c8.93,19.47,25.03,34.72,43.35,45.38c21.3,12.39,45.56,18.53,69.66,22.68
				c25.79,4.46,51.95,6.73,77.5,12.6c6.46,1.49,12.78,3.36,19.16,5.17c4.32,1.22,8.54,2.02,12.95,1.04
				c3.69-0.81,7.27-2.3,10.54-4.19c3-1.74,6-3.94,7.89-6.9c1.56-2.44,1.96-5.34,0.5-7.92c-1.75-3.11-5.41-4.64-8.58-5.87
				c-4.06-1.57-8.3-2.65-12.47-3.84c-5.59-1.58-11.11-3.35-16.8-4.62C540.37,318.02,537.2,317.41,534.01,316.9
				c-0.7-0.11-1.01,0.97-0.29,1.08c10.72,1.74,21.01,4.89,31.42,7.88c4.05,1.16,8.3,2.37,11.94,4.57c2.72,1.64,4.82,4.4,3.9,7.71
				c-0.91,3.22-3.85,5.7-6.52,7.5c-3.15,2.13-6.69,3.77-10.33,4.84c-4.13,1.21-7.82,1.11-12.02,0.08
				c-6.15-1.5-12.15-3.55-18.32-5.05c-24.67-5.98-49.99-8.37-75.01-12.4c-23.69-3.83-47.6-9.15-69.07-20.24
				c-18.39-9.5-35.09-23.35-45.44-41.48c-1.25-2.2-2.4-4.46-3.46-6.76c-0.32,0.18-0.64,0.38-0.97,0.56
				c14.25,19.73,38.11,29.18,60.76,35.54c27.32,7.68,55.64,10.99,83.87,13.09c16.41,1.22,32.98,1.57,49.26,4.16
				C534.41,318.09,534.72,317.01,534.01,316.9z"/>
		</g>
		<g>
			<path class="st2" d="M905.16,125.08c1.04-1.44,2.09-2.86,3.5-3.94c1.28-0.98,2.72-1.7,4.13-2.42c3.06-1.54,6.17-3.03,9.36-4.3
				c3.06-1.22,6.26-2.23,9.59-2.38c0.24-0.01,2.7-0.03,2.69,0.1c0,0.1-1.25,0.36-1.63,0.43c-1.11,0.24-2.09,0.46-2.92,1.28
				c-0.42,0.41,0.01,1.05,0.55,0.94c1.51-0.32,3.04-0.56,4.6-0.71c0.71-0.07,1.42-0.11,2.13-0.15c0.35-0.01,0.71-0.03,1.07-0.03
				c-0.27,0.32-0.57,0.57-0.94,0.77c-1.58,1.08-4.09,1.42-5,3.27c-0.15,0.32-0.03,0.71,0.34,0.83c2.34,0.7,4.15-1.51,6.45-1.22
				c-0.18-0.18-0.38-0.38-0.56-0.56c0.01,0.71-1.93,1.58-2.44,1.91c-0.81,0.52-1.63,1.04-2.44,1.54c-0.38,0.24-0.36,0.94,0.14,1.02
				c0.83,0.15,1.64,0.2,2.48,0.07c0.39-0.07,0.8-0.27,1.19-0.31c0.46-0.22,0.88-0.07,1.28,0.49c-0.25,0.2-0.5,0.36-0.77,0.53
				c-1.71,1.11-3.64,1.84-5.51,2.63c-3.94,1.7-7.71,3.69-11.52,5.66c-4.04,2.09-8.25,3.13-12.81,2.97
				c-1.82-0.06-5.21-0.03-6.14-2.03c-0.52-1.14,0.64-2.55,1.21-3.43C903.81,126.99,904.48,126.04,905.16,125.08
				c0.42-0.59-0.55-1.15-0.97-0.56c-1.19,1.65-2.65,3.46-3.38,5.38c-0.5,1.32,0.28,2.56,1.33,3.34c1.46,1.08,3.43,1.21,5.19,1.3
				c2.1,0.13,4.23,0.03,6.31-0.32c4.47-0.74,8.23-3.04,12.21-5.06c2.03-1.04,4.11-2.02,6.19-2.94c1.96-0.87,3.99-1.61,5.84-2.68
				c0.97-0.56,3-1.7,1.98-3.08c-0.43-0.59-1.18-0.71-1.86-0.6c-1.42,0.24-2.45,0.77-3.94,0.5c0.04,0.34,0.08,0.69,0.14,1.02
				c1.33-0.84,2.66-1.68,3.98-2.52c0.76-0.49,1.47-0.91,1.44-1.89c0-0.34-0.25-0.52-0.56-0.56c-2.17-0.28-4.05,1.89-6.14,1.26
				c0.11,0.28,0.22,0.55,0.34,0.83c0.7-1.44,3.1-1.96,4.4-2.75c0.73-0.45,2.16-1.21,1.77-2.3c-0.42-1.16-2.47-0.66-3.32-0.59
				c-2,0.14-3.99,0.43-5.96,0.84c0.18,0.31,0.36,0.63,0.55,0.94c1.23-1.19,3.14-0.78,4.54-1.67c0.67-0.42,0.92-1.12,0.17-1.63
				c-1.36-0.9-3.95-0.45-5.45-0.27c-1.93,0.25-3.81,0.73-5.65,1.36c-3.83,1.3-7.51,3.07-11.13,4.86c-1.77,0.87-3.57,1.74-5.14,2.93
				c-1.56,1.18-2.7,2.73-3.84,4.3C903.77,125.1,904.74,125.66,905.16,125.08z"/>
		</g>
		<path class="st2" d="M567.91,404.38c1.58,1.51,3.66,2.62,5.84,2.63c0.22,0,0.48-0.01,0.64-0.17c0.15-0.14,0.22-0.35,0.27-0.56
			c0.69-3.18-0.52-6.45-1.89-9.39c-1.29-2.72-5.83-10.09-9.17-5.49C560.66,395.48,565.05,401.63,567.91,404.38z"/>
		<path class="st2" d="M614.65,459.26c-0.08-1.12-0.03-2.26,0.17-3.38c0.11-0.64,0.28-1.3,0.66-1.84c0.38-0.53,1.01-0.94,1.65-0.88
			c0.53,0.78,0.08,1.84-0.36,2.66c-0.57,1.05-1.15,2.09-1.72,3.14L614.65,459.26z"/>
		<path class="st2" d="M601,458.73c-1.51-1.01-2.45-2.83-2.38-4.65c1.72,0.55,2.83,2.56,2.35,4.32L601,458.73z"/>
		<path class="st2" d="M622.58,399.68c0.01,0.57,0.07,1.16,0.35,1.65c0.57,1.02,1.91,1.32,3.07,1.28c1.92-0.07,3.77-0.78,5.41-1.78
			c1.53-0.93,2.93-2.14,3.71-3.76c0.57-1.18,0.78-2.51,0.91-3.83c0.17-1.72,0.18-3.5-0.32-5.17c-1.21-3.97-6.18-6.05-8.7-2.19
			C624.32,390.04,622.42,394.69,622.58,399.68z"/>
		<g>
			<path class="st2" d="M537.97,430.8c1.74-3.49,3.69-6.85,5.86-10.09c0.41-0.6-0.57-1.16-0.97-0.56c-2.17,3.24-4.12,6.6-5.86,10.09
				C536.68,430.88,537.65,431.44,537.97,430.8L537.97,430.8z"/>
		</g>
		<g>
			<path class="st2" d="M536.9,442.15c2.49-3.48,3.67-7.69,6.19-11.14c0.42-0.59-0.55-1.15-0.97-0.56
				c-2.54,3.46-3.71,7.67-6.19,11.14C535.51,442.18,536.47,442.74,536.9,442.15L536.9,442.15z"/>
		</g>
		<g>
			<path class="st2" d="M533.11,437.73c-3.43,4.64-6.49,9.53-9.12,14.66c-0.34,0.64,0.64,1.21,0.97,0.56
				c2.63-5.13,5.69-10.02,9.12-14.66C534.51,437.72,533.55,437.16,533.11,437.73L533.11,437.73z"/>
		</g>
		<g>
			<path class="st2" d="M639.72,438.23c2.83,7.53,10.58,13.34,18.11,15.63c0.69,0.21,1-0.87,0.29-1.08
				c-7.12-2.14-14.65-7.69-17.32-14.84C640.57,437.26,639.47,437.54,639.72,438.23L639.72,438.23z"/>
		</g>
		<g>
			<path class="st2" d="M651.12,445.18c1.89,1.85,4.7,2.75,7.11,3.69c2.96,1.15,5.91,2.3,9.01,3c0.7,0.15,1.01-0.93,0.29-1.08
				c-2.76-0.63-5.42-1.61-8.06-2.63c-2.51-0.97-5.59-1.85-7.55-3.77C651.4,443.87,650.6,444.67,651.12,445.18L651.12,445.18z"/>
		</g>
		<g>
			<path class="st2" d="M656.02,456.11c-0.06-0.04-0.11-0.07-0.17-0.11c-0.14,0.34-0.29,0.69-0.43,1.02
				c2.47,0.91,4.72,2.8,4.46,5.68c-0.07,0.71,1.05,0.71,1.12,0c0.31-3.39-2.37-5.69-5.28-6.76c-0.62-0.22-0.94,0.69-0.43,1.02
				c0.06,0.04,0.11,0.08,0.17,0.11C656.05,457.48,656.63,456.52,656.02,456.11L656.02,456.11z"/>
		</g>
		<g>
			<path class="st2" d="M663.28,457.5c0.85,1.16,1.14,2.55,1.3,3.95c0.08,0.7,1.21,0.71,1.12,0c-0.2-1.6-0.49-3.2-1.46-4.53
				C663.83,456.36,662.85,456.92,663.28,457.5L663.28,457.5z"/>
		</g>
		<g>
			<path class="st2" d="M646.49,438.13c-1.56-1.43-2.41-3.29-2.45-5.41c-0.01-0.71-1.14-0.73-1.12,0c0.04,2.4,1.02,4.58,2.79,6.21
				C646.24,439.4,647.04,438.62,646.49,438.13L646.49,438.13z"/>
		</g>
		<g>
			<path class="st2" d="M638.14,547.53c1.61-3,3.36-5.91,5.27-8.75c0.41-0.6-0.56-1.16-0.97-0.56c-1.89,2.83-3.66,5.75-5.27,8.75
				C636.84,547.6,637.8,548.16,638.14,547.53L638.14,547.53z"/>
		</g>
		<g>
			<path class="st2" d="M639.04,539.67c1.26-2.8,2.89-5.38,4.89-7.71c0.48-0.55-0.32-1.35-0.8-0.8c-2.07,2.4-3.77,5.05-5.07,7.93
				C637.78,539.75,638.74,540.33,639.04,539.67L639.04,539.67z"/>
		</g>
		<g>
			<path class="st2" d="M647.07,534.96c4.36-6.22,8.62-12.5,12.77-18.86c0.39-0.6-0.57-1.16-0.97-0.56
				c-4.15,6.36-8.41,12.66-12.77,18.86C645.68,534.99,646.66,535.55,647.07,534.96L647.07,534.96z"/>
		</g>
		<g>
			<path class="st2" d="M649.76,525.13c0.49-0.85,0.97-1.71,1.44-2.58c0.34-0.63-0.63-1.21-0.97-0.56
				c-0.46,0.87-0.95,1.72-1.44,2.58C648.43,525.19,649.39,525.75,649.76,525.13L649.76,525.13z"/>
		</g>
		<g>
			<path class="st2" d="M653.28,520.12c0.66-1.4,1.4-2.75,2.23-4.05c0.39-0.6-0.57-1.18-0.97-0.56c-0.84,1.3-1.58,2.65-2.23,4.05
				C652,520.2,652.97,520.77,653.28,520.12L653.28,520.12z"/>
		</g>
		<g>
			<path class="st2" d="M737.16,427.87c2.59-0.27,5-1.82,7.44-2.66c2.68-0.92,5.33-1.86,7.92-3c5.55-2.42,11.03-5.03,16.52-7.55
				c0.66-0.29,0.08-1.26-0.56-0.97c-5.17,2.38-10.33,4.81-15.53,7.12c-2.59,1.15-5.21,2.16-7.89,3.07
				c-1.33,0.45-2.68,0.91-3.97,1.47c-1.29,0.55-2.51,1.28-3.92,1.42C736.46,426.83,736.44,427.95,737.16,427.87L737.16,427.87z"/>
		</g>
		<g>
			<path class="st2" d="M776.4,411.39c4.48-1.79,8.96-3.63,13.16-6.03c4.19-2.4,7.92-5.44,11.6-8.54c0.56-0.46-0.24-1.25-0.8-0.8
				c-3.62,3.03-7.26,6.01-11.38,8.35c-4.12,2.34-8.51,4.15-12.89,5.91C775.43,410.56,775.73,411.65,776.4,411.39L776.4,411.39z"/>
		</g>
		<g>
			<path class="st2" d="M763.98,411.13c4.85-1.4,8.79-4.67,13.29-6.81c0.64-0.31,0.08-1.28-0.56-0.97c-4.41,2.1-8.27,5.33-13.02,6.7
				C762.99,410.25,763.28,411.33,763.98,411.13L763.98,411.13z"/>
		</g>
		<g>
			<path class="st2" d="M774.07,399.07c2.93-1.61,5.75-3.39,8.48-5.33c0.59-0.42,0.03-1.39-0.56-0.97
				c-2.72,1.93-5.55,3.71-8.48,5.33C772.88,398.44,773.44,399.42,774.07,399.07L774.07,399.07z"/>
		</g>
		<g>
			<path class="st2" d="M764.11,403.5c1.44-0.64,2.85-1.39,4.19-2.2c0.62-0.38,0.06-1.35-0.56-0.97c-1.36,0.81-2.75,1.56-4.19,2.2
				C762.89,402.82,763.46,403.79,764.11,403.5L764.11,403.5z"/>
		</g>
		<g>
			<path class="st2" d="M575.87,384.55c1.71,0.84,3.14,1.78,4.2,3.42c0.85,1.32,1.72,2.69,2.45,4.09c1.77,3.36,2.41,7.76,2.56,11.52
				c0.03,0.71,1.15,0.73,1.12,0c-0.17-3.98-0.84-8.52-2.72-12.08c-0.83-1.57-1.78-3.2-2.82-4.64c-1.09-1.51-2.56-2.45-4.23-3.27
				C575.79,383.26,575.21,384.23,575.87,384.55L575.87,384.55z"/>
		</g>
		<g>
			<path class="st2" d="M589.02,394.44c0.31,1.33,0.6,2.66,0.91,3.99c0.15,0.7,1.25,0.41,1.08-0.29c-0.31-1.33-0.6-2.66-0.91-3.99
				C589.93,393.45,588.85,393.74,589.02,394.44L589.02,394.44z"/>
		</g>
		<g>
			<path class="st2" d="M589.27,391.18c-0.1-0.48-0.35-0.91-0.71-1.23c-0.53-0.48-1.33,0.31-0.8,0.8c0.24,0.21,0.36,0.43,0.43,0.74
				C588.33,392.17,589.41,391.88,589.27,391.18L589.27,391.18z"/>
		</g>
		<g>
			<path class="st2" d="M622.88,381.67c-2.26,1.84-3.43,4.5-4.4,7.18c-1.28,3.52-2.21,7.15-3.1,10.78c-0.17,0.7,0.91,1,1.08,0.29
				c0.8-3.28,1.64-6.56,2.73-9.77c0.97-2.83,2.06-5.75,4.46-7.69C624.24,382.01,623.44,381.23,622.88,381.67L622.88,381.67z"/>
		</g>
		<g>
			<path class="st2" d="M612.46,387.48c-1.08,3.25-1.78,6.59-2.14,9.99c-0.07,0.71,1.05,0.71,1.12,0c0.35-3.31,1.05-6.55,2.1-9.7
				C613.77,387.08,612.69,386.79,612.46,387.48L612.46,387.48z"/>
		</g>
		<g>
			<path class="st2" d="M609.27,402.39c-0.98,1.72-2.45,4.04-4.6,4.25c-1.92,0.18-3.91-0.42-4.99-2.1c-0.39-0.6-1.36-0.04-0.97,0.56
				c1.29,2.03,3.6,2.85,5.96,2.66c2.63-0.2,4.37-2.66,5.56-4.79C610.6,402.32,609.63,401.76,609.27,402.39L609.27,402.39z"/>
		</g>
		<g>
			<path class="st2" d="M592.04,405.15c1.36,3.43,4.48,7.55,8.41,8.11c0.7,0.1,1.01-0.98,0.29-1.08c-3.53-0.5-6.4-4.23-7.64-7.34
				C592.86,404.2,591.78,404.48,592.04,405.15L592.04,405.15z"/>
		</g>
		<g>
			<path class="st2" d="M602.14,334.49c3.78-0.14,7.57-0.29,11.34-0.43c0.71-0.03,0.73-1.15,0-1.12c-3.78,0.14-7.57,0.29-11.34,0.43
				C601.41,333.39,601.41,334.51,602.14,334.49L602.14,334.49z"/>
		</g>
		<g>
			<path class="st2" d="M591.5,339.38c4.29,0.08,8.56,0.17,12.85,0.27c0.73,0.01,0.73-1.11,0-1.12c-4.29-0.08-8.56-0.17-12.85-0.27
				C590.78,338.24,590.78,339.36,591.5,339.38L591.5,339.38z"/>
		</g>
		<g>
			<path class="st2" d="M589.77,335.26c1.19-0.03,2.37,0.07,3.55,0.28c0.7,0.13,1.01-0.95,0.29-1.08c-1.28-0.22-2.55-0.34-3.84-0.32
				C589.06,334.15,589.05,335.27,589.77,335.26L589.77,335.26z"/>
		</g>
		<g>
			<path class="st2" d="M854.72,367.15c2.89,3.98,6.1,7.71,9.61,11.14c0.52,0.5,1.32-0.29,0.8-0.8c-3.45-3.36-6.6-7.01-9.43-10.92
				C855.26,366.01,854.3,366.57,854.72,367.15L854.72,367.15z"/>
		</g>
		<g>
			<path class="st2" d="M864.64,372.37c2.96,1.82,5.28,4.46,7.92,6.69c2.63,2.23,5.42,4.25,8.2,6.28c0.59,0.42,1.15-0.55,0.56-0.97
				c-2.99-2.17-5.98-4.34-8.77-6.78c-2.42-2.1-4.61-4.48-7.36-6.18C864.6,371.02,864.02,371.99,864.64,372.37L864.64,372.37z"/>
		</g>
		<g>
			<path class="st2" d="M870.04,386.54c5.76,4.23,11.42,8.96,17.79,12.29c0.64,0.34,1.21-0.63,0.56-0.97
				c-6.35-3.34-12.01-8.06-17.79-12.29C870.02,385.14,869.46,386.12,870.04,386.54L870.04,386.54z"/>
		</g>
		<g>
			<path class="st2" d="M884.7,390.7c2.07,1.81,4.4,3.17,6.99,4.09c0.69,0.24,0.98-0.84,0.29-1.08c-2.41-0.85-4.57-2.12-6.5-3.8
				C884.95,389.44,884.15,390.22,884.7,390.7L884.7,390.7z"/>
		</g>
		<g>
			<path class="st2" d="M888.09,386.57c2.61,1.82,5.21,3.64,7.82,5.47c2.28,1.6,4.6,3.13,7.18,4.2c0.66,0.28,0.95-0.81,0.29-1.08
				c-2.65-1.11-5-2.75-7.34-4.39c-2.47-1.72-4.93-3.45-7.4-5.17C888.06,385.18,887.5,386.15,888.09,386.57L888.09,386.57z"/>
		</g>
		<g>
			<path class="st2" d="M897.62,398.65c1.18,0.9,2.45,1.58,3.84,2.09c0.67,0.25,0.97-0.84,0.29-1.08c-1.29-0.48-2.48-1.14-3.57-1.98
				C897.62,397.25,897.06,398.21,897.62,398.65L897.62,398.65z"/>
		</g>
		<g>
			<path class="st2" d="M890.76,404.53c0.69,1.32,2.2,2.07,3.36,2.92c1.65,1.19,3.29,2.4,4.81,3.77c2.79,2.52,5.05,5.62,5.75,9.38
				c0.13,0.71,1.22,0.41,1.08-0.29c-0.64-3.42-2.54-6.39-4.96-8.84c-1.32-1.35-2.79-2.52-4.29-3.64c-0.73-0.55-1.49-1.08-2.23-1.63
				c-0.88-0.63-2.03-1.22-2.55-2.21C891.39,403.33,890.43,403.89,890.76,404.53L890.76,404.53z"/>
		</g>
		<g>
			<path class="st2" d="M905.48,411.26c0.52,0.76,0.98,1.53,1.43,2.33c0.35,0.63,1.32,0.07,0.97-0.56c-0.43-0.8-0.91-1.57-1.43-2.33
				C906.05,410.11,905.07,410.67,905.48,411.26L905.48,411.26z"/>
		</g>
		<g>
			<path class="st2" d="M894.13,502.6c-2.19,3.56-4.05,7.27-5.61,11.14c-0.27,0.67,0.81,0.97,1.08,0.29
				c1.51-3.77,3.36-7.4,5.49-10.88C895.47,502.56,894.51,501.98,894.13,502.6L894.13,502.6z"/>
		</g>
		<g>
			<path class="st2" d="M891.31,503.19c1.36-2.35,2.79-4.67,4.29-6.94c0.39-0.6-0.57-1.16-0.97-0.56c-1.5,2.27-2.93,4.58-4.29,6.94
				C889.98,503.24,890.95,503.82,891.31,503.19L891.31,503.19z"/>
		</g>
		<g>
			<path class="st2" d="M897.81,496.98c0.77-1.23,1.4-2.54,1.88-3.91c0.24-0.69-0.84-0.98-1.08-0.29c-0.45,1.29-1.04,2.49-1.77,3.64
				C896.45,497.03,897.44,497.59,897.81,496.98L897.81,496.98z"/>
		</g>
		<g>
			<path class="st2" d="M639.72,261.13c7.95-7.05,17.45-12.17,27.71-14.93c0.7-0.18,0.41-1.28-0.29-1.08
				c-10.46,2.82-20.11,8.03-28.2,15.22C638.39,260.82,639.19,261.61,639.72,261.13L639.72,261.13z"/>
		</g>
		<g>
			<path class="st2" d="M662.92,255.62c12.61-5.69,26.11-9.35,39.87-10.79c0.71-0.07,0.71-1.19,0-1.12
				c-13.97,1.47-27.62,5.16-40.43,10.95C661.7,254.95,662.27,255.92,662.92,255.62L662.92,255.62z"/>
		</g>
		<g>
			<path class="st2" d="M676.46,242.59c17.27-5.44,35.39-7.86,53.48-7.13c0.73,0.03,0.71-1.09,0-1.12
				c-18.18-0.73-36.43,1.7-53.78,7.16C675.48,241.72,675.76,242.8,676.46,242.59L676.46,242.59z"/>
		</g>
		<g>
			<path class="st2" d="M710.35,242.14c2.54-0.77,5.1-1.16,7.75-1.15c0.73,0,0.73-1.12,0-1.12c-2.75,0-5.42,0.39-8.04,1.19
				C709.37,241.26,709.66,242.35,710.35,242.14L710.35,242.14z"/>
		</g>
		<g>
			<path class="st2" d="M698.53,252.51c6.4-2.13,13.01-3.55,19.73-4.22c0.71-0.07,0.71-1.19,0-1.12
				c-6.83,0.67-13.52,2.09-20.03,4.25C697.55,251.66,697.85,252.73,698.53,252.51L698.53,252.51z"/>
		</g>
		<g>
			<path class="st2" d="M737.83,236.46c4.93-0.36,9.84,0.15,14.59,1.54c0.7,0.2,1-0.88,0.29-1.08c-4.84-1.42-9.85-1.95-14.88-1.58
				C737.12,235.38,737.12,236.51,737.83,236.46L737.83,236.46z"/>
		</g>
		<g>
			<path class="st2" d="M905.05,129.46c-0.11-0.36,1.37-1.65,1.63-1.92c0.55-0.57,1.09-1.15,1.65-1.71c1.12-1.12,2.27-2.2,3.45-3.25
				c0.55-0.48-0.25-1.28-0.8-0.8c-1.64,1.46-3.22,2.97-4.74,4.57c-0.73,0.76-2.68,2.16-2.27,3.39
				C904.18,130.45,905.26,130.16,905.05,129.46L905.05,129.46z"/>
		</g>
		<g>
			<path class="st2" d="M913.37,120.92c4.72-2.83,9.77-5.03,15.07-6.57c0.69-0.2,0.39-1.29-0.29-1.08
				c-5.38,1.56-10.53,3.8-15.33,6.69C912.19,120.32,912.75,121.29,913.37,120.92L913.37,120.92z"/>
		</g>
		<g>
			<path class="st2" d="M908.86,129.33c2.14-2.2,5.24-3.73,8-4.99c0.66-0.29,0.08-1.26-0.56-0.97c-2.86,1.3-6.01,2.89-8.24,5.17
				C907.57,129.05,908.35,129.85,908.86,129.33L908.86,129.33z"/>
		</g>
		<g>
			<path class="st2" d="M920.95,121.43c2.35-1.33,4.81-2.47,7.36-3.39c0.67-0.24,0.38-1.33-0.29-1.08c-2.63,0.95-5.19,2.12-7.62,3.5
				C919.76,120.81,920.32,121.79,920.95,121.43L920.95,121.43z"/>
		</g>
		<g>
			<path class="st2" d="M908.77,132.13c8.17-2.4,15.92-6.03,22.98-10.78c0.6-0.41,0.03-1.37-0.56-0.97
				c-6.99,4.71-14.63,8.3-22.72,10.67C907.78,131.25,908.07,132.33,908.77,132.13L908.77,132.13z"/>
		</g>
		<g>
			<path class="st2" d="M919.89,125.48c1.02-0.49,2.06-0.97,3.08-1.46c0.66-0.31,0.08-1.28-0.56-0.97
				c-1.02,0.49-2.06,0.97-3.08,1.46C918.67,124.82,919.24,125.79,919.89,125.48L919.89,125.48z"/>
		</g>
		<g>
			<path class="st2" d="M403.92,303.95c3.98,1.49,8.13,2.37,12.38,2.65c0.71,0.04,0.71-1.08,0-1.12c-4.15-0.27-8.18-1.15-12.08-2.61
				C403.54,302.61,403.25,303.69,403.92,303.95L403.92,303.95z"/>
		</g>
		<g>
			<path class="st2" d="M410.03,309.4c5.17,1.11,10.4,1.92,15.67,2.42c0.71,0.07,0.71-1.05,0-1.12c-5.17-0.49-10.3-1.29-15.37-2.38
				C409.62,308.16,409.31,309.24,410.03,309.4L410.03,309.4z"/>
		</g>
		<g>
			<path class="st2" d="M422.49,307.81c3.1,0.64,6.21,1.15,9.33,1.54c0.71,0.08,0.71-1.04,0-1.12c-3.03-0.36-6.04-0.87-9.04-1.5
				C422.08,306.58,421.77,307.66,422.49,307.81L422.49,307.81z"/>
		</g>
		<g>
			<path class="st2" d="M431.49,312.83c1.37,0.11,2.75,0.24,4.12,0.35c0.71,0.06,0.71-1.07,0-1.12c-1.37-0.11-2.75-0.24-4.12-0.35
				C430.76,311.65,430.77,312.78,431.49,312.83L431.49,312.83z"/>
		</g>
		<g>
			<path class="st2" d="M525.14,342.07c3.66,0.77,7.33,1.54,10.99,2.31c0.7,0.15,1.01-0.94,0.29-1.08
				c-3.66-0.77-7.33-1.54-10.99-2.31C524.73,340.83,524.44,341.93,525.14,342.07L525.14,342.07z"/>
		</g>
		<g>
			<path class="st2" d="M517.78,336.94c2.24,0.57,4.51,0.98,6.83,1.23c0.71,0.08,0.71-1.04,0-1.12c-2.2-0.25-4.37-0.64-6.53-1.19
				C517.37,335.68,517.08,336.76,517.78,336.94L517.78,336.94z"/>
		</g>
		<g>
			<path class="st2" d="M507.81,338.9c4.22,0.63,8.42,1.4,12.61,2.28c0.7,0.15,1.01-0.94,0.29-1.08c-4.18-0.88-8.38-1.64-12.61-2.28
				C507.41,337.72,507.1,338.8,507.81,338.9L507.81,338.9z"/>
		</g>
		<g>
			<path class="st2" d="M509.59,336.07c0.88,0.22,1.77,0.46,2.66,0.69c0.7,0.18,1-0.9,0.29-1.08c-0.88-0.22-1.77-0.46-2.66-0.69
				C509.2,334.81,508.91,335.89,509.59,336.07L509.59,336.07z"/>
		</g>
		<g>
			<path class="st2" d="M503.2,335.16c0.98,0.42,1.98,0.66,3.04,0.74c0.71,0.06,0.71-1.07,0-1.12c-0.85-0.06-1.68-0.25-2.47-0.59
				C503.1,333.91,502.53,334.88,503.2,335.16L503.2,335.16z"/>
		</g>
		<g>
			<path class="st2" d="M643.06,314.68c2.49-1.58,5.14-2.85,7.95-3.78c0.69-0.22,0.39-1.32-0.29-1.08c-2.9,0.97-5.63,2.26-8.21,3.9
				C641.88,314.09,642.44,315.06,643.06,314.68L643.06,314.68z"/>
		</g>
		<g>
			<path class="st2" d="M648.89,316.22c4.82-2.75,9.84-5.09,15.04-7.01c0.67-0.25,0.38-1.33-0.29-1.08
				c-5.28,1.95-10.4,4.33-15.3,7.12C647.7,315.61,648.26,316.57,648.89,316.22L648.89,316.22z"/>
		</g>
		<g>
			<path class="st2" d="M655.08,309.48c2.99-1.39,5.97-2.76,8.96-4.15c0.66-0.31,0.08-1.28-0.56-0.97
				c-2.99,1.39-5.97,2.76-8.96,4.15C653.87,308.81,654.44,309.78,655.08,309.48L655.08,309.48z"/>
		</g>
		<g>
			<path class="st2" d="M669.55,302.85c2.93-0.94,5.8-1.99,8.65-3.17c0.66-0.27,0.36-1.36-0.29-1.08c-2.83,1.18-5.72,2.23-8.65,3.17
				C668.57,301.98,668.86,303.08,669.55,302.85L669.55,302.85z"/>
		</g>
		<g>
			<path class="st2" d="M668.93,307.3c7.57-3.41,15.16-6.76,22.8-10.03c0.66-0.28,0.08-1.25-0.56-0.97
				c-7.62,3.28-15.23,6.62-22.8,10.03C667.71,306.64,668.29,307.59,668.93,307.3L668.93,307.3z"/>
		</g>
		<g>
			<path class="st2" d="M685.6,296.92c1.32-0.45,2.59-1.02,3.83-1.7c0.63-0.35,0.07-1.32-0.56-0.97c-1.15,0.63-2.33,1.15-3.56,1.58
				C684.61,296.07,684.91,297.15,685.6,296.92L685.6,296.92z"/>
		</g>
		<g>
			<path class="st2" d="M777.24,270.66c6.85-3.18,12.57-8.18,18.19-13.15c0.55-0.48-0.25-1.28-0.8-0.8
				c-5.55,4.91-11.18,9.81-17.95,12.96C776.02,269.99,776.6,270.95,777.24,270.66L777.24,270.66z"/>
		</g>
		<g>
			<path class="st2" d="M789.07,258.97c4.4-3.63,8.34-7.74,11.8-12.29c0.43-0.57-0.53-1.14-0.97-0.56
				c-3.39,4.47-7.29,8.49-11.62,12.07C787.72,258.65,788.52,259.43,789.07,258.97L789.07,258.97z"/>
		</g>
		<g>
			<path class="st2" d="M780.56,264.66c1.72-1.22,3.41-2.48,5.06-3.8c0.56-0.45-0.24-1.23-0.8-0.8c-1.58,1.25-3.2,2.45-4.84,3.62
				C779.41,264.1,779.97,265.08,780.56,264.66L780.56,264.66z"/>
		</g>
		<g>
			<path class="st2" d="M771.23,269.75c1.37-0.8,2.66-1.72,3.87-2.77c0.55-0.48-0.25-1.26-0.8-0.8c-1.14,0.98-2.35,1.85-3.64,2.61
				C770.04,269.15,770.6,270.11,771.23,269.75L771.23,269.75z"/>
		</g>
		<g>
			<path class="st2" d="M759.99,280.32c4.37-2.06,8.45-4.62,12.19-7.68c0.56-0.46-0.24-1.25-0.8-0.8
				c-3.67,2.99-7.68,5.49-11.97,7.51C758.77,279.66,759.33,280.62,759.99,280.32L759.99,280.32z"/>
		</g>
		<g>
			<path class="st2" d="M764.87,273.44c0.6-0.42,1.21-0.85,1.81-1.28c0.59-0.42,0.03-1.39-0.56-0.97c-0.6,0.42-1.21,0.85-1.81,1.28
				C763.72,272.87,764.28,273.86,764.87,273.44L764.87,273.44z"/>
		</g>
		<g>
			<path class="st2" d="M908.93,261.51c4.43,3.29,8.76,6.76,12.96,10.33c4.05,3.43,7.57,7.23,9.59,12.22
				c0.27,0.66,1.36,0.38,1.08-0.29c-2.03-5.02-5.44-8.91-9.5-12.4c-4.39-3.76-8.93-7.36-13.55-10.82
				C908.93,260.11,908.37,261.09,908.93,261.51L908.93,261.51z"/>
		</g>
		<g>
			<path class="st2" d="M931.73,274.05c2.73,4.55,5.49,9.19,7.01,14.32c1.63,5.49,1.56,11.25,1.47,16.93
				c-0.01,0.73,1.11,0.73,1.12,0c0.08-5.77,0.14-11.65-1.51-17.22c-1.54-5.23-4.33-9.95-7.12-14.59
				C932.32,272.86,931.35,273.42,931.73,274.05L931.73,274.05z"/>
		</g>
		<g>
			<path class="st2" d="M933.61,290.72c0.31,2.61,0.6,5.23,0.91,7.83c0.08,0.71,1.21,0.71,1.12,0c-0.31-2.61-0.6-5.23-0.91-7.83
				C934.65,290,933.52,290,933.61,290.72L933.61,290.72z"/>
		</g>
		<g>
			<path class="st2" d="M935.29,308.75c0.04,1.75,0,3.49-0.13,5.23c-0.13,1.7-0.67,3.52-0.49,5.2c0.07,0.71,1.19,0.71,1.12,0
				c-0.17-1.65,0.36-3.53,0.49-5.2c0.13-1.74,0.17-3.49,0.13-5.23C936.4,308.02,935.28,308.02,935.29,308.75L935.29,308.75z"/>
		</g>
	</g>
	<g>
		<polygon class="st1" points="691.4,307.18 680.23,298.83 694.22,300.19 695.78,284.09 700.4,298.23 710.33,297.26 702.71,305.29 
			708.5,316.13 696.86,308.15 690.7,314.4 		"/>
		<path class="st1" d="M622.44,515.76c1.67,0.46,2.63,2.2,2.17,3.87c-0.46,1.67-2.2,2.63-3.87,2.17c-1.67-0.46-2.63-2.2-2.17-3.87
			C619.04,516.26,620.78,515.29,622.44,515.76z"/>
		<path class="st1" d="M631.37,503.14c1.67,0.46,2.63,2.2,2.17,3.87c-0.46,1.67-2.2,2.63-3.87,2.17c-1.67-0.46-2.63-2.2-2.17-3.87
			C627.98,503.65,629.7,502.68,631.37,503.14z"/>
		<path class="st1" d="M640.45,490.32c1.67,0.46,2.63,2.2,2.17,3.87c-0.46,1.67-2.2,2.63-3.87,2.17c-1.67-0.46-2.63-2.2-2.17-3.87
			C637.05,490.82,638.79,489.84,640.45,490.32z"/>
		<path class="st1" d="M649.13,478.04c1.67,0.46,2.63,2.2,2.17,3.87c-0.46,1.67-2.2,2.63-3.87,2.17c-1.67-0.46-2.63-2.2-2.17-3.87
			C645.74,478.55,647.46,477.58,649.13,478.04z"/>
		<path class="st1" d="M657.76,465.85c1.67,0.46,2.63,2.2,2.17,3.87c-0.46,1.67-2.2,2.63-3.87,2.17c-1.67-0.46-2.63-2.2-2.17-3.87
			C654.37,466.35,656.09,465.39,657.76,465.85z"/>
		<path class="st1" d="M666.69,453.22c1.67,0.46,2.63,2.2,2.17,3.87c-0.46,1.67-2.2,2.63-3.87,2.17c-1.67-0.46-2.63-2.2-2.17-3.87
			C663.3,453.73,665.02,452.76,666.69,453.22z"/>
		<path class="st1" d="M676.39,439.53c1.67,0.46,2.63,2.2,2.17,3.87c-0.46,1.67-2.2,2.63-3.87,2.17c-1.67-0.46-2.63-2.2-2.17-3.87
			S674.72,439.07,676.39,439.53z"/>
		<path class="st1" d="M686.16,425.71c1.67,0.46,2.63,2.2,2.17,3.87c-0.46,1.67-2.2,2.63-3.87,2.17c-1.67-0.46-2.63-2.2-2.17-3.87
			C682.76,426.21,684.49,425.25,686.16,425.71z"/>
		<path class="st1" d="M695.36,412.72c1.67,0.46,2.63,2.2,2.17,3.87c-0.46,1.67-2.2,2.63-3.87,2.17s-2.63-2.2-2.17-3.87
			C691.96,413.22,693.7,412.26,695.36,412.72z"/>
		<path class="st1" d="M704.49,399.82c1.67,0.46,2.63,2.2,2.17,3.87c-0.46,1.67-2.2,2.63-3.87,2.17c-1.67-0.46-2.63-2.2-2.17-3.87
			S702.82,399.35,704.49,399.82z"/>
		<ellipse class="st1" cx="712.7" cy="390" rx="3.14" ry="3.14"/>
		<path class="st1" d="M749.95,331.43c1.67,0.46,2.63,2.2,2.17,3.87c-0.46,1.67-2.2,2.63-3.87,2.17c-1.67-0.46-2.63-2.2-2.17-3.87
			C746.56,331.93,748.29,330.95,749.95,331.43z"/>
		<path class="st1" d="M767.7,293.87c1.67,0.46,2.63,2.2,2.17,3.87c-0.46,1.67-2.2,2.63-3.87,2.17c-1.67-0.46-2.63-2.2-2.17-3.87
			C764.29,294.37,766.03,293.39,767.7,293.87z"/>
		<path class="st1" d="M719.04,291.57c1.67,0.46,2.63,2.2,2.17,3.87c-0.46,1.67-2.2,2.63-3.87,2.17c-1.67-0.46-2.63-2.2-2.17-3.87
			C715.63,292.08,717.37,291.09,719.04,291.57z"/>
		<path class="st1" d="M753.71,282.26c1.67,0.46,2.63,2.2,2.17,3.87c-0.46,1.67-2.2,2.63-3.87,2.17c-1.67-0.46-2.63-2.2-2.17-3.87
			C750.3,282.78,752.04,281.8,753.71,282.26z"/>
		<path class="st1" d="M722.01,375.06c1.67,0.46,2.63,2.2,2.17,3.87c-0.46,1.67-2.2,2.63-3.87,2.17c-1.67-0.46-2.63-2.2-2.17-3.87
			C718.6,375.56,720.34,374.58,722.01,375.06z"/>
		<path class="st1" d="M793.84,266.23c1.46,0.94,1.88,2.87,0.95,4.33c-0.94,1.46-2.87,1.88-4.33,0.95
			c-1.46-0.94-1.88-2.87-0.95-4.33C790.43,265.71,792.38,265.29,793.84,266.23z"/>
		<path class="st1" d="M806.43,256.48c1.46,0.94,1.88,2.87,0.95,4.33c-0.94,1.46-2.87,1.88-4.33,0.95
			c-1.46-0.94-1.88-2.87-0.95-4.33C803.03,255.97,804.98,255.55,806.43,256.48z"/>
		<path class="st1" d="M818.92,246.82c1.46,0.94,1.88,2.87,0.95,4.33c-0.94,1.46-2.87,1.88-4.33,0.95
			c-1.46-0.94-1.88-2.87-0.95-4.33C815.53,246.3,817.46,245.88,818.92,246.82z"/>
		<path class="st1" d="M578.27,578.46c1.67,0.46,2.63,2.2,2.17,3.87c-0.46,1.67-2.2,2.63-3.87,2.17s-2.63-2.2-2.17-3.87
			C574.86,578.97,576.6,578,578.27,578.46z"/>
		<path class="st1" d="M587.46,565.46c1.67,0.46,2.63,2.2,2.17,3.87c-0.46,1.67-2.2,2.63-3.87,2.17c-1.67-0.46-2.63-2.2-2.17-3.87
			C584.06,565.96,585.79,564.99,587.46,565.46z"/>
		<path class="st1" d="M596.59,552.56c1.67,0.46,2.63,2.2,2.17,3.87c-0.46,1.67-2.2,2.63-3.87,2.17c-1.67-0.46-2.63-2.2-2.17-3.87
			C593.19,553.07,594.92,552.1,596.59,552.56z"/>
		<path class="st1" d="M605.67,539.72c1.67,0.46,2.63,2.2,2.17,3.87c-0.46,1.67-2.2,2.63-3.87,2.17c-1.67-0.46-2.63-2.2-2.17-3.87
			C602.28,540.23,604,539.26,605.67,539.72z"/>
		<path class="st1" d="M614.1,527.8c1.67,0.46,2.63,2.2,2.17,3.87c-0.46,1.67-2.2,2.63-3.87,2.17c-1.67-0.46-2.63-2.2-2.17-3.87
			C610.71,528.3,612.44,527.33,614.1,527.8z"/>
		<polygon class="st1" points="554.27,611.3 538.11,609.72 552.42,603.7 550.36,590.53 558.56,601.52 572.03,592.63 566.64,602.3 
			577.72,606.53 568.4,610.82 573.25,622.03 563.61,614.42 558.2,624.28 		"/>
		<path class="st1" d="M534.9,408.74c1.37,1.05,1.65,3.01,0.6,4.4c-1.05,1.37-3.01,1.65-4.4,0.6c-1.37-1.05-1.65-3.01-0.6-4.4
			C531.56,407.95,533.52,407.69,534.9,408.74z"/>
		<path class="st1" d="M547.84,400.27c1.37,1.05,1.65,3.01,0.6,4.4c-1.05,1.37-3.01,1.65-4.4,0.6c-1.37-1.05-1.65-3.01-0.6-4.4
			C544.49,399.5,546.45,399.22,547.84,400.27z"/>
		<path class="st1" d="M560.99,391.67c1.37,1.05,1.65,3.01,0.6,4.4c-1.05,1.37-3.01,1.65-4.4,0.6s-1.65-3.01-0.6-4.4
			C557.64,390.9,559.61,390.63,560.99,391.67z"/>
		<path class="st1" d="M573.57,383.44c1.37,1.05,1.65,3.01,0.6,4.4c-1.05,1.37-3.01,1.65-4.4,0.6c-1.37-1.05-1.65-3.01-0.6-4.4
			C570.22,382.67,572.19,382.4,573.57,383.44z"/>
		<path class="st1" d="M586.07,375.27c1.37,1.05,1.65,3.01,0.6,4.4c-1.05,1.37-3.01,1.65-4.4,0.6c-1.37-1.05-1.65-3.01-0.6-4.4
			C582.72,374.48,584.7,374.22,586.07,375.27z"/>
		<path class="st1" d="M599.01,366.8c1.37,1.05,1.65,3.01,0.6,4.4c-1.05,1.37-3.01,1.65-4.4,0.6c-1.37-1.05-1.65-3.01-0.6-4.4
			C595.66,366.03,597.64,365.75,599.01,366.8z"/>
		<path class="st1" d="M613.05,357.62c1.37,1.05,1.65,3.01,0.6,4.4c-1.05,1.37-3.01,1.65-4.4,0.6c-1.37-1.05-1.65-3.01-0.6-4.4
			C609.7,356.85,611.68,356.57,613.05,357.62z"/>
		<path class="st1" d="M627.22,348.36c1.37,1.05,1.65,3.01,0.6,4.4c-1.05,1.37-3.01,1.65-4.4,0.6c-1.39-1.05-1.65-3.01-0.6-4.4
			C623.87,347.59,625.84,347.31,627.22,348.36z"/>
		<path class="st1" d="M640.55,339.64c1.37,1.05,1.65,3.01,0.6,4.4c-1.05,1.37-3.01,1.65-4.4,0.6c-1.37-1.05-1.65-3.01-0.6-4.4
			C637.2,338.87,639.16,338.59,640.55,339.64z"/>
		<path class="st1" d="M653.77,331c1.37,1.05,1.65,3.01,0.6,4.4c-1.05,1.37-3.01,1.65-4.4,0.6c-1.39-1.05-1.65-3.01-0.6-4.4
			C650.42,330.22,652.39,329.96,653.77,331z"/>
		<path class="st1" d="M666.94,322.39c1.37,1.05,1.65,3.01,0.6,4.4c-1.05,1.37-3.01,1.65-4.4,0.6c-1.37-1.05-1.65-3.01-0.6-4.4
			C663.59,321.61,665.55,321.34,666.94,322.39z"/>
		<path class="st1" d="M679.16,314.4c1.37,1.05,1.65,3.01,0.6,4.4s-3.01,1.65-4.4,0.6c-1.37-1.05-1.65-3.01-0.6-4.4
			S677.78,313.35,679.16,314.4z"/>
		<path class="st1" d="M470.79,450.84c1.37,1.05,1.65,3.01,0.6,4.4c-1.05,1.37-3.01,1.65-4.4,0.6c-1.37-1.05-1.65-3.01-0.6-4.4
			C467.44,450.05,469.41,449.79,470.79,450.84z"/>
		<path class="st1" d="M484.11,442.12c1.37,1.05,1.65,3.01,0.6,4.4c-1.05,1.37-3.01,1.65-4.4,0.6c-1.37-1.05-1.65-3.01-0.6-4.4
			C480.76,441.34,482.74,441.07,484.11,442.12z"/>
		<path class="st1" d="M497.34,433.47c1.37,1.05,1.65,3.01,0.6,4.4c-1.05,1.37-3.01,1.65-4.4,0.6c-1.37-1.05-1.65-3.01-0.6-4.4
			C493.99,432.7,495.96,432.42,497.34,433.47z"/>
		<path class="st1" d="M510.5,424.87c1.37,1.05,1.65,3.01,0.6,4.4c-1.05,1.37-3.01,1.65-4.4,0.6c-1.37-1.05-1.65-3.01-0.6-4.4
			C507.15,424.08,509.13,423.82,510.5,424.87z"/>
		<path class="st1" d="M522.73,416.87c1.37,1.05,1.65,3.01,0.6,4.4c-1.05,1.37-3.01,1.65-4.4,0.6c-1.37-1.05-1.65-3.01-0.6-4.4
			C519.38,416.1,521.35,415.83,522.73,416.87z"/>
		<path class="st1" d="M437.42,478.44c-2.2-0.21-16.71-3.48-16.71-3.48l13.68-3.49l-3.59-12.59l7.76,7.81l4.15-12.19l3.04,10.68
			l11.65-9.25l-5.96,11.65l11.38,1.11l-11.18,4.47l7.3,12.57l-10.67-8.45l-1.32,17.29l-4.36-12.29l-9.94,6.81L437.42,478.44z"/>
		<path class="st1" d="M731.69,360.34l-11.55-10.22l12.25,0.94l10.16-15.35l-1.46,19.16l11.52,7.47l-14.79-1.12l-5.72,9.91
			C732.1,371.13,731.69,360.34,731.69,360.34z"/>
		<polygon class="st1" points="959.07,100.28 943.76,102.02 952.66,93.54 948.04,75.72 961.3,89.63 974.55,86.07 963.83,96.3 
			967.36,107.17 		"/>
		<polygon class="st1" points="731.05,289.65 723.94,284.14 733.42,284.87 736.29,279.83 735.74,286.81 744.75,290.69 
			737.35,290.13 736.05,299.1 733.81,294.5 727.47,295.3 		"/>
		<polygon class="st1" points="921.65,97.21 914.55,91.71 924.02,92.44 926.88,87.38 926.35,94.38 935.35,98.26 927.96,97.7 
			926.66,106.67 924.4,102.07 918.08,102.86 		"/>
		<polygon class="st1" points="750.5,316.22 747.94,308.6 754.1,310.31 757.03,304.3 760.7,312.99 768.72,313.59 761.1,320.15 
			761.54,326.47 755.85,319.74 746.9,322.21 		"/>
		<polygon class="st1" points="766.49,277.79 761.45,270.28 768.72,272.38 770.63,264.16 772.03,270.16 784.91,276.1 775.11,278.45 
			774.65,288.64 771.09,282.47 762.69,282.9 		"/>
		<path class="st1" d="M833.65,238.45c-2.2-0.21-16.71-3.48-16.71-3.48l13.68-3.49l-3.59-12.59l7.76,7.81l4.15-12.19l3.04,10.68
			l11.65-9.25l-5.96,11.65l11.38,1.11l-11.18,4.47l7.3,12.57l-10.67-8.45l-1.32,17.29l-4.36-12.29l-9.94,6.81L833.65,238.45z"/>
		<path class="st1" d="M861.44,210.06c1.63,0.6,2.45,2.41,1.85,4.04c-0.6,1.63-2.41,2.45-4.04,1.85c-1.63-0.6-2.45-2.41-1.85-4.04
			C858.01,210.27,859.82,209.44,861.44,210.06z"/>
		<path class="st1" d="M871.11,198.54c1.63,0.6,2.45,2.41,1.85,4.04s-2.41,2.45-4.04,1.85c-1.63-0.6-2.45-2.41-1.85-4.04
			C867.68,198.76,869.49,197.94,871.11,198.54z"/>
		<path class="st1" d="M880.73,187.1c1.63,0.6,2.45,2.41,1.85,4.04s-2.41,2.45-4.04,1.85c-1.63-0.6-2.45-2.41-1.85-4.04
			C877.3,187.33,879.1,186.5,880.73,187.1z"/>
		<path class="st1" d="M890.67,175.27c1.63,0.6,2.45,2.41,1.85,4.04c-0.6,1.63-2.41,2.45-4.04,1.85c-1.63-0.6-2.45-2.41-1.85-4.04
			C887.25,175.48,889.04,174.66,890.67,175.27z"/>
		<path class="st1" d="M901.46,162.42c1.63,0.6,2.45,2.41,1.85,4.04c-0.6,1.63-2.41,2.45-4.04,1.85c-1.63-0.6-2.45-2.41-1.85-4.04
			C898.02,162.65,899.83,161.82,901.46,162.42z"/>
		<path class="st1" d="M912.35,149.46c1.63,0.6,2.45,2.41,1.85,4.04s-2.41,2.45-4.04,1.85c-1.63-0.6-2.45-2.41-1.85-4.04
			C908.91,149.68,910.72,148.85,912.35,149.46z"/>
		<path class="st1" d="M922.59,137.26c1.63,0.6,2.45,2.41,1.85,4.04c-0.6,1.63-2.41,2.45-4.04,1.85c-1.63-0.6-2.45-2.41-1.85-4.04
			C919.16,137.49,920.97,136.66,922.59,137.26z"/>
		<path class="st1" d="M932.75,125.17c1.63,0.6,2.45,2.41,1.85,4.04c-0.6,1.63-2.41,2.45-4.04,1.85c-1.63-0.6-2.45-2.41-1.85-4.04
			C929.32,125.39,931.13,124.57,932.75,125.17z"/>
		<path class="st1" d="M942.87,113.13c1.63,0.6,2.45,2.41,1.85,4.04s-2.41,2.45-4.04,1.85c-1.63-0.6-2.45-2.41-1.85-4.04
			C939.44,113.35,941.25,112.53,942.87,113.13z"/>
	</g>
</g>
</svg>
