<?xml version="1.0" encoding="utf-8"?>
<!-- Generator: Adobe Illustrator 25.3.0, SVG Export Plug-In . SVG Version: 6.00 Build 0)  -->
<svg version="1.1" id="Layer_1" xmlns="http://www.w3.org/2000/svg" xmlns:xlink="http://www.w3.org/1999/xlink" x="0px" y="0px"
	 viewBox="0 0 1920 700" style="enable-background:new 0 0 1920 700;" xml:space="preserve">
<style type="text/css">
	.st0{fill:#1B1D50;}
	.st1{fill:#FFFFFF;}
	.st2{opacity:0.42;}
	.st3{fill:#8AD2D0;}
	.st4{opacity:0.42;fill:#8AD2D0;enable-background:new    ;}
</style>
<rect class="st0" width="1920" height="700"/>
<g id="XMLID_76_">
	<g id="XMLID_89_">
		<g id="XMLID_90_">
			<path id="XMLID_91_" class="st1" d="M298.08,263.71c-8.79,0-20.66-2.2-32.23-11.29c-22.54-17.71-26.86-40.25-27.03-41.21
				l-0.12-0.66V103.51c0.01-4.1,3.33-7.42,7.43-7.42s7.43,3.32,7.43,7.42v105.57c0.75,3.06,5.29,18.94,21.47,31.65
				c15.46,12.15,31.4,7.18,32.08,6.96c3.89-1.26,8.08,0.84,9.37,4.71c1.29,3.88-0.76,8.05-4.63,9.37
				C311.39,261.93,305.97,263.71,298.08,263.71z"/>
		</g>
	</g>
	<g id="XMLID_86_">
		<g id="XMLID_87_">
			<path id="XMLID_88_" class="st1" d="M142.77,217.32c-4.1,0-7.43-3.33-7.43-7.43V103.53c0-5.57-2.02-9.43-6.17-11.79
				c-6.05-3.44-14.74-2.77-18.05-0.8c-10.25,6.09-13.46,20.93-13.5,21.08c-0.84,4.01-4.76,6.59-8.78,5.77
				c-4.01-0.83-6.6-4.73-5.79-8.74c0.17-0.87,4.49-21.38,20.46-30.88c7.65-4.55,22.08-5.55,33,0.65
				c8.83,5.02,13.69,13.8,13.69,24.71v106.36C150.2,213.99,146.87,217.32,142.77,217.32z"/>
		</g>
	</g>
	<g id="XMLID_83_">
		<g id="XMLID_84_">
			<path id="XMLID_85_" class="st1" d="M194.19,217.32c-4.1,0-7.43-3.33-7.43-7.43V104.03c-0.44-2.88-3.41-17.29-18.62-17.29
				c-0.01,0-0.02,0-0.03,0c-13.35,0.01-16.37,6.99-16.67,7.78l0.06-0.19l-14.18-4.43c0.23-0.73,5.91-17.99,30.78-18.01
				c0.01,0,0.03,0,0.05,0c23.56,0,32.14,19.98,33.42,30.67c0.04,0.31,0.07,0.63,0.07,0.96v106.37
				C201.63,213.99,198.3,217.32,194.19,217.32z"/>
		</g>
	</g>
	<g id="XMLID_80_">
		<g id="XMLID_81_">
			<path id="XMLID_82_" class="st1" d="M246.12,111.97c-3.85,0-7.11-2.97-7.4-6.87c-0.29-3.56-2.47-13.92-8.87-18.77
				c-3.67-2.78-8.4-3.56-14.46-2.38c-10.55,2.04-14.25,10.65-14.28,10.74c-1.52,3.82-5.84,5.67-9.66,4.16
				c-3.82-1.52-5.67-5.84-4.16-9.66c0.27-0.66,6.66-16.23,25.27-19.84c10.34-2,19.2-0.25,26.34,5.2
				c13.02,9.94,14.57,28.65,14.63,29.44c0.31,4.09-2.76,7.66-6.85,7.97C246.49,111.96,246.31,111.97,246.12,111.97z"/>
		</g>
	</g>
	<g id="XMLID_77_">
		<g id="XMLID_78_">
			<path id="XMLID_79_" class="st1" d="M216.36,258.98c-0.49,0-0.97-0.06-1.51-0.15l-4.38-0.76l-1.43-4.23
				c-1.29-3.87,0.77-8.05,4.62-9.38c6.73-3.76,53.82-36.06,68.48-54.71c16.12-20.52,21.14-54.95,9.4-64.64
				c-7.95-6.57-28.97-0.09-37.9,4.08c-3.72,1.73-8.14,0.12-9.88-3.6c-1.73-3.72-0.13-8.14,3.6-9.88
				c3.68-1.71,36.39-16.31,53.65-2.06c20.1,16.6,12.5,60.22-7.19,85.28c-9.39,11.95-28.64,27.28-43.14,38.03
				c-9.51,7.05-17.24,12.35-21.01,14.87C221.15,257.56,218.75,258.98,216.36,258.98z"/>
		</g>
	</g>
</g>
<g>
	<g>
		<g class="st2">
			<path class="st3" d="M592.9,255.56c0,0,0.98,7.34,1.26,10.37L592.9,255.56z"/>
		</g>
		<g>
			<path class="st4" d="M582.79,234.57c0.27-2.08,0.56-4.17,0.87-6.23c-0.34,0.04-0.68,0.08-1.02,0.14c2.15,3.56,4.63,7,6.11,10.93
				c0.25,0.67,1.34,0.38,1.08-0.29c-1.52-4.03-4.01-7.53-6.22-11.2c-0.22-0.38-0.95-0.36-1.02,0.14c-0.34,2.18-0.63,4.35-0.91,6.53
				C581.59,235.28,582.71,235.28,582.79,234.57L582.79,234.57z"/>
		</g>
		<g>
			<path class="st4" d="M623.41,158.63c-1.16,6.63,3.58,12.92,9.73,15c3.77,1.27,7.81,1.15,11.71,0.56
				c4.6-0.68,9.31-2.53,13.99-1.75c0.7,0.11,1.01-0.96,0.29-1.08c-3.82-0.64-7.46,0.39-11.18,1.15c-3.82,0.77-7.77,1.37-11.66,0.75
				c-6.71-1.08-13.07-7.05-11.8-14.33C624.62,158.21,623.53,157.92,623.41,158.63L623.41,158.63z"/>
		</g>
		<g>
			<path class="st4" d="M592.34,255.56c0.46,3.45,0.92,6.91,1.26,10.37c0.07,0.71,1.19,0.71,1.12,0c-0.34-3.47-0.8-6.92-1.26-10.37
				C593.37,254.85,592.24,254.85,592.34,255.56L592.34,255.56z"/>
		</g>
		<g>
			<path class="st4" d="M591.74,286.32c-1.12,0.53-2.15,1.37-3.09,2.17c-2.64,2.25-4.82,5.03-6.64,7.97
				c-3.09,4.98-5.2,10.55-6.67,16.22c-2.29,8.79-3.1,17.95-3.15,27.02c-0.07,13.42,1.54,26.84,3.94,40.04
				c1.58,8.68,3.54,17.31,5.76,25.85c1.26,4.85,2.61,9.69,4.03,14.51c1.45,4.91,2.77,9.94,4.67,14.71
				c3.03,7.65,8.3,14.78,15.42,19.08c8.39,5.07,18.54,4.59,27.69,7.3c18.37,5.44,29.22,22.34,43.74,33.52
				c7.58,5.84,16.3,9.09,25.78,10.18c9.8,1.12,19.65,0.1,29.37-1.22c10.88-1.47,21.79-3.31,32.81-2.8
				c7.7,0.36,16.06,2.38,22.02,7.53c2.81,2.43,4.85,5.54,5.77,9.14c0.17,0.66,1.02,0.43,1.1-0.15c1.43-10.71,1.82-21.92-1.66-32.29
				c-3.09-9.2-9.25-16.9-16.61-23.08c-16.38-13.78-37.63-19.82-54.28-33.17c-15.2-12.19-26.04-29.64-30.29-48.65
				c-4.95-22.12,0.18-45.08-4.78-67.2c-1.08-4.81-2.63-9.53-4.82-13.95c-1.87-3.8-4.21-7.66-7.31-10.58
				c-2.68-2.52-5.73-4.63-8.57-6.96c-2.75-2.26-5.69-4.79-7.2-8.09c-0.7-1.52-0.96-3.17-0.68-4.84c0.11-0.7-0.96-1.01-1.08-0.29
				c-1.17,7.06,5.79,12.19,10.65,15.99c2.73,2.14,5.69,4.19,7.9,6.89c3.29,4,5.73,8.71,7.52,13.55c7.98,21.56,3.12,44.85,5.83,67.13
				c2.33,19.15,11.09,37.27,24.6,51.04c7.27,7.41,15.85,13.1,24.93,18.05c9.52,5.2,19.45,9.74,28.52,15.73
				c8.23,5.44,15.94,12.13,20.97,20.73c5.62,9.62,6.82,20.83,6.11,31.77c-0.18,2.75-0.48,5.51-0.84,8.23
				c0.36-0.06,0.73-0.1,1.1-0.15c-1.78-6.99-7.46-11.69-13.91-14.36c-8.07-3.34-16.91-3.58-25.51-3.01
				c-20.07,1.31-40.62,7.74-60.6,2.14c-9.8-2.75-17.5-8.82-24.72-15.8c-6.44-6.23-12.67-12.76-19.92-18.09
				c-3.47-2.54-7.17-4.78-11.14-6.44c-4.5-1.89-9.23-2.82-14.02-3.59c-4.86-0.78-9.83-1.51-14.4-3.42
				c-4.05-1.69-7.6-4.45-10.55-7.66c-2.95-3.2-5.34-6.92-7.13-10.89c-2.1-4.64-3.38-9.7-4.84-14.57
				c-2.77-9.24-5.27-18.56-7.41-27.97c-3.3-14.54-5.8-29.33-6.57-44.23c-0.52-10.08-0.28-20.28,1.52-30.22
				c1.17-6.47,3.03-12.9,6.04-18.79c1.82-3.54,4.04-6.89,6.88-9.7c1.34-1.33,2.63-2.14,4.11-3.23c0.06-0.04,0.14-0.07,0.21-0.11
				C592.95,286.97,592.39,286.01,591.74,286.32L591.74,286.32z"/>
		</g>
		<g>
			<path class="st4" d="M661.66,252.8c0.13-3.52,0.8-6.95,2.01-10.26c0.25-0.68-0.84-0.96-1.08-0.29c-1.24,3.4-1.92,6.93-2.04,10.55
				C660.51,253.51,661.63,253.51,661.66,252.8L661.66,252.8z"/>
		</g>
		<g>
			<path class="st4" d="M665.13,219.97c-0.21-5.96,0.15-12.47,3.56-17.57c3.12-4.66,10.43-6.74,10.78-13.06
				c0.15-2.63-1.34-4.15-3.47-5.37c-1.64-0.94-2.39-1.96-2.85-3.8c-0.35-1.41-0.68-2.75-1.43-4.03c-1.27-2.15-3.33-3.83-5.65-4.74
				c-1.94-0.75-5.56-1.5-7.05,0.48c-0.67,0.89-0.66,2.05-0.62,3.12c0.07,1.73-0.03,3.41-0.45,5.12c-0.78,3.17-2.45,6.11-4.64,8.53
				c-4.54,4.99-10.88,7.42-17.29,8.93c-3.09,0.73-6.25,1.41-9.03,2.99c-2.32,1.31-4.25,3.19-5.93,5.23
				c-3.41,4.12-6.04,9.2-10.6,12.22c-6.09,4.04-14.01,2.66-20.41,5.98c-2.39,1.24-5.12,3.45-5.58,6.28
				c-0.53,3.26,3.06,4.78,3.35,7.74c0.07,0.71,1.19,0.71,1.12,0c-0.24-2.49-2.43-3.76-3.22-5.98c-1.1-3.13,2.67-5.97,5.07-7.17
				c5.48-2.74,11.91-2.1,17.52-4.45c4.77-2,7.81-6.14,10.76-10.18c1.58-2.17,3.17-4.36,5.14-6.22c2.22-2.1,4.84-3.41,7.74-4.28
				c2.94-0.87,5.96-1.37,8.88-2.29c2.82-0.89,5.58-2.11,8.08-3.7c4.7-2.99,8.51-7.46,10.01-12.9c0.32-1.19,0.53-2.42,0.62-3.65
				c0.1-1.59-0.64-4.25,1.09-5.12c1.23-0.6,3.16-0.22,4.4,0.17c1.41,0.43,2.73,1.19,3.83,2.18c1.09,0.98,1.99,2.21,2.53,3.58
				c0.53,1.34,0.64,2.82,1.22,4.17c0.39,0.91,1.01,1.62,1.83,2.19c1.29,0.89,2.87,1.34,3.56,2.87c1.58,3.45-1.51,6.77-4,8.7
				c-2.49,1.94-4.92,3.72-6.6,6.44c-3.22,5.2-3.61,11.67-3.38,17.61C664.04,220.7,665.16,220.7,665.13,219.97L665.13,219.97z"/>
		</g>
		<g>
			<path class="st4" d="M645.36,466.26c0.24,7.44,0.52,14.87,0.81,22.31c0.63,16.19,1.31,32.38,2.14,48.56
				c0.8,15.77,1.64,31.54,3.05,47.26c0.43,4.88,0.87,9.8,1.75,14.62c0.77,4.25,1.8,8.39,1.65,12.75c-0.11,2.91-0.67,6.22-2.7,8.46
				c-0.85,0.94-1.47,1.05-2.15,1.86c-2.49,2.98-5.19,6.14-6.84,9.67c-0.56,1.19-0.52,2.11-1.71,2.82c-1.52,0.94-3.36,1.43-5.07,1.85
				c-2.04,0.5-4.12,0.85-6.22,1.01c-1.54,0.13-3.33,0.28-4.82-0.2c-2.26-0.73-0.95-4.17-0.25-5.58c2.63-5.41,6.39-10.34,9.73-15.32
				c2.99-4.45,5.73-8.95,5.12-14.5c-1.01-9.07-2.75-18.1-4.28-27.11c-2.57-15.25-5.24-30.49-7.93-45.73
				c-2.67-15.13-5.35-30.25-8.07-45.36c-1.55-8.65-3.1-17.31-4.67-25.96c-0.07-0.41-0.15-0.81-0.22-1.23
				c-0.13-0.71-1.2-0.41-1.08,0.29c1.15,6.32,2.28,12.64,3.41,18.96c2.59,14.4,5.16,28.81,7.7,43.21
				c2.81,15.91,5.62,31.82,8.35,47.75c1.86,10.83,3.79,21.67,5.33,32.56c0.49,3.49,0.71,6.72-0.77,10.11
				c-0.85,1.94-2.05,3.73-3.23,5.49c-1.9,2.85-3.83,5.68-5.7,8.53c-1.48,2.26-2.98,4.53-4.25,6.92c-0.64,1.22-1.29,2.53-1.5,3.9
				c-0.14,0.96-0.01,1.94,0.39,2.84c0.48,0.99,1.43,1.29,2.46,1.45c3.66,0.59,7.79-0.2,11.34-1.13c1.64-0.43,3.35-0.94,4.81-1.83
				c1.13-0.68,1.41-1.36,1.82-2.54c0.67-1.97,2.05-3.77,3.27-5.44c1.16-1.59,2.38-3.13,3.63-4.64c0.11-0.13,0.82-0.89,0.29-0.5
				c0.1-0.07,0.27-0.11,0.36-0.17c0.5-0.29,0.96-0.67,1.37-1.09c1.89-1.94,2.68-4.71,3.02-7.34c0.85-6.78-1.43-13.42-2.25-20.12
				c-1.75-14.08-2.47-28.32-3.27-42.47c-0.98-17.15-1.75-34.31-2.45-51.47c-0.43-10.65-0.84-21.32-1.2-31.97
				c-0.01-0.52-0.03-1.03-0.06-1.55C646.45,465.55,645.33,465.53,645.36,466.26L645.36,466.26z"/>
		</g>
		<g>
			<path class="st4" d="M620.76,496.89c-3.66,15.64-7.34,31.27-10.92,46.93c-1.8,7.87-3.58,15.75-5.33,23.64
				c-0.91,4.08-1.8,8.15-2.68,12.23c-0.74,3.42-2.28,7.07-0.81,10.47c1.45,3.37,4.88,5.45,7.26,8.15c2.63,2.98,4.52,6.42,4.91,10.41
				c0.14-0.18,0.28-0.36,0.41-0.55c-4.77,1.78-10.15,1.75-14.9-0.07c-2.15-0.82-4.7-2.14-6.15-4c-0.99-1.26-0.87-3.29-1.06-4.78
				c-0.17-1.26-0.43-2.38-0.99-3.49c-0.5-1.01-0.74-1.82-1.51-2.67c-0.78-0.87-1.66-1.64-2.5-2.45c-1.75-1.65-3.65-3.49-3.58-6.08
				c0.07-2.96,1.59-5.8,3.19-8.21c0.75-1.15,1.57-2.24,2.39-3.33s1.86-2.14,2.24-3.48c0.35-1.2,0.22-2.47,0.42-3.7
				c0.22-1.3,0.34-2.59,0.43-3.91c0.24-3.1,0.5-6.21,0.77-9.3c0.53-6.14,1.13-12.27,1.85-18.4c1.44-12.34,3.34-24.66,6.14-36.78
				c3.12-13.52,7.38-26.78,13.25-39.35c0.31-0.64-0.66-1.22-0.96-0.56c-10.85,23.18-16.09,48.41-19.18,73.67
				c-0.78,6.37-1.43,12.76-2,19.15c-0.29,3.27-0.57,6.54-0.82,9.81c-0.13,1.54-0.17,3.1-0.39,4.63c-0.21,1.38-0.17,2.89-0.52,4.25
				c-0.39,1.51-1.71,2.78-2.61,4.01c-0.91,1.2-1.79,2.43-2.57,3.72c-1.4,2.28-2.56,4.89-2.7,7.6c-0.11,2.12,0.91,3.93,2.31,5.47
				c1.66,1.83,4.17,3.34,5.1,5.68c0.27,0.66,0.62,1.26,0.82,1.93c0.31,0.96,0.38,2,0.49,2.99c0.14,1.29,0.21,2.87,0.92,4
				c1.27,2,4.17,3.49,6.26,4.38c5.09,2.15,11.04,2.28,16.22,0.36c0.21-0.08,0.43-0.28,0.41-0.55c-0.63-6.46-4.79-11.16-9.41-15.34
				c-1.38-1.26-2.57-2.63-3.15-4.45c-0.7-2.19,0.22-4.61,0.7-6.79c0.88-4.1,1.78-8.18,2.68-12.27c3.42-15.52,6.99-31.01,10.58-46.48
				c2.03-8.74,4.08-17.46,6.12-26.2C622,496.48,620.92,496.19,620.76,496.89L620.76,496.89z"/>
		</g>
		<g>
			<path class="st4" d="M698.78,184.02c2.46,1.66,4,4.21,4.4,7.14c0.1,0.71,1.17,0.41,1.08-0.29c-0.45-3.22-2.22-6-4.92-7.81
				C698.73,182.65,698.17,183.61,698.78,184.02L698.78,184.02z"/>
		</g>
		<g>
			<path class="st4" d="M732.41,203.94c-0.57,13.36-5.41,27.78,1.33,40.4c2.84,5.31,7.55,8.79,13.28,10.47
				c6.26,1.83,12.87,1.87,19.19,3.45c7.69,1.92,14.9,5.54,21.05,10.54c0.56,0.45,1.36-0.34,0.8-0.8c-5-4.07-10.67-7.27-16.76-9.39
				c-6.23-2.18-12.68-2.66-19.14-3.79c-6.22-1.09-12.16-3.3-15.96-8.63c-3.49-4.89-4.82-11.14-4.92-17.07
				c-0.13-8.46,1.87-16.76,2.24-25.19C733.56,203.21,732.44,203.21,732.41,203.94L732.41,203.94z"/>
		</g>
		<g>
			<path class="st4" d="M722.72,216.46c0.01,3.47,0.34,6.91,0.95,10.3c0.13,0.71,1.22,0.41,1.08-0.29
				c-0.6-3.31-0.91-6.64-0.92-10.01C723.84,215.74,722.71,215.74,722.72,216.46L722.72,216.46z"/>
		</g>
		<g>
			<path class="st4" d="M724.33,234.24c1.54,5.24,3.15,10.64,6.28,15.18c2.74,3.97,6.58,6.96,10.78,9.3
				c8.72,4.85,18.79,7.12,26.69,13.45c4.19,3.36,7.52,7.72,8.42,13.11c0.11,0.71,1.2,0.41,1.08-0.29
				c-1.55-9.31-9.84-15.36-17.81-19.22c-8.97-4.33-19.42-6.86-26.32-14.52c-4.35-4.84-6.23-11.18-8.04-17.28
				C725.21,233.25,724.13,233.55,724.33,234.24L724.33,234.24z"/>
		</g>
		<g>
			<path class="st4" d="M701.88,246.04c1.61,10.51,6.49,20.4,13.69,28.21c3.54,3.84,7.65,7.19,12.18,9.81
				c5.1,2.98,10.85,4.84,15.63,8.36c4.95,3.65,9.14,10.6,5.94,16.69c-0.28,0.53,0.46,1.2,0.88,0.68c4.26-5.31,6-12.27,4.95-19
				c-1.19-7.63-6.22-13.2-11.99-17.94c-6.68-5.48-13.29-10.86-19.33-17.07c-2.91-2.99-5.94-6.09-7.72-9.93
				c-1.94-4.17-2.18-8.89-2.74-13.39c-1.16-9.28-3.08-18.58-7.6-26.85c-0.35-0.63-1.31-0.07-0.96,0.56
				c4.05,7.4,5.98,15.67,7.14,23.96c0.57,4.12,0.78,8.35,1.83,12.37c0.94,3.61,2.74,6.7,5.12,9.55c5.4,6.44,11.84,12.2,18.35,17.47
				c5.84,4.73,12.58,9.32,15.48,16.57c3.02,7.52,1.76,16.54-3.31,22.87c0.29,0.22,0.59,0.45,0.88,0.68
				c2.42-4.63,0.98-10.02-2.01-14.02c-3.44-4.6-8.85-7.06-13.9-9.45c-5.35-2.54-10.34-5.47-14.73-9.48
				c-4.11-3.75-7.62-8.14-10.37-12.97c-3.19-5.56-5.33-11.67-6.3-18.01C702.84,245.02,701.77,245.33,701.88,246.04L701.88,246.04z"
				/>
		</g>
		<g>
			<path class="st4" d="M685.13,194.88c5.54,7.62,9.09,16.52,10.26,25.88c0.08,0.7,1.22,0.71,1.12,0
				c-1.19-9.55-4.75-18.65-10.41-26.43C685.68,193.75,684.71,194.31,685.13,194.88L685.13,194.88z"/>
		</g>
		<g>
			<path class="st4" d="M700.56,219.34c6.51,9.56,5.65,21.71,8.16,32.56c1.2,5.2,3.3,10.04,6.68,14.2
				c3.31,4.08,7.49,7.37,11.7,10.48c4.99,3.7,10.13,7.24,14.47,11.73c0.5,0.52,1.29-0.28,0.8-0.8c-7.42-7.7-17.31-12.51-24.58-20.37
				c-3.9-4.21-6.4-9.16-7.79-14.71c-1.33-5.37-1.79-10.89-2.61-16.34c-0.92-6.08-2.35-12.18-5.86-17.32
				C701.14,218.18,700.16,218.74,700.56,219.34L700.56,219.34z"/>
		</g>
		<g>
			<path class="st4" d="M730.56,273.5c5.31,2,9.63,5.96,12.18,11.02c0.32,0.64,1.29,0.08,0.96-0.56
				c-2.68-5.33-7.28-9.42-12.85-11.53C730.19,272.16,729.89,273.25,730.56,273.5L730.56,273.5z"/>
		</g>
		<path class="st4" d="M823.97,302.99c-6.26-2.96-14.23-1.34-19.84-5.91c-5.73-4.67-4.26-12.67-3.44-19.08
			c0.87-6.79,1.1-13.41-3.05-19.24c-4.15-5.84-10.69-9.34-17.56-11c-7.41-1.8-14.93-1.3-22.44-2.03c-3.37-0.32-6.86-0.98-9.83-2.71
			c-3.23-1.9-5.24-5.05-5.87-8.71c-0.66-3.8-0.07-7.73,0.36-11.52c0.39-3.44,0.6-6.86,0.42-10.32c-0.7-13.28-6.11-26.13-14.69-36.22
			c-4.26-5-9.34-9.35-14.99-12.71c-6.21-3.69-13.07-5.94-19.92-8.09c-7.1-2.22-14.36-4.36-20.84-8.12
			c-5.9-3.41-10.67-8.22-14.2-14.04c-6.68-10.97-9.13-23.89-13.34-35.88c-2.08-5.96-4.6-11.84-8.18-17.05
			c-3.55-5.19-8.16-9.49-13.6-12.67c-10.95-6.37-24.63-8.16-36.81-4.57c-2.89,0.85-5.69,2.03-8.33,3.49
			c-2.53,1.43-4.85,3.13-6.67,5.41c-1.83,2.31-3.2,4.95-4.66,7.49c-4.07,7.13-5.9,14.93-6.74,23.04
			c-1.71,16.65,0.11,33.65-3.4,50.12c-1.78,8.35-5.24,15.78-9.72,23.01c-4.4,7.13-8.77,14.13-11.7,22.02
			c-5.61,15.06-6.63,31.77-1.92,47.21c2.21,7.21,5.59,14.09,10.09,20.16c4.39,5.93,9.88,11.63,16.71,14.68
			c1.64,0.73,3.33,1.3,5.09,1.68c0.7,0.15,1.01-0.92,0.29-1.08c-7.6-1.66-13.71-6.91-18.63-12.71c-4.89-5.77-8.7-12.46-11.3-19.54
			c-5.48-14.97-5.31-31.43-0.48-46.55c2.56-8,6.51-15.21,10.95-22.31c4.19-6.7,8.14-13.42,10.39-21.07
			c4.52-15.38,3.38-31.64,4.15-47.45c0.43-9.06,1.3-18.45,5.13-26.8c1.52-3.33,3.44-6.65,5.48-9.7c1.94-2.88,4.47-4.96,7.49-6.67
			c11.41-6.29,25.44-6.64,37.51-2.03c6.03,2.31,11.59,5.91,15.96,10.67c4.36,4.72,7.46,10.5,9.87,16.41
			c4.7,11.55,7,23.95,12.22,35.28c2.52,5.47,5.8,10.64,10.19,14.79c5,4.74,11.21,7.83,17.64,10.19c6.85,2.53,13.95,4.32,20.79,6.92
			c6.6,2.5,12.71,5.96,18.06,10.57c10.09,8.71,17.22,20.77,19.91,33.83c1.4,6.82,1.2,13.5,0.43,20.38
			c-0.74,6.53-0.98,13.9,4.74,18.34c4.99,3.89,11.98,4.07,18.02,4.22c8.16,0.21,16.65,0.73,24.03,4.6
			c6.23,3.27,11.51,9.04,12.27,16.27c0.7,6.61-1.57,13.11-1.26,19.72c0.13,2.89,0.85,5.76,2.61,8.09c1.87,2.47,4.59,3.97,7.52,4.85
			c3.38,1.02,6.93,1.3,10.39,2c3.37,0.68,6.43,2.12,8.79,4.7c1.93,2.1,3.1,4.86,2,7.46c-3.05-7.59-12.47-10.08-19.95-10.51
			c-5.3-0.31-10.62,0.13-15.91-0.66c-2.6-0.39-5.19-1.06-7.52-2.29c-2.53-1.33-4.46-3.3-6.28-5.45c-3.41-4.03-8.22-9.38-14.15-7.07
			c-0.45,0.17-0.62,0.99,0,1.08c6.54,0.92,6.63,9.13,8,14.02c1.24,4.45,4.26,7.56,8.46,9.38c8.64,3.72,19.15,2.61,26.36,9.45
			c3.96,3.75,6.35,8.95,6.51,14.37c-4.77-6.77-13.56-9.09-21.5-9.48c-5.28-0.27-10.58,0.08-15.87,0
			c-5.05-0.07-10.09-0.41-15.06-1.31c-4.79-0.87-9.53-2.28-13.9-4.5c-4.17-2.11-7.84-4.99-11.38-8.01
			c-6.81-5.79-13.41-11.95-22.27-14.34c-5.44-1.48-11.11-1.76-16.72-2.08c-6.4-0.38-12.82-0.75-19.22-1.13
			c-0.73-0.04-0.71,1.08,0,1.12c5.58,0.32,11.14,0.66,16.72,0.98c5.17,0.31,10.4,0.48,15.5,1.41c4.71,0.87,9.09,2.56,13.11,5.14
			c3.72,2.4,7.06,5.34,10.4,8.23c3.22,2.77,6.46,5.54,10.05,7.8c3.91,2.46,8.25,4.22,12.71,5.4c9.25,2.45,18.86,2.49,28.35,2.33
			c10.29-0.17,23.43,0.34,29.1,10.58c0.28,0.52,1.01,0.24,1.05-0.28c0.35-5.23-1.36-10.41-4.56-14.54
			c-3.13-4.04-7.41-6.53-12.27-7.93c-4.64-1.33-9.48-1.87-14.09-3.31c-5.19-1.62-9.13-4.61-10.54-10.07
			c-1.19-4.63-1.71-11.56-6.57-13.74c4.71-0.36,8.44,4.32,11.27,7.63c3.17,3.7,6.89,6.15,11.67,7.24
			c9.14,2.08,18.72-0.21,27.71,2.84c4.52,1.54,8.71,4.42,10.11,9.18c0.14,0.49,0.75,0.52,1.02,0.14
			C834.22,311.2,828.67,305.23,823.97,302.99z"/>
		<g>
			<path class="st4" d="M612.77,165.8c-0.11,0-0.22,0-0.32,0c-4.82-0.17-10.55-2.74-17.05-7.65c-4.81-3.63-8.28-7.26-8.32-7.3
				l0.81-0.77c0.14,0.14,13.63,14.2,24.6,14.59c10.79,0.38,19.45-20.98,19.54-21.19l1.03,0.42c-0.03,0.06-2.25,5.61-5.84,11.03
				C622.43,162.14,617.57,165.8,612.77,165.8z"/>
		</g>
		<g class="st2">
			<path class="st3" d="M588.6,237.75c0.35,0.67,0.6,1.2,0.68,1.48l1.62-0.57C590.07,238.45,589.3,238.14,588.6,237.75z"/>
		</g>
		<g>
			<path class="st4" d="M601.83,162.67c1.78,3.61,3.1,7.53,2.43,11.59c-0.55,3.3-2.07,6.35-4.7,8.46c-2.42,1.94-5.59,3.09-8.7,3.05
				c-3.86-0.04-7.72-0.35-11.57-0.03c-3.38,0.28-7.16,0.98-9.97,2.99c-2.11,1.5-3.65,3.59-4.68,5.96c-1.09,2.49-1.61,5.17-1.96,7.86
				c-0.42,3.24-0.74,6.5-1.15,9.74c-2.04,16.22-1.66,32.59-0.04,48.83c0.7,6.99,1.13,14.33,3.82,20.9
				c2.1,5.1,6.53,11.88,12.75,11.81c3.3-0.03,6.35-1.78,9.09-3.45c3.37-2.07,6.7-4.21,10.01-6.36c6.37-4.14,12.65-8.4,18.83-12.82
				c6.01-4.29,11.94-8.71,17.77-13.24c3.08-2.39,6.12-4.81,9.16-7.26c1.47-1.19,2.94-2.39,4.4-3.59c0.67-0.55,1.34-1.1,2.01-1.66
				c0.5-0.42,1.08-1.01,1.72-1.22c0.73-0.24,1.55-0.11,2.28,0c1.58,0.24,2.98,0.39,4.59,0.21c1.65-0.18,3.29-0.43,4.91-0.8
				c3.27-0.73,6.5-1.87,9.35-3.68c5.17-3.26,7.48-8.44,7.38-14.47c-0.04-3.05-0.62-6.08-1.44-9c-0.67-2.38-1.26-5.3-4.21-5.63
				c-2.67-0.31-5.05,2.66-6.39,4.6c-0.85,1.23-1.58,2.56-2.31,3.87c-0.85,1.55-1.62,3.31-2.91,4.56c-2.29,2.22-5.52,2.91-7.88,4.93
				c-1.23,1.06-2.21,2.35-3.26,3.58c-1.29,1.54-2.67,2.56-4.39,3.58c-6.84,4.05-13.81,7.87-20.8,11.63
				c-6.96,3.75-13.95,7.45-20.83,11.32c-3.51,1.97-6.99,4-10.43,6.08c-0.94,0.57-1.87,1.15-2.81,1.72c-0.84,0.52-1.69,1.2-2.66,1.5
				c-2.4,0.71-4.22-1.29-5.31-3.15c-1.61-2.75-2.12-6.04-2.19-9.17c-0.01-0.71-1.13-0.73-1.12,0c0.07,2.89,0.5,5.83,1.71,8.49
				c1.1,2.45,3.15,5.26,6.15,5.1c1.51-0.07,2.74-1.02,3.98-1.79c1.86-1.15,3.72-2.28,5.61-3.4c3.35-1.99,6.75-3.93,10.16-5.82
				c6.67-3.7,13.42-7.27,20.14-10.9c6.91-3.72,13.99-7.34,20.58-11.6c2.77-1.79,4.12-5.09,6.89-6.81c2.56-1.59,5.45-2.57,7.58-4.81
				c2.03-2.12,3.05-5.21,4.63-7.67c0.82-1.27,1.76-2.49,2.94-3.47c0.68-0.56,1.57-1.26,2.49-1.29c1.43-0.03,2.28,0.98,2.73,2.17
				c2.08,5.4,3.24,12.2,1.31,17.78c-2.33,6.78-9.81,9.73-16.34,10.93c-1.59,0.29-3.24,0.62-4.86,0.64
				c-1.72,0.03-3.44-0.75-5.16-0.42c-1.45,0.28-2.52,1.52-3.61,2.43c-1.52,1.26-3.06,2.52-4.6,3.77
				c-5.84,4.75-11.78,9.39-17.81,13.91c-12.05,9.02-24.52,17.49-37.28,25.47c-3.03,1.9-6.47,4.25-10.22,4.07
				c-3.63-0.17-6.54-3.22-8.51-6.03c-4-5.68-5-12.57-5.8-19.29c-1.86-15.84-2.74-31.82-1.41-47.74c0.34-4.03,0.96-8.01,1.43-12.02
				c0.32-2.77,0.43-5.52,1.03-8.26c0.62-2.82,1.64-5.65,3.56-7.86c2.43-2.77,6-3.91,9.56-4.45c3.76-0.55,7.59-0.32,11.37-0.22
				c3.02,0.08,5.75-0.14,8.53-1.44c5.3-2.49,8.35-8,8.21-13.78c-0.08-3.36-1.3-6.53-2.77-9.51
				C602.49,161.47,601.52,162.03,601.83,162.67L601.83,162.67z"/>
		</g>
		<g>
			<path class="st4" d="M644.02,250.84c4.56,0.81,9.16,1.36,13.78,1.69c2.35,0.17,4.71,0.29,7.06,0.36
				c1.27,0.04,2.56,0.07,3.83,0.08c1.05,0.01,2.35,0.24,3.37,0.01c2.56-0.57,3.8-3.8,3.86-6.11c0.07-2.95-0.99-5.79-1.72-8.6
				c-0.18-0.7-1.26-0.41-1.08,0.29c0.64,2.52,1.57,5.03,1.66,7.65c0.06,1.31-0.13,2.67-0.84,3.79c-0.38,0.6-0.95,1.22-1.58,1.55
				c-0.92,0.5-2.1,0.29-3.13,0.28c-8.35-0.1-16.71-0.64-24.93-2.11C643.61,249.64,643.31,250.71,644.02,250.84L644.02,250.84z"/>
		</g>
		<g>
			<path class="st4" d="M614.3,253.75c-4.4-1.22-8.92-1.26-13.43-0.68c-2.21,0.28-4.39,0.68-6.57,1.12
				c-2.26,0.46-4.54,1.09-6.86,1.22c-3.72,0.21-7.84-0.25-10.79-2.74c-2.63-2.22-4.74-5.48-6.23-8.56
				c-1.55-3.2-2.52-6.96-1.48-10.47c0.49-1.65,1.75-4.35,3.62-4.7c1.87-0.35,3.9,1.09,5.35,2.12c1.62,1.15,2.81,2.85,4.32,4.15
				c1.29,1.1,2.71,1.86,4.26,2.52c1.87,0.78,3.69,1.65,5.7,1.93c2.33,0.34,4.56,0.38,6.67,1.55c2.03,1.13,3.96,2.43,6.26,2.92
				c2.38,0.52,4.81,0.84,7.21,1.13c5.38,0.68,10.76,1.2,16.03,2.54c0.7,0.18,0.99-0.91,0.29-1.08c-4.85-1.23-9.8-1.79-14.76-2.39
				c-2.57-0.31-5.16-0.64-7.7-1.13c-2.54-0.49-4.54-1.72-6.78-2.96c-2.01-1.13-4.1-1.34-6.35-1.59c-2.39-0.27-4.57-1.23-6.75-2.19
				c-3.82-1.71-5.91-5.34-9.48-7.4c-1.34-0.77-2.96-1.5-4.54-1.22c-1.66,0.29-2.75,1.87-3.52,3.26c-1.66,2.96-1.72,6.46-0.84,9.67
				c0.96,3.56,2.91,6.84,5.2,9.72c2.33,2.95,4.98,4.99,8.75,5.72c4.91,0.94,9.51-0.35,14.3-1.26c5.9-1.12,11.92-1.75,17.8-0.11
				C614.7,255.02,615,253.93,614.3,253.75L614.3,253.75z"/>
		</g>
		<g>
			<path class="st4" d="M676.95,194.26c3.9,8.95,8.04,17.87,11.5,26.99c3.34,8.79,5.73,17.7,7.24,26.98
				c0.74,4.53,1.47,9.21,0.73,13.8c-0.17,1.02-0.41,2.03-0.74,3.02c-0.38,1.15-1.03,2.04-1.62,3.08c-0.66,1.16-1.33,1.97-2.5,2.61
				c-0.92,0.5-1.92,0.84-2.95,1.02c-3.97,0.71-8.05-0.63-11.9-1.48c-4.56-0.99-9.23-1.38-13.8-2.33
				c-10.51-2.21-20.73-5.59-30.82-9.23c-0.68-0.25-0.98,0.84-0.29,1.08c9.59,3.47,19.31,6.7,29.27,8.9c2.4,0.53,4.82,1.01,7.26,1.41
				c2.4,0.39,4.85,0.6,7.24,1.09c3.93,0.8,7.93,2.17,11.99,1.83c1.82-0.15,3.59-0.66,5.13-1.64c0.75-0.49,1.45-0.96,1.87-1.78
				c0.5-0.96,1.24-1.85,1.66-2.84c1.75-4.12,1.85-8.65,1.38-13.04c-1.02-9.69-3.24-19.21-6.46-28.41
				c-3.77-10.76-8.65-21.19-13.22-31.64C677.64,193.03,676.67,193.61,676.95,194.26L676.95,194.26z"/>
		</g>
		<g>
			<path class="st4" d="M606.81,98.38c3.84,2.98,6.01,7.35,7.98,11.69c2.22,4.89,4.28,9.87,6.5,14.76
				c4.03,8.89,8.7,17.63,15.5,24.73c6.64,6.92,14.78,11.41,24.3,12.81c5.31,0.78,10.69,0.95,16.01,1.85
				c5.23,0.88,10.41,2.26,15.25,4.45c9.69,4.36,18.1,12.18,21.09,22.62c0.2,0.7,1.29,0.39,1.08-0.29
				c-2.45-8.54-8.53-15.61-15.98-20.28c-8.86-5.55-19.17-7.6-29.43-8.57c-5.49-0.52-11.04-0.96-16.26-2.91
				c-4.46-1.66-8.54-4.28-12.11-7.41c-7.6-6.68-12.8-15.46-17.1-24.52c-2.6-5.48-4.89-11.09-7.37-16.62
				c-2.14-4.79-4.42-9.79-8.68-13.08C607.04,97.16,606.25,97.95,606.81,98.38L606.81,98.38z"/>
		</g>
		<g>
			<path class="st4" d="M622.31,108.21c4.67,8.93,4.99,19.22,8.16,28.64c1.37,4.07,3.24,8.02,6.04,11.3
				c2.95,3.45,6.86,5.8,11.14,7.26c9.87,3.36,20.51,1.87,30.66,3.55c8.75,1.44,17.17,4.7,24.67,9.41
				c8.51,5.33,15.8,12.51,21.15,21.02c0.38,0.62,1.36,0.04,0.96-0.56c-9.21-14.64-24.11-25.43-40.85-29.75
				c-4.42-1.13-8.92-1.76-13.46-2.03c-5.59-0.34-11.23-0.27-16.76-1.22c-4.71-0.8-9.42-2.31-13.28-5.21
				c-3.93-2.95-6.57-7.24-8.36-11.76c-4.01-10.13-4.01-21.47-9.11-31.23C622.94,107.01,621.97,107.58,622.31,108.21L622.31,108.21z"
				/>
		</g>
		<g>
			<path class="st4" d="M601.61,95.75c-7.83-0.66-12.86,6.43-14.72,13.15c-2.39,8.61-1.57,17.7-0.77,26.46
				c0.82,8.92,1.72,18.2-0.92,26.91c-2.31,7.65-7.24,14.2-14.86,17.08c-7.55,2.84-17.19,3.33-21.81,10.97
				c-0.38,0.62,0.6,1.19,0.96,0.56c4.22-7,13.2-7.72,20.21-10.13c6.86-2.38,11.94-7.24,14.93-13.84
				c7.21-15.88,0.59-33.45,1.99-50.03c0.7-8.26,4.36-20.91,14.99-20.03C602.32,96.93,602.32,95.81,601.61,95.75L601.61,95.75z"/>
		</g>
		<g>
			<path class="st4" d="M566.96,174.57c7.02-2.07,11.13-9.07,12.22-15.95c1.55-9.8-2.1-19.46-2.21-29.23
				c-0.06-5.13,0.85-10.29,3.75-14.62c0.41-0.6-0.57-1.16-0.96-0.56c-10.53,15.68,4.36,34.99-3.91,51.14
				c-1.94,3.79-5.03,6.93-9.18,8.16C565.97,173.7,566.27,174.78,566.96,174.57L566.96,174.57z"/>
		</g>
		<g>
			<path class="st4" d="M592.62,87.9c-8.92,5.68-15.71,14.29-19.47,24.14c-1.86,4.89-2.96,10.08-3.17,15.31
				c-0.27,6.28,1.1,12.39,1.99,18.58c0.55,3.83,0.96,7.87,0.32,11.71c-0.48,2.92-1.82,6.23-4.95,7.06c-0.7,0.18-0.41,1.26,0.29,1.08
				c5.03-1.33,6-7.49,6.07-11.9c0.1-6.89-1.83-13.6-2.45-20.44c-1.01-11.07,2.12-22.24,8.37-31.4c3.59-5.26,8.21-9.77,13.57-13.18
				C593.79,88.47,593.23,87.5,592.62,87.9L592.62,87.9z"/>
		</g>
		<g>
			<path class="st4" d="M630.05,78.98c-7.48-6.95-17.54-10.71-27.73-10.43c-0.71,0.01-0.73,1.15,0,1.12
				c9.9-0.27,19.68,3.36,26.94,10.11C629.79,80.26,630.58,79.48,630.05,78.98L630.05,78.98z"/>
		</g>
		<g>
			<path class="st4" d="M593.13,68.7c-8.67,2.31-16.31,7.59-21.49,14.93c-0.42,0.59,0.56,1.15,0.96,0.56
				c4.99-7.1,12.44-12.19,20.82-14.41C594.13,69.6,593.83,68.52,593.13,68.7L593.13,68.7z"/>
		</g>
		<g>
			<path class="st4" d="M568.56,89.45c-0.73,3.66-1.17,7.37-1.31,11.1c-0.03,0.73,1.09,0.71,1.12,0c0.14-3.63,0.57-7.23,1.27-10.81
				C569.77,89.04,568.7,88.75,568.56,89.45L568.56,89.45z"/>
		</g>
		<g>
			<path class="st4" d="M668.38,150.26c6.11,4.32,13.71,5.89,20.93,7.37c7.3,1.51,14.73,2.94,21.26,6.71
				c0.63,0.36,1.19-0.6,0.56-0.96c-6.33-3.66-13.52-5.17-20.61-6.63c-7.41-1.52-15.28-3.01-21.58-7.45
				C668.36,148.87,667.8,149.85,668.38,150.26L668.38,150.26z"/>
		</g>
		<g>
			<path class="st4" d="M543.03,198.22c-1.23,9.93-1.59,20.16-0.41,30.1c1.02,8.57,3.82,17.21,10.33,23.18
				c0.53,0.49,1.33-0.31,0.8-0.8c-6.71-6.14-9.32-15.15-10.18-23.95c-0.92-9.48-0.59-19.11,0.57-28.55
				C544.25,197.51,543.13,197.51,543.03,198.22L543.03,198.22z"/>
		</g>
		<g>
			<path class="st4" d="M555.05,195.89c-3.41,4.07-3.13,10.4-3.09,15.42c0.04,5.68,0.89,11.44,3.9,16.36
				c0.38,0.62,1.34,0.06,0.96-0.56c-2.82-4.61-3.66-9.98-3.75-15.31c-0.04-2.47,0.06-4.96,0.25-7.42c0.22-2.73,0.71-5.52,2.52-7.67
				C556.31,196.12,555.52,195.33,555.05,195.89L555.05,195.89z"/>
		</g>
		<g>
			<path class="st4" d="M536.87,225.38c-1.68,18.26,7.19,36.11,22.7,45.84c0.62,0.38,1.17-0.59,0.56-0.96
				c-15.21-9.53-23.79-27.01-22.16-44.87C538.06,224.67,536.94,224.67,536.87,225.38L536.87,225.38z"/>
		</g>
		<g>
			<path class="st4" d="M588.12,263.81c1.55,0.87,3.22,1.36,4.99,1.52c0.71,0.07,0.71-1.05,0-1.12c-1.57-0.15-3.05-0.62-4.42-1.37
				C588.05,262.5,587.49,263.46,588.12,263.81L588.12,263.81z"/>
		</g>
		<g>
			<path class="st4" d="M595.82,159.8c0.66,4.4-0.81,8.88-3.91,12.06c-0.5,0.52,0.29,1.31,0.8,0.8c3.4-3.49,4.92-8.33,4.21-13.15
				C596.8,158.8,595.72,159.09,595.82,159.8L595.82,159.8z"/>
		</g>
		<g>
			<path class="st4" d="M597.59,168.79c-0.98,3.89-3.34,7.16-6.36,9.74c-2.89,2.47-6.74,3.84-9.21,6.79
				c-0.46,0.55,0.34,1.34,0.8,0.8c1.4-1.66,3.23-2.71,5.06-3.83c1.71-1.03,3.31-2.18,4.78-3.52c2.85-2.61,5.06-5.89,6.01-9.66
				C598.85,168.39,597.78,168.09,597.59,168.79L597.59,168.79z"/>
		</g>
		<g>
			<path class="st4" d="M630.65,156.34c4.53,6.03,11.04,10.27,18.41,11.9c0.7,0.15,1.01-0.92,0.29-1.08
				c-7.06-1.57-13.39-5.59-17.74-11.39C631.19,155.21,630.22,155.76,630.65,156.34L630.65,156.34z"/>
		</g>
		<g>
			<path class="st4" d="M671.08,169.21c4.72,4.03,11.04,5.33,15.88,9.14c4.96,3.91,7.84,10.07,7.81,16.37c0,0.73,1.12,0.73,1.12,0
				c0.03-6.09-2.54-12.11-7.06-16.23c-4.95-4.53-11.9-5.75-16.97-10.07C671.33,167.95,670.54,168.74,671.08,169.21L671.08,169.21z"
				/>
		</g>
		<g>
			<path class="st4" d="M614.17,84.92c4.25,2,8.02,4.89,11.03,8.51c3.33,4.03,5.37,8.79,6.75,13.78
				c2.61,9.39,3.44,20.06,10.14,27.72c3.2,3.66,7.56,6.29,12.48,6.63c0.71,0.06,0.71-1.08,0-1.12
				c-10.54-0.71-15.89-11.24-18.33-20.23c-2.53-9.37-3.61-19.24-9.84-27.06c-3.12-3.93-7.13-7.06-11.67-9.2
				C614.09,83.65,613.52,84.61,614.17,84.92L614.17,84.92z"/>
		</g>
		<g>
			<path class="st4" d="M583.91,200.22c4.56,0.63,9.16,0.89,13.77,0.71c2.28-0.08,4.56-0.45,6.82-0.48c2.18-0.03,4.72,0.7,5.07,3.2
				c0.1,0.71,1.17,0.41,1.08-0.29c-0.66-4.67-6.36-4.01-9.72-3.73c-5.58,0.46-11.2,0.29-16.75-0.48
				C583.5,199.04,583.19,200.12,583.91,200.22L583.91,200.22z"/>
		</g>
		<g>
			<path class="st4" d="M636.39,194.71c0.14-1.5,0.5-2.99,1.33-4.26c0.87-1.34,2.25-2.25,3.56-3.12c2.61-1.75,5.41-3.23,8.32-4.43
				c0.66-0.27,0.36-1.36-0.29-1.08c-3.47,1.44-6.78,3.22-9.83,5.41c-2.61,1.89-3.89,4.29-4.21,7.49
				C635.2,195.44,636.32,195.42,636.39,194.71L636.39,194.71z"/>
		</g>
		<g>
			<path class="st4" d="M629.89,141.18c-0.84,1.87-1.75,3.72-2.71,5.52c-0.34,0.64,0.63,1.2,0.96,0.56
				c0.96-1.82,1.86-3.66,2.71-5.52C631.14,141.1,630.18,140.53,629.89,141.18L629.89,141.18z"/>
		</g>
		<g>
			<path class="st4" d="M625.58,143.49c-1.08,2.53-2.4,4.91-4,7.14c-0.42,0.59,0.56,1.15,0.96,0.56c1.59-2.24,2.92-4.61,4-7.14
				C626.82,143.41,625.86,142.83,625.58,143.49L625.58,143.49z"/>
		</g>
		<g>
			<path class="st4" d="M585.67,274.64c4.92,0.62,9.06-2.26,12.8-5.07c0.57-0.43,0.01-1.4-0.56-0.96c-3.59,2.7-7.51,5.52-12.23,4.92
				C584.96,273.43,584.97,274.56,585.67,274.64L585.67,274.64z"/>
		</g>
		<g>
			<path class="st4" d="M581.87,279.13c1.99-0.1,3.86-0.53,5.68-1.31c0.66-0.28,0.08-1.24-0.56-0.96c-1.64,0.7-3.34,1.08-5.1,1.16
				C581.15,278.04,581.14,279.16,581.87,279.13L581.87,279.13z"/>
		</g>
		<g>
			<path class="st4" d="M663.73,179.64c1.13,8.96-4.42,17.7-12.94,20.56c-4.36,1.47-8.85,2.29-13.06,4.24
				c-3.9,1.8-7.41,4.32-9.98,7.8c-0.43,0.59,0.55,1.15,0.96,0.56c2.95-4,7.3-6.61,11.87-8.37c4.45-1.71,9.37-2.25,13.62-4.45
				c7.28-3.76,11.69-12.25,10.65-20.35C664.75,178.94,663.63,178.93,663.73,179.64L663.73,179.64z"/>
		</g>
		<g>
			<path class="st4" d="M641.73,209.42c-3.73,1.72-6.57,4.66-9.23,7.72c-2.85,3.31-5.61,6.65-9.13,9.3
				c-7.1,5.34-15.95,8.08-24.83,7.73c-0.73-0.03-0.71,1.09,0,1.12c8.75,0.36,17.54-2.25,24.67-7.35c3.55-2.54,6.42-5.69,9.23-9
				c2.84-3.34,5.79-6.67,9.84-8.54C642.94,210.09,642.37,209.12,641.73,209.42L641.73,209.42z"/>
		</g>
		<g>
			<path class="st4" d="M615.1,240.93c6.22-1.17,11.87-4.52,15.87-9.41c0.45-0.56-0.34-1.36-0.8-0.8c-3.9,4.77-9.31,8-15.38,9.13
				C614.09,239.98,614.38,241.05,615.1,240.93L615.1,240.93z"/>
		</g>
		<g>
			<path class="st4" d="M592.57,256.35c2.52,3.34,6.71,4.91,10.79,3.98c0.7-0.15,0.41-1.24-0.29-1.08c-3.55,0.8-7.33-0.56-9.53-3.47
				C593.12,255.21,592.14,255.77,592.57,256.35L592.57,256.35z"/>
		</g>
		<g>
			<path class="st4" d="M662.36,243.48c-2.95,3.84-7.62,6.01-12.46,5.86c-0.73-0.03-0.73,1.1,0,1.12
				c5.26,0.17,10.23-2.25,13.42-6.42C663.77,243.47,662.79,242.91,662.36,243.48L662.36,243.48z"/>
		</g>
		<g>
			<path class="st4" d="M656.78,268.89c-0.17,2.59-0.75,5.1-1.82,7.46c-0.91,2-2.08,3.84-3.1,5.79c-2,3.8-2.95,7.9-2.57,12.2
				c0.06,0.71,1.19,0.71,1.12,0c-0.42-4.92,1.02-9.17,3.4-13.41c2.17-3.84,3.82-7.59,4.11-12.05
				C657.94,268.16,656.82,268.17,656.78,268.89L656.78,268.89z"/>
		</g>
		<g>
			<path class="st4" d="M659.61,277.06c-1.33,3.17-4.66,5.12-4.82,8.81c-0.03,0.73,1.09,0.71,1.12,0c0.17-3.4,3.54-5.52,4.79-8.51
				C660.96,276.7,659.89,276.42,659.61,277.06L659.61,277.06z"/>
		</g>
		<g>
			<path class="st4" d="M654.46,295.24c0.81,3.31,2.77,6.12,5.58,8.07c0.6,0.41,1.16-0.56,0.56-0.96c-2.57-1.78-4.32-4.36-5.06-7.4
				C655.37,294.24,654.29,294.54,654.46,295.24L654.46,295.24z"/>
		</g>
		<g>
			<path class="st4" d="M596.52,288.67c0.82,3.45,0.96,7,1.51,10.51c0.45,2.94,1.2,5.82,2.25,8.6c2.01,5.37,5.05,10.34,8.92,14.58
				c8.02,8.78,19.67,13.98,31.55,14.24c6.5,0.15,13.64-1.43,17.31-7.31c0.38-0.62-0.59-1.17-0.96-0.56
				c-3.41,5.47-10.09,6.86-16.12,6.77c-5.79-0.1-11.56-1.4-16.85-3.76c-10.34-4.63-18.52-13.27-22.62-23.83
				c-1.06-2.77-1.86-5.65-2.33-8.57c-0.6-3.65-0.71-7.35-1.58-10.95C597.43,287.66,596.35,287.97,596.52,288.67L596.52,288.67z"/>
		</g>
		<g>
			<path class="st4" d="M632.93,326.86c11.27,0.46,22.44-4.26,29.96-12.67c0.48-0.53-0.31-1.33-0.8-0.8
				c-7.34,8.21-18.17,12.79-29.16,12.34C632.21,325.71,632.21,326.83,632.93,326.86L632.93,326.86z"/>
		</g>
		<g>
			<path class="st4" d="M577.25,323.91c0,5.69,1.97,11.06,4.53,16.06c2.66,5.21,5.7,10.33,8.95,15.2
				c3.12,4.68,6.74,8.96,11.27,12.33c4.75,3.54,10.12,6.33,15.38,9.06c5.87,3.05,12.02,5.62,18.66,6.21c0.71,0.06,0.71-1.06,0-1.12
				c-5.93-0.52-11.48-2.71-16.75-5.37c-4.93-2.47-9.9-5.13-14.51-8.19c-9.49-6.32-15.22-16.3-20.62-26.06
				c-3.1-5.61-5.76-11.6-5.77-18.12C578.37,323.19,577.25,323.18,577.25,323.91L577.25,323.91z"/>
		</g>
		<g>
			<path class="st4" d="M625.19,367.96c13.53,10.75,31.09,15.17,43.98,26.83c3.47,3.13,6.44,6.74,8.65,10.86
				c0.34,0.64,1.31,0.07,0.96-0.56c-8.15-15.25-25.11-21.75-39.52-29.45c-4.64-2.47-9.16-5.19-13.28-8.46
				C625.43,366.71,624.63,367.51,625.19,367.96L625.19,367.96z"/>
		</g>
		<g>
			<path class="st4" d="M679.29,343.58c-1.38,21.35,2.92,42.96,12.32,62.18c8.79,17.98,22.09,33.55,38.29,45.25
				c8.92,6.44,18.69,11.67,29.01,15.52c0.67,0.25,0.96-0.82,0.29-1.08c-18.16-6.78-34.58-17.96-47.63-32.29
				c-13.88-15.25-23.6-34-28.25-54.07c-2.7-11.62-3.68-23.61-2.91-35.51C680.46,342.85,679.34,342.86,679.29,343.58L679.29,343.58z"
				/>
		</g>
		<g>
			<path class="st4" d="M589.32,367.47c3.48,4.28,7.76,7.8,12.62,10.41c0.63,0.34,1.2-0.63,0.56-0.96
				c-4.78-2.57-8.96-6.03-12.39-10.23C589.65,366.11,588.87,366.91,589.32,367.47L589.32,367.47z"/>
		</g>
		<g>
			<path class="st4" d="M611.84,383.31c4.91,2.39,10.04,4.24,15.35,5.52c0.7,0.17,1.01-0.91,0.29-1.08
				c-5.21-1.26-10.26-3.06-15.08-5.41C611.77,382.03,611.2,383,611.84,383.31L611.84,383.31z"/>
		</g>
		<g>
			<path class="st4" d="M642.54,393.86c8.7,2.53,16.54,7.38,22.67,14.02c0.49,0.53,1.29-0.27,0.8-0.8
				c-6.28-6.78-14.3-11.74-23.18-14.31C642.13,392.59,641.84,393.66,642.54,393.86L642.54,393.86z"/>
		</g>
		<g>
			<path class="st4" d="M588.77,398.47c10.86,22.32,28.9,41.04,50.81,52.7c6.11,3.24,12.61,5.66,18.69,8.93
				c6.05,3.26,10.95,7.79,16.03,12.34c4.63,4.14,9.51,7.86,15.42,9.94c5.76,2.03,11.92,2.6,17.98,2.74
				c13.77,0.34,28.91-1.89,41.32,5.51c0.62,0.36,1.19-0.6,0.56-0.96c-10.62-6.32-23.35-5.72-35.24-5.62
				c-6.21,0.06-12.47,0.03-18.58-1.19c-6.44-1.27-12.11-4.07-17.18-8.21c-4.96-4.05-9.37-8.78-14.66-12.44
				c-5.75-3.96-12.29-6.47-18.56-9.41c-11.38-5.34-21.86-12.54-30.96-21.22c-10.13-9.66-18.52-21.09-24.66-33.69
				C589.43,397.26,588.47,397.83,588.77,398.47L588.77,398.47z"/>
		</g>
		<g>
			<path class="st4" d="M654.68,447.16c13.85,4.71,22.67,17.6,35.77,23.67c7.67,3.55,16.12,3.8,24.42,3.9
				c8.74,0.1,17.28,0.71,25.76,2.96c9.34,2.49,18.2,6.53,26.21,11.92c0.6,0.41,1.16-0.57,0.56-0.96
				c-14.04-9.46-30.5-14.52-47.4-14.97c-8.92-0.24-18.16,0.34-26.67-2.85c-6.96-2.61-12.78-7.44-18.45-12.09
				c-6.11-5-12.34-10.08-19.92-12.65C654.31,445.85,654.01,446.94,654.68,447.16L654.68,447.16z"/>
		</g>
		<g>
			<path class="st4" d="M692.36,491.04c3.61,1.5,7.48,2.03,11.37,1.59c0.71-0.08,0.71-1.2,0-1.12c-3.79,0.43-7.53-0.08-11.06-1.55
				C692,489.69,691.7,490.76,692.36,491.04L692.36,491.04z"/>
		</g>
		<g>
			<path class="st4" d="M711.2,493.32c3.49,1.03,7.1,1.41,10.74,1.1c0.71-0.06,0.71-1.19,0-1.12c-3.54,0.29-7.03-0.06-10.44-1.06
				C710.8,492.04,710.5,493.11,711.2,493.32L711.2,493.32z"/>
		</g>
		<g>
			<path class="st4" d="M731.93,494.92c5.48,0.46,10.96,0.91,16.43,1.37c0.71,0.06,0.71-1.06,0-1.12
				c-5.48-0.46-10.96-0.91-16.43-1.37C731.22,493.74,731.22,494.86,731.93,494.92L731.93,494.92z"/>
		</g>
		<g>
			<path class="st4" d="M783.38,495.45c2.22,1.15,3.93,2.94,4.96,5.21c0.29,0.66,1.26,0.08,0.96-0.56
				c-1.12-2.43-2.99-4.39-5.37-5.62C783.31,494.15,782.74,495.11,783.38,495.45L783.38,495.45z"/>
		</g>
		<g>
			<path class="st4" d="M645.61,566.14c0,3.91,0,7.83,0,11.74c0,0.73,1.12,0.73,1.12,0c0-3.91,0-7.83,0-11.74
				C646.73,565.41,645.61,565.41,645.61,566.14L645.61,566.14z"/>
		</g>
		<g>
			<path class="st4" d="M644.93,553.81c0.21,1.96,0.42,3.91,0.63,5.87c0.07,0.71,1.2,0.71,1.12,0c-0.21-1.96-0.42-3.91-0.63-5.87
				C645.96,553.1,644.84,553.1,644.93,553.81L644.93,553.81z"/>
		</g>
		<g>
			<path class="st4" d="M642.68,559.67c0,2.74,0,5.48,0,8.22c0,0.73,1.12,0.73,1.12,0c0-2.74,0-5.48,0-8.22
				C643.79,558.96,642.68,558.96,642.68,559.67L642.68,559.67z"/>
		</g>
		<g>
			<path class="st4" d="M600.18,570.38c0.41-2.35,0.82-4.7,1.23-7.03c0.13-0.7-0.95-1.01-1.08-0.29c-0.41,2.35-0.82,4.7-1.23,7.03
				C598.98,570.78,600.05,571.08,600.18,570.38L600.18,570.38z"/>
		</g>
		<g>
			<path class="st4" d="M566.31,206.65c-0.57,1.83-0.89,3.69-0.98,5.59c-0.03,0.73,1.09,0.71,1.12,0c0.07-1.82,0.39-3.56,0.94-5.3
				C567.61,206.26,566.53,205.96,566.31,206.65L566.31,206.65z"/>
		</g>
		<g>
			<path class="st4" d="M569.9,207.68c0.35-1.31,0.68-2.63,1.03-3.94c0.18-0.7-0.89-0.99-1.08-0.29c-0.35,1.31-0.68,2.63-1.03,3.94
				C568.64,208.09,569.72,208.38,569.9,207.68L569.9,207.68z"/>
		</g>
		<g>
			<path class="st4" d="M586.63,130.77c3.35,1.27,7,0.35,9.35-2.36c0.48-0.55-0.32-1.34-0.8-0.8c-2.11,2.43-5.24,3.22-8.26,2.07
				C586.26,129.43,585.96,130.5,586.63,130.77L586.63,130.77z"/>
		</g>
		<g>
			<path class="st4" d="M592.9,129.95c0.15,1.08,0.6,2.03,1.27,2.88c0.45,0.57,1.23-0.24,0.8-0.8c-0.55-0.7-0.85-1.51-0.98-2.39
				C593.88,128.94,592.78,129.25,592.9,129.95L592.9,129.95z"/>
		</g>
		<g>
			<path class="st4" d="M589.56,130.83c0.06,0.94,0.13,1.87,0.18,2.82c0.04,0.71,1.17,0.73,1.12,0c-0.06-0.94-0.13-1.87-0.18-2.82
				C590.63,130.11,589.51,130.11,589.56,130.83L589.56,130.83z"/>
		</g>
		<g>
			<path class="st4" d="M612.24,124.91c2.81,0.75,7,0.94,8.89-1.71c0.42-0.59-0.55-1.15-0.96-0.56c-1.51,2.11-5.42,1.78-7.62,1.19
				C611.85,123.64,611.54,124.73,612.24,124.91L612.24,124.91z"/>
		</g>
		<g>
			<path class="st4" d="M615.5,125.11c0,0.78,0,1.57,0,2.35c0,0.73,1.12,0.73,1.12,0c0-0.78,0-1.57,0-2.35
				C616.62,124.38,615.5,124.38,615.5,125.11L615.5,125.11z"/>
		</g>
		<g>
			<path class="st4" d="M618.42,124.9c0.39,0.82,0.78,1.65,1.17,2.46c0.31,0.66,1.27,0.08,0.96-0.56c-0.39-0.82-0.78-1.65-1.17-2.46
				C619.08,123.68,618.12,124.26,618.42,124.9L618.42,124.9z"/>
		</g>
		<path class="st4" d="M603.69,136.99c0.14,1.79,0.29,3.56,0.48,5.34c0.04,0.36,0.08,0.75,0.32,1.03c0.21,0.25,0.55,0.38,0.87,0.48
			c1.05,0.35,2.1,0.7,3.13,1.05c-0.64-2.82-1.27-5.66-1.92-8.49c-0.41-1.82-0.81-3.63-1.38-5.41c-0.28-0.89-0.77-3.77-1.69-4.19
			c-0.99,1.52-0.13,5.31-0.01,7.1C603.53,134.94,603.6,135.97,603.69,136.99z"/>
	</g>
	<g>
		<path class="st1" d="M580.34,398.05c1.48,1.5,10.16,12.67,10.16,12.67L578.34,405l-4.98,11.41l-0.98-10.43l-10.43,6.44l4.22-9.67
			l-14.15-0.27l11.42-4.95l-7.69-7.7l10.92,3.48l2.25-13.64l2.71,12.67l11.44-11.9l-4.24,11.66l11.42,1.01L580.34,398.05z"/>
		<path class="st1" d="M631.37,415.49c0.1,1.61-1.12,2.98-2.73,3.08c-1.61,0.1-2.98-1.12-3.08-2.73c-0.1-1.61,1.12-2.98,2.73-3.08
			C629.9,412.66,631.27,413.88,631.37,415.49z"/>
		<path class="st1" d="M645.15,419.47c0.1,1.61-1.12,2.98-2.73,3.08c-1.61,0.1-2.98-1.12-3.08-2.73c-0.1-1.61,1.12-2.98,2.73-3.08
			C643.67,416.65,645.05,417.86,645.15,419.47z"/>
		<path class="st1" d="M659.16,423.51c0.1,1.61-1.12,2.98-2.73,3.08c-1.61,0.1-2.98-1.12-3.08-2.73c-0.1-1.61,1.12-2.98,2.73-3.08
			C657.68,420.69,659.06,421.9,659.16,423.51z"/>
		<path class="st1" d="M672.55,427.38c0.1,1.61-1.12,2.98-2.73,3.08c-1.61,0.1-2.98-1.12-3.08-2.73c-0.1-1.61,1.12-2.98,2.73-3.08
			C671.07,424.56,672.45,425.77,672.55,427.38z"/>
		<path class="st1" d="M685.86,431.23c0.1,1.61-1.12,2.98-2.73,3.08c-1.61,0.1-2.98-1.12-3.08-2.73c-0.1-1.61,1.12-2.98,2.73-3.08
			C684.39,428.4,685.76,429.62,685.86,431.23z"/>
		<path class="st1" d="M699.64,435.21c0.1,1.61-1.12,2.98-2.73,3.08s-2.98-1.12-3.08-2.73c-0.1-1.61,1.12-2.98,2.73-3.08
			C698.16,432.39,699.54,433.6,699.64,435.21z"/>
		<path class="st1" d="M605.28,408.09c0.1,1.61-1.12,2.98-2.73,3.08s-2.98-1.12-3.08-2.73c-0.1-1.61,1.12-2.98,2.73-3.08
			C603.8,405.27,605.18,406.48,605.28,408.09z"/>
		<path class="st1" d="M618.3,411.85c0.1,1.61-1.12,2.98-2.73,3.08s-2.98-1.12-3.08-2.73c-0.1-1.61,1.12-2.98,2.73-3.08
			C616.82,409.03,618.2,410.24,618.3,411.85z"/>
		<polygon class="st1" points="716.96,437.57 724.73,427.13 723.94,440.86 731.32,444.87 721.2,444.28 715.82,457.42 716.43,446.7 
			703.42,445.07 710,441.68 708.69,432.54 		"/>
		<path class="st1" d="M554.87,264.22c-0.17-1.59,1.01-3.02,2.6-3.19c1.59-0.17,3.02,1.01,3.19,2.6c0.17,1.59-1.01,3.02-2.6,3.19
			C556.47,266.97,555.04,265.81,554.87,264.22z"/>
		<path class="st1" d="M540.95,260.78c-0.17-1.59,1.01-3.02,2.6-3.19c1.59-0.17,3.02,1.01,3.19,2.6c0.17,1.59-1.01,3.02-2.6,3.19
			C542.54,263.53,541.12,262.37,540.95,260.78z"/>
		<path class="st1" d="M526.8,257.28c-0.17-1.59,1.01-3.02,2.6-3.19c1.59-0.17,3.02,1.01,3.19,2.6s-1.01,3.02-2.6,3.19
			C528.38,260.05,526.96,258.88,526.8,257.28z"/>
		<path class="st1" d="M513.26,253.94c-0.17-1.59,1.01-3.02,2.6-3.19c1.59-0.17,3.02,1.01,3.19,2.6c0.17,1.59-1.01,3.02-2.6,3.19
			C514.85,256.71,513.42,255.54,513.26,253.94z"/>
		<path class="st1" d="M499.81,250.61c-0.17-1.59,1.01-3.02,2.6-3.19c1.59-0.17,3.02,1.01,3.19,2.6c0.17,1.59-1.01,3.02-2.6,3.19
			C501.39,253.38,499.96,252.22,499.81,250.61z"/>
		<path class="st1" d="M485.89,247.18c-0.17-1.59,1.01-3.02,2.6-3.19c1.59-0.17,3.02,1.01,3.19,2.6c0.17,1.59-1.01,3.02-2.6,3.19
			C487.48,249.94,486.05,248.78,485.89,247.18z"/>
		<polygon class="st1" points="468.48,245.51 461.13,256.25 461.38,242.49 453.84,238.77 463.99,238.96 468.84,225.63 
			468.65,236.36 481.72,237.49 475.27,241.12 476.95,250.21 		"/>
		<path class="st1" d="M463.06,559.46c1.64,0.17,2.84,1.62,2.68,3.26c-0.17,1.64-1.62,2.84-3.26,2.68
			c-1.64-0.15-2.84-1.62-2.68-3.26C459.95,560.49,461.41,559.29,463.06,559.46z"/>
		<path class="st1" d="M469.11,546.6c1.64,0.15,2.84,1.62,2.68,3.26c-0.17,1.64-1.62,2.84-3.26,2.68c-1.64-0.17-2.84-1.62-2.68-3.26
			C466.01,547.63,467.47,546.43,469.11,546.6z"/>
		<path class="st1" d="M475.37,533.29c1.64,0.17,2.84,1.62,2.68,3.26c-0.17,1.64-1.62,2.84-3.26,2.68
			c-1.64-0.15-2.84-1.62-2.68-3.26C472.27,534.32,473.74,533.14,475.37,533.29z"/>
		<path class="st1" d="M482.17,518.85c1.64,0.17,2.84,1.62,2.68,3.26c-0.17,1.64-1.62,2.84-3.26,2.68
			c-1.64-0.17-2.84-1.62-2.68-3.26C479.08,519.9,480.53,518.69,482.17,518.85z"/>
		<path class="st1" d="M489.53,505.95c1.64,0.17,2.84,1.62,2.68,3.26c-0.17,1.64-1.62,2.84-3.26,2.68
			c-1.64-0.17-2.84-1.62-2.68-3.26C486.43,506.98,487.9,505.79,489.53,505.95z"/>
		<path class="st1" d="M663.24,335.43c1.5-0.68,3.27-0.04,3.96,1.45c0.68,1.5,0.04,3.27-1.45,3.96s-3.27,0.04-3.96-1.45
			C661.1,337.89,661.74,336.11,663.24,335.43z"/>
		<path class="st1" d="M661.95,321.18c1.5-0.68,3.27-0.04,3.96,1.45c0.68,1.5,0.04,3.27-1.45,3.96s-3.27,0.04-3.96-1.45
			C659.8,323.64,660.46,321.87,661.95,321.18z"/>
		<path class="st1" d="M660.67,307.02c1.5-0.68,3.27-0.04,3.96,1.45c0.68,1.5,0.04,3.27-1.45,3.96s-3.27,0.04-3.96-1.45
			C658.52,309.48,659.17,307.72,660.67,307.02z"/>
		<path class="st1" d="M659.34,292.37c1.5-0.68,3.27-0.04,3.96,1.45c0.68,1.5,0.04,3.27-1.45,3.96c-1.5,0.68-3.27,0.04-3.96-1.45
			C657.19,294.84,657.84,293.07,659.34,292.37z"/>
		<path class="st1" d="M657.9,276.49c1.5-0.68,3.27-0.04,3.96,1.45c0.68,1.5,0.04,3.27-1.45,3.96s-3.27,0.04-3.96-1.45
			C655.75,278.95,656.4,277.17,657.9,276.49z"/>
		<path class="st1" d="M657.72,261.63c1.5-0.68,3.27-0.04,3.96,1.45c0.68,1.5,0.04,3.27-1.45,3.96s-3.27,0.04-3.96-1.45
			C655.58,264.09,656.22,262.31,657.72,261.63z"/>
		<path class="st1" d="M495.8,492.64c1.64,0.17,2.84,1.62,2.68,3.26c-0.15,1.64-1.62,2.84-3.26,2.68c-1.64-0.17-2.84-1.62-2.68-3.26
			C492.71,493.67,494.16,492.48,495.8,492.64z"/>
		<path class="st1" d="M502.6,478.21c1.64,0.17,2.84,1.62,2.68,3.26c-0.17,1.64-1.62,2.84-3.26,2.68c-1.64-0.17-2.84-1.62-2.68-3.26
			C499.5,479.25,500.95,478.04,502.6,478.21z"/>
		<path class="st1" d="M453.8,592.38c0.63,2.01,3.16,15.92,3.16,15.92l-8.14-10.69l-9.69,7.83l3.94-9.7l-12.23,0.89l8.22-6.63
			l-12.43-6.77l12.41,0.88l-3.26-10.39l8.07,8.14l8.29-11.07l-3.44,12.48l15.63-5.28l-9.14,8.39l9.66,6.16L453.8,592.38z"/>
		<polygon class="st1" points="672.23,73.41 668.86,88.48 664.83,74.28 652.17,74.69 663.49,68.23 656.68,54.47 665.18,60.69 
			670.47,50.72 673.43,60.01 684.59,56.75 676.27,64.97 684.95,71.22 		"/>
		<path class="st1" d="M553.6,420.8c0.7-1.5,2.49-2.12,3.97-1.43c1.5,0.7,2.12,2.49,1.43,3.97c-0.7,1.5-2.49,2.12-3.97,1.43
			C553.53,424.07,552.89,422.28,553.6,420.8z"/>
		<path class="st1" d="M540.32,432.02c0.7-1.5,2.49-2.12,3.97-1.43c1.5,0.7,2.12,2.49,1.43,3.97c-0.7,1.5-2.49,2.12-3.97,1.43
			C540.25,435.28,539.62,433.51,540.32,432.02z"/>
		<path class="st1" d="M528.23,441.5c0.7-1.5,2.49-2.12,3.97-1.43c1.5,0.7,2.12,2.49,1.43,3.97c-0.7,1.5-2.49,2.12-3.97,1.43
			C528.16,444.77,527.53,442.98,528.23,441.5z"/>
		<path class="st1" d="M576.44,370.64c1.52-0.62,3.27,0.13,3.89,1.65c0.62,1.52-0.13,3.27-1.65,3.89c-1.52,0.62-3.27-0.13-3.89-1.65
			C574.18,372.99,574.92,371.26,576.44,370.64z"/>
		<path class="st1" d="M575.86,355.93c1.52-0.62,3.27,0.13,3.89,1.65s-0.13,3.27-1.65,3.89s-3.27-0.13-3.89-1.65
			C573.59,358.3,574.33,356.55,575.86,355.93z"/>
		<path class="st1" d="M575.27,341c1.52-0.62,3.27,0.13,3.89,1.65c0.62,1.52-0.13,3.27-1.65,3.89c-1.52,0.62-3.27-0.13-3.89-1.65
			C572.99,343.35,573.73,341.62,575.27,341z"/>
		<path class="st1" d="M574.7,326.72c1.52-0.62,3.27,0.13,3.89,1.65s-0.13,3.27-1.65,3.89s-3.27-0.13-3.89-1.65
			C572.42,329.07,573.16,327.33,574.7,326.72z"/>
		<path class="st1" d="M574.12,312.51c1.52-0.62,3.27,0.13,3.89,1.65c0.62,1.52-0.13,3.27-1.65,3.89c-1.52,0.62-3.27-0.13-3.89-1.65
			C571.86,314.86,572.6,313.13,574.12,312.51z"/>
		<path class="st1" d="M573.54,297.82c1.52-0.62,3.27,0.13,3.89,1.65s-0.13,3.27-1.65,3.89c-1.52,0.62-3.27-0.13-3.89-1.65
			C571.26,300.17,572,298.44,573.54,297.82z"/>
		<path class="st1" d="M663.09,213.57c1.64-0.24,3.15,0.88,3.38,2.52s-0.88,3.15-2.52,3.4c-1.64,0.24-3.15-0.88-3.38-2.52
			C660.33,215.32,661.46,213.81,663.09,213.57z"/>
		<path class="st1" d="M666.18,197.91c1.64-0.24,3.15,0.88,3.38,2.52s-0.88,3.15-2.52,3.38c-1.64,0.24-3.15-0.88-3.38-2.52
			C663.42,199.67,664.54,198.15,666.18,197.91z"/>
		<polygon class="st1" points="668.31,178.2 657.76,168.56 669.11,169.6 678.76,155.51 677.12,173.27 687.69,180.35 673.99,179.1 
			668.55,188.2 		"/>
		<path class="st1" d="M577.7,286.25c0.99,1.26,0.78,3.09-0.49,4.08c-1.26,0.99-3.09,0.78-4.08-0.49c-0.99-1.26-0.78-3.09,0.49-4.08
			C574.88,284.77,576.71,284.99,577.7,286.25z"/>
		<path class="st1" d="M629.79,255.44c-0.66-1.47,0.01-3.19,1.48-3.84c1.47-0.66,3.19,0.01,3.84,1.48c0.66,1.47-0.01,3.19-1.48,3.84
			C632.15,257.58,630.43,256.9,629.79,255.44z"/>
		<path class="st1" d="M615.96,256.47c-0.66-1.47,0.01-3.19,1.48-3.83c1.47-0.66,3.19,0.01,3.83,1.48c0.66,1.47-0.01,3.19-1.48,3.83
			C618.34,258.6,616.62,257.94,615.96,256.47z"/>
		<path class="st1" d="M601.66,257.53c-0.66-1.47,0.01-3.19,1.48-3.83c1.47-0.66,3.19,0.01,3.83,1.48c0.66,1.47-0.01,3.19-1.48,3.84
			C604.04,259.67,602.32,259,601.66,257.53z"/>
		<polygon class="st1" points="519.35,464.04 516.47,478.41 511.38,467.89 493.91,466.87 510.36,458.92 511.01,445.88 
			517.14,458.58 528.03,458.54 		"/>
		<path class="st1" d="M706.84,466.71c-1.64-0.22-2.78-1.72-2.56-3.36c0.22-1.64,1.72-2.78,3.36-2.56s2.78,1.72,2.56,3.36
			C709.97,465.78,708.48,466.93,706.84,466.71z"/>
		<path class="st1" d="M700.31,479.34c-1.64-0.22-2.78-1.72-2.56-3.36s1.72-2.78,3.36-2.56c1.64,0.22,2.78,1.72,2.56,3.36
			C703.44,478.42,701.95,479.55,700.31,479.34z"/>
		<path class="st1" d="M693.56,492.4c-1.64-0.22-2.78-1.72-2.56-3.36c0.22-1.64,1.72-2.78,3.35-2.56c1.64,0.22,2.78,1.72,2.56,3.36
			C696.69,491.48,695.2,492.62,693.56,492.4z"/>
		<path class="st1" d="M686.24,506.57c-1.64-0.22-2.78-1.72-2.56-3.36c0.22-1.64,1.72-2.78,3.35-2.56c1.64,0.22,2.78,1.72,2.56,3.36
			C689.37,505.65,687.87,506.8,686.24,506.57z"/>
		<path class="st1" d="M678.39,519.2c-1.64-0.22-2.78-1.72-2.56-3.36s1.72-2.78,3.36-2.56c1.64,0.22,2.78,1.72,2.56,3.35
			C681.53,518.28,680.03,519.42,678.39,519.2z"/>
		<path class="st1" d="M671.64,532.27c-1.64-0.22-2.78-1.72-2.56-3.36c0.22-1.64,1.72-2.78,3.35-2.56c1.64,0.22,2.78,1.72,2.56,3.36
			C674.77,531.35,673.28,532.49,671.64,532.27z"/>
		<path class="st1" d="M664.32,546.44c-1.64-0.22-2.78-1.72-2.56-3.35s1.72-2.78,3.36-2.56c1.64,0.22,2.78,1.72,2.56,3.36
			C667.45,545.52,665.95,546.67,664.32,546.44z"/>
		<polygon class="st1" points="640.38,567.26 638.01,552.79 646.48,560.84 663.2,555.64 650.6,568.88 654.6,581.31 644.38,571.59 
			634.21,575.46 		"/>
		<path class="st1" d="M708.09,421.22c1.43,0.82,1.92,2.64,1.1,4.07c-0.82,1.43-2.64,1.92-4.07,1.1c-1.43-0.82-1.92-2.64-1.1-4.07
			C704.83,420.9,706.66,420.39,708.09,421.22z"/>
		<path class="st1" d="M697.95,407.1c1.43,0.82,1.92,2.64,1.1,4.07c-0.82,1.43-2.64,1.92-4.07,1.1c-1.43-0.82-1.92-2.64-1.1-4.07
			C694.71,406.76,696.52,406.27,697.95,407.1z"/>
		<path class="st1" d="M689.47,394.28c1.43,0.82,1.92,2.64,1.1,4.07c-0.82,1.43-2.64,1.92-4.07,1.1c-1.43-0.82-1.92-2.64-1.1-4.07
			C686.21,393.96,688.04,393.47,689.47,394.28z"/>
		<path class="st1" d="M679.81,380.23c1.43,0.82,1.92,2.64,1.1,4.07c-0.82,1.43-2.64,1.92-4.07,1.1c-1.43-0.82-1.92-2.64-1.1-4.07
			C676.55,379.91,678.38,379.42,679.81,380.23z"/>
		<polygon class="st1" points="560.66,633.17 573.4,635.8 560.62,640.89 560.12,649.28 556.35,639.84 542.18,640.52 552.16,636.55 
			548.15,624.07 553.99,628.6 561.71,623.54 		"/>
		<path class="st1" d="M571.73,618.21c-0.14,1.64-1.58,2.85-3.23,2.71c-1.64-0.14-2.85-1.58-2.71-3.23
			c0.14-1.64,1.58-2.85,3.23-2.71C570.66,615.12,571.87,616.56,571.73,618.21z"/>
		<path class="st1" d="M580.25,603.06c-0.14,1.64-1.58,2.85-3.23,2.71c-1.65-0.14-2.85-1.58-2.71-3.23s1.58-2.85,3.23-2.71
			C579.17,599.97,580.39,601.42,580.25,603.06z"/>
		<path class="st1" d="M588.26,589.95c-0.14,1.64-1.58,2.85-3.23,2.71c-1.64-0.14-2.85-1.58-2.71-3.23
			c0.14-1.64,1.58-2.85,3.23-2.71C587.18,586.86,588.4,588.31,588.26,589.95z"/>
		<path class="st1" d="M596.91,575.26c-0.14,1.64-1.58,2.85-3.23,2.71c-1.64-0.14-2.85-1.58-2.71-3.23
			c0.14-1.64,1.58-2.85,3.23-2.71C595.83,572.17,597.05,573.62,596.91,575.26z"/>
		<polygon class="st1" points="665.62,369.8 651.51,365.79 662.42,361.55 664.82,344.21 671.43,361.25 684.39,362.92 671.24,368.03 
			670.41,378.87 		"/>
		<polygon class="st1" points="582.36,267.52 578.71,280 574.65,266.86 566.34,265.67 576.04,262.69 576.5,248.5 579.66,258.76 
			592.44,255.77 587.43,261.22 591.85,269.35 		"/>
		<polygon class="st1" points="655.78,237.43 660.88,225.47 663.32,239.01 671.45,241.18 661.45,242.98 659.31,257 657.4,246.43 
			644.35,247.89 649.97,243.07 646.55,234.5 		"/>
		<ellipse class="st1" cx="625.38" cy="560.21" rx="2.98" ry="2.98"/>
		<polygon class="st1" points="602,557.54 589.56,556.03 601.41,550.13 601.23,542.04 605.59,550.79 619.15,549 609.88,553.62 
			614.75,565.29 608.76,561.39 601.75,566.87 		"/>
		<path class="st1" d="M671.64,142.88c1.57-0.5,3.26,0.35,3.76,1.92c0.5,1.57-0.35,3.24-1.92,3.76c-1.57,0.5-3.24-0.35-3.76-1.92
			C669.22,145.07,670.08,143.39,671.64,142.88z"/>
		<path class="st1" d="M672.1,126.93c1.57-0.5,3.24,0.35,3.76,1.92c0.5,1.57-0.35,3.24-1.92,3.76c-1.57,0.5-3.24-0.35-3.76-1.92
			C669.67,129.12,670.54,127.44,672.1,126.93z"/>
		<path class="st1" d="M672.56,110.84c1.57-0.5,3.24,0.35,3.76,1.92c0.5,1.57-0.35,3.26-1.92,3.76c-1.57,0.5-3.24-0.35-3.76-1.92
			C670.13,113.03,671,111.34,672.56,110.84z"/>
		<path class="st1" d="M673,95.68c1.57-0.5,3.24,0.35,3.76,1.92c0.5,1.57-0.35,3.24-1.92,3.76c-1.57,0.5-3.24-0.35-3.76-1.92
			C670.57,97.88,671.43,96.2,673,95.68z"/>
	</g>
</g>
</svg>
