<?xml version="1.0" encoding="utf-8"?>
<!-- Generator: Adobe Illustrator 25.3.0, SVG Export Plug-In . SVG Version: 6.00 Build 0)  -->
<svg version="1.1" id="Layer_1" xmlns="http://www.w3.org/2000/svg" xmlns:xlink="http://www.w3.org/1999/xlink" x="0px" y="0px"
	 viewBox="0 0 500 500" style="enable-background:new 0 0 500 500;" xml:space="preserve">
<style type="text/css">
	.st0{fill:none;}
	.st1{fill:#FFFFFF;}
</style>
<g>
	<path class="st0" d="M376.1,411.13c-18.64,9.26-39.65,14.47-61.87,14.47c-38.56,0-73.52-15.64-98.78-40.92
		c-25.27-25.26-40.91-60.22-40.91-98.78c0-20.81,4.56-40.59,12.74-58.35c7.15-15.53,17.06-29.52,29.1-41.34
		c-8.12-3.63-16.81-6.27-25.83-7.69l-0.04-0.01c-5.53-0.92-11.18-1.38-16.86-1.38c-2.63,0-5.28,0.11-7.92,0.3
		c-26.26,28.56-42.28,66.62-42.28,108.47c0,44.29,17.93,84.34,46.95,113.37c29.03,29.02,69.07,46.96,113.36,46.96
		c25.39,0,49.34-5.91,70.64-16.42c13.6-7.9,26.22-17.3,37.65-27.97C386.95,405.26,381.63,408.38,376.1,411.13z"/>
	<path class="st0" d="M113.61,285.9c0-40.21,13.97-77.19,37.31-106.32c-14.91,3.2-29.4,9.53-42.15,18.91l-0.04,0.03
		c-5.87,4.23-11.44,9.74-16.54,16.13c-5.1,6.39-9.73,13.68-13.76,21.42c-8.05,15.49-13.66,32.87-15.98,48.64
		c-0.01,0.05-0.02,0.09-0.03,0.13c-0.01,0.03-0.01,0.07-0.02,0.1c0.06,0.31,0.09,0.63,0.09,0.95c0,34,8.9,65.9,24.47,93.53
		c4.87,6.09,10.06,11.92,15.56,17.43c37.72,37.71,89.77,61.02,147.32,61.03c9.59,0,19.03-0.66,28.28-1.92
		c-44.75-1.45-85.17-20.18-114.72-49.74C132.66,375.45,113.61,332.87,113.61,285.9z"/>
	<path class="st0" d="M52.77,284.95C52.77,284.95,52.77,284.95,52.77,284.95c-0.01-0.07-0.02-0.15-0.03-0.22
		c-0.01-0.08-0.03-0.16-0.04-0.24c0-0.01,0-0.02,0-0.03c-0.01-0.06-0.01-0.12-0.01-0.19c0-0.08-0.01-0.17-0.01-0.25
		c0-0.19,0-0.38,0-0.57c0-4.28,0.23-8.69,0.66-13.2c0.01-0.13,0.02-0.27,0.03-0.4c0.02-0.2,0.03-0.39,0.05-0.59
		c1.46-16.72,5.03-34.37,10.62-51.45c7.26-22.17,17.87-43.38,31.8-60.27c0,0-0.01,0.01-0.01,0.01l0.01-0.02c0,0,0,0,0,0
		c27.41-33.48,66.84-58.02,110.88-67.32c15.48-3.27,30.99-4.93,46.36-4.93c30.82,0,61.02,6.72,88.94,20.65
		c-0.01,0-0.02-0.01-0.02-0.01l0.03,0.01c0,0,0,0-0.01,0c22.57,11.08,41.87,25.62,57.94,42.85c16.08,17.24,28.92,37.16,38.63,58.99
		l0.05,0.11l0.27,0.64l0,0c2.04,4.39,3.02,8.98,3.01,13.49c0,6.59-2.06,12.95-5.66,18.38c-3.61,5.43-8.77,9.94-15.06,12.89
		c-4.71,2.21-9.69,3.26-14.58,3.26c-4.98,0-9.87-1.09-14.34-3.13c0.34,1.95,0.51,3.9,0.51,5.82c0,7.85-2.74,15.28-7.46,21.17
		c-4.71,5.89-11.45,10.28-19.39,11.97l-0.01,0c-2.37,0.5-4.73,0.74-7.07,0.74c-5.69,0-11.17-1.43-16.01-4.01
		c0.03,1.33,0.06,2.66,0.06,3.99c0,0.96-0.01,1.93-0.03,2.9l0,0.03l-0.03,1.36l0-0.02c-0.18,9.46-4.14,18-10.4,24.13
		c-6.24,6.14-14.84,9.93-24.26,9.93c-0.24,0-0.48,0-0.72-0.01l0.01,0c-9.45-0.17-18-4.13-24.14-10.39
		c-6.14-6.25-9.94-14.85-9.94-24.27c0-0.22,0-0.44,0.01-0.67h0c0-0.01,0-0.01,0-0.02c0-0.02,0-0.04,0-0.06h0
		c0.02-1.9,0.24-3.76,0.52-5.4l0.01-0.03c0.91-5.13,1.37-10.38,1.37-15.67c0-16.43-4.44-33.25-13.24-48.17
		c-8.83,15.51-13.87,33.43-13.87,52.58c0,29.4,11.9,55.98,31.17,75.25c19.27,19.27,45.85,31.17,75.25,31.17
		c23.36,0,44.86-7.61,62.44-20.37l0,0c3.88-2.83,7.54-5.84,10.95-9.1c0,0,0,0,0,0c0,0,0,0,0,0c0.69-0.66,1.37-1.35,2.06-2.04
		c17.91-30.76,28.18-66.51,28.18-104.68c0-57.55-23.31-109.6-61.02-147.32c-37.72-37.71-89.77-61.02-147.32-61.03
		c-57.55,0-109.6,23.31-147.32,61.03c-37.71,37.72-61.02,89.78-61.02,147.32c0,28.34,5.66,55.34,15.91,79.96
		c-3.11-14.04-4.77-28.63-4.77-43.6C52.68,285.57,52.71,285.26,52.77,284.95z"/>
	<path class="st0" d="M200.72,113.88l0.03,0c-0.01,0-0.01,0-0.02,0c6.3-0.72,12.65-1.08,19.01-1.08c25.99,0,52.23,5.97,76.14,17.52
		c2.45,1.18,3.47,4.12,2.29,6.57c-1.18,2.45-4.12,3.47-6.57,2.29c-22.56-10.9-47.38-16.54-71.86-16.54c-6,0-11.98,0.34-17.9,1.02
		l-0.03,0c-32.71,3.53-63.52,17.56-87.35,38.52c7.28-4.74,15.04-8.84,23.17-12.2c16.93-7,35.41-10.86,54.25-10.86
		c0.56,0,1.12,0,1.68,0.01l0,0c0,0,0.01,0,0.01,0c0.01,0,0.03,0,0.04,0v0c19.11,0.06,38.38,4.14,56.38,11.81
		c17.99,7.66,34.71,18.91,48.69,33.33l0,0c0.01,0.01,0.01,0.01,0.01,0.02c0.01,0.01,0.02,0.01,0.02,0.02l0,0
		c4.41,4.46,8.53,9.23,12.35,14.24c1.65,2.16,1.23,5.25-0.93,6.9c-2.16,1.65-5.25,1.23-6.9-0.93c-3.58-4.7-7.45-9.18-11.55-13.32
		l-0.04-0.04c-13.03-13.46-28.68-23.99-45.52-31.16c-16.84-7.17-34.85-10.98-52.59-11.02l-0.05,0c-0.53-0.01-1.07-0.01-1.6-0.01
		c-17.49,0-34.72,3.58-50.49,10.11c-15.77,6.52-30.08,15.99-41.74,27.68l-0.03,0.03c-5.86,5.76-11.14,12.68-15.74,20.34
		c-1.69,2.82-3.29,5.73-4.8,8.73c1.74-2.53,3.54-5,5.42-7.35c5.56-6.96,11.72-13.1,18.46-17.96c-0.01,0.01-0.01,0.01-0.02,0.02
		l0.04-0.03c-0.01,0-0.01,0.01-0.02,0.01c20.93-15.39,46.06-23.25,70.69-23.26c6.2,0,12.38,0.5,18.45,1.51c0,0-0.01,0-0.01,0
		l0.04,0.01c-0.01,0-0.02,0-0.03,0c15.11,2.39,29.31,7.83,41.8,15.59c12.22,7.58,22.8,17.39,30.99,28.75c0.01,0,0.01,0.01,0.02,0.01
		c1.06,0.72,1.75,1.78,2.03,2.93c12.1,17.81,18.2,38.54,18.2,58.84c0,5.86-0.51,11.69-1.53,17.4l0.01-0.03
		c-0.22,1.26-0.38,2.71-0.38,3.87l0,0.07c0,0.18-0.01,0.35-0.01,0.53c0,6.76,2.7,12.87,7.12,17.37c4.42,4.49,10.5,7.32,17.3,7.44
		l0.01,0c0.17,0,0.35,0.01,0.52,0.01c6.75,0,12.86-2.7,17.36-7.11c4.49-4.42,7.32-10.49,7.45-17.31l0-0.02l0.03-1.36l0,0.03
		c0.02-0.9,0.03-1.81,0.03-2.71c0-4.54-0.23-9.05-0.66-13.54c-0.07-0.33-0.1-0.66-0.09-0.99c-1.62-15.88-5.84-31.36-12.27-45.68
		c-1.11-2.48-0.01-5.39,2.47-6.51c2.48-1.11,5.39-0.01,6.51,2.47c6.7,14.93,11.16,31.03,12.97,47.59
		c4.42,4.28,10.48,6.84,16.87,6.83c1.66,0,3.34-0.17,5.03-0.53c5.66-1.21,10.4-4.3,13.76-8.5c3.36-4.2,5.3-9.48,5.3-15.02
		c0-1.66-0.17-3.34-0.54-5.04l-0.07-0.4l-0.09-0.74c-0.76-3.26-1.62-6.48-2.57-9.68c-0.25-0.5-0.41-1.03-0.49-1.58
		c-6.26-20.31-16.33-39.3-29.33-55.76h0c-1.68-2.13-1.32-5.23,0.81-6.91c2.13-1.68,5.23-1.32,6.91,0.81
		c13.72,17.38,24.35,37.4,30.98,58.88c4.66,5.03,11.25,7.88,18.04,7.87c3.49,0,7.02-0.74,10.4-2.33c4.66-2.18,8.44-5.51,11.04-9.42
		c2.6-3.92,4.02-8.4,4.02-12.93c0-3.15-0.67-6.34-2.16-9.49l-0.09-0.21l-0.24-0.57c-9.31-20.91-21.56-39.87-36.83-56.25
		c-15.28-16.38-33.59-30.18-55.1-40.74l-0.03-0.01c-26.51-13.23-55.15-19.62-84.55-19.62c-14.65,0-29.49,1.59-44.33,4.72
		c-31.42,6.62-60.47,21.5-83.98,41.98c22.28-15.05,48.44-24.96,75.97-27.95C200.73,113.88,200.73,113.88,200.72,113.88z
		 M313.75,146.13c1.55-2.23,4.62-2.78,6.85-1.22c4.64,3.23,9.1,6.71,13.4,10.41c2.06,1.78,2.29,4.88,0.51,6.94
		c-1.78,2.06-4.88,2.29-6.94,0.51c-4.04-3.49-8.24-6.76-12.6-9.79C312.74,151.43,312.19,148.36,313.75,146.13z"/>
	<path class="st0" d="M228.71,192.75c-1-0.62-2.02-1.22-3.04-1.81c-12.28,11.46-22.34,25.28-29.46,40.73
		c-7.6,16.5-11.84,34.86-11.84,54.23c0,35.88,14.52,68.31,38.03,91.82c23.51,23.51,55.94,38.03,91.82,38.03
		c20.67,0,40.17-4.84,57.49-13.44c7.55-3.75,14.68-8.21,21.31-13.3c-12.02,4.24-24.95,6.57-38.42,6.57
		c-32.09,0-61.18-13.02-82.21-34.05c-21.03-21.02-34.05-50.12-34.05-82.21c0-22.63,6.48-43.78,17.67-61.65
		C248.74,207.9,239.42,199.39,228.71,192.75z"/>
	<path class="st1" d="M62.52,285.9c0-0.33-0.03-0.65-0.09-0.95c-0.01,0.03-0.01,0.05-0.01,0.08c-0.01,0.03-0.02,0.06-0.02,0.1
		c-0.01,0.06-0.03,0.12-0.05,0.18c-0.02,0.06-0.03,0.13-0.05,0.19c-0.01,0.03-0.02,0.06-0.03,0.09c-0.02,0.06-0.04,0.11-0.06,0.17
		c-0.02,0.06-0.05,0.13-0.07,0.19c-0.01,0.03-0.03,0.05-0.04,0.08c-0.02,0.05-0.05,0.1-0.08,0.15c-0.03,0.07-0.06,0.13-0.1,0.2
		c-0.01,0.02-0.03,0.05-0.04,0.07c-0.02,0.04-0.05,0.08-0.08,0.12c-0.01,0.01-0.01,0.02-0.01,0.02c-0.04,0.06-0.08,0.13-0.12,0.19
		c-0.01,0.02-0.03,0.04-0.04,0.06c-0.02,0.03-0.04,0.05-0.06,0.08c-0.02,0.02-0.03,0.04-0.05,0.06c-0.04,0.06-0.09,0.12-0.13,0.17
		c-0.05,0.06-0.11,0.12-0.17,0.18c-0.05,0.05-0.1,0.11-0.15,0.16c-0.06,0.06-0.12,0.11-0.18,0.16c-0.06,0.05-0.11,0.1-0.17,0.15
		c-0.06,0.05-0.13,0.1-0.19,0.14c-0.06,0.05-0.12,0.09-0.19,0.14c-0.07,0.04-0.14,0.08-0.21,0.13c-0.07,0.04-0.13,0.08-0.2,0.12
		c-0.07,0.04-0.15,0.07-0.22,0.1c-0.07,0.03-0.14,0.07-0.21,0.1c-0.07,0.03-0.15,0.05-0.23,0.08c-0.03,0.01-0.06,0.02-0.09,0.03
		c-0.02,0.01-0.05,0.02-0.07,0.03c-0.02,0.01-0.04,0.01-0.06,0.02c-0.07,0.02-0.15,0.04-0.23,0.06c-0.06,0.02-0.12,0.03-0.18,0.05
		c-0.02,0-0.04,0.01-0.07,0.02c-0.06,0.01-0.12,0.02-0.18,0.03c-0.08,0.01-0.15,0.03-0.23,0.03c-0.02,0-0.05,0.01-0.07,0.01
		c-0.05,0-0.1,0-0.16,0.01c-0.09,0.01-0.17,0.01-0.26,0.01c-0.02,0-0.05,0-0.07,0c-0.01,0-0.01,0-0.02,0c0,0-0.01,0-0.01,0
		c-0.04,0-0.09-0.01-0.13-0.01c-0.05,0-0.11,0-0.16,0c-0.03,0-0.06-0.01-0.09-0.01c-0.03,0-0.07,0-0.1-0.01
		c-0.05-0.01-0.1-0.02-0.15-0.02c-0.07-0.01-0.15-0.02-0.22-0.04c-0.04-0.01-0.08-0.01-0.12-0.02c-0.05-0.01-0.1-0.03-0.14-0.04
		c-0.07-0.02-0.13-0.03-0.2-0.05c-0.04-0.01-0.09-0.02-0.13-0.04c-0.05-0.01-0.09-0.03-0.14-0.05c-0.06-0.02-0.12-0.04-0.17-0.07
		c-0.05-0.02-0.1-0.03-0.14-0.05c-0.04-0.02-0.08-0.04-0.13-0.06c-0.05-0.02-0.1-0.05-0.15-0.07c-0.05-0.03-0.1-0.05-0.15-0.08
		c-0.04-0.02-0.08-0.05-0.11-0.07c-0.04-0.03-0.09-0.05-0.13-0.08c-0.05-0.03-0.11-0.06-0.16-0.1c-0.03-0.02-0.07-0.05-0.1-0.08
		c-0.04-0.03-0.07-0.05-0.1-0.08c0,0,0,0,0,0c-0.06-0.04-0.12-0.08-0.17-0.13c-0.03-0.03-0.06-0.05-0.09-0.08
		c-0.03-0.02-0.05-0.05-0.08-0.07c-0.01-0.01-0.01-0.01-0.02-0.02c-0.05-0.05-0.11-0.1-0.16-0.15c-0.02-0.03-0.05-0.05-0.07-0.08
		c-0.02-0.02-0.04-0.04-0.06-0.06c-0.01-0.01-0.02-0.03-0.03-0.04c-0.05-0.06-0.1-0.11-0.15-0.17c-0.02-0.02-0.04-0.05-0.06-0.07
		c-0.01-0.02-0.02-0.03-0.04-0.05c-0.02-0.02-0.03-0.05-0.05-0.07c-0.05-0.06-0.1-0.12-0.14-0.19c-0.01-0.02-0.03-0.04-0.04-0.07
		c0-0.01-0.01-0.01-0.01-0.02c-0.02-0.04-0.04-0.08-0.07-0.11c-0.04-0.07-0.09-0.14-0.12-0.21c-0.04-0.07-0.06-0.14-0.1-0.2
		c-0.04-0.08-0.07-0.15-0.11-0.23c-0.03-0.07-0.05-0.14-0.08-0.21c-0.03-0.08-0.06-0.16-0.09-0.24c-0.02-0.07-0.04-0.15-0.06-0.22
		c-0.02-0.08-0.04-0.16-0.06-0.25c-0.06,0.31-0.09,0.62-0.09,0.95c0,14.97,1.65,29.56,4.77,43.6c7.52,18.07,17.51,34.86,29.55,49.94
		C71.42,351.8,62.52,319.9,62.52,285.9z"/>
	<path class="st1" d="M427.99,356.26c0.42-0.4,0.9-0.71,1.4-0.94c0.22-0.37,0.44-0.74,0.66-1.11
		C429.37,354.91,428.68,355.6,427.99,356.26C427.99,356.26,427.99,356.26,427.99,356.26z"/>
	<path class="st1" d="M422.81,365.35c1.45-2.54,2.86-5.12,4.18-7.74c0.24-0.49,0.6-0.97,1-1.35c0,0,0,0,0,0
		c-3.41,3.26-7.07,6.27-10.95,9.1C418.79,364.09,421.12,364.13,422.81,365.35z"/>
	<path class="st1" d="M422.99,365.51c1.65-2.46,3.25-4.96,4.8-7.49l-0.8-0.4c-1.32,2.63-2.72,5.2-4.18,7.74
		C422.87,365.4,422.93,365.46,422.99,365.51z"/>
	<path class="st1" d="M170.4,399.27c-29.02-29.03-46.95-69.08-46.95-113.37c0-41.85,16.02-79.9,42.28-108.47
		c-4.95,0.37-9.9,1.09-14.81,2.15c-23.34,29.13-37.32,66.11-37.31,106.32c0,46.97,19.05,89.55,49.83,120.33
		c29.55,29.56,69.97,48.3,114.72,49.74c27.48-3.73,53.25-12.81,76.23-26.16c-21.29,10.51-45.25,16.42-70.64,16.42
		C239.47,446.22,199.43,428.29,170.4,399.27z"/>
	<path class="st1" d="M426.99,357.61l0.8,0.4c0.54-0.89,1.07-1.79,1.6-2.69c-0.51,0.22-0.98,0.54-1.4,0.94
		C427.6,356.64,427.24,357.12,426.99,357.61z"/>
	<path class="st1" d="M257.41,219.59c-0.46-0.65-0.92-1.29-1.39-1.92c-11.19,17.87-17.68,39.01-17.67,61.65
		c0,32.09,13.02,61.19,34.05,82.21c21.02,21.03,50.12,34.06,82.21,34.05c13.47,0,26.4-2.32,38.42-6.57
		c8.59-6.59,16.33-14.23,23.05-22.72c0.29-0.36,0.59-0.65,0.96-0.92c0,0,0.01-0.01,0.01-0.01l0,0
		c-17.58,12.77-39.08,20.37-62.44,20.37c-29.4,0-55.97-11.9-75.25-31.17c-19.26-19.27-31.17-45.85-31.17-75.25
		c0-19.15,5.05-37.06,13.87-52.58c-1.43-2.43-2.97-4.81-4.63-7.12L257.41,219.59z"/>
	<path class="st1" d="M264.91,213.14c-0.01,0-0.01-0.01-0.02-0.01c0.18,0.25,0.37,0.5,0.55,0.75c0,0,0,0,0-0.01l0.02,0.03
		c-0.01-0.01-0.01-0.02-0.02-0.02c0.52,0.72,1.01,1.46,1.51,2.19C266.66,214.92,265.97,213.86,264.91,213.14z"/>
	<path class="st1" d="M416.07,366.29l3.86,3.05l0.27,0.21c0.36-0.51,0.72-1.03,1.07-1.55c0.52-0.88,1.03-1.76,1.54-2.65
		c-1.7-1.23-4.02-1.26-5.77,0.01c0,0-0.01,0.01-0.01,0.01C416.66,365.64,416.36,365.93,416.07,366.29z"/>
	<polygon class="st1" points="420.14,369.63 419.93,369.34 420.14,369.63 	"/>
	<path class="st1" d="M420.2,369.56l-0.27-0.21l0.21,0.29C420.16,369.61,420.18,369.58,420.2,369.56z"/>
	<path class="st1" d="M371.72,402.31c-17.32,8.6-36.81,13.44-57.49,13.44c-35.88,0-68.31-14.53-91.82-38.03
		c-23.5-23.51-38.03-55.95-38.03-91.82c0-19.37,4.24-37.73,11.84-54.23c7.11-15.45,17.17-29.27,29.46-40.73
		c-3-1.72-6.1-3.3-9.29-4.73c-12.04,11.82-21.95,25.81-29.1,41.34c-8.18,17.76-12.74,37.54-12.74,58.35
		c0,38.56,15.64,73.52,40.91,98.78c25.26,25.27,60.22,40.92,98.78,40.92c22.22,0,43.23-5.21,61.87-14.47
		c5.54-2.75,10.86-5.86,15.94-9.3c1.75-1.63,3.48-3.28,5.17-4.97c5.26-5.26,10.22-10.81,14.9-16.6c-6.04,3.46-12.42,6.4-19.08,8.75
		C386.39,394.1,379.26,398.56,371.72,402.31z"/>
	<path class="st1" d="M419.93,369.34l-3.86-3.05c-6.71,8.49-14.46,16.13-23.05,22.72c6.66-2.35,13.04-5.29,19.08-8.75
		c2.79-3.45,5.47-6.99,8.04-10.62L419.93,369.34z"/>
	<path class="st1" d="M421.27,368c0.58-0.83,1.15-1.66,1.71-2.5c-0.06-0.05-0.11-0.11-0.18-0.15
		C422.3,366.24,421.8,367.13,421.27,368z"/>
	<path class="st1" d="M52.74,284.73c0.01,0.07,0.02,0.15,0.03,0.22c-0.01-0.07-0.02-0.13-0.03-0.2
		C52.74,284.74,52.74,284.73,52.74,284.73z"/>
	<path class="st1" d="M379.68,243.38c-0.16-0.53-0.32-1.05-0.49-1.58C379.26,242.34,379.42,242.87,379.68,243.38z"/>
	<path class="st1" d="M95.83,157.55c0,0,0.01-0.01,0.01-0.01c0,0,0,0,0,0L95.83,157.55z"/>
	<path class="st1" d="M52.69,284.27c0,0.06,0,0.13,0.01,0.19c0-0.05,0-0.1-0.01-0.15C52.69,284.3,52.69,284.29,52.69,284.27z"/>
	<path class="st1" d="M434.36,210.42l4.54-1.9c-0.03-0.07-0.06-0.14-0.09-0.21L434.36,210.42z"/>
	<path class="st1" d="M94.44,168.18C94.44,168.18,94.44,168.19,94.44,168.18l0.02-0.02C94.45,168.17,94.45,168.18,94.44,168.18
		c8.91-9.94,19.13-18.79,30.33-26.35c23.52-20.48,52.56-35.35,83.98-41.98c14.84-3.13,29.67-4.72,44.33-4.72
		c29.39,0,58.04,6.39,84.55,19.62l0.03,0.01c21.51,10.56,39.82,24.36,55.1,40.74c15.27,16.38,27.52,35.34,36.83,56.25l-0.03-0.08
		l4.54-1.9l-4.5,2c0-0.01-0.01-0.02-0.01-0.03l0.24,0.57l0.09,0.21c1.48,3.14,2.16,6.33,2.16,9.49c0,4.53-1.41,9.01-4.02,12.93
		c-2.6,3.91-6.38,7.24-11.04,9.42c-3.39,1.59-6.92,2.33-10.4,2.33c-6.79,0-13.38-2.84-18.04-7.87c1.24,4.03,2.36,8.1,3.31,12.22
		c0.05,0.2,0.06,0.28,0.09,0.48l0.12,0.9c0.07,0.33,0.13,0.66,0.18,0.98c4.47,2.04,9.36,3.13,14.34,3.13
		c4.89,0,9.87-1.05,14.58-3.26c6.29-2.95,11.46-7.46,15.06-12.89c3.61-5.42,5.66-11.79,5.66-18.38c0-4.5-0.97-9.1-3.01-13.49
		l-4.54,1.9l4.45-2.1c0.03,0.07,0.06,0.14,0.09,0.21l0,0l-0.27-0.64l-0.05-0.11c-9.72-21.83-22.56-41.75-38.63-58.99
		c-16.07-17.23-35.37-31.77-57.94-42.85C314.1,92,283.89,85.28,253.08,85.29c-15.37,0-30.89,1.67-46.36,4.93
		c-44.04,9.3-83.47,33.84-110.88,67.32c-13.93,16.89-24.54,38.1-31.8,60.27c-5.58,17.08-9.16,34.73-10.62,51.45
		c1.41-15.03,4.81-30.9,10.07-46.21C70.51,202.63,80.83,183.19,94.44,168.18z"/>
	<path class="st1" d="M53.37,269.85c-0.01,0.13-0.02,0.27-0.03,0.4c0,0,0-0.01,0-0.01C53.35,270.11,53.36,269.98,53.37,269.85z"/>
	<path class="st1" d="M341.99,105.93c0.01,0,0.02,0.01,0.02,0.01c0,0,0,0,0.01,0L341.99,105.93z"/>
	<path class="st1" d="M434.09,209.78l-4.54,1.9l0.03,0.08c0,0.01,0.01,0.02,0.01,0.03L434.09,209.78z"/>
	<path class="st1" d="M54.26,287.6c0.01,0.01,0.01,0.01,0.02,0.02c0,0,0,0,0,0C54.27,287.61,54.26,287.6,54.26,287.6z"/>
	<path class="st1" d="M53.93,287.27c0.01,0.01,0.02,0.03,0.03,0.04c0,0-0.01-0.01-0.01-0.01C53.95,287.29,53.94,287.28,53.93,287.27
		z"/>
	<path class="st1" d="M61.78,286.59c0-0.01,0.01-0.02,0.01-0.02c0,0,0,0,0,0.01C61.78,286.58,61.78,286.58,61.78,286.59z"/>
	<path class="st1" d="M53.72,287.02c0.02,0.02,0.04,0.05,0.06,0.07c-0.02-0.02-0.03-0.04-0.05-0.06
		C53.73,287.03,53.73,287.03,53.72,287.02z"/>
	<path class="st1" d="M54.02,287.37c0.02,0.03,0.05,0.05,0.07,0.08C54.07,287.43,54.05,287.4,54.02,287.37
		C54.03,287.38,54.03,287.37,54.02,287.37z"/>
	<path class="st1" d="M61.87,286.44c0.01-0.02,0.03-0.05,0.04-0.07c-0.01,0.02-0.02,0.04-0.03,0.05
		C61.87,286.43,61.87,286.44,61.87,286.44z"/>
	<path class="st1" d="M61.28,287.26c-0.02,0.03-0.05,0.05-0.07,0.08c0.06-0.06,0.12-0.12,0.17-0.18c-0.01,0.01-0.02,0.02-0.03,0.04
		C61.32,287.22,61.3,287.24,61.28,287.26z"/>
	<path class="st1" d="M54.72,287.98c0.03,0.02,0.07,0.05,0.1,0.08c-0.03-0.02-0.06-0.05-0.09-0.07
		C54.73,287.99,54.72,287.98,54.72,287.98z"/>
	<path class="st1" d="M61.51,286.98c0.02-0.02,0.03-0.04,0.05-0.06c-0.01,0.01-0.01,0.01-0.02,0.02
		C61.53,286.95,61.52,286.96,61.51,286.98z"/>
	<path class="st1" d="M54.35,287.69c0.03,0.03,0.06,0.05,0.09,0.08c-0.03-0.02-0.05-0.05-0.08-0.07
		C54.36,287.7,54.36,287.69,54.35,287.69z"/>
	<path class="st1" d="M53.64,286.9c0.02,0.02,0.03,0.05,0.05,0.07c0-0.01-0.01-0.01-0.01-0.02
		C53.66,286.94,53.65,286.92,53.64,286.9z"/>
	<polygon class="st1" points="54.61,287.9 54.61,287.9 54.61,287.9 	"/>
	<path class="st1" d="M55.97,288.63c0.05,0.02,0.09,0.03,0.14,0.05c-0.04-0.01-0.08-0.03-0.12-0.05
		C55.98,288.64,55.97,288.64,55.97,288.63z"/>
	<path class="st1" d="M55.11,288.24c0.04,0.02,0.07,0.05,0.11,0.07c-0.03-0.02-0.07-0.04-0.1-0.06
		C55.12,288.24,55.11,288.24,55.11,288.24z"/>
	<path class="st1" d="M61.62,286.84c0.01-0.02,0.03-0.04,0.04-0.06c-0.01,0.02-0.02,0.03-0.03,0.05
		C61.62,286.83,61.62,286.83,61.62,286.84z"/>
	<path class="st1" d="M55.53,288.45c0.04,0.02,0.08,0.04,0.13,0.06c-0.04-0.02-0.07-0.04-0.11-0.05
		C55.53,288.46,55.53,288.46,55.53,288.45z"/>
	<path class="st1" d="M61.01,287.54c-0.05,0.04-0.09,0.08-0.14,0.13c0.06-0.05,0.12-0.11,0.18-0.16
		C61.04,287.51,61.03,287.52,61.01,287.54C61.02,287.53,61.02,287.54,61.01,287.54z"/>
	<path class="st1" d="M53.38,286.52c0.02,0.04,0.04,0.08,0.07,0.11c-0.01-0.01-0.02-0.03-0.03-0.04
		C53.41,286.56,53.39,286.54,53.38,286.52z"/>
	<path class="st1" d="M58.37,288.85c0.06-0.01,0.12-0.02,0.18-0.03c-0.05,0.01-0.11,0.02-0.17,0.02
		C58.38,288.85,58.38,288.85,58.37,288.85z"/>
	<path class="st1" d="M60.7,287.82c-0.06,0.05-0.13,0.1-0.19,0.14C60.57,287.91,60.64,287.87,60.7,287.82z"/>
	<path class="st1" d="M57.91,288.9c0.05,0,0.1,0,0.16-0.01c-0.04,0-0.09,0-0.14,0.01C57.92,288.9,57.92,288.9,57.91,288.9z"/>
	<path class="st1" d="M58.8,288.76c0.08-0.02,0.15-0.03,0.23-0.06C58.95,288.73,58.88,288.74,58.8,288.76
		C58.8,288.76,58.8,288.76,58.8,288.76z"/>
	<path class="st1" d="M59.48,288.54c-0.07,0.03-0.15,0.05-0.23,0.08C59.33,288.6,59.41,288.57,59.48,288.54z"/>
	<path class="st1" d="M60.32,288.1c-0.07,0.04-0.14,0.08-0.21,0.13C60.18,288.18,60.25,288.14,60.32,288.1z"/>
	<path class="st1" d="M59.91,288.34c-0.07,0.04-0.15,0.07-0.22,0.1C59.77,288.41,59.84,288.38,59.91,288.34z"/>
	<path class="st1" d="M57.41,288.91c0.04,0,0.09,0.01,0.13,0.01c0,0,0.01,0,0.01,0c-0.04,0-0.09-0.01-0.13-0.01
		C57.42,288.91,57.42,288.91,57.41,288.91z"/>
	<path class="st1" d="M62.26,285.58c0.01-0.03,0.02-0.06,0.03-0.09c-0.01,0.03-0.02,0.05-0.03,0.07
		C62.26,285.57,62.26,285.58,62.26,285.58z"/>
	<path class="st1" d="M56.43,288.77c0.05,0.01,0.09,0.03,0.14,0.04c-0.04-0.01-0.09-0.02-0.13-0.03
		C56.44,288.77,56.43,288.77,56.43,288.77z"/>
	<path class="st1" d="M53.2,286.2c-0.01-0.03-0.03-0.06-0.04-0.09c0.03,0.07,0.06,0.14,0.1,0.2c-0.01-0.01-0.01-0.03-0.02-0.04
		C53.22,286.24,53.21,286.22,53.2,286.2z"/>
	<path class="st1" d="M62.08,286.02c0.01-0.03,0.03-0.05,0.04-0.08c-0.01,0.02-0.02,0.04-0.03,0.06
		C62.09,286.01,62.08,286.02,62.08,286.02z"/>
	<path class="st1" d="M53.02,285.79c-0.02-0.04-0.03-0.08-0.04-0.12c0.03,0.07,0.05,0.14,0.08,0.21c0-0.01-0.01-0.02-0.01-0.03
		C53.03,285.83,53.03,285.81,53.02,285.79z"/>
	<path class="st1" d="M52.89,285.42c-0.02-0.07-0.04-0.15-0.06-0.22C52.85,285.27,52.87,285.35,52.89,285.42z"/>
	<path class="st1" d="M62.39,285.12c0.01-0.03,0.02-0.06,0.02-0.1c-0.01,0.03-0.02,0.06-0.02,0.08
		C62.39,285.11,62.39,285.12,62.39,285.12z"/>
	<path class="st1" d="M53.46,286.65c0.01,0.02,0.03,0.05,0.04,0.07c-0.01-0.02-0.02-0.04-0.03-0.06
		C53.46,286.66,53.46,286.65,53.46,286.65z"/>
	<path class="st1" d="M56.91,288.86c0.05,0.01,0.1,0.02,0.15,0.02c-0.05-0.01-0.09-0.01-0.13-0.02
		C56.92,288.87,56.92,288.86,56.91,288.86z"/>
	<polygon class="st1" points="363.89,282.75 363.88,282.75 363.88,282.75 	"/>
	<path class="st1" d="M332.4,279.56c-0.03-0.33-0.06-0.66-0.09-0.99C332.3,278.9,332.33,279.23,332.4,279.56z"/>
	<path class="st1" d="M387.22,253.16l3.6-0.46c-0.14-0.07-0.28-0.14-0.42-0.22L387.22,253.16z"/>
	<path class="st1" d="M387.09,252.15l-4.88,0.63l0.04,0.27c0.02,0.07,0.03,0.14,0.05,0.21L387.09,252.15z"/>
	<path class="st1" d="M350.68,179.12c-2.13,1.68-2.5,4.78-0.81,6.91h0c12.99,16.46,23.07,35.45,29.33,55.76
		c-0.21-1.6,0.37-3.28,1.7-4.4c2.08-1.75,5.18-1.49,6.94,0.59c0.24,0.28,0.49,0.56,0.74,0.83c-6.63-21.48-17.26-41.5-30.98-58.88
		C355.91,177.8,352.81,177.44,350.68,179.12z"/>
	<path class="st1" d="M387.22,253.16l3.18-0.68c-3.79-2.02-7.23-4.76-10.09-8.14c-0.25-0.3-0.46-0.63-0.63-0.96
		c0.95,3.2,1.81,6.42,2.57,9.68l-0.04-0.27l4.88-0.63l-4.79,1.11c-0.02-0.07-0.03-0.14-0.05-0.21l0.09,0.74l0.07,0.4
		c0.36,1.7,0.54,3.38,0.54,5.04c0,5.54-1.94,10.82-5.3,15.02c-3.36,4.2-8.1,7.29-13.76,8.5c0,0,0.01,0,0.01,0l-0.01,0c0,0,0,0,0,0
		c-1.69,0.36-3.37,0.53-5.03,0.53c-6.39,0-12.45-2.55-16.87-6.83c0.46,4.2,0.74,8.42,0.86,12.67c4.84,2.57,10.32,4,16.01,4.01
		c2.34,0,4.7-0.24,7.07-0.74l0.01,0c7.94-1.7,14.68-6.08,19.39-11.97c4.72-5.89,7.46-13.33,7.46-21.17c0-1.92-0.18-3.87-0.51-5.82
		c-0.49-0.22-0.97-0.46-1.45-0.71L387.22,253.16z"/>
	<path class="st1" d="M390.4,252.48c0.14,0.07,0.28,0.14,0.42,0.22l1.28-0.17l-0.01-0.11c-0.02-0.1-0.03-0.2-0.05-0.29L390.4,252.48
		z"/>
	<path class="st1" d="M392.1,252.53l-1.28,0.17c0.48,0.25,0.96,0.49,1.45,0.71c-0.06-0.33-0.12-0.66-0.18-0.98L392.1,252.53z"/>
	<path class="st1" d="M380.89,237.4c-1.33,1.12-1.91,2.79-1.7,4.4c0.16,0.53,0.33,1.05,0.49,1.58c0.17,0.34,0.38,0.66,0.63,0.96
		c2.86,3.38,6.3,6.12,10.09,8.14l1.64-0.35c0.02,0.1,0.03,0.2,0.05,0.29l-0.12-0.9c-0.03-0.2-0.04-0.28-0.09-0.48
		c-0.95-4.12-2.07-8.19-3.31-12.22c-0.25-0.27-0.5-0.55-0.74-0.83C386.08,235.91,382.97,235.65,380.89,237.4z"/>
	<path class="st1" d="M314.97,152.99c4.35,3.03,8.55,6.31,12.6,9.79c2.06,1.78,5.17,1.55,6.94-0.51c1.78-2.06,1.55-5.17-0.51-6.94
		c-4.29-3.7-8.76-7.18-13.4-10.41c-2.23-1.55-5.3-1.01-6.85,1.22C312.19,148.36,312.74,151.43,314.97,152.99z"/>
	<path class="st1" d="M62.44,284.86c0,0.03-0.01,0.05-0.01,0.08c0,0,0,0,0,0c0.01-0.03,0.01-0.07,0.02-0.1
		C62.44,284.85,62.44,284.86,62.44,284.86z"/>
	<path class="st1" d="M92.69,179.81l0.03-0.03c0,0-0.01,0.01-0.01,0.01c6.56-6.58,13.88-12.47,21.75-17.6
		c23.83-20.97,54.64-34.99,87.35-38.52l0.03,0c5.92-0.68,11.9-1.02,17.9-1.02c24.48,0,49.3,5.63,71.86,16.54
		c2.45,1.18,5.39,0.16,6.57-2.29c1.18-2.45,0.16-5.39-2.29-6.57c-23.91-11.55-50.15-17.51-76.14-17.52
		c-6.36,0-12.71,0.36-19.01,1.08c-27.53,2.99-53.69,12.9-75.97,27.95c-7.74,6.74-14.89,14.09-21.32,21.96l-0.01,0.02
		c-4.45,5.38-8.56,11.32-12.34,17.63c0.54-0.55,1.07-1.11,1.62-1.65C92.7,179.79,92.69,179.8,92.69,179.81z"/>
	<path class="st1" d="M52.7,284.46c0,0.01,0,0.02,0,0.03c0-0.01,0-0.01,0-0.02C52.7,284.47,52.7,284.46,52.7,284.46z"/>
	<polygon class="st1" points="52.77,284.95 52.77,284.95 52.77,284.95 	"/>
	<path class="st1" d="M200.72,113.88c0,0,0.01,0,0.01,0c0.01,0,0.01,0,0.02,0L200.72,113.88z"/>
	<path class="st1" d="M53.37,269.85c0.02-0.2,0.03-0.39,0.05-0.59C53.4,269.46,53.39,269.65,53.37,269.85z"/>
	<path class="st1" d="M54.26,287.6c-0.05-0.05-0.11-0.1-0.16-0.15C54.15,287.5,54.2,287.55,54.26,287.6z"/>
	<path class="st1" d="M59.52,288.53c-0.01,0.01-0.03,0.01-0.04,0.02c0.07-0.03,0.14-0.07,0.21-0.1c-0.05,0.02-0.1,0.05-0.15,0.07
		C59.53,288.52,59.53,288.52,59.52,288.53z"/>
	<path class="st1" d="M60.51,287.96c-0.06,0.05-0.12,0.09-0.19,0.14C60.39,288.05,60.45,288.01,60.51,287.96z"/>
	<path class="st1" d="M52.77,284.95C52.77,284.95,52.77,284.95,52.77,284.95L52.77,284.95c0.02,0.08,0.04,0.16,0.06,0.25
		c-0.01-0.04-0.02-0.09-0.03-0.13C52.79,285.03,52.78,284.99,52.77,284.95z"/>
	<path class="st1" d="M54.61,287.9c-0.06-0.04-0.12-0.08-0.17-0.13C54.5,287.82,54.56,287.86,54.61,287.9z"/>
	<path class="st1" d="M52.97,285.66c-0.03-0.08-0.06-0.16-0.09-0.24C52.91,285.5,52.95,285.58,52.97,285.66z"/>
	<path class="st1" d="M61.91,286.37c0.04-0.06,0.06-0.13,0.1-0.2c0,0,0,0,0,0C61.97,286.24,61.94,286.31,61.91,286.37z"/>
	<path class="st1" d="M55.65,288.52c0.05,0.02,0.09,0.04,0.14,0.05c0,0-0.01,0-0.01,0C55.74,288.55,55.69,288.53,55.65,288.52z"/>
	<path class="st1" d="M56.1,288.68c0.04,0.01,0.09,0.02,0.13,0.04c0,0-0.01,0-0.01,0C56.18,288.7,56.14,288.7,56.1,288.68z"/>
	<path class="st1" d="M53.16,286.1c-0.04-0.08-0.07-0.15-0.11-0.23C53.08,285.95,53.12,286.03,53.16,286.1z"/>
	<path class="st1" d="M60.11,288.22c-0.07,0.04-0.13,0.08-0.2,0.12C59.98,288.3,60.05,288.26,60.11,288.22z"/>
	<path class="st1" d="M61.51,286.98c-0.04,0.06-0.09,0.12-0.13,0.17C61.42,287.1,61.46,287.04,61.51,286.98z"/>
	<path class="st1" d="M53.64,286.9c-0.05-0.06-0.1-0.12-0.14-0.19C53.54,286.78,53.59,286.84,53.64,286.9z"/>
	<path class="st1" d="M53.93,287.27c-0.05-0.06-0.1-0.11-0.15-0.17C53.83,287.16,53.88,287.21,53.93,287.27z"/>
	<path class="st1" d="M61.2,287.34c-0.05,0.05-0.1,0.11-0.15,0.16C61.11,287.45,61.15,287.39,61.2,287.34z"/>
	<path class="st1" d="M55.22,288.3c0.05,0.03,0.1,0.05,0.15,0.08c0,0-0.01,0-0.01,0C55.32,288.35,55.27,288.33,55.22,288.3z"/>
	<path class="st1" d="M61.78,286.59c-0.04,0.06-0.08,0.13-0.12,0.19C61.7,286.72,61.74,286.65,61.78,286.59z"/>
	<path class="st1" d="M58.55,288.82c0.02,0,0.04-0.01,0.07-0.02c-0.01,0-0.01,0-0.02,0C58.59,288.82,58.57,288.82,58.55,288.82z"/>
	<path class="st1" d="M54.82,288.06c0.05,0.04,0.11,0.07,0.16,0.1c0,0,0,0,0,0C54.92,288.12,54.87,288.09,54.82,288.06z"/>
	<path class="st1" d="M62.29,285.5c0.02-0.06,0.03-0.13,0.05-0.19c0,0,0,0.01,0,0.01C62.32,285.38,62.31,285.44,62.29,285.5z"/>
	<path class="st1" d="M57.06,288.89c0.03,0,0.07,0,0.1,0.01c-0.01,0-0.01,0-0.02,0C57.12,288.89,57.09,288.89,57.06,288.89z"/>
	<path class="st1" d="M58.07,288.89c0.02,0,0.05-0.01,0.07-0.01c-0.01,0-0.01,0-0.02,0C58.1,288.89,58.08,288.89,58.07,288.89z"/>
	<path class="st1" d="M62.12,285.95c0.03-0.06,0.05-0.13,0.07-0.19c0,0,0,0,0,0.01C62.17,285.82,62.15,285.88,62.12,285.95z"/>
	<path class="st1" d="M62.41,285.03c0.01-0.03,0.01-0.05,0.01-0.08c0,0,0,0,0,0C62.42,284.97,62.42,285,62.41,285.03z"/>
	<path class="st1" d="M57.56,288.92c0.01,0,0.01,0,0.02,0c0.02,0,0.05,0,0.07,0c-0.01,0-0.01,0-0.02,0
		C57.61,288.91,57.58,288.92,57.56,288.92z"/>
	<path class="st1" d="M59.03,288.71c0.02-0.01,0.04-0.01,0.06-0.02c0,0-0.01,0-0.01,0C59.06,288.69,59.04,288.7,59.03,288.71z"/>
	<path class="st1" d="M56.57,288.81c0.04,0.01,0.08,0.01,0.12,0.02c-0.01,0-0.01,0-0.02,0C56.64,288.82,56.6,288.82,56.57,288.81z"
		/>
	<path class="st1" d="M60.87,287.66c-0.06,0.05-0.11,0.1-0.17,0.15C60.76,287.77,60.82,287.72,60.87,287.66z"/>
	<path class="st1" d="M59.16,288.66c0.03-0.01,0.06-0.02,0.09-0.03c-0.02,0.01-0.04,0.01-0.06,0.02
		C59.18,288.65,59.17,288.66,59.16,288.66z"/>
	<path class="st1" d="M53.38,286.52c-0.04-0.07-0.09-0.14-0.12-0.21C53.29,286.38,53.34,286.45,53.38,286.52z"/>
	<path class="st1" d="M52.69,284.31c0,0.05,0,0.1,0.01,0.15c0,0,0,0.01,0,0.01C52.7,284.42,52.7,284.37,52.69,284.31z"/>
	<path class="st1" d="M52.77,284.95c-0.01-0.07-0.02-0.13-0.03-0.2C52.75,284.82,52.76,284.88,52.77,284.95
		C52.77,284.95,52.77,284.95,52.77,284.95L52.77,284.95z"/>
	<path class="st1" d="M58.51,242.41c3.83-14.03,9.5-27.95,16.94-40.34c4.55-7.57,9.76-14.55,15.65-20.63
		c3.78-6.32,7.89-12.25,12.34-17.63l0.01-0.02c6.43-7.86,13.58-15.21,21.32-21.96c-11.2,7.56-21.42,16.42-30.33,26.35
		c-13.61,15.01-23.93,34.45-30.95,54.86c-5.26,15.32-8.66,31.19-10.07,46.21c-0.02,0.2-0.03,0.39-0.05,0.59
		c-0.01,0.13-0.02,0.26-0.03,0.39C54.22,261.18,55.95,251.77,58.51,242.41z"/>
	<path class="st1" d="M62.43,284.94c0.01-0.03,0.01-0.05,0.01-0.08C62.44,284.89,62.43,284.91,62.43,284.94
		C62.43,284.94,62.43,284.94,62.43,284.94z"/>
	<path class="st1" d="M94.44,168.19C94.44,168.19,94.44,168.18,94.44,168.19c0.01-0.01,0.02-0.02,0.02-0.02L94.44,168.19z"/>
	<polygon class="st1" points="52.77,284.95 52.77,284.95 52.77,284.95 	"/>
	<path class="st1" d="M54.37,287.7c0.03,0.02,0.05,0.05,0.08,0.07c0.05,0.05,0.11,0.09,0.17,0.13c0,0,0,0,0,0
		C54.53,287.84,54.45,287.77,54.37,287.7z"/>
	<path class="st1" d="M62.09,286.01c0.01-0.02,0.02-0.04,0.03-0.06c0.03-0.06,0.05-0.12,0.07-0.19
		C62.16,285.84,62.13,285.93,62.09,286.01z"/>
	<path class="st1" d="M61.63,286.82c0.01-0.02,0.02-0.03,0.03-0.05c0.04-0.06,0.08-0.12,0.12-0.19c0-0.01,0.01-0.01,0.01-0.02
		C61.74,286.66,61.68,286.74,61.63,286.82z"/>
	<path class="st1" d="M53.73,287.03c0.02,0.02,0.03,0.04,0.05,0.06c0.05,0.06,0.1,0.11,0.15,0.17c0.01,0.01,0.02,0.02,0.03,0.03
		C53.88,287.21,53.8,287.12,53.73,287.03z"/>
	<path class="st1" d="M61.88,286.43c0.01-0.02,0.02-0.04,0.03-0.05c0.03-0.06,0.06-0.13,0.1-0.2
		C61.96,286.26,61.92,286.35,61.88,286.43z"/>
	<path class="st1" d="M54.03,287.38c0.02,0.02,0.04,0.05,0.06,0.07c0.05,0.05,0.11,0.1,0.16,0.15c0.01,0.01,0.01,0.01,0.02,0.01
		C54.19,287.54,54.11,287.46,54.03,287.38z"/>
	<path class="st1" d="M62.43,284.93c-0.01,0.06-0.02,0.12-0.03,0.18c0.01-0.03,0.02-0.05,0.02-0.08
		C62.42,285,62.42,284.97,62.43,284.93C62.43,284.94,62.43,284.94,62.43,284.93z"/>
	<path class="st1" d="M53.46,286.66c0.01,0.02,0.02,0.04,0.03,0.06c0.04,0.07,0.09,0.13,0.14,0.19c0.01,0.02,0.02,0.03,0.04,0.05
		C53.6,286.86,53.53,286.76,53.46,286.66z"/>
	<path class="st1" d="M53.04,285.85c0,0.01,0.01,0.02,0.01,0.03c0.03,0.08,0.07,0.15,0.11,0.23c0.01,0.03,0.03,0.06,0.04,0.09
		C53.14,286.08,53.09,285.96,53.04,285.85z"/>
	<path class="st1" d="M55.12,288.24c0.03,0.02,0.07,0.04,0.1,0.06c0.05,0.03,0.1,0.05,0.14,0.07
		C55.28,288.33,55.2,288.29,55.12,288.24z"/>
	<path class="st1" d="M59.2,288.65c0.02-0.01,0.04-0.01,0.06-0.02c0.08-0.03,0.15-0.05,0.23-0.08c0.01-0.01,0.03-0.01,0.04-0.02
		C59.41,288.57,59.31,288.61,59.2,288.65z"/>
	<path class="st1" d="M57.43,288.91c0.04,0,0.09,0.01,0.13,0.01c0.02,0,0.05,0,0.07,0C57.56,288.91,57.5,288.91,57.43,288.91z"/>
	<path class="st1" d="M56.44,288.77c0.04,0.01,0.08,0.02,0.13,0.03c0.03,0.01,0.07,0.01,0.1,0.02
		C56.6,288.81,56.52,288.79,56.44,288.77z"/>
	<path class="st1" d="M58.81,288.76c0.07-0.02,0.15-0.03,0.22-0.06c0.02,0,0.03-0.01,0.05-0.02
		C58.99,288.72,58.9,288.74,58.81,288.76z"/>
	<path class="st1" d="M56.93,288.87c0.04,0.01,0.09,0.02,0.13,0.02c0.03,0,0.06,0,0.09,0.01C57.07,288.89,57,288.88,56.93,288.87z"
		/>
	<path class="st1" d="M62.26,285.57c0.01-0.03,0.02-0.05,0.03-0.07c0.02-0.06,0.03-0.12,0.05-0.18
		C62.31,285.4,62.29,285.49,62.26,285.57z"/>
	<path class="st1" d="M57.93,288.9c0.05,0,0.09,0,0.14-0.01c0.02,0,0.04-0.01,0.06-0.01C58.06,288.89,57.99,288.9,57.93,288.9z"/>
	<path class="st1" d="M58.39,288.85c0.06-0.01,0.11-0.01,0.17-0.02c0.02,0,0.03-0.01,0.05-0.01
		C58.53,288.83,58.46,288.84,58.39,288.85z"/>
	<path class="st1" d="M61.02,287.53c0.01-0.01,0.02-0.02,0.03-0.03c0.05-0.05,0.1-0.11,0.15-0.16c0.02-0.03,0.05-0.05,0.07-0.08
		C61.19,287.35,61.11,287.44,61.02,287.53z"/>
	<path class="st1" d="M61.34,287.19c0.01-0.01,0.02-0.02,0.03-0.04c0.05-0.06,0.09-0.12,0.13-0.17c0.01-0.01,0.02-0.03,0.03-0.04
		C61.48,287.02,61.41,287.11,61.34,287.19z"/>
	<path class="st1" d="M53.23,286.26c0.01,0.01,0.01,0.03,0.02,0.04c0.04,0.07,0.08,0.14,0.12,0.21c0.01,0.02,0.03,0.05,0.04,0.07
		C53.36,286.48,53.29,286.37,53.23,286.26z"/>
	<path class="st1" d="M54.73,287.99c0.03,0.02,0.06,0.05,0.09,0.07c0.05,0.03,0.11,0.07,0.16,0.1
		C54.89,288.1,54.81,288.05,54.73,287.99z"/>
	<path class="st1" d="M59.54,288.52c0.05-0.02,0.1-0.05,0.15-0.07c0.07-0.03,0.15-0.07,0.22-0.1c0.07-0.04,0.13-0.08,0.2-0.12
		c0.07-0.04,0.14-0.08,0.21-0.13c0.06-0.04,0.12-0.09,0.19-0.14c0.06-0.05,0.13-0.09,0.19-0.14c0.06-0.05,0.11-0.1,0.17-0.15
		c0.05-0.04,0.1-0.08,0.14-0.13C60.59,287.95,60.09,288.28,59.54,288.52z"/>
	<path class="st1" d="M55.54,288.46c0.04,0.02,0.07,0.04,0.11,0.05c0.04,0.02,0.09,0.03,0.13,0.05
		C55.7,288.53,55.62,288.5,55.54,288.46z"/>
	<path class="st1" d="M55.98,288.64c0.04,0.01,0.08,0.03,0.12,0.05c0.04,0.01,0.08,0.02,0.12,0.03
		C56.14,288.69,56.06,288.67,55.98,288.64z"/>
	<path class="st1" d="M52.8,285.07c0.01,0.04,0.02,0.09,0.03,0.13c0.02,0.07,0.03,0.15,0.06,0.22c0.03,0.08,0.06,0.16,0.09,0.24
		c0.01,0.04,0.03,0.08,0.04,0.12C52.93,285.56,52.86,285.32,52.8,285.07z"/>
	<path class="st1" d="M298.71,184.31c-0.01-0.01-0.02-0.02-0.02-0.02C298.7,184.3,298.7,184.3,298.71,184.31L298.71,184.31z"/>
	<path class="st1" d="M298.71,184.31c-0.01-0.01-0.01-0.02-0.02-0.02c0-0.01-0.01-0.01-0.01-0.01l-3.5,3.46L298.71,184.31z"/>
	<path class="st1" d="M193.61,139.14c-0.01,0-0.03,0-0.04,0c0,0-0.01,0-0.01,0l-0.01,4.92L193.61,139.14z"/>
	<path class="st1" d="M333.56,281.89c-0.62-0.68-1-1.49-1.17-2.33c0.43,4.49,0.66,9.01,0.66,13.54c0,0.9-0.01,1.8-0.03,2.71l0-0.03
		l-0.03,1.36l0,0.02c-0.14,6.81-2.96,12.89-7.45,17.31c-4.5,4.41-10.6,7.11-17.36,7.11c-0.17,0-0.35,0-0.52-0.01l-0.01,0
		c-6.8-0.13-12.88-2.95-17.3-7.44c-4.42-4.5-7.11-10.61-7.12-17.37c0-0.18,0-0.35,0.01-0.53l0-0.07c0-1.17,0.16-2.61,0.38-3.87
		l-0.01,0.03c1.02-5.71,1.53-11.54,1.53-17.4c0-20.3-6.1-41.03-18.2-58.84c0.31,1.29,0.11,2.71-0.7,3.9
		c-1.48,2.2-2.87,4.46-4.19,6.76c8.8,14.92,13.24,31.75,13.24,48.17c0,5.29-0.46,10.54-1.37,15.67l-0.01,0.03
		c-0.28,1.64-0.5,3.49-0.52,5.4l4.92,0.11l-4.92-0.03c0,0.22-0.01,0.45-0.01,0.67c0,9.42,3.79,18.02,9.94,24.27
		c6.14,6.25,14.69,10.21,24.14,10.39l-0.01,0c0.24,0.01,0.48,0.01,0.72,0.01c9.41,0,18.01-3.79,24.26-9.93
		c6.25-6.13,10.21-14.68,10.4-24.13l0,0.02l0.03-1.36l0-0.03c0.02-0.97,0.03-1.93,0.03-2.9c0-1.33-0.02-2.66-0.06-3.99
		C339.36,287.26,336.22,284.83,333.56,281.89z"/>
	<polygon class="st1" points="193.56,139.14 193.56,139.14 193.57,139.14 	"/>
	<path class="st1" d="M99.62,186.8l0.03-0.03c11.67-11.7,25.97-21.16,41.74-27.68c15.77-6.53,32.99-10.11,50.49-10.11
		c0.53,0,1.07,0,1.6,0.01l0.05,0c17.74,0.04,35.76,3.85,52.59,11.02c16.84,7.17,32.48,17.7,45.52,31.16l0.04,0.04
		c4.11,4.15,7.97,8.62,11.55,13.32c1.65,2.16,4.74,2.58,6.9,0.93c2.16-1.65,2.58-4.74,0.93-6.9c-3.82-5.01-7.95-9.79-12.35-14.24
		l-3.53,3.42l3.5-3.46c-13.98-14.42-30.7-25.67-48.69-33.33c-17.99-7.66-37.26-11.75-56.38-11.81l-0.06,4.92l0.01-4.92
		c-0.56-0.01-1.12-0.01-1.68-0.01c-18.84,0-37.32,3.85-54.25,10.86c-8.12,3.36-15.89,7.46-23.17,12.2
		c-4.49,3.95-8.74,8.15-12.7,12.57l-0.02,0.02c-12.23,13.46-21.95,31.43-28.61,50.51c1.88-3.24,3.87-6.39,5.95-9.43
		c1.5-2.99,3.1-5.91,4.8-8.73C88.48,199.48,93.76,192.55,99.62,186.8z"/>
	<path class="st1" d="M193.61,139.14c-0.01,0-0.03,0-0.04,0C193.58,139.14,193.59,139.14,193.61,139.14L193.61,139.14z"/>
	<path class="st1" d="M298.68,184.27L298.68,184.27c0,0.01,0.01,0.01,0.01,0.02C298.69,184.28,298.68,184.28,298.68,184.27z"/>
	<path class="st1" d="M72.8,226.24c-5.01,14.56-8.24,29.73-9.58,43.94c-0.02,0.2-0.03,0.39-0.05,0.59
		c-0.01,0.07-0.01,0.15-0.02,0.22c1.24-12.63,4.3-26.2,9.04-39.14c2-5.48,4.31-10.85,6.9-15.99c-2.09,3.04-4.08,6.18-5.95,9.43
		C73.03,225.61,72.91,225.92,72.8,226.24z"/>
	<path class="st1" d="M221.69,181.25c2.04-1.8,5.15-1.61,6.95,0.42c1.8,2.04,1.61,5.15-0.42,6.95c-0.86,0.76-1.71,1.53-2.54,2.31
		c1.02,0.59,2.04,1.19,3.04,1.81c10.71,6.65,20.03,15.16,27.31,24.92c0.67-1.07,1.36-2.14,2.06-3.19c1.51-2.25,4.56-2.85,6.81-1.35
		c-8.19-11.36-18.77-21.16-30.99-28.75c-12.49-7.75-26.7-13.2-41.8-15.59c-6.07-1.01-12.24-1.51-18.45-1.51
		c-24.63,0-49.75,7.86-70.69,23.26c-6.74,4.87-12.9,11-18.46,17.96c-1.88,2.36-3.68,4.82-5.42,7.35c-2.59,5.14-4.89,10.51-6.9,15.99
		c-4.74,12.94-7.8,26.51-9.04,39.14c-0.05,0.6-0.1,1.2-0.15,1.79c-0.28,3.83-0.44,7.59-0.48,11.27c0,0.07-0.01,0.14-0.01,0.21
		c-0.01,0.09-0.01,0.18-0.02,0.27c-0.01,0.08-0.02,0.15-0.04,0.23c0,0.03-0.01,0.05-0.01,0.08c0.01-0.05,0.02-0.09,0.03-0.13
		c2.32-15.78,7.92-33.15,15.98-48.64c4.02-7.75,8.65-15.03,13.76-21.42c5.1-6.4,10.67-11.9,16.54-16.13l0.04-0.03
		c12.74-9.38,27.24-15.71,42.15-18.91c2.83-3.54,5.8-6.96,8.9-10.26c1.86-1.98,4.98-2.07,6.96-0.21c1.98,1.86,2.07,4.98,0.21,6.96
		c-0.42,0.45-0.84,0.91-1.26,1.37c2.64-0.2,5.29-0.3,7.92-0.3c5.68,0,11.33,0.46,16.86,1.38l0.04,0.01
		c9.02,1.43,17.7,4.06,25.83,7.69C218.11,184.51,219.88,182.86,221.69,181.25z"/>
	<path class="st1" d="M192.09,168.79c0,0,0.01,0,0.01,0c0.01,0,0.02,0,0.03,0L192.09,168.79z"/>
	<path class="st1" d="M273.4,296.01c0,0.02,0,0.04,0,0.06c0,0.01,0,0.01,0,0.02l4.92,0.03L273.4,296.01z"/>
	<path class="st1" d="M322.51,226.38c-2.48,1.11-3.59,4.03-2.47,6.51c6.43,14.32,10.65,29.8,12.27,45.68
		c0.01-1.34,0.55-2.66,1.62-3.63c2.02-1.82,5.13-1.66,6.95,0.36c0.36,0.4,0.73,0.77,1.11,1.15c-1.81-16.56-6.27-32.66-12.97-47.59
		C327.9,226.37,324.99,225.26,322.51,226.38z"/>
	<path class="st1" d="M52.68,283.97c0-0.01,0-0.02,0-0.03c0,0,0,0,0,0c0-0.01,0-0.02,0-0.02c0.02-3.86,0.2-7.83,0.51-11.85
		c0.04-0.6,0.1-1.21,0.15-1.82c-0.44,4.5-0.66,8.92-0.66,13.2c0,0.19,0,0.38,0,0.57c0,0.09,0.01,0.17,0.01,0.25
		c0-0.02,0-0.03,0-0.05C52.69,284.14,52.68,284.06,52.68,283.97z"/>
	<path class="st1" d="M102.94,190.56c0.01-0.01,0.01-0.01,0.02-0.02c0.01,0,0.01-0.01,0.02-0.01L102.94,190.56z"/>
	<path class="st1" d="M52.7,284.49c0.01,0.08,0.02,0.16,0.04,0.24c0,0,0-0.01,0-0.01C52.73,284.64,52.71,284.57,52.7,284.49z"/>
	<path class="st1" d="M273.4,296.01c0,0.02,0,0.04,0,0.06C273.4,296.05,273.4,296.03,273.4,296.01L273.4,296.01z"/>
	<path class="st1" d="M273.4,296.09L273.4,296.09c0-0.01,0-0.01,0-0.02C273.4,296.07,273.4,296.08,273.4,296.09z"/>
	<path class="st1" d="M54.02,287.37c-0.02-0.02-0.04-0.04-0.06-0.06C53.99,287.33,54,287.35,54.02,287.37z"/>
	<path class="st1" d="M54.35,287.69c-0.03-0.02-0.05-0.05-0.08-0.07C54.3,287.64,54.33,287.67,54.35,287.69z"/>
	<path class="st1" d="M55.38,288.38c0.05,0.03,0.1,0.05,0.15,0.07c-0.04-0.02-0.07-0.04-0.11-0.05
		C55.4,288.39,55.39,288.39,55.38,288.38z"/>
	<path class="st1" d="M55.79,288.57c0.06,0.02,0.12,0.04,0.17,0.07c-0.03-0.01-0.07-0.03-0.1-0.04
		C55.84,288.59,55.82,288.58,55.79,288.57z"/>
	<path class="st1" d="M53.72,287.02c-0.01-0.02-0.02-0.03-0.04-0.05C53.7,286.99,53.71,287.01,53.72,287.02z"/>
	<path class="st1" d="M61.62,286.84c-0.02,0.03-0.04,0.05-0.06,0.08C61.58,286.89,61.6,286.86,61.62,286.84z"/>
	<path class="st1" d="M54.98,288.16c0.04,0.03,0.08,0.05,0.13,0.08c-0.04-0.02-0.07-0.04-0.11-0.07
		C55,288.17,54.99,288.16,54.98,288.16z"/>
	<path class="st1" d="M54.72,287.98c-0.04-0.03-0.07-0.05-0.1-0.08C54.65,287.93,54.68,287.95,54.72,287.98z"/>
	<path class="st1" d="M56.23,288.72c0.07,0.02,0.13,0.04,0.2,0.05c-0.03-0.01-0.06-0.02-0.09-0.03
		C56.3,288.74,56.27,288.73,56.23,288.72z"/>
	<path class="st1" d="M57.65,288.91c0.09,0,0.17-0.01,0.26-0.01c-0.03,0-0.05,0-0.08,0C57.77,288.91,57.71,288.91,57.65,288.91z"/>
	<path class="st1" d="M58.14,288.89c0.08-0.01,0.16-0.02,0.23-0.03c-0.02,0-0.04,0.01-0.06,0.01
		C58.26,288.87,58.2,288.88,58.14,288.89z"/>
	<path class="st1" d="M57.16,288.89c0.03,0,0.06,0.01,0.09,0.01c0.05,0,0.11,0,0.16,0c-0.03,0-0.05,0-0.08,0
		C57.28,288.9,57.22,288.9,57.16,288.89z"/>
	<path class="st1" d="M59.16,288.66c-0.02,0.01-0.05,0.02-0.07,0.03C59.11,288.68,59.14,288.67,59.16,288.66z"/>
	<path class="st1" d="M53.46,286.65c0-0.01-0.01-0.01-0.01-0.02C53.45,286.64,53.45,286.64,53.46,286.65z"/>
	<path class="st1" d="M56.69,288.83c0.07,0.01,0.15,0.02,0.22,0.04c-0.03,0-0.06-0.01-0.08-0.01
		C56.78,288.84,56.73,288.84,56.69,288.83z"/>
	<path class="st1" d="M58.62,288.81c0.06-0.01,0.12-0.03,0.18-0.05c0,0-0.01,0-0.01,0C58.74,288.78,58.68,288.8,58.62,288.81z"/>
	<path class="st1" d="M62.19,285.75c0.02-0.06,0.04-0.11,0.06-0.17c-0.02,0.05-0.04,0.1-0.05,0.14
		C62.2,285.73,62.2,285.74,62.19,285.75z"/>
	<path class="st1" d="M61.87,286.44c-0.02,0.04-0.05,0.08-0.08,0.12C61.82,286.52,61.84,286.48,61.87,286.44z"/>
	<path class="st1" d="M62.34,285.31c0.02-0.06,0.03-0.12,0.05-0.18c-0.01,0.05-0.02,0.09-0.04,0.13
		C62.35,285.27,62.34,285.29,62.34,285.31z"/>
	<path class="st1" d="M62.01,286.18c0.03-0.05,0.05-0.1,0.08-0.15C62.06,286.07,62.03,286.12,62.01,286.18
		C62.01,286.17,62.01,286.17,62.01,286.18z"/>
	<path class="st1" d="M166.78,169.11c-1.98-1.86-5.09-1.77-6.96,0.21c-3.1,3.3-6.06,6.72-8.9,10.26c4.91-1.05,9.86-1.78,14.81-2.15
		c0.42-0.46,0.83-0.92,1.26-1.37C168.85,174.09,168.76,170.97,166.78,169.11z"/>
	<path class="st1" d="M265.43,213.88C265.43,213.88,265.43,213.88,265.43,213.88c0.01,0.01,0.02,0.02,0.02,0.03L265.43,213.88z"/>
	<path class="st1" d="M266.94,216.08c-0.5-0.73-0.99-1.47-1.51-2.19c-0.18-0.25-0.37-0.5-0.55-0.75c-2.25-1.5-5.3-0.9-6.81,1.35
		c-0.71,1.05-1.39,2.11-2.06,3.19c0.47,0.64,0.94,1.28,1.39,1.92l0.02,0.03c1.66,2.31,3.2,4.7,4.63,7.12
		c1.31-2.31,2.71-4.57,4.19-6.76C267.05,218.78,267.25,217.37,266.94,216.08z"/>
	<path class="st1" d="M228.21,188.63c2.04-1.8,2.23-4.91,0.42-6.95c-1.8-2.04-4.91-2.23-6.95-0.42c-1.81,1.61-3.59,3.26-5.31,4.95
		c3.19,1.43,6.29,3.01,9.29,4.73C226.51,190.16,227.36,189.38,228.21,188.63z"/>
	<path class="st1" d="M53.34,270.24c0,0,0,0.01,0,0.01c-0.05,0.61-0.11,1.21-0.15,1.82C53.24,271.46,53.29,270.85,53.34,270.24z"/>
	<path class="st1" d="M52.74,284.72C52.74,284.72,52.74,284.73,52.74,284.72c0,0.01,0,0.02,0,0.03
		C52.74,284.74,52.74,284.73,52.74,284.72z"/>
	<path class="st1" d="M62.51,284.26c0-0.07,0.01-0.14,0.01-0.21c0.04-3.67,0.2-7.44,0.48-11.27c-0.3,3.83-0.47,7.59-0.48,11.24
		C62.52,284.1,62.51,284.18,62.51,284.26z"/>
	<path class="st1" d="M62.49,284.54c-0.01,0.08-0.02,0.15-0.04,0.23C62.47,284.69,62.48,284.62,62.49,284.54z"/>
	<path class="st1" d="M52.68,283.94C52.68,283.94,52.68,283.94,52.68,283.94c0-0.01,0-0.01,0-0.02
		C52.68,283.93,52.68,283.93,52.68,283.94z"/>
	<path class="st1" d="M52.69,284.23c0,0.02,0,0.03,0,0.05c0,0.01,0,0.03,0,0.04C52.69,284.29,52.69,284.26,52.69,284.23z"/>
	<path class="st1" d="M63.22,270.18c-0.02,0.2-0.03,0.39-0.05,0.59C63.19,270.57,63.2,270.38,63.22,270.18z"/>
	<path class="st1" d="M53.42,286.59c0.01,0.01,0.02,0.03,0.03,0.04c0,0.01,0.01,0.01,0.01,0.02c0,0,0.01,0.01,0.01,0.01
		C53.45,286.64,53.44,286.61,53.42,286.59z"/>
	<path class="st1" d="M62.35,285.26c0.01-0.04,0.03-0.09,0.04-0.13c0,0,0-0.01,0-0.01C62.38,285.16,62.37,285.21,62.35,285.26z"/>
	<path class="st1" d="M56.34,288.75c0.03,0.01,0.06,0.02,0.09,0.03c0,0,0.01,0,0.01,0C56.41,288.77,56.37,288.76,56.34,288.75z"/>
	<path class="st1" d="M56.83,288.85c0.03,0,0.06,0.01,0.08,0.01c0,0,0.01,0,0.01,0C56.89,288.86,56.86,288.86,56.83,288.85z"/>
	<path class="st1" d="M58.31,288.86c0.02,0,0.04-0.01,0.06-0.01c0.01,0,0.01,0,0.02,0C58.36,288.85,58.34,288.86,58.31,288.86z"/>
	<path class="st1" d="M58.79,288.77C58.8,288.76,58.8,288.76,58.79,288.77c0.01,0,0.01,0,0.01,0
		C58.8,288.76,58.8,288.76,58.79,288.77z"/>
	<path class="st1" d="M62.2,285.73c0.02-0.05,0.04-0.09,0.05-0.14c0,0,0-0.01,0-0.01C62.24,285.62,62.22,285.67,62.2,285.73z"/>
	<path class="st1" d="M57.33,288.9c0.03,0,0.05,0,0.08,0c0.01,0,0.01,0,0.02,0C57.4,288.91,57.37,288.91,57.33,288.9z"/>
	<path class="st1" d="M57.83,288.91c0.03,0,0.05,0,0.08,0c0.01,0,0.01,0,0.02,0C57.9,288.9,57.86,288.9,57.83,288.91z"/>
	<path class="st1" d="M54.27,287.61C54.27,287.61,54.27,287.61,54.27,287.61c0.03,0.03,0.06,0.05,0.08,0.08c0,0,0.01,0.01,0.01,0.01
		C54.33,287.67,54.3,287.64,54.27,287.61z"/>
	<path class="st1" d="M53.23,286.26c-0.01-0.02-0.02-0.05-0.03-0.07C53.21,286.22,53.22,286.24,53.23,286.26z"/>
	<path class="st1" d="M61.79,286.57C61.79,286.57,61.79,286.57,61.79,286.57c0.03-0.05,0.06-0.09,0.08-0.13c0,0,0-0.01,0.01-0.01
		C61.85,286.48,61.82,286.52,61.79,286.57z"/>
	<path class="st1" d="M53.96,287.3C53.96,287.3,53.96,287.3,53.96,287.3c0.03,0.03,0.05,0.05,0.07,0.07c0,0,0.01,0.01,0.01,0.01
		C54.01,287.35,53.98,287.32,53.96,287.3z"/>
	<path class="st1" d="M61.54,286.94c0.01-0.01,0.01-0.01,0.02-0.02c0.02-0.03,0.04-0.05,0.06-0.08c0,0,0.01-0.01,0.01-0.01
		C61.6,286.86,61.57,286.9,61.54,286.94z"/>
	<path class="st1" d="M53.04,285.85c-0.01-0.02-0.01-0.04-0.02-0.06C53.03,285.81,53.03,285.83,53.04,285.85z"/>
	<path class="st1" d="M55,288.17c0.04,0.02,0.07,0.04,0.11,0.07c0,0,0.01,0,0.01,0.01C55.08,288.22,55.04,288.19,55,288.17z"/>
	<path class="st1" d="M54.61,287.9C54.61,287.9,54.61,287.9,54.61,287.9c0.03,0.03,0.07,0.05,0.1,0.08c0,0,0.01,0.01,0.01,0.01
		C54.69,287.96,54.65,287.93,54.61,287.9z"/>
	<path class="st1" d="M55.86,288.6c0.03,0.01,0.07,0.03,0.1,0.04c0,0,0.01,0,0.01,0C55.94,288.63,55.9,288.61,55.86,288.6z"/>
	<path class="st1" d="M55.42,288.4c0.04,0.02,0.07,0.04,0.11,0.05c0,0,0.01,0,0.01,0.01C55.5,288.44,55.46,288.42,55.42,288.4z"/>
	<path class="st1" d="M62.01,286.17c0.02-0.05,0.05-0.1,0.07-0.15c0,0,0-0.01,0.01-0.01C62.06,286.06,62.04,286.12,62.01,286.17z"/>
	<path class="st1" d="M61.02,287.53C61.02,287.53,61.02,287.54,61.02,287.53C61.02,287.54,61.02,287.53,61.02,287.53z"/>
	<path class="st1" d="M61.34,287.19c-0.02,0.02-0.04,0.04-0.06,0.07C61.3,287.24,61.32,287.22,61.34,287.19z"/>
	<path class="st1" d="M53.67,286.95c0.01,0.01,0.01,0.01,0.01,0.02c0.01,0.02,0.02,0.03,0.04,0.05c0,0,0.01,0.01,0.01,0.01
		C53.71,287.01,53.69,286.98,53.67,286.95z"/>
	<path class="st1" d="M340.87,275.3c-1.82-2.02-4.93-2.18-6.95-0.36c-1.07,0.97-1.61,2.29-1.62,3.63c0.03,0.33,0.06,0.66,0.09,0.99
		c0.17,0.84,0.55,1.65,1.17,2.33c2.65,2.94,5.8,5.37,9.28,7.22c-0.11-4.24-0.4-8.47-0.86-12.67
		C341.6,276.07,341.23,275.69,340.87,275.3z"/>
	<path class="st1" d="M72.8,226.24c0.11-0.32,0.23-0.64,0.34-0.96c-0.82,1.42-1.62,2.86-2.4,4.31c-3.85,13.62-6.38,27.45-7.52,40.58
		C64.56,255.98,67.79,240.81,72.8,226.24z"/>
	<path class="st1" d="M63,272.78c0.05-0.6,0.1-1.19,0.15-1.79c0,0,0,0,0,0C63.1,271.59,63.05,272.19,63,272.78z"/>
	<path class="st1" d="M62.51,284.26c-0.01,0.09-0.01,0.18-0.02,0.27C62.5,284.45,62.5,284.35,62.51,284.26z"/>
	<path class="st1" d="M70.74,229.6c0.78-1.45,1.58-2.89,2.4-4.31c6.66-19.08,16.37-37.05,28.61-50.51l0.02-0.02
		c3.96-4.42,8.21-8.62,12.7-12.57c-7.88,5.13-15.19,11.03-21.75,17.6c-0.55,0.54-1.08,1.1-1.62,1.65
		c-7.2,12.04-13.15,25.51-17.7,39.43C72.45,223.76,71.57,226.68,70.74,229.6z"/>
	<path class="st1" d="M52.68,283.97c0,0.09,0.01,0.17,0.01,0.25c0-0.09-0.01-0.19-0.01-0.28C52.68,283.95,52.68,283.96,52.68,283.97
		z"/>
	<path class="st1" d="M62.44,284.86c0-0.01,0-0.01,0-0.02c0-0.03,0.01-0.05,0.01-0.08C62.45,284.8,62.45,284.83,62.44,284.86z"/>
	<path class="st1" d="M52.7,284.47c0,0.01,0,0.01,0,0.02c0.01,0.08,0.02,0.15,0.03,0.23C52.73,284.64,52.71,284.56,52.7,284.47z"/>
	<path class="st1" d="M63.15,270.99C63.15,270.99,63.15,270.99,63.15,270.99c0.01-0.08,0.01-0.15,0.02-0.23
		C63.17,270.84,63.16,270.92,63.15,270.99z"/>
	<path class="st1" d="M92.69,179.81c0.01-0.01,0.02-0.02,0.02-0.02c0,0,0.01-0.01,0.01-0.01L92.69,179.81z"/>
	<path class="st1" d="M52.68,283.92c0.04-3.88,0.21-7.84,0.51-11.85C52.88,276.09,52.7,280.05,52.68,283.92z"/>
	<path class="st1" d="M59.54,288.52c-0.01,0-0.01,0.01-0.02,0.01C59.53,288.52,59.53,288.52,59.54,288.52z"/>
	<path class="st1" d="M52.8,285.07c-0.01-0.04-0.02-0.08-0.03-0.12C52.78,284.99,52.79,285.03,52.8,285.07z"/>
	<path class="st1" d="M54.98,288.15C54.98,288.15,54.98,288.16,54.98,288.15c0.01,0.01,0.02,0.01,0.03,0.02
		C54.99,288.16,54.99,288.16,54.98,288.15z"/>
	<path class="st1" d="M55.78,288.56c0,0,0.01,0,0.01,0c0.02,0.01,0.05,0.02,0.07,0.03C55.84,288.59,55.81,288.58,55.78,288.56z"/>
	<path class="st1" d="M62.19,285.76C62.19,285.76,62.19,285.76,62.19,285.76c0.01-0.02,0.01-0.03,0.01-0.03
		C62.2,285.74,62.19,285.75,62.19,285.76z"/>
	<path class="st1" d="M55.37,288.38C55.37,288.38,55.37,288.38,55.37,288.38c0.02,0.01,0.04,0.02,0.05,0.03
		C55.4,288.39,55.38,288.39,55.37,288.38z"/>
	<path class="st1" d="M62.34,285.32c0,0,0-0.01,0-0.01c0-0.02,0.01-0.03,0.01-0.05C62.35,285.28,62.34,285.3,62.34,285.32z"/>
	<polygon class="st1" points="62.01,286.18 62.01,286.18 62.01,286.17 	"/>
	<path class="st1" d="M56.22,288.71c0,0,0.01,0,0.01,0c0.03,0.01,0.07,0.02,0.1,0.03C56.3,288.74,56.26,288.73,56.22,288.71z"/>
	<path class="st1" d="M56.67,288.82c0.01,0,0.01,0,0.02,0c0.05,0.01,0.09,0.01,0.14,0.02C56.78,288.84,56.72,288.83,56.67,288.82z"
		/>
	<path class="st1" d="M59.07,288.69c0,0,0.01,0,0.01,0c0.02-0.01,0.05-0.02,0.07-0.03c0.01,0,0.02-0.01,0.04-0.01
		C59.16,288.66,59.12,288.68,59.07,288.69z"/>
	<path class="st1" d="M57.63,288.91c0.01,0,0.01,0,0.02,0c0.06,0,0.12-0.01,0.18-0.01C57.76,288.91,57.7,288.91,57.63,288.91z"/>
	<path class="st1" d="M57.14,288.89c0.01,0,0.01,0,0.02,0c0.06,0,0.11,0.01,0.17,0.01C57.27,288.9,57.21,288.9,57.14,288.89z"/>
	<path class="st1" d="M58.61,288.81c0.01,0,0.01,0,0.02,0c0.06-0.01,0.11-0.03,0.17-0.04C58.73,288.78,58.67,288.8,58.61,288.81z"/>
	<path class="st1" d="M58.12,288.89c0.01,0,0.01,0,0.02,0c0.06-0.01,0.12-0.02,0.18-0.03C58.25,288.87,58.19,288.88,58.12,288.89z"
		/>
	<path class="st1" d="M63.22,270.18c1.14-13.13,3.67-26.96,7.52-40.58c-2.54,4.73-4.86,9.62-6.94,14.59
		c-5.39,12.9-9.19,26.35-11.07,39.09l0.65,0.1c0.86-1.43,2.43-2.4,4.22-2.4c2.03,0,3.78,1.24,4.53,3l0.39,0c0-0.18,0-0.35,0-0.53
		c0-4,0.21-8.17,0.63-12.45c0.01-0.08,0.01-0.15,0.02-0.23C63.19,270.57,63.2,270.38,63.22,270.18z"/>
	<path class="st1" d="M52.73,283.28c1.88-12.74,5.68-26.19,11.07-39.09c2.08-4.97,4.4-9.86,6.94-14.59
		c0.83-2.92,1.71-5.84,2.65-8.73c4.55-13.93,10.5-27.39,17.7-39.43c-5.88,6.08-11.1,13.06-15.65,20.63
		c-7.44,12.39-13.11,26.31-16.94,40.34c-2.56,9.37-4.29,18.78-5.17,27.83c-0.05,0.61-0.1,1.22-0.15,1.83
		c-0.29,4.02-0.46,7.97-0.51,11.85c0,0.01,0,0.02,0,0.03c0,0.1,0.01,0.19,0.01,0.28c0,0.03,0,0.06,0,0.09c0,0.05,0,0.11,0.01,0.16
		c0.01,0.08,0.02,0.17,0.04,0.25c0,0.01,0,0.02,0,0.03c0.01,0.07,0.02,0.13,0.03,0.2c0.11-0.57,0.32-1.1,0.61-1.58L52.73,283.28z"/>
	<path class="st1" d="M62.49,284.54c0.01-0.09,0.01-0.18,0.02-0.27c0-0.08,0.01-0.16,0.01-0.24c0.02-3.64,0.18-7.4,0.48-11.24
		c0.04-0.59,0.1-1.19,0.15-1.79c-0.42,4.28-0.63,8.45-0.63,12.45c0,0.17,0,0.35,0,0.53l-0.39,0c0.13,0.31,0.23,0.63,0.3,0.96
		c0-0.02,0.01-0.05,0.01-0.07c0.01-0.03,0.01-0.06,0.02-0.1C62.47,284.69,62.48,284.61,62.49,284.54z"/>
	<path class="st1" d="M57.6,284l-4.22-0.62c-0.29,0.48-0.5,1.01-0.61,1.58c0,0,0,0,0,0c0.01,0.04,0.02,0.08,0.03,0.12
		c0.05,0.24,0.13,0.48,0.22,0.71c0.01,0.02,0.01,0.04,0.02,0.06c0.05,0.12,0.1,0.24,0.16,0.35c0.01,0.02,0.02,0.05,0.03,0.07
		c0.06,0.11,0.12,0.22,0.19,0.32c0.01,0.02,0.03,0.05,0.04,0.07c0.07,0.1,0.14,0.2,0.21,0.29c0.02,0.03,0.04,0.05,0.06,0.08
		c0.07,0.09,0.15,0.18,0.23,0.26c0.03,0.03,0.05,0.06,0.08,0.08c0.08,0.08,0.16,0.16,0.24,0.23c0.03,0.03,0.06,0.06,0.09,0.09
		c0.08,0.07,0.16,0.14,0.25,0.2c0.04,0.03,0.08,0.06,0.12,0.09c0.08,0.06,0.16,0.11,0.25,0.17c0.01,0.01,0.02,0.01,0.03,0.02
		c0.04,0.02,0.08,0.05,0.12,0.07c0.08,0.05,0.16,0.09,0.25,0.13c0.02,0.01,0.03,0.02,0.05,0.03c0.04,0.02,0.08,0.04,0.12,0.06
		c0.08,0.04,0.16,0.07,0.24,0.1c0.03,0.01,0.05,0.02,0.08,0.03c0.04,0.01,0.08,0.03,0.12,0.04c0.08,0.03,0.16,0.05,0.24,0.08
		c0.04,0.01,0.08,0.02,0.12,0.03c0.04,0.01,0.07,0.02,0.11,0.03c0.08,0.02,0.15,0.04,0.23,0.05c0.05,0.01,0.1,0.02,0.15,0.03
		c0.03,0.01,0.07,0.01,0.1,0.02c0.07,0.01,0.15,0.02,0.22,0.03c0.06,0.01,0.13,0.01,0.19,0.01c0.03,0,0.06,0,0.1,0.01
		c0.07,0,0.13,0.01,0.2,0c0.07,0,0.13-0.01,0.2-0.01c0.03,0,0.07,0,0.1,0c0.06,0,0.13-0.01,0.19-0.01c0.06-0.01,0.13-0.02,0.19-0.03
		c0.03,0,0.05-0.01,0.07-0.01c0.07-0.01,0.15-0.02,0.22-0.04c0.06-0.01,0.12-0.03,0.19-0.05c0,0,0.01,0,0.01,0
		c0.09-0.02,0.18-0.04,0.27-0.07c0.04-0.01,0.08-0.03,0.12-0.04c0.11-0.04,0.22-0.08,0.32-0.12c0.01,0,0.01-0.01,0.02-0.01
		c0.55-0.24,1.05-0.57,1.47-0.98c0,0,0.01-0.01,0.01-0.01c0.09-0.09,0.17-0.18,0.26-0.27c0.02-0.02,0.04-0.04,0.06-0.07
		c0.07-0.08,0.14-0.17,0.2-0.26c0.03-0.04,0.06-0.07,0.09-0.11c0.06-0.08,0.11-0.17,0.16-0.25c0.03-0.05,0.06-0.1,0.09-0.14
		c0.05-0.08,0.09-0.17,0.13-0.25c0,0,0,0,0-0.01c0.03-0.05,0.05-0.11,0.08-0.16c0.04-0.08,0.07-0.17,0.1-0.25
		c0-0.01,0.01-0.02,0.01-0.03c0.02-0.05,0.04-0.1,0.06-0.16c0.03-0.08,0.05-0.17,0.07-0.25c0.01-0.02,0.01-0.04,0.02-0.06
		c0.01-0.05,0.03-0.1,0.04-0.15c0.01-0.06,0.02-0.12,0.03-0.18c-0.07-0.33-0.17-0.65-0.3-0.96L57.6,284z"/>
	<path class="st1" d="M57.6,280.98c-1.79,0-3.36,0.96-4.22,2.4L57.6,284l4.53-0.02C61.38,282.21,59.64,280.98,57.6,280.98z"/>
	<path class="st1" d="M354.39,429.81c5.03-2.48,9.9-5.22,14.62-8.19c11.43-7.22,21.87-15.87,31.11-25.66
		c-2.62,2.05-5.31,4.02-8.08,5.88C380.61,412.5,367.99,421.9,354.39,429.81z"/>
	<path class="st1" d="M278.16,455.97c-9.25,1.26-18.68,1.92-28.28,1.92c-57.55,0-109.6-23.31-147.32-61.03
		c-5.51-5.51-10.7-11.33-15.56-17.43c5.36,9.5,11.5,18.5,18.35,26.91c38,35.05,88.76,56.46,144.53,56.46
		c21.27,0,41.81-3.13,61.2-8.93c-8.9,1.44-18.03,2.19-27.33,2.19C281.88,456.07,280.02,456.03,278.16,455.97z"/>
	<path class="st1" d="M249.88,36.26c-117.79,0-213.27,95.49-213.27,213.27c0,39.22,10.6,75.96,29.07,107.53
		c-3.38-8.9-6.14-18.11-8.24-27.57c-10.24-24.62-15.91-51.62-15.91-79.96c0-57.55,23.31-109.6,61.02-147.32
		c37.72-37.71,89.77-61.02,147.32-61.03c57.55,0,109.6,23.31,147.32,61.03c37.71,37.72,61.02,89.78,61.02,147.32h4.92
		C463.15,131.75,367.67,36.26,249.88,36.26z"/>
	<path class="st1" d="M430.05,354.21c0.88-0.89,1.75-1.81,2.63-2.75c1.36-1.46,3.43-1.91,5.25-1.26
		c16.09-29.99,25.22-64.26,25.22-100.67h-4.92C458.23,287.71,447.96,323.46,430.05,354.21z"/>
	<path class="st1" d="M95.6,403.82c39.47,39.48,94.05,63.91,154.28,63.91c60.24,0,114.81-24.43,154.28-63.91
		c39.48-39.47,63.91-94.05,63.9-154.28h-4.92c0,36.41-9.13,70.69-25.22,100.67c-0.78,1.46-1.58,2.91-2.4,4.34
		c-0.3,0.53-0.6,1.06-0.9,1.59c-0.79,1.37-1.6,2.74-2.42,4.09c-0.05,0.09-0.11,0.18-0.17,0.27c0,0,0,0,0,0
		c-2.42,3.97-4.98,7.86-7.65,11.65c-1.35,1.91-2.72,3.81-4.13,5.67c-27.03,35.84-65.11,62.87-109.17,76.05
		c-19.39,5.8-39.93,8.93-61.2,8.93c-55.77,0-106.53-21.42-144.53-56.46c-15.53-14.33-28.93-30.93-39.67-49.28
		c-18.47-31.57-29.07-68.31-29.07-107.53c0-117.78,95.48-213.27,213.27-213.27c117.79,0,213.27,95.49,213.27,213.27h4.92
		c0-60.23-24.43-114.81-63.9-154.28c-39.47-39.48-94.05-63.91-154.28-63.91c-60.24,0-114.82,24.43-154.28,63.91
		c-39.48,39.47-63.91,94.05-63.9,154.28C31.69,309.77,56.12,364.35,95.6,403.82z"/>
	<path class="st1" d="M430.96,354.93c1.16-0.1,2.36,0.2,3.36,0.93c0.12,0.08,0.21,0.19,0.32,0.28c0.31-0.53,0.6-1.06,0.9-1.59
		l-3.86-1.46C431.44,353.71,431.2,354.32,430.96,354.93z"/>
	<path class="st1" d="M57.44,329.5c2.1,9.46,4.86,18.66,8.24,27.57c10.74,18.35,24.13,34.95,39.67,49.28
		c-6.85-8.41-13-17.41-18.35-26.91C74.95,364.35,64.96,347.57,57.44,329.5z"/>
	<path class="st1" d="M432.68,351.47c-0.88,0.94-1.75,1.85-2.63,2.75c-0.22,0.37-0.44,0.74-0.66,1.11c0.5-0.22,1.03-0.35,1.56-0.4
		c0.24-0.61,0.48-1.22,0.71-1.83l3.86,1.46c0.81-1.44,1.61-2.88,2.4-4.34C436.11,349.56,434.04,350.01,432.68,351.47z"/>
	<path class="st1" d="M429.4,358.82c-1.43,3.44-2.95,6.83-4.56,10.16c0.09,1.19-0.25,2.41-1.04,3.42c-0.14,0.17-0.28,0.34-0.42,0.52
		c0.34-0.25,0.68-0.51,1.02-0.77c2.67-3.8,5.23-7.68,7.65-11.65l-0.65-0.68L429.4,358.82z"/>
	<path class="st1" d="M421.97,374.64c-0.56,1.07-1.14,2.13-1.72,3.19c1.41-1.87,2.79-3.76,4.13-5.67c-0.34,0.26-0.68,0.51-1.02,0.77
		C422.91,373.49,422.44,374.07,421.97,374.64z"/>
	<path class="st1" d="M400.12,395.95c-9.24,9.79-19.68,18.44-31.11,25.66c-4.71,2.98-9.59,5.71-14.62,8.19
		c-22.98,13.36-48.75,22.43-76.23,26.16c1.86,0.06,3.72,0.1,5.6,0.1c9.3,0,18.43-0.75,27.33-2.19
		c44.06-13.18,82.14-40.21,109.17-76.05c0.58-1.06,1.15-2.12,1.72-3.19C415.48,382.51,408.15,389.66,400.12,395.95z"/>
	<polygon class="st1" points="432.04,360.5 432.04,360.5 431.39,359.82 	"/>
	<path class="st1" d="M422.99,365.51c0.17,0.14,0.34,0.27,0.5,0.43c0.82,0.86,1.27,1.94,1.35,3.04c1.62-3.33,3.14-6.72,4.56-10.16
		l-1.61-0.81C426.24,360.55,424.64,363.04,422.99,365.51z"/>
	<path class="st1" d="M430.96,354.93c-0.51,1.3-1.03,2.6-1.56,3.89l1.99,1l0.82,0.41c0.82-1.35,1.63-2.72,2.42-4.09
		c-0.11-0.09-0.2-0.19-0.32-0.28C433.32,355.12,432.12,354.82,430.96,354.93z"/>
	<path class="st1" d="M432.04,360.5c0.05-0.09,0.11-0.18,0.17-0.27l-0.82-0.41L432.04,360.5z"/>
	<path class="st1" d="M429.4,358.82c0.53-1.29,1.05-2.59,1.56-3.89c-0.54,0.05-1.06,0.18-1.56,0.4c-0.53,0.9-1.06,1.8-1.6,2.69
		L429.4,358.82z"/>
	<path class="st1" d="M420.28,369.62c0.33-0.54,0.67-1.07,0.99-1.62c-0.36,0.52-0.71,1.04-1.07,1.55L420.28,369.62z"/>
	<path class="st1" d="M420.14,369.63l0.07,0.1c0.02-0.04,0.04-0.07,0.07-0.11l-0.08-0.07C420.18,369.58,420.16,369.61,420.14,369.63
		z"/>
	<polygon class="st1" points="420.21,369.73 420.21,369.73 420.14,369.63 420.14,369.63 	"/>
	<path class="st1" d="M420.14,369.63c-2.57,3.63-5.25,7.17-8.04,10.62c0.61-0.35,1.21-0.7,1.82-1.06c2.21-3.08,4.3-6.23,6.29-9.47
		L420.14,369.63z"/>
	<path class="st1" d="M412.11,380.26c-4.67,5.79-9.64,11.34-14.9,16.6c-1.69,1.69-3.42,3.34-5.17,4.97
		c2.77-1.87,5.46-3.83,8.08-5.88c4.96-5.26,9.58-10.86,13.8-16.75C413.32,379.56,412.71,379.91,412.11,380.26z"/>
	<path class="st1" d="M413.92,379.2c2.97-1.77,5.85-3.67,8.64-5.68c0.06-0.11,0.11-0.21,0.17-0.32l-2.52-3.46
		C418.23,372.96,416.13,376.12,413.92,379.2z"/>
	<path class="st1" d="M422.74,373.18c0.2-0.38,0.39-0.77,0.59-1.16l-3.04-2.41c-0.02,0.04-0.04,0.07-0.07,0.11L422.74,373.18z"/>
	<path class="st1" d="M423.79,372.4c0.79-1,1.13-2.22,1.04-3.42c-0.49,1.02-1,2.04-1.51,3.05L423.79,372.4z"/>
	<path class="st1" d="M422.83,373.33l-0.1-0.13c-0.06,0.11-0.11,0.21-0.17,0.32C422.65,373.45,422.74,373.39,422.83,373.33z"/>
	<path class="st1" d="M420.21,369.73l2.52,3.46c0,0,0-0.01,0.01-0.01L420.21,369.73C420.21,369.73,420.21,369.73,420.21,369.73z"/>
	<path class="st1" d="M422.99,365.51c-0.56,0.84-1.14,1.67-1.71,2.5c-0.32,0.54-0.66,1.08-0.99,1.62l3.04,2.41
		c0.51-1.01,1.02-2.02,1.51-3.05c-0.08-1.11-0.53-2.19-1.35-3.04C423.33,365.78,423.16,365.64,422.99,365.51z"/>
	<path class="st1" d="M413.92,379.2c-4.23,5.89-8.84,11.49-13.8,16.75c8.03-6.29,15.36-13.44,21.85-21.31
		c0.2-0.37,0.39-0.75,0.59-1.12C419.77,375.53,416.89,377.43,413.92,379.2z"/>
	<path class="st1" d="M422.74,373.18c0,0,0,0.01-0.01,0.01l0.1,0.13c-0.09,0.06-0.18,0.13-0.27,0.19c-0.19,0.37-0.39,0.75-0.59,1.12
		c0.47-0.57,0.94-1.14,1.4-1.72c-0.18,0.13-0.36,0.27-0.54,0.4L422.74,373.18z"/>
	<path class="st1" d="M422.74,373.18l0.1,0.14c0.18-0.13,0.36-0.27,0.54-0.4c0.14-0.17,0.28-0.34,0.42-0.52l-0.47-0.37
		C423.13,372.41,422.93,372.8,422.74,373.18z"/>
</g>
</svg>
